%TF.GenerationSoftware,KiCad,Pcbnew,8.0.2*%
%TF.CreationDate,2024-05-17T09:05:44-06:00*%
%TF.ProjectId,PCB_Project,5043425f-5072-46f6-9a65-63742e6b6963,rev?*%
%TF.SameCoordinates,Original*%
%TF.FileFunction,Copper,L1,Top*%
%TF.FilePolarity,Positive*%
%FSLAX46Y46*%
G04 Gerber Fmt 4.6, Leading zero omitted, Abs format (unit mm)*
G04 Created by KiCad (PCBNEW 8.0.2) date 2024-05-17 09:05:44*
%MOMM*%
%LPD*%
G01*
G04 APERTURE LIST*
G04 Aperture macros list*
%AMRoundRect*
0 Rectangle with rounded corners*
0 $1 Rounding radius*
0 $2 $3 $4 $5 $6 $7 $8 $9 X,Y pos of 4 corners*
0 Add a 4 corners polygon primitive as box body*
4,1,4,$2,$3,$4,$5,$6,$7,$8,$9,$2,$3,0*
0 Add four circle primitives for the rounded corners*
1,1,$1+$1,$2,$3*
1,1,$1+$1,$4,$5*
1,1,$1+$1,$6,$7*
1,1,$1+$1,$8,$9*
0 Add four rect primitives between the rounded corners*
20,1,$1+$1,$2,$3,$4,$5,0*
20,1,$1+$1,$4,$5,$6,$7,0*
20,1,$1+$1,$6,$7,$8,$9,0*
20,1,$1+$1,$8,$9,$2,$3,0*%
%AMFreePoly0*
4,1,14,0.628536,0.853536,0.630000,0.850000,0.630000,-0.850000,0.628536,-0.853536,0.625000,-0.855000,-0.625000,-0.855000,-0.628536,-0.853536,-0.630000,-0.850000,-0.630000,0.550000,-0.628536,0.553536,-0.328536,0.853536,-0.325000,0.855000,0.625000,0.855000,0.628536,0.853536,0.628536,0.853536,$1*%
G04 Aperture macros list end*
%TA.AperFunction,ComponentPad*%
%ADD10RoundRect,0.250000X-0.350000X-0.625000X0.350000X-0.625000X0.350000X0.625000X-0.350000X0.625000X0*%
%TD*%
%TA.AperFunction,ComponentPad*%
%ADD11O,1.200000X1.750000*%
%TD*%
%TA.AperFunction,SMDPad,CuDef*%
%ADD12RoundRect,0.135000X0.135000X0.185000X-0.135000X0.185000X-0.135000X-0.185000X0.135000X-0.185000X0*%
%TD*%
%TA.AperFunction,SMDPad,CuDef*%
%ADD13R,0.375000X0.350000*%
%TD*%
%TA.AperFunction,SMDPad,CuDef*%
%ADD14R,0.350000X0.375000*%
%TD*%
%TA.AperFunction,SMDPad,CuDef*%
%ADD15RoundRect,0.135000X-0.135000X-0.185000X0.135000X-0.185000X0.135000X0.185000X-0.135000X0.185000X0*%
%TD*%
%TA.AperFunction,SMDPad,CuDef*%
%ADD16RoundRect,0.140000X0.140000X0.170000X-0.140000X0.170000X-0.140000X-0.170000X0.140000X-0.170000X0*%
%TD*%
%TA.AperFunction,ComponentPad*%
%ADD17R,1.350000X1.350000*%
%TD*%
%TA.AperFunction,ComponentPad*%
%ADD18O,1.350000X1.350000*%
%TD*%
%TA.AperFunction,SMDPad,CuDef*%
%ADD19RoundRect,0.140000X0.170000X-0.140000X0.170000X0.140000X-0.170000X0.140000X-0.170000X-0.140000X0*%
%TD*%
%TA.AperFunction,SMDPad,CuDef*%
%ADD20RoundRect,0.135000X0.185000X-0.135000X0.185000X0.135000X-0.185000X0.135000X-0.185000X-0.135000X0*%
%TD*%
%TA.AperFunction,SMDPad,CuDef*%
%ADD21RoundRect,0.140000X-0.140000X-0.170000X0.140000X-0.170000X0.140000X0.170000X-0.140000X0.170000X0*%
%TD*%
%TA.AperFunction,SMDPad,CuDef*%
%ADD22R,0.762000X0.254000*%
%TD*%
%TA.AperFunction,SMDPad,CuDef*%
%ADD23R,1.295400X2.006600*%
%TD*%
%TA.AperFunction,SMDPad,CuDef*%
%ADD24RoundRect,0.150000X-0.587500X-0.150000X0.587500X-0.150000X0.587500X0.150000X-0.587500X0.150000X0*%
%TD*%
%TA.AperFunction,SMDPad,CuDef*%
%ADD25R,0.550000X0.400000*%
%TD*%
%TA.AperFunction,SMDPad,CuDef*%
%ADD26FreePoly0,0.000000*%
%TD*%
%TA.AperFunction,SMDPad,CuDef*%
%ADD27RoundRect,0.042000X-0.258000X0.943000X-0.258000X-0.943000X0.258000X-0.943000X0.258000X0.943000X0*%
%TD*%
%TA.AperFunction,SMDPad,CuDef*%
%ADD28RoundRect,0.150000X-0.150000X0.587500X-0.150000X-0.587500X0.150000X-0.587500X0.150000X0.587500X0*%
%TD*%
%TA.AperFunction,SMDPad,CuDef*%
%ADD29R,2.030000X1.140000*%
%TD*%
%TA.AperFunction,SMDPad,CuDef*%
%ADD30R,0.254000X0.482600*%
%TD*%
%TA.AperFunction,SMDPad,CuDef*%
%ADD31R,0.482600X0.254000*%
%TD*%
%TA.AperFunction,SMDPad,CuDef*%
%ADD32RoundRect,0.140000X-0.170000X0.140000X-0.170000X-0.140000X0.170000X-0.140000X0.170000X0.140000X0*%
%TD*%
%TA.AperFunction,ComponentPad*%
%ADD33R,1.700000X1.700000*%
%TD*%
%TA.AperFunction,ComponentPad*%
%ADD34O,1.700000X1.700000*%
%TD*%
%TA.AperFunction,ViaPad*%
%ADD35C,0.800000*%
%TD*%
%TA.AperFunction,Conductor*%
%ADD36C,0.250000*%
%TD*%
G04 APERTURE END LIST*
D10*
%TO.P,J4,1,Pin_1*%
%TO.N,I2C_SCL_M_5V*%
X134500000Y-107550000D03*
D11*
%TO.P,J4,2,Pin_2*%
%TO.N,I2C_SDA_M_5V*%
X136500000Y-107550000D03*
%TD*%
D12*
%TO.P,R11,1*%
%TO.N,Net-(Q3-B)*%
X138010000Y-102000000D03*
%TO.P,R11,2*%
%TO.N,Pi_TX*%
X136990000Y-102000000D03*
%TD*%
D13*
%TO.P,U12,1,SCL*%
%TO.N,I2C_SCL_1*%
X118837500Y-74850000D03*
%TO.P,U12,2,GND*%
%TO.N,GND*%
X118837500Y-75350000D03*
%TO.P,U12,3,GND*%
X118837500Y-75850000D03*
%TO.P,U12,4,C1*%
%TO.N,Net-(U12-C1)*%
X118837500Y-76350000D03*
D14*
%TO.P,U12,5,VDD*%
%TO.N,+3V3*%
X119350000Y-76362500D03*
%TO.P,U12,6,VDD_io*%
X119850000Y-76362500D03*
D13*
%TO.P,U12,7,Int*%
%TO.N,unconnected-(U12-Int-Pad7)*%
X120362500Y-76350000D03*
%TO.P,U12,8,DRDY*%
%TO.N,unconnected-(U12-DRDY-Pad8)*%
X120362500Y-75850000D03*
%TO.P,U12,9,SA1*%
%TO.N,+3V3*%
X120362500Y-75350000D03*
%TO.P,U12,10,CS*%
X120362500Y-74850000D03*
D14*
%TO.P,U12,11,SDA*%
%TO.N,I2C_SDA_1*%
X119850000Y-74837500D03*
%TO.P,U12,12,GND*%
%TO.N,GND*%
X119350000Y-74837500D03*
%TD*%
D10*
%TO.P,J5,1,Pin_1*%
%TO.N,I2C_SCL_M_5V*%
X143000000Y-107550000D03*
D11*
%TO.P,J5,2,Pin_2*%
%TO.N,I2C_SDA_M_5V*%
X145000000Y-107550000D03*
%TD*%
D15*
%TO.P,R10,1*%
%TO.N,Pi_TX_5V*%
X154490000Y-101500000D03*
%TO.P,R10,2*%
%TO.N,+5V*%
X155510000Y-101500000D03*
%TD*%
D16*
%TO.P,C10,1*%
%TO.N,Net-(U12-C1)*%
X116822500Y-76350000D03*
%TO.P,C10,2*%
%TO.N,GND*%
X115862500Y-76350000D03*
%TD*%
D15*
%TO.P,R3,1*%
%TO.N,+3V3*%
X132840000Y-73250000D03*
%TO.P,R3,2*%
%TO.N,Net-(U9-VDD)*%
X133860000Y-73250000D03*
%TD*%
%TO.P,R12,1*%
%TO.N,GND*%
X124990000Y-101000000D03*
%TO.P,R12,2*%
%TO.N,Pi_RX*%
X126010000Y-101000000D03*
%TD*%
D17*
%TO.P,J2,1,Vin*%
%TO.N,+5V*%
X163500000Y-107500000D03*
D18*
%TO.P,J2,2,UART_TXD_(Out)*%
%TO.N,Pi_RX_5V*%
X161500000Y-107500000D03*
%TO.P,J2,3,UART_RX_(In)*%
%TO.N,Pi_TX_5V*%
X159500000Y-107500000D03*
%TO.P,J2,4,GND*%
%TO.N,GND*%
X157500000Y-107500000D03*
%TO.P,J2,5,Reserved*%
%TO.N,unconnected-(J2-Reserved-Pad5)*%
X155500000Y-107500000D03*
%TD*%
D19*
%TO.P,C8,1*%
%TO.N,GND*%
X141600000Y-74960000D03*
%TO.P,C8,2*%
%TO.N,+3V3*%
X141600000Y-74000000D03*
%TD*%
%TO.P,C14,1*%
%TO.N,+3V3*%
X140500000Y-86730000D03*
%TO.P,C14,2*%
%TO.N,GND*%
X140500000Y-85770000D03*
%TD*%
D20*
%TO.P,R8,1*%
%TO.N,+3V3*%
X150000000Y-67510000D03*
%TO.P,R8,2*%
%TO.N,I2C_SDA_M*%
X150000000Y-66490000D03*
%TD*%
D21*
%TO.P,C11,1*%
%TO.N,+3V3*%
X119320000Y-79400000D03*
%TO.P,C11,2*%
%TO.N,GND*%
X120280000Y-79400000D03*
%TD*%
D10*
%TO.P,J6,1,Pin_1*%
%TO.N,I2C_SCL_M_5V*%
X117750000Y-107450000D03*
D11*
%TO.P,J6,2,Pin_2*%
%TO.N,I2C_SDA_M_5V*%
X119750000Y-107450000D03*
%TD*%
D22*
%TO.P,U10,1,SDA*%
%TO.N,I2C_SDA_2*%
X135561600Y-85749999D03*
%TO.P,U10,2,ADDR*%
%TO.N,GND*%
X135561600Y-86250000D03*
%TO.P,U10,3,ALERT*%
%TO.N,unconnected-(U10-ALERT-Pad3)*%
X135561600Y-86750000D03*
%TO.P,U10,4,SCL*%
%TO.N,I2C_SCL_2*%
X135561600Y-87250001D03*
%TO.P,U10,5,VDD*%
%TO.N,+3V3*%
X138000000Y-87250001D03*
%TO.P,U10,6,RESET*%
%TO.N,unconnected-(U10-RESET-Pad6)*%
X138000000Y-86750000D03*
%TO.P,U10,7,ADDR1*%
%TO.N,GND*%
X138000000Y-86250000D03*
%TO.P,U10,8,GND*%
X138000000Y-85749999D03*
D23*
%TO.P,U10,9,E_PAD*%
X136780800Y-86500000D03*
%TD*%
D21*
%TO.P,C4,1*%
%TO.N,+3V3*%
X123040000Y-93750000D03*
%TO.P,C4,2*%
%TO.N,GND*%
X124000000Y-93750000D03*
%TD*%
D15*
%TO.P,R6,1*%
%TO.N,Net-(Q3-C)*%
X146490000Y-102000000D03*
%TO.P,R6,2*%
%TO.N,Net-(Q4-B)*%
X147510000Y-102000000D03*
%TD*%
D20*
%TO.P,R5,1*%
%TO.N,+3V3*%
X122000000Y-67510000D03*
%TO.P,R5,2*%
%TO.N,I2C_SCL_1*%
X122000000Y-66490000D03*
%TD*%
D24*
%TO.P,Q3,1,B*%
%TO.N,Net-(Q3-B)*%
X140625000Y-101050000D03*
%TO.P,Q3,2,E*%
%TO.N,GND*%
X140625000Y-102950000D03*
%TO.P,Q3,3,C*%
%TO.N,Net-(Q3-C)*%
X142500000Y-102000000D03*
%TD*%
D25*
%TO.P,U9,1,VDD*%
%TO.N,Net-(U9-VDD)*%
X136200000Y-73200000D03*
%TO.P,U9,2,VSS*%
%TO.N,GND*%
X136200000Y-74000000D03*
%TO.P,U9,3,SDA*%
%TO.N,I2C_SDA_2*%
X136200000Y-74800000D03*
%TO.P,U9,4,n/a*%
%TO.N,GND*%
X138500000Y-74800000D03*
%TO.P,U9,5,VDDH*%
%TO.N,+3V3*%
X138500000Y-74000000D03*
%TO.P,U9,6,SCL*%
%TO.N,I2C_SCL_2*%
X138500000Y-73200000D03*
D26*
%TO.P,U9,7,die_pad*%
%TO.N,GND*%
X137350000Y-74000000D03*
%TD*%
D20*
%TO.P,R4,1*%
%TO.N,+3V3*%
X119500000Y-67510000D03*
%TO.P,R4,2*%
%TO.N,I2C_SDA_1*%
X119500000Y-66490000D03*
%TD*%
D10*
%TO.P,J3,1,Pin_1*%
%TO.N,I2C_SCL_M_5V*%
X126250000Y-107550000D03*
D11*
%TO.P,J3,2,Pin_2*%
%TO.N,I2C_SDA_M_5V*%
X128250000Y-107550000D03*
%TD*%
D19*
%TO.P,C9,1*%
%TO.N,+3V3*%
X130850000Y-73230000D03*
%TO.P,C9,2*%
%TO.N,GND*%
X130850000Y-72270000D03*
%TD*%
D24*
%TO.P,Q4,1,B*%
%TO.N,Net-(Q4-B)*%
X150125000Y-101050000D03*
%TO.P,Q4,2,E*%
%TO.N,GND*%
X150125000Y-102950000D03*
%TO.P,Q4,3,C*%
%TO.N,Pi_TX_5V*%
X152000000Y-102000000D03*
%TD*%
D12*
%TO.P,R13,1*%
%TO.N,Pi_RX*%
X126010000Y-102000000D03*
%TO.P,R13,2*%
%TO.N,Pi_RX_5V*%
X124990000Y-102000000D03*
%TD*%
D20*
%TO.P,R2,1*%
%TO.N,+3V3*%
X124500000Y-67510000D03*
%TO.P,R2,2*%
%TO.N,I2C_SDA_2*%
X124500000Y-66490000D03*
%TD*%
D27*
%TO.P,U11,1,SCL*%
%TO.N,I2C_SCL_2*%
X159505000Y-74925000D03*
%TO.P,U11,2,SDA*%
%TO.N,I2C_SDA_2*%
X158235000Y-74925000D03*
%TO.P,U11,3,A0*%
%TO.N,GND*%
X156965000Y-74925000D03*
%TO.P,U11,4,A1*%
X155695000Y-74925000D03*
%TO.P,U11,5,INT*%
%TO.N,unconnected-(U11-INT-Pad5)*%
X155695000Y-79875000D03*
%TO.P,U11,6,CT*%
%TO.N,unconnected-(U11-CT-Pad6)*%
X156965000Y-79875000D03*
%TO.P,U11,7,GND*%
%TO.N,GND*%
X158235000Y-79875000D03*
%TO.P,U11,8,VDD*%
%TO.N,+3V3*%
X159505000Y-79875000D03*
%TD*%
D20*
%TO.P,R9,1*%
%TO.N,+3V3*%
X147500000Y-67510000D03*
%TO.P,R9,2*%
%TO.N,I2C_SCL_M*%
X147500000Y-66490000D03*
%TD*%
D28*
%TO.P,Q1,1,G*%
%TO.N,+3V3*%
X122950000Y-100562500D03*
%TO.P,Q1,2,S*%
%TO.N,I2C_SDA_M*%
X121050000Y-100562500D03*
%TO.P,Q1,3,D*%
%TO.N,I2C_SDA_M_5V*%
X122000000Y-102437500D03*
%TD*%
D20*
%TO.P,R1,1*%
%TO.N,+3V3*%
X152500000Y-67510000D03*
%TO.P,R1,2*%
%TO.N,I2C_SCL_2*%
X152500000Y-66490000D03*
%TD*%
D29*
%TO.P,U8,1,GND*%
%TO.N,GND*%
X150500000Y-89460000D03*
%TO.P,U8,2,VCC*%
%TO.N,+3V3*%
X150500000Y-92000000D03*
%TO.P,U8,3,SDA*%
%TO.N,I2C_SDA_1*%
X150500000Y-94540000D03*
%TO.P,U8,4,SCL*%
%TO.N,I2C_SCL_1*%
X150500000Y-97080000D03*
%TO.P,U8,5,N/C*%
%TO.N,unconnected-(U8-N{slash}C-Pad5)*%
X161930000Y-97080000D03*
%TO.P,U8,6,N/A*%
%TO.N,unconnected-(U8-N{slash}A-Pad6)*%
X161930000Y-94540000D03*
%TO.P,U8,7,N/A*%
%TO.N,unconnected-(U8-N{slash}A-Pad7)*%
X161930000Y-92000000D03*
%TO.P,U8,8,N/A*%
%TO.N,unconnected-(U8-N{slash}A-Pad8)*%
X161930000Y-89460000D03*
%TD*%
D15*
%TO.P,R7,1*%
%TO.N,Net-(Q3-C)*%
X146490000Y-101000000D03*
%TO.P,R7,2*%
%TO.N,+5V*%
X147510000Y-101000000D03*
%TD*%
D30*
%TO.P,U2,1,INT2*%
%TO.N,unconnected-(U2-INT2-Pad1)*%
X120911300Y-89344300D03*
%TO.P,U2,2,NC*%
%TO.N,GND*%
X121411299Y-89344300D03*
%TO.P,U2,3,VDD*%
%TO.N,+3V3*%
X121911301Y-89344300D03*
%TO.P,U2,4,GND*%
%TO.N,GND*%
X122411300Y-89344300D03*
%TO.P,U2,5,CSB2*%
%TO.N,CSB_Gryo_BMI088*%
X122911299Y-89344300D03*
%TO.P,U2,6,GNDIO*%
%TO.N,GND*%
X123411301Y-89344300D03*
%TO.P,U2,7,PS*%
X123911300Y-89344300D03*
D31*
%TO.P,U2,8,SCK*%
%TO.N,SCK_1*%
X124322600Y-90500000D03*
D30*
%TO.P,U2,9,SDI*%
%TO.N,SDI_1*%
X123911300Y-91655700D03*
%TO.P,U2,10,SDO2*%
%TO.N,SDO_1*%
X123411301Y-91655700D03*
%TO.P,U2,11,VDDIO*%
%TO.N,+3V3*%
X122911299Y-91655700D03*
%TO.P,U2,12,INT3*%
%TO.N,unconnected-(U2-INT3-Pad12)*%
X122411300Y-91655700D03*
%TO.P,U2,13,INT4*%
%TO.N,unconnected-(U2-INT4-Pad13)*%
X121911301Y-91655700D03*
%TO.P,U2,14,CSB1*%
%TO.N,CSB_Accel_BMI088*%
X121411299Y-91655700D03*
%TO.P,U2,15,SDO1*%
%TO.N,SDO_1*%
X120911300Y-91655700D03*
D31*
%TO.P,U2,16,INT1*%
%TO.N,unconnected-(U2-INT1-Pad16)*%
X120500000Y-90500000D03*
%TD*%
D21*
%TO.P,C5,1*%
%TO.N,+3V3*%
X122000000Y-87500000D03*
%TO.P,C5,2*%
%TO.N,GND*%
X122960000Y-87500000D03*
%TD*%
D28*
%TO.P,Q2,1,G*%
%TO.N,+3V3*%
X118500000Y-100562500D03*
%TO.P,Q2,2,S*%
%TO.N,I2C_SCL_M*%
X116600000Y-100562500D03*
%TO.P,Q2,3,D*%
%TO.N,I2C_SCL_M_5V*%
X117550000Y-102437500D03*
%TD*%
D32*
%TO.P,C15,1*%
%TO.N,GND*%
X147000000Y-91120000D03*
%TO.P,C15,2*%
%TO.N,+3V3*%
X147000000Y-92080000D03*
%TD*%
D21*
%TO.P,C12,1*%
%TO.N,+3V3*%
X119320000Y-78000000D03*
%TO.P,C12,2*%
%TO.N,GND*%
X120280000Y-78000000D03*
%TD*%
D16*
%TO.P,C13,1*%
%TO.N,+3V3*%
X159330000Y-82925000D03*
%TO.P,C13,2*%
%TO.N,GND*%
X158370000Y-82925000D03*
%TD*%
D33*
%TO.P,U4,1,3V3*%
%TO.N,+3V3*%
X117240000Y-62740000D03*
D34*
%TO.P,U4,2,5V*%
%TO.N,+5V*%
X117240000Y-60200000D03*
%TO.P,U4,3,GPIO_2*%
%TO.N,I2C_SDA_1*%
X119780000Y-62740000D03*
%TO.P,U4,4,5V*%
%TO.N,+5V*%
X119780000Y-60200000D03*
%TO.P,U4,5,GPIO_3*%
%TO.N,I2C_SCL_1*%
X122320000Y-62740000D03*
%TO.P,U4,6,GND*%
%TO.N,GND*%
X122320000Y-60200000D03*
%TO.P,U4,7,GPIO_4*%
%TO.N,I2C_SDA_2*%
X124860000Y-62740000D03*
%TO.P,U4,8,GPIO_14*%
%TO.N,Pi_TX*%
X124860000Y-60200000D03*
%TO.P,U4,9,GND*%
%TO.N,GND*%
X127400000Y-62740000D03*
%TO.P,U4,10,GPIO_15*%
%TO.N,Pi_RX*%
X127400000Y-60200000D03*
%TO.P,U4,11,GPIO_17*%
%TO.N,CSB_Gryo_BMI088*%
X129940000Y-62740000D03*
%TO.P,U4,12,GPIO_18*%
%TO.N,nCS_2*%
X129940000Y-60200000D03*
%TO.P,U4,13,GPIO_27*%
%TO.N,unconnected-(U4-GPIO_27-Pad13)*%
X132480000Y-62740000D03*
%TO.P,U4,14,GND*%
%TO.N,GND*%
X132480000Y-60200000D03*
%TO.P,U4,15,GPIO_22*%
%TO.N,unconnected-(U4-GPIO_22-Pad15)*%
X135020000Y-62740000D03*
%TO.P,U4,16,GPIO_23*%
%TO.N,unconnected-(U4-GPIO_23-Pad16)*%
X135020000Y-60200000D03*
%TO.P,U4,17,3V3*%
%TO.N,+3V3*%
X137560000Y-62740000D03*
%TO.P,U4,18,GPIO_24*%
%TO.N,unconnected-(U4-GPIO_24-Pad18)*%
X137560000Y-60200000D03*
%TO.P,U4,19,GPIO_10*%
%TO.N,SDI_1*%
X140100000Y-62740000D03*
%TO.P,U4,20,GND*%
%TO.N,GND*%
X140100000Y-60200000D03*
%TO.P,U4,21,GPIO_9*%
%TO.N,SDO_1*%
X142640000Y-62740000D03*
%TO.P,U4,22,GPIO_25*%
%TO.N,unconnected-(U4-GPIO_25-Pad22)*%
X142640000Y-60200000D03*
%TO.P,U4,23,GPIO_11*%
%TO.N,SCK_1*%
X145180000Y-62740000D03*
%TO.P,U4,24,GPIO_8*%
%TO.N,unconnected-(U4-GPIO_8-Pad24)*%
X145180000Y-60200000D03*
%TO.P,U4,25,GND*%
%TO.N,GND*%
X147720000Y-62740000D03*
%TO.P,U4,26,GPIO_7*%
%TO.N,CSB_Accel_BMI088*%
X147720000Y-60200000D03*
%TO.P,U4,27,GPIO_0*%
%TO.N,I2C_SDA_M*%
X150260000Y-62740000D03*
%TO.P,U4,28,GPIO_1*%
%TO.N,I2C_SCL_M*%
X150260000Y-60200000D03*
%TO.P,U4,29,GPIO_5*%
%TO.N,I2C_SCL_2*%
X152800000Y-62740000D03*
%TO.P,U4,30,GND*%
%TO.N,GND*%
X152800000Y-60200000D03*
%TO.P,U4,31,GPIO_6*%
%TO.N,unconnected-(U4-GPIO_6-Pad31)*%
X155340000Y-62740000D03*
%TO.P,U4,32,GPIO_12*%
%TO.N,unconnected-(U4-GPIO_12-Pad32)*%
X155340000Y-60200000D03*
%TO.P,U4,33,GPIO_13*%
%TO.N,unconnected-(U4-GPIO_13-Pad33)*%
X157880000Y-62740000D03*
%TO.P,U4,34,GND*%
%TO.N,GND*%
X157880000Y-60200000D03*
%TO.P,U4,35,GPIO_19*%
%TO.N,SDO_2*%
X160420000Y-62740000D03*
%TO.P,U4,36,GPIO_16*%
%TO.N,unconnected-(U4-GPIO_16-Pad36)*%
X160420000Y-60200000D03*
%TO.P,U4,37,GPIO_26*%
%TO.N,unconnected-(U4-GPIO_26-Pad37)*%
X162960000Y-62740000D03*
%TO.P,U4,38,GPIO_20*%
%TO.N,SDI_2*%
X162960000Y-60200000D03*
%TO.P,U4,39,GND*%
%TO.N,GND*%
X165500000Y-62740000D03*
%TO.P,U4,40,GPIO_21*%
%TO.N,SCLK_2*%
X165500000Y-60200000D03*
%TD*%
D35*
%TO.N,+5V*%
X144000000Y-96500000D03*
%TO.N,Pi_RX*%
X126000000Y-99000000D03*
%TO.N,GND*%
X124000000Y-98500000D03*
X144500000Y-65500000D03*
X152500000Y-103500000D03*
X139500000Y-110500000D03*
X144500000Y-86500000D03*
X123500000Y-104000000D03*
X165500000Y-99000000D03*
X137000000Y-79500000D03*
X152500000Y-99500000D03*
X123000000Y-110500000D03*
X149500000Y-77500000D03*
X144500000Y-100000000D03*
X166000000Y-84000000D03*
X156500000Y-102500000D03*
X138000000Y-76000000D03*
X149500000Y-71500000D03*
X154000000Y-71500000D03*
X127500000Y-64500000D03*
X115500000Y-104000000D03*
X131500000Y-86500000D03*
X122000000Y-84500000D03*
X167000000Y-111000000D03*
X127000000Y-81500000D03*
X124000000Y-100000000D03*
X124000000Y-96000000D03*
X149500000Y-85000000D03*
X142500000Y-82000000D03*
X142000000Y-90500000D03*
X164000000Y-76000000D03*
X126000000Y-86500000D03*
X160500000Y-104000000D03*
X158000000Y-67500000D03*
X127000000Y-76000000D03*
X153500000Y-75500000D03*
X141000000Y-76200000D03*
X138500000Y-92500000D03*
X117500000Y-94500000D03*
X154500000Y-94000000D03*
X129500000Y-90500000D03*
X128000000Y-68500000D03*
X122500000Y-77500000D03*
X137000000Y-103500000D03*
X146500000Y-103500000D03*
X132000000Y-71500000D03*
X136500000Y-91000000D03*
X120000000Y-88000000D03*
X149000000Y-110000000D03*
X140500000Y-94500000D03*
X132500000Y-101000000D03*
X129500000Y-103000000D03*
X141500000Y-71500000D03*
X118000000Y-88000000D03*
X148500000Y-93500000D03*
X134000000Y-89000000D03*
X158500000Y-90500000D03*
X131500000Y-110500000D03*
X125000000Y-93500000D03*
X136000000Y-96000000D03*
X146500000Y-95000000D03*
X164000000Y-69500000D03*
X131000000Y-67500000D03*
X146500000Y-97500000D03*
X155000000Y-84000000D03*
X132000000Y-96000000D03*
X135000000Y-70500000D03*
X116500000Y-82000000D03*
%TO.N,Pi_TX*%
X134000000Y-102000000D03*
%TO.N,+3V3*%
X120500000Y-104500000D03*
X137560000Y-67000000D03*
X119500000Y-91500000D03*
%TO.N,CSB_Accel_BMI088*%
X140640700Y-88034100D03*
%TO.N,I2C_SCL_1*%
X122000000Y-65000000D03*
X118000000Y-73000000D03*
X140500000Y-98500000D03*
%TO.N,I2C_SDA_M*%
X150250000Y-65000000D03*
X145400000Y-93400000D03*
%TO.N,I2C_SDA_1*%
X138000000Y-94800000D03*
X119500000Y-65000000D03*
X120400000Y-70000000D03*
%TO.N,I2C_SDA_2*%
X141800000Y-78200000D03*
X129600000Y-70400000D03*
X136000000Y-83200000D03*
X136000000Y-76400000D03*
X134000000Y-74800000D03*
X127400000Y-70400000D03*
X124500000Y-65000000D03*
%TO.N,I2C_SCL_M*%
X144400000Y-92800000D03*
X148000000Y-65000000D03*
%TO.N,SDI_1*%
X133248800Y-82421500D03*
%TO.N,Pi_TX_5V*%
X154000000Y-104000000D03*
%TD*%
D36*
%TO.N,+5V*%
X153254500Y-97745500D02*
X153098000Y-97902000D01*
X163500000Y-107500000D02*
X162810976Y-107500000D01*
X150608000Y-97902000D02*
X147510000Y-101000000D01*
X155510000Y-100001000D02*
X155510000Y-101500000D01*
X144242000Y-96258000D02*
X151767000Y-96258000D01*
X153098000Y-97902000D02*
X150608000Y-97902000D01*
X119780000Y-60200000D02*
X117240000Y-60200000D01*
X153254500Y-97745500D02*
X155510000Y-100001000D01*
X144000000Y-96500000D02*
X144242000Y-96258000D01*
X162810976Y-107500000D02*
X156810976Y-101500000D01*
X151767000Y-96258000D02*
X153254500Y-97745500D01*
X156810976Y-101500000D02*
X155510000Y-101500000D01*
%TO.N,Pi_RX*%
X126000000Y-99000000D02*
X126000000Y-100990000D01*
X126000000Y-100990000D02*
X126010000Y-101000000D01*
X126010000Y-101000000D02*
X126010000Y-102000000D01*
%TO.N,GND*%
X119350000Y-74837500D02*
X119350000Y-75275000D01*
X118837500Y-75850000D02*
X118837500Y-75350000D01*
X119275000Y-75350000D02*
X118837500Y-75350000D01*
X138000000Y-85749999D02*
X138000000Y-86250000D01*
X122411300Y-89344300D02*
X122411300Y-89862601D01*
X119350000Y-75275000D02*
X119275000Y-75350000D01*
X123411301Y-89344300D02*
X123411301Y-89862598D01*
X141600000Y-75600000D02*
X141000000Y-76200000D01*
X138500000Y-74800000D02*
X138150000Y-74800000D01*
X122548699Y-90000000D02*
X122411300Y-89862601D01*
X123273899Y-90000000D02*
X122548699Y-90000000D01*
X121411299Y-88825999D02*
X120585300Y-88000000D01*
X120585300Y-88000000D02*
X120000000Y-88000000D01*
X136780800Y-86500000D02*
X136530800Y-86250000D01*
X123911300Y-89344300D02*
X123411301Y-89344300D01*
X118150000Y-75350000D02*
X118837500Y-75350000D01*
X121411299Y-89344300D02*
X121411299Y-88825999D01*
X136530800Y-86250000D02*
X135561600Y-86250000D01*
X121548701Y-90000000D02*
X121411299Y-89862598D01*
X138150000Y-74800000D02*
X137350000Y-74000000D01*
X122273901Y-90000000D02*
X121548701Y-90000000D01*
X121411299Y-89862598D02*
X121411299Y-89344300D01*
X141600000Y-74960000D02*
X141600000Y-75600000D01*
X123411301Y-89862598D02*
X123273899Y-90000000D01*
X122411300Y-89862601D02*
X122273901Y-90000000D01*
X124990000Y-99490000D02*
X124000000Y-98500000D01*
X124990000Y-101000000D02*
X124990000Y-99490000D01*
X150125000Y-102950000D02*
X140625000Y-102950000D01*
X136200000Y-74000000D02*
X137350000Y-74000000D01*
X118150000Y-75350000D02*
X117800000Y-75000000D01*
%TO.N,Pi_TX*%
X134000000Y-102000000D02*
X136990000Y-102000000D01*
%TO.N,+3V3*%
X118490000Y-65166700D02*
X117240000Y-63916700D01*
X138500000Y-74000000D02*
X141600000Y-74000000D01*
X138070000Y-67510000D02*
X137560000Y-67000000D01*
X119320000Y-78000000D02*
X119320000Y-79400000D01*
X120362500Y-72397500D02*
X120362500Y-74850000D01*
X118500000Y-102500000D02*
X120500000Y-104500000D01*
X119925000Y-75350000D02*
X119350000Y-75925000D01*
X119350000Y-75925000D02*
X119350000Y-76362500D01*
X122911300Y-92500000D02*
X122911300Y-91655700D01*
X133973800Y-82721805D02*
X132600000Y-84095605D01*
X132820000Y-73230000D02*
X132840000Y-73250000D01*
X119350000Y-77970000D02*
X119320000Y-78000000D01*
X122564830Y-100562500D02*
X120500000Y-102627330D01*
X141745400Y-87975300D02*
X140500000Y-86730000D01*
X120580000Y-87500000D02*
X119200000Y-86120000D01*
X132840000Y-76240000D02*
X133978800Y-77378800D01*
X119200000Y-86120000D02*
X119200000Y-79520000D01*
X119200000Y-86120000D02*
X119200000Y-91528000D01*
X122000000Y-87500000D02*
X120580000Y-87500000D01*
X147080000Y-92000000D02*
X150500000Y-92000000D01*
X137100000Y-67000000D02*
X132840000Y-71260000D01*
X121911301Y-87588699D02*
X122000000Y-87500000D01*
X130850000Y-73230000D02*
X132820000Y-73230000D01*
X123040000Y-92894700D02*
X122911300Y-92766000D01*
X151400000Y-67520000D02*
X151410000Y-67510000D01*
X151410000Y-67510000D02*
X152500000Y-67510000D01*
X120362500Y-75350000D02*
X119925000Y-75350000D01*
X140400000Y-74200000D02*
X140400000Y-75200000D01*
X159330000Y-84511700D02*
X151841700Y-92000000D01*
X138000000Y-87250000D02*
X139980000Y-87250000D01*
X119350000Y-76362500D02*
X119350000Y-77970000D01*
X139980000Y-87250000D02*
X140500000Y-86730000D01*
X117240000Y-63916700D02*
X117240000Y-62740000D01*
X138200000Y-77400000D02*
X134000000Y-77400000D01*
X150500000Y-92000000D02*
X151841700Y-92000000D01*
X147080000Y-92000000D02*
X147000000Y-92080000D01*
X119500000Y-67510000D02*
X122000000Y-67510000D01*
X132840000Y-73250000D02*
X132840000Y-76240000D01*
X119200000Y-91528000D02*
X122546600Y-94874600D01*
X134000000Y-77400000D02*
X133978800Y-77421200D01*
X133973800Y-77426200D02*
X133973800Y-82721805D01*
X132600000Y-92500000D02*
X132893900Y-92500000D01*
X148000000Y-67510000D02*
X138070000Y-67510000D01*
X148010000Y-67520000D02*
X148000000Y-67510000D01*
X118490000Y-66500000D02*
X118490000Y-65166700D01*
X134846100Y-94874600D02*
X141745400Y-87975300D01*
X147000000Y-92080000D02*
X145850000Y-92080000D01*
X137560000Y-67000000D02*
X137100000Y-67000000D01*
X132600000Y-84095605D02*
X132600000Y-92500000D01*
X159330000Y-80050000D02*
X159330000Y-82925000D01*
X145850000Y-92080000D02*
X141745400Y-87975300D01*
X122000000Y-67510000D02*
X122000000Y-70760000D01*
X159505000Y-79875000D02*
X159330000Y-80050000D01*
X133978800Y-77421200D02*
X133973800Y-77426200D01*
X120362500Y-74850000D02*
X120362500Y-75350000D01*
X133978800Y-77378800D02*
X133978800Y-77421200D01*
X119350000Y-76362500D02*
X119850000Y-76362500D01*
X122000000Y-67510000D02*
X124500000Y-67510000D01*
X118500000Y-100562500D02*
X118500000Y-102500000D01*
X119500000Y-67510000D02*
X118490000Y-66500000D01*
X159330000Y-82925000D02*
X159330000Y-84511700D01*
X120500000Y-102627330D02*
X120500000Y-104500000D01*
X122911300Y-92500000D02*
X132600000Y-92500000D01*
X132840000Y-71260000D02*
X132840000Y-73250000D01*
X140400000Y-75200000D02*
X138200000Y-77400000D01*
X121911301Y-89344300D02*
X121911301Y-87588699D01*
X122911300Y-92766000D02*
X122911300Y-92500000D01*
X123040000Y-93750000D02*
X123040000Y-92894700D01*
X119200000Y-79520000D02*
X119320000Y-79400000D01*
X122546600Y-94874600D02*
X134846100Y-94874600D01*
X138000000Y-87393900D02*
X138000000Y-87250000D01*
X122000000Y-70760000D02*
X120362500Y-72397500D01*
X122950000Y-100562500D02*
X122564830Y-100562500D01*
X132893900Y-92500000D02*
X138000000Y-87393900D01*
X151400000Y-67520000D02*
X148010000Y-67520000D01*
%TO.N,CSB_Accel_BMI088*%
X122711500Y-94397900D02*
X121411300Y-93097700D01*
X140640700Y-88034100D02*
X134276900Y-94397900D01*
X121411300Y-93097700D02*
X121411300Y-91655700D01*
X134276900Y-94397900D02*
X122711500Y-94397900D01*
%TO.N,I2C_SCL_1*%
X147500000Y-98500000D02*
X140500000Y-98500000D01*
X150500000Y-97080000D02*
X148920000Y-97080000D01*
X122320000Y-62740000D02*
X122320000Y-64680000D01*
X122000000Y-66490000D02*
X122000000Y-65000000D01*
X118837500Y-73837500D02*
X118837500Y-74850000D01*
X118000000Y-73000000D02*
X118837500Y-73837500D01*
X148920000Y-97080000D02*
X147500000Y-98500000D01*
X122320000Y-64680000D02*
X122000000Y-65000000D01*
%TO.N,I2C_SDA_M*%
X150260000Y-64990000D02*
X150250000Y-65000000D01*
X122500000Y-97500000D02*
X121050000Y-98950000D01*
X141300000Y-97500000D02*
X122500000Y-97500000D01*
X150260000Y-62740000D02*
X150260000Y-64990000D01*
X145400000Y-93400000D02*
X141300000Y-97500000D01*
X150250000Y-65000000D02*
X150000000Y-65250000D01*
X121050000Y-98950000D02*
X121050000Y-100562500D01*
X150000000Y-65250000D02*
X150000000Y-66490000D01*
%TO.N,I2C_SDA_1*%
X119850000Y-70575305D02*
X119850000Y-74837500D01*
X140725000Y-92075000D02*
X138000000Y-94800000D01*
X119500000Y-65000000D02*
X119500000Y-66490000D01*
X145100305Y-92075000D02*
X140725000Y-92075000D01*
X119760000Y-62740000D02*
X119500000Y-63000000D01*
X119500000Y-63000000D02*
X119500000Y-65000000D01*
X150500000Y-94540000D02*
X147565305Y-94540000D01*
X120400000Y-70000000D02*
X120400000Y-70025305D01*
X119780000Y-62740000D02*
X119760000Y-62740000D01*
X147565305Y-94540000D02*
X145100305Y-92075000D01*
X120400000Y-70025305D02*
X119850000Y-70575305D01*
%TO.N,I2C_SDA_2*%
X136000000Y-76400000D02*
X136000000Y-75000000D01*
X157254447Y-72959448D02*
X147040552Y-72959448D01*
X136200000Y-74800000D02*
X134000000Y-74800000D01*
X124500000Y-65000000D02*
X124500000Y-63100000D01*
X147040552Y-72959448D02*
X141800000Y-78200000D01*
X158235000Y-73940001D02*
X157254447Y-72959448D01*
X124500000Y-65000000D02*
X124500000Y-66490000D01*
X129600000Y-70400000D02*
X127400000Y-70400000D01*
X135561600Y-83638400D02*
X136000000Y-83200000D01*
X158235000Y-74925000D02*
X158235000Y-73940001D01*
X124500000Y-63100000D02*
X124860000Y-62740000D01*
X136000000Y-75000000D02*
X136200000Y-74800000D01*
X135561600Y-85749999D02*
X135561600Y-83638400D01*
%TO.N,I2C_SCL_M*%
X149085000Y-63915000D02*
X149085000Y-61375000D01*
X144400000Y-92800000D02*
X140200000Y-97000000D01*
X147500000Y-65500000D02*
X147500000Y-66490000D01*
X148000000Y-65000000D02*
X147500000Y-65500000D01*
X149085000Y-61375000D02*
X150260000Y-60200000D01*
X140200000Y-97000000D02*
X120162500Y-97000000D01*
X120162500Y-97000000D02*
X116600000Y-100562500D01*
X148000000Y-65000000D02*
X149085000Y-63915000D01*
%TO.N,I2C_SCL_2*%
X134000000Y-84174695D02*
X137774695Y-80400000D01*
X134000000Y-87000000D02*
X134000000Y-84174695D01*
X152500000Y-64600000D02*
X152800000Y-64300000D01*
X159505000Y-73505000D02*
X154500000Y-68500000D01*
X152800000Y-64300000D02*
X152800000Y-62740000D01*
X152500000Y-66490000D02*
X152500000Y-64600000D01*
X154500000Y-66000000D02*
X152800000Y-64300000D01*
X134250000Y-87250000D02*
X134000000Y-87000000D01*
X154500000Y-68500000D02*
X154500000Y-66000000D01*
X154500000Y-68500000D02*
X150100000Y-68500000D01*
X159505000Y-74925000D02*
X159505000Y-73505000D01*
X137774695Y-80400000D02*
X138200000Y-80400000D01*
X138200000Y-80400000D02*
X145400000Y-73200000D01*
X138500000Y-73200000D02*
X145400000Y-73200000D01*
X150100000Y-68500000D02*
X145400000Y-73200000D01*
X135561600Y-87250000D02*
X134250000Y-87250000D01*
%TO.N,CSB_Gryo_BMI088*%
X129940000Y-62740000D02*
X129940000Y-63916700D01*
X124173800Y-69682900D02*
X129940000Y-63916700D01*
X122911300Y-88776300D02*
X124173800Y-87513800D01*
X124173800Y-87513800D02*
X124173800Y-69682900D01*
X122911300Y-89344300D02*
X122911300Y-88776300D01*
%TO.N,Net-(U12-C1)*%
X118837500Y-76350000D02*
X116822500Y-76350000D01*
%TO.N,Net-(U9-VDD)*%
X136200000Y-73200000D02*
X133910000Y-73200000D01*
X133910000Y-73200000D02*
X133860000Y-73250000D01*
%TO.N,SCK_1*%
X124322600Y-90500000D02*
X129970200Y-84852400D01*
X142000000Y-65800000D02*
X145060000Y-62740000D01*
X129970200Y-72166000D02*
X136336200Y-65800000D01*
X136336200Y-65800000D02*
X142000000Y-65800000D01*
X129970200Y-84852400D02*
X129970200Y-72166000D01*
X145060000Y-62740000D02*
X145180000Y-62740000D01*
%TO.N,SDO_1*%
X123411300Y-91087700D02*
X123411300Y-90570800D01*
X123411300Y-90570800D02*
X123957200Y-90024900D01*
X123411300Y-91655700D02*
X123411300Y-91087700D01*
X120911300Y-91087700D02*
X123411300Y-91087700D01*
X140030000Y-65350000D02*
X142640000Y-62740000D01*
X124139300Y-90024900D02*
X124819900Y-89344300D01*
X123957200Y-90024900D02*
X124139300Y-90024900D01*
X124819900Y-89344300D02*
X124819900Y-70180100D01*
X124819900Y-70180100D02*
X129650000Y-65350000D01*
X129650000Y-65350000D02*
X140030000Y-65350000D01*
X120911300Y-91655700D02*
X120911300Y-91087700D01*
%TO.N,SDI_1*%
X124582600Y-91087700D02*
X133248800Y-82421500D01*
X123911300Y-91655700D02*
X123911300Y-91087700D01*
X123911300Y-91087700D02*
X124582600Y-91087700D01*
%TO.N,Pi_TX_5V*%
X153500000Y-103500000D02*
X154000000Y-104000000D01*
X153500000Y-101500000D02*
X152500000Y-101500000D01*
X153500000Y-101500000D02*
X153500000Y-103500000D01*
X152500000Y-101500000D02*
X152000000Y-102000000D01*
X154490000Y-101500000D02*
X153500000Y-101500000D01*
%TO.N,Pi_RX_5V*%
X125000000Y-105000000D02*
X159000000Y-105000000D01*
X159000000Y-105000000D02*
X161500000Y-107500000D01*
X124990000Y-102000000D02*
X124990000Y-104990000D01*
X124990000Y-104990000D02*
X125000000Y-105000000D01*
%TO.N,I2C_SCL_M_5V*%
X133050000Y-109000000D02*
X134500000Y-107550000D01*
X118877000Y-108577000D02*
X125223000Y-108577000D01*
X117550000Y-102437500D02*
X117550000Y-107250000D01*
X126250000Y-107550000D02*
X127700000Y-109000000D01*
X135627000Y-108677000D02*
X134500000Y-107550000D01*
X127700000Y-109000000D02*
X133050000Y-109000000D01*
X141873000Y-108677000D02*
X135627000Y-108677000D01*
X117750000Y-107450000D02*
X118877000Y-108577000D01*
X125223000Y-108577000D02*
X126250000Y-107550000D01*
X117550000Y-107250000D02*
X117750000Y-107450000D01*
X143000000Y-107550000D02*
X141873000Y-108677000D01*
%TO.N,I2C_SDA_M_5V*%
X122000000Y-102437500D02*
X122000000Y-105200000D01*
X128250000Y-107550000D02*
X129377000Y-106423000D01*
X128250000Y-107550000D02*
X128050000Y-107550000D01*
X137627000Y-106423000D02*
X143873000Y-106423000D01*
X135373000Y-106423000D02*
X136500000Y-107550000D01*
X122000000Y-105200000D02*
X120777000Y-106423000D01*
X120777000Y-106423000D02*
X119750000Y-107450000D01*
X143873000Y-106423000D02*
X145000000Y-107550000D01*
X129377000Y-106423000D02*
X135373000Y-106423000D01*
X126923000Y-106423000D02*
X120777000Y-106423000D01*
X136500000Y-107550000D02*
X137627000Y-106423000D01*
X128050000Y-107550000D02*
X126923000Y-106423000D01*
%TO.N,Net-(Q3-C)*%
X146490000Y-101000000D02*
X146490000Y-102000000D01*
X146490000Y-102000000D02*
X142500000Y-102000000D01*
%TO.N,Net-(Q3-B)*%
X138960000Y-101050000D02*
X138010000Y-102000000D01*
X140625000Y-101050000D02*
X138960000Y-101050000D01*
%TO.N,Net-(Q4-B)*%
X147510000Y-102000000D02*
X149175000Y-102000000D01*
X149175000Y-102000000D02*
X150125000Y-101050000D01*
%TD*%
%TA.AperFunction,Conductor*%
%TO.N,GND*%
G36*
X125364192Y-98145185D02*
G01*
X125409947Y-98197989D01*
X125419891Y-98267147D01*
X125390866Y-98330703D01*
X125389303Y-98332472D01*
X125267466Y-98467785D01*
X125172821Y-98631715D01*
X125172818Y-98631722D01*
X125114327Y-98811740D01*
X125114326Y-98811744D01*
X125094540Y-99000000D01*
X125114326Y-99188256D01*
X125114327Y-99188259D01*
X125172818Y-99368277D01*
X125172821Y-99368284D01*
X125267467Y-99532216D01*
X125298672Y-99566872D01*
X125342650Y-99615715D01*
X125372880Y-99678706D01*
X125374500Y-99698687D01*
X125374500Y-100378951D01*
X125357232Y-100442072D01*
X125287131Y-100560605D01*
X125287129Y-100560611D01*
X125242335Y-100714791D01*
X125242334Y-100714797D01*
X125239500Y-100750811D01*
X125239500Y-101055500D01*
X125219815Y-101122539D01*
X125167011Y-101168294D01*
X125115500Y-101179500D01*
X124790830Y-101179500D01*
X124790808Y-101179501D01*
X124754794Y-101182335D01*
X124600611Y-101227129D01*
X124600606Y-101227131D01*
X124462404Y-101308863D01*
X124462396Y-101308869D01*
X124348869Y-101422396D01*
X124348863Y-101422404D01*
X124267131Y-101560606D01*
X124267129Y-101560611D01*
X124222335Y-101714791D01*
X124222334Y-101714797D01*
X124219500Y-101750811D01*
X124219500Y-102249169D01*
X124219501Y-102249191D01*
X124222335Y-102285205D01*
X124267129Y-102439388D01*
X124267131Y-102439393D01*
X124347232Y-102574837D01*
X124364500Y-102637958D01*
X124364500Y-105051604D01*
X124386018Y-105159788D01*
X124388537Y-105172453D01*
X124435685Y-105286280D01*
X124435690Y-105286289D01*
X124469914Y-105337507D01*
X124469915Y-105337509D01*
X124504141Y-105388733D01*
X124504143Y-105388735D01*
X124514139Y-105398730D01*
X124514142Y-105398733D01*
X124601267Y-105485858D01*
X124652490Y-105520084D01*
X124703714Y-105554312D01*
X124714885Y-105558939D01*
X124769288Y-105602778D01*
X124791354Y-105669072D01*
X124774076Y-105736771D01*
X124722940Y-105784383D01*
X124667433Y-105797500D01*
X122584910Y-105797500D01*
X122517871Y-105777815D01*
X122472116Y-105725011D01*
X122462172Y-105655853D01*
X122484516Y-105605162D01*
X122482474Y-105603798D01*
X122554307Y-105496292D01*
X122554307Y-105496291D01*
X122554311Y-105496286D01*
X122601463Y-105382452D01*
X122625500Y-105261606D01*
X122625500Y-103520808D01*
X122645185Y-103453769D01*
X122661819Y-103433127D01*
X122668081Y-103426865D01*
X122751744Y-103285398D01*
X122797598Y-103127569D01*
X122800500Y-103090694D01*
X122800500Y-101924500D01*
X122820185Y-101857461D01*
X122872989Y-101811706D01*
X122924500Y-101800500D01*
X123165686Y-101800500D01*
X123165694Y-101800500D01*
X123202569Y-101797598D01*
X123202571Y-101797597D01*
X123202573Y-101797597D01*
X123244191Y-101785505D01*
X123360398Y-101751744D01*
X123501865Y-101668081D01*
X123618081Y-101551865D01*
X123701744Y-101410398D01*
X123747598Y-101252569D01*
X123750500Y-101215694D01*
X123750500Y-99909306D01*
X123747598Y-99872431D01*
X123731945Y-99818555D01*
X123701745Y-99714606D01*
X123701744Y-99714603D01*
X123701744Y-99714602D01*
X123618081Y-99573135D01*
X123618079Y-99573133D01*
X123618076Y-99573129D01*
X123501870Y-99456923D01*
X123501862Y-99456917D01*
X123360396Y-99373255D01*
X123360393Y-99373254D01*
X123202573Y-99327402D01*
X123202567Y-99327401D01*
X123165701Y-99324500D01*
X123165694Y-99324500D01*
X122734306Y-99324500D01*
X122734298Y-99324500D01*
X122697432Y-99327401D01*
X122697426Y-99327402D01*
X122539606Y-99373254D01*
X122539603Y-99373255D01*
X122398137Y-99456917D01*
X122398129Y-99456923D01*
X122281923Y-99573129D01*
X122281917Y-99573137D01*
X122198255Y-99714603D01*
X122198254Y-99714606D01*
X122152402Y-99872426D01*
X122152401Y-99872432D01*
X122149500Y-99909298D01*
X122149500Y-100041877D01*
X122129815Y-100108916D01*
X122113181Y-100129558D01*
X122062181Y-100180558D01*
X122000858Y-100214043D01*
X121931166Y-100209059D01*
X121875233Y-100167187D01*
X121850816Y-100101723D01*
X121850500Y-100092877D01*
X121850500Y-99909313D01*
X121850499Y-99909298D01*
X121847598Y-99872432D01*
X121847597Y-99872426D01*
X121801745Y-99714606D01*
X121801744Y-99714603D01*
X121801744Y-99714602D01*
X121718081Y-99573135D01*
X121718079Y-99573133D01*
X121718076Y-99573129D01*
X121711819Y-99566872D01*
X121678334Y-99505549D01*
X121675500Y-99479191D01*
X121675500Y-99260452D01*
X121695185Y-99193413D01*
X121711819Y-99172771D01*
X122722772Y-98161819D01*
X122784095Y-98128334D01*
X122810453Y-98125500D01*
X125297153Y-98125500D01*
X125364192Y-98145185D01*
G37*
%TD.AperFunction*%
%TA.AperFunction,Conductor*%
G36*
X149050075Y-97937027D02*
G01*
X149106007Y-97978897D01*
X149127455Y-98007547D01*
X149242664Y-98093793D01*
X149242671Y-98093797D01*
X149272335Y-98104861D01*
X149328269Y-98146732D01*
X149352686Y-98212196D01*
X149337835Y-98280469D01*
X149316683Y-98308724D01*
X147482227Y-100143181D01*
X147420904Y-100176666D01*
X147394547Y-100179500D01*
X147310831Y-100179500D01*
X147310807Y-100179501D01*
X147274794Y-100182335D01*
X147120611Y-100227129D01*
X147120604Y-100227132D01*
X147063119Y-100261128D01*
X146995395Y-100278309D01*
X146936881Y-100261128D01*
X146879395Y-100227132D01*
X146879388Y-100227129D01*
X146725208Y-100182335D01*
X146725202Y-100182334D01*
X146689181Y-100179500D01*
X146290830Y-100179500D01*
X146290808Y-100179501D01*
X146254794Y-100182335D01*
X146100611Y-100227129D01*
X146100606Y-100227131D01*
X145962404Y-100308863D01*
X145962396Y-100308869D01*
X145848869Y-100422396D01*
X145848863Y-100422404D01*
X145767131Y-100560606D01*
X145767129Y-100560611D01*
X145722335Y-100714791D01*
X145722334Y-100714797D01*
X145719500Y-100750811D01*
X145719500Y-100750826D01*
X145719501Y-101250500D01*
X145699817Y-101317539D01*
X145647013Y-101363294D01*
X145595501Y-101374500D01*
X143583309Y-101374500D01*
X143516270Y-101354815D01*
X143495628Y-101338181D01*
X143489370Y-101331923D01*
X143489362Y-101331917D01*
X143369663Y-101261128D01*
X143347898Y-101248256D01*
X143347897Y-101248255D01*
X143347896Y-101248255D01*
X143347893Y-101248254D01*
X143190073Y-101202402D01*
X143190067Y-101202401D01*
X143153201Y-101199500D01*
X143153194Y-101199500D01*
X141987000Y-101199500D01*
X141919961Y-101179815D01*
X141874206Y-101127011D01*
X141863000Y-101075500D01*
X141863000Y-100834313D01*
X141862999Y-100834298D01*
X141861461Y-100814758D01*
X141860098Y-100797431D01*
X141836090Y-100714797D01*
X141814245Y-100639606D01*
X141814244Y-100639603D01*
X141814244Y-100639602D01*
X141730581Y-100498135D01*
X141730579Y-100498133D01*
X141730576Y-100498129D01*
X141614370Y-100381923D01*
X141614362Y-100381917D01*
X141495211Y-100311452D01*
X141472898Y-100298256D01*
X141472897Y-100298255D01*
X141472896Y-100298255D01*
X141472893Y-100298254D01*
X141315073Y-100252402D01*
X141315067Y-100252401D01*
X141278201Y-100249500D01*
X141278194Y-100249500D01*
X139971806Y-100249500D01*
X139971798Y-100249500D01*
X139934932Y-100252401D01*
X139934926Y-100252402D01*
X139777106Y-100298254D01*
X139777103Y-100298255D01*
X139635637Y-100381917D01*
X139635629Y-100381923D01*
X139629372Y-100388181D01*
X139568049Y-100421666D01*
X139541691Y-100424500D01*
X138898392Y-100424500D01*
X138870269Y-100430094D01*
X138842146Y-100435688D01*
X138810051Y-100442072D01*
X138777545Y-100448537D01*
X138777541Y-100448539D01*
X138745262Y-100461909D01*
X138730397Y-100468067D01*
X138663718Y-100495685D01*
X138644571Y-100508479D01*
X138638190Y-100512743D01*
X138638189Y-100512744D01*
X138638188Y-100512743D01*
X138561266Y-100564142D01*
X138561265Y-100564143D01*
X138517704Y-100607705D01*
X138474142Y-100651267D01*
X138474139Y-100651270D01*
X137982227Y-101143181D01*
X137920904Y-101176666D01*
X137894547Y-101179500D01*
X137810831Y-101179500D01*
X137810807Y-101179501D01*
X137774794Y-101182335D01*
X137620611Y-101227129D01*
X137620604Y-101227132D01*
X137563119Y-101261128D01*
X137495395Y-101278309D01*
X137436881Y-101261128D01*
X137379395Y-101227132D01*
X137379388Y-101227129D01*
X137225208Y-101182335D01*
X137225202Y-101182334D01*
X137189181Y-101179500D01*
X136790830Y-101179500D01*
X136790808Y-101179501D01*
X136754794Y-101182335D01*
X136600611Y-101227129D01*
X136600606Y-101227131D01*
X136462404Y-101308863D01*
X136462396Y-101308869D01*
X136433085Y-101338181D01*
X136371762Y-101371666D01*
X136345404Y-101374500D01*
X134703748Y-101374500D01*
X134636709Y-101354815D01*
X134611600Y-101333474D01*
X134605873Y-101327114D01*
X134605869Y-101327110D01*
X134452734Y-101215851D01*
X134452729Y-101215848D01*
X134279807Y-101138857D01*
X134279802Y-101138855D01*
X134134001Y-101107865D01*
X134094646Y-101099500D01*
X133905354Y-101099500D01*
X133897027Y-101101270D01*
X133720197Y-101138855D01*
X133720192Y-101138857D01*
X133547270Y-101215848D01*
X133547265Y-101215851D01*
X133394129Y-101327111D01*
X133267466Y-101467785D01*
X133172821Y-101631715D01*
X133172818Y-101631722D01*
X133117979Y-101800500D01*
X133114326Y-101811744D01*
X133094540Y-102000000D01*
X133114326Y-102188256D01*
X133114327Y-102188259D01*
X133172818Y-102368277D01*
X133172821Y-102368284D01*
X133267467Y-102532216D01*
X133362678Y-102637958D01*
X133394129Y-102672888D01*
X133547265Y-102784148D01*
X133547270Y-102784151D01*
X133720192Y-102861142D01*
X133720197Y-102861144D01*
X133905354Y-102900500D01*
X133905355Y-102900500D01*
X134094644Y-102900500D01*
X134094646Y-102900500D01*
X134279803Y-102861144D01*
X134452730Y-102784151D01*
X134605871Y-102672888D01*
X134608788Y-102669647D01*
X134611600Y-102666526D01*
X134671087Y-102629879D01*
X134703748Y-102625500D01*
X136345404Y-102625500D01*
X136412443Y-102645185D01*
X136433085Y-102661819D01*
X136462396Y-102691130D01*
X136462400Y-102691133D01*
X136462402Y-102691135D01*
X136600607Y-102772869D01*
X136639430Y-102784148D01*
X136754791Y-102817664D01*
X136754794Y-102817664D01*
X136754796Y-102817665D01*
X136790819Y-102820500D01*
X137189180Y-102820499D01*
X137225204Y-102817665D01*
X137379393Y-102772869D01*
X137436882Y-102738869D01*
X137504602Y-102721688D01*
X137563117Y-102738869D01*
X137620607Y-102772869D01*
X137620610Y-102772869D01*
X137620612Y-102772871D01*
X137774791Y-102817664D01*
X137774794Y-102817664D01*
X137774796Y-102817665D01*
X137810819Y-102820500D01*
X138209180Y-102820499D01*
X138245204Y-102817665D01*
X138399393Y-102772869D01*
X138537598Y-102691135D01*
X138651135Y-102577598D01*
X138732869Y-102439393D01*
X138777665Y-102285204D01*
X138780500Y-102249181D01*
X138780499Y-102165450D01*
X138800183Y-102098413D01*
X138816813Y-102077775D01*
X139182771Y-101711819D01*
X139244094Y-101678334D01*
X139270452Y-101675500D01*
X139541691Y-101675500D01*
X139608730Y-101695185D01*
X139629372Y-101711819D01*
X139635629Y-101718076D01*
X139635633Y-101718079D01*
X139635635Y-101718081D01*
X139777102Y-101801744D01*
X139811391Y-101811706D01*
X139934926Y-101847597D01*
X139934929Y-101847597D01*
X139934931Y-101847598D01*
X139971806Y-101850500D01*
X141138000Y-101850500D01*
X141205039Y-101870185D01*
X141250794Y-101922989D01*
X141262000Y-101974500D01*
X141262000Y-102215701D01*
X141264901Y-102252567D01*
X141264902Y-102252573D01*
X141310754Y-102410393D01*
X141310755Y-102410396D01*
X141394416Y-102551861D01*
X141394423Y-102551870D01*
X141510629Y-102668076D01*
X141510633Y-102668079D01*
X141510635Y-102668081D01*
X141652102Y-102751744D01*
X141672214Y-102757587D01*
X141809926Y-102797597D01*
X141809929Y-102797597D01*
X141809931Y-102797598D01*
X141846806Y-102800500D01*
X141846814Y-102800500D01*
X143153186Y-102800500D01*
X143153194Y-102800500D01*
X143190069Y-102797598D01*
X143190071Y-102797597D01*
X143190073Y-102797597D01*
X143256737Y-102778229D01*
X143347898Y-102751744D01*
X143489365Y-102668081D01*
X143490920Y-102666526D01*
X143495628Y-102661819D01*
X143556951Y-102628334D01*
X143583309Y-102625500D01*
X145845404Y-102625500D01*
X145912443Y-102645185D01*
X145933085Y-102661819D01*
X145962396Y-102691130D01*
X145962400Y-102691133D01*
X145962402Y-102691135D01*
X146100607Y-102772869D01*
X146139430Y-102784148D01*
X146254791Y-102817664D01*
X146254794Y-102817664D01*
X146254796Y-102817665D01*
X146290819Y-102820500D01*
X146689180Y-102820499D01*
X146725204Y-102817665D01*
X146879393Y-102772869D01*
X146936882Y-102738869D01*
X147004602Y-102721688D01*
X147063117Y-102738869D01*
X147120607Y-102772869D01*
X147120610Y-102772869D01*
X147120612Y-102772871D01*
X147274791Y-102817664D01*
X147274794Y-102817664D01*
X147274796Y-102817665D01*
X147310819Y-102820500D01*
X147709180Y-102820499D01*
X147745204Y-102817665D01*
X147899393Y-102772869D01*
X148037598Y-102691135D01*
X148038185Y-102690548D01*
X148066915Y-102661819D01*
X148128238Y-102628334D01*
X148154596Y-102625500D01*
X149236607Y-102625500D01*
X149297029Y-102613481D01*
X149357452Y-102601463D01*
X149415067Y-102577598D01*
X149415068Y-102577597D01*
X149415070Y-102577597D01*
X149471281Y-102554314D01*
X149471280Y-102554314D01*
X149471286Y-102554312D01*
X149522509Y-102520084D01*
X149573733Y-102485858D01*
X149660858Y-102398733D01*
X149660859Y-102398731D01*
X149667925Y-102391665D01*
X149667927Y-102391661D01*
X150172771Y-101886819D01*
X150234094Y-101853334D01*
X150260452Y-101850500D01*
X150638000Y-101850500D01*
X150705039Y-101870185D01*
X150750794Y-101922989D01*
X150762000Y-101974500D01*
X150762000Y-102215701D01*
X150764901Y-102252567D01*
X150764902Y-102252573D01*
X150810754Y-102410393D01*
X150810755Y-102410396D01*
X150894416Y-102551861D01*
X150894423Y-102551870D01*
X151010629Y-102668076D01*
X151010633Y-102668079D01*
X151010635Y-102668081D01*
X151152102Y-102751744D01*
X151172214Y-102757587D01*
X151309926Y-102797597D01*
X151309929Y-102797597D01*
X151309931Y-102797598D01*
X151346806Y-102800500D01*
X151346814Y-102800500D01*
X152653186Y-102800500D01*
X152653194Y-102800500D01*
X152690069Y-102797598D01*
X152715904Y-102790092D01*
X152785773Y-102790291D01*
X152844444Y-102828232D01*
X152873288Y-102891870D01*
X152874500Y-102909168D01*
X152874500Y-103561606D01*
X152889865Y-103638856D01*
X152889865Y-103638857D01*
X152898534Y-103682443D01*
X152898536Y-103682447D01*
X152898537Y-103682451D01*
X152945688Y-103796286D01*
X152945688Y-103796287D01*
X152956014Y-103811740D01*
X152975036Y-103840207D01*
X152975037Y-103840210D01*
X152975038Y-103840210D01*
X153014141Y-103898733D01*
X153014144Y-103898736D01*
X153061038Y-103945629D01*
X153094524Y-104006952D01*
X153096678Y-104020343D01*
X153114326Y-104188256D01*
X153114327Y-104188259D01*
X153122100Y-104212182D01*
X153124095Y-104282023D01*
X153088015Y-104341856D01*
X153025314Y-104372684D01*
X153004169Y-104374500D01*
X125739500Y-104374500D01*
X125672461Y-104354815D01*
X125626706Y-104302011D01*
X125615500Y-104250500D01*
X125615500Y-102936537D01*
X125635185Y-102869498D01*
X125687989Y-102823743D01*
X125757147Y-102813799D01*
X125774095Y-102817461D01*
X125774796Y-102817665D01*
X125810819Y-102820500D01*
X126209180Y-102820499D01*
X126245204Y-102817665D01*
X126399393Y-102772869D01*
X126537598Y-102691135D01*
X126651135Y-102577598D01*
X126732869Y-102439393D01*
X126777665Y-102285204D01*
X126780500Y-102249181D01*
X126780499Y-101750820D01*
X126777665Y-101714796D01*
X126732869Y-101560607D01*
X126732866Y-101560602D01*
X126729772Y-101553451D01*
X126731693Y-101552619D01*
X126717172Y-101495409D01*
X126731321Y-101447219D01*
X126729772Y-101446549D01*
X126732864Y-101439400D01*
X126732869Y-101439393D01*
X126777665Y-101285204D01*
X126780500Y-101249181D01*
X126780499Y-100750820D01*
X126777665Y-100714796D01*
X126732869Y-100560607D01*
X126651135Y-100422402D01*
X126647164Y-100415687D01*
X126648400Y-100414955D01*
X126625985Y-100357855D01*
X126625500Y-100346898D01*
X126625500Y-99698687D01*
X126645185Y-99631648D01*
X126657350Y-99615715D01*
X126695687Y-99573137D01*
X126732533Y-99532216D01*
X126827179Y-99368284D01*
X126885674Y-99188256D01*
X126905460Y-99000000D01*
X126885674Y-98811744D01*
X126827179Y-98631716D01*
X126732533Y-98467784D01*
X126610696Y-98332471D01*
X126580467Y-98269481D01*
X126589092Y-98200146D01*
X126633833Y-98146480D01*
X126700486Y-98125522D01*
X126702847Y-98125500D01*
X139504169Y-98125500D01*
X139571208Y-98145185D01*
X139616963Y-98197989D01*
X139626907Y-98267147D01*
X139622099Y-98287818D01*
X139614326Y-98311744D01*
X139594540Y-98500000D01*
X139614326Y-98688256D01*
X139614327Y-98688259D01*
X139672818Y-98868277D01*
X139672821Y-98868284D01*
X139767467Y-99032216D01*
X139888401Y-99166526D01*
X139894129Y-99172888D01*
X140047265Y-99284148D01*
X140047270Y-99284151D01*
X140220192Y-99361142D01*
X140220197Y-99361144D01*
X140405354Y-99400500D01*
X140405355Y-99400500D01*
X140594644Y-99400500D01*
X140594646Y-99400500D01*
X140779803Y-99361144D01*
X140952730Y-99284151D01*
X141105871Y-99172888D01*
X141108788Y-99169647D01*
X141111600Y-99166526D01*
X141171087Y-99129879D01*
X141203748Y-99125500D01*
X147561607Y-99125500D01*
X147622029Y-99113481D01*
X147682452Y-99101463D01*
X147732496Y-99080734D01*
X147796286Y-99054312D01*
X147860197Y-99011607D01*
X147898733Y-98985858D01*
X147985858Y-98898733D01*
X147985859Y-98898730D01*
X147992925Y-98891665D01*
X147992928Y-98891661D01*
X148919062Y-97965526D01*
X148980383Y-97932043D01*
X149050075Y-97937027D01*
G37*
%TD.AperFunction*%
%TA.AperFunction,Conductor*%
G36*
X156567563Y-102145185D02*
G01*
X156588205Y-102161819D01*
X158589205Y-104162819D01*
X158622690Y-104224142D01*
X158617706Y-104293834D01*
X158575834Y-104349767D01*
X158510370Y-104374184D01*
X158501524Y-104374500D01*
X154995831Y-104374500D01*
X154928792Y-104354815D01*
X154883037Y-104302011D01*
X154873093Y-104232853D01*
X154877900Y-104212182D01*
X154878436Y-104210529D01*
X154885674Y-104188256D01*
X154905460Y-104000000D01*
X154885674Y-103811744D01*
X154827179Y-103631716D01*
X154732533Y-103467784D01*
X154605871Y-103327112D01*
X154605870Y-103327111D01*
X154452734Y-103215851D01*
X154452729Y-103215848D01*
X154279807Y-103138857D01*
X154279803Y-103138856D01*
X154223718Y-103126934D01*
X154162236Y-103093741D01*
X154128460Y-103032577D01*
X154125500Y-103005644D01*
X154125500Y-102441631D01*
X154145185Y-102374592D01*
X154197989Y-102328837D01*
X154259227Y-102318013D01*
X154290819Y-102320500D01*
X154689180Y-102320499D01*
X154725204Y-102317665D01*
X154879393Y-102272869D01*
X154936882Y-102238869D01*
X155004602Y-102221688D01*
X155063117Y-102238869D01*
X155120607Y-102272869D01*
X155120610Y-102272869D01*
X155120612Y-102272871D01*
X155274791Y-102317664D01*
X155274794Y-102317664D01*
X155274796Y-102317665D01*
X155310819Y-102320500D01*
X155709180Y-102320499D01*
X155745204Y-102317665D01*
X155899393Y-102272869D01*
X156037598Y-102191135D01*
X156040477Y-102188256D01*
X156066915Y-102161819D01*
X156128238Y-102128334D01*
X156154596Y-102125500D01*
X156500524Y-102125500D01*
X156567563Y-102145185D01*
G37*
%TD.AperFunction*%
%TA.AperFunction,Conductor*%
G36*
X153167587Y-98547185D02*
G01*
X153188229Y-98563819D01*
X154848181Y-100223771D01*
X154881666Y-100285094D01*
X154884500Y-100311452D01*
X154884500Y-100563462D01*
X154864815Y-100630501D01*
X154812011Y-100676256D01*
X154742853Y-100686200D01*
X154725909Y-100682539D01*
X154725211Y-100682336D01*
X154725202Y-100682334D01*
X154689181Y-100679500D01*
X154290830Y-100679500D01*
X154290808Y-100679501D01*
X154254794Y-100682335D01*
X154100611Y-100727129D01*
X154100606Y-100727131D01*
X153962404Y-100808863D01*
X153962396Y-100808869D01*
X153933085Y-100838181D01*
X153871762Y-100871666D01*
X153845404Y-100874500D01*
X152438389Y-100874500D01*
X152377971Y-100886518D01*
X152317548Y-100898537D01*
X152317543Y-100898538D01*
X152284207Y-100912347D01*
X152270397Y-100918067D01*
X152248169Y-100927274D01*
X152203713Y-100945688D01*
X152193557Y-100952475D01*
X152193449Y-100952547D01*
X152101268Y-101014140D01*
X152059909Y-101055500D01*
X152014142Y-101101267D01*
X151952228Y-101163181D01*
X151890905Y-101196666D01*
X151864547Y-101199500D01*
X151487000Y-101199500D01*
X151419961Y-101179815D01*
X151374206Y-101127011D01*
X151363000Y-101075500D01*
X151363000Y-100834313D01*
X151362999Y-100834298D01*
X151361461Y-100814758D01*
X151360098Y-100797431D01*
X151336090Y-100714797D01*
X151314245Y-100639606D01*
X151314244Y-100639603D01*
X151314244Y-100639602D01*
X151230581Y-100498135D01*
X151230579Y-100498133D01*
X151230576Y-100498129D01*
X151114370Y-100381923D01*
X151114362Y-100381917D01*
X150995211Y-100311452D01*
X150972898Y-100298256D01*
X150972897Y-100298255D01*
X150972896Y-100298255D01*
X150972893Y-100298254D01*
X150815073Y-100252402D01*
X150815067Y-100252401D01*
X150778201Y-100249500D01*
X150778194Y-100249500D01*
X149471806Y-100249500D01*
X149471795Y-100249500D01*
X149452258Y-100251038D01*
X149383881Y-100236673D01*
X149334125Y-100187620D01*
X149318787Y-100119455D01*
X149342737Y-100053818D01*
X149354844Y-100039744D01*
X150830772Y-98563819D01*
X150892095Y-98530334D01*
X150918453Y-98527500D01*
X153036393Y-98527500D01*
X153100548Y-98527500D01*
X153167587Y-98547185D01*
G37*
%TD.AperFunction*%
%TA.AperFunction,Conductor*%
G36*
X143073321Y-96713781D02*
G01*
X143129255Y-96755653D01*
X143147919Y-96791645D01*
X143172818Y-96868277D01*
X143172821Y-96868284D01*
X143267467Y-97032216D01*
X143394129Y-97172888D01*
X143547265Y-97284148D01*
X143547270Y-97284151D01*
X143720192Y-97361142D01*
X143720197Y-97361144D01*
X143905354Y-97400500D01*
X143905355Y-97400500D01*
X144094644Y-97400500D01*
X144094646Y-97400500D01*
X144279803Y-97361144D01*
X144452730Y-97284151D01*
X144605871Y-97172888D01*
X144732533Y-97032216D01*
X144776543Y-96955989D01*
X144782599Y-96945500D01*
X144833166Y-96897284D01*
X144889986Y-96883500D01*
X147932548Y-96883500D01*
X147999587Y-96903185D01*
X148045342Y-96955989D01*
X148055286Y-97025147D01*
X148026261Y-97088703D01*
X148020229Y-97095181D01*
X147277229Y-97838181D01*
X147215906Y-97871666D01*
X147189548Y-97874500D01*
X142109452Y-97874500D01*
X142042413Y-97854815D01*
X141996658Y-97802011D01*
X141986714Y-97732853D01*
X142015739Y-97669297D01*
X142021771Y-97662819D01*
X142400442Y-97284148D01*
X142942309Y-96742280D01*
X143003630Y-96708797D01*
X143073321Y-96713781D01*
G37*
%TD.AperFunction*%
%TA.AperFunction,Conductor*%
G36*
X146146200Y-94025366D02*
G01*
X146196690Y-94055976D01*
X147166567Y-95025854D01*
X147166570Y-95025857D01*
X147234716Y-95071390D01*
X147269019Y-95094311D01*
X147382853Y-95141463D01*
X147465349Y-95157872D01*
X147503693Y-95165499D01*
X147503697Y-95165500D01*
X147503698Y-95165500D01*
X147503699Y-95165500D01*
X148885425Y-95165500D01*
X148952464Y-95185185D01*
X148998219Y-95237989D01*
X149001607Y-95246167D01*
X149041202Y-95352328D01*
X149041203Y-95352330D01*
X149102483Y-95434189D01*
X149126900Y-95499653D01*
X149112049Y-95567926D01*
X149062644Y-95617332D01*
X149003216Y-95632500D01*
X144351453Y-95632500D01*
X144284414Y-95612815D01*
X144238659Y-95560011D01*
X144228715Y-95490853D01*
X144257740Y-95427297D01*
X144263772Y-95420819D01*
X145347772Y-94336819D01*
X145409095Y-94303334D01*
X145435453Y-94300500D01*
X145494644Y-94300500D01*
X145494646Y-94300500D01*
X145679803Y-94261144D01*
X145852730Y-94184151D01*
X146005871Y-94072888D01*
X146016857Y-94060687D01*
X146076343Y-94024037D01*
X146146200Y-94025366D01*
G37*
%TD.AperFunction*%
%TA.AperFunction,Conductor*%
G36*
X139681232Y-87895185D02*
G01*
X139726987Y-87947989D01*
X139737509Y-88012511D01*
X139737373Y-88013800D01*
X139710762Y-88078404D01*
X139701738Y-88088470D01*
X134054129Y-93736081D01*
X133992806Y-93769566D01*
X133966448Y-93772400D01*
X123944500Y-93772400D01*
X123877461Y-93752715D01*
X123831706Y-93699911D01*
X123820500Y-93648400D01*
X123820500Y-93515317D01*
X123820499Y-93515302D01*
X123817643Y-93479008D01*
X123817642Y-93479002D01*
X123772495Y-93323609D01*
X123772494Y-93323605D01*
X123770488Y-93320214D01*
X123765998Y-93312620D01*
X123748815Y-93244896D01*
X123770975Y-93178634D01*
X123825442Y-93134871D01*
X123872730Y-93125500D01*
X132955507Y-93125500D01*
X133015929Y-93113481D01*
X133076352Y-93101463D01*
X133076355Y-93101461D01*
X133076358Y-93101461D01*
X133109687Y-93087654D01*
X133109686Y-93087654D01*
X133109692Y-93087652D01*
X133190186Y-93054312D01*
X133269573Y-93001266D01*
X133292633Y-92985858D01*
X133379758Y-92898733D01*
X133379759Y-92898731D01*
X133386825Y-92891665D01*
X133386828Y-92891661D01*
X138366670Y-87911819D01*
X138427993Y-87878334D01*
X138454351Y-87875500D01*
X139614193Y-87875500D01*
X139681232Y-87895185D01*
G37*
%TD.AperFunction*%
%TA.AperFunction,Conductor*%
G36*
X131893834Y-84763569D02*
G01*
X131949767Y-84805441D01*
X131974184Y-84870905D01*
X131974500Y-84879751D01*
X131974500Y-91750500D01*
X131954815Y-91817539D01*
X131902011Y-91863294D01*
X131850500Y-91874500D01*
X124938967Y-91874500D01*
X124871928Y-91854815D01*
X124826173Y-91802011D01*
X124816229Y-91732853D01*
X124845254Y-91669297D01*
X124874293Y-91646110D01*
X124873818Y-91645399D01*
X124892063Y-91633206D01*
X124930109Y-91607784D01*
X124981333Y-91573558D01*
X125068458Y-91486433D01*
X125068458Y-91486431D01*
X125078666Y-91476224D01*
X125078667Y-91476221D01*
X131762821Y-84792068D01*
X131824142Y-84758585D01*
X131893834Y-84763569D01*
G37*
%TD.AperFunction*%
%TA.AperFunction,Conductor*%
G36*
X121470725Y-89977639D02*
G01*
X121485608Y-89987203D01*
X121485613Y-89987207D01*
X121541969Y-90029395D01*
X121541972Y-90029397D01*
X121554405Y-90034034D01*
X121676818Y-90079691D01*
X121736428Y-90086100D01*
X122086173Y-90086099D01*
X122145784Y-90079691D01*
X122280632Y-90029396D01*
X122336989Y-89987206D01*
X122402453Y-89962790D01*
X122470726Y-89977641D01*
X122485611Y-89987207D01*
X122541968Y-90029396D01*
X122541970Y-90029397D01*
X122554403Y-90034034D01*
X122676816Y-90079691D01*
X122736426Y-90086100D01*
X122750889Y-90086099D01*
X122817927Y-90105780D01*
X122863684Y-90158581D01*
X122873632Y-90227739D01*
X122858160Y-90268229D01*
X122859861Y-90269139D01*
X122856984Y-90274519D01*
X122823647Y-90355007D01*
X122823646Y-90355009D01*
X122810952Y-90385654D01*
X122767111Y-90440057D01*
X122700816Y-90462121D01*
X122696392Y-90462200D01*
X121365799Y-90462200D01*
X121298760Y-90442515D01*
X121253005Y-90389711D01*
X121241799Y-90338200D01*
X121241799Y-90325129D01*
X121241798Y-90325123D01*
X121235682Y-90268229D01*
X121235391Y-90265517D01*
X121206935Y-90189224D01*
X121201952Y-90119535D01*
X121235437Y-90058212D01*
X121273060Y-90034034D01*
X121272848Y-90033646D01*
X121278286Y-90030676D01*
X121279792Y-90029709D01*
X121279936Y-90029654D01*
X121280631Y-90029396D01*
X121336990Y-89987204D01*
X121402452Y-89962788D01*
X121470725Y-89977639D01*
G37*
%TD.AperFunction*%
%TA.AperFunction,Conductor*%
G36*
X120030703Y-87835740D02*
G01*
X120037173Y-87841763D01*
X120121804Y-87926395D01*
X120181268Y-87985859D01*
X120283710Y-88054309D01*
X120283711Y-88054309D01*
X120283715Y-88054312D01*
X120332589Y-88074556D01*
X120397548Y-88101463D01*
X120518389Y-88125499D01*
X120518393Y-88125500D01*
X120518394Y-88125500D01*
X121161801Y-88125500D01*
X121228840Y-88145185D01*
X121274595Y-88197989D01*
X121285801Y-88249500D01*
X121285801Y-88485916D01*
X121266116Y-88552955D01*
X121213312Y-88598710D01*
X121148547Y-88609206D01*
X121138106Y-88608083D01*
X121086173Y-88602500D01*
X121086165Y-88602500D01*
X120736430Y-88602500D01*
X120736423Y-88602501D01*
X120676816Y-88608908D01*
X120541971Y-88659202D01*
X120541964Y-88659206D01*
X120426755Y-88745452D01*
X120426752Y-88745455D01*
X120340506Y-88860664D01*
X120340502Y-88860671D01*
X120290210Y-88995513D01*
X120290209Y-88995517D01*
X120283800Y-89055127D01*
X120283800Y-89055134D01*
X120283800Y-89055135D01*
X120283800Y-89633470D01*
X120283801Y-89633476D01*
X120290209Y-89693084D01*
X120295705Y-89707821D01*
X120300687Y-89777512D01*
X120267201Y-89838835D01*
X120205877Y-89872318D01*
X120192777Y-89874441D01*
X120151216Y-89878909D01*
X120016367Y-89929204D01*
X120008927Y-89933267D01*
X119940654Y-89948119D01*
X119875189Y-89923702D01*
X119833318Y-89867768D01*
X119825500Y-89824435D01*
X119825500Y-87929453D01*
X119845185Y-87862414D01*
X119897989Y-87816659D01*
X119967147Y-87806715D01*
X120030703Y-87835740D01*
G37*
%TD.AperFunction*%
%TA.AperFunction,Conductor*%
G36*
X124113734Y-88560970D02*
G01*
X124169667Y-88602842D01*
X124194084Y-88668306D01*
X124194400Y-88677152D01*
X124194400Y-89033847D01*
X124174715Y-89100886D01*
X124158081Y-89121528D01*
X123902987Y-89376621D01*
X123841664Y-89410106D01*
X123839498Y-89410557D01*
X123774754Y-89423435D01*
X123774740Y-89423439D01*
X123710250Y-89450152D01*
X123640780Y-89457621D01*
X123578301Y-89426345D01*
X123542650Y-89366256D01*
X123538798Y-89335591D01*
X123538798Y-89084754D01*
X123558483Y-89017715D01*
X123575117Y-88997073D01*
X123982719Y-88589471D01*
X124044042Y-88555986D01*
X124113734Y-88560970D01*
G37*
%TD.AperFunction*%
%TA.AperFunction,Conductor*%
G36*
X135043786Y-65995185D02*
G01*
X135089541Y-66047989D01*
X135099485Y-66117147D01*
X135070460Y-66180703D01*
X135064428Y-66187181D01*
X130712409Y-70539199D01*
X130651086Y-70572684D01*
X130581394Y-70567700D01*
X130525461Y-70525828D01*
X130501044Y-70460364D01*
X130501406Y-70438563D01*
X130505460Y-70400000D01*
X130485674Y-70211744D01*
X130427179Y-70031716D01*
X130332533Y-69867784D01*
X130205871Y-69727112D01*
X130205870Y-69727111D01*
X130052734Y-69615851D01*
X130052729Y-69615848D01*
X129879807Y-69538857D01*
X129879802Y-69538855D01*
X129734001Y-69507865D01*
X129694646Y-69499500D01*
X129505354Y-69499500D01*
X129472897Y-69506398D01*
X129320197Y-69538855D01*
X129320192Y-69538857D01*
X129147270Y-69615848D01*
X129147265Y-69615851D01*
X128994130Y-69727110D01*
X128994126Y-69727114D01*
X128988400Y-69733474D01*
X128928913Y-69770121D01*
X128896252Y-69774500D01*
X128103748Y-69774500D01*
X128036709Y-69754815D01*
X128011600Y-69733474D01*
X128005873Y-69727114D01*
X128005869Y-69727110D01*
X127852734Y-69615851D01*
X127852729Y-69615848D01*
X127679807Y-69538857D01*
X127679802Y-69538855D01*
X127534001Y-69507865D01*
X127494646Y-69499500D01*
X127305354Y-69499500D01*
X127272897Y-69506398D01*
X127120197Y-69538855D01*
X127120192Y-69538857D01*
X126947270Y-69615848D01*
X126947265Y-69615851D01*
X126794129Y-69727111D01*
X126667466Y-69867785D01*
X126572821Y-70031715D01*
X126572818Y-70031722D01*
X126515622Y-70207754D01*
X126514326Y-70211744D01*
X126494540Y-70400000D01*
X126514326Y-70588256D01*
X126514327Y-70588259D01*
X126572818Y-70768277D01*
X126572821Y-70768284D01*
X126667467Y-70932216D01*
X126769185Y-71045185D01*
X126794129Y-71072888D01*
X126947265Y-71184148D01*
X126947270Y-71184151D01*
X127120192Y-71261142D01*
X127120197Y-71261144D01*
X127305354Y-71300500D01*
X127305355Y-71300500D01*
X127494644Y-71300500D01*
X127494646Y-71300500D01*
X127679803Y-71261144D01*
X127852730Y-71184151D01*
X128005871Y-71072888D01*
X128008788Y-71069647D01*
X128011600Y-71066526D01*
X128071087Y-71029879D01*
X128103748Y-71025500D01*
X128896252Y-71025500D01*
X128963291Y-71045185D01*
X128988400Y-71066526D01*
X128994126Y-71072885D01*
X128994130Y-71072889D01*
X129147265Y-71184148D01*
X129147270Y-71184151D01*
X129320192Y-71261142D01*
X129320197Y-71261144D01*
X129505354Y-71300500D01*
X129505355Y-71300500D01*
X129651747Y-71300500D01*
X129718786Y-71320185D01*
X129764541Y-71372989D01*
X129774485Y-71442147D01*
X129745460Y-71505703D01*
X129739428Y-71512181D01*
X129484344Y-71767264D01*
X129484338Y-71767272D01*
X129415890Y-71869708D01*
X129415888Y-71869713D01*
X129368740Y-71983538D01*
X129368737Y-71983546D01*
X129345337Y-72101196D01*
X129345333Y-72101212D01*
X129344700Y-72104389D01*
X129344700Y-84541947D01*
X129325015Y-84608986D01*
X129308381Y-84629628D01*
X125657081Y-88280928D01*
X125595758Y-88314413D01*
X125526066Y-88309429D01*
X125470133Y-88267557D01*
X125445716Y-88202093D01*
X125445400Y-88193247D01*
X125445400Y-70490552D01*
X125465085Y-70423513D01*
X125481719Y-70402871D01*
X129872771Y-66011819D01*
X129934094Y-65978334D01*
X129960452Y-65975500D01*
X134976747Y-65975500D01*
X135043786Y-65995185D01*
G37*
%TD.AperFunction*%
%TA.AperFunction,Conductor*%
G36*
X123925163Y-68152768D02*
G01*
X124060607Y-68232869D01*
X124101268Y-68244682D01*
X124214791Y-68277664D01*
X124214794Y-68277664D01*
X124214796Y-68277665D01*
X124250819Y-68280500D01*
X124392248Y-68280499D01*
X124459286Y-68300183D01*
X124505041Y-68352987D01*
X124514985Y-68422145D01*
X124485961Y-68485701D01*
X124479928Y-68492180D01*
X123872609Y-69099500D01*
X123775070Y-69197039D01*
X123775067Y-69197042D01*
X123731504Y-69240604D01*
X123687942Y-69284166D01*
X123673546Y-69305711D01*
X123659248Y-69327111D01*
X123659247Y-69327112D01*
X123619490Y-69386610D01*
X123619487Y-69386616D01*
X123595018Y-69445688D01*
X123595019Y-69445689D01*
X123572336Y-69500449D01*
X123572335Y-69500455D01*
X123548300Y-69621289D01*
X123548300Y-87203347D01*
X123528615Y-87270386D01*
X123511981Y-87291028D01*
X122992181Y-87810828D01*
X122930858Y-87844313D01*
X122861166Y-87839329D01*
X122805233Y-87797457D01*
X122780816Y-87731993D01*
X122780500Y-87723147D01*
X122780500Y-87265317D01*
X122780499Y-87265302D01*
X122779665Y-87254709D01*
X122777643Y-87229007D01*
X122764117Y-87182452D01*
X122732495Y-87073609D01*
X122732494Y-87073606D01*
X122732494Y-87073605D01*
X122650117Y-86934313D01*
X122650115Y-86934311D01*
X122650112Y-86934307D01*
X122535692Y-86819887D01*
X122535684Y-86819881D01*
X122396393Y-86737505D01*
X122396390Y-86737504D01*
X122240997Y-86692357D01*
X122240991Y-86692356D01*
X122204697Y-86689500D01*
X122204690Y-86689500D01*
X121795310Y-86689500D01*
X121795302Y-86689500D01*
X121759008Y-86692356D01*
X121759002Y-86692357D01*
X121603609Y-86737504D01*
X121603606Y-86737505D01*
X121464315Y-86819881D01*
X121464307Y-86819887D01*
X121446014Y-86838181D01*
X121384691Y-86871666D01*
X121358333Y-86874500D01*
X120890453Y-86874500D01*
X120823414Y-86854815D01*
X120802772Y-86838181D01*
X119861819Y-85897228D01*
X119828334Y-85835905D01*
X119825500Y-85809547D01*
X119825500Y-80161667D01*
X119845185Y-80094628D01*
X119861819Y-80073986D01*
X119970112Y-79965692D01*
X119970117Y-79965687D01*
X120052494Y-79826395D01*
X120097643Y-79670993D01*
X120100500Y-79634690D01*
X120100500Y-79165310D01*
X120097643Y-79129007D01*
X120052494Y-78973605D01*
X119970117Y-78834313D01*
X119966146Y-78827598D01*
X119967789Y-78826626D01*
X119945984Y-78771070D01*
X119945500Y-78760121D01*
X119945500Y-78639878D01*
X119965185Y-78572839D01*
X119969480Y-78566763D01*
X119970115Y-78565688D01*
X119970117Y-78565687D01*
X120052494Y-78426395D01*
X120097643Y-78270993D01*
X120100500Y-78234690D01*
X120100500Y-77765310D01*
X120097643Y-77729007D01*
X120084640Y-77684252D01*
X120052495Y-77573609D01*
X120052494Y-77573606D01*
X120052494Y-77573605D01*
X119992768Y-77472613D01*
X119975500Y-77409492D01*
X119975500Y-77172351D01*
X119995185Y-77105312D01*
X120047989Y-77059557D01*
X120086247Y-77049061D01*
X120132483Y-77044091D01*
X120161365Y-77033317D01*
X120204700Y-77025499D01*
X120597871Y-77025499D01*
X120597872Y-77025499D01*
X120657483Y-77019091D01*
X120792331Y-76968796D01*
X120907546Y-76882546D01*
X120993796Y-76767331D01*
X121044091Y-76632483D01*
X121050500Y-76572873D01*
X121050499Y-76127128D01*
X121049008Y-76113258D01*
X121049008Y-76086749D01*
X121050500Y-76072873D01*
X121050499Y-75627128D01*
X121050366Y-75625894D01*
X121049008Y-75613258D01*
X121049008Y-75586749D01*
X121050500Y-75572873D01*
X121050499Y-75127128D01*
X121049008Y-75113258D01*
X121049008Y-75086749D01*
X121050500Y-75072873D01*
X121050499Y-74627128D01*
X121044091Y-74567517D01*
X121040372Y-74557547D01*
X120995818Y-74438090D01*
X120988000Y-74394757D01*
X120988000Y-72707952D01*
X121007685Y-72640913D01*
X121024319Y-72620271D01*
X122485855Y-71158736D01*
X122485855Y-71158735D01*
X122485858Y-71158733D01*
X122554312Y-71056285D01*
X122565250Y-71029879D01*
X122585606Y-70980735D01*
X122601461Y-70942456D01*
X122601463Y-70942452D01*
X122615558Y-70871591D01*
X122625501Y-70821606D01*
X122625501Y-70698393D01*
X122625501Y-70693283D01*
X122625500Y-70693257D01*
X122625500Y-68259500D01*
X122645185Y-68192461D01*
X122697989Y-68146706D01*
X122749500Y-68135500D01*
X123862042Y-68135500D01*
X123925163Y-68152768D01*
G37*
%TD.AperFunction*%
%TA.AperFunction,Conductor*%
G36*
X143657586Y-73845185D02*
G01*
X143703341Y-73897989D01*
X143713285Y-73967147D01*
X143684260Y-74030703D01*
X143678228Y-74037181D01*
X137977229Y-79738181D01*
X137915906Y-79771666D01*
X137889548Y-79774500D01*
X137713084Y-79774500D01*
X137652666Y-79786518D01*
X137592243Y-79798537D01*
X137592238Y-79798538D01*
X137558241Y-79812620D01*
X137545092Y-79818067D01*
X137524999Y-79826390D01*
X137478408Y-79845688D01*
X137468252Y-79852475D01*
X137468144Y-79852547D01*
X137375963Y-79914140D01*
X137332400Y-79957703D01*
X137288837Y-80001267D01*
X134810981Y-82479123D01*
X134749658Y-82512608D01*
X134679966Y-82507624D01*
X134624033Y-82465752D01*
X134599616Y-82400288D01*
X134599300Y-82391442D01*
X134599300Y-78149500D01*
X134618985Y-78082461D01*
X134671789Y-78036706D01*
X134723300Y-78025500D01*
X138261608Y-78025500D01*
X138261608Y-78025499D01*
X138330764Y-78011744D01*
X138330765Y-78011744D01*
X138343774Y-78009156D01*
X138382452Y-78001463D01*
X138433633Y-77980263D01*
X138496286Y-77954312D01*
X138559523Y-77912057D01*
X138598733Y-77885858D01*
X138685858Y-77798733D01*
X138685859Y-77798731D01*
X138692925Y-77791665D01*
X138692928Y-77791661D01*
X140798729Y-75685860D01*
X140798733Y-75685858D01*
X140885858Y-75598733D01*
X140934278Y-75526267D01*
X140939068Y-75519099D01*
X140939069Y-75519096D01*
X140939073Y-75519091D01*
X140954312Y-75496285D01*
X140989697Y-75410858D01*
X141001463Y-75382452D01*
X141013481Y-75322029D01*
X141025500Y-75261607D01*
X141025500Y-75138393D01*
X141025500Y-74854618D01*
X141045185Y-74787579D01*
X141097989Y-74741824D01*
X141167147Y-74731880D01*
X141184095Y-74735542D01*
X141329002Y-74777642D01*
X141329005Y-74777642D01*
X141329007Y-74777643D01*
X141365310Y-74780500D01*
X141365318Y-74780500D01*
X141834682Y-74780500D01*
X141834690Y-74780500D01*
X141870993Y-74777643D01*
X141870995Y-74777642D01*
X141870997Y-74777642D01*
X141911975Y-74765736D01*
X142026395Y-74732494D01*
X142165687Y-74650117D01*
X142280117Y-74535687D01*
X142362494Y-74396395D01*
X142405643Y-74247876D01*
X142407642Y-74240997D01*
X142407643Y-74240991D01*
X142410499Y-74204697D01*
X142410500Y-74204690D01*
X142410500Y-73949500D01*
X142430185Y-73882461D01*
X142482989Y-73836706D01*
X142534500Y-73825500D01*
X143590547Y-73825500D01*
X143657586Y-73845185D01*
G37*
%TD.AperFunction*%
%TA.AperFunction,Conductor*%
G36*
X137242488Y-67844614D02*
G01*
X137249590Y-67847516D01*
X137280197Y-67861144D01*
X137465354Y-67900500D01*
X137524546Y-67900500D01*
X137591585Y-67920185D01*
X137612227Y-67936819D01*
X137671264Y-67995856D01*
X137671267Y-67995858D01*
X137748190Y-68047256D01*
X137773710Y-68064309D01*
X137773712Y-68064310D01*
X137773715Y-68064312D01*
X137840396Y-68091931D01*
X137840398Y-68091933D01*
X137887543Y-68111461D01*
X137887548Y-68111463D01*
X137913956Y-68116715D01*
X137937781Y-68121455D01*
X137937801Y-68121458D01*
X137937823Y-68121463D01*
X138008391Y-68135499D01*
X138008392Y-68135500D01*
X138008393Y-68135500D01*
X138008394Y-68135500D01*
X146862042Y-68135500D01*
X146925163Y-68152768D01*
X147060607Y-68232869D01*
X147101268Y-68244682D01*
X147214791Y-68277664D01*
X147214794Y-68277664D01*
X147214796Y-68277665D01*
X147250819Y-68280500D01*
X147749180Y-68280499D01*
X147785204Y-68277665D01*
X147939393Y-68232869D01*
X148057928Y-68162768D01*
X148121049Y-68145500D01*
X149270547Y-68145500D01*
X149337586Y-68165185D01*
X149383341Y-68217989D01*
X149393285Y-68287147D01*
X149364260Y-68350703D01*
X149358228Y-68357181D01*
X145177229Y-72538181D01*
X145115906Y-72571666D01*
X145089548Y-72574500D01*
X139082487Y-72574500D01*
X139023058Y-72559331D01*
X139017330Y-72556203D01*
X138882486Y-72505910D01*
X138882485Y-72505909D01*
X138882483Y-72505909D01*
X138822873Y-72499500D01*
X138822863Y-72499500D01*
X138177129Y-72499500D01*
X138177123Y-72499501D01*
X138117516Y-72505908D01*
X137982671Y-72556202D01*
X137982664Y-72556206D01*
X137867455Y-72642452D01*
X137867452Y-72642455D01*
X137781206Y-72757664D01*
X137781202Y-72757671D01*
X137730910Y-72892513D01*
X137730909Y-72892517D01*
X137724500Y-72952127D01*
X137724500Y-72952134D01*
X137724500Y-72952135D01*
X137724500Y-73447870D01*
X137724501Y-73447876D01*
X137730908Y-73507482D01*
X137749253Y-73556666D01*
X137754237Y-73626358D01*
X137749253Y-73643331D01*
X137730910Y-73692511D01*
X137730909Y-73692515D01*
X137730909Y-73692517D01*
X137724500Y-73752127D01*
X137724500Y-73752134D01*
X137724500Y-73752135D01*
X137724500Y-74247870D01*
X137724501Y-74247876D01*
X137730908Y-74307483D01*
X137781202Y-74442328D01*
X137781206Y-74442335D01*
X137867452Y-74557544D01*
X137867455Y-74557547D01*
X137982664Y-74643793D01*
X137982671Y-74643797D01*
X137999603Y-74650112D01*
X138117517Y-74694091D01*
X138177127Y-74700500D01*
X138822872Y-74700499D01*
X138882483Y-74694091D01*
X139017331Y-74643796D01*
X139017333Y-74643793D01*
X139023058Y-74640669D01*
X139082487Y-74625500D01*
X139650500Y-74625500D01*
X139717539Y-74645185D01*
X139763294Y-74697989D01*
X139774500Y-74749500D01*
X139774500Y-74889548D01*
X139754815Y-74956587D01*
X139738181Y-74977229D01*
X137977229Y-76738181D01*
X137915906Y-76771666D01*
X137889548Y-76774500D01*
X136995831Y-76774500D01*
X136928792Y-76754815D01*
X136883037Y-76702011D01*
X136873093Y-76632853D01*
X136877900Y-76612182D01*
X136878436Y-76610529D01*
X136885674Y-76588256D01*
X136905460Y-76400000D01*
X136885674Y-76211744D01*
X136827179Y-76031716D01*
X136732533Y-75867784D01*
X136657350Y-75784284D01*
X136627120Y-75721292D01*
X136625500Y-75701312D01*
X136625500Y-75564141D01*
X136645185Y-75497102D01*
X136697989Y-75451347D01*
X136706149Y-75447966D01*
X136717331Y-75443796D01*
X136832546Y-75357546D01*
X136918796Y-75242331D01*
X136969091Y-75107483D01*
X136975500Y-75047873D01*
X136975499Y-74552128D01*
X136969091Y-74492517D01*
X136950374Y-74442335D01*
X136918797Y-74357671D01*
X136918793Y-74357664D01*
X136832547Y-74242455D01*
X136832544Y-74242452D01*
X136717335Y-74156206D01*
X136717328Y-74156202D01*
X136610027Y-74116182D01*
X136554093Y-74074311D01*
X136529676Y-74008847D01*
X136544527Y-73940574D01*
X136593932Y-73891168D01*
X136610027Y-73883818D01*
X136685951Y-73855500D01*
X136717331Y-73843796D01*
X136832546Y-73757546D01*
X136918796Y-73642331D01*
X136969091Y-73507483D01*
X136975500Y-73447873D01*
X136975499Y-72952128D01*
X136969091Y-72892517D01*
X136918796Y-72757669D01*
X136918795Y-72757668D01*
X136918793Y-72757664D01*
X136832547Y-72642455D01*
X136832544Y-72642452D01*
X136717335Y-72556206D01*
X136717328Y-72556202D01*
X136582486Y-72505910D01*
X136582485Y-72505909D01*
X136582483Y-72505909D01*
X136522873Y-72499500D01*
X136522863Y-72499500D01*
X135877129Y-72499500D01*
X135877123Y-72499501D01*
X135817516Y-72505908D01*
X135682669Y-72556203D01*
X135676942Y-72559331D01*
X135617513Y-72574500D01*
X134447958Y-72574500D01*
X134384837Y-72557232D01*
X134249393Y-72477131D01*
X134249388Y-72477129D01*
X134095208Y-72432335D01*
X134095202Y-72432334D01*
X134059181Y-72429500D01*
X133660830Y-72429500D01*
X133660808Y-72429501D01*
X133624795Y-72432335D01*
X133624087Y-72432541D01*
X133623672Y-72432539D01*
X133618563Y-72433473D01*
X133618389Y-72432524D01*
X133554217Y-72432336D01*
X133495550Y-72394390D01*
X133466711Y-72330750D01*
X133465500Y-72313462D01*
X133465500Y-71570451D01*
X133485185Y-71503412D01*
X133501814Y-71482775D01*
X137111475Y-67873113D01*
X137172796Y-67839630D01*
X137242488Y-67844614D01*
G37*
%TD.AperFunction*%
%TA.AperFunction,Conductor*%
G36*
X132153828Y-70969475D02*
G01*
X132209761Y-71011347D01*
X132234178Y-71076811D01*
X132232112Y-71109845D01*
X132218862Y-71176462D01*
X132218802Y-71176768D01*
X132214500Y-71198394D01*
X132214500Y-72480500D01*
X132194815Y-72547539D01*
X132142011Y-72593294D01*
X132090500Y-72604500D01*
X131489878Y-72604500D01*
X131422839Y-72584815D01*
X131416763Y-72580519D01*
X131290605Y-72505910D01*
X131276395Y-72497506D01*
X131276394Y-72497505D01*
X131276393Y-72497505D01*
X131276390Y-72497504D01*
X131120997Y-72452357D01*
X131120991Y-72452356D01*
X131084697Y-72449500D01*
X131084690Y-72449500D01*
X130870652Y-72449500D01*
X130803613Y-72429815D01*
X130757858Y-72377011D01*
X130747914Y-72307853D01*
X130776939Y-72244297D01*
X130782971Y-72237819D01*
X131340650Y-71680140D01*
X132022815Y-70997974D01*
X132084136Y-70964491D01*
X132153828Y-70969475D01*
G37*
%TD.AperFunction*%
%TA.AperFunction,Conductor*%
G36*
X154256587Y-69145185D02*
G01*
X154277229Y-69161819D01*
X157237677Y-72122267D01*
X157271162Y-72183590D01*
X157266178Y-72253282D01*
X157224306Y-72309215D01*
X157158842Y-72333632D01*
X157149996Y-72333948D01*
X147450004Y-72333948D01*
X147382965Y-72314263D01*
X147337210Y-72261459D01*
X147327266Y-72192301D01*
X147356291Y-72128745D01*
X147362323Y-72122267D01*
X150322771Y-69161819D01*
X150384094Y-69128334D01*
X150410452Y-69125500D01*
X154189548Y-69125500D01*
X154256587Y-69145185D01*
G37*
%TD.AperFunction*%
%TA.AperFunction,Conductor*%
G36*
X128754855Y-60866546D02*
G01*
X128771575Y-60885842D01*
X128901501Y-61071396D01*
X128901506Y-61071402D01*
X129068597Y-61238493D01*
X129068603Y-61238498D01*
X129254158Y-61368425D01*
X129297783Y-61423002D01*
X129304977Y-61492500D01*
X129273454Y-61554855D01*
X129254158Y-61571575D01*
X129068597Y-61701505D01*
X128901505Y-61868597D01*
X128765965Y-62062169D01*
X128765964Y-62062171D01*
X128666098Y-62276335D01*
X128666094Y-62276344D01*
X128604938Y-62504586D01*
X128604936Y-62504596D01*
X128584341Y-62739999D01*
X128584341Y-62740000D01*
X128604936Y-62975403D01*
X128604938Y-62975413D01*
X128666094Y-63203655D01*
X128666096Y-63203659D01*
X128666097Y-63203663D01*
X128670000Y-63212032D01*
X128765965Y-63417830D01*
X128765967Y-63417834D01*
X128874281Y-63572521D01*
X128901501Y-63611396D01*
X128901506Y-63611402D01*
X129043425Y-63753321D01*
X129076910Y-63814644D01*
X129071926Y-63884336D01*
X129043425Y-63928683D01*
X125532180Y-67439929D01*
X125470857Y-67473414D01*
X125401165Y-67468430D01*
X125345232Y-67426558D01*
X125320815Y-67361094D01*
X125320499Y-67352248D01*
X125320499Y-67310831D01*
X125320498Y-67310806D01*
X125317665Y-67274799D01*
X125317665Y-67274796D01*
X125272869Y-67120607D01*
X125238869Y-67063117D01*
X125221688Y-66995398D01*
X125238869Y-66936882D01*
X125272869Y-66879393D01*
X125277105Y-66864815D01*
X125317664Y-66725208D01*
X125317665Y-66725202D01*
X125320499Y-66689188D01*
X125320500Y-66689181D01*
X125320499Y-66290820D01*
X125317665Y-66254796D01*
X125272869Y-66100607D01*
X125191135Y-65962402D01*
X125191133Y-65962400D01*
X125191130Y-65962396D01*
X125161819Y-65933085D01*
X125128334Y-65871762D01*
X125125500Y-65845404D01*
X125125500Y-65698687D01*
X125145185Y-65631648D01*
X125157350Y-65615715D01*
X125175891Y-65595122D01*
X125232533Y-65532216D01*
X125327179Y-65368284D01*
X125385674Y-65188256D01*
X125405460Y-65000000D01*
X125385674Y-64811744D01*
X125327179Y-64631716D01*
X125232533Y-64467784D01*
X125188590Y-64418980D01*
X125157350Y-64384284D01*
X125127120Y-64321292D01*
X125125500Y-64301312D01*
X125125500Y-64162148D01*
X125145185Y-64095109D01*
X125197989Y-64049354D01*
X125217408Y-64042373D01*
X125249415Y-64033797D01*
X125323663Y-64013903D01*
X125537830Y-63914035D01*
X125731401Y-63778495D01*
X125898495Y-63611401D01*
X126034035Y-63417830D01*
X126133903Y-63203663D01*
X126195063Y-62975408D01*
X126215659Y-62740000D01*
X126195063Y-62504592D01*
X126133903Y-62276337D01*
X126034035Y-62062171D01*
X126028425Y-62054158D01*
X125898494Y-61868597D01*
X125731402Y-61701506D01*
X125731396Y-61701501D01*
X125545842Y-61571575D01*
X125502217Y-61516998D01*
X125495023Y-61447500D01*
X125526546Y-61385145D01*
X125545842Y-61368425D01*
X125658054Y-61289853D01*
X125731401Y-61238495D01*
X125898495Y-61071401D01*
X126028425Y-60885842D01*
X126083002Y-60842217D01*
X126152500Y-60835023D01*
X126214855Y-60866546D01*
X126231575Y-60885842D01*
X126361500Y-61071395D01*
X126361505Y-61071401D01*
X126528599Y-61238495D01*
X126601946Y-61289853D01*
X126722165Y-61374032D01*
X126722167Y-61374033D01*
X126722170Y-61374035D01*
X126936337Y-61473903D01*
X127164592Y-61535063D01*
X127352918Y-61551539D01*
X127399999Y-61555659D01*
X127400000Y-61555659D01*
X127400001Y-61555659D01*
X127439234Y-61552226D01*
X127635408Y-61535063D01*
X127863663Y-61473903D01*
X128077830Y-61374035D01*
X128271401Y-61238495D01*
X128438495Y-61071401D01*
X128568425Y-60885842D01*
X128623002Y-60842217D01*
X128692500Y-60835023D01*
X128754855Y-60866546D01*
G37*
%TD.AperFunction*%
%TA.AperFunction,Conductor*%
G36*
X146534855Y-60866546D02*
G01*
X146551575Y-60885842D01*
X146681500Y-61071395D01*
X146681505Y-61071401D01*
X146848599Y-61238495D01*
X146921946Y-61289853D01*
X147042165Y-61374032D01*
X147042167Y-61374033D01*
X147042170Y-61374035D01*
X147256337Y-61473903D01*
X147484592Y-61535063D01*
X147672918Y-61551539D01*
X147719999Y-61555659D01*
X147720000Y-61555659D01*
X147720001Y-61555659D01*
X147759234Y-61552226D01*
X147955408Y-61535063D01*
X148183663Y-61473903D01*
X148283098Y-61427535D01*
X148352172Y-61417044D01*
X148415956Y-61445563D01*
X148454196Y-61504040D01*
X148459500Y-61539918D01*
X148459500Y-63604547D01*
X148439815Y-63671586D01*
X148423181Y-63692228D01*
X148052229Y-64063181D01*
X147990906Y-64096666D01*
X147964548Y-64099500D01*
X147905354Y-64099500D01*
X147872897Y-64106398D01*
X147720197Y-64138855D01*
X147720192Y-64138857D01*
X147547270Y-64215848D01*
X147547265Y-64215851D01*
X147394129Y-64327111D01*
X147267466Y-64467785D01*
X147172821Y-64631715D01*
X147172818Y-64631722D01*
X147135361Y-64747005D01*
X147114326Y-64811744D01*
X147098448Y-64962819D01*
X147096679Y-64979649D01*
X147070094Y-65044263D01*
X147061040Y-65054367D01*
X147014146Y-65101261D01*
X147014140Y-65101269D01*
X146945690Y-65203708D01*
X146945688Y-65203713D01*
X146928302Y-65245688D01*
X146928302Y-65245689D01*
X146898538Y-65317545D01*
X146898535Y-65317555D01*
X146874500Y-65438389D01*
X146874500Y-65845404D01*
X146854815Y-65912443D01*
X146838181Y-65933085D01*
X146808869Y-65962396D01*
X146808863Y-65962404D01*
X146727131Y-66100606D01*
X146727129Y-66100611D01*
X146682335Y-66254791D01*
X146682334Y-66254797D01*
X146679500Y-66290811D01*
X146679500Y-66689169D01*
X146679501Y-66689191D01*
X146682334Y-66725201D01*
X146682335Y-66725203D01*
X146682335Y-66725204D01*
X146682536Y-66725899D01*
X146682535Y-66726305D01*
X146683473Y-66731437D01*
X146682521Y-66731610D01*
X146682342Y-66795767D01*
X146644404Y-66854439D01*
X146580768Y-66883287D01*
X146563463Y-66884500D01*
X138559405Y-66884500D01*
X138492366Y-66864815D01*
X138446611Y-66812011D01*
X138441474Y-66798818D01*
X138387181Y-66631721D01*
X138387178Y-66631715D01*
X138375507Y-66611500D01*
X138359034Y-66543600D01*
X138381887Y-66477573D01*
X138436808Y-66434382D01*
X138482894Y-66425500D01*
X142061607Y-66425500D01*
X142122029Y-66413481D01*
X142182452Y-66401463D01*
X142182455Y-66401461D01*
X142182458Y-66401461D01*
X142215787Y-66387654D01*
X142215786Y-66387654D01*
X142215792Y-66387652D01*
X142296286Y-66354312D01*
X142351304Y-66317549D01*
X142398733Y-66285858D01*
X142485858Y-66198733D01*
X142485858Y-66198731D01*
X142496066Y-66188524D01*
X142496068Y-66188521D01*
X144629712Y-64054876D01*
X144691033Y-64021393D01*
X144749481Y-64022783D01*
X144944592Y-64075063D01*
X145121034Y-64090500D01*
X145179999Y-64095659D01*
X145180000Y-64095659D01*
X145180001Y-64095659D01*
X145238966Y-64090500D01*
X145415408Y-64075063D01*
X145643663Y-64013903D01*
X145857830Y-63914035D01*
X146051401Y-63778495D01*
X146218495Y-63611401D01*
X146354035Y-63417830D01*
X146453903Y-63203663D01*
X146515063Y-62975408D01*
X146535659Y-62740000D01*
X146515063Y-62504592D01*
X146453903Y-62276337D01*
X146354035Y-62062171D01*
X146348425Y-62054158D01*
X146218494Y-61868597D01*
X146051402Y-61701506D01*
X146051396Y-61701501D01*
X145865842Y-61571575D01*
X145822217Y-61516998D01*
X145815023Y-61447500D01*
X145846546Y-61385145D01*
X145865842Y-61368425D01*
X145978054Y-61289853D01*
X146051401Y-61238495D01*
X146218495Y-61071401D01*
X146348425Y-60885842D01*
X146403002Y-60842217D01*
X146472500Y-60835023D01*
X146534855Y-60866546D01*
G37*
%TD.AperFunction*%
%TA.AperFunction,Conductor*%
G36*
X167943039Y-58019685D02*
G01*
X167988794Y-58072489D01*
X168000000Y-58124000D01*
X168000000Y-111876000D01*
X167980315Y-111943039D01*
X167927511Y-111988794D01*
X167876000Y-112000000D01*
X114124000Y-112000000D01*
X114056961Y-111980315D01*
X114011206Y-111927511D01*
X114000000Y-111876000D01*
X114000000Y-99909298D01*
X115799500Y-99909298D01*
X115799500Y-101215701D01*
X115802401Y-101252567D01*
X115802402Y-101252573D01*
X115848254Y-101410393D01*
X115848255Y-101410396D01*
X115848256Y-101410398D01*
X115931918Y-101551864D01*
X115931923Y-101551870D01*
X116048129Y-101668076D01*
X116048133Y-101668079D01*
X116048135Y-101668081D01*
X116189602Y-101751744D01*
X116231224Y-101763836D01*
X116347426Y-101797597D01*
X116347429Y-101797597D01*
X116347431Y-101797598D01*
X116384306Y-101800500D01*
X116625500Y-101800500D01*
X116692539Y-101820185D01*
X116738294Y-101872989D01*
X116749500Y-101924500D01*
X116749500Y-103090701D01*
X116752401Y-103127567D01*
X116752402Y-103127573D01*
X116798254Y-103285393D01*
X116798255Y-103285396D01*
X116798256Y-103285398D01*
X116822980Y-103327204D01*
X116881463Y-103426095D01*
X116881919Y-103426865D01*
X116888179Y-103433125D01*
X116921665Y-103494445D01*
X116924500Y-103520808D01*
X116924500Y-106187770D01*
X116904815Y-106254809D01*
X116888181Y-106275451D01*
X116807289Y-106356342D01*
X116715187Y-106505663D01*
X116715186Y-106505666D01*
X116660001Y-106672203D01*
X116660001Y-106672204D01*
X116660000Y-106672204D01*
X116649500Y-106774983D01*
X116649500Y-108125001D01*
X116649501Y-108125018D01*
X116660000Y-108227796D01*
X116660001Y-108227799D01*
X116715185Y-108394331D01*
X116715187Y-108394336D01*
X116729373Y-108417335D01*
X116807288Y-108543656D01*
X116931344Y-108667712D01*
X117080666Y-108759814D01*
X117247203Y-108814999D01*
X117349991Y-108825500D01*
X118150008Y-108825499D01*
X118173864Y-108823062D01*
X118242557Y-108835831D01*
X118274147Y-108858739D01*
X118478263Y-109062855D01*
X118478267Y-109062858D01*
X118580710Y-109131309D01*
X118580711Y-109131309D01*
X118580715Y-109131312D01*
X118647396Y-109158931D01*
X118647398Y-109158933D01*
X118694541Y-109178460D01*
X118694548Y-109178463D01*
X118714597Y-109182451D01*
X118748196Y-109189134D01*
X118815392Y-109202501D01*
X118815394Y-109202501D01*
X118944721Y-109202501D01*
X118944741Y-109202500D01*
X125284608Y-109202500D01*
X125284608Y-109202499D01*
X125385402Y-109182451D01*
X125385403Y-109182451D01*
X125405447Y-109178464D01*
X125405447Y-109178463D01*
X125405452Y-109178463D01*
X125405457Y-109178460D01*
X125405460Y-109178460D01*
X125438787Y-109164654D01*
X125438786Y-109164654D01*
X125438792Y-109164652D01*
X125519286Y-109131312D01*
X125570509Y-109097084D01*
X125621733Y-109062858D01*
X125708858Y-108975733D01*
X125708858Y-108975731D01*
X125719066Y-108965524D01*
X125719068Y-108965521D01*
X125725851Y-108958737D01*
X125787172Y-108925254D01*
X125826130Y-108923062D01*
X125849991Y-108925500D01*
X126650008Y-108925499D01*
X126673864Y-108923062D01*
X126742557Y-108935831D01*
X126774147Y-108958739D01*
X127301263Y-109485855D01*
X127301267Y-109485858D01*
X127403710Y-109554309D01*
X127403711Y-109554309D01*
X127403715Y-109554312D01*
X127470396Y-109581931D01*
X127470398Y-109581933D01*
X127517543Y-109601461D01*
X127517548Y-109601463D01*
X127537597Y-109605451D01*
X127571196Y-109612134D01*
X127638392Y-109625501D01*
X127638394Y-109625501D01*
X127767721Y-109625501D01*
X127767741Y-109625500D01*
X133111607Y-109625500D01*
X133172029Y-109613481D01*
X133232452Y-109601463D01*
X133232455Y-109601461D01*
X133232458Y-109601461D01*
X133265787Y-109587654D01*
X133265786Y-109587654D01*
X133265792Y-109587652D01*
X133346286Y-109554312D01*
X133397509Y-109520084D01*
X133448733Y-109485858D01*
X133535858Y-109398733D01*
X133535858Y-109398731D01*
X133546066Y-109388524D01*
X133546067Y-109388521D01*
X133975852Y-108958737D01*
X134037173Y-108925254D01*
X134076130Y-108923062D01*
X134099991Y-108925500D01*
X134900008Y-108925499D01*
X134923864Y-108923062D01*
X134992557Y-108935831D01*
X135024147Y-108958739D01*
X135228263Y-109162855D01*
X135228267Y-109162858D01*
X135330710Y-109231309D01*
X135330711Y-109231309D01*
X135330715Y-109231312D01*
X135397396Y-109258931D01*
X135397398Y-109258933D01*
X135444543Y-109278461D01*
X135444548Y-109278463D01*
X135464597Y-109282451D01*
X135498196Y-109289134D01*
X135565392Y-109302501D01*
X135565394Y-109302501D01*
X135694721Y-109302501D01*
X135694741Y-109302500D01*
X141934607Y-109302500D01*
X141995029Y-109290481D01*
X142055452Y-109278463D01*
X142055455Y-109278461D01*
X142055458Y-109278461D01*
X142088787Y-109264654D01*
X142088786Y-109264654D01*
X142088792Y-109264652D01*
X142169286Y-109231312D01*
X142220509Y-109197084D01*
X142271733Y-109162858D01*
X142358858Y-109075733D01*
X142358858Y-109075731D01*
X142369066Y-109065524D01*
X142369068Y-109065521D01*
X142475851Y-108958737D01*
X142537172Y-108925254D01*
X142576130Y-108923062D01*
X142599991Y-108925500D01*
X143400008Y-108925499D01*
X143400016Y-108925498D01*
X143400019Y-108925498D01*
X143456302Y-108919748D01*
X143502797Y-108914999D01*
X143669334Y-108859814D01*
X143818656Y-108767712D01*
X143942712Y-108643656D01*
X143982310Y-108579456D01*
X144034258Y-108532732D01*
X144103220Y-108521509D01*
X144167303Y-108549352D01*
X144175530Y-108556872D01*
X144283072Y-108664414D01*
X144423212Y-108766232D01*
X144577555Y-108844873D01*
X144742299Y-108898402D01*
X144913389Y-108925500D01*
X144913390Y-108925500D01*
X145086610Y-108925500D01*
X145086611Y-108925500D01*
X145257701Y-108898402D01*
X145422445Y-108844873D01*
X145576788Y-108766232D01*
X145716928Y-108664414D01*
X145839414Y-108541928D01*
X145941232Y-108401788D01*
X146019873Y-108247445D01*
X146073402Y-108082701D01*
X146100500Y-107911611D01*
X146100500Y-107499999D01*
X154319464Y-107499999D01*
X154319464Y-107500000D01*
X154339564Y-107716918D01*
X154339564Y-107716920D01*
X154339565Y-107716923D01*
X154395974Y-107915180D01*
X154399184Y-107926462D01*
X154443361Y-108015181D01*
X154496288Y-108121472D01*
X154617877Y-108282483D01*
X154627574Y-108295323D01*
X154654982Y-108320309D01*
X154788568Y-108442088D01*
X154788575Y-108442092D01*
X154788576Y-108442093D01*
X154973786Y-108556770D01*
X154973792Y-108556773D01*
X154974048Y-108556872D01*
X155176931Y-108635470D01*
X155391074Y-108675500D01*
X155391076Y-108675500D01*
X155608924Y-108675500D01*
X155608926Y-108675500D01*
X155823069Y-108635470D01*
X156026210Y-108556772D01*
X156211432Y-108442088D01*
X156372427Y-108295322D01*
X156503712Y-108121472D01*
X156600817Y-107926459D01*
X156660435Y-107716923D01*
X156680536Y-107500000D01*
X156660435Y-107283077D01*
X156600817Y-107073541D01*
X156503712Y-106878528D01*
X156372427Y-106704678D01*
X156211432Y-106557912D01*
X156211428Y-106557909D01*
X156211423Y-106557906D01*
X156026213Y-106443229D01*
X156026207Y-106443226D01*
X155941113Y-106410260D01*
X155823069Y-106364530D01*
X155608926Y-106324500D01*
X155391074Y-106324500D01*
X155176931Y-106364530D01*
X155133896Y-106381202D01*
X154973792Y-106443226D01*
X154973786Y-106443229D01*
X154788576Y-106557906D01*
X154788566Y-106557913D01*
X154627574Y-106704676D01*
X154496288Y-106878527D01*
X154399184Y-107073537D01*
X154399183Y-107073541D01*
X154357964Y-107218413D01*
X154339564Y-107283081D01*
X154319464Y-107499999D01*
X146100500Y-107499999D01*
X146100500Y-107188389D01*
X146073402Y-107017299D01*
X146019873Y-106852555D01*
X145941232Y-106698212D01*
X145839414Y-106558072D01*
X145716928Y-106435586D01*
X145576788Y-106333768D01*
X145422445Y-106255127D01*
X145257701Y-106201598D01*
X145257699Y-106201597D01*
X145257698Y-106201597D01*
X145126271Y-106180781D01*
X145086611Y-106174500D01*
X144913389Y-106174500D01*
X144856359Y-106183532D01*
X144742297Y-106201598D01*
X144742290Y-106201599D01*
X144659000Y-106228662D01*
X144589159Y-106230657D01*
X144533002Y-106198412D01*
X144365928Y-106031338D01*
X144365925Y-106031334D01*
X144365925Y-106031335D01*
X144358858Y-106024268D01*
X144358858Y-106024267D01*
X144271733Y-105937142D01*
X144271732Y-105937141D01*
X144271731Y-105937140D01*
X144220509Y-105902915D01*
X144169290Y-105868691D01*
X144169286Y-105868688D01*
X144169281Y-105868686D01*
X144164895Y-105866869D01*
X144158116Y-105864061D01*
X144103713Y-105820222D01*
X144081647Y-105753928D01*
X144098925Y-105686229D01*
X144150061Y-105638617D01*
X144205568Y-105625500D01*
X158689548Y-105625500D01*
X158756587Y-105645185D01*
X158777229Y-105661819D01*
X159265875Y-106150465D01*
X159299360Y-106211788D01*
X159294376Y-106281480D01*
X159252504Y-106337413D01*
X159200980Y-106360034D01*
X159176942Y-106364527D01*
X159176933Y-106364529D01*
X159176931Y-106364530D01*
X159133896Y-106381202D01*
X158973792Y-106443226D01*
X158973786Y-106443229D01*
X158788576Y-106557906D01*
X158788566Y-106557913D01*
X158627574Y-106704676D01*
X158496288Y-106878527D01*
X158399184Y-107073537D01*
X158399183Y-107073541D01*
X158357964Y-107218413D01*
X158339564Y-107283081D01*
X158319464Y-107499999D01*
X158319464Y-107500000D01*
X158339564Y-107716918D01*
X158339564Y-107716920D01*
X158339565Y-107716923D01*
X158395974Y-107915180D01*
X158399184Y-107926462D01*
X158443361Y-108015181D01*
X158496288Y-108121472D01*
X158617877Y-108282483D01*
X158627574Y-108295323D01*
X158654982Y-108320309D01*
X158788568Y-108442088D01*
X158788575Y-108442092D01*
X158788576Y-108442093D01*
X158973786Y-108556770D01*
X158973792Y-108556773D01*
X158974048Y-108556872D01*
X159176931Y-108635470D01*
X159391074Y-108675500D01*
X159391076Y-108675500D01*
X159608924Y-108675500D01*
X159608926Y-108675500D01*
X159823069Y-108635470D01*
X160026210Y-108556772D01*
X160211432Y-108442088D01*
X160372427Y-108295322D01*
X160401047Y-108257422D01*
X160457153Y-108215787D01*
X160526865Y-108211094D01*
X160588048Y-108244836D01*
X160598946Y-108257414D01*
X160627573Y-108295322D01*
X160627576Y-108295325D01*
X160627578Y-108295327D01*
X160714427Y-108374500D01*
X160788568Y-108442088D01*
X160788575Y-108442092D01*
X160788576Y-108442093D01*
X160973786Y-108556770D01*
X160973792Y-108556773D01*
X160974048Y-108556872D01*
X161176931Y-108635470D01*
X161391074Y-108675500D01*
X161391076Y-108675500D01*
X161608924Y-108675500D01*
X161608926Y-108675500D01*
X161823069Y-108635470D01*
X162026210Y-108556772D01*
X162211432Y-108442088D01*
X162222407Y-108432082D01*
X162285207Y-108401463D01*
X162354594Y-108409657D01*
X162405214Y-108449405D01*
X162467452Y-108532544D01*
X162467455Y-108532547D01*
X162582664Y-108618793D01*
X162582671Y-108618797D01*
X162717517Y-108669091D01*
X162717516Y-108669091D01*
X162724444Y-108669835D01*
X162777127Y-108675500D01*
X164222872Y-108675499D01*
X164282483Y-108669091D01*
X164417331Y-108618796D01*
X164532546Y-108532546D01*
X164618796Y-108417331D01*
X164669091Y-108282483D01*
X164675500Y-108222873D01*
X164675499Y-106777128D01*
X164669091Y-106717517D01*
X164664302Y-106704678D01*
X164618797Y-106582671D01*
X164618793Y-106582664D01*
X164532547Y-106467455D01*
X164532544Y-106467452D01*
X164417335Y-106381206D01*
X164417328Y-106381202D01*
X164282482Y-106330908D01*
X164282483Y-106330908D01*
X164222883Y-106324501D01*
X164222881Y-106324500D01*
X164222873Y-106324500D01*
X164222864Y-106324500D01*
X162777129Y-106324500D01*
X162777123Y-106324501D01*
X162717516Y-106330908D01*
X162653037Y-106354958D01*
X162583345Y-106359942D01*
X162522023Y-106326457D01*
X157303904Y-101108338D01*
X157303901Y-101108334D01*
X157303901Y-101108335D01*
X157296834Y-101101268D01*
X157296834Y-101101267D01*
X157209709Y-101014142D01*
X157209708Y-101014141D01*
X157209707Y-101014140D01*
X157158485Y-100979915D01*
X157107263Y-100945689D01*
X157107262Y-100945688D01*
X157107259Y-100945686D01*
X157107256Y-100945685D01*
X157026768Y-100912347D01*
X156993429Y-100898537D01*
X156983403Y-100896543D01*
X156933005Y-100886518D01*
X156872586Y-100874500D01*
X156872583Y-100874500D01*
X156872582Y-100874500D01*
X156259500Y-100874500D01*
X156192461Y-100854815D01*
X156146706Y-100802011D01*
X156135500Y-100750500D01*
X156135500Y-100068741D01*
X156135501Y-100068720D01*
X156135501Y-99939391D01*
X156111464Y-99818555D01*
X156111463Y-99818549D01*
X156064312Y-99704715D01*
X155995858Y-99602267D01*
X155995855Y-99602263D01*
X153747428Y-97353838D01*
X153747426Y-97353835D01*
X152855725Y-96462135D01*
X160414500Y-96462135D01*
X160414500Y-97697870D01*
X160414501Y-97697876D01*
X160420908Y-97757483D01*
X160471202Y-97892328D01*
X160471206Y-97892335D01*
X160557452Y-98007544D01*
X160557455Y-98007547D01*
X160672664Y-98093793D01*
X160672671Y-98093797D01*
X160807517Y-98144091D01*
X160807516Y-98144091D01*
X160814444Y-98144835D01*
X160867127Y-98150500D01*
X162992872Y-98150499D01*
X163052483Y-98144091D01*
X163187331Y-98093796D01*
X163302546Y-98007546D01*
X163388796Y-97892331D01*
X163439091Y-97757483D01*
X163445500Y-97697873D01*
X163445499Y-96462128D01*
X163439091Y-96402517D01*
X163439090Y-96402515D01*
X163388797Y-96267671D01*
X163388793Y-96267664D01*
X163302547Y-96152455D01*
X163302544Y-96152452D01*
X163187335Y-96066206D01*
X163187328Y-96066202D01*
X163052482Y-96015908D01*
X163052483Y-96015908D01*
X162992883Y-96009501D01*
X162992881Y-96009500D01*
X162992873Y-96009500D01*
X162992864Y-96009500D01*
X160867129Y-96009500D01*
X160867123Y-96009501D01*
X160807516Y-96015908D01*
X160672671Y-96066202D01*
X160672664Y-96066206D01*
X160557455Y-96152452D01*
X160557452Y-96152455D01*
X160471206Y-96267664D01*
X160471202Y-96267671D01*
X160420908Y-96402517D01*
X160414501Y-96462116D01*
X160414501Y-96462123D01*
X160414500Y-96462135D01*
X152855725Y-96462135D01*
X152259928Y-95866338D01*
X152259925Y-95866334D01*
X152259925Y-95866335D01*
X152252858Y-95859268D01*
X152252858Y-95859267D01*
X152165733Y-95772142D01*
X152165732Y-95772141D01*
X152165731Y-95772140D01*
X152114509Y-95737915D01*
X152063286Y-95703688D01*
X152063283Y-95703686D01*
X152063282Y-95703686D01*
X152063281Y-95703685D01*
X151960575Y-95661144D01*
X151960574Y-95661143D01*
X151949456Y-95656538D01*
X151943620Y-95654768D01*
X151944202Y-95652846D01*
X151890452Y-95624719D01*
X151855888Y-95563998D01*
X151859639Y-95494229D01*
X151877298Y-95461197D01*
X151958796Y-95352331D01*
X152009091Y-95217483D01*
X152015500Y-95157873D01*
X152015499Y-93922135D01*
X160414500Y-93922135D01*
X160414500Y-95157870D01*
X160414501Y-95157876D01*
X160420908Y-95217483D01*
X160471202Y-95352328D01*
X160471206Y-95352335D01*
X160557452Y-95467544D01*
X160557455Y-95467547D01*
X160672664Y-95553793D01*
X160672671Y-95553797D01*
X160807517Y-95604091D01*
X160807516Y-95604091D01*
X160814444Y-95604835D01*
X160867127Y-95610500D01*
X162992872Y-95610499D01*
X163052483Y-95604091D01*
X163187331Y-95553796D01*
X163302546Y-95467546D01*
X163388796Y-95352331D01*
X163439091Y-95217483D01*
X163445500Y-95157873D01*
X163445499Y-93922128D01*
X163439091Y-93862517D01*
X163391933Y-93736081D01*
X163388797Y-93727671D01*
X163388793Y-93727664D01*
X163302547Y-93612455D01*
X163302544Y-93612452D01*
X163187335Y-93526206D01*
X163187328Y-93526202D01*
X163052482Y-93475908D01*
X163052483Y-93475908D01*
X162992883Y-93469501D01*
X162992881Y-93469500D01*
X162992873Y-93469500D01*
X162992864Y-93469500D01*
X160867129Y-93469500D01*
X160867123Y-93469501D01*
X160807516Y-93475908D01*
X160672671Y-93526202D01*
X160672664Y-93526206D01*
X160557455Y-93612452D01*
X160557452Y-93612455D01*
X160471206Y-93727664D01*
X160471202Y-93727671D01*
X160420908Y-93862517D01*
X160415354Y-93914184D01*
X160414501Y-93922123D01*
X160414500Y-93922135D01*
X152015499Y-93922135D01*
X152015499Y-93922128D01*
X152009091Y-93862517D01*
X151961933Y-93736081D01*
X151958797Y-93727671D01*
X151958793Y-93727664D01*
X151872547Y-93612455D01*
X151872544Y-93612452D01*
X151757335Y-93526206D01*
X151757328Y-93526202D01*
X151622482Y-93475908D01*
X151622483Y-93475908D01*
X151562883Y-93469501D01*
X151562881Y-93469500D01*
X151562873Y-93469500D01*
X151562864Y-93469500D01*
X149437129Y-93469500D01*
X149437123Y-93469501D01*
X149377516Y-93475908D01*
X149242671Y-93526202D01*
X149242664Y-93526206D01*
X149127455Y-93612452D01*
X149127452Y-93612455D01*
X149041206Y-93727664D01*
X149041202Y-93727671D01*
X149001607Y-93833833D01*
X148959736Y-93889767D01*
X148894272Y-93914184D01*
X148885425Y-93914500D01*
X147875758Y-93914500D01*
X147808719Y-93894815D01*
X147788077Y-93878181D01*
X147385804Y-93475908D01*
X146982075Y-93072180D01*
X146948591Y-93010858D01*
X146953575Y-92941167D01*
X146995447Y-92885233D01*
X147060911Y-92860816D01*
X147069757Y-92860500D01*
X147234682Y-92860500D01*
X147234690Y-92860500D01*
X147270993Y-92857643D01*
X147270995Y-92857642D01*
X147270997Y-92857642D01*
X147324330Y-92842147D01*
X147426395Y-92812494D01*
X147565687Y-92730117D01*
X147633986Y-92661817D01*
X147695307Y-92628334D01*
X147721666Y-92625500D01*
X148885425Y-92625500D01*
X148952464Y-92645185D01*
X148998219Y-92697989D01*
X149001607Y-92706167D01*
X149041202Y-92812328D01*
X149041206Y-92812335D01*
X149127452Y-92927544D01*
X149127455Y-92927547D01*
X149242664Y-93013793D01*
X149242671Y-93013797D01*
X149377517Y-93064091D01*
X149377516Y-93064091D01*
X149384444Y-93064835D01*
X149437127Y-93070500D01*
X151562872Y-93070499D01*
X151622483Y-93064091D01*
X151757331Y-93013796D01*
X151872546Y-92927546D01*
X151958796Y-92812331D01*
X152009091Y-92677483D01*
X152009091Y-92677481D01*
X152010874Y-92669938D01*
X152012130Y-92670234D01*
X152035809Y-92613057D01*
X152084913Y-92576294D01*
X152137986Y-92554312D01*
X152189209Y-92520084D01*
X152240433Y-92485858D01*
X152327558Y-92398733D01*
X152327558Y-92398731D01*
X152337766Y-92388524D01*
X152337767Y-92388521D01*
X153344153Y-91382135D01*
X160414500Y-91382135D01*
X160414500Y-92617870D01*
X160414501Y-92617876D01*
X160420908Y-92677483D01*
X160471202Y-92812328D01*
X160471206Y-92812335D01*
X160557452Y-92927544D01*
X160557455Y-92927547D01*
X160672664Y-93013793D01*
X160672671Y-93013797D01*
X160807517Y-93064091D01*
X160807516Y-93064091D01*
X160814444Y-93064835D01*
X160867127Y-93070500D01*
X162992872Y-93070499D01*
X163052483Y-93064091D01*
X163187331Y-93013796D01*
X163302546Y-92927546D01*
X163388796Y-92812331D01*
X163439091Y-92677483D01*
X163445500Y-92617873D01*
X163445499Y-91382128D01*
X163439091Y-91322517D01*
X163431571Y-91302356D01*
X163388797Y-91187671D01*
X163388793Y-91187664D01*
X163302547Y-91072455D01*
X163302544Y-91072452D01*
X163187335Y-90986206D01*
X163187328Y-90986202D01*
X163052482Y-90935908D01*
X163052483Y-90935908D01*
X162992883Y-90929501D01*
X162992881Y-90929500D01*
X162992873Y-90929500D01*
X162992864Y-90929500D01*
X160867129Y-90929500D01*
X160867123Y-90929501D01*
X160807516Y-90935908D01*
X160672671Y-90986202D01*
X160672664Y-90986206D01*
X160557455Y-91072452D01*
X160557452Y-91072455D01*
X160471206Y-91187664D01*
X160471202Y-91187671D01*
X160420908Y-91322517D01*
X160415929Y-91368835D01*
X160414501Y-91382123D01*
X160414500Y-91382135D01*
X153344153Y-91382135D01*
X155884154Y-88842135D01*
X160414500Y-88842135D01*
X160414500Y-90077870D01*
X160414501Y-90077876D01*
X160420908Y-90137483D01*
X160471202Y-90272328D01*
X160471206Y-90272335D01*
X160557452Y-90387544D01*
X160557455Y-90387547D01*
X160672664Y-90473793D01*
X160672671Y-90473797D01*
X160807517Y-90524091D01*
X160807516Y-90524091D01*
X160814444Y-90524835D01*
X160867127Y-90530500D01*
X162992872Y-90530499D01*
X163052483Y-90524091D01*
X163187331Y-90473796D01*
X163302546Y-90387546D01*
X163388796Y-90272331D01*
X163439091Y-90137483D01*
X163445500Y-90077873D01*
X163445499Y-88842128D01*
X163439091Y-88782517D01*
X163425267Y-88745454D01*
X163388797Y-88647671D01*
X163388793Y-88647664D01*
X163302547Y-88532455D01*
X163302544Y-88532452D01*
X163187335Y-88446206D01*
X163187328Y-88446202D01*
X163052482Y-88395908D01*
X163052483Y-88395908D01*
X162992883Y-88389501D01*
X162992881Y-88389500D01*
X162992873Y-88389500D01*
X162992864Y-88389500D01*
X160867129Y-88389500D01*
X160867123Y-88389501D01*
X160807516Y-88395908D01*
X160672671Y-88446202D01*
X160672664Y-88446206D01*
X160557455Y-88532452D01*
X160557452Y-88532455D01*
X160471206Y-88647664D01*
X160471202Y-88647671D01*
X160420908Y-88782517D01*
X160414501Y-88842116D01*
X160414501Y-88842123D01*
X160414500Y-88842135D01*
X155884154Y-88842135D01*
X159815857Y-84910434D01*
X159884311Y-84807986D01*
X159931463Y-84694152D01*
X159955500Y-84573307D01*
X159955500Y-84450094D01*
X159955500Y-83564878D01*
X159975185Y-83497839D01*
X159979480Y-83491763D01*
X159980115Y-83490688D01*
X159980117Y-83490687D01*
X160062494Y-83351395D01*
X160107643Y-83195993D01*
X160110500Y-83159690D01*
X160110500Y-82690310D01*
X160107643Y-82654007D01*
X160062494Y-82498605D01*
X159980117Y-82359313D01*
X159976146Y-82352598D01*
X159977789Y-82351626D01*
X159955984Y-82296070D01*
X159955500Y-82285121D01*
X159955500Y-81409639D01*
X159975185Y-81342600D01*
X160024305Y-81300036D01*
X160023991Y-81299477D01*
X160026726Y-81297938D01*
X160027989Y-81296845D01*
X160030791Y-81295653D01*
X160031375Y-81295324D01*
X160031384Y-81295321D01*
X160150212Y-81205212D01*
X160240321Y-81086384D01*
X160295030Y-80947652D01*
X160305500Y-80860468D01*
X160305500Y-78889532D01*
X160295030Y-78802348D01*
X160267373Y-78732216D01*
X160240322Y-78663619D01*
X160240321Y-78663616D01*
X160237649Y-78660093D01*
X160184727Y-78590304D01*
X160150212Y-78544788D01*
X160065076Y-78480228D01*
X160031386Y-78454680D01*
X160031380Y-78454677D01*
X159892657Y-78399971D01*
X159892649Y-78399969D01*
X159805469Y-78389500D01*
X159805468Y-78389500D01*
X159204532Y-78389500D01*
X159204531Y-78389500D01*
X159117350Y-78399969D01*
X159117342Y-78399971D01*
X158978619Y-78454677D01*
X158978613Y-78454680D01*
X158859788Y-78544788D01*
X158769680Y-78663613D01*
X158769677Y-78663619D01*
X158714971Y-78802342D01*
X158714969Y-78802350D01*
X158704500Y-78889531D01*
X158704500Y-82285121D01*
X158684815Y-82352160D01*
X158680518Y-82358237D01*
X158597505Y-82498606D01*
X158597504Y-82498609D01*
X158552357Y-82654002D01*
X158552356Y-82654008D01*
X158549500Y-82690302D01*
X158549500Y-83159697D01*
X158552356Y-83195991D01*
X158552357Y-83195997D01*
X158597504Y-83351390D01*
X158597505Y-83351393D01*
X158683854Y-83497402D01*
X158682208Y-83498375D01*
X158704014Y-83553915D01*
X158704500Y-83564878D01*
X158704500Y-84201247D01*
X158684815Y-84268286D01*
X158668181Y-84288928D01*
X151955447Y-91001661D01*
X151894124Y-91035146D01*
X151824432Y-91030162D01*
X151793454Y-91013246D01*
X151757331Y-90986204D01*
X151757328Y-90986202D01*
X151622482Y-90935908D01*
X151622483Y-90935908D01*
X151562883Y-90929501D01*
X151562881Y-90929500D01*
X151562873Y-90929500D01*
X151562864Y-90929500D01*
X149437129Y-90929500D01*
X149437123Y-90929501D01*
X149377516Y-90935908D01*
X149242671Y-90986202D01*
X149242664Y-90986206D01*
X149127455Y-91072452D01*
X149127452Y-91072455D01*
X149041206Y-91187664D01*
X149041202Y-91187671D01*
X149001607Y-91293833D01*
X148959736Y-91349767D01*
X148894272Y-91374184D01*
X148885425Y-91374500D01*
X147505962Y-91374500D01*
X147442841Y-91357232D01*
X147426395Y-91347506D01*
X147426393Y-91347505D01*
X147426391Y-91347504D01*
X147270997Y-91302357D01*
X147270991Y-91302356D01*
X147234697Y-91299500D01*
X147234690Y-91299500D01*
X146765310Y-91299500D01*
X146765302Y-91299500D01*
X146729008Y-91302356D01*
X146729002Y-91302357D01*
X146573609Y-91347504D01*
X146573606Y-91347505D01*
X146427598Y-91433854D01*
X146426624Y-91432208D01*
X146371085Y-91454014D01*
X146360122Y-91454500D01*
X146160458Y-91454500D01*
X146093419Y-91434815D01*
X146072776Y-91418180D01*
X142235606Y-87580917D01*
X142235548Y-87580853D01*
X142200978Y-87546286D01*
X142200977Y-87546285D01*
X142144134Y-87489442D01*
X142144133Y-87489441D01*
X142140150Y-87485458D01*
X142140089Y-87485402D01*
X141346822Y-86692198D01*
X141313335Y-86630876D01*
X141310500Y-86604513D01*
X141310500Y-86525317D01*
X141310499Y-86525302D01*
X141310323Y-86523068D01*
X141307643Y-86489007D01*
X141262494Y-86333605D01*
X141180117Y-86194313D01*
X141180115Y-86194311D01*
X141180112Y-86194307D01*
X141065692Y-86079887D01*
X141065684Y-86079881D01*
X140926393Y-85997505D01*
X140926390Y-85997504D01*
X140770997Y-85952357D01*
X140770991Y-85952356D01*
X140734697Y-85949500D01*
X140734690Y-85949500D01*
X140265310Y-85949500D01*
X140265302Y-85949500D01*
X140229008Y-85952356D01*
X140229002Y-85952357D01*
X140073609Y-85997504D01*
X140073606Y-85997505D01*
X139934315Y-86079881D01*
X139934307Y-86079887D01*
X139819887Y-86194307D01*
X139819881Y-86194315D01*
X139737505Y-86333606D01*
X139737504Y-86333609D01*
X139692357Y-86489002D01*
X139692356Y-86489008D01*
X139690687Y-86510228D01*
X139665804Y-86575516D01*
X139609573Y-86616988D01*
X139567069Y-86624500D01*
X138998192Y-86624500D01*
X138931153Y-86604815D01*
X138885398Y-86552011D01*
X138877420Y-86522939D01*
X138876876Y-86523068D01*
X138875092Y-86515520D01*
X138875089Y-86515513D01*
X138824796Y-86380669D01*
X138824795Y-86380668D01*
X138824793Y-86380664D01*
X138738547Y-86265455D01*
X138738544Y-86265452D01*
X138623335Y-86179206D01*
X138623328Y-86179202D01*
X138488482Y-86128908D01*
X138488483Y-86128908D01*
X138428883Y-86122501D01*
X138428881Y-86122500D01*
X138428873Y-86122500D01*
X138428864Y-86122500D01*
X137571129Y-86122500D01*
X137571123Y-86122501D01*
X137511516Y-86128908D01*
X137376671Y-86179202D01*
X137376664Y-86179206D01*
X137261455Y-86265452D01*
X137261452Y-86265455D01*
X137175206Y-86380664D01*
X137175202Y-86380671D01*
X137124910Y-86515513D01*
X137124909Y-86515517D01*
X137118500Y-86575127D01*
X137118500Y-86575134D01*
X137118500Y-86575135D01*
X137118500Y-86924869D01*
X137118501Y-86924879D01*
X137125152Y-86986752D01*
X137125152Y-87013258D01*
X137124909Y-87015517D01*
X137124909Y-87015518D01*
X137118500Y-87075128D01*
X137118500Y-87075129D01*
X137118500Y-87075133D01*
X137118500Y-87339447D01*
X137098815Y-87406486D01*
X137082181Y-87427128D01*
X133437181Y-91072128D01*
X133375858Y-91105613D01*
X133306166Y-91100629D01*
X133250233Y-91058757D01*
X133225816Y-90993293D01*
X133225500Y-90984447D01*
X133225500Y-87375523D01*
X133245185Y-87308484D01*
X133297989Y-87262729D01*
X133367147Y-87252785D01*
X133430703Y-87281810D01*
X133452597Y-87306626D01*
X133462064Y-87320793D01*
X133462065Y-87320796D01*
X133462066Y-87320796D01*
X133514140Y-87398731D01*
X133514141Y-87398732D01*
X133514142Y-87398733D01*
X133601267Y-87485858D01*
X133601269Y-87485859D01*
X133851266Y-87735857D01*
X133953714Y-87804311D01*
X133953715Y-87804311D01*
X133953716Y-87804312D01*
X133969447Y-87810828D01*
X134067548Y-87851463D01*
X134166232Y-87871092D01*
X134188388Y-87875499D01*
X134188392Y-87875500D01*
X134188393Y-87875500D01*
X134188394Y-87875500D01*
X135107473Y-87875500D01*
X135120728Y-87876210D01*
X135132727Y-87877501D01*
X135990472Y-87877500D01*
X136050083Y-87871092D01*
X136184931Y-87820797D01*
X136300146Y-87734547D01*
X136386396Y-87619332D01*
X136436691Y-87484484D01*
X136443100Y-87424874D01*
X136443099Y-87075129D01*
X136436691Y-87015518D01*
X136436690Y-87015516D01*
X136436447Y-87013251D01*
X136436448Y-86986741D01*
X136442085Y-86934313D01*
X136443100Y-86924873D01*
X136443099Y-86575128D01*
X136436691Y-86515517D01*
X136434718Y-86510228D01*
X136386397Y-86380671D01*
X136386395Y-86380668D01*
X136351167Y-86333609D01*
X136344205Y-86324309D01*
X136319788Y-86258847D01*
X136334639Y-86190573D01*
X136344199Y-86175697D01*
X136386396Y-86119330D01*
X136436691Y-85984482D01*
X136443100Y-85924872D01*
X136443099Y-85575127D01*
X136436691Y-85515516D01*
X136386396Y-85380668D01*
X136386395Y-85380667D01*
X136386393Y-85380663D01*
X136300148Y-85265456D01*
X136300146Y-85265453D01*
X136236788Y-85218022D01*
X136194918Y-85162090D01*
X136187100Y-85118757D01*
X136187100Y-84181261D01*
X136206785Y-84114222D01*
X136259589Y-84068467D01*
X136273829Y-84063769D01*
X136273628Y-84063150D01*
X136279799Y-84061144D01*
X136279803Y-84061144D01*
X136279806Y-84061142D01*
X136279808Y-84061142D01*
X136401797Y-84006828D01*
X136452730Y-83984151D01*
X136605871Y-83872888D01*
X136732533Y-83732216D01*
X136827179Y-83568284D01*
X136885674Y-83388256D01*
X136905460Y-83200000D01*
X136885674Y-83011744D01*
X136827179Y-82831716D01*
X136732533Y-82667784D01*
X136686267Y-82616400D01*
X136649690Y-82575777D01*
X136619460Y-82512785D01*
X136628086Y-82443450D01*
X136654156Y-82405127D01*
X137997466Y-81061819D01*
X138058789Y-81028334D01*
X138085147Y-81025500D01*
X138261607Y-81025500D01*
X138322029Y-81013481D01*
X138382452Y-81001463D01*
X138382455Y-81001461D01*
X138382458Y-81001461D01*
X138415787Y-80987654D01*
X138415786Y-80987654D01*
X138415792Y-80987652D01*
X138496286Y-80954312D01*
X138547509Y-80920084D01*
X138598733Y-80885858D01*
X138685858Y-80798733D01*
X138685858Y-80798731D01*
X138696066Y-80788524D01*
X138696068Y-80788521D01*
X140837868Y-78646720D01*
X140899189Y-78613237D01*
X140968881Y-78618221D01*
X141024814Y-78660093D01*
X141032934Y-78672403D01*
X141067467Y-78732216D01*
X141152955Y-78827160D01*
X141194129Y-78872888D01*
X141347265Y-78984148D01*
X141347270Y-78984151D01*
X141520192Y-79061142D01*
X141520197Y-79061144D01*
X141705354Y-79100500D01*
X141705355Y-79100500D01*
X141894644Y-79100500D01*
X141894646Y-79100500D01*
X142079803Y-79061144D01*
X142252730Y-78984151D01*
X142382964Y-78889531D01*
X154894500Y-78889531D01*
X154894500Y-80860468D01*
X154904969Y-80947649D01*
X154904971Y-80947657D01*
X154959677Y-81086380D01*
X154959680Y-81086386D01*
X154996193Y-81134535D01*
X155049788Y-81205212D01*
X155168616Y-81295321D01*
X155214860Y-81313557D01*
X155307342Y-81350028D01*
X155307344Y-81350028D01*
X155307348Y-81350030D01*
X155365470Y-81357010D01*
X155394531Y-81360500D01*
X155394532Y-81360500D01*
X155995469Y-81360500D01*
X156017264Y-81357882D01*
X156082652Y-81350030D01*
X156221384Y-81295321D01*
X156255074Y-81269772D01*
X156320385Y-81244949D01*
X156388749Y-81259376D01*
X156404925Y-81269772D01*
X156438616Y-81295321D01*
X156484860Y-81313557D01*
X156577342Y-81350028D01*
X156577344Y-81350028D01*
X156577348Y-81350030D01*
X156635470Y-81357010D01*
X156664531Y-81360500D01*
X156664532Y-81360500D01*
X157265469Y-81360500D01*
X157287264Y-81357882D01*
X157352652Y-81350030D01*
X157491384Y-81295321D01*
X157610212Y-81205212D01*
X157700321Y-81086384D01*
X157755030Y-80947652D01*
X157765500Y-80860468D01*
X157765500Y-78889532D01*
X157755030Y-78802348D01*
X157727373Y-78732216D01*
X157700322Y-78663619D01*
X157700321Y-78663616D01*
X157697649Y-78660093D01*
X157644727Y-78590304D01*
X157610212Y-78544788D01*
X157525076Y-78480228D01*
X157491386Y-78454680D01*
X157491380Y-78454677D01*
X157352657Y-78399971D01*
X157352649Y-78399969D01*
X157265469Y-78389500D01*
X157265468Y-78389500D01*
X156664532Y-78389500D01*
X156664531Y-78389500D01*
X156577350Y-78399969D01*
X156577342Y-78399971D01*
X156438619Y-78454677D01*
X156438614Y-78454680D01*
X156404923Y-78480228D01*
X156339611Y-78505050D01*
X156271248Y-78490621D01*
X156255077Y-78480228D01*
X156221385Y-78454680D01*
X156221386Y-78454680D01*
X156221384Y-78454679D01*
X156221382Y-78454678D01*
X156221380Y-78454677D01*
X156082657Y-78399971D01*
X156082649Y-78399969D01*
X155995469Y-78389500D01*
X155995468Y-78389500D01*
X155394532Y-78389500D01*
X155394531Y-78389500D01*
X155307350Y-78399969D01*
X155307342Y-78399971D01*
X155168619Y-78454677D01*
X155168613Y-78454680D01*
X155049788Y-78544788D01*
X154959680Y-78663613D01*
X154959677Y-78663619D01*
X154904971Y-78802342D01*
X154904969Y-78802350D01*
X154894500Y-78889531D01*
X142382964Y-78889531D01*
X142405871Y-78872888D01*
X142532533Y-78732216D01*
X142627179Y-78568284D01*
X142685674Y-78388256D01*
X142703321Y-78220345D01*
X142729905Y-78155732D01*
X142738952Y-78145636D01*
X147263324Y-73621267D01*
X147324647Y-73587782D01*
X147351005Y-73584948D01*
X156943995Y-73584948D01*
X157011034Y-73604633D01*
X157031676Y-73621267D01*
X157398181Y-73987772D01*
X157431666Y-74049095D01*
X157434500Y-74075453D01*
X157434500Y-75910468D01*
X157444969Y-75997649D01*
X157444971Y-75997657D01*
X157499677Y-76136380D01*
X157499680Y-76136386D01*
X157536193Y-76184535D01*
X157589788Y-76255212D01*
X157708616Y-76345321D01*
X157708619Y-76345322D01*
X157847342Y-76400028D01*
X157847344Y-76400028D01*
X157847348Y-76400030D01*
X157905470Y-76407010D01*
X157934531Y-76410500D01*
X157934532Y-76410500D01*
X158535469Y-76410500D01*
X158557264Y-76407882D01*
X158622652Y-76400030D01*
X158761384Y-76345321D01*
X158795074Y-76319772D01*
X158860385Y-76294949D01*
X158928749Y-76309376D01*
X158944925Y-76319772D01*
X158978616Y-76345321D01*
X158978619Y-76345322D01*
X159117342Y-76400028D01*
X159117344Y-76400028D01*
X159117348Y-76400030D01*
X159175470Y-76407010D01*
X159204531Y-76410500D01*
X159204532Y-76410500D01*
X159805469Y-76410500D01*
X159827264Y-76407882D01*
X159892652Y-76400030D01*
X160031384Y-76345321D01*
X160150212Y-76255212D01*
X160240321Y-76136384D01*
X160295030Y-75997652D01*
X160305500Y-75910468D01*
X160305500Y-73939532D01*
X160295030Y-73852348D01*
X160292205Y-73845185D01*
X160240322Y-73713619D01*
X160240321Y-73713616D01*
X160224321Y-73692517D01*
X160170291Y-73621267D01*
X160155695Y-73602019D01*
X160130873Y-73536708D01*
X160130500Y-73527095D01*
X160130500Y-73443394D01*
X160130499Y-73443388D01*
X160129726Y-73439503D01*
X160129722Y-73439486D01*
X160111900Y-73349883D01*
X160111900Y-73349882D01*
X160106464Y-73322554D01*
X160106463Y-73322548D01*
X160081220Y-73261606D01*
X160059312Y-73208715D01*
X160014667Y-73141900D01*
X159990858Y-73106267D01*
X159990856Y-73106264D01*
X159900637Y-73016045D01*
X159900606Y-73016016D01*
X155161819Y-68277229D01*
X155128334Y-68215906D01*
X155125500Y-68189548D01*
X155125500Y-65938393D01*
X155125499Y-65938389D01*
X155112246Y-65871762D01*
X155101463Y-65817548D01*
X155081007Y-65768163D01*
X155070341Y-65742413D01*
X155054313Y-65703716D01*
X155054312Y-65703715D01*
X155054312Y-65703714D01*
X155015938Y-65646285D01*
X154985858Y-65601267D01*
X154985856Y-65601264D01*
X154895637Y-65511045D01*
X154895606Y-65511016D01*
X153476922Y-64092332D01*
X153443437Y-64031009D01*
X153448421Y-63961317D01*
X153490293Y-63905384D01*
X153493449Y-63903098D01*
X153671401Y-63778495D01*
X153838495Y-63611401D01*
X153968425Y-63425842D01*
X154023002Y-63382217D01*
X154092500Y-63375023D01*
X154154855Y-63406546D01*
X154171575Y-63425842D01*
X154301500Y-63611395D01*
X154301505Y-63611401D01*
X154468599Y-63778495D01*
X154565384Y-63846265D01*
X154662165Y-63914032D01*
X154662167Y-63914033D01*
X154662170Y-63914035D01*
X154876337Y-64013903D01*
X154876343Y-64013904D01*
X154876344Y-64013905D01*
X154902592Y-64020938D01*
X155104592Y-64075063D01*
X155281034Y-64090500D01*
X155339999Y-64095659D01*
X155340000Y-64095659D01*
X155340001Y-64095659D01*
X155398966Y-64090500D01*
X155575408Y-64075063D01*
X155803663Y-64013903D01*
X156017830Y-63914035D01*
X156211401Y-63778495D01*
X156378495Y-63611401D01*
X156508425Y-63425842D01*
X156563002Y-63382217D01*
X156632500Y-63375023D01*
X156694855Y-63406546D01*
X156711575Y-63425842D01*
X156841500Y-63611395D01*
X156841505Y-63611401D01*
X157008599Y-63778495D01*
X157105384Y-63846265D01*
X157202165Y-63914032D01*
X157202167Y-63914033D01*
X157202170Y-63914035D01*
X157416337Y-64013903D01*
X157416343Y-64013904D01*
X157416344Y-64013905D01*
X157442592Y-64020938D01*
X157644592Y-64075063D01*
X157821034Y-64090500D01*
X157879999Y-64095659D01*
X157880000Y-64095659D01*
X157880001Y-64095659D01*
X157938966Y-64090500D01*
X158115408Y-64075063D01*
X158343663Y-64013903D01*
X158557830Y-63914035D01*
X158751401Y-63778495D01*
X158918495Y-63611401D01*
X159048425Y-63425842D01*
X159103002Y-63382217D01*
X159172500Y-63375023D01*
X159234855Y-63406546D01*
X159251575Y-63425842D01*
X159381500Y-63611395D01*
X159381505Y-63611401D01*
X159548599Y-63778495D01*
X159645384Y-63846265D01*
X159742165Y-63914032D01*
X159742167Y-63914033D01*
X159742170Y-63914035D01*
X159956337Y-64013903D01*
X159956343Y-64013904D01*
X159956344Y-64013905D01*
X159982592Y-64020938D01*
X160184592Y-64075063D01*
X160361034Y-64090500D01*
X160419999Y-64095659D01*
X160420000Y-64095659D01*
X160420001Y-64095659D01*
X160478966Y-64090500D01*
X160655408Y-64075063D01*
X160883663Y-64013903D01*
X161097830Y-63914035D01*
X161291401Y-63778495D01*
X161458495Y-63611401D01*
X161588425Y-63425842D01*
X161643002Y-63382217D01*
X161712500Y-63375023D01*
X161774855Y-63406546D01*
X161791575Y-63425842D01*
X161921500Y-63611395D01*
X161921505Y-63611401D01*
X162088599Y-63778495D01*
X162185384Y-63846265D01*
X162282165Y-63914032D01*
X162282167Y-63914033D01*
X162282170Y-63914035D01*
X162496337Y-64013903D01*
X162496343Y-64013904D01*
X162496344Y-64013905D01*
X162522592Y-64020938D01*
X162724592Y-64075063D01*
X162901034Y-64090500D01*
X162959999Y-64095659D01*
X162960000Y-64095659D01*
X162960001Y-64095659D01*
X163018966Y-64090500D01*
X163195408Y-64075063D01*
X163423663Y-64013903D01*
X163637830Y-63914035D01*
X163831401Y-63778495D01*
X163998495Y-63611401D01*
X164134035Y-63417830D01*
X164233903Y-63203663D01*
X164295063Y-62975408D01*
X164315659Y-62740000D01*
X164295063Y-62504592D01*
X164233903Y-62276337D01*
X164134035Y-62062171D01*
X164128425Y-62054158D01*
X163998494Y-61868597D01*
X163831402Y-61701506D01*
X163831396Y-61701501D01*
X163645842Y-61571575D01*
X163602217Y-61516998D01*
X163595023Y-61447500D01*
X163626546Y-61385145D01*
X163645842Y-61368425D01*
X163758054Y-61289853D01*
X163831401Y-61238495D01*
X163998495Y-61071401D01*
X164128425Y-60885842D01*
X164183002Y-60842217D01*
X164252500Y-60835023D01*
X164314855Y-60866546D01*
X164331575Y-60885842D01*
X164461500Y-61071395D01*
X164461505Y-61071401D01*
X164628599Y-61238495D01*
X164701946Y-61289853D01*
X164822165Y-61374032D01*
X164822167Y-61374033D01*
X164822170Y-61374035D01*
X165036337Y-61473903D01*
X165264592Y-61535063D01*
X165452918Y-61551539D01*
X165499999Y-61555659D01*
X165500000Y-61555659D01*
X165500001Y-61555659D01*
X165539234Y-61552226D01*
X165735408Y-61535063D01*
X165963663Y-61473903D01*
X166177830Y-61374035D01*
X166371401Y-61238495D01*
X166538495Y-61071401D01*
X166674035Y-60877830D01*
X166773903Y-60663663D01*
X166835063Y-60435408D01*
X166855659Y-60200000D01*
X166835063Y-59964592D01*
X166773903Y-59736337D01*
X166674035Y-59522171D01*
X166668425Y-59514158D01*
X166538494Y-59328597D01*
X166371402Y-59161506D01*
X166371395Y-59161501D01*
X166177834Y-59025967D01*
X166177830Y-59025965D01*
X166177828Y-59025964D01*
X165963663Y-58926097D01*
X165963659Y-58926096D01*
X165963655Y-58926094D01*
X165735413Y-58864938D01*
X165735403Y-58864936D01*
X165500001Y-58844341D01*
X165499999Y-58844341D01*
X165264596Y-58864936D01*
X165264586Y-58864938D01*
X165036344Y-58926094D01*
X165036335Y-58926098D01*
X164822171Y-59025964D01*
X164822169Y-59025965D01*
X164628597Y-59161505D01*
X164461505Y-59328597D01*
X164331575Y-59514158D01*
X164276998Y-59557783D01*
X164207500Y-59564977D01*
X164145145Y-59533454D01*
X164128425Y-59514158D01*
X163998494Y-59328597D01*
X163831402Y-59161506D01*
X163831395Y-59161501D01*
X163637834Y-59025967D01*
X163637830Y-59025965D01*
X163637828Y-59025964D01*
X163423663Y-58926097D01*
X163423659Y-58926096D01*
X163423655Y-58926094D01*
X163195413Y-58864938D01*
X163195403Y-58864936D01*
X162960001Y-58844341D01*
X162959999Y-58844341D01*
X162724596Y-58864936D01*
X162724586Y-58864938D01*
X162496344Y-58926094D01*
X162496335Y-58926098D01*
X162282171Y-59025964D01*
X162282169Y-59025965D01*
X162088597Y-59161505D01*
X161921505Y-59328597D01*
X161791575Y-59514158D01*
X161736998Y-59557783D01*
X161667500Y-59564977D01*
X161605145Y-59533454D01*
X161588425Y-59514158D01*
X161458494Y-59328597D01*
X161291402Y-59161506D01*
X161291395Y-59161501D01*
X161097834Y-59025967D01*
X161097830Y-59025965D01*
X161097828Y-59025964D01*
X160883663Y-58926097D01*
X160883659Y-58926096D01*
X160883655Y-58926094D01*
X160655413Y-58864938D01*
X160655403Y-58864936D01*
X160420001Y-58844341D01*
X160419999Y-58844341D01*
X160184596Y-58864936D01*
X160184586Y-58864938D01*
X159956344Y-58926094D01*
X159956335Y-58926098D01*
X159742171Y-59025964D01*
X159742169Y-59025965D01*
X159548597Y-59161505D01*
X159381505Y-59328597D01*
X159245965Y-59522169D01*
X159245964Y-59522171D01*
X159146098Y-59736335D01*
X159146094Y-59736344D01*
X159084938Y-59964586D01*
X159084936Y-59964596D01*
X159064341Y-60199999D01*
X159064341Y-60200000D01*
X159084936Y-60435403D01*
X159084938Y-60435413D01*
X159146094Y-60663655D01*
X159146096Y-60663659D01*
X159146097Y-60663663D01*
X159150000Y-60672032D01*
X159245965Y-60877830D01*
X159245967Y-60877834D01*
X159354281Y-61032521D01*
X159381501Y-61071396D01*
X159381506Y-61071402D01*
X159548597Y-61238493D01*
X159548603Y-61238498D01*
X159734158Y-61368425D01*
X159777783Y-61423002D01*
X159784977Y-61492500D01*
X159753454Y-61554855D01*
X159734158Y-61571575D01*
X159548597Y-61701505D01*
X159381505Y-61868597D01*
X159251575Y-62054158D01*
X159196998Y-62097783D01*
X159127500Y-62104977D01*
X159065145Y-62073454D01*
X159048425Y-62054158D01*
X158918494Y-61868597D01*
X158751402Y-61701506D01*
X158751395Y-61701501D01*
X158557834Y-61565967D01*
X158557830Y-61565965D01*
X158535729Y-61555659D01*
X158343663Y-61466097D01*
X158343659Y-61466096D01*
X158343655Y-61466094D01*
X158115413Y-61404938D01*
X158115403Y-61404936D01*
X157880001Y-61384341D01*
X157879999Y-61384341D01*
X157644596Y-61404936D01*
X157644586Y-61404938D01*
X157416344Y-61466094D01*
X157416335Y-61466098D01*
X157202171Y-61565964D01*
X157202169Y-61565965D01*
X157008597Y-61701505D01*
X156841505Y-61868597D01*
X156711575Y-62054158D01*
X156656998Y-62097783D01*
X156587500Y-62104977D01*
X156525145Y-62073454D01*
X156508425Y-62054158D01*
X156378494Y-61868597D01*
X156211402Y-61701506D01*
X156211396Y-61701501D01*
X156025842Y-61571575D01*
X155982217Y-61516998D01*
X155975023Y-61447500D01*
X156006546Y-61385145D01*
X156025842Y-61368425D01*
X156138054Y-61289853D01*
X156211401Y-61238495D01*
X156378495Y-61071401D01*
X156514035Y-60877830D01*
X156613903Y-60663663D01*
X156675063Y-60435408D01*
X156695659Y-60200000D01*
X156675063Y-59964592D01*
X156613903Y-59736337D01*
X156514035Y-59522171D01*
X156508425Y-59514158D01*
X156378494Y-59328597D01*
X156211402Y-59161506D01*
X156211395Y-59161501D01*
X156017834Y-59025967D01*
X156017830Y-59025965D01*
X156017828Y-59025964D01*
X155803663Y-58926097D01*
X155803659Y-58926096D01*
X155803655Y-58926094D01*
X155575413Y-58864938D01*
X155575403Y-58864936D01*
X155340001Y-58844341D01*
X155339999Y-58844341D01*
X155104596Y-58864936D01*
X155104586Y-58864938D01*
X154876344Y-58926094D01*
X154876335Y-58926098D01*
X154662171Y-59025964D01*
X154662169Y-59025965D01*
X154468597Y-59161505D01*
X154301505Y-59328597D01*
X154165965Y-59522169D01*
X154165964Y-59522171D01*
X154066098Y-59736335D01*
X154066094Y-59736344D01*
X154004938Y-59964586D01*
X154004936Y-59964596D01*
X153984341Y-60199999D01*
X153984341Y-60200000D01*
X154004936Y-60435403D01*
X154004938Y-60435413D01*
X154066094Y-60663655D01*
X154066096Y-60663659D01*
X154066097Y-60663663D01*
X154070000Y-60672032D01*
X154165965Y-60877830D01*
X154165967Y-60877834D01*
X154274281Y-61032521D01*
X154301501Y-61071396D01*
X154301506Y-61071402D01*
X154468597Y-61238493D01*
X154468603Y-61238498D01*
X154654158Y-61368425D01*
X154697783Y-61423002D01*
X154704977Y-61492500D01*
X154673454Y-61554855D01*
X154654158Y-61571575D01*
X154468597Y-61701505D01*
X154301505Y-61868597D01*
X154171575Y-62054158D01*
X154116998Y-62097783D01*
X154047500Y-62104977D01*
X153985145Y-62073454D01*
X153968425Y-62054158D01*
X153838494Y-61868597D01*
X153671402Y-61701506D01*
X153671395Y-61701501D01*
X153477834Y-61565967D01*
X153477830Y-61565965D01*
X153455729Y-61555659D01*
X153263663Y-61466097D01*
X153263659Y-61466096D01*
X153263655Y-61466094D01*
X153035413Y-61404938D01*
X153035403Y-61404936D01*
X152800001Y-61384341D01*
X152799999Y-61384341D01*
X152564596Y-61404936D01*
X152564586Y-61404938D01*
X152336344Y-61466094D01*
X152336335Y-61466098D01*
X152122171Y-61565964D01*
X152122169Y-61565965D01*
X151928597Y-61701505D01*
X151761505Y-61868597D01*
X151631575Y-62054158D01*
X151576998Y-62097783D01*
X151507500Y-62104977D01*
X151445145Y-62073454D01*
X151428425Y-62054158D01*
X151298494Y-61868597D01*
X151131402Y-61701506D01*
X151131396Y-61701501D01*
X150945842Y-61571575D01*
X150902217Y-61516998D01*
X150895023Y-61447500D01*
X150926546Y-61385145D01*
X150945842Y-61368425D01*
X151058054Y-61289853D01*
X151131401Y-61238495D01*
X151298495Y-61071401D01*
X151434035Y-60877830D01*
X151533903Y-60663663D01*
X151595063Y-60435408D01*
X151615659Y-60200000D01*
X151595063Y-59964592D01*
X151533903Y-59736337D01*
X151434035Y-59522171D01*
X151428425Y-59514158D01*
X151298494Y-59328597D01*
X151131402Y-59161506D01*
X151131395Y-59161501D01*
X150937834Y-59025967D01*
X150937830Y-59025965D01*
X150937828Y-59025964D01*
X150723663Y-58926097D01*
X150723659Y-58926096D01*
X150723655Y-58926094D01*
X150495413Y-58864938D01*
X150495403Y-58864936D01*
X150260001Y-58844341D01*
X150259999Y-58844341D01*
X150024596Y-58864936D01*
X150024586Y-58864938D01*
X149796344Y-58926094D01*
X149796335Y-58926098D01*
X149582171Y-59025964D01*
X149582169Y-59025965D01*
X149388597Y-59161505D01*
X149221505Y-59328597D01*
X149091575Y-59514158D01*
X149036998Y-59557783D01*
X148967500Y-59564977D01*
X148905145Y-59533454D01*
X148888425Y-59514158D01*
X148758494Y-59328597D01*
X148591402Y-59161506D01*
X148591395Y-59161501D01*
X148397834Y-59025967D01*
X148397830Y-59025965D01*
X148397828Y-59025964D01*
X148183663Y-58926097D01*
X148183659Y-58926096D01*
X148183655Y-58926094D01*
X147955413Y-58864938D01*
X147955403Y-58864936D01*
X147720001Y-58844341D01*
X147719999Y-58844341D01*
X147484596Y-58864936D01*
X147484586Y-58864938D01*
X147256344Y-58926094D01*
X147256335Y-58926098D01*
X147042171Y-59025964D01*
X147042169Y-59025965D01*
X146848597Y-59161505D01*
X146681505Y-59328597D01*
X146551575Y-59514158D01*
X146496998Y-59557783D01*
X146427500Y-59564977D01*
X146365145Y-59533454D01*
X146348425Y-59514158D01*
X146218494Y-59328597D01*
X146051402Y-59161506D01*
X146051395Y-59161501D01*
X145857834Y-59025967D01*
X145857830Y-59025965D01*
X145857828Y-59025964D01*
X145643663Y-58926097D01*
X145643659Y-58926096D01*
X145643655Y-58926094D01*
X145415413Y-58864938D01*
X145415403Y-58864936D01*
X145180001Y-58844341D01*
X145179999Y-58844341D01*
X144944596Y-58864936D01*
X144944586Y-58864938D01*
X144716344Y-58926094D01*
X144716335Y-58926098D01*
X144502171Y-59025964D01*
X144502169Y-59025965D01*
X144308597Y-59161505D01*
X144141505Y-59328597D01*
X144011575Y-59514158D01*
X143956998Y-59557783D01*
X143887500Y-59564977D01*
X143825145Y-59533454D01*
X143808425Y-59514158D01*
X143678494Y-59328597D01*
X143511402Y-59161506D01*
X143511395Y-59161501D01*
X143317834Y-59025967D01*
X143317830Y-59025965D01*
X143317828Y-59025964D01*
X143103663Y-58926097D01*
X143103659Y-58926096D01*
X143103655Y-58926094D01*
X142875413Y-58864938D01*
X142875403Y-58864936D01*
X142640001Y-58844341D01*
X142639999Y-58844341D01*
X142404596Y-58864936D01*
X142404586Y-58864938D01*
X142176344Y-58926094D01*
X142176335Y-58926098D01*
X141962171Y-59025964D01*
X141962169Y-59025965D01*
X141768597Y-59161505D01*
X141601505Y-59328597D01*
X141465965Y-59522169D01*
X141465964Y-59522171D01*
X141366098Y-59736335D01*
X141366094Y-59736344D01*
X141304938Y-59964586D01*
X141304936Y-59964596D01*
X141284341Y-60199999D01*
X141284341Y-60200000D01*
X141304936Y-60435403D01*
X141304938Y-60435413D01*
X141366094Y-60663655D01*
X141366096Y-60663659D01*
X141366097Y-60663663D01*
X141370000Y-60672032D01*
X141465965Y-60877830D01*
X141465967Y-60877834D01*
X141574281Y-61032521D01*
X141601501Y-61071396D01*
X141601506Y-61071402D01*
X141768597Y-61238493D01*
X141768603Y-61238498D01*
X141954158Y-61368425D01*
X141997783Y-61423002D01*
X142004977Y-61492500D01*
X141973454Y-61554855D01*
X141954158Y-61571575D01*
X141768597Y-61701505D01*
X141601505Y-61868597D01*
X141471575Y-62054158D01*
X141416998Y-62097783D01*
X141347500Y-62104977D01*
X141285145Y-62073454D01*
X141268425Y-62054158D01*
X141138494Y-61868597D01*
X140971402Y-61701506D01*
X140971395Y-61701501D01*
X140777834Y-61565967D01*
X140777830Y-61565965D01*
X140755729Y-61555659D01*
X140563663Y-61466097D01*
X140563659Y-61466096D01*
X140563655Y-61466094D01*
X140335413Y-61404938D01*
X140335403Y-61404936D01*
X140100001Y-61384341D01*
X140099999Y-61384341D01*
X139864596Y-61404936D01*
X139864586Y-61404938D01*
X139636344Y-61466094D01*
X139636335Y-61466098D01*
X139422171Y-61565964D01*
X139422169Y-61565965D01*
X139228597Y-61701505D01*
X139061505Y-61868597D01*
X138931575Y-62054158D01*
X138876998Y-62097783D01*
X138807500Y-62104977D01*
X138745145Y-62073454D01*
X138728425Y-62054158D01*
X138598494Y-61868597D01*
X138431402Y-61701506D01*
X138431396Y-61701501D01*
X138245842Y-61571575D01*
X138202217Y-61516998D01*
X138195023Y-61447500D01*
X138226546Y-61385145D01*
X138245842Y-61368425D01*
X138358054Y-61289853D01*
X138431401Y-61238495D01*
X138598495Y-61071401D01*
X138734035Y-60877830D01*
X138833903Y-60663663D01*
X138895063Y-60435408D01*
X138915659Y-60200000D01*
X138895063Y-59964592D01*
X138833903Y-59736337D01*
X138734035Y-59522171D01*
X138728425Y-59514158D01*
X138598494Y-59328597D01*
X138431402Y-59161506D01*
X138431395Y-59161501D01*
X138237834Y-59025967D01*
X138237830Y-59025965D01*
X138237828Y-59025964D01*
X138023663Y-58926097D01*
X138023659Y-58926096D01*
X138023655Y-58926094D01*
X137795413Y-58864938D01*
X137795403Y-58864936D01*
X137560001Y-58844341D01*
X137559999Y-58844341D01*
X137324596Y-58864936D01*
X137324586Y-58864938D01*
X137096344Y-58926094D01*
X137096335Y-58926098D01*
X136882171Y-59025964D01*
X136882169Y-59025965D01*
X136688597Y-59161505D01*
X136521505Y-59328597D01*
X136391575Y-59514158D01*
X136336998Y-59557783D01*
X136267500Y-59564977D01*
X136205145Y-59533454D01*
X136188425Y-59514158D01*
X136058494Y-59328597D01*
X135891402Y-59161506D01*
X135891395Y-59161501D01*
X135697834Y-59025967D01*
X135697830Y-59025965D01*
X135697828Y-59025964D01*
X135483663Y-58926097D01*
X135483659Y-58926096D01*
X135483655Y-58926094D01*
X135255413Y-58864938D01*
X135255403Y-58864936D01*
X135020001Y-58844341D01*
X135019999Y-58844341D01*
X134784596Y-58864936D01*
X134784586Y-58864938D01*
X134556344Y-58926094D01*
X134556335Y-58926098D01*
X134342171Y-59025964D01*
X134342169Y-59025965D01*
X134148597Y-59161505D01*
X133981505Y-59328597D01*
X133845965Y-59522169D01*
X133845964Y-59522171D01*
X133746098Y-59736335D01*
X133746094Y-59736344D01*
X133684938Y-59964586D01*
X133684936Y-59964596D01*
X133664341Y-60199999D01*
X133664341Y-60200000D01*
X133684936Y-60435403D01*
X133684938Y-60435413D01*
X133746094Y-60663655D01*
X133746096Y-60663659D01*
X133746097Y-60663663D01*
X133750000Y-60672032D01*
X133845965Y-60877830D01*
X133845967Y-60877834D01*
X133954281Y-61032521D01*
X133981501Y-61071396D01*
X133981506Y-61071402D01*
X134148597Y-61238493D01*
X134148603Y-61238498D01*
X134334158Y-61368425D01*
X134377783Y-61423002D01*
X134384977Y-61492500D01*
X134353454Y-61554855D01*
X134334158Y-61571575D01*
X134148597Y-61701505D01*
X133981505Y-61868597D01*
X133851575Y-62054158D01*
X133796998Y-62097783D01*
X133727500Y-62104977D01*
X133665145Y-62073454D01*
X133648425Y-62054158D01*
X133518494Y-61868597D01*
X133351402Y-61701506D01*
X133351395Y-61701501D01*
X133157834Y-61565967D01*
X133157830Y-61565965D01*
X133135729Y-61555659D01*
X132943663Y-61466097D01*
X132943659Y-61466096D01*
X132943655Y-61466094D01*
X132715413Y-61404938D01*
X132715403Y-61404936D01*
X132480001Y-61384341D01*
X132479999Y-61384341D01*
X132244596Y-61404936D01*
X132244586Y-61404938D01*
X132016344Y-61466094D01*
X132016335Y-61466098D01*
X131802171Y-61565964D01*
X131802169Y-61565965D01*
X131608597Y-61701505D01*
X131441505Y-61868597D01*
X131311575Y-62054158D01*
X131256998Y-62097783D01*
X131187500Y-62104977D01*
X131125145Y-62073454D01*
X131108425Y-62054158D01*
X130978494Y-61868597D01*
X130811402Y-61701506D01*
X130811396Y-61701501D01*
X130625842Y-61571575D01*
X130582217Y-61516998D01*
X130575023Y-61447500D01*
X130606546Y-61385145D01*
X130625842Y-61368425D01*
X130738054Y-61289853D01*
X130811401Y-61238495D01*
X130978495Y-61071401D01*
X131114035Y-60877830D01*
X131213903Y-60663663D01*
X131275063Y-60435408D01*
X131295659Y-60200000D01*
X131275063Y-59964592D01*
X131213903Y-59736337D01*
X131114035Y-59522171D01*
X131108425Y-59514158D01*
X130978494Y-59328597D01*
X130811402Y-59161506D01*
X130811395Y-59161501D01*
X130617834Y-59025967D01*
X130617830Y-59025965D01*
X130617828Y-59025964D01*
X130403663Y-58926097D01*
X130403659Y-58926096D01*
X130403655Y-58926094D01*
X130175413Y-58864938D01*
X130175403Y-58864936D01*
X129940001Y-58844341D01*
X129939999Y-58844341D01*
X129704596Y-58864936D01*
X129704586Y-58864938D01*
X129476344Y-58926094D01*
X129476335Y-58926098D01*
X129262171Y-59025964D01*
X129262169Y-59025965D01*
X129068597Y-59161505D01*
X128901505Y-59328597D01*
X128771575Y-59514158D01*
X128716998Y-59557783D01*
X128647500Y-59564977D01*
X128585145Y-59533454D01*
X128568425Y-59514158D01*
X128438494Y-59328597D01*
X128271402Y-59161506D01*
X128271395Y-59161501D01*
X128077834Y-59025967D01*
X128077830Y-59025965D01*
X128077828Y-59025964D01*
X127863663Y-58926097D01*
X127863659Y-58926096D01*
X127863655Y-58926094D01*
X127635413Y-58864938D01*
X127635403Y-58864936D01*
X127400001Y-58844341D01*
X127399999Y-58844341D01*
X127164596Y-58864936D01*
X127164586Y-58864938D01*
X126936344Y-58926094D01*
X126936335Y-58926098D01*
X126722171Y-59025964D01*
X126722169Y-59025965D01*
X126528597Y-59161505D01*
X126361505Y-59328597D01*
X126231575Y-59514158D01*
X126176998Y-59557783D01*
X126107500Y-59564977D01*
X126045145Y-59533454D01*
X126028425Y-59514158D01*
X125898494Y-59328597D01*
X125731402Y-59161506D01*
X125731395Y-59161501D01*
X125537834Y-59025967D01*
X125537830Y-59025965D01*
X125537828Y-59025964D01*
X125323663Y-58926097D01*
X125323659Y-58926096D01*
X125323655Y-58926094D01*
X125095413Y-58864938D01*
X125095403Y-58864936D01*
X124860001Y-58844341D01*
X124859999Y-58844341D01*
X124624596Y-58864936D01*
X124624586Y-58864938D01*
X124396344Y-58926094D01*
X124396335Y-58926098D01*
X124182171Y-59025964D01*
X124182169Y-59025965D01*
X123988597Y-59161505D01*
X123821505Y-59328597D01*
X123685965Y-59522169D01*
X123685964Y-59522171D01*
X123586098Y-59736335D01*
X123586094Y-59736344D01*
X123524938Y-59964586D01*
X123524936Y-59964596D01*
X123504341Y-60199999D01*
X123504341Y-60200000D01*
X123524936Y-60435403D01*
X123524938Y-60435413D01*
X123586094Y-60663655D01*
X123586096Y-60663659D01*
X123586097Y-60663663D01*
X123590000Y-60672032D01*
X123685965Y-60877830D01*
X123685967Y-60877834D01*
X123794281Y-61032521D01*
X123821501Y-61071396D01*
X123821506Y-61071402D01*
X123988597Y-61238493D01*
X123988603Y-61238498D01*
X124174158Y-61368425D01*
X124217783Y-61423002D01*
X124224977Y-61492500D01*
X124193454Y-61554855D01*
X124174158Y-61571575D01*
X123988597Y-61701505D01*
X123821505Y-61868597D01*
X123691575Y-62054158D01*
X123636998Y-62097783D01*
X123567500Y-62104977D01*
X123505145Y-62073454D01*
X123488425Y-62054158D01*
X123358494Y-61868597D01*
X123191402Y-61701506D01*
X123191395Y-61701501D01*
X122997834Y-61565967D01*
X122997830Y-61565965D01*
X122975729Y-61555659D01*
X122783663Y-61466097D01*
X122783659Y-61466096D01*
X122783655Y-61466094D01*
X122555413Y-61404938D01*
X122555403Y-61404936D01*
X122320001Y-61384341D01*
X122319999Y-61384341D01*
X122084596Y-61404936D01*
X122084586Y-61404938D01*
X121856344Y-61466094D01*
X121856335Y-61466098D01*
X121642171Y-61565964D01*
X121642169Y-61565965D01*
X121448597Y-61701505D01*
X121281505Y-61868597D01*
X121151575Y-62054158D01*
X121096998Y-62097783D01*
X121027500Y-62104977D01*
X120965145Y-62073454D01*
X120948425Y-62054158D01*
X120818494Y-61868597D01*
X120651402Y-61701506D01*
X120651396Y-61701501D01*
X120465842Y-61571575D01*
X120422217Y-61516998D01*
X120415023Y-61447500D01*
X120446546Y-61385145D01*
X120465842Y-61368425D01*
X120578054Y-61289853D01*
X120651401Y-61238495D01*
X120818495Y-61071401D01*
X120954035Y-60877830D01*
X121053903Y-60663663D01*
X121115063Y-60435408D01*
X121135659Y-60200000D01*
X121115063Y-59964592D01*
X121053903Y-59736337D01*
X120954035Y-59522171D01*
X120948425Y-59514158D01*
X120818494Y-59328597D01*
X120651402Y-59161506D01*
X120651395Y-59161501D01*
X120457834Y-59025967D01*
X120457830Y-59025965D01*
X120457828Y-59025964D01*
X120243663Y-58926097D01*
X120243659Y-58926096D01*
X120243655Y-58926094D01*
X120015413Y-58864938D01*
X120015403Y-58864936D01*
X119780001Y-58844341D01*
X119779999Y-58844341D01*
X119544596Y-58864936D01*
X119544586Y-58864938D01*
X119316344Y-58926094D01*
X119316335Y-58926098D01*
X119102171Y-59025964D01*
X119102169Y-59025965D01*
X118908597Y-59161505D01*
X118741505Y-59328597D01*
X118611575Y-59514158D01*
X118556998Y-59557783D01*
X118487500Y-59564977D01*
X118425145Y-59533454D01*
X118408425Y-59514158D01*
X118278494Y-59328597D01*
X118111402Y-59161506D01*
X118111395Y-59161501D01*
X117917834Y-59025967D01*
X117917830Y-59025965D01*
X117917828Y-59025964D01*
X117703663Y-58926097D01*
X117703659Y-58926096D01*
X117703655Y-58926094D01*
X117475413Y-58864938D01*
X117475403Y-58864936D01*
X117240001Y-58844341D01*
X117239999Y-58844341D01*
X117004596Y-58864936D01*
X117004586Y-58864938D01*
X116776344Y-58926094D01*
X116776335Y-58926098D01*
X116562171Y-59025964D01*
X116562169Y-59025965D01*
X116368597Y-59161505D01*
X116201505Y-59328597D01*
X116065965Y-59522169D01*
X116065964Y-59522171D01*
X115966098Y-59736335D01*
X115966094Y-59736344D01*
X115904938Y-59964586D01*
X115904936Y-59964596D01*
X115884341Y-60199999D01*
X115884341Y-60200000D01*
X115904936Y-60435403D01*
X115904938Y-60435413D01*
X115966094Y-60663655D01*
X115966096Y-60663659D01*
X115966097Y-60663663D01*
X115970000Y-60672032D01*
X116065965Y-60877830D01*
X116065967Y-60877834D01*
X116174281Y-61032521D01*
X116201501Y-61071396D01*
X116201506Y-61071402D01*
X116323430Y-61193326D01*
X116356915Y-61254649D01*
X116351931Y-61324341D01*
X116310059Y-61380274D01*
X116279083Y-61397189D01*
X116147669Y-61446203D01*
X116147664Y-61446206D01*
X116032455Y-61532452D01*
X116032452Y-61532455D01*
X115946206Y-61647664D01*
X115946202Y-61647671D01*
X115895908Y-61782517D01*
X115889501Y-61842116D01*
X115889500Y-61842135D01*
X115889500Y-63637870D01*
X115889501Y-63637876D01*
X115895908Y-63697483D01*
X115946202Y-63832328D01*
X115946206Y-63832335D01*
X116032452Y-63947544D01*
X116032455Y-63947547D01*
X116147664Y-64033793D01*
X116147671Y-64033797D01*
X116182406Y-64046752D01*
X116282517Y-64084091D01*
X116342127Y-64090500D01*
X116552097Y-64090499D01*
X116619137Y-64110183D01*
X116664892Y-64162987D01*
X116666659Y-64167047D01*
X116685685Y-64212981D01*
X116685688Y-64212986D01*
X116702663Y-64238390D01*
X116702664Y-64238393D01*
X116702665Y-64238393D01*
X116754141Y-64315432D01*
X116754144Y-64315436D01*
X116845586Y-64406878D01*
X116845608Y-64406898D01*
X117828181Y-65389471D01*
X117861666Y-65450794D01*
X117864500Y-65477152D01*
X117864500Y-66561610D01*
X117888535Y-66682444D01*
X117888539Y-66682458D01*
X117897344Y-66703715D01*
X117935685Y-66796281D01*
X117935687Y-66796284D01*
X117935688Y-66796286D01*
X117952878Y-66822011D01*
X117969914Y-66847507D01*
X117969915Y-66847509D01*
X118004140Y-66898731D01*
X118004141Y-66898732D01*
X118004142Y-66898733D01*
X118091267Y-66985858D01*
X118091268Y-66985858D01*
X118098335Y-66992925D01*
X118098334Y-66992925D01*
X118098338Y-66992928D01*
X118643181Y-67537772D01*
X118676666Y-67599095D01*
X118679500Y-67625452D01*
X118679500Y-67709168D01*
X118679501Y-67709192D01*
X118682335Y-67745205D01*
X118727129Y-67899388D01*
X118727131Y-67899393D01*
X118808863Y-68037595D01*
X118808869Y-68037603D01*
X118922396Y-68151130D01*
X118922400Y-68151133D01*
X118922402Y-68151135D01*
X119060607Y-68232869D01*
X119101268Y-68244682D01*
X119214791Y-68277664D01*
X119214794Y-68277664D01*
X119214796Y-68277665D01*
X119250819Y-68280500D01*
X119749180Y-68280499D01*
X119785204Y-68277665D01*
X119939393Y-68232869D01*
X120074837Y-68152768D01*
X120137958Y-68135500D01*
X121250500Y-68135500D01*
X121317539Y-68155185D01*
X121363294Y-68207989D01*
X121374500Y-68259500D01*
X121374500Y-69424108D01*
X121354815Y-69491147D01*
X121302011Y-69536902D01*
X121232853Y-69546846D01*
X121169297Y-69517821D01*
X121143113Y-69486109D01*
X121141483Y-69483287D01*
X121132533Y-69467784D01*
X121005871Y-69327112D01*
X121005870Y-69327111D01*
X120852734Y-69215851D01*
X120852729Y-69215848D01*
X120679807Y-69138857D01*
X120679802Y-69138855D01*
X120534001Y-69107865D01*
X120494646Y-69099500D01*
X120305354Y-69099500D01*
X120272897Y-69106398D01*
X120120197Y-69138855D01*
X120120192Y-69138857D01*
X119947270Y-69215848D01*
X119947265Y-69215851D01*
X119794129Y-69327111D01*
X119667466Y-69467785D01*
X119572821Y-69631715D01*
X119572818Y-69631722D01*
X119532823Y-69754815D01*
X119514326Y-69811744D01*
X119508436Y-69867785D01*
X119493861Y-70006463D01*
X119491200Y-70006183D01*
X119474855Y-70061851D01*
X119458221Y-70082493D01*
X119451269Y-70089445D01*
X119451267Y-70089447D01*
X119407703Y-70133010D01*
X119364140Y-70176573D01*
X119343307Y-70207754D01*
X119343305Y-70207757D01*
X119295690Y-70279015D01*
X119295687Y-70279021D01*
X119275428Y-70327929D01*
X119275429Y-70327930D01*
X119248536Y-70392854D01*
X119248535Y-70392860D01*
X119224500Y-70513694D01*
X119224500Y-73040548D01*
X119204815Y-73107587D01*
X119152011Y-73153342D01*
X119082853Y-73163286D01*
X119019297Y-73134261D01*
X119012819Y-73128229D01*
X118938960Y-73054370D01*
X118905475Y-72993047D01*
X118903323Y-72979671D01*
X118885674Y-72811744D01*
X118827179Y-72631716D01*
X118732533Y-72467784D01*
X118605871Y-72327112D01*
X118588186Y-72314263D01*
X118452734Y-72215851D01*
X118452729Y-72215848D01*
X118279807Y-72138857D01*
X118279802Y-72138855D01*
X118134001Y-72107865D01*
X118094646Y-72099500D01*
X117905354Y-72099500D01*
X117872897Y-72106398D01*
X117720197Y-72138855D01*
X117720192Y-72138857D01*
X117547270Y-72215848D01*
X117547265Y-72215851D01*
X117394129Y-72327111D01*
X117267466Y-72467785D01*
X117172821Y-72631715D01*
X117172818Y-72631722D01*
X117131896Y-72757669D01*
X117114326Y-72811744D01*
X117094540Y-73000000D01*
X117114326Y-73188256D01*
X117114327Y-73188259D01*
X117172818Y-73368277D01*
X117172821Y-73368284D01*
X117267467Y-73532216D01*
X117330319Y-73602020D01*
X117394129Y-73672888D01*
X117547265Y-73784148D01*
X117547270Y-73784151D01*
X117720192Y-73861142D01*
X117720197Y-73861144D01*
X117905354Y-73900500D01*
X117964548Y-73900500D01*
X118031587Y-73920185D01*
X118052229Y-73936819D01*
X118175681Y-74060271D01*
X118209166Y-74121594D01*
X118212000Y-74147952D01*
X118212000Y-74394757D01*
X118204182Y-74438090D01*
X118159628Y-74557547D01*
X118155909Y-74567517D01*
X118149500Y-74627127D01*
X118149500Y-74627134D01*
X118149500Y-74627135D01*
X118149500Y-75072870D01*
X118149501Y-75072876D01*
X118155908Y-75132483D01*
X118206202Y-75267328D01*
X118206206Y-75267335D01*
X118292452Y-75382544D01*
X118292455Y-75382547D01*
X118407664Y-75468793D01*
X118407671Y-75468797D01*
X118447944Y-75483818D01*
X118503878Y-75525689D01*
X118528295Y-75591153D01*
X118513443Y-75659426D01*
X118464038Y-75708832D01*
X118447960Y-75716176D01*
X118446620Y-75716676D01*
X118403271Y-75724500D01*
X117464167Y-75724500D01*
X117397128Y-75704815D01*
X117376486Y-75688181D01*
X117358192Y-75669887D01*
X117358184Y-75669881D01*
X117262439Y-75613258D01*
X117218895Y-75587506D01*
X117218894Y-75587505D01*
X117218893Y-75587505D01*
X117218890Y-75587504D01*
X117063497Y-75542357D01*
X117063491Y-75542356D01*
X117027197Y-75539500D01*
X117027190Y-75539500D01*
X116617810Y-75539500D01*
X116617802Y-75539500D01*
X116581508Y-75542356D01*
X116581502Y-75542357D01*
X116426109Y-75587504D01*
X116426106Y-75587505D01*
X116286815Y-75669881D01*
X116286807Y-75669887D01*
X116172387Y-75784307D01*
X116172381Y-75784315D01*
X116090005Y-75923606D01*
X116090004Y-75923609D01*
X116044857Y-76079002D01*
X116044856Y-76079008D01*
X116042000Y-76115302D01*
X116042000Y-76584697D01*
X116044856Y-76620991D01*
X116044857Y-76620997D01*
X116090004Y-76776390D01*
X116090005Y-76776393D01*
X116172381Y-76915684D01*
X116172387Y-76915692D01*
X116286807Y-77030112D01*
X116286811Y-77030115D01*
X116286813Y-77030117D01*
X116426105Y-77112494D01*
X116467087Y-77124400D01*
X116581502Y-77157642D01*
X116581505Y-77157642D01*
X116581507Y-77157643D01*
X116617810Y-77160500D01*
X116617818Y-77160500D01*
X117027182Y-77160500D01*
X117027190Y-77160500D01*
X117063493Y-77157643D01*
X117063495Y-77157642D01*
X117063497Y-77157642D01*
X117104475Y-77145736D01*
X117218895Y-77112494D01*
X117358187Y-77030117D01*
X117362806Y-77025498D01*
X117376486Y-77011819D01*
X117437809Y-76978334D01*
X117464167Y-76975500D01*
X118403271Y-76975500D01*
X118446604Y-76983318D01*
X118542516Y-77019091D01*
X118602113Y-77025499D01*
X118602122Y-77025499D01*
X118602127Y-77025500D01*
X118602131Y-77025499D01*
X118605434Y-77025677D01*
X118605424Y-77025855D01*
X118605431Y-77025856D01*
X118605417Y-77025977D01*
X118605366Y-77026946D01*
X118667478Y-77045144D01*
X118713264Y-77097921D01*
X118724500Y-77149499D01*
X118724500Y-77328333D01*
X118704815Y-77395372D01*
X118688181Y-77416014D01*
X118669887Y-77434307D01*
X118669881Y-77434315D01*
X118587505Y-77573606D01*
X118587504Y-77573609D01*
X118542357Y-77729002D01*
X118542356Y-77729008D01*
X118539500Y-77765302D01*
X118539500Y-78234697D01*
X118542356Y-78270991D01*
X118542357Y-78270997D01*
X118587504Y-78426390D01*
X118587505Y-78426393D01*
X118673854Y-78572402D01*
X118672208Y-78573375D01*
X118694014Y-78628915D01*
X118694500Y-78639878D01*
X118694500Y-78760121D01*
X118674815Y-78827160D01*
X118670518Y-78833237D01*
X118587505Y-78973606D01*
X118587504Y-78973609D01*
X118542357Y-79129002D01*
X118542356Y-79129008D01*
X118539500Y-79165302D01*
X118539500Y-79634697D01*
X118542356Y-79670991D01*
X118542357Y-79670993D01*
X118569576Y-79764681D01*
X118574500Y-79799274D01*
X118574500Y-91589610D01*
X118590351Y-91669297D01*
X118598537Y-91710452D01*
X118601376Y-91717306D01*
X118601376Y-91717307D01*
X118645685Y-91824281D01*
X118645688Y-91824286D01*
X118662422Y-91849331D01*
X118672595Y-91867776D01*
X118672821Y-91868284D01*
X118767467Y-92032216D01*
X118894129Y-92172888D01*
X119047265Y-92284148D01*
X119047267Y-92284149D01*
X119047270Y-92284151D01*
X119070063Y-92294299D01*
X119107306Y-92319896D01*
X122057616Y-95270206D01*
X122057645Y-95270237D01*
X122147864Y-95360456D01*
X122147867Y-95360458D01*
X122199090Y-95394684D01*
X122250314Y-95428912D01*
X122324862Y-95459790D01*
X122364148Y-95476063D01*
X122424571Y-95488081D01*
X122484993Y-95500100D01*
X134907707Y-95500100D01*
X134968129Y-95488081D01*
X135028552Y-95476063D01*
X135067838Y-95459790D01*
X135142386Y-95428912D01*
X135193609Y-95394684D01*
X135193611Y-95394683D01*
X135206371Y-95386156D01*
X135244833Y-95360458D01*
X135331958Y-95273333D01*
X135331958Y-95273331D01*
X135342166Y-95263124D01*
X135342168Y-95263121D01*
X141657713Y-88947575D01*
X141719034Y-88914092D01*
X141788726Y-88919076D01*
X141833074Y-88947578D01*
X144123260Y-91237820D01*
X144156745Y-91299143D01*
X144151759Y-91368835D01*
X144109887Y-91424768D01*
X144044423Y-91449184D01*
X144035578Y-91449500D01*
X140663389Y-91449500D01*
X140602971Y-91461518D01*
X140542548Y-91473537D01*
X140542546Y-91473537D01*
X140542545Y-91473538D01*
X140542543Y-91473538D01*
X140511413Y-91486433D01*
X140428715Y-91520686D01*
X140418627Y-91527428D01*
X140418626Y-91527429D01*
X140326268Y-91589140D01*
X140282705Y-91632703D01*
X140239142Y-91676267D01*
X140239139Y-91676270D01*
X139128163Y-92787247D01*
X138052229Y-93863181D01*
X137990906Y-93896666D01*
X137964548Y-93899500D01*
X137905354Y-93899500D01*
X137872897Y-93906398D01*
X137720197Y-93938855D01*
X137720192Y-93938857D01*
X137547270Y-94015848D01*
X137547265Y-94015851D01*
X137394129Y-94127111D01*
X137267466Y-94267785D01*
X137172821Y-94431715D01*
X137172818Y-94431722D01*
X137114327Y-94611740D01*
X137114326Y-94611744D01*
X137094540Y-94800000D01*
X137114326Y-94988256D01*
X137114327Y-94988259D01*
X137172818Y-95168277D01*
X137172821Y-95168284D01*
X137267467Y-95332216D01*
X137382337Y-95459792D01*
X137394129Y-95472888D01*
X137547265Y-95584148D01*
X137547270Y-95584151D01*
X137720192Y-95661142D01*
X137720195Y-95661143D01*
X137720197Y-95661144D01*
X137905354Y-95700500D01*
X137905355Y-95700500D01*
X138094644Y-95700500D01*
X138094646Y-95700500D01*
X138279803Y-95661144D01*
X138452730Y-95584151D01*
X138605871Y-95472888D01*
X138732533Y-95332216D01*
X138827179Y-95168284D01*
X138885674Y-94988256D01*
X138903321Y-94820345D01*
X138929905Y-94755732D01*
X138938952Y-94745636D01*
X140947771Y-92736819D01*
X141009094Y-92703334D01*
X141035452Y-92700500D01*
X143315547Y-92700500D01*
X143382586Y-92720185D01*
X143428341Y-92772989D01*
X143438285Y-92842147D01*
X143409260Y-92905703D01*
X143403228Y-92912181D01*
X139977229Y-96338181D01*
X139915906Y-96371666D01*
X139889548Y-96374500D01*
X120100889Y-96374500D01*
X120040471Y-96386518D01*
X120005840Y-96393406D01*
X119980045Y-96398537D01*
X119980042Y-96398538D01*
X119970444Y-96402515D01*
X119970437Y-96402518D01*
X119866215Y-96445686D01*
X119856127Y-96452428D01*
X119856126Y-96452429D01*
X119763768Y-96514140D01*
X119720205Y-96557703D01*
X119676642Y-96601267D01*
X119676639Y-96601270D01*
X116980313Y-99297595D01*
X116918990Y-99331080D01*
X116858041Y-99328992D01*
X116852569Y-99327402D01*
X116852563Y-99327401D01*
X116815701Y-99324500D01*
X116815694Y-99324500D01*
X116384306Y-99324500D01*
X116384298Y-99324500D01*
X116347432Y-99327401D01*
X116347426Y-99327402D01*
X116189606Y-99373254D01*
X116189603Y-99373255D01*
X116048137Y-99456917D01*
X116048129Y-99456923D01*
X115931923Y-99573129D01*
X115931917Y-99573137D01*
X115848255Y-99714603D01*
X115848254Y-99714606D01*
X115802402Y-99872426D01*
X115802401Y-99872432D01*
X115799500Y-99909298D01*
X114000000Y-99909298D01*
X114000000Y-58124000D01*
X114019685Y-58056961D01*
X114072489Y-58011206D01*
X114124000Y-58000000D01*
X167876000Y-58000000D01*
X167943039Y-58019685D01*
G37*
%TD.AperFunction*%
%TD*%
M02*
