%TF.GenerationSoftware,KiCad,Pcbnew,8.0.2*%
%TF.CreationDate,2024-05-17T09:05:44-06:00*%
%TF.ProjectId,PCB_Project,5043425f-5072-46f6-9a65-63742e6b6963,rev?*%
%TF.SameCoordinates,Original*%
%TF.FileFunction,Paste,Top*%
%TF.FilePolarity,Positive*%
%FSLAX46Y46*%
G04 Gerber Fmt 4.6, Leading zero omitted, Abs format (unit mm)*
G04 Created by KiCad (PCBNEW 8.0.2) date 2024-05-17 09:05:44*
%MOMM*%
%LPD*%
G01*
G04 APERTURE LIST*
G04 Aperture macros list*
%AMRoundRect*
0 Rectangle with rounded corners*
0 $1 Rounding radius*
0 $2 $3 $4 $5 $6 $7 $8 $9 X,Y pos of 4 corners*
0 Add a 4 corners polygon primitive as box body*
4,1,4,$2,$3,$4,$5,$6,$7,$8,$9,$2,$3,0*
0 Add four circle primitives for the rounded corners*
1,1,$1+$1,$2,$3*
1,1,$1+$1,$4,$5*
1,1,$1+$1,$6,$7*
1,1,$1+$1,$8,$9*
0 Add four rect primitives between the rounded corners*
20,1,$1+$1,$2,$3,$4,$5,0*
20,1,$1+$1,$4,$5,$6,$7,0*
20,1,$1+$1,$6,$7,$8,$9,0*
20,1,$1+$1,$8,$9,$2,$3,0*%
G04 Aperture macros list end*
%ADD10C,0.010000*%
%ADD11RoundRect,0.135000X0.135000X0.185000X-0.135000X0.185000X-0.135000X-0.185000X0.135000X-0.185000X0*%
%ADD12R,0.375000X0.350000*%
%ADD13R,0.350000X0.375000*%
%ADD14RoundRect,0.135000X-0.135000X-0.185000X0.135000X-0.185000X0.135000X0.185000X-0.135000X0.185000X0*%
%ADD15RoundRect,0.140000X0.140000X0.170000X-0.140000X0.170000X-0.140000X-0.170000X0.140000X-0.170000X0*%
%ADD16RoundRect,0.140000X0.170000X-0.140000X0.170000X0.140000X-0.170000X0.140000X-0.170000X-0.140000X0*%
%ADD17RoundRect,0.135000X0.185000X-0.135000X0.185000X0.135000X-0.185000X0.135000X-0.185000X-0.135000X0*%
%ADD18RoundRect,0.140000X-0.140000X-0.170000X0.140000X-0.170000X0.140000X0.170000X-0.140000X0.170000X0*%
%ADD19R,0.762000X0.254000*%
%ADD20R,1.295400X2.006600*%
%ADD21RoundRect,0.150000X-0.587500X-0.150000X0.587500X-0.150000X0.587500X0.150000X-0.587500X0.150000X0*%
%ADD22R,0.550000X0.400000*%
%ADD23RoundRect,0.042000X-0.258000X0.943000X-0.258000X-0.943000X0.258000X-0.943000X0.258000X0.943000X0*%
%ADD24RoundRect,0.150000X-0.150000X0.587500X-0.150000X-0.587500X0.150000X-0.587500X0.150000X0.587500X0*%
%ADD25R,2.030000X1.140000*%
%ADD26R,0.254000X0.482600*%
%ADD27R,0.482600X0.254000*%
%ADD28RoundRect,0.140000X-0.170000X0.140000X-0.170000X-0.140000X0.170000X-0.140000X0.170000X0.140000X0*%
G04 APERTURE END LIST*
D10*
%TO.C,U9*%
X137875000Y-74750000D02*
X136825000Y-74750000D01*
X136825000Y-73550000D01*
X137125000Y-73250000D01*
X137875000Y-73250000D01*
X137875000Y-74750000D01*
G36*
X137875000Y-74750000D02*
G01*
X136825000Y-74750000D01*
X136825000Y-73550000D01*
X137125000Y-73250000D01*
X137875000Y-73250000D01*
X137875000Y-74750000D01*
G37*
%TD*%
D11*
%TO.C,R11*%
X138010000Y-102000000D03*
X136990000Y-102000000D03*
%TD*%
D12*
%TO.C,U12*%
X118837500Y-74850000D03*
X118837500Y-75350000D03*
X118837500Y-75850000D03*
X118837500Y-76350000D03*
D13*
X119350000Y-76362500D03*
X119850000Y-76362500D03*
D12*
X120362500Y-76350000D03*
X120362500Y-75850000D03*
X120362500Y-75350000D03*
X120362500Y-74850000D03*
D13*
X119850000Y-74837500D03*
X119350000Y-74837500D03*
%TD*%
D14*
%TO.C,R10*%
X154490000Y-101500000D03*
X155510000Y-101500000D03*
%TD*%
D15*
%TO.C,C10*%
X116822500Y-76350000D03*
X115862500Y-76350000D03*
%TD*%
D14*
%TO.C,R3*%
X132840000Y-73250000D03*
X133860000Y-73250000D03*
%TD*%
%TO.C,R12*%
X124990000Y-101000000D03*
X126010000Y-101000000D03*
%TD*%
D16*
%TO.C,C8*%
X141600000Y-74960000D03*
X141600000Y-74000000D03*
%TD*%
%TO.C,C14*%
X140500000Y-86730000D03*
X140500000Y-85770000D03*
%TD*%
D17*
%TO.C,R8*%
X150000000Y-67510000D03*
X150000000Y-66490000D03*
%TD*%
D18*
%TO.C,C11*%
X119320000Y-79400000D03*
X120280000Y-79400000D03*
%TD*%
D19*
%TO.C,U10*%
X135561600Y-85749999D03*
X135561600Y-86250000D03*
X135561600Y-86750000D03*
X135561600Y-87250001D03*
X138000000Y-87250001D03*
X138000000Y-86750000D03*
X138000000Y-86250000D03*
X138000000Y-85749999D03*
D20*
X136780800Y-86500000D03*
%TD*%
D18*
%TO.C,C4*%
X123040000Y-93750000D03*
X124000000Y-93750000D03*
%TD*%
D14*
%TO.C,R6*%
X146490000Y-102000000D03*
X147510000Y-102000000D03*
%TD*%
D17*
%TO.C,R5*%
X122000000Y-67510000D03*
X122000000Y-66490000D03*
%TD*%
D21*
%TO.C,Q3*%
X140625000Y-101050000D03*
X140625000Y-102950000D03*
X142500000Y-102000000D03*
%TD*%
D22*
%TO.C,U9*%
X136200000Y-73200000D03*
X136200000Y-74000000D03*
X136200000Y-74800000D03*
X138500000Y-74800000D03*
X138500000Y-74000000D03*
X138500000Y-73200000D03*
%TD*%
D17*
%TO.C,R4*%
X119500000Y-67510000D03*
X119500000Y-66490000D03*
%TD*%
D16*
%TO.C,C9*%
X130850000Y-73230000D03*
X130850000Y-72270000D03*
%TD*%
D21*
%TO.C,Q4*%
X150125000Y-101050000D03*
X150125000Y-102950000D03*
X152000000Y-102000000D03*
%TD*%
D11*
%TO.C,R13*%
X126010000Y-102000000D03*
X124990000Y-102000000D03*
%TD*%
D17*
%TO.C,R2*%
X124500000Y-67510000D03*
X124500000Y-66490000D03*
%TD*%
D23*
%TO.C,U11*%
X159505000Y-74925000D03*
X158235000Y-74925000D03*
X156965000Y-74925000D03*
X155695000Y-74925000D03*
X155695000Y-79875000D03*
X156965000Y-79875000D03*
X158235000Y-79875000D03*
X159505000Y-79875000D03*
%TD*%
D17*
%TO.C,R9*%
X147500000Y-67510000D03*
X147500000Y-66490000D03*
%TD*%
D24*
%TO.C,Q1*%
X122950000Y-100562500D03*
X121050000Y-100562500D03*
X122000000Y-102437500D03*
%TD*%
D17*
%TO.C,R1*%
X152500000Y-67510000D03*
X152500000Y-66490000D03*
%TD*%
D25*
%TO.C,U8*%
X150500000Y-89460000D03*
X150500000Y-92000000D03*
X150500000Y-94540000D03*
X150500000Y-97080000D03*
X161930000Y-97080000D03*
X161930000Y-94540000D03*
X161930000Y-92000000D03*
X161930000Y-89460000D03*
%TD*%
D14*
%TO.C,R7*%
X146490000Y-101000000D03*
X147510000Y-101000000D03*
%TD*%
D26*
%TO.C,U2*%
X120911300Y-89344300D03*
X121411299Y-89344300D03*
X121911301Y-89344300D03*
X122411300Y-89344300D03*
X122911299Y-89344300D03*
X123411301Y-89344300D03*
X123911300Y-89344300D03*
D27*
X124322600Y-90500000D03*
D26*
X123911300Y-91655700D03*
X123411301Y-91655700D03*
X122911299Y-91655700D03*
X122411300Y-91655700D03*
X121911301Y-91655700D03*
X121411299Y-91655700D03*
X120911300Y-91655700D03*
D27*
X120500000Y-90500000D03*
%TD*%
D18*
%TO.C,C5*%
X122000000Y-87500000D03*
X122960000Y-87500000D03*
%TD*%
D24*
%TO.C,Q2*%
X118500000Y-100562500D03*
X116600000Y-100562500D03*
X117550000Y-102437500D03*
%TD*%
D28*
%TO.C,C15*%
X147000000Y-91120000D03*
X147000000Y-92080000D03*
%TD*%
D18*
%TO.C,C12*%
X119320000Y-78000000D03*
X120280000Y-78000000D03*
%TD*%
D15*
%TO.C,C13*%
X159330000Y-82925000D03*
X158370000Y-82925000D03*
%TD*%
M02*
