%TF.GenerationSoftware,KiCad,Pcbnew,8.0.2*%
%TF.CreationDate,2024-05-07T14:02:44-06:00*%
%TF.ProjectId,PCB_Project,5043425f-5072-46f6-9a65-63742e6b6963,rev?*%
%TF.SameCoordinates,Original*%
%TF.FileFunction,Copper,L2,Bot*%
%TF.FilePolarity,Positive*%
%FSLAX46Y46*%
G04 Gerber Fmt 4.6, Leading zero omitted, Abs format (unit mm)*
G04 Created by KiCad (PCBNEW 8.0.2) date 2024-05-07 14:02:44*
%MOMM*%
%LPD*%
G01*
G04 APERTURE LIST*
G04 Aperture macros list*
%AMRoundRect*
0 Rectangle with rounded corners*
0 $1 Rounding radius*
0 $2 $3 $4 $5 $6 $7 $8 $9 X,Y pos of 4 corners*
0 Add a 4 corners polygon primitive as box body*
4,1,4,$2,$3,$4,$5,$6,$7,$8,$9,$2,$3,0*
0 Add four circle primitives for the rounded corners*
1,1,$1+$1,$2,$3*
1,1,$1+$1,$4,$5*
1,1,$1+$1,$6,$7*
1,1,$1+$1,$8,$9*
0 Add four rect primitives between the rounded corners*
20,1,$1+$1,$2,$3,$4,$5,0*
20,1,$1+$1,$4,$5,$6,$7,0*
20,1,$1+$1,$6,$7,$8,$9,0*
20,1,$1+$1,$8,$9,$2,$3,0*%
G04 Aperture macros list end*
%TA.AperFunction,ComponentPad*%
%ADD10R,1.700000X1.700000*%
%TD*%
%TA.AperFunction,ComponentPad*%
%ADD11O,1.700000X1.700000*%
%TD*%
%TA.AperFunction,ComponentPad*%
%ADD12RoundRect,0.250000X-0.350000X-0.625000X0.350000X-0.625000X0.350000X0.625000X-0.350000X0.625000X0*%
%TD*%
%TA.AperFunction,ComponentPad*%
%ADD13O,1.200000X1.750000*%
%TD*%
%TA.AperFunction,ComponentPad*%
%ADD14RoundRect,0.250000X-0.600000X-0.725000X0.600000X-0.725000X0.600000X0.725000X-0.600000X0.725000X0*%
%TD*%
%TA.AperFunction,ComponentPad*%
%ADD15O,1.700000X1.950000*%
%TD*%
%TA.AperFunction,ViaPad*%
%ADD16C,0.800000*%
%TD*%
%TA.AperFunction,Conductor*%
%ADD17C,0.250000*%
%TD*%
G04 APERTURE END LIST*
D10*
%TO.P,U4,1,3V3*%
%TO.N,+3V3*%
X117240000Y-62740000D03*
D11*
%TO.P,U4,2,5V*%
%TO.N,+5V*%
X117240000Y-60200000D03*
%TO.P,U4,3,GPIO_2*%
%TO.N,I2C_SCL_1*%
X119780000Y-62740000D03*
%TO.P,U4,4,5V*%
%TO.N,+5V*%
X119780000Y-60200000D03*
%TO.P,U4,5,GPIO_3*%
%TO.N,I2C_SDA_1*%
X122320000Y-62740000D03*
%TO.P,U4,6,GND*%
%TO.N,GND*%
X122320000Y-60200000D03*
%TO.P,U4,7,GPIO_4*%
%TO.N,I2C_SDA_2*%
X124860000Y-62740000D03*
%TO.P,U4,8,GPIO_14*%
%TO.N,Pi_TX*%
X124860000Y-60200000D03*
%TO.P,U4,9,GND*%
%TO.N,GND*%
X127400000Y-62740000D03*
%TO.P,U4,10,GPIO_15*%
%TO.N,Pi_RX*%
X127400000Y-60200000D03*
%TO.P,U4,11,GPIO_17*%
%TO.N,CSB_Gryo_BMI088*%
X129940000Y-62740000D03*
%TO.P,U4,12,GPIO_18*%
%TO.N,nCS_2*%
X129940000Y-60200000D03*
%TO.P,U4,13,GPIO_27*%
%TO.N,unconnected-(U4-GPIO_27-Pad13)*%
X132480000Y-62740000D03*
%TO.P,U4,14,GND*%
%TO.N,GND*%
X132480000Y-60200000D03*
%TO.P,U4,15,GPIO_22*%
%TO.N,unconnected-(U4-GPIO_22-Pad15)*%
X135020000Y-62740000D03*
%TO.P,U4,16,GPIO_23*%
%TO.N,unconnected-(U4-GPIO_23-Pad16)*%
X135020000Y-60200000D03*
%TO.P,U4,17,3V3*%
%TO.N,+3V3*%
X137560000Y-62740000D03*
%TO.P,U4,18,GPIO_24*%
%TO.N,unconnected-(U4-GPIO_24-Pad18)*%
X137560000Y-60200000D03*
%TO.P,U4,19,GPIO_10*%
%TO.N,SDI_1*%
X140100000Y-62740000D03*
%TO.P,U4,20,GND*%
%TO.N,GND*%
X140100000Y-60200000D03*
%TO.P,U4,21,GPIO_9*%
%TO.N,SDO_1*%
X142640000Y-62740000D03*
%TO.P,U4,22,GPIO_25*%
%TO.N,unconnected-(U4-GPIO_25-Pad22)*%
X142640000Y-60200000D03*
%TO.P,U4,23,GPIO_11*%
%TO.N,SCK_1*%
X145180000Y-62740000D03*
%TO.P,U4,24,GPIO_8*%
%TO.N,unconnected-(U4-GPIO_8-Pad24)*%
X145180000Y-60200000D03*
%TO.P,U4,25,GND*%
%TO.N,GND*%
X147720000Y-62740000D03*
%TO.P,U4,26,GPIO_7*%
%TO.N,CSB_Accel_BMI088*%
X147720000Y-60200000D03*
%TO.P,U4,27,GPIO_0*%
%TO.N,I2C_SDA_M*%
X150260000Y-62740000D03*
%TO.P,U4,28,GPIO_1*%
%TO.N,I2C_SCL_M*%
X150260000Y-60200000D03*
%TO.P,U4,29,GPIO_5*%
%TO.N,I2C_SCL_2*%
X152800000Y-62740000D03*
%TO.P,U4,30,GND*%
%TO.N,GND*%
X152800000Y-60200000D03*
%TO.P,U4,31,GPIO_6*%
%TO.N,unconnected-(U4-GPIO_6-Pad31)*%
X155340000Y-62740000D03*
%TO.P,U4,32,GPIO_12*%
%TO.N,unconnected-(U4-GPIO_12-Pad32)*%
X155340000Y-60200000D03*
%TO.P,U4,33,GPIO_13*%
%TO.N,unconnected-(U4-GPIO_13-Pad33)*%
X157880000Y-62740000D03*
%TO.P,U4,34,GND*%
%TO.N,GND*%
X157880000Y-60200000D03*
%TO.P,U4,35,GPIO_19*%
%TO.N,SDO_2*%
X160420000Y-62740000D03*
%TO.P,U4,36,GPIO_16*%
%TO.N,unconnected-(U4-GPIO_16-Pad36)*%
X160420000Y-60200000D03*
%TO.P,U4,37,GPIO_26*%
%TO.N,unconnected-(U4-GPIO_26-Pad37)*%
X162960000Y-62740000D03*
%TO.P,U4,38,GPIO_20*%
%TO.N,SDI_2*%
X162960000Y-60200000D03*
%TO.P,U4,39,GND*%
%TO.N,GND*%
X165500000Y-62740000D03*
%TO.P,U4,40,GPIO_21*%
%TO.N,SCLK_2*%
X165500000Y-60200000D03*
%TD*%
D12*
%TO.P,J4,1,Pin_1*%
%TO.N,I2C_SCL_M*%
X134500000Y-107550000D03*
D13*
%TO.P,J4,2,Pin_2*%
%TO.N,I2C_SDA_M*%
X136500000Y-107550000D03*
%TD*%
D12*
%TO.P,J5,1,Pin_1*%
%TO.N,I2C_SCL_M*%
X143000000Y-107550000D03*
D13*
%TO.P,J5,2,Pin_2*%
%TO.N,I2C_SDA_M*%
X145000000Y-107550000D03*
%TD*%
D14*
%TO.P,J2,1,Vin*%
%TO.N,+5V*%
X153500000Y-108000000D03*
D15*
%TO.P,J2,2,UART_TXD_(Out)*%
%TO.N,Pi_TX*%
X156000000Y-108000000D03*
%TO.P,J2,3,UART_RX_(In)*%
%TO.N,Pi_RX*%
X158500000Y-108000000D03*
%TO.P,J2,4,GND*%
%TO.N,GND*%
X161000000Y-108000000D03*
%TO.P,J2,5,Reserved*%
%TO.N,unconnected-(J2-Reserved-Pad5)*%
X163500000Y-108000000D03*
%TD*%
D12*
%TO.P,J6,1,Pin_1*%
%TO.N,I2C_SCL_M*%
X117750000Y-107450000D03*
D13*
%TO.P,J6,2,Pin_2*%
%TO.N,I2C_SDA_M*%
X119750000Y-107450000D03*
%TD*%
D12*
%TO.P,J3,1,Pin_1*%
%TO.N,I2C_SCL_M*%
X126250000Y-107550000D03*
D13*
%TO.P,J3,2,Pin_2*%
%TO.N,I2C_SDA_M*%
X128250000Y-107550000D03*
%TD*%
D16*
%TO.N,GND*%
X137600000Y-76000000D03*
X141000000Y-76200000D03*
%TO.N,I2C_SCL_1*%
X146200000Y-99800000D03*
%TO.N,I2C_SDA_1*%
X138000000Y-94800000D03*
X121200000Y-65800000D03*
X120400000Y-70000000D03*
%TO.N,I2C_SDA_2*%
X141800000Y-78200000D03*
%TO.N,I2C_SCL_M*%
X144400000Y-92800000D03*
X148100000Y-65700000D03*
%TO.N,I2C_SDA_M*%
X151400000Y-65800000D03*
X145400000Y-93400000D03*
%TO.N,+3V3*%
X137200000Y-67000000D03*
X137560000Y-64600000D03*
%TO.N,I2C_SCL_1*%
X119600000Y-68000000D03*
X119400000Y-70000000D03*
%TO.N,I2C_SDA_2*%
X125835308Y-65600000D03*
X134000000Y-74800000D03*
X129600000Y-70400000D03*
X127400000Y-70400000D03*
X136000000Y-76400000D03*
X136000000Y-83200000D03*
%TO.N,SDI_1*%
X133248800Y-82421500D03*
%TO.N,CSB_Accel_BMI088*%
X140640700Y-88034100D03*
%TD*%
D17*
%TO.N,Pi_TX*%
X156000000Y-108000000D02*
X156000000Y-107476100D01*
X156000000Y-107476100D02*
X123683300Y-75159400D01*
X123683300Y-75159400D02*
X123683300Y-61376700D01*
X123683300Y-61376700D02*
X124860000Y-60200000D01*
%TO.N,I2C_SDA_2*%
X125800000Y-68800000D02*
X127400000Y-70400000D01*
X125835308Y-65600000D02*
X125800000Y-65635308D01*
X125800000Y-65635308D02*
X125800000Y-68800000D01*
%TO.N,GND*%
X140800000Y-76000000D02*
X137600000Y-76000000D01*
X141000000Y-76200000D02*
X140800000Y-76000000D01*
%TO.N,I2C_SCL_1*%
X118000000Y-75825305D02*
X118000000Y-69600000D01*
X119400000Y-70000000D02*
X119400000Y-69000000D01*
X118000000Y-69600000D02*
X118800000Y-69600000D01*
X118800000Y-69600000D02*
X119400000Y-69000000D01*
X141974695Y-99800000D02*
X118000000Y-75825305D01*
X146200000Y-99800000D02*
X141974695Y-99800000D01*
X119400000Y-69000000D02*
X119400000Y-68200000D01*
%TO.N,I2C_SDA_1*%
X120400000Y-70000000D02*
X121200000Y-69200000D01*
X121200000Y-69200000D02*
X121200000Y-68400000D01*
X138000000Y-94800000D02*
X121200000Y-78000000D01*
X121200000Y-78000000D02*
X121200000Y-68400000D01*
X121200000Y-68400000D02*
X121200000Y-65800000D01*
%TO.N,+5V*%
X153500000Y-105615000D02*
X122800000Y-74915000D01*
X122800000Y-64881701D02*
X121145000Y-63226701D01*
X153500000Y-108000000D02*
X153500000Y-105615000D01*
X121145000Y-63226701D02*
X121145000Y-61565000D01*
X122800000Y-74915000D02*
X122800000Y-64881701D01*
X121145000Y-61565000D02*
X119780000Y-60200000D01*
%TO.N,I2C_SDA_2*%
X137800000Y-78200000D02*
X136000000Y-76400000D01*
X141800000Y-78200000D02*
X137800000Y-78200000D01*
%TO.N,I2C_SCL_M*%
X144974695Y-92800000D02*
X144400000Y-92800000D01*
X148100000Y-65700000D02*
X148200000Y-65800000D01*
X148200000Y-65800000D02*
X148200000Y-89574695D01*
X148200000Y-89574695D02*
X144974695Y-92800000D01*
%TO.N,I2C_SDA_M*%
X151400000Y-87400000D02*
X151400000Y-65800000D01*
X145400000Y-93400000D02*
X151400000Y-87400000D01*
%TO.N,+3V3*%
X137560000Y-66640000D02*
X137200000Y-67000000D01*
X137560000Y-64600000D02*
X137560000Y-66640000D01*
%TO.N,I2C_SCL_1*%
X119400000Y-68200000D02*
X119600000Y-68000000D01*
%TO.N,I2C_SDA_2*%
X134000000Y-74800000D02*
X129600000Y-70400000D01*
%TO.N,SDI_1*%
X140100000Y-62740000D02*
X140100000Y-66900000D01*
X140100000Y-66900000D02*
X135000000Y-72000000D01*
X135000000Y-72000000D02*
X135000000Y-80670300D01*
X135000000Y-80670300D02*
X133248800Y-82421500D01*
%TO.N,I2C_SDA_2*%
X136000000Y-83200000D02*
X136000000Y-76400000D01*
%TO.N,I2C_SCL_M*%
X119017300Y-108717300D02*
X117750000Y-107450000D01*
X125082700Y-108717300D02*
X119017300Y-108717300D01*
X126250000Y-107550000D02*
X125082700Y-108717300D01*
%TO.N,CSB_Accel_BMI088*%
X147352200Y-61376700D02*
X147720000Y-61376700D01*
X146543300Y-62185600D02*
X147352200Y-61376700D01*
X146543300Y-82131500D02*
X146543300Y-62185600D01*
X140640700Y-88034100D02*
X146543300Y-82131500D01*
X147720000Y-60200000D02*
X147720000Y-61376700D01*
%TO.N,Pi_RX*%
X158500000Y-108000000D02*
X156700000Y-106200000D01*
X156700000Y-106200000D02*
X155360296Y-106200000D01*
X128576700Y-79416404D02*
X128576700Y-62185600D01*
X128576700Y-62185600D02*
X127400000Y-61008900D01*
X155360296Y-106200000D02*
X128576700Y-79416404D01*
X127400000Y-61008900D02*
X127400000Y-60200000D01*
%TD*%
M02*
