M48
; DRILL file {KiCad 8.0.2} date 2024-05-17T09:05:58-0600
; FORMAT={-:-/ absolute / metric / decimal}
; #@! TF.CreationDate,2024-05-17T09:05:58-06:00
; #@! TF.GenerationSoftware,Kicad,Pcbnew,8.0.2
; #@! TF.FileFunction,Plated,1,2,PTH
FMAT,2
METRIC
; #@! TA.AperFunction,Plated,PTH,ViaDrill
T1C0.400
; #@! TA.AperFunction,Plated,PTH,ComponentDrill
T2C0.750
; #@! TA.AperFunction,Plated,PTH,ComponentDrill
T3C0.800
; #@! TA.AperFunction,Plated,PTH,ComponentDrill
T4C1.000
%
G90
G05
T1
X115.5Y-104.0
X116.5Y-82.0
X117.5Y-94.5
X118.0Y-73.0
X118.0Y-88.0
X119.5Y-65.0
X119.5Y-91.5
X120.0Y-88.0
X120.4Y-70.0
X120.5Y-104.5
X122.0Y-65.0
X122.0Y-84.5
X122.5Y-77.5
X123.0Y-110.5
X123.5Y-104.0
X124.0Y-96.0
X124.0Y-98.5
X124.0Y-100.0
X124.5Y-65.0
X125.0Y-93.5
X126.0Y-86.5
X126.0Y-99.0
X127.0Y-76.0
X127.0Y-81.5
X127.4Y-70.4
X127.5Y-64.5
X128.0Y-68.5
X129.5Y-90.5
X129.5Y-103.0
X129.6Y-70.4
X131.0Y-67.5
X131.5Y-86.5
X131.5Y-110.5
X132.0Y-71.5
X132.0Y-96.0
X132.5Y-101.0
X133.249Y-82.421
X134.0Y-74.8
X134.0Y-89.0
X134.0Y-102.0
X135.0Y-70.5
X136.0Y-76.4
X136.0Y-83.2
X136.0Y-96.0
X136.5Y-91.0
X137.0Y-79.5
X137.0Y-103.5
X137.56Y-67.0
X138.0Y-76.0
X138.0Y-94.8
X138.5Y-92.5
X139.5Y-110.5
X140.5Y-94.5
X140.5Y-98.5
X140.641Y-88.034
X141.0Y-76.2
X141.5Y-71.5
X141.8Y-78.2
X142.0Y-90.5
X142.5Y-82.0
X144.0Y-96.5
X144.4Y-92.8
X144.5Y-65.5
X144.5Y-86.5
X144.5Y-100.0
X145.4Y-93.4
X146.5Y-95.0
X146.5Y-97.5
X146.5Y-103.5
X148.0Y-65.0
X148.5Y-93.5
X149.0Y-110.0
X149.5Y-71.5
X149.5Y-77.5
X149.5Y-85.0
X150.25Y-65.0
X152.5Y-99.5
X152.5Y-103.5
X153.5Y-75.5
X154.0Y-71.5
X154.0Y-104.0
X154.5Y-94.0
X155.0Y-84.0
X156.5Y-102.5
X158.0Y-67.5
X158.5Y-90.5
X160.5Y-104.0
X164.0Y-69.5
X164.0Y-76.0
X165.5Y-99.0
X166.0Y-84.0
X167.0Y-111.0
T2
X117.75Y-107.45
X119.75Y-107.45
X126.25Y-107.55
X128.25Y-107.55
X134.5Y-107.55
X136.5Y-107.55
X143.0Y-107.55
X145.0Y-107.55
T3
X155.5Y-107.5
X157.5Y-107.5
X159.5Y-107.5
X161.5Y-107.5
X163.5Y-107.5
T4
X117.24Y-60.2
X117.24Y-62.74
X119.78Y-60.2
X119.78Y-62.74
X122.32Y-60.2
X122.32Y-62.74
X124.86Y-60.2
X124.86Y-62.74
X127.4Y-60.2
X127.4Y-62.74
X129.94Y-60.2
X129.94Y-62.74
X132.48Y-60.2
X132.48Y-62.74
X135.02Y-60.2
X135.02Y-62.74
X137.56Y-60.2
X137.56Y-62.74
X140.1Y-60.2
X140.1Y-62.74
X142.64Y-60.2
X142.64Y-62.74
X145.18Y-60.2
X145.18Y-62.74
X147.72Y-60.2
X147.72Y-62.74
X150.26Y-60.2
X150.26Y-62.74
X152.8Y-60.2
X152.8Y-62.74
X155.34Y-60.2
X155.34Y-62.74
X157.88Y-60.2
X157.88Y-62.74
X160.42Y-60.2
X160.42Y-62.74
X162.96Y-60.2
X162.96Y-62.74
X165.5Y-60.2
X165.5Y-62.74
M30
