M48
; DRILL file {KiCad 8.0.2} date 2024-05-07T14:03:00-0600
; FORMAT={-:-/ absolute / metric / decimal}
; #@! TF.CreationDate,2024-05-07T14:03:00-06:00
; #@! TF.GenerationSoftware,Kicad,Pcbnew,8.0.2
; #@! TF.FileFunction,Plated,1,2,PTH
FMAT,2
METRIC
; #@! TA.AperFunction,Plated,PTH,ViaDrill
T1C0.400
; #@! TA.AperFunction,Plated,PTH,ComponentDrill
T2C0.750
; #@! TA.AperFunction,Plated,PTH,ComponentDrill
T3C0.950
; #@! TA.AperFunction,Plated,PTH,ComponentDrill
T4C1.000
%
G90
G05
T1
X119.4Y-70.0
X119.6Y-68.0
X120.4Y-70.0
X121.2Y-65.8
X125.835Y-65.6
X127.4Y-70.4
X129.6Y-70.4
X133.249Y-82.421
X134.0Y-74.8
X136.0Y-76.4
X136.0Y-83.2
X137.2Y-67.0
X137.56Y-64.6
X137.6Y-76.0
X138.0Y-94.8
X140.641Y-88.034
X141.0Y-76.2
X141.8Y-78.2
X144.4Y-92.8
X145.4Y-93.4
X146.2Y-99.8
X148.1Y-65.7
X151.4Y-65.8
T2
X117.75Y-107.45
X119.75Y-107.45
X126.25Y-107.55
X128.25Y-107.55
X134.5Y-107.55
X136.5Y-107.55
X143.0Y-107.55
X145.0Y-107.55
T3
X153.5Y-108.0
X156.0Y-108.0
X158.5Y-108.0
X161.0Y-108.0
X163.5Y-108.0
T4
X117.24Y-60.2
X117.24Y-62.74
X119.78Y-60.2
X119.78Y-62.74
X122.32Y-60.2
X122.32Y-62.74
X124.86Y-60.2
X124.86Y-62.74
X127.4Y-60.2
X127.4Y-62.74
X129.94Y-60.2
X129.94Y-62.74
X132.48Y-60.2
X132.48Y-62.74
X135.02Y-60.2
X135.02Y-62.74
X137.56Y-60.2
X137.56Y-62.74
X140.1Y-60.2
X140.1Y-62.74
X142.64Y-60.2
X142.64Y-62.74
X145.18Y-60.2
X145.18Y-62.74
X147.72Y-60.2
X147.72Y-62.74
X150.26Y-60.2
X150.26Y-62.74
X152.8Y-60.2
X152.8Y-62.74
X155.34Y-60.2
X155.34Y-62.74
X157.88Y-60.2
X157.88Y-62.74
X160.42Y-60.2
X160.42Y-62.74
X162.96Y-60.2
X162.96Y-62.74
X165.5Y-60.2
X165.5Y-62.74
M30
