%TF.GenerationSoftware,KiCad,Pcbnew,8.0.2*%
%TF.CreationDate,2024-05-17T09:06:00-06:00*%
%TF.ProjectId,PCB_Project,5043425f-5072-46f6-9a65-63742e6b6963,rev?*%
%TF.SameCoordinates,Original*%
%TF.FileFunction,Drillmap*%
%TF.FilePolarity,Positive*%
%FSLAX45Y45*%
G04 Gerber Fmt 4.5, Leading zero omitted, Abs format (unit mm)*
G04 Created by KiCad (PCBNEW 8.0.2) date 2024-05-17 09:06:00*
%MOMM*%
%LPD*%
G01*
G04 APERTURE LIST*
%ADD10C,0.200000*%
%ADD11C,0.100000*%
G04 APERTURE END LIST*
D10*
X11350000Y-5750000D02*
X16850000Y-5750000D01*
X16850000Y-11250000D01*
X11350000Y-11250000D01*
X11350000Y-5750000D01*
D11*
X11530000Y-10380000D02*
X11570000Y-10420000D01*
X11570000Y-10380000D02*
X11530000Y-10420000D01*
X11630000Y-8180000D02*
X11670000Y-8220000D01*
X11670000Y-8180000D02*
X11630000Y-8220000D01*
X11730000Y-9430000D02*
X11770000Y-9470000D01*
X11770000Y-9430000D02*
X11730000Y-9470000D01*
X11780000Y-7280000D02*
X11820000Y-7320000D01*
X11820000Y-7280000D02*
X11780000Y-7320000D01*
X11780000Y-8780000D02*
X11820000Y-8820000D01*
X11820000Y-8780000D02*
X11780000Y-8820000D01*
X11930000Y-6480000D02*
X11970000Y-6520000D01*
X11970000Y-6480000D02*
X11930000Y-6520000D01*
X11930000Y-9130000D02*
X11970000Y-9170000D01*
X11970000Y-9130000D02*
X11930000Y-9170000D01*
X11980000Y-8780000D02*
X12020000Y-8820000D01*
X12020000Y-8780000D02*
X11980000Y-8820000D01*
X12020000Y-6980000D02*
X12060000Y-7020000D01*
X12060000Y-6980000D02*
X12020000Y-7020000D01*
X12030000Y-10430000D02*
X12070000Y-10470000D01*
X12070000Y-10430000D02*
X12030000Y-10470000D01*
X12180000Y-6480000D02*
X12220000Y-6520000D01*
X12220000Y-6480000D02*
X12180000Y-6520000D01*
X12180000Y-8430000D02*
X12220000Y-8470000D01*
X12220000Y-8430000D02*
X12180000Y-8470000D01*
X12230000Y-7730000D02*
X12270000Y-7770000D01*
X12270000Y-7730000D02*
X12230000Y-7770000D01*
X12280000Y-11030000D02*
X12320000Y-11070000D01*
X12320000Y-11030000D02*
X12280000Y-11070000D01*
X12330000Y-10380000D02*
X12370000Y-10420000D01*
X12370000Y-10380000D02*
X12330000Y-10420000D01*
X12380000Y-9580000D02*
X12420000Y-9620000D01*
X12420000Y-9580000D02*
X12380000Y-9620000D01*
X12380000Y-9830000D02*
X12420000Y-9870000D01*
X12420000Y-9830000D02*
X12380000Y-9870000D01*
X12380000Y-9980000D02*
X12420000Y-10020000D01*
X12420000Y-9980000D02*
X12380000Y-10020000D01*
X12430000Y-6480000D02*
X12470000Y-6520000D01*
X12470000Y-6480000D02*
X12430000Y-6520000D01*
X12480000Y-9330000D02*
X12520000Y-9370000D01*
X12520000Y-9330000D02*
X12480000Y-9370000D01*
X12580000Y-8630000D02*
X12620000Y-8670000D01*
X12620000Y-8630000D02*
X12580000Y-8670000D01*
X12580000Y-9880000D02*
X12620000Y-9920000D01*
X12620000Y-9880000D02*
X12580000Y-9920000D01*
X12680000Y-7580000D02*
X12720000Y-7620000D01*
X12720000Y-7580000D02*
X12680000Y-7620000D01*
X12680000Y-8130000D02*
X12720000Y-8170000D01*
X12720000Y-8130000D02*
X12680000Y-8170000D01*
X12720000Y-7020000D02*
X12760000Y-7060000D01*
X12760000Y-7020000D02*
X12720000Y-7060000D01*
X12730000Y-6430000D02*
X12770000Y-6470000D01*
X12770000Y-6430000D02*
X12730000Y-6470000D01*
X12780000Y-6830000D02*
X12820000Y-6870000D01*
X12820000Y-6830000D02*
X12780000Y-6870000D01*
X12930000Y-9030000D02*
X12970000Y-9070000D01*
X12970000Y-9030000D02*
X12930000Y-9070000D01*
X12930000Y-10280000D02*
X12970000Y-10320000D01*
X12970000Y-10280000D02*
X12930000Y-10320000D01*
X12940000Y-7020000D02*
X12980000Y-7060000D01*
X12980000Y-7020000D02*
X12940000Y-7060000D01*
X13080000Y-6730000D02*
X13120000Y-6770000D01*
X13120000Y-6730000D02*
X13080000Y-6770000D01*
X13130000Y-8630000D02*
X13170000Y-8670000D01*
X13170000Y-8630000D02*
X13130000Y-8670000D01*
X13130000Y-11030000D02*
X13170000Y-11070000D01*
X13170000Y-11030000D02*
X13130000Y-11070000D01*
X13180000Y-7130000D02*
X13220000Y-7170000D01*
X13220000Y-7130000D02*
X13180000Y-7170000D01*
X13180000Y-9580000D02*
X13220000Y-9620000D01*
X13220000Y-9580000D02*
X13180000Y-9620000D01*
X13230000Y-10080000D02*
X13270000Y-10120000D01*
X13270000Y-10080000D02*
X13230000Y-10120000D01*
X13304880Y-8222150D02*
X13344880Y-8262150D01*
X13344880Y-8222150D02*
X13304880Y-8262150D01*
X13380000Y-7460000D02*
X13420000Y-7500000D01*
X13420000Y-7460000D02*
X13380000Y-7500000D01*
X13380000Y-8880000D02*
X13420000Y-8920000D01*
X13420000Y-8880000D02*
X13380000Y-8920000D01*
X13380000Y-10180000D02*
X13420000Y-10220000D01*
X13420000Y-10180000D02*
X13380000Y-10220000D01*
X13480000Y-7030000D02*
X13520000Y-7070000D01*
X13520000Y-7030000D02*
X13480000Y-7070000D01*
X13580000Y-7620000D02*
X13620000Y-7660000D01*
X13620000Y-7620000D02*
X13580000Y-7660000D01*
X13580000Y-8300000D02*
X13620000Y-8340000D01*
X13620000Y-8300000D02*
X13580000Y-8340000D01*
X13580000Y-9580000D02*
X13620000Y-9620000D01*
X13620000Y-9580000D02*
X13580000Y-9620000D01*
X13630000Y-9080000D02*
X13670000Y-9120000D01*
X13670000Y-9080000D02*
X13630000Y-9120000D01*
X13680000Y-7930000D02*
X13720000Y-7970000D01*
X13720000Y-7930000D02*
X13680000Y-7970000D01*
X13680000Y-10330000D02*
X13720000Y-10370000D01*
X13720000Y-10330000D02*
X13680000Y-10370000D01*
X13736000Y-6680000D02*
X13776000Y-6720000D01*
X13776000Y-6680000D02*
X13736000Y-6720000D01*
X13780000Y-7580000D02*
X13820000Y-7620000D01*
X13820000Y-7580000D02*
X13780000Y-7620000D01*
X13780000Y-9460000D02*
X13820000Y-9500000D01*
X13820000Y-9460000D02*
X13780000Y-9500000D01*
X13830000Y-9230000D02*
X13870000Y-9270000D01*
X13870000Y-9230000D02*
X13830000Y-9270000D01*
X13930000Y-11030000D02*
X13970000Y-11070000D01*
X13970000Y-11030000D02*
X13930000Y-11070000D01*
X14030000Y-9430000D02*
X14070000Y-9470000D01*
X14070000Y-9430000D02*
X14030000Y-9470000D01*
X14030000Y-9830000D02*
X14070000Y-9870000D01*
X14070000Y-9830000D02*
X14030000Y-9870000D01*
X14044070Y-8783410D02*
X14084070Y-8823410D01*
X14084070Y-8783410D02*
X14044070Y-8823410D01*
X14080000Y-7600000D02*
X14120000Y-7640000D01*
X14120000Y-7600000D02*
X14080000Y-7640000D01*
X14130000Y-7130000D02*
X14170000Y-7170000D01*
X14170000Y-7130000D02*
X14130000Y-7170000D01*
X14160000Y-7800000D02*
X14200000Y-7840000D01*
X14200000Y-7800000D02*
X14160000Y-7840000D01*
X14180000Y-9030000D02*
X14220000Y-9070000D01*
X14220000Y-9030000D02*
X14180000Y-9070000D01*
X14230000Y-8180000D02*
X14270000Y-8220000D01*
X14270000Y-8180000D02*
X14230000Y-8220000D01*
X14380000Y-9630000D02*
X14420000Y-9670000D01*
X14420000Y-9630000D02*
X14380000Y-9670000D01*
X14420000Y-9260000D02*
X14460000Y-9300000D01*
X14460000Y-9260000D02*
X14420000Y-9300000D01*
X14430000Y-6530000D02*
X14470000Y-6570000D01*
X14470000Y-6530000D02*
X14430000Y-6570000D01*
X14430000Y-8630000D02*
X14470000Y-8670000D01*
X14470000Y-8630000D02*
X14430000Y-8670000D01*
X14430000Y-9980000D02*
X14470000Y-10020000D01*
X14470000Y-9980000D02*
X14430000Y-10020000D01*
X14520000Y-9320000D02*
X14560000Y-9360000D01*
X14560000Y-9320000D02*
X14520000Y-9360000D01*
X14630000Y-9480000D02*
X14670000Y-9520000D01*
X14670000Y-9480000D02*
X14630000Y-9520000D01*
X14630000Y-9730000D02*
X14670000Y-9770000D01*
X14670000Y-9730000D02*
X14630000Y-9770000D01*
X14630000Y-10330000D02*
X14670000Y-10370000D01*
X14670000Y-10330000D02*
X14630000Y-10370000D01*
X14780000Y-6480000D02*
X14820000Y-6520000D01*
X14820000Y-6480000D02*
X14780000Y-6520000D01*
X14830000Y-9330000D02*
X14870000Y-9370000D01*
X14870000Y-9330000D02*
X14830000Y-9370000D01*
X14880000Y-10980000D02*
X14920000Y-11020000D01*
X14920000Y-10980000D02*
X14880000Y-11020000D01*
X14930000Y-7130000D02*
X14970000Y-7170000D01*
X14970000Y-7130000D02*
X14930000Y-7170000D01*
X14930000Y-7730000D02*
X14970000Y-7770000D01*
X14970000Y-7730000D02*
X14930000Y-7770000D01*
X14930000Y-8480000D02*
X14970000Y-8520000D01*
X14970000Y-8480000D02*
X14930000Y-8520000D01*
X15005000Y-6480000D02*
X15045000Y-6520000D01*
X15045000Y-6480000D02*
X15005000Y-6520000D01*
X15230000Y-9930000D02*
X15270000Y-9970000D01*
X15270000Y-9930000D02*
X15230000Y-9970000D01*
X15230000Y-10330000D02*
X15270000Y-10370000D01*
X15270000Y-10330000D02*
X15230000Y-10370000D01*
X15330000Y-7530000D02*
X15370000Y-7570000D01*
X15370000Y-7530000D02*
X15330000Y-7570000D01*
X15380000Y-7130000D02*
X15420000Y-7170000D01*
X15420000Y-7130000D02*
X15380000Y-7170000D01*
X15380000Y-10380000D02*
X15420000Y-10420000D01*
X15420000Y-10380000D02*
X15380000Y-10420000D01*
X15430000Y-9380000D02*
X15470000Y-9420000D01*
X15470000Y-9380000D02*
X15430000Y-9420000D01*
X15480000Y-8380000D02*
X15520000Y-8420000D01*
X15520000Y-8380000D02*
X15480000Y-8420000D01*
X15630000Y-10230000D02*
X15670000Y-10270000D01*
X15670000Y-10230000D02*
X15630000Y-10270000D01*
X15780000Y-6730000D02*
X15820000Y-6770000D01*
X15820000Y-6730000D02*
X15780000Y-6770000D01*
X15830000Y-9030000D02*
X15870000Y-9070000D01*
X15870000Y-9030000D02*
X15830000Y-9070000D01*
X16030000Y-10380000D02*
X16070000Y-10420000D01*
X16070000Y-10380000D02*
X16030000Y-10420000D01*
X16380000Y-6930000D02*
X16420000Y-6970000D01*
X16420000Y-6930000D02*
X16380000Y-6970000D01*
X16380000Y-7580000D02*
X16420000Y-7620000D01*
X16420000Y-7580000D02*
X16380000Y-7620000D01*
X16530000Y-9880000D02*
X16570000Y-9920000D01*
X16570000Y-9880000D02*
X16530000Y-9920000D01*
X16580000Y-8380000D02*
X16620000Y-8420000D01*
X16620000Y-8380000D02*
X16580000Y-8420000D01*
X16680000Y-11080000D02*
X16720000Y-11120000D01*
X16720000Y-11080000D02*
X16680000Y-11120000D01*
X11812500Y-10745000D02*
G75*
G02*
X11737500Y-10745000I-37500J0D01*
G01*
X11737500Y-10745000D02*
G75*
G02*
X11812500Y-10745000I37500J0D01*
G01*
X12012500Y-10745000D02*
G75*
G02*
X11937500Y-10745000I-37500J0D01*
G01*
X11937500Y-10745000D02*
G75*
G02*
X12012500Y-10745000I37500J0D01*
G01*
X12662500Y-10755000D02*
G75*
G02*
X12587500Y-10755000I-37500J0D01*
G01*
X12587500Y-10755000D02*
G75*
G02*
X12662500Y-10755000I37500J0D01*
G01*
X12862500Y-10755000D02*
G75*
G02*
X12787500Y-10755000I-37500J0D01*
G01*
X12787500Y-10755000D02*
G75*
G02*
X12862500Y-10755000I37500J0D01*
G01*
X13487500Y-10755000D02*
G75*
G02*
X13412500Y-10755000I-37500J0D01*
G01*
X13412500Y-10755000D02*
G75*
G02*
X13487500Y-10755000I37500J0D01*
G01*
X13687500Y-10755000D02*
G75*
G02*
X13612500Y-10755000I-37500J0D01*
G01*
X13612500Y-10755000D02*
G75*
G02*
X13687500Y-10755000I37500J0D01*
G01*
X14337500Y-10755000D02*
G75*
G02*
X14262500Y-10755000I-37500J0D01*
G01*
X14262500Y-10755000D02*
G75*
G02*
X14337500Y-10755000I37500J0D01*
G01*
X14537500Y-10755000D02*
G75*
G02*
X14462500Y-10755000I-37500J0D01*
G01*
X14462500Y-10755000D02*
G75*
G02*
X14537500Y-10755000I37500J0D01*
G01*
X15550000Y-10710000D02*
X15550000Y-10790000D01*
X15510000Y-10750000D02*
X15590000Y-10750000D01*
X15750000Y-10710000D02*
X15750000Y-10790000D01*
X15710000Y-10750000D02*
X15790000Y-10750000D01*
X15950000Y-10710000D02*
X15950000Y-10790000D01*
X15910000Y-10750000D02*
X15990000Y-10750000D01*
X16150000Y-10710000D02*
X16150000Y-10790000D01*
X16110000Y-10750000D02*
X16190000Y-10750000D01*
X16350000Y-10710000D02*
X16350000Y-10790000D01*
X16310000Y-10750000D02*
X16390000Y-10750000D01*
X11759356Y-6055356D02*
X11759356Y-5984644D01*
X11688644Y-5984644D01*
X11688644Y-6055356D01*
X11759356Y-6055356D01*
X11759356Y-6309356D02*
X11759356Y-6238644D01*
X11688644Y-6238644D01*
X11688644Y-6309356D01*
X11759356Y-6309356D01*
X12013356Y-6055356D02*
X12013356Y-5984644D01*
X11942644Y-5984644D01*
X11942644Y-6055356D01*
X12013356Y-6055356D01*
X12013356Y-6309356D02*
X12013356Y-6238644D01*
X11942644Y-6238644D01*
X11942644Y-6309356D01*
X12013356Y-6309356D01*
X12267356Y-6055356D02*
X12267356Y-5984644D01*
X12196644Y-5984644D01*
X12196644Y-6055356D01*
X12267356Y-6055356D01*
X12267356Y-6309356D02*
X12267356Y-6238644D01*
X12196644Y-6238644D01*
X12196644Y-6309356D01*
X12267356Y-6309356D01*
X12521356Y-6055356D02*
X12521356Y-5984644D01*
X12450644Y-5984644D01*
X12450644Y-6055356D01*
X12521356Y-6055356D01*
X12521356Y-6309356D02*
X12521356Y-6238644D01*
X12450644Y-6238644D01*
X12450644Y-6309356D01*
X12521356Y-6309356D01*
X12775356Y-6055356D02*
X12775356Y-5984644D01*
X12704644Y-5984644D01*
X12704644Y-6055356D01*
X12775356Y-6055356D01*
X12775356Y-6309356D02*
X12775356Y-6238644D01*
X12704644Y-6238644D01*
X12704644Y-6309356D01*
X12775356Y-6309356D01*
X13029356Y-6055356D02*
X13029356Y-5984644D01*
X12958644Y-5984644D01*
X12958644Y-6055356D01*
X13029356Y-6055356D01*
X13029356Y-6309356D02*
X13029356Y-6238644D01*
X12958644Y-6238644D01*
X12958644Y-6309356D01*
X13029356Y-6309356D01*
X13283356Y-6055356D02*
X13283356Y-5984644D01*
X13212644Y-5984644D01*
X13212644Y-6055356D01*
X13283356Y-6055356D01*
X13283356Y-6309356D02*
X13283356Y-6238644D01*
X13212644Y-6238644D01*
X13212644Y-6309356D01*
X13283356Y-6309356D01*
X13537356Y-6055356D02*
X13537356Y-5984644D01*
X13466644Y-5984644D01*
X13466644Y-6055356D01*
X13537356Y-6055356D01*
X13537356Y-6309356D02*
X13537356Y-6238644D01*
X13466644Y-6238644D01*
X13466644Y-6309356D01*
X13537356Y-6309356D01*
X13791356Y-6055356D02*
X13791356Y-5984644D01*
X13720644Y-5984644D01*
X13720644Y-6055356D01*
X13791356Y-6055356D01*
X13791356Y-6309356D02*
X13791356Y-6238644D01*
X13720644Y-6238644D01*
X13720644Y-6309356D01*
X13791356Y-6309356D01*
X14045356Y-6055356D02*
X14045356Y-5984644D01*
X13974644Y-5984644D01*
X13974644Y-6055356D01*
X14045356Y-6055356D01*
X14045356Y-6309356D02*
X14045356Y-6238644D01*
X13974644Y-6238644D01*
X13974644Y-6309356D01*
X14045356Y-6309356D01*
X14299356Y-6055356D02*
X14299356Y-5984644D01*
X14228644Y-5984644D01*
X14228644Y-6055356D01*
X14299356Y-6055356D01*
X14299356Y-6309356D02*
X14299356Y-6238644D01*
X14228644Y-6238644D01*
X14228644Y-6309356D01*
X14299356Y-6309356D01*
X14553356Y-6055356D02*
X14553356Y-5984644D01*
X14482644Y-5984644D01*
X14482644Y-6055356D01*
X14553356Y-6055356D01*
X14553356Y-6309356D02*
X14553356Y-6238644D01*
X14482644Y-6238644D01*
X14482644Y-6309356D01*
X14553356Y-6309356D01*
X14807356Y-6055356D02*
X14807356Y-5984644D01*
X14736644Y-5984644D01*
X14736644Y-6055356D01*
X14807356Y-6055356D01*
X14807356Y-6309356D02*
X14807356Y-6238644D01*
X14736644Y-6238644D01*
X14736644Y-6309356D01*
X14807356Y-6309356D01*
X15061356Y-6055356D02*
X15061356Y-5984644D01*
X14990644Y-5984644D01*
X14990644Y-6055356D01*
X15061356Y-6055356D01*
X15061356Y-6309356D02*
X15061356Y-6238644D01*
X14990644Y-6238644D01*
X14990644Y-6309356D01*
X15061356Y-6309356D01*
X15315356Y-6055356D02*
X15315356Y-5984644D01*
X15244644Y-5984644D01*
X15244644Y-6055356D01*
X15315356Y-6055356D01*
X15315356Y-6309356D02*
X15315356Y-6238644D01*
X15244644Y-6238644D01*
X15244644Y-6309356D01*
X15315356Y-6309356D01*
X15569356Y-6055356D02*
X15569356Y-5984644D01*
X15498644Y-5984644D01*
X15498644Y-6055356D01*
X15569356Y-6055356D01*
X15569356Y-6309356D02*
X15569356Y-6238644D01*
X15498644Y-6238644D01*
X15498644Y-6309356D01*
X15569356Y-6309356D01*
X15823356Y-6055356D02*
X15823356Y-5984644D01*
X15752644Y-5984644D01*
X15752644Y-6055356D01*
X15823356Y-6055356D01*
X15823356Y-6309356D02*
X15823356Y-6238644D01*
X15752644Y-6238644D01*
X15752644Y-6309356D01*
X15823356Y-6309356D01*
X16077356Y-6055356D02*
X16077356Y-5984644D01*
X16006644Y-5984644D01*
X16006644Y-6055356D01*
X16077356Y-6055356D01*
X16077356Y-6309356D02*
X16077356Y-6238644D01*
X16006644Y-6238644D01*
X16006644Y-6309356D01*
X16077356Y-6309356D01*
X16331356Y-6055356D02*
X16331356Y-5984644D01*
X16260644Y-5984644D01*
X16260644Y-6055356D01*
X16331356Y-6055356D01*
X16331356Y-6309356D02*
X16331356Y-6238644D01*
X16260644Y-6238644D01*
X16260644Y-6309356D01*
X16331356Y-6309356D01*
X16585356Y-6055356D02*
X16585356Y-5984644D01*
X16514644Y-5984644D01*
X16514644Y-6055356D01*
X16585356Y-6055356D01*
X16585356Y-6309356D02*
X16585356Y-6238644D01*
X16514644Y-6238644D01*
X16514644Y-6309356D01*
X16585356Y-6309356D01*
D10*
X11600777Y-11571484D02*
X11600777Y-11371484D01*
X11600777Y-11371484D02*
X11648396Y-11371484D01*
X11648396Y-11371484D02*
X11676967Y-11381008D01*
X11676967Y-11381008D02*
X11696015Y-11400055D01*
X11696015Y-11400055D02*
X11705539Y-11419103D01*
X11705539Y-11419103D02*
X11715062Y-11457198D01*
X11715062Y-11457198D02*
X11715062Y-11485769D01*
X11715062Y-11485769D02*
X11705539Y-11523865D01*
X11705539Y-11523865D02*
X11696015Y-11542912D01*
X11696015Y-11542912D02*
X11676967Y-11561960D01*
X11676967Y-11561960D02*
X11648396Y-11571484D01*
X11648396Y-11571484D02*
X11600777Y-11571484D01*
X11800777Y-11571484D02*
X11800777Y-11438150D01*
X11800777Y-11476246D02*
X11810301Y-11457198D01*
X11810301Y-11457198D02*
X11819824Y-11447674D01*
X11819824Y-11447674D02*
X11838872Y-11438150D01*
X11838872Y-11438150D02*
X11857920Y-11438150D01*
X11924586Y-11571484D02*
X11924586Y-11438150D01*
X11924586Y-11371484D02*
X11915062Y-11381008D01*
X11915062Y-11381008D02*
X11924586Y-11390531D01*
X11924586Y-11390531D02*
X11934110Y-11381008D01*
X11934110Y-11381008D02*
X11924586Y-11371484D01*
X11924586Y-11371484D02*
X11924586Y-11390531D01*
X12048396Y-11571484D02*
X12029348Y-11561960D01*
X12029348Y-11561960D02*
X12019824Y-11542912D01*
X12019824Y-11542912D02*
X12019824Y-11371484D01*
X12153158Y-11571484D02*
X12134110Y-11561960D01*
X12134110Y-11561960D02*
X12124586Y-11542912D01*
X12124586Y-11542912D02*
X12124586Y-11371484D01*
X12381729Y-11571484D02*
X12381729Y-11371484D01*
X12381729Y-11371484D02*
X12448396Y-11514341D01*
X12448396Y-11514341D02*
X12515062Y-11371484D01*
X12515062Y-11371484D02*
X12515062Y-11571484D01*
X12696015Y-11571484D02*
X12696015Y-11466722D01*
X12696015Y-11466722D02*
X12686491Y-11447674D01*
X12686491Y-11447674D02*
X12667443Y-11438150D01*
X12667443Y-11438150D02*
X12629348Y-11438150D01*
X12629348Y-11438150D02*
X12610301Y-11447674D01*
X12696015Y-11561960D02*
X12676967Y-11571484D01*
X12676967Y-11571484D02*
X12629348Y-11571484D01*
X12629348Y-11571484D02*
X12610301Y-11561960D01*
X12610301Y-11561960D02*
X12600777Y-11542912D01*
X12600777Y-11542912D02*
X12600777Y-11523865D01*
X12600777Y-11523865D02*
X12610301Y-11504817D01*
X12610301Y-11504817D02*
X12629348Y-11495293D01*
X12629348Y-11495293D02*
X12676967Y-11495293D01*
X12676967Y-11495293D02*
X12696015Y-11485769D01*
X12791253Y-11438150D02*
X12791253Y-11638150D01*
X12791253Y-11447674D02*
X12810301Y-11438150D01*
X12810301Y-11438150D02*
X12848396Y-11438150D01*
X12848396Y-11438150D02*
X12867443Y-11447674D01*
X12867443Y-11447674D02*
X12876967Y-11457198D01*
X12876967Y-11457198D02*
X12886491Y-11476246D01*
X12886491Y-11476246D02*
X12886491Y-11533388D01*
X12886491Y-11533388D02*
X12876967Y-11552436D01*
X12876967Y-11552436D02*
X12867443Y-11561960D01*
X12867443Y-11561960D02*
X12848396Y-11571484D01*
X12848396Y-11571484D02*
X12810301Y-11571484D01*
X12810301Y-11571484D02*
X12791253Y-11561960D01*
X12972205Y-11552436D02*
X12981729Y-11561960D01*
X12981729Y-11561960D02*
X12972205Y-11571484D01*
X12972205Y-11571484D02*
X12962682Y-11561960D01*
X12962682Y-11561960D02*
X12972205Y-11552436D01*
X12972205Y-11552436D02*
X12972205Y-11571484D01*
X12972205Y-11447674D02*
X12981729Y-11457198D01*
X12981729Y-11457198D02*
X12972205Y-11466722D01*
X12972205Y-11466722D02*
X12962682Y-11457198D01*
X12962682Y-11457198D02*
X12972205Y-11447674D01*
X12972205Y-11447674D02*
X12972205Y-11466722D01*
D11*
X11300000Y-11880000D02*
X11340000Y-11920000D01*
X11340000Y-11880000D02*
X11300000Y-11920000D01*
D10*
X11638872Y-11791484D02*
X11657920Y-11791484D01*
X11657920Y-11791484D02*
X11676967Y-11801008D01*
X11676967Y-11801008D02*
X11686491Y-11810531D01*
X11686491Y-11810531D02*
X11696015Y-11829579D01*
X11696015Y-11829579D02*
X11705539Y-11867674D01*
X11705539Y-11867674D02*
X11705539Y-11915293D01*
X11705539Y-11915293D02*
X11696015Y-11953388D01*
X11696015Y-11953388D02*
X11686491Y-11972436D01*
X11686491Y-11972436D02*
X11676967Y-11981960D01*
X11676967Y-11981960D02*
X11657920Y-11991484D01*
X11657920Y-11991484D02*
X11638872Y-11991484D01*
X11638872Y-11991484D02*
X11619824Y-11981960D01*
X11619824Y-11981960D02*
X11610301Y-11972436D01*
X11610301Y-11972436D02*
X11600777Y-11953388D01*
X11600777Y-11953388D02*
X11591253Y-11915293D01*
X11591253Y-11915293D02*
X11591253Y-11867674D01*
X11591253Y-11867674D02*
X11600777Y-11829579D01*
X11600777Y-11829579D02*
X11610301Y-11810531D01*
X11610301Y-11810531D02*
X11619824Y-11801008D01*
X11619824Y-11801008D02*
X11638872Y-11791484D01*
X11791253Y-11972436D02*
X11800777Y-11981960D01*
X11800777Y-11981960D02*
X11791253Y-11991484D01*
X11791253Y-11991484D02*
X11781729Y-11981960D01*
X11781729Y-11981960D02*
X11791253Y-11972436D01*
X11791253Y-11972436D02*
X11791253Y-11991484D01*
X11972205Y-11858150D02*
X11972205Y-11991484D01*
X11924586Y-11781960D02*
X11876967Y-11924817D01*
X11876967Y-11924817D02*
X12000777Y-11924817D01*
X12115062Y-11791484D02*
X12134110Y-11791484D01*
X12134110Y-11791484D02*
X12153158Y-11801008D01*
X12153158Y-11801008D02*
X12162682Y-11810531D01*
X12162682Y-11810531D02*
X12172205Y-11829579D01*
X12172205Y-11829579D02*
X12181729Y-11867674D01*
X12181729Y-11867674D02*
X12181729Y-11915293D01*
X12181729Y-11915293D02*
X12172205Y-11953388D01*
X12172205Y-11953388D02*
X12162682Y-11972436D01*
X12162682Y-11972436D02*
X12153158Y-11981960D01*
X12153158Y-11981960D02*
X12134110Y-11991484D01*
X12134110Y-11991484D02*
X12115062Y-11991484D01*
X12115062Y-11991484D02*
X12096015Y-11981960D01*
X12096015Y-11981960D02*
X12086491Y-11972436D01*
X12086491Y-11972436D02*
X12076967Y-11953388D01*
X12076967Y-11953388D02*
X12067443Y-11915293D01*
X12067443Y-11915293D02*
X12067443Y-11867674D01*
X12067443Y-11867674D02*
X12076967Y-11829579D01*
X12076967Y-11829579D02*
X12086491Y-11810531D01*
X12086491Y-11810531D02*
X12096015Y-11801008D01*
X12096015Y-11801008D02*
X12115062Y-11791484D01*
X12305539Y-11791484D02*
X12324586Y-11791484D01*
X12324586Y-11791484D02*
X12343634Y-11801008D01*
X12343634Y-11801008D02*
X12353158Y-11810531D01*
X12353158Y-11810531D02*
X12362682Y-11829579D01*
X12362682Y-11829579D02*
X12372205Y-11867674D01*
X12372205Y-11867674D02*
X12372205Y-11915293D01*
X12372205Y-11915293D02*
X12362682Y-11953388D01*
X12362682Y-11953388D02*
X12353158Y-11972436D01*
X12353158Y-11972436D02*
X12343634Y-11981960D01*
X12343634Y-11981960D02*
X12324586Y-11991484D01*
X12324586Y-11991484D02*
X12305539Y-11991484D01*
X12305539Y-11991484D02*
X12286491Y-11981960D01*
X12286491Y-11981960D02*
X12276967Y-11972436D01*
X12276967Y-11972436D02*
X12267443Y-11953388D01*
X12267443Y-11953388D02*
X12257920Y-11915293D01*
X12257920Y-11915293D02*
X12257920Y-11867674D01*
X12257920Y-11867674D02*
X12267443Y-11829579D01*
X12267443Y-11829579D02*
X12276967Y-11810531D01*
X12276967Y-11810531D02*
X12286491Y-11801008D01*
X12286491Y-11801008D02*
X12305539Y-11791484D01*
X12457920Y-11991484D02*
X12457920Y-11858150D01*
X12457920Y-11877198D02*
X12467443Y-11867674D01*
X12467443Y-11867674D02*
X12486491Y-11858150D01*
X12486491Y-11858150D02*
X12515063Y-11858150D01*
X12515063Y-11858150D02*
X12534110Y-11867674D01*
X12534110Y-11867674D02*
X12543634Y-11886722D01*
X12543634Y-11886722D02*
X12543634Y-11991484D01*
X12543634Y-11886722D02*
X12553158Y-11867674D01*
X12553158Y-11867674D02*
X12572205Y-11858150D01*
X12572205Y-11858150D02*
X12600777Y-11858150D01*
X12600777Y-11858150D02*
X12619824Y-11867674D01*
X12619824Y-11867674D02*
X12629348Y-11886722D01*
X12629348Y-11886722D02*
X12629348Y-11991484D01*
X12724586Y-11991484D02*
X12724586Y-11858150D01*
X12724586Y-11877198D02*
X12734110Y-11867674D01*
X12734110Y-11867674D02*
X12753158Y-11858150D01*
X12753158Y-11858150D02*
X12781729Y-11858150D01*
X12781729Y-11858150D02*
X12800777Y-11867674D01*
X12800777Y-11867674D02*
X12810301Y-11886722D01*
X12810301Y-11886722D02*
X12810301Y-11991484D01*
X12810301Y-11886722D02*
X12819824Y-11867674D01*
X12819824Y-11867674D02*
X12838872Y-11858150D01*
X12838872Y-11858150D02*
X12867443Y-11858150D01*
X12867443Y-11858150D02*
X12886491Y-11867674D01*
X12886491Y-11867674D02*
X12896015Y-11886722D01*
X12896015Y-11886722D02*
X12896015Y-11991484D01*
X13286491Y-11781960D02*
X13115063Y-12039103D01*
X13543634Y-11791484D02*
X13562682Y-11791484D01*
X13562682Y-11791484D02*
X13581729Y-11801008D01*
X13581729Y-11801008D02*
X13591253Y-11810531D01*
X13591253Y-11810531D02*
X13600777Y-11829579D01*
X13600777Y-11829579D02*
X13610301Y-11867674D01*
X13610301Y-11867674D02*
X13610301Y-11915293D01*
X13610301Y-11915293D02*
X13600777Y-11953388D01*
X13600777Y-11953388D02*
X13591253Y-11972436D01*
X13591253Y-11972436D02*
X13581729Y-11981960D01*
X13581729Y-11981960D02*
X13562682Y-11991484D01*
X13562682Y-11991484D02*
X13543634Y-11991484D01*
X13543634Y-11991484D02*
X13524586Y-11981960D01*
X13524586Y-11981960D02*
X13515063Y-11972436D01*
X13515063Y-11972436D02*
X13505539Y-11953388D01*
X13505539Y-11953388D02*
X13496015Y-11915293D01*
X13496015Y-11915293D02*
X13496015Y-11867674D01*
X13496015Y-11867674D02*
X13505539Y-11829579D01*
X13505539Y-11829579D02*
X13515063Y-11810531D01*
X13515063Y-11810531D02*
X13524586Y-11801008D01*
X13524586Y-11801008D02*
X13543634Y-11791484D01*
X13696015Y-11972436D02*
X13705539Y-11981960D01*
X13705539Y-11981960D02*
X13696015Y-11991484D01*
X13696015Y-11991484D02*
X13686491Y-11981960D01*
X13686491Y-11981960D02*
X13696015Y-11972436D01*
X13696015Y-11972436D02*
X13696015Y-11991484D01*
X13829348Y-11791484D02*
X13848396Y-11791484D01*
X13848396Y-11791484D02*
X13867444Y-11801008D01*
X13867444Y-11801008D02*
X13876967Y-11810531D01*
X13876967Y-11810531D02*
X13886491Y-11829579D01*
X13886491Y-11829579D02*
X13896015Y-11867674D01*
X13896015Y-11867674D02*
X13896015Y-11915293D01*
X13896015Y-11915293D02*
X13886491Y-11953388D01*
X13886491Y-11953388D02*
X13876967Y-11972436D01*
X13876967Y-11972436D02*
X13867444Y-11981960D01*
X13867444Y-11981960D02*
X13848396Y-11991484D01*
X13848396Y-11991484D02*
X13829348Y-11991484D01*
X13829348Y-11991484D02*
X13810301Y-11981960D01*
X13810301Y-11981960D02*
X13800777Y-11972436D01*
X13800777Y-11972436D02*
X13791253Y-11953388D01*
X13791253Y-11953388D02*
X13781729Y-11915293D01*
X13781729Y-11915293D02*
X13781729Y-11867674D01*
X13781729Y-11867674D02*
X13791253Y-11829579D01*
X13791253Y-11829579D02*
X13800777Y-11810531D01*
X13800777Y-11810531D02*
X13810301Y-11801008D01*
X13810301Y-11801008D02*
X13829348Y-11791484D01*
X14086491Y-11991484D02*
X13972206Y-11991484D01*
X14029348Y-11991484D02*
X14029348Y-11791484D01*
X14029348Y-11791484D02*
X14010301Y-11820055D01*
X14010301Y-11820055D02*
X13991253Y-11839103D01*
X13991253Y-11839103D02*
X13972206Y-11848627D01*
X14267444Y-11791484D02*
X14172206Y-11791484D01*
X14172206Y-11791484D02*
X14162682Y-11886722D01*
X14162682Y-11886722D02*
X14172206Y-11877198D01*
X14172206Y-11877198D02*
X14191253Y-11867674D01*
X14191253Y-11867674D02*
X14238872Y-11867674D01*
X14238872Y-11867674D02*
X14257920Y-11877198D01*
X14257920Y-11877198D02*
X14267444Y-11886722D01*
X14267444Y-11886722D02*
X14276967Y-11905769D01*
X14276967Y-11905769D02*
X14276967Y-11953388D01*
X14276967Y-11953388D02*
X14267444Y-11972436D01*
X14267444Y-11972436D02*
X14257920Y-11981960D01*
X14257920Y-11981960D02*
X14238872Y-11991484D01*
X14238872Y-11991484D02*
X14191253Y-11991484D01*
X14191253Y-11991484D02*
X14172206Y-11981960D01*
X14172206Y-11981960D02*
X14162682Y-11972436D01*
X14343634Y-11791484D02*
X14476967Y-11791484D01*
X14476967Y-11791484D02*
X14391253Y-11991484D01*
X14543634Y-11791484D02*
X14543634Y-11829579D01*
X14619825Y-11791484D02*
X14619825Y-11829579D01*
X14915063Y-12067674D02*
X14905539Y-12058150D01*
X14905539Y-12058150D02*
X14886491Y-12029579D01*
X14886491Y-12029579D02*
X14876968Y-12010531D01*
X14876968Y-12010531D02*
X14867444Y-11981960D01*
X14867444Y-11981960D02*
X14857920Y-11934341D01*
X14857920Y-11934341D02*
X14857920Y-11896246D01*
X14857920Y-11896246D02*
X14867444Y-11848627D01*
X14867444Y-11848627D02*
X14876968Y-11820055D01*
X14876968Y-11820055D02*
X14886491Y-11801008D01*
X14886491Y-11801008D02*
X14905539Y-11772436D01*
X14905539Y-11772436D02*
X14915063Y-11762912D01*
X15000777Y-11991484D02*
X15038872Y-11991484D01*
X15038872Y-11991484D02*
X15057920Y-11981960D01*
X15057920Y-11981960D02*
X15067444Y-11972436D01*
X15067444Y-11972436D02*
X15086491Y-11943865D01*
X15086491Y-11943865D02*
X15096015Y-11905769D01*
X15096015Y-11905769D02*
X15096015Y-11829579D01*
X15096015Y-11829579D02*
X15086491Y-11810531D01*
X15086491Y-11810531D02*
X15076968Y-11801008D01*
X15076968Y-11801008D02*
X15057920Y-11791484D01*
X15057920Y-11791484D02*
X15019825Y-11791484D01*
X15019825Y-11791484D02*
X15000777Y-11801008D01*
X15000777Y-11801008D02*
X14991253Y-11810531D01*
X14991253Y-11810531D02*
X14981729Y-11829579D01*
X14981729Y-11829579D02*
X14981729Y-11877198D01*
X14981729Y-11877198D02*
X14991253Y-11896246D01*
X14991253Y-11896246D02*
X15000777Y-11905769D01*
X15000777Y-11905769D02*
X15019825Y-11915293D01*
X15019825Y-11915293D02*
X15057920Y-11915293D01*
X15057920Y-11915293D02*
X15076968Y-11905769D01*
X15076968Y-11905769D02*
X15086491Y-11896246D01*
X15086491Y-11896246D02*
X15096015Y-11877198D01*
X15172206Y-11810531D02*
X15181729Y-11801008D01*
X15181729Y-11801008D02*
X15200777Y-11791484D01*
X15200777Y-11791484D02*
X15248396Y-11791484D01*
X15248396Y-11791484D02*
X15267444Y-11801008D01*
X15267444Y-11801008D02*
X15276968Y-11810531D01*
X15276968Y-11810531D02*
X15286491Y-11829579D01*
X15286491Y-11829579D02*
X15286491Y-11848627D01*
X15286491Y-11848627D02*
X15276968Y-11877198D01*
X15276968Y-11877198D02*
X15162682Y-11991484D01*
X15162682Y-11991484D02*
X15286491Y-11991484D01*
X15524587Y-11991484D02*
X15524587Y-11791484D01*
X15610301Y-11991484D02*
X15610301Y-11886722D01*
X15610301Y-11886722D02*
X15600777Y-11867674D01*
X15600777Y-11867674D02*
X15581730Y-11858150D01*
X15581730Y-11858150D02*
X15553158Y-11858150D01*
X15553158Y-11858150D02*
X15534110Y-11867674D01*
X15534110Y-11867674D02*
X15524587Y-11877198D01*
X15734110Y-11991484D02*
X15715063Y-11981960D01*
X15715063Y-11981960D02*
X15705539Y-11972436D01*
X15705539Y-11972436D02*
X15696015Y-11953388D01*
X15696015Y-11953388D02*
X15696015Y-11896246D01*
X15696015Y-11896246D02*
X15705539Y-11877198D01*
X15705539Y-11877198D02*
X15715063Y-11867674D01*
X15715063Y-11867674D02*
X15734110Y-11858150D01*
X15734110Y-11858150D02*
X15762682Y-11858150D01*
X15762682Y-11858150D02*
X15781730Y-11867674D01*
X15781730Y-11867674D02*
X15791253Y-11877198D01*
X15791253Y-11877198D02*
X15800777Y-11896246D01*
X15800777Y-11896246D02*
X15800777Y-11953388D01*
X15800777Y-11953388D02*
X15791253Y-11972436D01*
X15791253Y-11972436D02*
X15781730Y-11981960D01*
X15781730Y-11981960D02*
X15762682Y-11991484D01*
X15762682Y-11991484D02*
X15734110Y-11991484D01*
X15915063Y-11991484D02*
X15896015Y-11981960D01*
X15896015Y-11981960D02*
X15886491Y-11962912D01*
X15886491Y-11962912D02*
X15886491Y-11791484D01*
X16067444Y-11981960D02*
X16048396Y-11991484D01*
X16048396Y-11991484D02*
X16010301Y-11991484D01*
X16010301Y-11991484D02*
X15991253Y-11981960D01*
X15991253Y-11981960D02*
X15981730Y-11962912D01*
X15981730Y-11962912D02*
X15981730Y-11886722D01*
X15981730Y-11886722D02*
X15991253Y-11867674D01*
X15991253Y-11867674D02*
X16010301Y-11858150D01*
X16010301Y-11858150D02*
X16048396Y-11858150D01*
X16048396Y-11858150D02*
X16067444Y-11867674D01*
X16067444Y-11867674D02*
X16076968Y-11886722D01*
X16076968Y-11886722D02*
X16076968Y-11905769D01*
X16076968Y-11905769D02*
X15981730Y-11924817D01*
X16153158Y-11981960D02*
X16172206Y-11991484D01*
X16172206Y-11991484D02*
X16210301Y-11991484D01*
X16210301Y-11991484D02*
X16229349Y-11981960D01*
X16229349Y-11981960D02*
X16238872Y-11962912D01*
X16238872Y-11962912D02*
X16238872Y-11953388D01*
X16238872Y-11953388D02*
X16229349Y-11934341D01*
X16229349Y-11934341D02*
X16210301Y-11924817D01*
X16210301Y-11924817D02*
X16181730Y-11924817D01*
X16181730Y-11924817D02*
X16162682Y-11915293D01*
X16162682Y-11915293D02*
X16153158Y-11896246D01*
X16153158Y-11896246D02*
X16153158Y-11886722D01*
X16153158Y-11886722D02*
X16162682Y-11867674D01*
X16162682Y-11867674D02*
X16181730Y-11858150D01*
X16181730Y-11858150D02*
X16210301Y-11858150D01*
X16210301Y-11858150D02*
X16229349Y-11867674D01*
X16305539Y-12067674D02*
X16315063Y-12058150D01*
X16315063Y-12058150D02*
X16334111Y-12029579D01*
X16334111Y-12029579D02*
X16343634Y-12010531D01*
X16343634Y-12010531D02*
X16353158Y-11981960D01*
X16353158Y-11981960D02*
X16362682Y-11934341D01*
X16362682Y-11934341D02*
X16362682Y-11896246D01*
X16362682Y-11896246D02*
X16353158Y-11848627D01*
X16353158Y-11848627D02*
X16343634Y-11820055D01*
X16343634Y-11820055D02*
X16334111Y-11801008D01*
X16334111Y-11801008D02*
X16315063Y-11772436D01*
X16315063Y-11772436D02*
X16305539Y-11762912D01*
D11*
X11340000Y-12164000D02*
G75*
G02*
X11265000Y-12164000I-37500J0D01*
G01*
X11265000Y-12164000D02*
G75*
G02*
X11340000Y-12164000I37500J0D01*
G01*
D10*
X11638872Y-12055484D02*
X11657920Y-12055484D01*
X11657920Y-12055484D02*
X11676967Y-12065008D01*
X11676967Y-12065008D02*
X11686491Y-12074531D01*
X11686491Y-12074531D02*
X11696015Y-12093579D01*
X11696015Y-12093579D02*
X11705539Y-12131674D01*
X11705539Y-12131674D02*
X11705539Y-12179293D01*
X11705539Y-12179293D02*
X11696015Y-12217388D01*
X11696015Y-12217388D02*
X11686491Y-12236436D01*
X11686491Y-12236436D02*
X11676967Y-12245960D01*
X11676967Y-12245960D02*
X11657920Y-12255484D01*
X11657920Y-12255484D02*
X11638872Y-12255484D01*
X11638872Y-12255484D02*
X11619824Y-12245960D01*
X11619824Y-12245960D02*
X11610301Y-12236436D01*
X11610301Y-12236436D02*
X11600777Y-12217388D01*
X11600777Y-12217388D02*
X11591253Y-12179293D01*
X11591253Y-12179293D02*
X11591253Y-12131674D01*
X11591253Y-12131674D02*
X11600777Y-12093579D01*
X11600777Y-12093579D02*
X11610301Y-12074531D01*
X11610301Y-12074531D02*
X11619824Y-12065008D01*
X11619824Y-12065008D02*
X11638872Y-12055484D01*
X11791253Y-12236436D02*
X11800777Y-12245960D01*
X11800777Y-12245960D02*
X11791253Y-12255484D01*
X11791253Y-12255484D02*
X11781729Y-12245960D01*
X11781729Y-12245960D02*
X11791253Y-12236436D01*
X11791253Y-12236436D02*
X11791253Y-12255484D01*
X11867443Y-12055484D02*
X12000777Y-12055484D01*
X12000777Y-12055484D02*
X11915062Y-12255484D01*
X12172205Y-12055484D02*
X12076967Y-12055484D01*
X12076967Y-12055484D02*
X12067443Y-12150722D01*
X12067443Y-12150722D02*
X12076967Y-12141198D01*
X12076967Y-12141198D02*
X12096015Y-12131674D01*
X12096015Y-12131674D02*
X12143634Y-12131674D01*
X12143634Y-12131674D02*
X12162682Y-12141198D01*
X12162682Y-12141198D02*
X12172205Y-12150722D01*
X12172205Y-12150722D02*
X12181729Y-12169769D01*
X12181729Y-12169769D02*
X12181729Y-12217388D01*
X12181729Y-12217388D02*
X12172205Y-12236436D01*
X12172205Y-12236436D02*
X12162682Y-12245960D01*
X12162682Y-12245960D02*
X12143634Y-12255484D01*
X12143634Y-12255484D02*
X12096015Y-12255484D01*
X12096015Y-12255484D02*
X12076967Y-12245960D01*
X12076967Y-12245960D02*
X12067443Y-12236436D01*
X12305539Y-12055484D02*
X12324586Y-12055484D01*
X12324586Y-12055484D02*
X12343634Y-12065008D01*
X12343634Y-12065008D02*
X12353158Y-12074531D01*
X12353158Y-12074531D02*
X12362682Y-12093579D01*
X12362682Y-12093579D02*
X12372205Y-12131674D01*
X12372205Y-12131674D02*
X12372205Y-12179293D01*
X12372205Y-12179293D02*
X12362682Y-12217388D01*
X12362682Y-12217388D02*
X12353158Y-12236436D01*
X12353158Y-12236436D02*
X12343634Y-12245960D01*
X12343634Y-12245960D02*
X12324586Y-12255484D01*
X12324586Y-12255484D02*
X12305539Y-12255484D01*
X12305539Y-12255484D02*
X12286491Y-12245960D01*
X12286491Y-12245960D02*
X12276967Y-12236436D01*
X12276967Y-12236436D02*
X12267443Y-12217388D01*
X12267443Y-12217388D02*
X12257920Y-12179293D01*
X12257920Y-12179293D02*
X12257920Y-12131674D01*
X12257920Y-12131674D02*
X12267443Y-12093579D01*
X12267443Y-12093579D02*
X12276967Y-12074531D01*
X12276967Y-12074531D02*
X12286491Y-12065008D01*
X12286491Y-12065008D02*
X12305539Y-12055484D01*
X12457920Y-12255484D02*
X12457920Y-12122150D01*
X12457920Y-12141198D02*
X12467443Y-12131674D01*
X12467443Y-12131674D02*
X12486491Y-12122150D01*
X12486491Y-12122150D02*
X12515063Y-12122150D01*
X12515063Y-12122150D02*
X12534110Y-12131674D01*
X12534110Y-12131674D02*
X12543634Y-12150722D01*
X12543634Y-12150722D02*
X12543634Y-12255484D01*
X12543634Y-12150722D02*
X12553158Y-12131674D01*
X12553158Y-12131674D02*
X12572205Y-12122150D01*
X12572205Y-12122150D02*
X12600777Y-12122150D01*
X12600777Y-12122150D02*
X12619824Y-12131674D01*
X12619824Y-12131674D02*
X12629348Y-12150722D01*
X12629348Y-12150722D02*
X12629348Y-12255484D01*
X12724586Y-12255484D02*
X12724586Y-12122150D01*
X12724586Y-12141198D02*
X12734110Y-12131674D01*
X12734110Y-12131674D02*
X12753158Y-12122150D01*
X12753158Y-12122150D02*
X12781729Y-12122150D01*
X12781729Y-12122150D02*
X12800777Y-12131674D01*
X12800777Y-12131674D02*
X12810301Y-12150722D01*
X12810301Y-12150722D02*
X12810301Y-12255484D01*
X12810301Y-12150722D02*
X12819824Y-12131674D01*
X12819824Y-12131674D02*
X12838872Y-12122150D01*
X12838872Y-12122150D02*
X12867443Y-12122150D01*
X12867443Y-12122150D02*
X12886491Y-12131674D01*
X12886491Y-12131674D02*
X12896015Y-12150722D01*
X12896015Y-12150722D02*
X12896015Y-12255484D01*
X13286491Y-12045960D02*
X13115063Y-12303103D01*
X13543634Y-12055484D02*
X13562682Y-12055484D01*
X13562682Y-12055484D02*
X13581729Y-12065008D01*
X13581729Y-12065008D02*
X13591253Y-12074531D01*
X13591253Y-12074531D02*
X13600777Y-12093579D01*
X13600777Y-12093579D02*
X13610301Y-12131674D01*
X13610301Y-12131674D02*
X13610301Y-12179293D01*
X13610301Y-12179293D02*
X13600777Y-12217388D01*
X13600777Y-12217388D02*
X13591253Y-12236436D01*
X13591253Y-12236436D02*
X13581729Y-12245960D01*
X13581729Y-12245960D02*
X13562682Y-12255484D01*
X13562682Y-12255484D02*
X13543634Y-12255484D01*
X13543634Y-12255484D02*
X13524586Y-12245960D01*
X13524586Y-12245960D02*
X13515063Y-12236436D01*
X13515063Y-12236436D02*
X13505539Y-12217388D01*
X13505539Y-12217388D02*
X13496015Y-12179293D01*
X13496015Y-12179293D02*
X13496015Y-12131674D01*
X13496015Y-12131674D02*
X13505539Y-12093579D01*
X13505539Y-12093579D02*
X13515063Y-12074531D01*
X13515063Y-12074531D02*
X13524586Y-12065008D01*
X13524586Y-12065008D02*
X13543634Y-12055484D01*
X13696015Y-12236436D02*
X13705539Y-12245960D01*
X13705539Y-12245960D02*
X13696015Y-12255484D01*
X13696015Y-12255484D02*
X13686491Y-12245960D01*
X13686491Y-12245960D02*
X13696015Y-12236436D01*
X13696015Y-12236436D02*
X13696015Y-12255484D01*
X13829348Y-12055484D02*
X13848396Y-12055484D01*
X13848396Y-12055484D02*
X13867444Y-12065008D01*
X13867444Y-12065008D02*
X13876967Y-12074531D01*
X13876967Y-12074531D02*
X13886491Y-12093579D01*
X13886491Y-12093579D02*
X13896015Y-12131674D01*
X13896015Y-12131674D02*
X13896015Y-12179293D01*
X13896015Y-12179293D02*
X13886491Y-12217388D01*
X13886491Y-12217388D02*
X13876967Y-12236436D01*
X13876967Y-12236436D02*
X13867444Y-12245960D01*
X13867444Y-12245960D02*
X13848396Y-12255484D01*
X13848396Y-12255484D02*
X13829348Y-12255484D01*
X13829348Y-12255484D02*
X13810301Y-12245960D01*
X13810301Y-12245960D02*
X13800777Y-12236436D01*
X13800777Y-12236436D02*
X13791253Y-12217388D01*
X13791253Y-12217388D02*
X13781729Y-12179293D01*
X13781729Y-12179293D02*
X13781729Y-12131674D01*
X13781729Y-12131674D02*
X13791253Y-12093579D01*
X13791253Y-12093579D02*
X13800777Y-12074531D01*
X13800777Y-12074531D02*
X13810301Y-12065008D01*
X13810301Y-12065008D02*
X13829348Y-12055484D01*
X13972206Y-12074531D02*
X13981729Y-12065008D01*
X13981729Y-12065008D02*
X14000777Y-12055484D01*
X14000777Y-12055484D02*
X14048396Y-12055484D01*
X14048396Y-12055484D02*
X14067444Y-12065008D01*
X14067444Y-12065008D02*
X14076967Y-12074531D01*
X14076967Y-12074531D02*
X14086491Y-12093579D01*
X14086491Y-12093579D02*
X14086491Y-12112627D01*
X14086491Y-12112627D02*
X14076967Y-12141198D01*
X14076967Y-12141198D02*
X13962682Y-12255484D01*
X13962682Y-12255484D02*
X14086491Y-12255484D01*
X14181729Y-12255484D02*
X14219825Y-12255484D01*
X14219825Y-12255484D02*
X14238872Y-12245960D01*
X14238872Y-12245960D02*
X14248396Y-12236436D01*
X14248396Y-12236436D02*
X14267444Y-12207865D01*
X14267444Y-12207865D02*
X14276967Y-12169769D01*
X14276967Y-12169769D02*
X14276967Y-12093579D01*
X14276967Y-12093579D02*
X14267444Y-12074531D01*
X14267444Y-12074531D02*
X14257920Y-12065008D01*
X14257920Y-12065008D02*
X14238872Y-12055484D01*
X14238872Y-12055484D02*
X14200777Y-12055484D01*
X14200777Y-12055484D02*
X14181729Y-12065008D01*
X14181729Y-12065008D02*
X14172206Y-12074531D01*
X14172206Y-12074531D02*
X14162682Y-12093579D01*
X14162682Y-12093579D02*
X14162682Y-12141198D01*
X14162682Y-12141198D02*
X14172206Y-12160246D01*
X14172206Y-12160246D02*
X14181729Y-12169769D01*
X14181729Y-12169769D02*
X14200777Y-12179293D01*
X14200777Y-12179293D02*
X14238872Y-12179293D01*
X14238872Y-12179293D02*
X14257920Y-12169769D01*
X14257920Y-12169769D02*
X14267444Y-12160246D01*
X14267444Y-12160246D02*
X14276967Y-12141198D01*
X14457920Y-12055484D02*
X14362682Y-12055484D01*
X14362682Y-12055484D02*
X14353158Y-12150722D01*
X14353158Y-12150722D02*
X14362682Y-12141198D01*
X14362682Y-12141198D02*
X14381729Y-12131674D01*
X14381729Y-12131674D02*
X14429348Y-12131674D01*
X14429348Y-12131674D02*
X14448396Y-12141198D01*
X14448396Y-12141198D02*
X14457920Y-12150722D01*
X14457920Y-12150722D02*
X14467444Y-12169769D01*
X14467444Y-12169769D02*
X14467444Y-12217388D01*
X14467444Y-12217388D02*
X14457920Y-12236436D01*
X14457920Y-12236436D02*
X14448396Y-12245960D01*
X14448396Y-12245960D02*
X14429348Y-12255484D01*
X14429348Y-12255484D02*
X14381729Y-12255484D01*
X14381729Y-12255484D02*
X14362682Y-12245960D01*
X14362682Y-12245960D02*
X14353158Y-12236436D01*
X14543634Y-12055484D02*
X14543634Y-12093579D01*
X14619825Y-12055484D02*
X14619825Y-12093579D01*
X14915063Y-12331674D02*
X14905539Y-12322150D01*
X14905539Y-12322150D02*
X14886491Y-12293579D01*
X14886491Y-12293579D02*
X14876968Y-12274531D01*
X14876968Y-12274531D02*
X14867444Y-12245960D01*
X14867444Y-12245960D02*
X14857920Y-12198341D01*
X14857920Y-12198341D02*
X14857920Y-12160246D01*
X14857920Y-12160246D02*
X14867444Y-12112627D01*
X14867444Y-12112627D02*
X14876968Y-12084055D01*
X14876968Y-12084055D02*
X14886491Y-12065008D01*
X14886491Y-12065008D02*
X14905539Y-12036436D01*
X14905539Y-12036436D02*
X14915063Y-12026912D01*
X15019825Y-12141198D02*
X15000777Y-12131674D01*
X15000777Y-12131674D02*
X14991253Y-12122150D01*
X14991253Y-12122150D02*
X14981729Y-12103103D01*
X14981729Y-12103103D02*
X14981729Y-12093579D01*
X14981729Y-12093579D02*
X14991253Y-12074531D01*
X14991253Y-12074531D02*
X15000777Y-12065008D01*
X15000777Y-12065008D02*
X15019825Y-12055484D01*
X15019825Y-12055484D02*
X15057920Y-12055484D01*
X15057920Y-12055484D02*
X15076968Y-12065008D01*
X15076968Y-12065008D02*
X15086491Y-12074531D01*
X15086491Y-12074531D02*
X15096015Y-12093579D01*
X15096015Y-12093579D02*
X15096015Y-12103103D01*
X15096015Y-12103103D02*
X15086491Y-12122150D01*
X15086491Y-12122150D02*
X15076968Y-12131674D01*
X15076968Y-12131674D02*
X15057920Y-12141198D01*
X15057920Y-12141198D02*
X15019825Y-12141198D01*
X15019825Y-12141198D02*
X15000777Y-12150722D01*
X15000777Y-12150722D02*
X14991253Y-12160246D01*
X14991253Y-12160246D02*
X14981729Y-12179293D01*
X14981729Y-12179293D02*
X14981729Y-12217388D01*
X14981729Y-12217388D02*
X14991253Y-12236436D01*
X14991253Y-12236436D02*
X15000777Y-12245960D01*
X15000777Y-12245960D02*
X15019825Y-12255484D01*
X15019825Y-12255484D02*
X15057920Y-12255484D01*
X15057920Y-12255484D02*
X15076968Y-12245960D01*
X15076968Y-12245960D02*
X15086491Y-12236436D01*
X15086491Y-12236436D02*
X15096015Y-12217388D01*
X15096015Y-12217388D02*
X15096015Y-12179293D01*
X15096015Y-12179293D02*
X15086491Y-12160246D01*
X15086491Y-12160246D02*
X15076968Y-12150722D01*
X15076968Y-12150722D02*
X15057920Y-12141198D01*
X15334110Y-12255484D02*
X15334110Y-12055484D01*
X15419825Y-12255484D02*
X15419825Y-12150722D01*
X15419825Y-12150722D02*
X15410301Y-12131674D01*
X15410301Y-12131674D02*
X15391253Y-12122150D01*
X15391253Y-12122150D02*
X15362682Y-12122150D01*
X15362682Y-12122150D02*
X15343634Y-12131674D01*
X15343634Y-12131674D02*
X15334110Y-12141198D01*
X15543634Y-12255484D02*
X15524587Y-12245960D01*
X15524587Y-12245960D02*
X15515063Y-12236436D01*
X15515063Y-12236436D02*
X15505539Y-12217388D01*
X15505539Y-12217388D02*
X15505539Y-12160246D01*
X15505539Y-12160246D02*
X15515063Y-12141198D01*
X15515063Y-12141198D02*
X15524587Y-12131674D01*
X15524587Y-12131674D02*
X15543634Y-12122150D01*
X15543634Y-12122150D02*
X15572206Y-12122150D01*
X15572206Y-12122150D02*
X15591253Y-12131674D01*
X15591253Y-12131674D02*
X15600777Y-12141198D01*
X15600777Y-12141198D02*
X15610301Y-12160246D01*
X15610301Y-12160246D02*
X15610301Y-12217388D01*
X15610301Y-12217388D02*
X15600777Y-12236436D01*
X15600777Y-12236436D02*
X15591253Y-12245960D01*
X15591253Y-12245960D02*
X15572206Y-12255484D01*
X15572206Y-12255484D02*
X15543634Y-12255484D01*
X15724587Y-12255484D02*
X15705539Y-12245960D01*
X15705539Y-12245960D02*
X15696015Y-12226912D01*
X15696015Y-12226912D02*
X15696015Y-12055484D01*
X15876968Y-12245960D02*
X15857920Y-12255484D01*
X15857920Y-12255484D02*
X15819825Y-12255484D01*
X15819825Y-12255484D02*
X15800777Y-12245960D01*
X15800777Y-12245960D02*
X15791253Y-12226912D01*
X15791253Y-12226912D02*
X15791253Y-12150722D01*
X15791253Y-12150722D02*
X15800777Y-12131674D01*
X15800777Y-12131674D02*
X15819825Y-12122150D01*
X15819825Y-12122150D02*
X15857920Y-12122150D01*
X15857920Y-12122150D02*
X15876968Y-12131674D01*
X15876968Y-12131674D02*
X15886491Y-12150722D01*
X15886491Y-12150722D02*
X15886491Y-12169769D01*
X15886491Y-12169769D02*
X15791253Y-12188817D01*
X15962682Y-12245960D02*
X15981730Y-12255484D01*
X15981730Y-12255484D02*
X16019825Y-12255484D01*
X16019825Y-12255484D02*
X16038872Y-12245960D01*
X16038872Y-12245960D02*
X16048396Y-12226912D01*
X16048396Y-12226912D02*
X16048396Y-12217388D01*
X16048396Y-12217388D02*
X16038872Y-12198341D01*
X16038872Y-12198341D02*
X16019825Y-12188817D01*
X16019825Y-12188817D02*
X15991253Y-12188817D01*
X15991253Y-12188817D02*
X15972206Y-12179293D01*
X15972206Y-12179293D02*
X15962682Y-12160246D01*
X15962682Y-12160246D02*
X15962682Y-12150722D01*
X15962682Y-12150722D02*
X15972206Y-12131674D01*
X15972206Y-12131674D02*
X15991253Y-12122150D01*
X15991253Y-12122150D02*
X16019825Y-12122150D01*
X16019825Y-12122150D02*
X16038872Y-12131674D01*
X16115063Y-12331674D02*
X16124587Y-12322150D01*
X16124587Y-12322150D02*
X16143634Y-12293579D01*
X16143634Y-12293579D02*
X16153158Y-12274531D01*
X16153158Y-12274531D02*
X16162682Y-12245960D01*
X16162682Y-12245960D02*
X16172206Y-12198341D01*
X16172206Y-12198341D02*
X16172206Y-12160246D01*
X16172206Y-12160246D02*
X16162682Y-12112627D01*
X16162682Y-12112627D02*
X16153158Y-12084055D01*
X16153158Y-12084055D02*
X16143634Y-12065008D01*
X16143634Y-12065008D02*
X16124587Y-12036436D01*
X16124587Y-12036436D02*
X16115063Y-12026912D01*
D11*
X11300000Y-12388000D02*
X11300000Y-12468000D01*
X11260000Y-12428000D02*
X11340000Y-12428000D01*
D10*
X11638872Y-12319484D02*
X11657920Y-12319484D01*
X11657920Y-12319484D02*
X11676967Y-12329008D01*
X11676967Y-12329008D02*
X11686491Y-12338531D01*
X11686491Y-12338531D02*
X11696015Y-12357579D01*
X11696015Y-12357579D02*
X11705539Y-12395674D01*
X11705539Y-12395674D02*
X11705539Y-12443293D01*
X11705539Y-12443293D02*
X11696015Y-12481388D01*
X11696015Y-12481388D02*
X11686491Y-12500436D01*
X11686491Y-12500436D02*
X11676967Y-12509960D01*
X11676967Y-12509960D02*
X11657920Y-12519484D01*
X11657920Y-12519484D02*
X11638872Y-12519484D01*
X11638872Y-12519484D02*
X11619824Y-12509960D01*
X11619824Y-12509960D02*
X11610301Y-12500436D01*
X11610301Y-12500436D02*
X11600777Y-12481388D01*
X11600777Y-12481388D02*
X11591253Y-12443293D01*
X11591253Y-12443293D02*
X11591253Y-12395674D01*
X11591253Y-12395674D02*
X11600777Y-12357579D01*
X11600777Y-12357579D02*
X11610301Y-12338531D01*
X11610301Y-12338531D02*
X11619824Y-12329008D01*
X11619824Y-12329008D02*
X11638872Y-12319484D01*
X11791253Y-12500436D02*
X11800777Y-12509960D01*
X11800777Y-12509960D02*
X11791253Y-12519484D01*
X11791253Y-12519484D02*
X11781729Y-12509960D01*
X11781729Y-12509960D02*
X11791253Y-12500436D01*
X11791253Y-12500436D02*
X11791253Y-12519484D01*
X11915062Y-12405198D02*
X11896015Y-12395674D01*
X11896015Y-12395674D02*
X11886491Y-12386150D01*
X11886491Y-12386150D02*
X11876967Y-12367103D01*
X11876967Y-12367103D02*
X11876967Y-12357579D01*
X11876967Y-12357579D02*
X11886491Y-12338531D01*
X11886491Y-12338531D02*
X11896015Y-12329008D01*
X11896015Y-12329008D02*
X11915062Y-12319484D01*
X11915062Y-12319484D02*
X11953158Y-12319484D01*
X11953158Y-12319484D02*
X11972205Y-12329008D01*
X11972205Y-12329008D02*
X11981729Y-12338531D01*
X11981729Y-12338531D02*
X11991253Y-12357579D01*
X11991253Y-12357579D02*
X11991253Y-12367103D01*
X11991253Y-12367103D02*
X11981729Y-12386150D01*
X11981729Y-12386150D02*
X11972205Y-12395674D01*
X11972205Y-12395674D02*
X11953158Y-12405198D01*
X11953158Y-12405198D02*
X11915062Y-12405198D01*
X11915062Y-12405198D02*
X11896015Y-12414722D01*
X11896015Y-12414722D02*
X11886491Y-12424246D01*
X11886491Y-12424246D02*
X11876967Y-12443293D01*
X11876967Y-12443293D02*
X11876967Y-12481388D01*
X11876967Y-12481388D02*
X11886491Y-12500436D01*
X11886491Y-12500436D02*
X11896015Y-12509960D01*
X11896015Y-12509960D02*
X11915062Y-12519484D01*
X11915062Y-12519484D02*
X11953158Y-12519484D01*
X11953158Y-12519484D02*
X11972205Y-12509960D01*
X11972205Y-12509960D02*
X11981729Y-12500436D01*
X11981729Y-12500436D02*
X11991253Y-12481388D01*
X11991253Y-12481388D02*
X11991253Y-12443293D01*
X11991253Y-12443293D02*
X11981729Y-12424246D01*
X11981729Y-12424246D02*
X11972205Y-12414722D01*
X11972205Y-12414722D02*
X11953158Y-12405198D01*
X12115062Y-12319484D02*
X12134110Y-12319484D01*
X12134110Y-12319484D02*
X12153158Y-12329008D01*
X12153158Y-12329008D02*
X12162682Y-12338531D01*
X12162682Y-12338531D02*
X12172205Y-12357579D01*
X12172205Y-12357579D02*
X12181729Y-12395674D01*
X12181729Y-12395674D02*
X12181729Y-12443293D01*
X12181729Y-12443293D02*
X12172205Y-12481388D01*
X12172205Y-12481388D02*
X12162682Y-12500436D01*
X12162682Y-12500436D02*
X12153158Y-12509960D01*
X12153158Y-12509960D02*
X12134110Y-12519484D01*
X12134110Y-12519484D02*
X12115062Y-12519484D01*
X12115062Y-12519484D02*
X12096015Y-12509960D01*
X12096015Y-12509960D02*
X12086491Y-12500436D01*
X12086491Y-12500436D02*
X12076967Y-12481388D01*
X12076967Y-12481388D02*
X12067443Y-12443293D01*
X12067443Y-12443293D02*
X12067443Y-12395674D01*
X12067443Y-12395674D02*
X12076967Y-12357579D01*
X12076967Y-12357579D02*
X12086491Y-12338531D01*
X12086491Y-12338531D02*
X12096015Y-12329008D01*
X12096015Y-12329008D02*
X12115062Y-12319484D01*
X12305539Y-12319484D02*
X12324586Y-12319484D01*
X12324586Y-12319484D02*
X12343634Y-12329008D01*
X12343634Y-12329008D02*
X12353158Y-12338531D01*
X12353158Y-12338531D02*
X12362682Y-12357579D01*
X12362682Y-12357579D02*
X12372205Y-12395674D01*
X12372205Y-12395674D02*
X12372205Y-12443293D01*
X12372205Y-12443293D02*
X12362682Y-12481388D01*
X12362682Y-12481388D02*
X12353158Y-12500436D01*
X12353158Y-12500436D02*
X12343634Y-12509960D01*
X12343634Y-12509960D02*
X12324586Y-12519484D01*
X12324586Y-12519484D02*
X12305539Y-12519484D01*
X12305539Y-12519484D02*
X12286491Y-12509960D01*
X12286491Y-12509960D02*
X12276967Y-12500436D01*
X12276967Y-12500436D02*
X12267443Y-12481388D01*
X12267443Y-12481388D02*
X12257920Y-12443293D01*
X12257920Y-12443293D02*
X12257920Y-12395674D01*
X12257920Y-12395674D02*
X12267443Y-12357579D01*
X12267443Y-12357579D02*
X12276967Y-12338531D01*
X12276967Y-12338531D02*
X12286491Y-12329008D01*
X12286491Y-12329008D02*
X12305539Y-12319484D01*
X12457920Y-12519484D02*
X12457920Y-12386150D01*
X12457920Y-12405198D02*
X12467443Y-12395674D01*
X12467443Y-12395674D02*
X12486491Y-12386150D01*
X12486491Y-12386150D02*
X12515063Y-12386150D01*
X12515063Y-12386150D02*
X12534110Y-12395674D01*
X12534110Y-12395674D02*
X12543634Y-12414722D01*
X12543634Y-12414722D02*
X12543634Y-12519484D01*
X12543634Y-12414722D02*
X12553158Y-12395674D01*
X12553158Y-12395674D02*
X12572205Y-12386150D01*
X12572205Y-12386150D02*
X12600777Y-12386150D01*
X12600777Y-12386150D02*
X12619824Y-12395674D01*
X12619824Y-12395674D02*
X12629348Y-12414722D01*
X12629348Y-12414722D02*
X12629348Y-12519484D01*
X12724586Y-12519484D02*
X12724586Y-12386150D01*
X12724586Y-12405198D02*
X12734110Y-12395674D01*
X12734110Y-12395674D02*
X12753158Y-12386150D01*
X12753158Y-12386150D02*
X12781729Y-12386150D01*
X12781729Y-12386150D02*
X12800777Y-12395674D01*
X12800777Y-12395674D02*
X12810301Y-12414722D01*
X12810301Y-12414722D02*
X12810301Y-12519484D01*
X12810301Y-12414722D02*
X12819824Y-12395674D01*
X12819824Y-12395674D02*
X12838872Y-12386150D01*
X12838872Y-12386150D02*
X12867443Y-12386150D01*
X12867443Y-12386150D02*
X12886491Y-12395674D01*
X12886491Y-12395674D02*
X12896015Y-12414722D01*
X12896015Y-12414722D02*
X12896015Y-12519484D01*
X13286491Y-12309960D02*
X13115063Y-12567103D01*
X13543634Y-12319484D02*
X13562682Y-12319484D01*
X13562682Y-12319484D02*
X13581729Y-12329008D01*
X13581729Y-12329008D02*
X13591253Y-12338531D01*
X13591253Y-12338531D02*
X13600777Y-12357579D01*
X13600777Y-12357579D02*
X13610301Y-12395674D01*
X13610301Y-12395674D02*
X13610301Y-12443293D01*
X13610301Y-12443293D02*
X13600777Y-12481388D01*
X13600777Y-12481388D02*
X13591253Y-12500436D01*
X13591253Y-12500436D02*
X13581729Y-12509960D01*
X13581729Y-12509960D02*
X13562682Y-12519484D01*
X13562682Y-12519484D02*
X13543634Y-12519484D01*
X13543634Y-12519484D02*
X13524586Y-12509960D01*
X13524586Y-12509960D02*
X13515063Y-12500436D01*
X13515063Y-12500436D02*
X13505539Y-12481388D01*
X13505539Y-12481388D02*
X13496015Y-12443293D01*
X13496015Y-12443293D02*
X13496015Y-12395674D01*
X13496015Y-12395674D02*
X13505539Y-12357579D01*
X13505539Y-12357579D02*
X13515063Y-12338531D01*
X13515063Y-12338531D02*
X13524586Y-12329008D01*
X13524586Y-12329008D02*
X13543634Y-12319484D01*
X13696015Y-12500436D02*
X13705539Y-12509960D01*
X13705539Y-12509960D02*
X13696015Y-12519484D01*
X13696015Y-12519484D02*
X13686491Y-12509960D01*
X13686491Y-12509960D02*
X13696015Y-12500436D01*
X13696015Y-12500436D02*
X13696015Y-12519484D01*
X13829348Y-12319484D02*
X13848396Y-12319484D01*
X13848396Y-12319484D02*
X13867444Y-12329008D01*
X13867444Y-12329008D02*
X13876967Y-12338531D01*
X13876967Y-12338531D02*
X13886491Y-12357579D01*
X13886491Y-12357579D02*
X13896015Y-12395674D01*
X13896015Y-12395674D02*
X13896015Y-12443293D01*
X13896015Y-12443293D02*
X13886491Y-12481388D01*
X13886491Y-12481388D02*
X13876967Y-12500436D01*
X13876967Y-12500436D02*
X13867444Y-12509960D01*
X13867444Y-12509960D02*
X13848396Y-12519484D01*
X13848396Y-12519484D02*
X13829348Y-12519484D01*
X13829348Y-12519484D02*
X13810301Y-12509960D01*
X13810301Y-12509960D02*
X13800777Y-12500436D01*
X13800777Y-12500436D02*
X13791253Y-12481388D01*
X13791253Y-12481388D02*
X13781729Y-12443293D01*
X13781729Y-12443293D02*
X13781729Y-12395674D01*
X13781729Y-12395674D02*
X13791253Y-12357579D01*
X13791253Y-12357579D02*
X13800777Y-12338531D01*
X13800777Y-12338531D02*
X13810301Y-12329008D01*
X13810301Y-12329008D02*
X13829348Y-12319484D01*
X13962682Y-12319484D02*
X14086491Y-12319484D01*
X14086491Y-12319484D02*
X14019825Y-12395674D01*
X14019825Y-12395674D02*
X14048396Y-12395674D01*
X14048396Y-12395674D02*
X14067444Y-12405198D01*
X14067444Y-12405198D02*
X14076967Y-12414722D01*
X14076967Y-12414722D02*
X14086491Y-12433769D01*
X14086491Y-12433769D02*
X14086491Y-12481388D01*
X14086491Y-12481388D02*
X14076967Y-12500436D01*
X14076967Y-12500436D02*
X14067444Y-12509960D01*
X14067444Y-12509960D02*
X14048396Y-12519484D01*
X14048396Y-12519484D02*
X13991253Y-12519484D01*
X13991253Y-12519484D02*
X13972206Y-12509960D01*
X13972206Y-12509960D02*
X13962682Y-12500436D01*
X14276967Y-12519484D02*
X14162682Y-12519484D01*
X14219825Y-12519484D02*
X14219825Y-12319484D01*
X14219825Y-12319484D02*
X14200777Y-12348055D01*
X14200777Y-12348055D02*
X14181729Y-12367103D01*
X14181729Y-12367103D02*
X14162682Y-12376627D01*
X14457920Y-12319484D02*
X14362682Y-12319484D01*
X14362682Y-12319484D02*
X14353158Y-12414722D01*
X14353158Y-12414722D02*
X14362682Y-12405198D01*
X14362682Y-12405198D02*
X14381729Y-12395674D01*
X14381729Y-12395674D02*
X14429348Y-12395674D01*
X14429348Y-12395674D02*
X14448396Y-12405198D01*
X14448396Y-12405198D02*
X14457920Y-12414722D01*
X14457920Y-12414722D02*
X14467444Y-12433769D01*
X14467444Y-12433769D02*
X14467444Y-12481388D01*
X14467444Y-12481388D02*
X14457920Y-12500436D01*
X14457920Y-12500436D02*
X14448396Y-12509960D01*
X14448396Y-12509960D02*
X14429348Y-12519484D01*
X14429348Y-12519484D02*
X14381729Y-12519484D01*
X14381729Y-12519484D02*
X14362682Y-12509960D01*
X14362682Y-12509960D02*
X14353158Y-12500436D01*
X14543634Y-12319484D02*
X14543634Y-12357579D01*
X14619825Y-12319484D02*
X14619825Y-12357579D01*
X14915063Y-12595674D02*
X14905539Y-12586150D01*
X14905539Y-12586150D02*
X14886491Y-12557579D01*
X14886491Y-12557579D02*
X14876968Y-12538531D01*
X14876968Y-12538531D02*
X14867444Y-12509960D01*
X14867444Y-12509960D02*
X14857920Y-12462341D01*
X14857920Y-12462341D02*
X14857920Y-12424246D01*
X14857920Y-12424246D02*
X14867444Y-12376627D01*
X14867444Y-12376627D02*
X14876968Y-12348055D01*
X14876968Y-12348055D02*
X14886491Y-12329008D01*
X14886491Y-12329008D02*
X14905539Y-12300436D01*
X14905539Y-12300436D02*
X14915063Y-12290912D01*
X15086491Y-12319484D02*
X14991253Y-12319484D01*
X14991253Y-12319484D02*
X14981729Y-12414722D01*
X14981729Y-12414722D02*
X14991253Y-12405198D01*
X14991253Y-12405198D02*
X15010301Y-12395674D01*
X15010301Y-12395674D02*
X15057920Y-12395674D01*
X15057920Y-12395674D02*
X15076968Y-12405198D01*
X15076968Y-12405198D02*
X15086491Y-12414722D01*
X15086491Y-12414722D02*
X15096015Y-12433769D01*
X15096015Y-12433769D02*
X15096015Y-12481388D01*
X15096015Y-12481388D02*
X15086491Y-12500436D01*
X15086491Y-12500436D02*
X15076968Y-12509960D01*
X15076968Y-12509960D02*
X15057920Y-12519484D01*
X15057920Y-12519484D02*
X15010301Y-12519484D01*
X15010301Y-12519484D02*
X14991253Y-12509960D01*
X14991253Y-12509960D02*
X14981729Y-12500436D01*
X15334110Y-12519484D02*
X15334110Y-12319484D01*
X15419825Y-12519484D02*
X15419825Y-12414722D01*
X15419825Y-12414722D02*
X15410301Y-12395674D01*
X15410301Y-12395674D02*
X15391253Y-12386150D01*
X15391253Y-12386150D02*
X15362682Y-12386150D01*
X15362682Y-12386150D02*
X15343634Y-12395674D01*
X15343634Y-12395674D02*
X15334110Y-12405198D01*
X15543634Y-12519484D02*
X15524587Y-12509960D01*
X15524587Y-12509960D02*
X15515063Y-12500436D01*
X15515063Y-12500436D02*
X15505539Y-12481388D01*
X15505539Y-12481388D02*
X15505539Y-12424246D01*
X15505539Y-12424246D02*
X15515063Y-12405198D01*
X15515063Y-12405198D02*
X15524587Y-12395674D01*
X15524587Y-12395674D02*
X15543634Y-12386150D01*
X15543634Y-12386150D02*
X15572206Y-12386150D01*
X15572206Y-12386150D02*
X15591253Y-12395674D01*
X15591253Y-12395674D02*
X15600777Y-12405198D01*
X15600777Y-12405198D02*
X15610301Y-12424246D01*
X15610301Y-12424246D02*
X15610301Y-12481388D01*
X15610301Y-12481388D02*
X15600777Y-12500436D01*
X15600777Y-12500436D02*
X15591253Y-12509960D01*
X15591253Y-12509960D02*
X15572206Y-12519484D01*
X15572206Y-12519484D02*
X15543634Y-12519484D01*
X15724587Y-12519484D02*
X15705539Y-12509960D01*
X15705539Y-12509960D02*
X15696015Y-12490912D01*
X15696015Y-12490912D02*
X15696015Y-12319484D01*
X15876968Y-12509960D02*
X15857920Y-12519484D01*
X15857920Y-12519484D02*
X15819825Y-12519484D01*
X15819825Y-12519484D02*
X15800777Y-12509960D01*
X15800777Y-12509960D02*
X15791253Y-12490912D01*
X15791253Y-12490912D02*
X15791253Y-12414722D01*
X15791253Y-12414722D02*
X15800777Y-12395674D01*
X15800777Y-12395674D02*
X15819825Y-12386150D01*
X15819825Y-12386150D02*
X15857920Y-12386150D01*
X15857920Y-12386150D02*
X15876968Y-12395674D01*
X15876968Y-12395674D02*
X15886491Y-12414722D01*
X15886491Y-12414722D02*
X15886491Y-12433769D01*
X15886491Y-12433769D02*
X15791253Y-12452817D01*
X15962682Y-12509960D02*
X15981730Y-12519484D01*
X15981730Y-12519484D02*
X16019825Y-12519484D01*
X16019825Y-12519484D02*
X16038872Y-12509960D01*
X16038872Y-12509960D02*
X16048396Y-12490912D01*
X16048396Y-12490912D02*
X16048396Y-12481388D01*
X16048396Y-12481388D02*
X16038872Y-12462341D01*
X16038872Y-12462341D02*
X16019825Y-12452817D01*
X16019825Y-12452817D02*
X15991253Y-12452817D01*
X15991253Y-12452817D02*
X15972206Y-12443293D01*
X15972206Y-12443293D02*
X15962682Y-12424246D01*
X15962682Y-12424246D02*
X15962682Y-12414722D01*
X15962682Y-12414722D02*
X15972206Y-12395674D01*
X15972206Y-12395674D02*
X15991253Y-12386150D01*
X15991253Y-12386150D02*
X16019825Y-12386150D01*
X16019825Y-12386150D02*
X16038872Y-12395674D01*
X16115063Y-12595674D02*
X16124587Y-12586150D01*
X16124587Y-12586150D02*
X16143634Y-12557579D01*
X16143634Y-12557579D02*
X16153158Y-12538531D01*
X16153158Y-12538531D02*
X16162682Y-12509960D01*
X16162682Y-12509960D02*
X16172206Y-12462341D01*
X16172206Y-12462341D02*
X16172206Y-12424246D01*
X16172206Y-12424246D02*
X16162682Y-12376627D01*
X16162682Y-12376627D02*
X16153158Y-12348055D01*
X16153158Y-12348055D02*
X16143634Y-12329008D01*
X16143634Y-12329008D02*
X16124587Y-12300436D01*
X16124587Y-12300436D02*
X16115063Y-12290912D01*
D11*
X11325356Y-12727356D02*
X11325356Y-12656644D01*
X11254644Y-12656644D01*
X11254644Y-12727356D01*
X11325356Y-12727356D01*
D10*
X11705539Y-12783484D02*
X11591253Y-12783484D01*
X11648396Y-12783484D02*
X11648396Y-12583484D01*
X11648396Y-12583484D02*
X11629348Y-12612055D01*
X11629348Y-12612055D02*
X11610301Y-12631103D01*
X11610301Y-12631103D02*
X11591253Y-12640627D01*
X11791253Y-12764436D02*
X11800777Y-12773960D01*
X11800777Y-12773960D02*
X11791253Y-12783484D01*
X11791253Y-12783484D02*
X11781729Y-12773960D01*
X11781729Y-12773960D02*
X11791253Y-12764436D01*
X11791253Y-12764436D02*
X11791253Y-12783484D01*
X11924586Y-12583484D02*
X11943634Y-12583484D01*
X11943634Y-12583484D02*
X11962682Y-12593008D01*
X11962682Y-12593008D02*
X11972205Y-12602531D01*
X11972205Y-12602531D02*
X11981729Y-12621579D01*
X11981729Y-12621579D02*
X11991253Y-12659674D01*
X11991253Y-12659674D02*
X11991253Y-12707293D01*
X11991253Y-12707293D02*
X11981729Y-12745388D01*
X11981729Y-12745388D02*
X11972205Y-12764436D01*
X11972205Y-12764436D02*
X11962682Y-12773960D01*
X11962682Y-12773960D02*
X11943634Y-12783484D01*
X11943634Y-12783484D02*
X11924586Y-12783484D01*
X11924586Y-12783484D02*
X11905539Y-12773960D01*
X11905539Y-12773960D02*
X11896015Y-12764436D01*
X11896015Y-12764436D02*
X11886491Y-12745388D01*
X11886491Y-12745388D02*
X11876967Y-12707293D01*
X11876967Y-12707293D02*
X11876967Y-12659674D01*
X11876967Y-12659674D02*
X11886491Y-12621579D01*
X11886491Y-12621579D02*
X11896015Y-12602531D01*
X11896015Y-12602531D02*
X11905539Y-12593008D01*
X11905539Y-12593008D02*
X11924586Y-12583484D01*
X12115062Y-12583484D02*
X12134110Y-12583484D01*
X12134110Y-12583484D02*
X12153158Y-12593008D01*
X12153158Y-12593008D02*
X12162682Y-12602531D01*
X12162682Y-12602531D02*
X12172205Y-12621579D01*
X12172205Y-12621579D02*
X12181729Y-12659674D01*
X12181729Y-12659674D02*
X12181729Y-12707293D01*
X12181729Y-12707293D02*
X12172205Y-12745388D01*
X12172205Y-12745388D02*
X12162682Y-12764436D01*
X12162682Y-12764436D02*
X12153158Y-12773960D01*
X12153158Y-12773960D02*
X12134110Y-12783484D01*
X12134110Y-12783484D02*
X12115062Y-12783484D01*
X12115062Y-12783484D02*
X12096015Y-12773960D01*
X12096015Y-12773960D02*
X12086491Y-12764436D01*
X12086491Y-12764436D02*
X12076967Y-12745388D01*
X12076967Y-12745388D02*
X12067443Y-12707293D01*
X12067443Y-12707293D02*
X12067443Y-12659674D01*
X12067443Y-12659674D02*
X12076967Y-12621579D01*
X12076967Y-12621579D02*
X12086491Y-12602531D01*
X12086491Y-12602531D02*
X12096015Y-12593008D01*
X12096015Y-12593008D02*
X12115062Y-12583484D01*
X12305539Y-12583484D02*
X12324586Y-12583484D01*
X12324586Y-12583484D02*
X12343634Y-12593008D01*
X12343634Y-12593008D02*
X12353158Y-12602531D01*
X12353158Y-12602531D02*
X12362682Y-12621579D01*
X12362682Y-12621579D02*
X12372205Y-12659674D01*
X12372205Y-12659674D02*
X12372205Y-12707293D01*
X12372205Y-12707293D02*
X12362682Y-12745388D01*
X12362682Y-12745388D02*
X12353158Y-12764436D01*
X12353158Y-12764436D02*
X12343634Y-12773960D01*
X12343634Y-12773960D02*
X12324586Y-12783484D01*
X12324586Y-12783484D02*
X12305539Y-12783484D01*
X12305539Y-12783484D02*
X12286491Y-12773960D01*
X12286491Y-12773960D02*
X12276967Y-12764436D01*
X12276967Y-12764436D02*
X12267443Y-12745388D01*
X12267443Y-12745388D02*
X12257920Y-12707293D01*
X12257920Y-12707293D02*
X12257920Y-12659674D01*
X12257920Y-12659674D02*
X12267443Y-12621579D01*
X12267443Y-12621579D02*
X12276967Y-12602531D01*
X12276967Y-12602531D02*
X12286491Y-12593008D01*
X12286491Y-12593008D02*
X12305539Y-12583484D01*
X12457920Y-12783484D02*
X12457920Y-12650150D01*
X12457920Y-12669198D02*
X12467443Y-12659674D01*
X12467443Y-12659674D02*
X12486491Y-12650150D01*
X12486491Y-12650150D02*
X12515063Y-12650150D01*
X12515063Y-12650150D02*
X12534110Y-12659674D01*
X12534110Y-12659674D02*
X12543634Y-12678722D01*
X12543634Y-12678722D02*
X12543634Y-12783484D01*
X12543634Y-12678722D02*
X12553158Y-12659674D01*
X12553158Y-12659674D02*
X12572205Y-12650150D01*
X12572205Y-12650150D02*
X12600777Y-12650150D01*
X12600777Y-12650150D02*
X12619824Y-12659674D01*
X12619824Y-12659674D02*
X12629348Y-12678722D01*
X12629348Y-12678722D02*
X12629348Y-12783484D01*
X12724586Y-12783484D02*
X12724586Y-12650150D01*
X12724586Y-12669198D02*
X12734110Y-12659674D01*
X12734110Y-12659674D02*
X12753158Y-12650150D01*
X12753158Y-12650150D02*
X12781729Y-12650150D01*
X12781729Y-12650150D02*
X12800777Y-12659674D01*
X12800777Y-12659674D02*
X12810301Y-12678722D01*
X12810301Y-12678722D02*
X12810301Y-12783484D01*
X12810301Y-12678722D02*
X12819824Y-12659674D01*
X12819824Y-12659674D02*
X12838872Y-12650150D01*
X12838872Y-12650150D02*
X12867443Y-12650150D01*
X12867443Y-12650150D02*
X12886491Y-12659674D01*
X12886491Y-12659674D02*
X12896015Y-12678722D01*
X12896015Y-12678722D02*
X12896015Y-12783484D01*
X13286491Y-12573960D02*
X13115063Y-12831103D01*
X13543634Y-12583484D02*
X13562682Y-12583484D01*
X13562682Y-12583484D02*
X13581729Y-12593008D01*
X13581729Y-12593008D02*
X13591253Y-12602531D01*
X13591253Y-12602531D02*
X13600777Y-12621579D01*
X13600777Y-12621579D02*
X13610301Y-12659674D01*
X13610301Y-12659674D02*
X13610301Y-12707293D01*
X13610301Y-12707293D02*
X13600777Y-12745388D01*
X13600777Y-12745388D02*
X13591253Y-12764436D01*
X13591253Y-12764436D02*
X13581729Y-12773960D01*
X13581729Y-12773960D02*
X13562682Y-12783484D01*
X13562682Y-12783484D02*
X13543634Y-12783484D01*
X13543634Y-12783484D02*
X13524586Y-12773960D01*
X13524586Y-12773960D02*
X13515063Y-12764436D01*
X13515063Y-12764436D02*
X13505539Y-12745388D01*
X13505539Y-12745388D02*
X13496015Y-12707293D01*
X13496015Y-12707293D02*
X13496015Y-12659674D01*
X13496015Y-12659674D02*
X13505539Y-12621579D01*
X13505539Y-12621579D02*
X13515063Y-12602531D01*
X13515063Y-12602531D02*
X13524586Y-12593008D01*
X13524586Y-12593008D02*
X13543634Y-12583484D01*
X13696015Y-12764436D02*
X13705539Y-12773960D01*
X13705539Y-12773960D02*
X13696015Y-12783484D01*
X13696015Y-12783484D02*
X13686491Y-12773960D01*
X13686491Y-12773960D02*
X13696015Y-12764436D01*
X13696015Y-12764436D02*
X13696015Y-12783484D01*
X13829348Y-12583484D02*
X13848396Y-12583484D01*
X13848396Y-12583484D02*
X13867444Y-12593008D01*
X13867444Y-12593008D02*
X13876967Y-12602531D01*
X13876967Y-12602531D02*
X13886491Y-12621579D01*
X13886491Y-12621579D02*
X13896015Y-12659674D01*
X13896015Y-12659674D02*
X13896015Y-12707293D01*
X13896015Y-12707293D02*
X13886491Y-12745388D01*
X13886491Y-12745388D02*
X13876967Y-12764436D01*
X13876967Y-12764436D02*
X13867444Y-12773960D01*
X13867444Y-12773960D02*
X13848396Y-12783484D01*
X13848396Y-12783484D02*
X13829348Y-12783484D01*
X13829348Y-12783484D02*
X13810301Y-12773960D01*
X13810301Y-12773960D02*
X13800777Y-12764436D01*
X13800777Y-12764436D02*
X13791253Y-12745388D01*
X13791253Y-12745388D02*
X13781729Y-12707293D01*
X13781729Y-12707293D02*
X13781729Y-12659674D01*
X13781729Y-12659674D02*
X13791253Y-12621579D01*
X13791253Y-12621579D02*
X13800777Y-12602531D01*
X13800777Y-12602531D02*
X13810301Y-12593008D01*
X13810301Y-12593008D02*
X13829348Y-12583484D01*
X13962682Y-12583484D02*
X14086491Y-12583484D01*
X14086491Y-12583484D02*
X14019825Y-12659674D01*
X14019825Y-12659674D02*
X14048396Y-12659674D01*
X14048396Y-12659674D02*
X14067444Y-12669198D01*
X14067444Y-12669198D02*
X14076967Y-12678722D01*
X14076967Y-12678722D02*
X14086491Y-12697769D01*
X14086491Y-12697769D02*
X14086491Y-12745388D01*
X14086491Y-12745388D02*
X14076967Y-12764436D01*
X14076967Y-12764436D02*
X14067444Y-12773960D01*
X14067444Y-12773960D02*
X14048396Y-12783484D01*
X14048396Y-12783484D02*
X13991253Y-12783484D01*
X13991253Y-12783484D02*
X13972206Y-12773960D01*
X13972206Y-12773960D02*
X13962682Y-12764436D01*
X14181729Y-12783484D02*
X14219825Y-12783484D01*
X14219825Y-12783484D02*
X14238872Y-12773960D01*
X14238872Y-12773960D02*
X14248396Y-12764436D01*
X14248396Y-12764436D02*
X14267444Y-12735865D01*
X14267444Y-12735865D02*
X14276967Y-12697769D01*
X14276967Y-12697769D02*
X14276967Y-12621579D01*
X14276967Y-12621579D02*
X14267444Y-12602531D01*
X14267444Y-12602531D02*
X14257920Y-12593008D01*
X14257920Y-12593008D02*
X14238872Y-12583484D01*
X14238872Y-12583484D02*
X14200777Y-12583484D01*
X14200777Y-12583484D02*
X14181729Y-12593008D01*
X14181729Y-12593008D02*
X14172206Y-12602531D01*
X14172206Y-12602531D02*
X14162682Y-12621579D01*
X14162682Y-12621579D02*
X14162682Y-12669198D01*
X14162682Y-12669198D02*
X14172206Y-12688246D01*
X14172206Y-12688246D02*
X14181729Y-12697769D01*
X14181729Y-12697769D02*
X14200777Y-12707293D01*
X14200777Y-12707293D02*
X14238872Y-12707293D01*
X14238872Y-12707293D02*
X14257920Y-12697769D01*
X14257920Y-12697769D02*
X14267444Y-12688246D01*
X14267444Y-12688246D02*
X14276967Y-12669198D01*
X14448396Y-12650150D02*
X14448396Y-12783484D01*
X14400777Y-12573960D02*
X14353158Y-12716817D01*
X14353158Y-12716817D02*
X14476967Y-12716817D01*
X14543634Y-12583484D02*
X14543634Y-12621579D01*
X14619825Y-12583484D02*
X14619825Y-12621579D01*
X14915063Y-12859674D02*
X14905539Y-12850150D01*
X14905539Y-12850150D02*
X14886491Y-12821579D01*
X14886491Y-12821579D02*
X14876968Y-12802531D01*
X14876968Y-12802531D02*
X14867444Y-12773960D01*
X14867444Y-12773960D02*
X14857920Y-12726341D01*
X14857920Y-12726341D02*
X14857920Y-12688246D01*
X14857920Y-12688246D02*
X14867444Y-12640627D01*
X14867444Y-12640627D02*
X14876968Y-12612055D01*
X14876968Y-12612055D02*
X14886491Y-12593008D01*
X14886491Y-12593008D02*
X14905539Y-12564436D01*
X14905539Y-12564436D02*
X14915063Y-12554912D01*
X15076968Y-12650150D02*
X15076968Y-12783484D01*
X15029348Y-12573960D02*
X14981729Y-12716817D01*
X14981729Y-12716817D02*
X15105539Y-12716817D01*
X15219825Y-12583484D02*
X15238872Y-12583484D01*
X15238872Y-12583484D02*
X15257920Y-12593008D01*
X15257920Y-12593008D02*
X15267444Y-12602531D01*
X15267444Y-12602531D02*
X15276968Y-12621579D01*
X15276968Y-12621579D02*
X15286491Y-12659674D01*
X15286491Y-12659674D02*
X15286491Y-12707293D01*
X15286491Y-12707293D02*
X15276968Y-12745388D01*
X15276968Y-12745388D02*
X15267444Y-12764436D01*
X15267444Y-12764436D02*
X15257920Y-12773960D01*
X15257920Y-12773960D02*
X15238872Y-12783484D01*
X15238872Y-12783484D02*
X15219825Y-12783484D01*
X15219825Y-12783484D02*
X15200777Y-12773960D01*
X15200777Y-12773960D02*
X15191253Y-12764436D01*
X15191253Y-12764436D02*
X15181729Y-12745388D01*
X15181729Y-12745388D02*
X15172206Y-12707293D01*
X15172206Y-12707293D02*
X15172206Y-12659674D01*
X15172206Y-12659674D02*
X15181729Y-12621579D01*
X15181729Y-12621579D02*
X15191253Y-12602531D01*
X15191253Y-12602531D02*
X15200777Y-12593008D01*
X15200777Y-12593008D02*
X15219825Y-12583484D01*
X15524587Y-12783484D02*
X15524587Y-12583484D01*
X15610301Y-12783484D02*
X15610301Y-12678722D01*
X15610301Y-12678722D02*
X15600777Y-12659674D01*
X15600777Y-12659674D02*
X15581730Y-12650150D01*
X15581730Y-12650150D02*
X15553158Y-12650150D01*
X15553158Y-12650150D02*
X15534110Y-12659674D01*
X15534110Y-12659674D02*
X15524587Y-12669198D01*
X15734110Y-12783484D02*
X15715063Y-12773960D01*
X15715063Y-12773960D02*
X15705539Y-12764436D01*
X15705539Y-12764436D02*
X15696015Y-12745388D01*
X15696015Y-12745388D02*
X15696015Y-12688246D01*
X15696015Y-12688246D02*
X15705539Y-12669198D01*
X15705539Y-12669198D02*
X15715063Y-12659674D01*
X15715063Y-12659674D02*
X15734110Y-12650150D01*
X15734110Y-12650150D02*
X15762682Y-12650150D01*
X15762682Y-12650150D02*
X15781730Y-12659674D01*
X15781730Y-12659674D02*
X15791253Y-12669198D01*
X15791253Y-12669198D02*
X15800777Y-12688246D01*
X15800777Y-12688246D02*
X15800777Y-12745388D01*
X15800777Y-12745388D02*
X15791253Y-12764436D01*
X15791253Y-12764436D02*
X15781730Y-12773960D01*
X15781730Y-12773960D02*
X15762682Y-12783484D01*
X15762682Y-12783484D02*
X15734110Y-12783484D01*
X15915063Y-12783484D02*
X15896015Y-12773960D01*
X15896015Y-12773960D02*
X15886491Y-12754912D01*
X15886491Y-12754912D02*
X15886491Y-12583484D01*
X16067444Y-12773960D02*
X16048396Y-12783484D01*
X16048396Y-12783484D02*
X16010301Y-12783484D01*
X16010301Y-12783484D02*
X15991253Y-12773960D01*
X15991253Y-12773960D02*
X15981730Y-12754912D01*
X15981730Y-12754912D02*
X15981730Y-12678722D01*
X15981730Y-12678722D02*
X15991253Y-12659674D01*
X15991253Y-12659674D02*
X16010301Y-12650150D01*
X16010301Y-12650150D02*
X16048396Y-12650150D01*
X16048396Y-12650150D02*
X16067444Y-12659674D01*
X16067444Y-12659674D02*
X16076968Y-12678722D01*
X16076968Y-12678722D02*
X16076968Y-12697769D01*
X16076968Y-12697769D02*
X15981730Y-12716817D01*
X16153158Y-12773960D02*
X16172206Y-12783484D01*
X16172206Y-12783484D02*
X16210301Y-12783484D01*
X16210301Y-12783484D02*
X16229349Y-12773960D01*
X16229349Y-12773960D02*
X16238872Y-12754912D01*
X16238872Y-12754912D02*
X16238872Y-12745388D01*
X16238872Y-12745388D02*
X16229349Y-12726341D01*
X16229349Y-12726341D02*
X16210301Y-12716817D01*
X16210301Y-12716817D02*
X16181730Y-12716817D01*
X16181730Y-12716817D02*
X16162682Y-12707293D01*
X16162682Y-12707293D02*
X16153158Y-12688246D01*
X16153158Y-12688246D02*
X16153158Y-12678722D01*
X16153158Y-12678722D02*
X16162682Y-12659674D01*
X16162682Y-12659674D02*
X16181730Y-12650150D01*
X16181730Y-12650150D02*
X16210301Y-12650150D01*
X16210301Y-12650150D02*
X16229349Y-12659674D01*
X16305539Y-12859674D02*
X16315063Y-12850150D01*
X16315063Y-12850150D02*
X16334111Y-12821579D01*
X16334111Y-12821579D02*
X16343634Y-12802531D01*
X16343634Y-12802531D02*
X16353158Y-12773960D01*
X16353158Y-12773960D02*
X16362682Y-12726341D01*
X16362682Y-12726341D02*
X16362682Y-12688246D01*
X16362682Y-12688246D02*
X16353158Y-12640627D01*
X16353158Y-12640627D02*
X16343634Y-12612055D01*
X16343634Y-12612055D02*
X16334111Y-12593008D01*
X16334111Y-12593008D02*
X16315063Y-12564436D01*
X16315063Y-12564436D02*
X16305539Y-12554912D01*
M02*
