%TF.GenerationSoftware,KiCad,Pcbnew,8.0.2*%
%TF.CreationDate,2024-05-17T09:05:45-06:00*%
%TF.ProjectId,PCB_Project,5043425f-5072-46f6-9a65-63742e6b6963,rev?*%
%TF.SameCoordinates,Original*%
%TF.FileFunction,Legend,Top*%
%TF.FilePolarity,Positive*%
%FSLAX46Y46*%
G04 Gerber Fmt 4.6, Leading zero omitted, Abs format (unit mm)*
G04 Created by KiCad (PCBNEW 8.0.2) date 2024-05-17 09:05:45*
%MOMM*%
%LPD*%
G01*
G04 APERTURE LIST*
G04 Aperture macros list*
%AMRoundRect*
0 Rectangle with rounded corners*
0 $1 Rounding radius*
0 $2 $3 $4 $5 $6 $7 $8 $9 X,Y pos of 4 corners*
0 Add a 4 corners polygon primitive as box body*
4,1,4,$2,$3,$4,$5,$6,$7,$8,$9,$2,$3,0*
0 Add four circle primitives for the rounded corners*
1,1,$1+$1,$2,$3*
1,1,$1+$1,$4,$5*
1,1,$1+$1,$6,$7*
1,1,$1+$1,$8,$9*
0 Add four rect primitives between the rounded corners*
20,1,$1+$1,$2,$3,$4,$5,0*
20,1,$1+$1,$4,$5,$6,$7,0*
20,1,$1+$1,$6,$7,$8,$9,0*
20,1,$1+$1,$8,$9,$2,$3,0*%
G04 Aperture macros list end*
%ADD10C,0.150000*%
%ADD11C,0.120000*%
%ADD12C,0.152400*%
%ADD13C,0.127000*%
%ADD14C,0.200000*%
%ADD15C,0.100000*%
%ADD16C,0.010000*%
%ADD17RoundRect,0.250000X-0.350000X-0.625000X0.350000X-0.625000X0.350000X0.625000X-0.350000X0.625000X0*%
%ADD18O,1.200000X1.750000*%
%ADD19RoundRect,0.135000X0.135000X0.185000X-0.135000X0.185000X-0.135000X-0.185000X0.135000X-0.185000X0*%
%ADD20R,0.375000X0.350000*%
%ADD21R,0.350000X0.375000*%
%ADD22RoundRect,0.135000X-0.135000X-0.185000X0.135000X-0.185000X0.135000X0.185000X-0.135000X0.185000X0*%
%ADD23RoundRect,0.140000X0.140000X0.170000X-0.140000X0.170000X-0.140000X-0.170000X0.140000X-0.170000X0*%
%ADD24R,1.350000X1.350000*%
%ADD25O,1.350000X1.350000*%
%ADD26RoundRect,0.140000X0.170000X-0.140000X0.170000X0.140000X-0.170000X0.140000X-0.170000X-0.140000X0*%
%ADD27RoundRect,0.135000X0.185000X-0.135000X0.185000X0.135000X-0.185000X0.135000X-0.185000X-0.135000X0*%
%ADD28RoundRect,0.140000X-0.140000X-0.170000X0.140000X-0.170000X0.140000X0.170000X-0.140000X0.170000X0*%
%ADD29R,0.762000X0.254000*%
%ADD30R,1.295400X2.006600*%
%ADD31RoundRect,0.150000X-0.587500X-0.150000X0.587500X-0.150000X0.587500X0.150000X-0.587500X0.150000X0*%
%ADD32RoundRect,0.102000X-0.275000X-0.200000X0.275000X-0.200000X0.275000X0.200000X-0.275000X0.200000X0*%
%ADD33RoundRect,0.056280X-0.345720X1.030720X-0.345720X-1.030720X0.345720X-1.030720X0.345720X1.030720X0*%
%ADD34RoundRect,0.150000X-0.150000X0.587500X-0.150000X-0.587500X0.150000X-0.587500X0.150000X0.587500X0*%
%ADD35R,2.030000X1.140000*%
%ADD36R,0.254000X0.482600*%
%ADD37R,0.482600X0.254000*%
%ADD38RoundRect,0.140000X-0.170000X0.140000X-0.170000X-0.140000X0.170000X-0.140000X0.170000X0.140000X0*%
%ADD39R,1.700000X1.700000*%
%ADD40O,1.700000X1.700000*%
G04 APERTURE END LIST*
D10*
X135166666Y-104104819D02*
X135166666Y-104819104D01*
X135166666Y-104819104D02*
X135119047Y-104961961D01*
X135119047Y-104961961D02*
X135023809Y-105057200D01*
X135023809Y-105057200D02*
X134880952Y-105104819D01*
X134880952Y-105104819D02*
X134785714Y-105104819D01*
X136071428Y-104438152D02*
X136071428Y-105104819D01*
X135833333Y-104057200D02*
X135595238Y-104771485D01*
X135595238Y-104771485D02*
X136214285Y-104771485D01*
X136857142Y-101454819D02*
X136523809Y-100978628D01*
X136285714Y-101454819D02*
X136285714Y-100454819D01*
X136285714Y-100454819D02*
X136666666Y-100454819D01*
X136666666Y-100454819D02*
X136761904Y-100502438D01*
X136761904Y-100502438D02*
X136809523Y-100550057D01*
X136809523Y-100550057D02*
X136857142Y-100645295D01*
X136857142Y-100645295D02*
X136857142Y-100788152D01*
X136857142Y-100788152D02*
X136809523Y-100883390D01*
X136809523Y-100883390D02*
X136761904Y-100931009D01*
X136761904Y-100931009D02*
X136666666Y-100978628D01*
X136666666Y-100978628D02*
X136285714Y-100978628D01*
X137809523Y-101454819D02*
X137238095Y-101454819D01*
X137523809Y-101454819D02*
X137523809Y-100454819D01*
X137523809Y-100454819D02*
X137428571Y-100597676D01*
X137428571Y-100597676D02*
X137333333Y-100692914D01*
X137333333Y-100692914D02*
X137238095Y-100740533D01*
X138761904Y-101454819D02*
X138190476Y-101454819D01*
X138476190Y-101454819D02*
X138476190Y-100454819D01*
X138476190Y-100454819D02*
X138380952Y-100597676D01*
X138380952Y-100597676D02*
X138285714Y-100692914D01*
X138285714Y-100692914D02*
X138190476Y-100740533D01*
X121166735Y-74463157D02*
X121166735Y-75272680D01*
X121166735Y-75272680D02*
X121214354Y-75367918D01*
X121214354Y-75367918D02*
X121261973Y-75415538D01*
X121261973Y-75415538D02*
X121357211Y-75463157D01*
X121357211Y-75463157D02*
X121547687Y-75463157D01*
X121547687Y-75463157D02*
X121642925Y-75415538D01*
X121642925Y-75415538D02*
X121690544Y-75367918D01*
X121690544Y-75367918D02*
X121738163Y-75272680D01*
X121738163Y-75272680D02*
X121738163Y-74463157D01*
X122738163Y-75463157D02*
X122166735Y-75463157D01*
X122452449Y-75463157D02*
X122452449Y-74463157D01*
X122452449Y-74463157D02*
X122357211Y-74606014D01*
X122357211Y-74606014D02*
X122261973Y-74701252D01*
X122261973Y-74701252D02*
X122166735Y-74748871D01*
X123119116Y-74558395D02*
X123166735Y-74510776D01*
X123166735Y-74510776D02*
X123261973Y-74463157D01*
X123261973Y-74463157D02*
X123500068Y-74463157D01*
X123500068Y-74463157D02*
X123595306Y-74510776D01*
X123595306Y-74510776D02*
X123642925Y-74558395D01*
X123642925Y-74558395D02*
X123690544Y-74653633D01*
X123690544Y-74653633D02*
X123690544Y-74748871D01*
X123690544Y-74748871D02*
X123642925Y-74891728D01*
X123642925Y-74891728D02*
X123071497Y-75463157D01*
X123071497Y-75463157D02*
X123690544Y-75463157D01*
X143666666Y-104104819D02*
X143666666Y-104819104D01*
X143666666Y-104819104D02*
X143619047Y-104961961D01*
X143619047Y-104961961D02*
X143523809Y-105057200D01*
X143523809Y-105057200D02*
X143380952Y-105104819D01*
X143380952Y-105104819D02*
X143285714Y-105104819D01*
X144619047Y-104104819D02*
X144142857Y-104104819D01*
X144142857Y-104104819D02*
X144095238Y-104581009D01*
X144095238Y-104581009D02*
X144142857Y-104533390D01*
X144142857Y-104533390D02*
X144238095Y-104485771D01*
X144238095Y-104485771D02*
X144476190Y-104485771D01*
X144476190Y-104485771D02*
X144571428Y-104533390D01*
X144571428Y-104533390D02*
X144619047Y-104581009D01*
X144619047Y-104581009D02*
X144666666Y-104676247D01*
X144666666Y-104676247D02*
X144666666Y-104914342D01*
X144666666Y-104914342D02*
X144619047Y-105009580D01*
X144619047Y-105009580D02*
X144571428Y-105057200D01*
X144571428Y-105057200D02*
X144476190Y-105104819D01*
X144476190Y-105104819D02*
X144238095Y-105104819D01*
X144238095Y-105104819D02*
X144142857Y-105057200D01*
X144142857Y-105057200D02*
X144095238Y-105009580D01*
X154357142Y-100784819D02*
X154023809Y-100308628D01*
X153785714Y-100784819D02*
X153785714Y-99784819D01*
X153785714Y-99784819D02*
X154166666Y-99784819D01*
X154166666Y-99784819D02*
X154261904Y-99832438D01*
X154261904Y-99832438D02*
X154309523Y-99880057D01*
X154309523Y-99880057D02*
X154357142Y-99975295D01*
X154357142Y-99975295D02*
X154357142Y-100118152D01*
X154357142Y-100118152D02*
X154309523Y-100213390D01*
X154309523Y-100213390D02*
X154261904Y-100261009D01*
X154261904Y-100261009D02*
X154166666Y-100308628D01*
X154166666Y-100308628D02*
X153785714Y-100308628D01*
X155309523Y-100784819D02*
X154738095Y-100784819D01*
X155023809Y-100784819D02*
X155023809Y-99784819D01*
X155023809Y-99784819D02*
X154928571Y-99927676D01*
X154928571Y-99927676D02*
X154833333Y-100022914D01*
X154833333Y-100022914D02*
X154738095Y-100070533D01*
X155928571Y-99784819D02*
X156023809Y-99784819D01*
X156023809Y-99784819D02*
X156119047Y-99832438D01*
X156119047Y-99832438D02*
X156166666Y-99880057D01*
X156166666Y-99880057D02*
X156214285Y-99975295D01*
X156214285Y-99975295D02*
X156261904Y-100165771D01*
X156261904Y-100165771D02*
X156261904Y-100403866D01*
X156261904Y-100403866D02*
X156214285Y-100594342D01*
X156214285Y-100594342D02*
X156166666Y-100689580D01*
X156166666Y-100689580D02*
X156119047Y-100737200D01*
X156119047Y-100737200D02*
X156023809Y-100784819D01*
X156023809Y-100784819D02*
X155928571Y-100784819D01*
X155928571Y-100784819D02*
X155833333Y-100737200D01*
X155833333Y-100737200D02*
X155785714Y-100689580D01*
X155785714Y-100689580D02*
X155738095Y-100594342D01*
X155738095Y-100594342D02*
X155690476Y-100403866D01*
X155690476Y-100403866D02*
X155690476Y-100165771D01*
X155690476Y-100165771D02*
X155738095Y-99975295D01*
X155738095Y-99975295D02*
X155785714Y-99880057D01*
X155785714Y-99880057D02*
X155833333Y-99832438D01*
X155833333Y-99832438D02*
X155928571Y-99784819D01*
X115699642Y-75209580D02*
X115652023Y-75257200D01*
X115652023Y-75257200D02*
X115509166Y-75304819D01*
X115509166Y-75304819D02*
X115413928Y-75304819D01*
X115413928Y-75304819D02*
X115271071Y-75257200D01*
X115271071Y-75257200D02*
X115175833Y-75161961D01*
X115175833Y-75161961D02*
X115128214Y-75066723D01*
X115128214Y-75066723D02*
X115080595Y-74876247D01*
X115080595Y-74876247D02*
X115080595Y-74733390D01*
X115080595Y-74733390D02*
X115128214Y-74542914D01*
X115128214Y-74542914D02*
X115175833Y-74447676D01*
X115175833Y-74447676D02*
X115271071Y-74352438D01*
X115271071Y-74352438D02*
X115413928Y-74304819D01*
X115413928Y-74304819D02*
X115509166Y-74304819D01*
X115509166Y-74304819D02*
X115652023Y-74352438D01*
X115652023Y-74352438D02*
X115699642Y-74400057D01*
X116652023Y-75304819D02*
X116080595Y-75304819D01*
X116366309Y-75304819D02*
X116366309Y-74304819D01*
X116366309Y-74304819D02*
X116271071Y-74447676D01*
X116271071Y-74447676D02*
X116175833Y-74542914D01*
X116175833Y-74542914D02*
X116080595Y-74590533D01*
X117271071Y-74304819D02*
X117366309Y-74304819D01*
X117366309Y-74304819D02*
X117461547Y-74352438D01*
X117461547Y-74352438D02*
X117509166Y-74400057D01*
X117509166Y-74400057D02*
X117556785Y-74495295D01*
X117556785Y-74495295D02*
X117604404Y-74685771D01*
X117604404Y-74685771D02*
X117604404Y-74923866D01*
X117604404Y-74923866D02*
X117556785Y-75114342D01*
X117556785Y-75114342D02*
X117509166Y-75209580D01*
X117509166Y-75209580D02*
X117461547Y-75257200D01*
X117461547Y-75257200D02*
X117366309Y-75304819D01*
X117366309Y-75304819D02*
X117271071Y-75304819D01*
X117271071Y-75304819D02*
X117175833Y-75257200D01*
X117175833Y-75257200D02*
X117128214Y-75209580D01*
X117128214Y-75209580D02*
X117080595Y-75114342D01*
X117080595Y-75114342D02*
X117032976Y-74923866D01*
X117032976Y-74923866D02*
X117032976Y-74685771D01*
X117032976Y-74685771D02*
X117080595Y-74495295D01*
X117080595Y-74495295D02*
X117128214Y-74400057D01*
X117128214Y-74400057D02*
X117175833Y-74352438D01*
X117175833Y-74352438D02*
X117271071Y-74304819D01*
X133183333Y-72534819D02*
X132850000Y-72058628D01*
X132611905Y-72534819D02*
X132611905Y-71534819D01*
X132611905Y-71534819D02*
X132992857Y-71534819D01*
X132992857Y-71534819D02*
X133088095Y-71582438D01*
X133088095Y-71582438D02*
X133135714Y-71630057D01*
X133135714Y-71630057D02*
X133183333Y-71725295D01*
X133183333Y-71725295D02*
X133183333Y-71868152D01*
X133183333Y-71868152D02*
X133135714Y-71963390D01*
X133135714Y-71963390D02*
X133088095Y-72011009D01*
X133088095Y-72011009D02*
X132992857Y-72058628D01*
X132992857Y-72058628D02*
X132611905Y-72058628D01*
X133516667Y-71534819D02*
X134135714Y-71534819D01*
X134135714Y-71534819D02*
X133802381Y-71915771D01*
X133802381Y-71915771D02*
X133945238Y-71915771D01*
X133945238Y-71915771D02*
X134040476Y-71963390D01*
X134040476Y-71963390D02*
X134088095Y-72011009D01*
X134088095Y-72011009D02*
X134135714Y-72106247D01*
X134135714Y-72106247D02*
X134135714Y-72344342D01*
X134135714Y-72344342D02*
X134088095Y-72439580D01*
X134088095Y-72439580D02*
X134040476Y-72487200D01*
X134040476Y-72487200D02*
X133945238Y-72534819D01*
X133945238Y-72534819D02*
X133659524Y-72534819D01*
X133659524Y-72534819D02*
X133564286Y-72487200D01*
X133564286Y-72487200D02*
X133516667Y-72439580D01*
X127357142Y-100954819D02*
X127023809Y-100478628D01*
X126785714Y-100954819D02*
X126785714Y-99954819D01*
X126785714Y-99954819D02*
X127166666Y-99954819D01*
X127166666Y-99954819D02*
X127261904Y-100002438D01*
X127261904Y-100002438D02*
X127309523Y-100050057D01*
X127309523Y-100050057D02*
X127357142Y-100145295D01*
X127357142Y-100145295D02*
X127357142Y-100288152D01*
X127357142Y-100288152D02*
X127309523Y-100383390D01*
X127309523Y-100383390D02*
X127261904Y-100431009D01*
X127261904Y-100431009D02*
X127166666Y-100478628D01*
X127166666Y-100478628D02*
X126785714Y-100478628D01*
X128309523Y-100954819D02*
X127738095Y-100954819D01*
X128023809Y-100954819D02*
X128023809Y-99954819D01*
X128023809Y-99954819D02*
X127928571Y-100097676D01*
X127928571Y-100097676D02*
X127833333Y-100192914D01*
X127833333Y-100192914D02*
X127738095Y-100240533D01*
X128690476Y-100050057D02*
X128738095Y-100002438D01*
X128738095Y-100002438D02*
X128833333Y-99954819D01*
X128833333Y-99954819D02*
X129071428Y-99954819D01*
X129071428Y-99954819D02*
X129166666Y-100002438D01*
X129166666Y-100002438D02*
X129214285Y-100050057D01*
X129214285Y-100050057D02*
X129261904Y-100145295D01*
X129261904Y-100145295D02*
X129261904Y-100240533D01*
X129261904Y-100240533D02*
X129214285Y-100383390D01*
X129214285Y-100383390D02*
X128642857Y-100954819D01*
X128642857Y-100954819D02*
X129261904Y-100954819D01*
X165014819Y-107833333D02*
X165729104Y-107833333D01*
X165729104Y-107833333D02*
X165871961Y-107880952D01*
X165871961Y-107880952D02*
X165967200Y-107976190D01*
X165967200Y-107976190D02*
X166014819Y-108119047D01*
X166014819Y-108119047D02*
X166014819Y-108214285D01*
X165110057Y-107404761D02*
X165062438Y-107357142D01*
X165062438Y-107357142D02*
X165014819Y-107261904D01*
X165014819Y-107261904D02*
X165014819Y-107023809D01*
X165014819Y-107023809D02*
X165062438Y-106928571D01*
X165062438Y-106928571D02*
X165110057Y-106880952D01*
X165110057Y-106880952D02*
X165205295Y-106833333D01*
X165205295Y-106833333D02*
X165300533Y-106833333D01*
X165300533Y-106833333D02*
X165443390Y-106880952D01*
X165443390Y-106880952D02*
X166014819Y-107452380D01*
X166014819Y-107452380D02*
X166014819Y-106833333D01*
X145159580Y-74766666D02*
X145207200Y-74814285D01*
X145207200Y-74814285D02*
X145254819Y-74957142D01*
X145254819Y-74957142D02*
X145254819Y-75052380D01*
X145254819Y-75052380D02*
X145207200Y-75195237D01*
X145207200Y-75195237D02*
X145111961Y-75290475D01*
X145111961Y-75290475D02*
X145016723Y-75338094D01*
X145016723Y-75338094D02*
X144826247Y-75385713D01*
X144826247Y-75385713D02*
X144683390Y-75385713D01*
X144683390Y-75385713D02*
X144492914Y-75338094D01*
X144492914Y-75338094D02*
X144397676Y-75290475D01*
X144397676Y-75290475D02*
X144302438Y-75195237D01*
X144302438Y-75195237D02*
X144254819Y-75052380D01*
X144254819Y-75052380D02*
X144254819Y-74957142D01*
X144254819Y-74957142D02*
X144302438Y-74814285D01*
X144302438Y-74814285D02*
X144350057Y-74766666D01*
X144683390Y-74195237D02*
X144635771Y-74290475D01*
X144635771Y-74290475D02*
X144588152Y-74338094D01*
X144588152Y-74338094D02*
X144492914Y-74385713D01*
X144492914Y-74385713D02*
X144445295Y-74385713D01*
X144445295Y-74385713D02*
X144350057Y-74338094D01*
X144350057Y-74338094D02*
X144302438Y-74290475D01*
X144302438Y-74290475D02*
X144254819Y-74195237D01*
X144254819Y-74195237D02*
X144254819Y-74004761D01*
X144254819Y-74004761D02*
X144302438Y-73909523D01*
X144302438Y-73909523D02*
X144350057Y-73861904D01*
X144350057Y-73861904D02*
X144445295Y-73814285D01*
X144445295Y-73814285D02*
X144492914Y-73814285D01*
X144492914Y-73814285D02*
X144588152Y-73861904D01*
X144588152Y-73861904D02*
X144635771Y-73909523D01*
X144635771Y-73909523D02*
X144683390Y-74004761D01*
X144683390Y-74004761D02*
X144683390Y-74195237D01*
X144683390Y-74195237D02*
X144731009Y-74290475D01*
X144731009Y-74290475D02*
X144778628Y-74338094D01*
X144778628Y-74338094D02*
X144873866Y-74385713D01*
X144873866Y-74385713D02*
X145064342Y-74385713D01*
X145064342Y-74385713D02*
X145159580Y-74338094D01*
X145159580Y-74338094D02*
X145207200Y-74290475D01*
X145207200Y-74290475D02*
X145254819Y-74195237D01*
X145254819Y-74195237D02*
X145254819Y-74004761D01*
X145254819Y-74004761D02*
X145207200Y-73909523D01*
X145207200Y-73909523D02*
X145159580Y-73861904D01*
X145159580Y-73861904D02*
X145064342Y-73814285D01*
X145064342Y-73814285D02*
X144873866Y-73814285D01*
X144873866Y-73814285D02*
X144778628Y-73861904D01*
X144778628Y-73861904D02*
X144731009Y-73909523D01*
X144731009Y-73909523D02*
X144683390Y-74004761D01*
X139857142Y-84859580D02*
X139809523Y-84907200D01*
X139809523Y-84907200D02*
X139666666Y-84954819D01*
X139666666Y-84954819D02*
X139571428Y-84954819D01*
X139571428Y-84954819D02*
X139428571Y-84907200D01*
X139428571Y-84907200D02*
X139333333Y-84811961D01*
X139333333Y-84811961D02*
X139285714Y-84716723D01*
X139285714Y-84716723D02*
X139238095Y-84526247D01*
X139238095Y-84526247D02*
X139238095Y-84383390D01*
X139238095Y-84383390D02*
X139285714Y-84192914D01*
X139285714Y-84192914D02*
X139333333Y-84097676D01*
X139333333Y-84097676D02*
X139428571Y-84002438D01*
X139428571Y-84002438D02*
X139571428Y-83954819D01*
X139571428Y-83954819D02*
X139666666Y-83954819D01*
X139666666Y-83954819D02*
X139809523Y-84002438D01*
X139809523Y-84002438D02*
X139857142Y-84050057D01*
X140809523Y-84954819D02*
X140238095Y-84954819D01*
X140523809Y-84954819D02*
X140523809Y-83954819D01*
X140523809Y-83954819D02*
X140428571Y-84097676D01*
X140428571Y-84097676D02*
X140333333Y-84192914D01*
X140333333Y-84192914D02*
X140238095Y-84240533D01*
X141666666Y-84288152D02*
X141666666Y-84954819D01*
X141428571Y-83907200D02*
X141190476Y-84621485D01*
X141190476Y-84621485D02*
X141809523Y-84621485D01*
X149833333Y-69454819D02*
X149500000Y-68978628D01*
X149261905Y-69454819D02*
X149261905Y-68454819D01*
X149261905Y-68454819D02*
X149642857Y-68454819D01*
X149642857Y-68454819D02*
X149738095Y-68502438D01*
X149738095Y-68502438D02*
X149785714Y-68550057D01*
X149785714Y-68550057D02*
X149833333Y-68645295D01*
X149833333Y-68645295D02*
X149833333Y-68788152D01*
X149833333Y-68788152D02*
X149785714Y-68883390D01*
X149785714Y-68883390D02*
X149738095Y-68931009D01*
X149738095Y-68931009D02*
X149642857Y-68978628D01*
X149642857Y-68978628D02*
X149261905Y-68978628D01*
X150404762Y-68883390D02*
X150309524Y-68835771D01*
X150309524Y-68835771D02*
X150261905Y-68788152D01*
X150261905Y-68788152D02*
X150214286Y-68692914D01*
X150214286Y-68692914D02*
X150214286Y-68645295D01*
X150214286Y-68645295D02*
X150261905Y-68550057D01*
X150261905Y-68550057D02*
X150309524Y-68502438D01*
X150309524Y-68502438D02*
X150404762Y-68454819D01*
X150404762Y-68454819D02*
X150595238Y-68454819D01*
X150595238Y-68454819D02*
X150690476Y-68502438D01*
X150690476Y-68502438D02*
X150738095Y-68550057D01*
X150738095Y-68550057D02*
X150785714Y-68645295D01*
X150785714Y-68645295D02*
X150785714Y-68692914D01*
X150785714Y-68692914D02*
X150738095Y-68788152D01*
X150738095Y-68788152D02*
X150690476Y-68835771D01*
X150690476Y-68835771D02*
X150595238Y-68883390D01*
X150595238Y-68883390D02*
X150404762Y-68883390D01*
X150404762Y-68883390D02*
X150309524Y-68931009D01*
X150309524Y-68931009D02*
X150261905Y-68978628D01*
X150261905Y-68978628D02*
X150214286Y-69073866D01*
X150214286Y-69073866D02*
X150214286Y-69264342D01*
X150214286Y-69264342D02*
X150261905Y-69359580D01*
X150261905Y-69359580D02*
X150309524Y-69407200D01*
X150309524Y-69407200D02*
X150404762Y-69454819D01*
X150404762Y-69454819D02*
X150595238Y-69454819D01*
X150595238Y-69454819D02*
X150690476Y-69407200D01*
X150690476Y-69407200D02*
X150738095Y-69359580D01*
X150738095Y-69359580D02*
X150785714Y-69264342D01*
X150785714Y-69264342D02*
X150785714Y-69073866D01*
X150785714Y-69073866D02*
X150738095Y-68978628D01*
X150738095Y-68978628D02*
X150690476Y-68931009D01*
X150690476Y-68931009D02*
X150595238Y-68883390D01*
X121874642Y-79759580D02*
X121827023Y-79807200D01*
X121827023Y-79807200D02*
X121684166Y-79854819D01*
X121684166Y-79854819D02*
X121588928Y-79854819D01*
X121588928Y-79854819D02*
X121446071Y-79807200D01*
X121446071Y-79807200D02*
X121350833Y-79711961D01*
X121350833Y-79711961D02*
X121303214Y-79616723D01*
X121303214Y-79616723D02*
X121255595Y-79426247D01*
X121255595Y-79426247D02*
X121255595Y-79283390D01*
X121255595Y-79283390D02*
X121303214Y-79092914D01*
X121303214Y-79092914D02*
X121350833Y-78997676D01*
X121350833Y-78997676D02*
X121446071Y-78902438D01*
X121446071Y-78902438D02*
X121588928Y-78854819D01*
X121588928Y-78854819D02*
X121684166Y-78854819D01*
X121684166Y-78854819D02*
X121827023Y-78902438D01*
X121827023Y-78902438D02*
X121874642Y-78950057D01*
X122827023Y-79854819D02*
X122255595Y-79854819D01*
X122541309Y-79854819D02*
X122541309Y-78854819D01*
X122541309Y-78854819D02*
X122446071Y-78997676D01*
X122446071Y-78997676D02*
X122350833Y-79092914D01*
X122350833Y-79092914D02*
X122255595Y-79140533D01*
X123779404Y-79854819D02*
X123207976Y-79854819D01*
X123493690Y-79854819D02*
X123493690Y-78854819D01*
X123493690Y-78854819D02*
X123398452Y-78997676D01*
X123398452Y-78997676D02*
X123303214Y-79092914D01*
X123303214Y-79092914D02*
X123207976Y-79140533D01*
X118416666Y-104004819D02*
X118416666Y-104719104D01*
X118416666Y-104719104D02*
X118369047Y-104861961D01*
X118369047Y-104861961D02*
X118273809Y-104957200D01*
X118273809Y-104957200D02*
X118130952Y-105004819D01*
X118130952Y-105004819D02*
X118035714Y-105004819D01*
X119321428Y-104004819D02*
X119130952Y-104004819D01*
X119130952Y-104004819D02*
X119035714Y-104052438D01*
X119035714Y-104052438D02*
X118988095Y-104100057D01*
X118988095Y-104100057D02*
X118892857Y-104242914D01*
X118892857Y-104242914D02*
X118845238Y-104433390D01*
X118845238Y-104433390D02*
X118845238Y-104814342D01*
X118845238Y-104814342D02*
X118892857Y-104909580D01*
X118892857Y-104909580D02*
X118940476Y-104957200D01*
X118940476Y-104957200D02*
X119035714Y-105004819D01*
X119035714Y-105004819D02*
X119226190Y-105004819D01*
X119226190Y-105004819D02*
X119321428Y-104957200D01*
X119321428Y-104957200D02*
X119369047Y-104909580D01*
X119369047Y-104909580D02*
X119416666Y-104814342D01*
X119416666Y-104814342D02*
X119416666Y-104576247D01*
X119416666Y-104576247D02*
X119369047Y-104481009D01*
X119369047Y-104481009D02*
X119321428Y-104433390D01*
X119321428Y-104433390D02*
X119226190Y-104385771D01*
X119226190Y-104385771D02*
X119035714Y-104385771D01*
X119035714Y-104385771D02*
X118940476Y-104433390D01*
X118940476Y-104433390D02*
X118892857Y-104481009D01*
X118892857Y-104481009D02*
X118845238Y-104576247D01*
X132245639Y-86884336D02*
X132245639Y-87693859D01*
X132245639Y-87693859D02*
X132293258Y-87789097D01*
X132293258Y-87789097D02*
X132340877Y-87836717D01*
X132340877Y-87836717D02*
X132436115Y-87884336D01*
X132436115Y-87884336D02*
X132626591Y-87884336D01*
X132626591Y-87884336D02*
X132721829Y-87836717D01*
X132721829Y-87836717D02*
X132769448Y-87789097D01*
X132769448Y-87789097D02*
X132817067Y-87693859D01*
X132817067Y-87693859D02*
X132817067Y-86884336D01*
X133817067Y-87884336D02*
X133245639Y-87884336D01*
X133531353Y-87884336D02*
X133531353Y-86884336D01*
X133531353Y-86884336D02*
X133436115Y-87027193D01*
X133436115Y-87027193D02*
X133340877Y-87122431D01*
X133340877Y-87122431D02*
X133245639Y-87170050D01*
X134436115Y-86884336D02*
X134531353Y-86884336D01*
X134531353Y-86884336D02*
X134626591Y-86931955D01*
X134626591Y-86931955D02*
X134674210Y-86979574D01*
X134674210Y-86979574D02*
X134721829Y-87074812D01*
X134721829Y-87074812D02*
X134769448Y-87265288D01*
X134769448Y-87265288D02*
X134769448Y-87503383D01*
X134769448Y-87503383D02*
X134721829Y-87693859D01*
X134721829Y-87693859D02*
X134674210Y-87789097D01*
X134674210Y-87789097D02*
X134626591Y-87836717D01*
X134626591Y-87836717D02*
X134531353Y-87884336D01*
X134531353Y-87884336D02*
X134436115Y-87884336D01*
X134436115Y-87884336D02*
X134340877Y-87836717D01*
X134340877Y-87836717D02*
X134293258Y-87789097D01*
X134293258Y-87789097D02*
X134245639Y-87693859D01*
X134245639Y-87693859D02*
X134198020Y-87503383D01*
X134198020Y-87503383D02*
X134198020Y-87265288D01*
X134198020Y-87265288D02*
X134245639Y-87074812D01*
X134245639Y-87074812D02*
X134293258Y-86979574D01*
X134293258Y-86979574D02*
X134340877Y-86931955D01*
X134340877Y-86931955D02*
X134436115Y-86884336D01*
X125833333Y-94109580D02*
X125785714Y-94157200D01*
X125785714Y-94157200D02*
X125642857Y-94204819D01*
X125642857Y-94204819D02*
X125547619Y-94204819D01*
X125547619Y-94204819D02*
X125404762Y-94157200D01*
X125404762Y-94157200D02*
X125309524Y-94061961D01*
X125309524Y-94061961D02*
X125261905Y-93966723D01*
X125261905Y-93966723D02*
X125214286Y-93776247D01*
X125214286Y-93776247D02*
X125214286Y-93633390D01*
X125214286Y-93633390D02*
X125261905Y-93442914D01*
X125261905Y-93442914D02*
X125309524Y-93347676D01*
X125309524Y-93347676D02*
X125404762Y-93252438D01*
X125404762Y-93252438D02*
X125547619Y-93204819D01*
X125547619Y-93204819D02*
X125642857Y-93204819D01*
X125642857Y-93204819D02*
X125785714Y-93252438D01*
X125785714Y-93252438D02*
X125833333Y-93300057D01*
X126690476Y-93538152D02*
X126690476Y-94204819D01*
X126452381Y-93157200D02*
X126214286Y-93871485D01*
X126214286Y-93871485D02*
X126833333Y-93871485D01*
X144833333Y-102454819D02*
X144500000Y-101978628D01*
X144261905Y-102454819D02*
X144261905Y-101454819D01*
X144261905Y-101454819D02*
X144642857Y-101454819D01*
X144642857Y-101454819D02*
X144738095Y-101502438D01*
X144738095Y-101502438D02*
X144785714Y-101550057D01*
X144785714Y-101550057D02*
X144833333Y-101645295D01*
X144833333Y-101645295D02*
X144833333Y-101788152D01*
X144833333Y-101788152D02*
X144785714Y-101883390D01*
X144785714Y-101883390D02*
X144738095Y-101931009D01*
X144738095Y-101931009D02*
X144642857Y-101978628D01*
X144642857Y-101978628D02*
X144261905Y-101978628D01*
X145690476Y-101454819D02*
X145500000Y-101454819D01*
X145500000Y-101454819D02*
X145404762Y-101502438D01*
X145404762Y-101502438D02*
X145357143Y-101550057D01*
X145357143Y-101550057D02*
X145261905Y-101692914D01*
X145261905Y-101692914D02*
X145214286Y-101883390D01*
X145214286Y-101883390D02*
X145214286Y-102264342D01*
X145214286Y-102264342D02*
X145261905Y-102359580D01*
X145261905Y-102359580D02*
X145309524Y-102407200D01*
X145309524Y-102407200D02*
X145404762Y-102454819D01*
X145404762Y-102454819D02*
X145595238Y-102454819D01*
X145595238Y-102454819D02*
X145690476Y-102407200D01*
X145690476Y-102407200D02*
X145738095Y-102359580D01*
X145738095Y-102359580D02*
X145785714Y-102264342D01*
X145785714Y-102264342D02*
X145785714Y-102026247D01*
X145785714Y-102026247D02*
X145738095Y-101931009D01*
X145738095Y-101931009D02*
X145690476Y-101883390D01*
X145690476Y-101883390D02*
X145595238Y-101835771D01*
X145595238Y-101835771D02*
X145404762Y-101835771D01*
X145404762Y-101835771D02*
X145309524Y-101883390D01*
X145309524Y-101883390D02*
X145261905Y-101931009D01*
X145261905Y-101931009D02*
X145214286Y-102026247D01*
X121833333Y-69454819D02*
X121500000Y-68978628D01*
X121261905Y-69454819D02*
X121261905Y-68454819D01*
X121261905Y-68454819D02*
X121642857Y-68454819D01*
X121642857Y-68454819D02*
X121738095Y-68502438D01*
X121738095Y-68502438D02*
X121785714Y-68550057D01*
X121785714Y-68550057D02*
X121833333Y-68645295D01*
X121833333Y-68645295D02*
X121833333Y-68788152D01*
X121833333Y-68788152D02*
X121785714Y-68883390D01*
X121785714Y-68883390D02*
X121738095Y-68931009D01*
X121738095Y-68931009D02*
X121642857Y-68978628D01*
X121642857Y-68978628D02*
X121261905Y-68978628D01*
X122738095Y-68454819D02*
X122261905Y-68454819D01*
X122261905Y-68454819D02*
X122214286Y-68931009D01*
X122214286Y-68931009D02*
X122261905Y-68883390D01*
X122261905Y-68883390D02*
X122357143Y-68835771D01*
X122357143Y-68835771D02*
X122595238Y-68835771D01*
X122595238Y-68835771D02*
X122690476Y-68883390D01*
X122690476Y-68883390D02*
X122738095Y-68931009D01*
X122738095Y-68931009D02*
X122785714Y-69026247D01*
X122785714Y-69026247D02*
X122785714Y-69264342D01*
X122785714Y-69264342D02*
X122738095Y-69359580D01*
X122738095Y-69359580D02*
X122690476Y-69407200D01*
X122690476Y-69407200D02*
X122595238Y-69454819D01*
X122595238Y-69454819D02*
X122357143Y-69454819D01*
X122357143Y-69454819D02*
X122261905Y-69407200D01*
X122261905Y-69407200D02*
X122214286Y-69359580D01*
X141467261Y-100150057D02*
X141372023Y-100102438D01*
X141372023Y-100102438D02*
X141276785Y-100007200D01*
X141276785Y-100007200D02*
X141133928Y-99864342D01*
X141133928Y-99864342D02*
X141038690Y-99816723D01*
X141038690Y-99816723D02*
X140943452Y-99816723D01*
X140991071Y-100054819D02*
X140895833Y-100007200D01*
X140895833Y-100007200D02*
X140800595Y-99911961D01*
X140800595Y-99911961D02*
X140752976Y-99721485D01*
X140752976Y-99721485D02*
X140752976Y-99388152D01*
X140752976Y-99388152D02*
X140800595Y-99197676D01*
X140800595Y-99197676D02*
X140895833Y-99102438D01*
X140895833Y-99102438D02*
X140991071Y-99054819D01*
X140991071Y-99054819D02*
X141181547Y-99054819D01*
X141181547Y-99054819D02*
X141276785Y-99102438D01*
X141276785Y-99102438D02*
X141372023Y-99197676D01*
X141372023Y-99197676D02*
X141419642Y-99388152D01*
X141419642Y-99388152D02*
X141419642Y-99721485D01*
X141419642Y-99721485D02*
X141372023Y-99911961D01*
X141372023Y-99911961D02*
X141276785Y-100007200D01*
X141276785Y-100007200D02*
X141181547Y-100054819D01*
X141181547Y-100054819D02*
X140991071Y-100054819D01*
X141752976Y-99054819D02*
X142372023Y-99054819D01*
X142372023Y-99054819D02*
X142038690Y-99435771D01*
X142038690Y-99435771D02*
X142181547Y-99435771D01*
X142181547Y-99435771D02*
X142276785Y-99483390D01*
X142276785Y-99483390D02*
X142324404Y-99531009D01*
X142324404Y-99531009D02*
X142372023Y-99626247D01*
X142372023Y-99626247D02*
X142372023Y-99864342D01*
X142372023Y-99864342D02*
X142324404Y-99959580D01*
X142324404Y-99959580D02*
X142276785Y-100007200D01*
X142276785Y-100007200D02*
X142181547Y-100054819D01*
X142181547Y-100054819D02*
X141895833Y-100054819D01*
X141895833Y-100054819D02*
X141800595Y-100007200D01*
X141800595Y-100007200D02*
X141752976Y-99959580D01*
X139316877Y-72703524D02*
X139316877Y-73513047D01*
X139316877Y-73513047D02*
X139364496Y-73608285D01*
X139364496Y-73608285D02*
X139412115Y-73655905D01*
X139412115Y-73655905D02*
X139507353Y-73703524D01*
X139507353Y-73703524D02*
X139697829Y-73703524D01*
X139697829Y-73703524D02*
X139793067Y-73655905D01*
X139793067Y-73655905D02*
X139840686Y-73608285D01*
X139840686Y-73608285D02*
X139888305Y-73513047D01*
X139888305Y-73513047D02*
X139888305Y-72703524D01*
X140412115Y-73703524D02*
X140602591Y-73703524D01*
X140602591Y-73703524D02*
X140697829Y-73655905D01*
X140697829Y-73655905D02*
X140745448Y-73608285D01*
X140745448Y-73608285D02*
X140840686Y-73465428D01*
X140840686Y-73465428D02*
X140888305Y-73274952D01*
X140888305Y-73274952D02*
X140888305Y-72894000D01*
X140888305Y-72894000D02*
X140840686Y-72798762D01*
X140840686Y-72798762D02*
X140793067Y-72751143D01*
X140793067Y-72751143D02*
X140697829Y-72703524D01*
X140697829Y-72703524D02*
X140507353Y-72703524D01*
X140507353Y-72703524D02*
X140412115Y-72751143D01*
X140412115Y-72751143D02*
X140364496Y-72798762D01*
X140364496Y-72798762D02*
X140316877Y-72894000D01*
X140316877Y-72894000D02*
X140316877Y-73132095D01*
X140316877Y-73132095D02*
X140364496Y-73227333D01*
X140364496Y-73227333D02*
X140412115Y-73274952D01*
X140412115Y-73274952D02*
X140507353Y-73322571D01*
X140507353Y-73322571D02*
X140697829Y-73322571D01*
X140697829Y-73322571D02*
X140793067Y-73274952D01*
X140793067Y-73274952D02*
X140840686Y-73227333D01*
X140840686Y-73227333D02*
X140888305Y-73132095D01*
X119333333Y-69454819D02*
X119000000Y-68978628D01*
X118761905Y-69454819D02*
X118761905Y-68454819D01*
X118761905Y-68454819D02*
X119142857Y-68454819D01*
X119142857Y-68454819D02*
X119238095Y-68502438D01*
X119238095Y-68502438D02*
X119285714Y-68550057D01*
X119285714Y-68550057D02*
X119333333Y-68645295D01*
X119333333Y-68645295D02*
X119333333Y-68788152D01*
X119333333Y-68788152D02*
X119285714Y-68883390D01*
X119285714Y-68883390D02*
X119238095Y-68931009D01*
X119238095Y-68931009D02*
X119142857Y-68978628D01*
X119142857Y-68978628D02*
X118761905Y-68978628D01*
X120190476Y-68788152D02*
X120190476Y-69454819D01*
X119952381Y-68407200D02*
X119714286Y-69121485D01*
X119714286Y-69121485D02*
X120333333Y-69121485D01*
X126916666Y-104104819D02*
X126916666Y-104819104D01*
X126916666Y-104819104D02*
X126869047Y-104961961D01*
X126869047Y-104961961D02*
X126773809Y-105057200D01*
X126773809Y-105057200D02*
X126630952Y-105104819D01*
X126630952Y-105104819D02*
X126535714Y-105104819D01*
X127297619Y-104104819D02*
X127916666Y-104104819D01*
X127916666Y-104104819D02*
X127583333Y-104485771D01*
X127583333Y-104485771D02*
X127726190Y-104485771D01*
X127726190Y-104485771D02*
X127821428Y-104533390D01*
X127821428Y-104533390D02*
X127869047Y-104581009D01*
X127869047Y-104581009D02*
X127916666Y-104676247D01*
X127916666Y-104676247D02*
X127916666Y-104914342D01*
X127916666Y-104914342D02*
X127869047Y-105009580D01*
X127869047Y-105009580D02*
X127821428Y-105057200D01*
X127821428Y-105057200D02*
X127726190Y-105104819D01*
X127726190Y-105104819D02*
X127440476Y-105104819D01*
X127440476Y-105104819D02*
X127345238Y-105057200D01*
X127345238Y-105057200D02*
X127297619Y-105009580D01*
X130049580Y-72916666D02*
X130097200Y-72964285D01*
X130097200Y-72964285D02*
X130144819Y-73107142D01*
X130144819Y-73107142D02*
X130144819Y-73202380D01*
X130144819Y-73202380D02*
X130097200Y-73345237D01*
X130097200Y-73345237D02*
X130001961Y-73440475D01*
X130001961Y-73440475D02*
X129906723Y-73488094D01*
X129906723Y-73488094D02*
X129716247Y-73535713D01*
X129716247Y-73535713D02*
X129573390Y-73535713D01*
X129573390Y-73535713D02*
X129382914Y-73488094D01*
X129382914Y-73488094D02*
X129287676Y-73440475D01*
X129287676Y-73440475D02*
X129192438Y-73345237D01*
X129192438Y-73345237D02*
X129144819Y-73202380D01*
X129144819Y-73202380D02*
X129144819Y-73107142D01*
X129144819Y-73107142D02*
X129192438Y-72964285D01*
X129192438Y-72964285D02*
X129240057Y-72916666D01*
X130144819Y-72440475D02*
X130144819Y-72249999D01*
X130144819Y-72249999D02*
X130097200Y-72154761D01*
X130097200Y-72154761D02*
X130049580Y-72107142D01*
X130049580Y-72107142D02*
X129906723Y-72011904D01*
X129906723Y-72011904D02*
X129716247Y-71964285D01*
X129716247Y-71964285D02*
X129335295Y-71964285D01*
X129335295Y-71964285D02*
X129240057Y-72011904D01*
X129240057Y-72011904D02*
X129192438Y-72059523D01*
X129192438Y-72059523D02*
X129144819Y-72154761D01*
X129144819Y-72154761D02*
X129144819Y-72345237D01*
X129144819Y-72345237D02*
X129192438Y-72440475D01*
X129192438Y-72440475D02*
X129240057Y-72488094D01*
X129240057Y-72488094D02*
X129335295Y-72535713D01*
X129335295Y-72535713D02*
X129573390Y-72535713D01*
X129573390Y-72535713D02*
X129668628Y-72488094D01*
X129668628Y-72488094D02*
X129716247Y-72440475D01*
X129716247Y-72440475D02*
X129763866Y-72345237D01*
X129763866Y-72345237D02*
X129763866Y-72154761D01*
X129763866Y-72154761D02*
X129716247Y-72059523D01*
X129716247Y-72059523D02*
X129668628Y-72011904D01*
X129668628Y-72011904D02*
X129573390Y-71964285D01*
X150967261Y-100150057D02*
X150872023Y-100102438D01*
X150872023Y-100102438D02*
X150776785Y-100007200D01*
X150776785Y-100007200D02*
X150633928Y-99864342D01*
X150633928Y-99864342D02*
X150538690Y-99816723D01*
X150538690Y-99816723D02*
X150443452Y-99816723D01*
X150491071Y-100054819D02*
X150395833Y-100007200D01*
X150395833Y-100007200D02*
X150300595Y-99911961D01*
X150300595Y-99911961D02*
X150252976Y-99721485D01*
X150252976Y-99721485D02*
X150252976Y-99388152D01*
X150252976Y-99388152D02*
X150300595Y-99197676D01*
X150300595Y-99197676D02*
X150395833Y-99102438D01*
X150395833Y-99102438D02*
X150491071Y-99054819D01*
X150491071Y-99054819D02*
X150681547Y-99054819D01*
X150681547Y-99054819D02*
X150776785Y-99102438D01*
X150776785Y-99102438D02*
X150872023Y-99197676D01*
X150872023Y-99197676D02*
X150919642Y-99388152D01*
X150919642Y-99388152D02*
X150919642Y-99721485D01*
X150919642Y-99721485D02*
X150872023Y-99911961D01*
X150872023Y-99911961D02*
X150776785Y-100007200D01*
X150776785Y-100007200D02*
X150681547Y-100054819D01*
X150681547Y-100054819D02*
X150491071Y-100054819D01*
X151776785Y-99388152D02*
X151776785Y-100054819D01*
X151538690Y-99007200D02*
X151300595Y-99721485D01*
X151300595Y-99721485D02*
X151919642Y-99721485D01*
X127357142Y-102454819D02*
X127023809Y-101978628D01*
X126785714Y-102454819D02*
X126785714Y-101454819D01*
X126785714Y-101454819D02*
X127166666Y-101454819D01*
X127166666Y-101454819D02*
X127261904Y-101502438D01*
X127261904Y-101502438D02*
X127309523Y-101550057D01*
X127309523Y-101550057D02*
X127357142Y-101645295D01*
X127357142Y-101645295D02*
X127357142Y-101788152D01*
X127357142Y-101788152D02*
X127309523Y-101883390D01*
X127309523Y-101883390D02*
X127261904Y-101931009D01*
X127261904Y-101931009D02*
X127166666Y-101978628D01*
X127166666Y-101978628D02*
X126785714Y-101978628D01*
X128309523Y-102454819D02*
X127738095Y-102454819D01*
X128023809Y-102454819D02*
X128023809Y-101454819D01*
X128023809Y-101454819D02*
X127928571Y-101597676D01*
X127928571Y-101597676D02*
X127833333Y-101692914D01*
X127833333Y-101692914D02*
X127738095Y-101740533D01*
X128642857Y-101454819D02*
X129261904Y-101454819D01*
X129261904Y-101454819D02*
X128928571Y-101835771D01*
X128928571Y-101835771D02*
X129071428Y-101835771D01*
X129071428Y-101835771D02*
X129166666Y-101883390D01*
X129166666Y-101883390D02*
X129214285Y-101931009D01*
X129214285Y-101931009D02*
X129261904Y-102026247D01*
X129261904Y-102026247D02*
X129261904Y-102264342D01*
X129261904Y-102264342D02*
X129214285Y-102359580D01*
X129214285Y-102359580D02*
X129166666Y-102407200D01*
X129166666Y-102407200D02*
X129071428Y-102454819D01*
X129071428Y-102454819D02*
X128785714Y-102454819D01*
X128785714Y-102454819D02*
X128690476Y-102407200D01*
X128690476Y-102407200D02*
X128642857Y-102359580D01*
X124333333Y-69454819D02*
X124000000Y-68978628D01*
X123761905Y-69454819D02*
X123761905Y-68454819D01*
X123761905Y-68454819D02*
X124142857Y-68454819D01*
X124142857Y-68454819D02*
X124238095Y-68502438D01*
X124238095Y-68502438D02*
X124285714Y-68550057D01*
X124285714Y-68550057D02*
X124333333Y-68645295D01*
X124333333Y-68645295D02*
X124333333Y-68788152D01*
X124333333Y-68788152D02*
X124285714Y-68883390D01*
X124285714Y-68883390D02*
X124238095Y-68931009D01*
X124238095Y-68931009D02*
X124142857Y-68978628D01*
X124142857Y-68978628D02*
X123761905Y-68978628D01*
X124714286Y-68550057D02*
X124761905Y-68502438D01*
X124761905Y-68502438D02*
X124857143Y-68454819D01*
X124857143Y-68454819D02*
X125095238Y-68454819D01*
X125095238Y-68454819D02*
X125190476Y-68502438D01*
X125190476Y-68502438D02*
X125238095Y-68550057D01*
X125238095Y-68550057D02*
X125285714Y-68645295D01*
X125285714Y-68645295D02*
X125285714Y-68740533D01*
X125285714Y-68740533D02*
X125238095Y-68883390D01*
X125238095Y-68883390D02*
X124666667Y-69454819D01*
X124666667Y-69454819D02*
X125285714Y-69454819D01*
X160603197Y-75627619D02*
X160603197Y-76437142D01*
X160603197Y-76437142D02*
X160650816Y-76532380D01*
X160650816Y-76532380D02*
X160698435Y-76580000D01*
X160698435Y-76580000D02*
X160793673Y-76627619D01*
X160793673Y-76627619D02*
X160984149Y-76627619D01*
X160984149Y-76627619D02*
X161079387Y-76580000D01*
X161079387Y-76580000D02*
X161127006Y-76532380D01*
X161127006Y-76532380D02*
X161174625Y-76437142D01*
X161174625Y-76437142D02*
X161174625Y-75627619D01*
X162174625Y-76627619D02*
X161603197Y-76627619D01*
X161888911Y-76627619D02*
X161888911Y-75627619D01*
X161888911Y-75627619D02*
X161793673Y-75770476D01*
X161793673Y-75770476D02*
X161698435Y-75865714D01*
X161698435Y-75865714D02*
X161603197Y-75913333D01*
X163127006Y-76627619D02*
X162555578Y-76627619D01*
X162841292Y-76627619D02*
X162841292Y-75627619D01*
X162841292Y-75627619D02*
X162746054Y-75770476D01*
X162746054Y-75770476D02*
X162650816Y-75865714D01*
X162650816Y-75865714D02*
X162555578Y-75913333D01*
X147333333Y-69454819D02*
X147000000Y-68978628D01*
X146761905Y-69454819D02*
X146761905Y-68454819D01*
X146761905Y-68454819D02*
X147142857Y-68454819D01*
X147142857Y-68454819D02*
X147238095Y-68502438D01*
X147238095Y-68502438D02*
X147285714Y-68550057D01*
X147285714Y-68550057D02*
X147333333Y-68645295D01*
X147333333Y-68645295D02*
X147333333Y-68788152D01*
X147333333Y-68788152D02*
X147285714Y-68883390D01*
X147285714Y-68883390D02*
X147238095Y-68931009D01*
X147238095Y-68931009D02*
X147142857Y-68978628D01*
X147142857Y-68978628D02*
X146761905Y-68978628D01*
X147809524Y-69454819D02*
X148000000Y-69454819D01*
X148000000Y-69454819D02*
X148095238Y-69407200D01*
X148095238Y-69407200D02*
X148142857Y-69359580D01*
X148142857Y-69359580D02*
X148238095Y-69216723D01*
X148238095Y-69216723D02*
X148285714Y-69026247D01*
X148285714Y-69026247D02*
X148285714Y-68645295D01*
X148285714Y-68645295D02*
X148238095Y-68550057D01*
X148238095Y-68550057D02*
X148190476Y-68502438D01*
X148190476Y-68502438D02*
X148095238Y-68454819D01*
X148095238Y-68454819D02*
X147904762Y-68454819D01*
X147904762Y-68454819D02*
X147809524Y-68502438D01*
X147809524Y-68502438D02*
X147761905Y-68550057D01*
X147761905Y-68550057D02*
X147714286Y-68645295D01*
X147714286Y-68645295D02*
X147714286Y-68883390D01*
X147714286Y-68883390D02*
X147761905Y-68978628D01*
X147761905Y-68978628D02*
X147809524Y-69026247D01*
X147809524Y-69026247D02*
X147904762Y-69073866D01*
X147904762Y-69073866D02*
X148095238Y-69073866D01*
X148095238Y-69073866D02*
X148190476Y-69026247D01*
X148190476Y-69026247D02*
X148238095Y-68978628D01*
X148238095Y-68978628D02*
X148285714Y-68883390D01*
X121904761Y-98987557D02*
X121809523Y-98939938D01*
X121809523Y-98939938D02*
X121714285Y-98844700D01*
X121714285Y-98844700D02*
X121571428Y-98701842D01*
X121571428Y-98701842D02*
X121476190Y-98654223D01*
X121476190Y-98654223D02*
X121380952Y-98654223D01*
X121428571Y-98892319D02*
X121333333Y-98844700D01*
X121333333Y-98844700D02*
X121238095Y-98749461D01*
X121238095Y-98749461D02*
X121190476Y-98558985D01*
X121190476Y-98558985D02*
X121190476Y-98225652D01*
X121190476Y-98225652D02*
X121238095Y-98035176D01*
X121238095Y-98035176D02*
X121333333Y-97939938D01*
X121333333Y-97939938D02*
X121428571Y-97892319D01*
X121428571Y-97892319D02*
X121619047Y-97892319D01*
X121619047Y-97892319D02*
X121714285Y-97939938D01*
X121714285Y-97939938D02*
X121809523Y-98035176D01*
X121809523Y-98035176D02*
X121857142Y-98225652D01*
X121857142Y-98225652D02*
X121857142Y-98558985D01*
X121857142Y-98558985D02*
X121809523Y-98749461D01*
X121809523Y-98749461D02*
X121714285Y-98844700D01*
X121714285Y-98844700D02*
X121619047Y-98892319D01*
X121619047Y-98892319D02*
X121428571Y-98892319D01*
X122809523Y-98892319D02*
X122238095Y-98892319D01*
X122523809Y-98892319D02*
X122523809Y-97892319D01*
X122523809Y-97892319D02*
X122428571Y-98035176D01*
X122428571Y-98035176D02*
X122333333Y-98130414D01*
X122333333Y-98130414D02*
X122238095Y-98178033D01*
X152333333Y-69454819D02*
X152000000Y-68978628D01*
X151761905Y-69454819D02*
X151761905Y-68454819D01*
X151761905Y-68454819D02*
X152142857Y-68454819D01*
X152142857Y-68454819D02*
X152238095Y-68502438D01*
X152238095Y-68502438D02*
X152285714Y-68550057D01*
X152285714Y-68550057D02*
X152333333Y-68645295D01*
X152333333Y-68645295D02*
X152333333Y-68788152D01*
X152333333Y-68788152D02*
X152285714Y-68883390D01*
X152285714Y-68883390D02*
X152238095Y-68931009D01*
X152238095Y-68931009D02*
X152142857Y-68978628D01*
X152142857Y-68978628D02*
X151761905Y-68978628D01*
X153285714Y-69454819D02*
X152714286Y-69454819D01*
X153000000Y-69454819D02*
X153000000Y-68454819D01*
X153000000Y-68454819D02*
X152904762Y-68597676D01*
X152904762Y-68597676D02*
X152809524Y-68692914D01*
X152809524Y-68692914D02*
X152714286Y-68740533D01*
X159136312Y-86893864D02*
X159136312Y-87703387D01*
X159136312Y-87703387D02*
X159183931Y-87798625D01*
X159183931Y-87798625D02*
X159231550Y-87846245D01*
X159231550Y-87846245D02*
X159326788Y-87893864D01*
X159326788Y-87893864D02*
X159517264Y-87893864D01*
X159517264Y-87893864D02*
X159612502Y-87846245D01*
X159612502Y-87846245D02*
X159660121Y-87798625D01*
X159660121Y-87798625D02*
X159707740Y-87703387D01*
X159707740Y-87703387D02*
X159707740Y-86893864D01*
X160326788Y-87322435D02*
X160231550Y-87274816D01*
X160231550Y-87274816D02*
X160183931Y-87227197D01*
X160183931Y-87227197D02*
X160136312Y-87131959D01*
X160136312Y-87131959D02*
X160136312Y-87084340D01*
X160136312Y-87084340D02*
X160183931Y-86989102D01*
X160183931Y-86989102D02*
X160231550Y-86941483D01*
X160231550Y-86941483D02*
X160326788Y-86893864D01*
X160326788Y-86893864D02*
X160517264Y-86893864D01*
X160517264Y-86893864D02*
X160612502Y-86941483D01*
X160612502Y-86941483D02*
X160660121Y-86989102D01*
X160660121Y-86989102D02*
X160707740Y-87084340D01*
X160707740Y-87084340D02*
X160707740Y-87131959D01*
X160707740Y-87131959D02*
X160660121Y-87227197D01*
X160660121Y-87227197D02*
X160612502Y-87274816D01*
X160612502Y-87274816D02*
X160517264Y-87322435D01*
X160517264Y-87322435D02*
X160326788Y-87322435D01*
X160326788Y-87322435D02*
X160231550Y-87370054D01*
X160231550Y-87370054D02*
X160183931Y-87417673D01*
X160183931Y-87417673D02*
X160136312Y-87512911D01*
X160136312Y-87512911D02*
X160136312Y-87703387D01*
X160136312Y-87703387D02*
X160183931Y-87798625D01*
X160183931Y-87798625D02*
X160231550Y-87846245D01*
X160231550Y-87846245D02*
X160326788Y-87893864D01*
X160326788Y-87893864D02*
X160517264Y-87893864D01*
X160517264Y-87893864D02*
X160612502Y-87846245D01*
X160612502Y-87846245D02*
X160660121Y-87798625D01*
X160660121Y-87798625D02*
X160707740Y-87703387D01*
X160707740Y-87703387D02*
X160707740Y-87512911D01*
X160707740Y-87512911D02*
X160660121Y-87417673D01*
X160660121Y-87417673D02*
X160612502Y-87370054D01*
X160612502Y-87370054D02*
X160517264Y-87322435D01*
X144833333Y-100954819D02*
X144500000Y-100478628D01*
X144261905Y-100954819D02*
X144261905Y-99954819D01*
X144261905Y-99954819D02*
X144642857Y-99954819D01*
X144642857Y-99954819D02*
X144738095Y-100002438D01*
X144738095Y-100002438D02*
X144785714Y-100050057D01*
X144785714Y-100050057D02*
X144833333Y-100145295D01*
X144833333Y-100145295D02*
X144833333Y-100288152D01*
X144833333Y-100288152D02*
X144785714Y-100383390D01*
X144785714Y-100383390D02*
X144738095Y-100431009D01*
X144738095Y-100431009D02*
X144642857Y-100478628D01*
X144642857Y-100478628D02*
X144261905Y-100478628D01*
X145166667Y-99954819D02*
X145833333Y-99954819D01*
X145833333Y-99954819D02*
X145404762Y-100954819D01*
X118006474Y-91059149D02*
X118006474Y-91868672D01*
X118006474Y-91868672D02*
X118054093Y-91963910D01*
X118054093Y-91963910D02*
X118101712Y-92011530D01*
X118101712Y-92011530D02*
X118196950Y-92059149D01*
X118196950Y-92059149D02*
X118387426Y-92059149D01*
X118387426Y-92059149D02*
X118482664Y-92011530D01*
X118482664Y-92011530D02*
X118530283Y-91963910D01*
X118530283Y-91963910D02*
X118577902Y-91868672D01*
X118577902Y-91868672D02*
X118577902Y-91059149D01*
X119006474Y-91154387D02*
X119054093Y-91106768D01*
X119054093Y-91106768D02*
X119149331Y-91059149D01*
X119149331Y-91059149D02*
X119387426Y-91059149D01*
X119387426Y-91059149D02*
X119482664Y-91106768D01*
X119482664Y-91106768D02*
X119530283Y-91154387D01*
X119530283Y-91154387D02*
X119577902Y-91249625D01*
X119577902Y-91249625D02*
X119577902Y-91344863D01*
X119577902Y-91344863D02*
X119530283Y-91487720D01*
X119530283Y-91487720D02*
X118958855Y-92059149D01*
X118958855Y-92059149D02*
X119577902Y-92059149D01*
X120480900Y-89243619D02*
X120480900Y-89481714D01*
X120242805Y-89386476D02*
X120480900Y-89481714D01*
X120480900Y-89481714D02*
X120718995Y-89386476D01*
X120338043Y-89672190D02*
X120480900Y-89481714D01*
X120480900Y-89481714D02*
X120623757Y-89672190D01*
X120480900Y-89243619D02*
X120480900Y-89481714D01*
X120242805Y-89386476D02*
X120480900Y-89481714D01*
X120480900Y-89481714D02*
X120718995Y-89386476D01*
X120338043Y-89672190D02*
X120480900Y-89481714D01*
X120480900Y-89481714D02*
X120623757Y-89672190D01*
X124583333Y-87859580D02*
X124535714Y-87907200D01*
X124535714Y-87907200D02*
X124392857Y-87954819D01*
X124392857Y-87954819D02*
X124297619Y-87954819D01*
X124297619Y-87954819D02*
X124154762Y-87907200D01*
X124154762Y-87907200D02*
X124059524Y-87811961D01*
X124059524Y-87811961D02*
X124011905Y-87716723D01*
X124011905Y-87716723D02*
X123964286Y-87526247D01*
X123964286Y-87526247D02*
X123964286Y-87383390D01*
X123964286Y-87383390D02*
X124011905Y-87192914D01*
X124011905Y-87192914D02*
X124059524Y-87097676D01*
X124059524Y-87097676D02*
X124154762Y-87002438D01*
X124154762Y-87002438D02*
X124297619Y-86954819D01*
X124297619Y-86954819D02*
X124392857Y-86954819D01*
X124392857Y-86954819D02*
X124535714Y-87002438D01*
X124535714Y-87002438D02*
X124583333Y-87050057D01*
X125488095Y-86954819D02*
X125011905Y-86954819D01*
X125011905Y-86954819D02*
X124964286Y-87431009D01*
X124964286Y-87431009D02*
X125011905Y-87383390D01*
X125011905Y-87383390D02*
X125107143Y-87335771D01*
X125107143Y-87335771D02*
X125345238Y-87335771D01*
X125345238Y-87335771D02*
X125440476Y-87383390D01*
X125440476Y-87383390D02*
X125488095Y-87431009D01*
X125488095Y-87431009D02*
X125535714Y-87526247D01*
X125535714Y-87526247D02*
X125535714Y-87764342D01*
X125535714Y-87764342D02*
X125488095Y-87859580D01*
X125488095Y-87859580D02*
X125440476Y-87907200D01*
X125440476Y-87907200D02*
X125345238Y-87954819D01*
X125345238Y-87954819D02*
X125107143Y-87954819D01*
X125107143Y-87954819D02*
X125011905Y-87907200D01*
X125011905Y-87907200D02*
X124964286Y-87859580D01*
X117404761Y-99112557D02*
X117309523Y-99064938D01*
X117309523Y-99064938D02*
X117214285Y-98969700D01*
X117214285Y-98969700D02*
X117071428Y-98826842D01*
X117071428Y-98826842D02*
X116976190Y-98779223D01*
X116976190Y-98779223D02*
X116880952Y-98779223D01*
X116928571Y-99017319D02*
X116833333Y-98969700D01*
X116833333Y-98969700D02*
X116738095Y-98874461D01*
X116738095Y-98874461D02*
X116690476Y-98683985D01*
X116690476Y-98683985D02*
X116690476Y-98350652D01*
X116690476Y-98350652D02*
X116738095Y-98160176D01*
X116738095Y-98160176D02*
X116833333Y-98064938D01*
X116833333Y-98064938D02*
X116928571Y-98017319D01*
X116928571Y-98017319D02*
X117119047Y-98017319D01*
X117119047Y-98017319D02*
X117214285Y-98064938D01*
X117214285Y-98064938D02*
X117309523Y-98160176D01*
X117309523Y-98160176D02*
X117357142Y-98350652D01*
X117357142Y-98350652D02*
X117357142Y-98683985D01*
X117357142Y-98683985D02*
X117309523Y-98874461D01*
X117309523Y-98874461D02*
X117214285Y-98969700D01*
X117214285Y-98969700D02*
X117119047Y-99017319D01*
X117119047Y-99017319D02*
X116928571Y-99017319D01*
X117738095Y-98112557D02*
X117785714Y-98064938D01*
X117785714Y-98064938D02*
X117880952Y-98017319D01*
X117880952Y-98017319D02*
X118119047Y-98017319D01*
X118119047Y-98017319D02*
X118214285Y-98064938D01*
X118214285Y-98064938D02*
X118261904Y-98112557D01*
X118261904Y-98112557D02*
X118309523Y-98207795D01*
X118309523Y-98207795D02*
X118309523Y-98303033D01*
X118309523Y-98303033D02*
X118261904Y-98445890D01*
X118261904Y-98445890D02*
X117690476Y-99017319D01*
X117690476Y-99017319D02*
X118309523Y-99017319D01*
X146357142Y-90159580D02*
X146309523Y-90207200D01*
X146309523Y-90207200D02*
X146166666Y-90254819D01*
X146166666Y-90254819D02*
X146071428Y-90254819D01*
X146071428Y-90254819D02*
X145928571Y-90207200D01*
X145928571Y-90207200D02*
X145833333Y-90111961D01*
X145833333Y-90111961D02*
X145785714Y-90016723D01*
X145785714Y-90016723D02*
X145738095Y-89826247D01*
X145738095Y-89826247D02*
X145738095Y-89683390D01*
X145738095Y-89683390D02*
X145785714Y-89492914D01*
X145785714Y-89492914D02*
X145833333Y-89397676D01*
X145833333Y-89397676D02*
X145928571Y-89302438D01*
X145928571Y-89302438D02*
X146071428Y-89254819D01*
X146071428Y-89254819D02*
X146166666Y-89254819D01*
X146166666Y-89254819D02*
X146309523Y-89302438D01*
X146309523Y-89302438D02*
X146357142Y-89350057D01*
X147309523Y-90254819D02*
X146738095Y-90254819D01*
X147023809Y-90254819D02*
X147023809Y-89254819D01*
X147023809Y-89254819D02*
X146928571Y-89397676D01*
X146928571Y-89397676D02*
X146833333Y-89492914D01*
X146833333Y-89492914D02*
X146738095Y-89540533D01*
X148214285Y-89254819D02*
X147738095Y-89254819D01*
X147738095Y-89254819D02*
X147690476Y-89731009D01*
X147690476Y-89731009D02*
X147738095Y-89683390D01*
X147738095Y-89683390D02*
X147833333Y-89635771D01*
X147833333Y-89635771D02*
X148071428Y-89635771D01*
X148071428Y-89635771D02*
X148166666Y-89683390D01*
X148166666Y-89683390D02*
X148214285Y-89731009D01*
X148214285Y-89731009D02*
X148261904Y-89826247D01*
X148261904Y-89826247D02*
X148261904Y-90064342D01*
X148261904Y-90064342D02*
X148214285Y-90159580D01*
X148214285Y-90159580D02*
X148166666Y-90207200D01*
X148166666Y-90207200D02*
X148071428Y-90254819D01*
X148071428Y-90254819D02*
X147833333Y-90254819D01*
X147833333Y-90254819D02*
X147738095Y-90207200D01*
X147738095Y-90207200D02*
X147690476Y-90159580D01*
X121907142Y-78359580D02*
X121859523Y-78407200D01*
X121859523Y-78407200D02*
X121716666Y-78454819D01*
X121716666Y-78454819D02*
X121621428Y-78454819D01*
X121621428Y-78454819D02*
X121478571Y-78407200D01*
X121478571Y-78407200D02*
X121383333Y-78311961D01*
X121383333Y-78311961D02*
X121335714Y-78216723D01*
X121335714Y-78216723D02*
X121288095Y-78026247D01*
X121288095Y-78026247D02*
X121288095Y-77883390D01*
X121288095Y-77883390D02*
X121335714Y-77692914D01*
X121335714Y-77692914D02*
X121383333Y-77597676D01*
X121383333Y-77597676D02*
X121478571Y-77502438D01*
X121478571Y-77502438D02*
X121621428Y-77454819D01*
X121621428Y-77454819D02*
X121716666Y-77454819D01*
X121716666Y-77454819D02*
X121859523Y-77502438D01*
X121859523Y-77502438D02*
X121907142Y-77550057D01*
X122859523Y-78454819D02*
X122288095Y-78454819D01*
X122573809Y-78454819D02*
X122573809Y-77454819D01*
X122573809Y-77454819D02*
X122478571Y-77597676D01*
X122478571Y-77597676D02*
X122383333Y-77692914D01*
X122383333Y-77692914D02*
X122288095Y-77740533D01*
X123240476Y-77550057D02*
X123288095Y-77502438D01*
X123288095Y-77502438D02*
X123383333Y-77454819D01*
X123383333Y-77454819D02*
X123621428Y-77454819D01*
X123621428Y-77454819D02*
X123716666Y-77502438D01*
X123716666Y-77502438D02*
X123764285Y-77550057D01*
X123764285Y-77550057D02*
X123811904Y-77645295D01*
X123811904Y-77645295D02*
X123811904Y-77740533D01*
X123811904Y-77740533D02*
X123764285Y-77883390D01*
X123764285Y-77883390D02*
X123192857Y-78454819D01*
X123192857Y-78454819D02*
X123811904Y-78454819D01*
X161062142Y-83334580D02*
X161014523Y-83382200D01*
X161014523Y-83382200D02*
X160871666Y-83429819D01*
X160871666Y-83429819D02*
X160776428Y-83429819D01*
X160776428Y-83429819D02*
X160633571Y-83382200D01*
X160633571Y-83382200D02*
X160538333Y-83286961D01*
X160538333Y-83286961D02*
X160490714Y-83191723D01*
X160490714Y-83191723D02*
X160443095Y-83001247D01*
X160443095Y-83001247D02*
X160443095Y-82858390D01*
X160443095Y-82858390D02*
X160490714Y-82667914D01*
X160490714Y-82667914D02*
X160538333Y-82572676D01*
X160538333Y-82572676D02*
X160633571Y-82477438D01*
X160633571Y-82477438D02*
X160776428Y-82429819D01*
X160776428Y-82429819D02*
X160871666Y-82429819D01*
X160871666Y-82429819D02*
X161014523Y-82477438D01*
X161014523Y-82477438D02*
X161062142Y-82525057D01*
X162014523Y-83429819D02*
X161443095Y-83429819D01*
X161728809Y-83429819D02*
X161728809Y-82429819D01*
X161728809Y-82429819D02*
X161633571Y-82572676D01*
X161633571Y-82572676D02*
X161538333Y-82667914D01*
X161538333Y-82667914D02*
X161443095Y-82715533D01*
X162347857Y-82429819D02*
X162966904Y-82429819D01*
X162966904Y-82429819D02*
X162633571Y-82810771D01*
X162633571Y-82810771D02*
X162776428Y-82810771D01*
X162776428Y-82810771D02*
X162871666Y-82858390D01*
X162871666Y-82858390D02*
X162919285Y-82906009D01*
X162919285Y-82906009D02*
X162966904Y-83001247D01*
X162966904Y-83001247D02*
X162966904Y-83239342D01*
X162966904Y-83239342D02*
X162919285Y-83334580D01*
X162919285Y-83334580D02*
X162871666Y-83382200D01*
X162871666Y-83382200D02*
X162776428Y-83429819D01*
X162776428Y-83429819D02*
X162490714Y-83429819D01*
X162490714Y-83429819D02*
X162395476Y-83382200D01*
X162395476Y-83382200D02*
X162347857Y-83334580D01*
D11*
%TO.C,J4*%
X132140000Y-105440000D02*
X132140000Y-106690000D01*
X132440000Y-105740000D02*
X132440000Y-110460000D01*
X132440000Y-107050000D02*
X133050000Y-107050000D01*
X132440000Y-108350000D02*
X133050000Y-108350000D01*
X132440000Y-110460000D02*
X138560000Y-110460000D01*
X133050000Y-106350000D02*
X133050000Y-109850000D01*
X133050000Y-109850000D02*
X137950000Y-109850000D01*
X133390000Y-105440000D02*
X132140000Y-105440000D01*
X133900000Y-105540000D02*
X133900000Y-105740000D01*
X134200000Y-105540000D02*
X133900000Y-105540000D01*
X134200000Y-105640000D02*
X133900000Y-105640000D01*
X134200000Y-105740000D02*
X134200000Y-105540000D01*
X135000000Y-105740000D02*
X135000000Y-106350000D01*
X135000000Y-106350000D02*
X133050000Y-106350000D01*
X135400000Y-109350000D02*
X135600000Y-109350000D01*
X135400000Y-109850000D02*
X135400000Y-109350000D01*
X135500000Y-109850000D02*
X135500000Y-109350000D01*
X135600000Y-109350000D02*
X135600000Y-109850000D01*
X136000000Y-106350000D02*
X136000000Y-105740000D01*
X137950000Y-106350000D02*
X136000000Y-106350000D01*
X137950000Y-109850000D02*
X137950000Y-106350000D01*
X138560000Y-105740000D02*
X132440000Y-105740000D01*
X138560000Y-107050000D02*
X137950000Y-107050000D01*
X138560000Y-108350000D02*
X137950000Y-108350000D01*
X138560000Y-110460000D02*
X138560000Y-105740000D01*
%TO.C,R11*%
X137653641Y-101620000D02*
X137346359Y-101620000D01*
X137653641Y-102380000D02*
X137346359Y-102380000D01*
%TO.C,U12*%
X118500000Y-74500000D02*
X118500000Y-74500000D01*
X118500000Y-75000000D02*
X118500000Y-74700000D01*
X118500000Y-76200000D02*
X118500000Y-76200000D01*
X118500000Y-76700000D02*
X118500000Y-76200000D01*
X119000000Y-74500000D02*
X118700000Y-74500000D01*
X119000000Y-76700000D02*
X118500000Y-76700000D01*
X120200000Y-74500000D02*
X120700000Y-74500000D01*
X120200000Y-76700000D02*
X120200000Y-76700000D01*
X120700000Y-74500000D02*
X120700000Y-75000000D01*
X120700000Y-75000000D02*
X120700000Y-75000000D01*
X120700000Y-76200000D02*
X120700000Y-76700000D01*
X120700000Y-76700000D02*
X120200000Y-76700000D01*
X118500000Y-74500000D02*
X118140000Y-74500000D01*
X118500000Y-74140000D01*
X118500000Y-74500000D01*
G36*
X118500000Y-74500000D02*
G01*
X118140000Y-74500000D01*
X118500000Y-74140000D01*
X118500000Y-74500000D01*
G37*
%TO.C,J5*%
X140640000Y-105440000D02*
X140640000Y-106690000D01*
X140940000Y-105740000D02*
X140940000Y-110460000D01*
X140940000Y-107050000D02*
X141550000Y-107050000D01*
X140940000Y-108350000D02*
X141550000Y-108350000D01*
X140940000Y-110460000D02*
X147060000Y-110460000D01*
X141550000Y-106350000D02*
X141550000Y-109850000D01*
X141550000Y-109850000D02*
X146450000Y-109850000D01*
X141890000Y-105440000D02*
X140640000Y-105440000D01*
X142400000Y-105540000D02*
X142400000Y-105740000D01*
X142700000Y-105540000D02*
X142400000Y-105540000D01*
X142700000Y-105640000D02*
X142400000Y-105640000D01*
X142700000Y-105740000D02*
X142700000Y-105540000D01*
X143500000Y-105740000D02*
X143500000Y-106350000D01*
X143500000Y-106350000D02*
X141550000Y-106350000D01*
X143900000Y-109350000D02*
X144100000Y-109350000D01*
X143900000Y-109850000D02*
X143900000Y-109350000D01*
X144000000Y-109850000D02*
X144000000Y-109350000D01*
X144100000Y-109350000D02*
X144100000Y-109850000D01*
X144500000Y-106350000D02*
X144500000Y-105740000D01*
X146450000Y-106350000D02*
X144500000Y-106350000D01*
X146450000Y-109850000D02*
X146450000Y-106350000D01*
X147060000Y-105740000D02*
X140940000Y-105740000D01*
X147060000Y-107050000D02*
X146450000Y-107050000D01*
X147060000Y-108350000D02*
X146450000Y-108350000D01*
X147060000Y-110460000D02*
X147060000Y-105740000D01*
%TO.C,R10*%
X154846359Y-101120000D02*
X155153641Y-101120000D01*
X154846359Y-101880000D02*
X155153641Y-101880000D01*
%TO.C,C10*%
X116450336Y-75990000D02*
X116234664Y-75990000D01*
X116450336Y-76710000D02*
X116234664Y-76710000D01*
%TO.C,R3*%
X133196359Y-72870000D02*
X133503641Y-72870000D01*
X133196359Y-73630000D02*
X133503641Y-73630000D01*
%TO.C,R12*%
X125346359Y-100620000D02*
X125653641Y-100620000D01*
X125346359Y-101380000D02*
X125653641Y-101380000D01*
%TO.C,J2*%
X154440000Y-106440000D02*
X154440000Y-108560000D01*
X162500000Y-106440000D02*
X154440000Y-106440000D01*
X162500000Y-106440000D02*
X162500000Y-108560000D01*
X162500000Y-108560000D02*
X154440000Y-108560000D01*
X163500000Y-106440000D02*
X164560000Y-106440000D01*
X164560000Y-106440000D02*
X164560000Y-107500000D01*
%TO.C,C8*%
X141240000Y-74587836D02*
X141240000Y-74372164D01*
X141960000Y-74587836D02*
X141960000Y-74372164D01*
%TO.C,C14*%
X140140000Y-86357836D02*
X140140000Y-86142164D01*
X140860000Y-86357836D02*
X140860000Y-86142164D01*
%TO.C,R8*%
X149620000Y-67153641D02*
X149620000Y-66846359D01*
X150380000Y-67153641D02*
X150380000Y-66846359D01*
%TO.C,C11*%
X119692164Y-79040000D02*
X119907836Y-79040000D01*
X119692164Y-79760000D02*
X119907836Y-79760000D01*
%TO.C,J6*%
X115390000Y-105340000D02*
X115390000Y-106590000D01*
X115690000Y-105640000D02*
X115690000Y-110360000D01*
X115690000Y-106950000D02*
X116300000Y-106950000D01*
X115690000Y-108250000D02*
X116300000Y-108250000D01*
X115690000Y-110360000D02*
X121810000Y-110360000D01*
X116300000Y-106250000D02*
X116300000Y-109750000D01*
X116300000Y-109750000D02*
X121200000Y-109750000D01*
X116640000Y-105340000D02*
X115390000Y-105340000D01*
X117150000Y-105440000D02*
X117150000Y-105640000D01*
X117450000Y-105440000D02*
X117150000Y-105440000D01*
X117450000Y-105540000D02*
X117150000Y-105540000D01*
X117450000Y-105640000D02*
X117450000Y-105440000D01*
X118250000Y-105640000D02*
X118250000Y-106250000D01*
X118250000Y-106250000D02*
X116300000Y-106250000D01*
X118650000Y-109250000D02*
X118850000Y-109250000D01*
X118650000Y-109750000D02*
X118650000Y-109250000D01*
X118750000Y-109750000D02*
X118750000Y-109250000D01*
X118850000Y-109250000D02*
X118850000Y-109750000D01*
X119250000Y-106250000D02*
X119250000Y-105640000D01*
X121200000Y-106250000D02*
X119250000Y-106250000D01*
X121200000Y-109750000D02*
X121200000Y-106250000D01*
X121810000Y-105640000D02*
X115690000Y-105640000D01*
X121810000Y-106950000D02*
X121200000Y-106950000D01*
X121810000Y-108250000D02*
X121200000Y-108250000D01*
X121810000Y-110360000D02*
X121810000Y-105640000D01*
D12*
%TO.C,U10*%
X135358400Y-85077600D02*
X135358400Y-85290259D01*
X135358400Y-87709741D02*
X135358400Y-87922400D01*
X135358400Y-87922400D02*
X138203200Y-87922400D01*
X138203200Y-85077600D02*
X135358400Y-85077600D01*
X138203200Y-85290259D02*
X138203200Y-85077600D01*
X138203200Y-87922400D02*
X138203200Y-87709741D01*
X134731400Y-85750000D02*
G75*
G02*
X134528200Y-85750000I-101600J0D01*
G01*
X134528200Y-85750000D02*
G75*
G02*
X134731400Y-85750000I101600J0D01*
G01*
D11*
%TO.C,C4*%
X123412164Y-93390000D02*
X123627836Y-93390000D01*
X123412164Y-94110000D02*
X123627836Y-94110000D01*
%TO.C,R6*%
X146846359Y-101620000D02*
X147153641Y-101620000D01*
X146846359Y-102380000D02*
X147153641Y-102380000D01*
%TO.C,R5*%
X121620000Y-67153641D02*
X121620000Y-66846359D01*
X122380000Y-67153641D02*
X122380000Y-66846359D01*
%TO.C,Q3*%
X141562500Y-100440000D02*
X140912500Y-100440000D01*
X141562500Y-100440000D02*
X142212500Y-100440000D01*
X141562500Y-103560000D02*
X140912500Y-103560000D01*
X141562500Y-103560000D02*
X142212500Y-103560000D01*
X140400000Y-100490000D02*
X140160000Y-100160000D01*
X140640000Y-100160000D01*
X140400000Y-100490000D01*
G36*
X140400000Y-100490000D02*
G01*
X140160000Y-100160000D01*
X140640000Y-100160000D01*
X140400000Y-100490000D01*
G37*
D13*
%TO.C,U9*%
X136130000Y-72680000D02*
X138570000Y-72680000D01*
X138570000Y-75320000D02*
X136130000Y-75320000D01*
D14*
X135400000Y-73200000D02*
G75*
G02*
X135200000Y-73200000I-100000J0D01*
G01*
X135200000Y-73200000D02*
G75*
G02*
X135400000Y-73200000I100000J0D01*
G01*
D11*
%TO.C,R4*%
X119120000Y-67153641D02*
X119120000Y-66846359D01*
X119880000Y-67153641D02*
X119880000Y-66846359D01*
%TO.C,J3*%
X123890000Y-105440000D02*
X123890000Y-106690000D01*
X124190000Y-105740000D02*
X124190000Y-110460000D01*
X124190000Y-107050000D02*
X124800000Y-107050000D01*
X124190000Y-108350000D02*
X124800000Y-108350000D01*
X124190000Y-110460000D02*
X130310000Y-110460000D01*
X124800000Y-106350000D02*
X124800000Y-109850000D01*
X124800000Y-109850000D02*
X129700000Y-109850000D01*
X125140000Y-105440000D02*
X123890000Y-105440000D01*
X125650000Y-105540000D02*
X125650000Y-105740000D01*
X125950000Y-105540000D02*
X125650000Y-105540000D01*
X125950000Y-105640000D02*
X125650000Y-105640000D01*
X125950000Y-105740000D02*
X125950000Y-105540000D01*
X126750000Y-105740000D02*
X126750000Y-106350000D01*
X126750000Y-106350000D02*
X124800000Y-106350000D01*
X127150000Y-109350000D02*
X127350000Y-109350000D01*
X127150000Y-109850000D02*
X127150000Y-109350000D01*
X127250000Y-109850000D02*
X127250000Y-109350000D01*
X127350000Y-109350000D02*
X127350000Y-109850000D01*
X127750000Y-106350000D02*
X127750000Y-105740000D01*
X129700000Y-106350000D02*
X127750000Y-106350000D01*
X129700000Y-109850000D02*
X129700000Y-106350000D01*
X130310000Y-105740000D02*
X124190000Y-105740000D01*
X130310000Y-107050000D02*
X129700000Y-107050000D01*
X130310000Y-108350000D02*
X129700000Y-108350000D01*
X130310000Y-110460000D02*
X130310000Y-105740000D01*
%TO.C,C9*%
X130490000Y-72857836D02*
X130490000Y-72642164D01*
X131210000Y-72857836D02*
X131210000Y-72642164D01*
%TO.C,Q4*%
X151062500Y-100440000D02*
X150412500Y-100440000D01*
X151062500Y-100440000D02*
X151712500Y-100440000D01*
X151062500Y-103560000D02*
X150412500Y-103560000D01*
X151062500Y-103560000D02*
X151712500Y-103560000D01*
X149900000Y-100490000D02*
X149660000Y-100160000D01*
X150140000Y-100160000D01*
X149900000Y-100490000D01*
G36*
X149900000Y-100490000D02*
G01*
X149660000Y-100160000D01*
X150140000Y-100160000D01*
X149900000Y-100490000D01*
G37*
%TO.C,R13*%
X125653641Y-101620000D02*
X125346359Y-101620000D01*
X125653641Y-102380000D02*
X125346359Y-102380000D01*
%TO.C,R2*%
X124120000Y-67153641D02*
X124120000Y-66846359D01*
X124880000Y-67153641D02*
X124880000Y-66846359D01*
D13*
%TO.C,U11*%
X155075000Y-75450000D02*
X155075000Y-79350000D01*
X160125000Y-75450000D02*
X160125000Y-79350000D01*
D14*
X160205000Y-72955000D02*
G75*
G02*
X160005000Y-72955000I-100000J0D01*
G01*
X160005000Y-72955000D02*
G75*
G02*
X160205000Y-72955000I100000J0D01*
G01*
D11*
%TO.C,R9*%
X147120000Y-67153641D02*
X147120000Y-66846359D01*
X147880000Y-67153641D02*
X147880000Y-66846359D01*
%TO.C,Q1*%
X120440000Y-101500000D02*
X120440000Y-100850000D01*
X120440000Y-101500000D02*
X120440000Y-102150000D01*
X123560000Y-101500000D02*
X123560000Y-100850000D01*
X123560000Y-101500000D02*
X123560000Y-102150000D01*
X123840000Y-100577500D02*
X123510000Y-100337500D01*
X123840000Y-100097500D01*
X123840000Y-100577500D01*
G36*
X123840000Y-100577500D02*
G01*
X123510000Y-100337500D01*
X123840000Y-100097500D01*
X123840000Y-100577500D01*
G37*
%TO.C,R1*%
X152120000Y-67153641D02*
X152120000Y-66846359D01*
X152880000Y-67153641D02*
X152880000Y-66846359D01*
D15*
%TO.C,U8*%
X151419000Y-88317000D02*
X161019000Y-88317000D01*
X151419000Y-98223000D02*
X161019000Y-98223000D01*
X152409000Y-89460000D02*
G75*
G02*
X151901000Y-89460000I-254000J0D01*
G01*
X151901000Y-89460000D02*
G75*
G02*
X152409000Y-89460000I254000J0D01*
G01*
D11*
%TO.C,R7*%
X146846359Y-100620000D02*
X147153641Y-100620000D01*
X146846359Y-101380000D02*
X147153641Y-101380000D01*
D12*
%TO.C,U2*%
X120036400Y-88874400D02*
X120036400Y-92125600D01*
X120036400Y-92125600D02*
X120542520Y-92125600D01*
X120542520Y-88874400D02*
X120036400Y-88874400D01*
X124280080Y-92125600D02*
X124786200Y-92125600D01*
X124786200Y-88874400D02*
X124280080Y-88874400D01*
X124786200Y-92125600D02*
X124786200Y-88874400D01*
D11*
%TO.C,C5*%
X122372164Y-87140000D02*
X122587836Y-87140000D01*
X122372164Y-87860000D02*
X122587836Y-87860000D01*
%TO.C,Q2*%
X115990000Y-101500000D02*
X115990000Y-100850000D01*
X115990000Y-101500000D02*
X115990000Y-102150000D01*
X119110000Y-101500000D02*
X119110000Y-100850000D01*
X119110000Y-101500000D02*
X119110000Y-102150000D01*
X119390000Y-100577500D02*
X119060000Y-100337500D01*
X119390000Y-100097500D01*
X119390000Y-100577500D01*
G36*
X119390000Y-100577500D02*
G01*
X119060000Y-100337500D01*
X119390000Y-100097500D01*
X119390000Y-100577500D01*
G37*
%TO.C,C15*%
X146640000Y-91492164D02*
X146640000Y-91707836D01*
X147360000Y-91492164D02*
X147360000Y-91707836D01*
%TO.C,C12*%
X119692164Y-77640000D02*
X119907836Y-77640000D01*
X119692164Y-78360000D02*
X119907836Y-78360000D01*
%TO.C,C13*%
X158957836Y-82565000D02*
X158742164Y-82565000D01*
X158957836Y-83285000D02*
X158742164Y-83285000D01*
%TD*%
%LPC*%
D16*
%TO.C,U9*%
X138025000Y-74900000D02*
X136675000Y-74900000D01*
X136675000Y-73420000D01*
X136995000Y-73100000D01*
X138025000Y-73100000D01*
X138025000Y-74900000D01*
G36*
X138025000Y-74900000D02*
G01*
X136675000Y-74900000D01*
X136675000Y-73420000D01*
X136995000Y-73100000D01*
X138025000Y-73100000D01*
X138025000Y-74900000D01*
G37*
%TD*%
D17*
%TO.C,J4*%
X134500000Y-107550000D03*
D18*
X136500000Y-107550000D03*
%TD*%
D19*
%TO.C,R11*%
X138010000Y-102000000D03*
X136990000Y-102000000D03*
%TD*%
D20*
%TO.C,U12*%
X118837500Y-74850000D03*
X118837500Y-75350000D03*
X118837500Y-75850000D03*
X118837500Y-76350000D03*
D21*
X119350000Y-76362500D03*
X119850000Y-76362500D03*
D20*
X120362500Y-76350000D03*
X120362500Y-75850000D03*
X120362500Y-75350000D03*
X120362500Y-74850000D03*
D21*
X119850000Y-74837500D03*
X119350000Y-74837500D03*
%TD*%
D17*
%TO.C,J5*%
X143000000Y-107550000D03*
D18*
X145000000Y-107550000D03*
%TD*%
D22*
%TO.C,R10*%
X154490000Y-101500000D03*
X155510000Y-101500000D03*
%TD*%
D23*
%TO.C,C10*%
X116822500Y-76350000D03*
X115862500Y-76350000D03*
%TD*%
D22*
%TO.C,R3*%
X132840000Y-73250000D03*
X133860000Y-73250000D03*
%TD*%
%TO.C,R12*%
X124990000Y-101000000D03*
X126010000Y-101000000D03*
%TD*%
D24*
%TO.C,J2*%
X163500000Y-107500000D03*
D25*
X161500000Y-107500000D03*
X159500000Y-107500000D03*
X157500000Y-107500000D03*
X155500000Y-107500000D03*
%TD*%
D26*
%TO.C,C8*%
X141600000Y-74960000D03*
X141600000Y-74000000D03*
%TD*%
%TO.C,C14*%
X140500000Y-86730000D03*
X140500000Y-85770000D03*
%TD*%
D27*
%TO.C,R8*%
X150000000Y-67510000D03*
X150000000Y-66490000D03*
%TD*%
D28*
%TO.C,C11*%
X119320000Y-79400000D03*
X120280000Y-79400000D03*
%TD*%
D17*
%TO.C,J6*%
X117750000Y-107450000D03*
D18*
X119750000Y-107450000D03*
%TD*%
D29*
%TO.C,U10*%
X135561600Y-85749999D03*
X135561600Y-86250000D03*
X135561600Y-86750000D03*
X135561600Y-87250001D03*
X138000000Y-87250001D03*
X138000000Y-86750000D03*
X138000000Y-86250000D03*
X138000000Y-85749999D03*
D30*
X136780800Y-86500000D03*
%TD*%
D28*
%TO.C,C4*%
X123040000Y-93750000D03*
X124000000Y-93750000D03*
%TD*%
D22*
%TO.C,R6*%
X146490000Y-102000000D03*
X147510000Y-102000000D03*
%TD*%
D27*
%TO.C,R5*%
X122000000Y-67510000D03*
X122000000Y-66490000D03*
%TD*%
D31*
%TO.C,Q3*%
X140625000Y-101050000D03*
X140625000Y-102950000D03*
X142500000Y-102000000D03*
%TD*%
D32*
%TO.C,U9*%
X136200000Y-73200000D03*
X136200000Y-74000000D03*
X136200000Y-74800000D03*
X138500000Y-74800000D03*
X138500000Y-74000000D03*
X138500000Y-73200000D03*
%TD*%
D27*
%TO.C,R4*%
X119500000Y-67510000D03*
X119500000Y-66490000D03*
%TD*%
D17*
%TO.C,J3*%
X126250000Y-107550000D03*
D18*
X128250000Y-107550000D03*
%TD*%
D26*
%TO.C,C9*%
X130850000Y-73230000D03*
X130850000Y-72270000D03*
%TD*%
D31*
%TO.C,Q4*%
X150125000Y-101050000D03*
X150125000Y-102950000D03*
X152000000Y-102000000D03*
%TD*%
D19*
%TO.C,R13*%
X126010000Y-102000000D03*
X124990000Y-102000000D03*
%TD*%
D27*
%TO.C,R2*%
X124500000Y-67510000D03*
X124500000Y-66490000D03*
%TD*%
D33*
%TO.C,U11*%
X159505000Y-74925000D03*
X158235000Y-74925000D03*
X156965000Y-74925000D03*
X155695000Y-74925000D03*
X155695000Y-79875000D03*
X156965000Y-79875000D03*
X158235000Y-79875000D03*
X159505000Y-79875000D03*
%TD*%
D27*
%TO.C,R9*%
X147500000Y-67510000D03*
X147500000Y-66490000D03*
%TD*%
D34*
%TO.C,Q1*%
X122950000Y-100562500D03*
X121050000Y-100562500D03*
X122000000Y-102437500D03*
%TD*%
D27*
%TO.C,R1*%
X152500000Y-67510000D03*
X152500000Y-66490000D03*
%TD*%
D35*
%TO.C,U8*%
X150500000Y-89460000D03*
X150500000Y-92000000D03*
X150500000Y-94540000D03*
X150500000Y-97080000D03*
X161930000Y-97080000D03*
X161930000Y-94540000D03*
X161930000Y-92000000D03*
X161930000Y-89460000D03*
%TD*%
D22*
%TO.C,R7*%
X146490000Y-101000000D03*
X147510000Y-101000000D03*
%TD*%
D36*
%TO.C,U2*%
X120911300Y-89344300D03*
X121411299Y-89344300D03*
X121911301Y-89344300D03*
X122411300Y-89344300D03*
X122911299Y-89344300D03*
X123411301Y-89344300D03*
X123911300Y-89344300D03*
D37*
X124322600Y-90500000D03*
D36*
X123911300Y-91655700D03*
X123411301Y-91655700D03*
X122911299Y-91655700D03*
X122411300Y-91655700D03*
X121911301Y-91655700D03*
X121411299Y-91655700D03*
X120911300Y-91655700D03*
D37*
X120500000Y-90500000D03*
%TD*%
D28*
%TO.C,C5*%
X122000000Y-87500000D03*
X122960000Y-87500000D03*
%TD*%
D34*
%TO.C,Q2*%
X118500000Y-100562500D03*
X116600000Y-100562500D03*
X117550000Y-102437500D03*
%TD*%
D38*
%TO.C,C15*%
X147000000Y-91120000D03*
X147000000Y-92080000D03*
%TD*%
D28*
%TO.C,C12*%
X119320000Y-78000000D03*
X120280000Y-78000000D03*
%TD*%
D23*
%TO.C,C13*%
X159330000Y-82925000D03*
X158370000Y-82925000D03*
%TD*%
D39*
%TO.C,U4*%
X117240000Y-62740000D03*
D40*
X117240000Y-60200000D03*
X119780000Y-62740000D03*
X119780000Y-60200000D03*
X122320000Y-62740000D03*
X122320000Y-60200000D03*
X124860000Y-62740000D03*
X124860000Y-60200000D03*
X127400000Y-62740000D03*
X127400000Y-60200000D03*
X129940000Y-62740000D03*
X129940000Y-60200000D03*
X132480000Y-62740000D03*
X132480000Y-60200000D03*
X135020000Y-62740000D03*
X135020000Y-60200000D03*
X137560000Y-62740000D03*
X137560000Y-60200000D03*
X140100000Y-62740000D03*
X140100000Y-60200000D03*
X142640000Y-62740000D03*
X142640000Y-60200000D03*
X145180000Y-62740000D03*
X145180000Y-60200000D03*
X147720000Y-62740000D03*
X147720000Y-60200000D03*
X150260000Y-62740000D03*
X150260000Y-60200000D03*
X152800000Y-62740000D03*
X152800000Y-60200000D03*
X155340000Y-62740000D03*
X155340000Y-60200000D03*
X157880000Y-62740000D03*
X157880000Y-60200000D03*
X160420000Y-62740000D03*
X160420000Y-60200000D03*
X162960000Y-62740000D03*
X162960000Y-60200000D03*
X165500000Y-62740000D03*
X165500000Y-60200000D03*
%TD*%
%LPD*%
M02*
