%TF.GenerationSoftware,KiCad,Pcbnew,8.0.2*%
%TF.CreationDate,2024-05-07T14:02:44-06:00*%
%TF.ProjectId,PCB_Project,5043425f-5072-46f6-9a65-63742e6b6963,rev?*%
%TF.SameCoordinates,Original*%
%TF.FileFunction,Soldermask,Top*%
%TF.FilePolarity,Negative*%
%FSLAX46Y46*%
G04 Gerber Fmt 4.6, Leading zero omitted, Abs format (unit mm)*
G04 Created by KiCad (PCBNEW 8.0.2) date 2024-05-07 14:02:44*
%MOMM*%
%LPD*%
G01*
G04 APERTURE LIST*
G04 Aperture macros list*
%AMRoundRect*
0 Rectangle with rounded corners*
0 $1 Rounding radius*
0 $2 $3 $4 $5 $6 $7 $8 $9 X,Y pos of 4 corners*
0 Add a 4 corners polygon primitive as box body*
4,1,4,$2,$3,$4,$5,$6,$7,$8,$9,$2,$3,0*
0 Add four circle primitives for the rounded corners*
1,1,$1+$1,$2,$3*
1,1,$1+$1,$4,$5*
1,1,$1+$1,$6,$7*
1,1,$1+$1,$8,$9*
0 Add four rect primitives between the rounded corners*
20,1,$1+$1,$2,$3,$4,$5,0*
20,1,$1+$1,$4,$5,$6,$7,0*
20,1,$1+$1,$6,$7,$8,$9,0*
20,1,$1+$1,$8,$9,$2,$3,0*%
G04 Aperture macros list end*
%ADD10C,0.010000*%
%ADD11R,1.700000X1.700000*%
%ADD12O,1.700000X1.700000*%
%ADD13RoundRect,0.250000X-0.350000X-0.625000X0.350000X-0.625000X0.350000X0.625000X-0.350000X0.625000X0*%
%ADD14O,1.200000X1.750000*%
%ADD15R,0.375000X0.350000*%
%ADD16R,0.350000X0.375000*%
%ADD17RoundRect,0.140000X0.140000X0.170000X-0.140000X0.170000X-0.140000X-0.170000X0.140000X-0.170000X0*%
%ADD18RoundRect,0.135000X-0.135000X-0.185000X0.135000X-0.185000X0.135000X0.185000X-0.135000X0.185000X0*%
%ADD19RoundRect,0.250000X-0.600000X-0.725000X0.600000X-0.725000X0.600000X0.725000X-0.600000X0.725000X0*%
%ADD20O,1.700000X1.950000*%
%ADD21RoundRect,0.140000X0.170000X-0.140000X0.170000X0.140000X-0.170000X0.140000X-0.170000X-0.140000X0*%
%ADD22RoundRect,0.140000X-0.140000X-0.170000X0.140000X-0.170000X0.140000X0.170000X-0.140000X0.170000X0*%
%ADD23R,0.762000X0.254000*%
%ADD24R,1.295400X2.006600*%
%ADD25RoundRect,0.102000X-0.275000X-0.200000X0.275000X-0.200000X0.275000X0.200000X-0.275000X0.200000X0*%
%ADD26RoundRect,0.135000X0.135000X0.185000X-0.135000X0.185000X-0.135000X-0.185000X0.135000X-0.185000X0*%
%ADD27R,2.030000X1.140000*%
%ADD28R,0.254000X0.482600*%
%ADD29R,0.482600X0.254000*%
%ADD30RoundRect,0.140000X-0.170000X0.140000X-0.170000X-0.140000X0.170000X-0.140000X0.170000X0.140000X0*%
%ADD31RoundRect,0.056280X-0.345720X1.030720X-0.345720X-1.030720X0.345720X-1.030720X0.345720X1.030720X0*%
G04 APERTURE END LIST*
D10*
%TO.C,U9*%
X138025000Y-74900000D02*
X136675000Y-74900000D01*
X136675000Y-73420000D01*
X136995000Y-73100000D01*
X138025000Y-73100000D01*
X138025000Y-74900000D01*
G36*
X138025000Y-74900000D02*
G01*
X136675000Y-74900000D01*
X136675000Y-73420000D01*
X136995000Y-73100000D01*
X138025000Y-73100000D01*
X138025000Y-74900000D01*
G37*
%TD*%
D11*
%TO.C,U4*%
X117240000Y-62740000D03*
D12*
X117240000Y-60200000D03*
X119780000Y-62740000D03*
X119780000Y-60200000D03*
X122320000Y-62740000D03*
X122320000Y-60200000D03*
X124860000Y-62740000D03*
X124860000Y-60200000D03*
X127400000Y-62740000D03*
X127400000Y-60200000D03*
X129940000Y-62740000D03*
X129940000Y-60200000D03*
X132480000Y-62740000D03*
X132480000Y-60200000D03*
X135020000Y-62740000D03*
X135020000Y-60200000D03*
X137560000Y-62740000D03*
X137560000Y-60200000D03*
X140100000Y-62740000D03*
X140100000Y-60200000D03*
X142640000Y-62740000D03*
X142640000Y-60200000D03*
X145180000Y-62740000D03*
X145180000Y-60200000D03*
X147720000Y-62740000D03*
X147720000Y-60200000D03*
X150260000Y-62740000D03*
X150260000Y-60200000D03*
X152800000Y-62740000D03*
X152800000Y-60200000D03*
X155340000Y-62740000D03*
X155340000Y-60200000D03*
X157880000Y-62740000D03*
X157880000Y-60200000D03*
X160420000Y-62740000D03*
X160420000Y-60200000D03*
X162960000Y-62740000D03*
X162960000Y-60200000D03*
X165500000Y-62740000D03*
X165500000Y-60200000D03*
%TD*%
D13*
%TO.C,J4*%
X134500000Y-107550000D03*
D14*
X136500000Y-107550000D03*
%TD*%
D15*
%TO.C,U12*%
X118837500Y-74850000D03*
X118837500Y-75350000D03*
X118837500Y-75850000D03*
X118837500Y-76350000D03*
D16*
X119350000Y-76362500D03*
X119850000Y-76362500D03*
D15*
X120362500Y-76350000D03*
X120362500Y-75850000D03*
X120362500Y-75350000D03*
X120362500Y-74850000D03*
D16*
X119850000Y-74837500D03*
X119350000Y-74837500D03*
%TD*%
D13*
%TO.C,J5*%
X143000000Y-107550000D03*
D14*
X145000000Y-107550000D03*
%TD*%
D17*
%TO.C,C10*%
X116822500Y-76350000D03*
X115862500Y-76350000D03*
%TD*%
D18*
%TO.C,R3*%
X133860000Y-73250000D03*
X132840000Y-73250000D03*
%TD*%
D19*
%TO.C,J2*%
X153500000Y-108000000D03*
D20*
X156000000Y-108000000D03*
X158500000Y-108000000D03*
X161000000Y-108000000D03*
X163500000Y-108000000D03*
%TD*%
D21*
%TO.C,C8*%
X141600000Y-74000000D03*
X141600000Y-74960000D03*
%TD*%
%TO.C,C14*%
X140500000Y-86730000D03*
X140500000Y-85770000D03*
%TD*%
D18*
%TO.C,R8*%
X150250000Y-67000000D03*
X149230000Y-67000000D03*
%TD*%
D22*
%TO.C,C11*%
X120280000Y-79400000D03*
X119320000Y-79400000D03*
%TD*%
D13*
%TO.C,J6*%
X117750000Y-107450000D03*
D14*
X119750000Y-107450000D03*
%TD*%
D23*
%TO.C,U10*%
X135561600Y-85749999D03*
X135561600Y-86250000D03*
X135561600Y-86750000D03*
X135561600Y-87250001D03*
X138000000Y-87250001D03*
X138000000Y-86750000D03*
X138000000Y-86250000D03*
X138000000Y-85749999D03*
D24*
X136780800Y-86500000D03*
%TD*%
D22*
%TO.C,C4*%
X123040000Y-93750000D03*
X124000000Y-93750000D03*
%TD*%
D18*
%TO.C,R5*%
X121240000Y-67000000D03*
X122260000Y-67000000D03*
%TD*%
D25*
%TO.C,U9*%
X138500000Y-73200000D03*
X138500000Y-74000000D03*
X138500000Y-74800000D03*
X136200000Y-74800000D03*
X136200000Y-74000000D03*
X136200000Y-73200000D03*
%TD*%
D18*
%TO.C,R4*%
X119510000Y-67000000D03*
X118490000Y-67000000D03*
%TD*%
D13*
%TO.C,J3*%
X126250000Y-107550000D03*
D14*
X128250000Y-107550000D03*
%TD*%
D21*
%TO.C,C9*%
X130850000Y-72270000D03*
X130850000Y-73230000D03*
%TD*%
D26*
%TO.C,R2*%
X125760000Y-67000000D03*
X124740000Y-67000000D03*
%TD*%
D18*
%TO.C,R9*%
X147760000Y-67000000D03*
X146740000Y-67000000D03*
%TD*%
%TO.C,R1*%
X152760000Y-67000000D03*
X151740000Y-67000000D03*
%TD*%
D27*
%TO.C,U8*%
X161930000Y-89460000D03*
X161930000Y-92000000D03*
X161930000Y-94540000D03*
X161930000Y-97080000D03*
X150500000Y-97080000D03*
X150500000Y-94540000D03*
X150500000Y-92000000D03*
X150500000Y-89460000D03*
%TD*%
D28*
%TO.C,U2*%
X120911300Y-89344300D03*
X121411299Y-89344300D03*
X121911301Y-89344300D03*
X122411300Y-89344300D03*
X122911299Y-89344300D03*
X123411301Y-89344300D03*
X123911300Y-89344300D03*
D29*
X124322600Y-90500000D03*
D28*
X123911300Y-91655700D03*
X123411301Y-91655700D03*
X122911299Y-91655700D03*
X122411300Y-91655700D03*
X121911301Y-91655700D03*
X121411299Y-91655700D03*
X120911300Y-91655700D03*
D29*
X120500000Y-90500000D03*
%TD*%
D22*
%TO.C,C5*%
X122000000Y-87500000D03*
X122960000Y-87500000D03*
%TD*%
D30*
%TO.C,C15*%
X147000000Y-92080000D03*
X147000000Y-91120000D03*
%TD*%
D22*
%TO.C,C12*%
X120280000Y-78000000D03*
X119320000Y-78000000D03*
%TD*%
D17*
%TO.C,C13*%
X159330000Y-82925000D03*
X158370000Y-82925000D03*
%TD*%
D31*
%TO.C,U11*%
X159505000Y-79875000D03*
X158235000Y-79875000D03*
X156965000Y-79875000D03*
X155695000Y-79875000D03*
X155695000Y-74925000D03*
X156965000Y-74925000D03*
X158235000Y-74925000D03*
X159505000Y-74925000D03*
%TD*%
M02*
