%TF.GenerationSoftware,KiCad,Pcbnew,8.0.2*%
%TF.CreationDate,2024-05-17T09:11:03-06:00*%
%TF.ProjectId,encoder_protyping_board_high_current,656e636f-6465-4725-9f70-726f74797069,rev?*%
%TF.SameCoordinates,Original*%
%TF.FileFunction,Copper,L1,Top*%
%TF.FilePolarity,Positive*%
%FSLAX46Y46*%
G04 Gerber Fmt 4.6, Leading zero omitted, Abs format (unit mm)*
G04 Created by KiCad (PCBNEW 8.0.2) date 2024-05-17 09:11:03*
%MOMM*%
%LPD*%
G01*
G04 APERTURE LIST*
G04 Aperture macros list*
%AMRoundRect*
0 Rectangle with rounded corners*
0 $1 Rounding radius*
0 $2 $3 $4 $5 $6 $7 $8 $9 X,Y pos of 4 corners*
0 Add a 4 corners polygon primitive as box body*
4,1,4,$2,$3,$4,$5,$6,$7,$8,$9,$2,$3,0*
0 Add four circle primitives for the rounded corners*
1,1,$1+$1,$2,$3*
1,1,$1+$1,$4,$5*
1,1,$1+$1,$6,$7*
1,1,$1+$1,$8,$9*
0 Add four rect primitives between the rounded corners*
20,1,$1+$1,$2,$3,$4,$5,0*
20,1,$1+$1,$4,$5,$6,$7,0*
20,1,$1+$1,$6,$7,$8,$9,0*
20,1,$1+$1,$8,$9,$2,$3,0*%
G04 Aperture macros list end*
%TA.AperFunction,SMDPad,CuDef*%
%ADD10RoundRect,0.140000X0.170000X-0.140000X0.170000X0.140000X-0.170000X0.140000X-0.170000X-0.140000X0*%
%TD*%
%TA.AperFunction,SMDPad,CuDef*%
%ADD11RoundRect,0.135000X0.135000X0.185000X-0.135000X0.185000X-0.135000X-0.185000X0.135000X-0.185000X0*%
%TD*%
%TA.AperFunction,ComponentPad*%
%ADD12R,1.700000X1.700000*%
%TD*%
%TA.AperFunction,ComponentPad*%
%ADD13O,1.700000X1.700000*%
%TD*%
%TA.AperFunction,ComponentPad*%
%ADD14R,1.600000X1.600000*%
%TD*%
%TA.AperFunction,ComponentPad*%
%ADD15C,1.600000*%
%TD*%
%TA.AperFunction,SMDPad,CuDef*%
%ADD16RoundRect,0.135000X-0.135000X-0.185000X0.135000X-0.185000X0.135000X0.185000X-0.135000X0.185000X0*%
%TD*%
%TA.AperFunction,SMDPad,CuDef*%
%ADD17R,1.100000X0.510000*%
%TD*%
%TA.AperFunction,SMDPad,CuDef*%
%ADD18RoundRect,0.100000X-0.637500X-0.100000X0.637500X-0.100000X0.637500X0.100000X-0.637500X0.100000X0*%
%TD*%
%TA.AperFunction,ViaPad*%
%ADD19C,0.800000*%
%TD*%
%TA.AperFunction,Conductor*%
%ADD20C,0.400000*%
%TD*%
%TA.AperFunction,Conductor*%
%ADD21C,0.250000*%
%TD*%
G04 APERTURE END LIST*
D10*
X189800000Y-100480000D03*
X189800000Y-99520000D03*
D11*
X188550000Y-111400000D03*
X187530000Y-111400000D03*
D12*
X186700000Y-114225000D03*
D13*
X186700000Y-116765000D03*
D10*
X190780000Y-100480000D03*
X190780000Y-99520000D03*
D14*
X198844888Y-115800000D03*
D15*
X200844888Y-115800000D03*
D16*
X187530000Y-110400000D03*
X188550000Y-110400000D03*
D12*
X186600000Y-97100000D03*
D13*
X189140000Y-97100000D03*
X191680000Y-97100000D03*
X194220000Y-97100000D03*
D12*
X206750000Y-97150000D03*
D13*
X206750000Y-99690000D03*
X206750000Y-102230000D03*
X206750000Y-104770000D03*
X206750000Y-107310000D03*
X206750000Y-109850000D03*
X206750000Y-112390000D03*
X206750000Y-114930000D03*
D17*
X197294888Y-102400000D03*
X197294888Y-103400000D03*
X197294888Y-104400000D03*
X197294888Y-105400000D03*
X197294888Y-106400000D03*
X202394888Y-106400000D03*
X202394888Y-105400000D03*
X202394888Y-104400000D03*
X202394888Y-103400000D03*
X202394888Y-102400000D03*
D16*
X187530000Y-109400000D03*
X188550000Y-109400000D03*
D17*
X197294888Y-107900000D03*
X197294888Y-108900000D03*
X197294888Y-109900000D03*
X197294888Y-110900000D03*
X197294888Y-111900000D03*
X202394888Y-111900000D03*
X202394888Y-110900000D03*
X202394888Y-109900000D03*
X202394888Y-108900000D03*
X202394888Y-107900000D03*
D18*
X188137500Y-101625000D03*
X188137500Y-102275000D03*
X188137500Y-102925000D03*
X188137500Y-103575000D03*
X188137500Y-104225000D03*
X188137500Y-104875000D03*
X188137500Y-105525000D03*
X188137500Y-106175000D03*
X193862500Y-106175000D03*
X193862500Y-105525000D03*
X193862500Y-104875000D03*
X193862500Y-104225000D03*
X193862500Y-103575000D03*
X193862500Y-102925000D03*
X193862500Y-102275000D03*
X193862500Y-101625000D03*
D14*
X198644888Y-98500000D03*
D15*
X200644888Y-98500000D03*
D19*
X196350000Y-117600000D03*
X201000000Y-101000000D03*
X185850000Y-109750000D03*
X187350000Y-100650000D03*
X196400000Y-99450000D03*
X204000000Y-114500000D03*
X196650000Y-97150000D03*
X189800000Y-117700000D03*
X195500000Y-107000000D03*
X202450000Y-96250000D03*
X206300000Y-117750000D03*
X197000000Y-113500000D03*
X192000000Y-112500000D03*
X194000000Y-111000000D03*
X201200000Y-109900000D03*
X201300000Y-104400000D03*
X195750000Y-102050000D03*
X193700000Y-99750000D03*
X187900000Y-108000000D03*
X198100000Y-104400000D03*
X198100000Y-109950000D03*
X203500000Y-103000000D03*
X203500000Y-109000000D03*
X191550000Y-105600000D03*
X189450000Y-111200000D03*
X189250000Y-115450000D03*
X189250000Y-112850000D03*
X189950000Y-103550000D03*
X189550000Y-109650000D03*
X195800000Y-115450000D03*
X191400000Y-109650000D03*
X196000000Y-110500000D03*
X193500000Y-108000000D03*
X194000000Y-110000000D03*
X196000000Y-109000000D03*
X203500000Y-105500000D03*
X203500000Y-110500000D03*
D20*
X190390000Y-95850000D02*
X189140000Y-97100000D01*
D21*
X189140000Y-97100000D02*
X187965000Y-95925000D01*
D20*
X205880000Y-115800000D02*
X206750000Y-114930000D01*
X200644888Y-97368630D02*
X199126258Y-95850000D01*
X199126258Y-95850000D02*
X190390000Y-95850000D01*
D21*
X188137500Y-106175000D02*
X187425000Y-106175000D01*
D20*
X200844888Y-115800000D02*
X205880000Y-115800000D01*
D21*
X189800000Y-97760000D02*
X189140000Y-97100000D01*
X189800000Y-99520000D02*
X189800000Y-97760000D01*
X187425000Y-106175000D02*
X185425000Y-104175000D01*
X185425000Y-95925000D02*
X185425000Y-104175000D01*
X187965000Y-95925000D02*
X185425000Y-95925000D01*
D20*
X201200000Y-109900000D02*
X202394888Y-109900000D01*
X200644888Y-98500000D02*
X200644888Y-97368630D01*
D21*
X190780000Y-99520000D02*
X189800000Y-99520000D01*
D20*
X202394888Y-104400000D02*
X201300000Y-104400000D01*
D21*
X190780000Y-100480000D02*
X191089999Y-100480000D01*
X187530000Y-109400000D02*
X187530000Y-110400000D01*
X195800000Y-102050000D02*
X195750000Y-102000000D01*
X191819999Y-99750000D02*
X193700000Y-99750000D01*
X187530000Y-109400000D02*
X187530000Y-108270000D01*
X187530000Y-111400000D02*
X187530000Y-110400000D01*
X189800000Y-100480000D02*
X190780000Y-100480000D01*
X195750000Y-102000000D02*
X195750000Y-102050000D01*
X194725000Y-101625000D02*
X195375000Y-101625000D01*
X186600000Y-97589999D02*
X189490001Y-100480000D01*
X187900000Y-107900000D02*
X187850000Y-107950000D01*
X195750000Y-102050000D02*
X195800000Y-102050000D01*
X193862500Y-101625000D02*
X194725000Y-101625000D01*
X187530000Y-108270000D02*
X187800000Y-108000000D01*
X189490001Y-100480000D02*
X189800000Y-100480000D01*
X195375000Y-101625000D02*
X195750000Y-102000000D01*
X187800000Y-108000000D02*
X187900000Y-108000000D01*
X187900000Y-108000000D02*
X187900000Y-107900000D01*
X191089999Y-100480000D02*
X191819999Y-99750000D01*
D20*
X194220000Y-98420000D02*
X194300000Y-98500000D01*
X194220000Y-97100000D02*
X194220000Y-98420000D01*
X197294888Y-109900000D02*
X198100000Y-109950000D01*
X194300000Y-98500000D02*
X198644888Y-98500000D01*
X193080000Y-98500000D02*
X194300000Y-98500000D01*
X197294888Y-104400000D02*
X198100000Y-104400000D01*
X191680000Y-97100000D02*
X194220000Y-97100000D01*
X191680000Y-97100000D02*
X193080000Y-98500000D01*
X202394888Y-108900000D02*
X203400000Y-108900000D01*
X203400000Y-108900000D02*
X203500000Y-109000000D01*
X203440000Y-103000000D02*
X203040000Y-103400000D01*
X203500000Y-103000000D02*
X203440000Y-103000000D01*
X206750000Y-99690000D02*
X203500000Y-102940000D01*
X203040000Y-103400000D02*
X202394888Y-103400000D01*
X203500000Y-102940000D02*
X203500000Y-103000000D01*
D21*
X189250000Y-111400000D02*
X189450000Y-111200000D01*
X191550000Y-104500001D02*
X191550000Y-105600000D01*
X193125001Y-102925000D02*
X191550000Y-104500001D01*
X188550000Y-111400000D02*
X188550000Y-112375000D01*
X193862500Y-102925000D02*
X193125001Y-102925000D01*
X188550000Y-112375000D02*
X186700000Y-114225000D01*
X188550000Y-111400000D02*
X189250000Y-111400000D01*
X186700000Y-116765000D02*
X188960305Y-116765000D01*
X192611396Y-102275000D02*
X193862500Y-102275000D01*
X190250000Y-110700000D02*
X190275000Y-110675000D01*
X190250000Y-111550000D02*
X190250000Y-110700000D01*
X190275000Y-104611396D02*
X192611396Y-102275000D01*
X188550000Y-110400000D02*
X189950000Y-110400000D01*
X188960305Y-116765000D02*
X189975000Y-115750305D01*
X189975000Y-115750305D02*
X189975000Y-111825000D01*
X189975000Y-111825000D02*
X190250000Y-111550000D01*
X190275000Y-110675000D02*
X190275000Y-104611396D01*
X189950000Y-110400000D02*
X190250000Y-110700000D01*
X189275000Y-104225000D02*
X189950000Y-103550000D01*
X189250000Y-115450000D02*
X189250000Y-112850000D01*
X188137500Y-104225000D02*
X189275000Y-104225000D01*
X189650000Y-105300000D02*
X189650000Y-109650000D01*
X189550000Y-109650000D02*
X189550000Y-109750000D01*
X189650000Y-109650000D02*
X189550000Y-109650000D01*
X189225000Y-104875000D02*
X189650000Y-105300000D01*
X189550000Y-109750000D02*
X189600000Y-109700000D01*
X195800000Y-115450000D02*
X195800000Y-114050000D01*
X188137500Y-104875000D02*
X189225000Y-104875000D01*
X195800000Y-114050000D02*
X191400000Y-109650000D01*
X189200000Y-105700000D02*
X189025000Y-105525000D01*
X189025000Y-105525000D02*
X188137500Y-105525000D01*
X189200000Y-108750000D02*
X189200000Y-105700000D01*
X188550000Y-109400000D02*
X189200000Y-108750000D01*
X196000000Y-110500000D02*
X196894888Y-110500000D01*
X193000000Y-108000000D02*
X193500000Y-108000000D01*
X193171188Y-105525000D02*
X192800000Y-105896188D01*
X192800000Y-105896188D02*
X192800000Y-107800000D01*
X196894888Y-110500000D02*
X197294888Y-110900000D01*
X192800000Y-107800000D02*
X193000000Y-108000000D01*
X197169888Y-105525000D02*
X197294888Y-105400000D01*
X193862500Y-105525000D02*
X193171188Y-105525000D01*
X193862500Y-105525000D02*
X197169888Y-105525000D01*
X192087652Y-106087653D02*
X192087652Y-108087652D01*
X192275000Y-105725000D02*
X192275000Y-105775000D01*
X193125001Y-104875000D02*
X192275000Y-105725000D01*
X196000000Y-109000000D02*
X197194888Y-109000000D01*
X195524888Y-104875000D02*
X193862500Y-104875000D01*
X196999888Y-103400000D02*
X195524888Y-104875000D01*
X197294888Y-103400000D02*
X196999888Y-103400000D01*
X193862500Y-104875000D02*
X193125001Y-104875000D01*
X192275000Y-105900305D02*
X192087652Y-106087653D01*
X192087652Y-108087652D02*
X194000000Y-110000000D01*
X197194888Y-109000000D02*
X197294888Y-108900000D01*
X198850000Y-106344888D02*
X197294888Y-107900000D01*
X197750000Y-102400000D02*
X198850000Y-103500000D01*
X194775000Y-104225000D02*
X196600000Y-102400000D01*
X197294888Y-102400000D02*
X197750000Y-102400000D01*
X196600000Y-102400000D02*
X197294888Y-102400000D01*
X198850000Y-103500000D02*
X198850000Y-106344888D01*
X193862500Y-104225000D02*
X194775000Y-104225000D01*
X195000000Y-109500000D02*
X195000000Y-111000000D01*
X195000000Y-111000000D02*
X195900000Y-111900000D01*
X194500000Y-107500000D02*
X194500000Y-109000000D01*
X193862500Y-106175000D02*
X197069888Y-106175000D01*
X195900000Y-111900000D02*
X197294888Y-111900000D01*
X193862500Y-106175000D02*
X193862500Y-106862500D01*
X194500000Y-109000000D02*
X195000000Y-109500000D01*
X197069888Y-106175000D02*
X197294888Y-106400000D01*
X193862500Y-106862500D02*
X194500000Y-107500000D01*
D20*
X202394888Y-110900000D02*
X203100000Y-110900000D01*
X206750000Y-102230000D02*
X203580000Y-105400000D01*
X203500000Y-105500000D02*
X202394888Y-105400000D01*
X203100000Y-110900000D02*
X203500000Y-110500000D01*
X203580000Y-105400000D02*
X203500000Y-105500000D01*
X205120000Y-110124888D02*
X205120000Y-106400000D01*
X206750000Y-104770000D02*
X205120000Y-106400000D01*
X202394888Y-111900000D02*
X203344888Y-111900000D01*
X203344888Y-111900000D02*
X205120000Y-110124888D01*
X205120000Y-106400000D02*
X202394888Y-106400000D01*
X202394888Y-102400000D02*
X201444888Y-102400000D01*
X201444888Y-102400000D02*
X200500000Y-103344888D01*
X200500000Y-103344888D02*
X200500000Y-106005112D01*
X206750000Y-97150000D02*
X202394888Y-101505112D01*
X200500000Y-106005112D02*
X202394888Y-107900000D01*
X202394888Y-101505112D02*
X202394888Y-102400000D01*
D21*
X191788604Y-101625000D02*
X192763604Y-100650000D01*
X204120000Y-112480000D02*
X206750000Y-109850000D01*
X192763604Y-100650000D02*
X199186396Y-100650000D01*
X199850000Y-101313604D02*
X199850000Y-110702574D01*
X199186396Y-100650000D02*
X199850000Y-101313604D01*
X201627426Y-112480000D02*
X204120000Y-112480000D01*
X199850000Y-110702574D02*
X201627426Y-112480000D01*
X188137500Y-101625000D02*
X191788604Y-101625000D01*
X192950000Y-101100000D02*
X192150000Y-101900000D01*
X199300000Y-110826284D02*
X199300000Y-101400000D01*
X192150000Y-101900000D02*
X192150000Y-102100000D01*
X202063716Y-113590000D02*
X199300000Y-110826284D01*
X202063716Y-113590000D02*
X205550000Y-113590000D01*
X191975000Y-102275000D02*
X188137500Y-102275000D01*
X192150000Y-102100000D02*
X191975000Y-102275000D01*
X205550000Y-113590000D02*
X206750000Y-112390000D01*
X199000000Y-101100000D02*
X192950000Y-101100000D01*
X199300000Y-101400000D02*
X199000000Y-101100000D01*
%TA.AperFunction,Conductor*%
G36*
X200680703Y-107176918D02*
G01*
X200687181Y-107182950D01*
X201308069Y-107803838D01*
X201341554Y-107865161D01*
X201344388Y-107891519D01*
X201344388Y-108202869D01*
X201344389Y-108202876D01*
X201350797Y-108262485D01*
X201385924Y-108356668D01*
X201390908Y-108426360D01*
X201385924Y-108443332D01*
X201350798Y-108537511D01*
X201350797Y-108537515D01*
X201350797Y-108537517D01*
X201344388Y-108597127D01*
X201344388Y-108597134D01*
X201344388Y-108597135D01*
X201344388Y-109202870D01*
X201344389Y-109202876D01*
X201350796Y-109262483D01*
X201386191Y-109357381D01*
X201391175Y-109427073D01*
X201386191Y-109444046D01*
X201351291Y-109537616D01*
X201351289Y-109537627D01*
X201344888Y-109597155D01*
X201344888Y-109650000D01*
X201739217Y-109650000D01*
X201752472Y-109650710D01*
X201797015Y-109655500D01*
X202520889Y-109655499D01*
X202587927Y-109675183D01*
X202633682Y-109727987D01*
X202644888Y-109779499D01*
X202644888Y-110020500D01*
X202625203Y-110087539D01*
X202572399Y-110133294D01*
X202520888Y-110144500D01*
X201797017Y-110144500D01*
X201797013Y-110144501D01*
X201764465Y-110148000D01*
X201752464Y-110149290D01*
X201739213Y-110150000D01*
X201344888Y-110150000D01*
X201344888Y-110202844D01*
X201351289Y-110262372D01*
X201351291Y-110262380D01*
X201386191Y-110355952D01*
X201391175Y-110425644D01*
X201386191Y-110442617D01*
X201350798Y-110537511D01*
X201350797Y-110537515D01*
X201350797Y-110537517D01*
X201344388Y-110597127D01*
X201344388Y-110597134D01*
X201344388Y-110597135D01*
X201344388Y-111013010D01*
X201324703Y-111080049D01*
X201271899Y-111125804D01*
X201202741Y-111135748D01*
X201139185Y-111106723D01*
X201132707Y-111100691D01*
X200511819Y-110479803D01*
X200478334Y-110418480D01*
X200475500Y-110392122D01*
X200475500Y-107270631D01*
X200495185Y-107203592D01*
X200547989Y-107157837D01*
X200617147Y-107147893D01*
X200680703Y-107176918D01*
G37*
%TD.AperFunction*%
%TA.AperFunction,Conductor*%
G36*
X196245921Y-106820185D02*
G01*
X196291676Y-106872989D01*
X196295059Y-106881156D01*
X196300105Y-106894684D01*
X196301093Y-106897333D01*
X196301093Y-106897334D01*
X196387340Y-107012544D01*
X196387341Y-107012544D01*
X196387342Y-107012546D01*
X196391951Y-107015996D01*
X196438354Y-107050734D01*
X196480224Y-107106668D01*
X196485208Y-107176360D01*
X196451722Y-107237683D01*
X196438354Y-107249266D01*
X196387340Y-107287455D01*
X196301094Y-107402664D01*
X196301090Y-107402671D01*
X196250796Y-107537517D01*
X196245888Y-107583174D01*
X196244389Y-107597123D01*
X196244388Y-107597135D01*
X196244388Y-107978201D01*
X196224703Y-108045240D01*
X196171899Y-108090995D01*
X196102741Y-108100939D01*
X196094661Y-108099501D01*
X196094646Y-108099500D01*
X195905354Y-108099500D01*
X195872897Y-108106398D01*
X195720197Y-108138855D01*
X195720192Y-108138857D01*
X195547270Y-108215848D01*
X195547265Y-108215851D01*
X195394129Y-108327111D01*
X195394128Y-108327112D01*
X195341649Y-108385396D01*
X195282162Y-108422044D01*
X195212305Y-108420713D01*
X195154257Y-108381826D01*
X195126448Y-108317729D01*
X195125500Y-108302423D01*
X195125500Y-107438396D01*
X195118853Y-107404978D01*
X195101463Y-107317548D01*
X195088998Y-107287455D01*
X195083631Y-107274498D01*
X195083631Y-107274497D01*
X195054314Y-107203719D01*
X195054312Y-107203714D01*
X195010974Y-107138856D01*
X194997023Y-107117976D01*
X194985859Y-107101268D01*
X194985855Y-107101263D01*
X194896773Y-107012181D01*
X194863288Y-106950858D01*
X194868272Y-106881166D01*
X194910144Y-106825233D01*
X194975608Y-106800816D01*
X194984454Y-106800500D01*
X196178882Y-106800500D01*
X196245921Y-106820185D01*
G37*
%TD.AperFunction*%
%TA.AperFunction,Conductor*%
G36*
X188280539Y-106245184D02*
G01*
X188326294Y-106297988D01*
X188337500Y-106349499D01*
X188337500Y-106874999D01*
X188450500Y-106874999D01*
X188517539Y-106894684D01*
X188563294Y-106947488D01*
X188574500Y-106998999D01*
X188574500Y-107133610D01*
X188554815Y-107200649D01*
X188502011Y-107246404D01*
X188432853Y-107256348D01*
X188377616Y-107233929D01*
X188352733Y-107215850D01*
X188352729Y-107215848D01*
X188179807Y-107138857D01*
X188179802Y-107138855D01*
X188028369Y-107106668D01*
X187994646Y-107099500D01*
X187994645Y-107099500D01*
X187988289Y-107098149D01*
X187988756Y-107095950D01*
X187933710Y-107073297D01*
X187893730Y-107015996D01*
X187891076Y-106946177D01*
X187923613Y-106888886D01*
X187937500Y-106874999D01*
X187937500Y-106349499D01*
X187957185Y-106282460D01*
X188009989Y-106236705D01*
X188061497Y-106225499D01*
X188213501Y-106225499D01*
X188280539Y-106245184D01*
G37*
%TD.AperFunction*%
%TA.AperFunction,Conductor*%
G36*
X197287428Y-99220185D02*
G01*
X197333183Y-99272989D01*
X197344389Y-99324500D01*
X197344389Y-99347876D01*
X197350796Y-99407483D01*
X197401090Y-99542328D01*
X197401094Y-99542335D01*
X197487340Y-99657544D01*
X197487343Y-99657547D01*
X197602552Y-99743793D01*
X197602559Y-99743797D01*
X197711202Y-99784318D01*
X197767136Y-99826189D01*
X197791553Y-99891653D01*
X197776702Y-99959926D01*
X197727297Y-100009332D01*
X197667869Y-100024500D01*
X194714325Y-100024500D01*
X194647286Y-100004815D01*
X194601531Y-99952011D01*
X194591004Y-99887539D01*
X194605460Y-99750000D01*
X194585674Y-99561744D01*
X194527179Y-99381716D01*
X194527176Y-99381710D01*
X194524538Y-99375786D01*
X194527062Y-99374661D01*
X194513470Y-99318569D01*
X194536339Y-99252547D01*
X194591271Y-99209371D01*
X194637328Y-99200500D01*
X197220389Y-99200500D01*
X197287428Y-99220185D01*
G37*
%TD.AperFunction*%
%TA.AperFunction,Conductor*%
G36*
X189390000Y-98430633D02*
G01*
X189603483Y-98373433D01*
X189603492Y-98373429D01*
X189817578Y-98273600D01*
X190011082Y-98138105D01*
X190178105Y-97971082D01*
X190308119Y-97785405D01*
X190362696Y-97741781D01*
X190432195Y-97734588D01*
X190494549Y-97766110D01*
X190511269Y-97785405D01*
X190524180Y-97803844D01*
X190641505Y-97971401D01*
X190808599Y-98138495D01*
X190905384Y-98206265D01*
X191002165Y-98274032D01*
X191002167Y-98274033D01*
X191002170Y-98274035D01*
X191216337Y-98373903D01*
X191444592Y-98435063D01*
X191621034Y-98450500D01*
X191679999Y-98455659D01*
X191680000Y-98455659D01*
X191680001Y-98455659D01*
X191738966Y-98450500D01*
X191915408Y-98435063D01*
X191932216Y-98430559D01*
X192002064Y-98432218D01*
X192051994Y-98462651D01*
X192502161Y-98912819D01*
X192535646Y-98974142D01*
X192530662Y-99043834D01*
X192488790Y-99099767D01*
X192423326Y-99124184D01*
X192414480Y-99124500D01*
X191758388Y-99124500D01*
X191697970Y-99136518D01*
X191682677Y-99139560D01*
X191651358Y-99145789D01*
X191581767Y-99139560D01*
X191526591Y-99096695D01*
X191520438Y-99087292D01*
X191459721Y-98984625D01*
X191459714Y-98984616D01*
X191345383Y-98870285D01*
X191345374Y-98870278D01*
X191206195Y-98787968D01*
X191206190Y-98787966D01*
X191050918Y-98742855D01*
X191050912Y-98742854D01*
X191030000Y-98741209D01*
X191030000Y-99575500D01*
X191010315Y-99642539D01*
X190957511Y-99688294D01*
X190906000Y-99699500D01*
X190545302Y-99699500D01*
X190509008Y-99702356D01*
X190509002Y-99702357D01*
X190353608Y-99747504D01*
X190353598Y-99747508D01*
X190353116Y-99747794D01*
X190352688Y-99747902D01*
X190346443Y-99750605D01*
X190346006Y-99749597D01*
X190285391Y-99764973D01*
X190233883Y-99749849D01*
X190233557Y-99750605D01*
X190227433Y-99747955D01*
X190226884Y-99747794D01*
X190226401Y-99747508D01*
X190226391Y-99747504D01*
X190070997Y-99702357D01*
X190070991Y-99702356D01*
X190034697Y-99699500D01*
X190034690Y-99699500D01*
X189674000Y-99699500D01*
X189606961Y-99679815D01*
X189561206Y-99627011D01*
X189550000Y-99575500D01*
X189550000Y-98741210D01*
X189549999Y-98741209D01*
X190050000Y-98741209D01*
X190050000Y-99270000D01*
X190530000Y-99270000D01*
X190530000Y-98741210D01*
X190529999Y-98741209D01*
X190509087Y-98742854D01*
X190509081Y-98742855D01*
X190353809Y-98787966D01*
X190353801Y-98787969D01*
X190353113Y-98788377D01*
X190352503Y-98788531D01*
X190346647Y-98791066D01*
X190346237Y-98790120D01*
X190285388Y-98805554D01*
X190233656Y-98790364D01*
X190233353Y-98791066D01*
X190227671Y-98788607D01*
X190226887Y-98788377D01*
X190226198Y-98787969D01*
X190226190Y-98787966D01*
X190070918Y-98742855D01*
X190070912Y-98742854D01*
X190050000Y-98741209D01*
X189549999Y-98741209D01*
X189529087Y-98742854D01*
X189529081Y-98742855D01*
X189373809Y-98787966D01*
X189373804Y-98787968D01*
X189234625Y-98870278D01*
X189234616Y-98870285D01*
X189120285Y-98984616D01*
X189120279Y-98984624D01*
X189112069Y-98998507D01*
X189060999Y-99046189D01*
X188992257Y-99058692D01*
X188927668Y-99032046D01*
X188917657Y-99023065D01*
X188408376Y-98513784D01*
X188374891Y-98452461D01*
X188379875Y-98382769D01*
X188421747Y-98326836D01*
X188487211Y-98302419D01*
X188548462Y-98313721D01*
X188676507Y-98373430D01*
X188676516Y-98373433D01*
X188890000Y-98430634D01*
X188890000Y-97533012D01*
X188947007Y-97565925D01*
X189074174Y-97600000D01*
X189205826Y-97600000D01*
X189332993Y-97565925D01*
X189390000Y-97533012D01*
X189390000Y-98430633D01*
G37*
%TD.AperFunction*%
%TA.AperFunction,Conductor*%
G36*
X208493303Y-95269685D02*
G01*
X208539058Y-95322489D01*
X208550263Y-95373735D01*
X208560138Y-100004815D01*
X208599734Y-118575474D01*
X208580192Y-118642555D01*
X208527486Y-118688422D01*
X208475473Y-118699738D01*
X184923739Y-118650259D01*
X184856742Y-118630433D01*
X184811098Y-118577533D01*
X184800000Y-118526259D01*
X184800000Y-96202135D01*
X185249500Y-96202135D01*
X185249500Y-97997870D01*
X185249501Y-97997876D01*
X185255908Y-98057483D01*
X185306202Y-98192328D01*
X185306206Y-98192335D01*
X185392452Y-98307544D01*
X185392455Y-98307547D01*
X185507664Y-98393793D01*
X185507671Y-98393797D01*
X185642517Y-98444091D01*
X185642516Y-98444091D01*
X185649444Y-98444835D01*
X185702127Y-98450500D01*
X186524548Y-98450499D01*
X186591587Y-98470183D01*
X186612229Y-98486818D01*
X188838229Y-100712819D01*
X188871714Y-100774142D01*
X188866730Y-100843834D01*
X188824858Y-100899767D01*
X188759394Y-100924184D01*
X188750548Y-100924500D01*
X187460636Y-100924500D01*
X187343246Y-100939953D01*
X187343237Y-100939956D01*
X187197160Y-101000463D01*
X187071718Y-101096718D01*
X186975463Y-101222160D01*
X186914956Y-101368237D01*
X186914955Y-101368239D01*
X186899500Y-101485638D01*
X186899500Y-101764363D01*
X186914953Y-101881753D01*
X186914957Y-101881765D01*
X186923566Y-101902550D01*
X186931033Y-101972019D01*
X186923566Y-101997450D01*
X186914957Y-102018234D01*
X186914955Y-102018239D01*
X186899500Y-102135638D01*
X186899500Y-102414363D01*
X186914953Y-102531753D01*
X186914957Y-102531765D01*
X186923566Y-102552550D01*
X186931033Y-102622019D01*
X186923566Y-102647450D01*
X186914957Y-102668234D01*
X186914955Y-102668239D01*
X186899500Y-102785638D01*
X186899500Y-103064363D01*
X186914953Y-103181753D01*
X186914957Y-103181765D01*
X186923566Y-103202550D01*
X186931033Y-103272019D01*
X186923566Y-103297450D01*
X186914957Y-103318234D01*
X186914955Y-103318239D01*
X186899500Y-103435638D01*
X186899500Y-103714363D01*
X186914953Y-103831753D01*
X186914957Y-103831765D01*
X186923566Y-103852550D01*
X186931033Y-103922019D01*
X186923566Y-103947450D01*
X186914957Y-103968234D01*
X186914955Y-103968239D01*
X186899500Y-104085638D01*
X186899500Y-104364363D01*
X186914953Y-104481753D01*
X186914957Y-104481765D01*
X186923566Y-104502550D01*
X186931033Y-104572019D01*
X186923566Y-104597450D01*
X186914957Y-104618234D01*
X186914955Y-104618239D01*
X186899500Y-104735638D01*
X186899500Y-105014363D01*
X186914953Y-105131753D01*
X186914957Y-105131765D01*
X186923566Y-105152550D01*
X186931033Y-105222019D01*
X186923566Y-105247450D01*
X186914957Y-105268234D01*
X186914955Y-105268239D01*
X186899500Y-105385638D01*
X186899500Y-105664363D01*
X186914953Y-105781753D01*
X186914956Y-105781762D01*
X186923837Y-105803203D01*
X186931304Y-105872673D01*
X186923838Y-105898103D01*
X186915443Y-105918370D01*
X186907987Y-105975000D01*
X186950500Y-105975000D01*
X187017539Y-105994685D01*
X187048875Y-106023513D01*
X187071715Y-106053279D01*
X187071716Y-106053280D01*
X187071718Y-106053282D01*
X187197159Y-106149536D01*
X187197160Y-106149536D01*
X187201184Y-106152624D01*
X187242386Y-106209052D01*
X187246541Y-106278798D01*
X187212329Y-106339719D01*
X187150611Y-106372471D01*
X187125697Y-106375000D01*
X186907990Y-106375000D01*
X186907988Y-106375001D01*
X186915442Y-106431627D01*
X186915444Y-106431633D01*
X186975899Y-106577585D01*
X187072075Y-106702924D01*
X187197413Y-106799100D01*
X187343365Y-106859554D01*
X187343369Y-106859555D01*
X187460676Y-106874999D01*
X187681763Y-106874999D01*
X187748803Y-106894683D01*
X187794558Y-106947487D01*
X187804502Y-107016645D01*
X187775477Y-107080201D01*
X187716699Y-107117976D01*
X187707546Y-107120289D01*
X187620196Y-107138856D01*
X187620192Y-107138857D01*
X187447270Y-107215848D01*
X187447265Y-107215851D01*
X187294129Y-107327111D01*
X187167466Y-107467785D01*
X187072821Y-107631715D01*
X187072818Y-107631722D01*
X187014327Y-107811740D01*
X187014326Y-107811744D01*
X187011340Y-107840157D01*
X187004538Y-107904868D01*
X186984322Y-107960792D01*
X186975686Y-107973717D01*
X186975685Y-107973718D01*
X186946061Y-108045240D01*
X186942347Y-108054207D01*
X186936823Y-108067543D01*
X186928537Y-108087545D01*
X186928535Y-108087552D01*
X186921186Y-108124499D01*
X186921187Y-108124500D01*
X186906423Y-108198728D01*
X186904500Y-108208394D01*
X186904500Y-108762041D01*
X186887232Y-108825161D01*
X186807133Y-108960602D01*
X186807129Y-108960611D01*
X186762335Y-109114791D01*
X186762334Y-109114797D01*
X186759500Y-109150811D01*
X186759500Y-109649169D01*
X186759501Y-109649191D01*
X186762335Y-109685205D01*
X186807129Y-109839388D01*
X186810230Y-109846554D01*
X186808313Y-109847383D01*
X186822825Y-109904626D01*
X186808686Y-109952777D01*
X186810230Y-109953446D01*
X186807129Y-109960611D01*
X186762335Y-110114791D01*
X186762334Y-110114797D01*
X186759500Y-110150811D01*
X186759500Y-110649169D01*
X186759501Y-110649191D01*
X186762335Y-110685205D01*
X186807129Y-110839388D01*
X186810230Y-110846554D01*
X186808313Y-110847383D01*
X186822825Y-110904626D01*
X186808686Y-110952777D01*
X186810230Y-110953446D01*
X186807129Y-110960611D01*
X186762335Y-111114791D01*
X186762334Y-111114797D01*
X186759500Y-111150811D01*
X186759500Y-111649169D01*
X186759501Y-111649191D01*
X186762335Y-111685205D01*
X186807129Y-111839388D01*
X186807131Y-111839393D01*
X186888863Y-111977595D01*
X186888869Y-111977603D01*
X187002396Y-112091130D01*
X187002400Y-112091133D01*
X187002402Y-112091135D01*
X187140607Y-112172869D01*
X187181268Y-112184682D01*
X187294791Y-112217664D01*
X187294794Y-112217664D01*
X187294796Y-112217665D01*
X187330819Y-112220500D01*
X187520547Y-112220499D01*
X187587586Y-112240183D01*
X187633341Y-112292987D01*
X187643285Y-112362145D01*
X187614260Y-112425701D01*
X187608228Y-112432180D01*
X187202227Y-112838181D01*
X187140904Y-112871666D01*
X187114546Y-112874500D01*
X185802129Y-112874500D01*
X185802123Y-112874501D01*
X185742516Y-112880908D01*
X185607671Y-112931202D01*
X185607664Y-112931206D01*
X185492455Y-113017452D01*
X185492452Y-113017455D01*
X185406206Y-113132664D01*
X185406202Y-113132671D01*
X185355908Y-113267517D01*
X185349501Y-113327116D01*
X185349500Y-113327135D01*
X185349500Y-115122870D01*
X185349501Y-115122876D01*
X185355908Y-115182483D01*
X185406202Y-115317328D01*
X185406206Y-115317335D01*
X185492452Y-115432544D01*
X185492455Y-115432547D01*
X185607664Y-115518793D01*
X185607671Y-115518797D01*
X185739081Y-115567810D01*
X185795015Y-115609681D01*
X185819432Y-115675145D01*
X185804580Y-115743418D01*
X185783430Y-115771673D01*
X185661503Y-115893600D01*
X185525965Y-116087169D01*
X185525964Y-116087171D01*
X185426098Y-116301335D01*
X185426094Y-116301344D01*
X185364938Y-116529586D01*
X185364936Y-116529596D01*
X185344341Y-116764999D01*
X185344341Y-116765000D01*
X185364936Y-117000403D01*
X185364938Y-117000413D01*
X185426094Y-117228655D01*
X185426096Y-117228659D01*
X185426097Y-117228663D01*
X185501563Y-117390500D01*
X185525965Y-117442830D01*
X185525967Y-117442834D01*
X185634281Y-117597521D01*
X185661505Y-117636401D01*
X185828599Y-117803495D01*
X185925384Y-117871265D01*
X186022165Y-117939032D01*
X186022167Y-117939033D01*
X186022170Y-117939035D01*
X186236337Y-118038903D01*
X186464592Y-118100063D01*
X186652918Y-118116539D01*
X186699999Y-118120659D01*
X186700000Y-118120659D01*
X186700001Y-118120659D01*
X186739234Y-118117226D01*
X186935408Y-118100063D01*
X187163663Y-118038903D01*
X187377830Y-117939035D01*
X187571401Y-117803495D01*
X187738495Y-117636401D01*
X187873652Y-117443377D01*
X187928229Y-117399752D01*
X187975227Y-117390500D01*
X189021912Y-117390500D01*
X189082334Y-117378481D01*
X189142757Y-117366463D01*
X189142760Y-117366461D01*
X189142763Y-117366461D01*
X189176092Y-117352654D01*
X189176091Y-117352654D01*
X189176097Y-117352652D01*
X189256591Y-117319312D01*
X189307814Y-117285084D01*
X189359038Y-117250858D01*
X189446163Y-117163733D01*
X189446163Y-117163731D01*
X189456371Y-117153524D01*
X189456372Y-117153521D01*
X190460857Y-116149039D01*
X190473166Y-116130618D01*
X190475440Y-116127216D01*
X190529307Y-116046597D01*
X190529307Y-116046596D01*
X190529311Y-116046591D01*
X190576463Y-115932757D01*
X190593176Y-115848733D01*
X190600500Y-115811912D01*
X190600500Y-115688699D01*
X190600500Y-112135453D01*
X190620185Y-112068414D01*
X190636819Y-112047772D01*
X190678665Y-112005925D01*
X190735858Y-111948733D01*
X190804312Y-111846285D01*
X190838647Y-111763393D01*
X190851463Y-111732452D01*
X190875500Y-111611606D01*
X190875500Y-110874504D01*
X190877883Y-110850313D01*
X190900499Y-110736610D01*
X190900500Y-110736607D01*
X190900500Y-110604271D01*
X190920185Y-110537232D01*
X190972989Y-110491477D01*
X191042147Y-110481533D01*
X191074930Y-110490989D01*
X191120197Y-110511144D01*
X191305354Y-110550500D01*
X191364548Y-110550500D01*
X191431587Y-110570185D01*
X191452229Y-110586819D01*
X195138181Y-114272771D01*
X195171666Y-114334094D01*
X195174500Y-114360452D01*
X195174500Y-114751312D01*
X195154815Y-114818351D01*
X195142650Y-114834284D01*
X195067466Y-114917784D01*
X194972821Y-115081715D01*
X194972818Y-115081722D01*
X194914327Y-115261740D01*
X194914326Y-115261744D01*
X194894540Y-115450000D01*
X194914326Y-115638256D01*
X194914327Y-115638259D01*
X194972818Y-115818277D01*
X194972821Y-115818284D01*
X195067467Y-115982216D01*
X195161969Y-116087171D01*
X195194129Y-116122888D01*
X195347265Y-116234148D01*
X195347270Y-116234151D01*
X195520192Y-116311142D01*
X195520197Y-116311144D01*
X195705354Y-116350500D01*
X195705355Y-116350500D01*
X195894644Y-116350500D01*
X195894646Y-116350500D01*
X196079803Y-116311144D01*
X196252730Y-116234151D01*
X196405871Y-116122888D01*
X196532533Y-115982216D01*
X196627179Y-115818284D01*
X196685674Y-115638256D01*
X196705460Y-115450000D01*
X196685674Y-115261744D01*
X196627179Y-115081716D01*
X196552366Y-114952135D01*
X197544388Y-114952135D01*
X197544388Y-116647870D01*
X197544389Y-116647876D01*
X197550796Y-116707483D01*
X197601090Y-116842328D01*
X197601094Y-116842335D01*
X197687340Y-116957544D01*
X197687343Y-116957547D01*
X197802552Y-117043793D01*
X197802559Y-117043797D01*
X197937405Y-117094091D01*
X197937404Y-117094091D01*
X197944332Y-117094835D01*
X197997015Y-117100500D01*
X199692760Y-117100499D01*
X199752371Y-117094091D01*
X199887219Y-117043796D01*
X200002434Y-116957546D01*
X200009238Y-116948455D01*
X200065168Y-116906584D01*
X200134859Y-116901597D01*
X200179628Y-116921188D01*
X200192400Y-116930130D01*
X200192406Y-116930134D01*
X200398561Y-117026265D01*
X200398570Y-117026269D01*
X200618277Y-117085139D01*
X200618288Y-117085141D01*
X200844886Y-117104966D01*
X200844890Y-117104966D01*
X201071487Y-117085141D01*
X201071498Y-117085139D01*
X201291205Y-117026269D01*
X201291219Y-117026264D01*
X201497366Y-116930136D01*
X201570359Y-116879024D01*
X200891335Y-116200000D01*
X200897549Y-116200000D01*
X200999282Y-116172741D01*
X201090494Y-116120080D01*
X201164968Y-116045606D01*
X201217629Y-115954394D01*
X201244888Y-115852661D01*
X201244888Y-115846447D01*
X201923912Y-116525471D01*
X201975024Y-116452478D01*
X202071152Y-116246331D01*
X202071157Y-116246317D01*
X202130027Y-116026610D01*
X202130029Y-116026599D01*
X202149854Y-115800002D01*
X202149854Y-115799997D01*
X202130029Y-115573400D01*
X202130027Y-115573389D01*
X202071157Y-115353682D01*
X202071152Y-115353668D01*
X201975024Y-115147521D01*
X201975020Y-115147513D01*
X201923913Y-115074526D01*
X201244888Y-115753551D01*
X201244888Y-115747339D01*
X201217629Y-115645606D01*
X201164968Y-115554394D01*
X201090494Y-115479920D01*
X200999282Y-115427259D01*
X200897549Y-115400000D01*
X200891335Y-115400000D01*
X201570360Y-114720974D01*
X201497366Y-114669863D01*
X201291219Y-114573735D01*
X201291205Y-114573730D01*
X201071498Y-114514860D01*
X201071487Y-114514858D01*
X200844890Y-114495034D01*
X200844886Y-114495034D01*
X200618288Y-114514858D01*
X200618277Y-114514860D01*
X200398570Y-114573730D01*
X200398561Y-114573734D01*
X200192400Y-114669868D01*
X200192395Y-114669871D01*
X200179624Y-114678813D01*
X200113417Y-114701138D01*
X200045651Y-114684124D01*
X200009240Y-114651546D01*
X200002434Y-114642454D01*
X200002432Y-114642453D01*
X200002432Y-114642452D01*
X199887223Y-114556206D01*
X199887216Y-114556202D01*
X199752370Y-114505908D01*
X199752371Y-114505908D01*
X199692771Y-114499501D01*
X199692769Y-114499500D01*
X199692761Y-114499500D01*
X199692752Y-114499500D01*
X197997017Y-114499500D01*
X197997011Y-114499501D01*
X197937404Y-114505908D01*
X197802559Y-114556202D01*
X197802552Y-114556206D01*
X197687343Y-114642452D01*
X197687340Y-114642455D01*
X197601094Y-114757664D01*
X197601090Y-114757671D01*
X197550796Y-114892517D01*
X197544389Y-114952116D01*
X197544388Y-114952135D01*
X196552366Y-114952135D01*
X196532533Y-114917784D01*
X196457350Y-114834284D01*
X196427120Y-114771292D01*
X196425500Y-114751312D01*
X196425500Y-114117741D01*
X196425501Y-114117720D01*
X196425501Y-113988391D01*
X196401464Y-113867555D01*
X196401463Y-113867549D01*
X196354312Y-113753715D01*
X196285858Y-113651267D01*
X196285855Y-113651263D01*
X194397984Y-111763393D01*
X193731149Y-111096559D01*
X193697665Y-111035237D01*
X193702649Y-110965545D01*
X193744521Y-110909612D01*
X193809985Y-110885195D01*
X193844611Y-110887589D01*
X193857554Y-110890339D01*
X193905354Y-110900500D01*
X193905355Y-110900500D01*
X194094644Y-110900500D01*
X194094646Y-110900500D01*
X194224720Y-110872852D01*
X194294386Y-110878168D01*
X194350120Y-110920305D01*
X194374225Y-110985885D01*
X194374500Y-110994142D01*
X194374500Y-111061607D01*
X194374500Y-111061609D01*
X194374499Y-111061609D01*
X194382997Y-111104325D01*
X194382997Y-111104327D01*
X194398535Y-111182446D01*
X194398539Y-111182458D01*
X194406994Y-111202869D01*
X194406995Y-111202872D01*
X194445685Y-111296281D01*
X194445691Y-111296292D01*
X194478697Y-111345686D01*
X194478698Y-111345690D01*
X194478699Y-111345690D01*
X194514138Y-111398728D01*
X194514144Y-111398736D01*
X194605586Y-111490178D01*
X194605608Y-111490198D01*
X195411016Y-112295606D01*
X195411045Y-112295637D01*
X195501263Y-112385855D01*
X195501267Y-112385858D01*
X195603707Y-112454307D01*
X195603713Y-112454310D01*
X195603714Y-112454311D01*
X195717548Y-112501463D01*
X195746819Y-112507285D01*
X195773226Y-112512538D01*
X195773246Y-112512541D01*
X195773268Y-112512546D01*
X195838391Y-112525499D01*
X195838392Y-112525500D01*
X195838393Y-112525500D01*
X195838394Y-112525500D01*
X196363374Y-112525500D01*
X196430413Y-112545185D01*
X196437685Y-112550233D01*
X196502556Y-112598795D01*
X196502559Y-112598797D01*
X196637405Y-112649091D01*
X196637404Y-112649091D01*
X196644332Y-112649835D01*
X196697015Y-112655500D01*
X197892760Y-112655499D01*
X197952371Y-112649091D01*
X198087219Y-112598796D01*
X198202434Y-112512546D01*
X198288684Y-112397331D01*
X198338979Y-112262483D01*
X198345388Y-112202873D01*
X198345387Y-111597128D01*
X198338979Y-111537517D01*
X198303849Y-111443330D01*
X198298866Y-111373642D01*
X198303846Y-111356679D01*
X198338979Y-111262483D01*
X198345388Y-111202873D01*
X198345387Y-110906992D01*
X198365071Y-110839954D01*
X198417875Y-110794199D01*
X198418879Y-110793745D01*
X198500066Y-110757598D01*
X198569313Y-110748313D01*
X198632590Y-110777941D01*
X198669804Y-110837076D01*
X198674500Y-110870878D01*
X198674500Y-110887894D01*
X198695634Y-110994142D01*
X198698537Y-111008736D01*
X198704874Y-111024035D01*
X198745688Y-111122570D01*
X198771270Y-111160855D01*
X198771271Y-111160858D01*
X198771272Y-111160858D01*
X198814140Y-111225015D01*
X198814141Y-111225016D01*
X198814142Y-111225017D01*
X198901267Y-111312142D01*
X198901268Y-111312142D01*
X198908335Y-111319209D01*
X198908334Y-111319209D01*
X198908338Y-111319212D01*
X201664979Y-114075855D01*
X201664983Y-114075858D01*
X201767426Y-114144309D01*
X201767427Y-114144309D01*
X201767431Y-114144312D01*
X201834112Y-114171931D01*
X201834114Y-114171933D01*
X201881259Y-114191461D01*
X201881264Y-114191463D01*
X201901313Y-114195451D01*
X201934912Y-114202134D01*
X202002108Y-114215501D01*
X202002110Y-114215501D01*
X202131437Y-114215501D01*
X202131457Y-114215500D01*
X205398976Y-114215500D01*
X205466015Y-114235185D01*
X205511770Y-114287989D01*
X205521714Y-114357147D01*
X205511358Y-114391905D01*
X205476569Y-114466507D01*
X205476567Y-114466513D01*
X205419364Y-114679999D01*
X205419364Y-114680000D01*
X206316988Y-114680000D01*
X206284075Y-114737007D01*
X206250000Y-114864174D01*
X206250000Y-114995826D01*
X206284075Y-115122993D01*
X206316988Y-115180000D01*
X205419364Y-115180000D01*
X205476567Y-115393486D01*
X205476570Y-115393492D01*
X205576399Y-115607578D01*
X205711894Y-115801082D01*
X205878917Y-115968105D01*
X206072421Y-116103600D01*
X206286507Y-116203429D01*
X206286516Y-116203433D01*
X206500000Y-116260634D01*
X206500000Y-115363012D01*
X206557007Y-115395925D01*
X206684174Y-115430000D01*
X206815826Y-115430000D01*
X206942993Y-115395925D01*
X207000000Y-115363012D01*
X207000000Y-116260633D01*
X207213483Y-116203433D01*
X207213492Y-116203429D01*
X207427578Y-116103600D01*
X207621082Y-115968105D01*
X207788105Y-115801082D01*
X207923600Y-115607578D01*
X208023429Y-115393492D01*
X208023432Y-115393486D01*
X208080636Y-115180000D01*
X207183012Y-115180000D01*
X207215925Y-115122993D01*
X207250000Y-114995826D01*
X207250000Y-114864174D01*
X207215925Y-114737007D01*
X207183012Y-114680000D01*
X208080636Y-114680000D01*
X208080635Y-114679999D01*
X208023432Y-114466513D01*
X208023429Y-114466507D01*
X207923600Y-114252422D01*
X207923599Y-114252420D01*
X207788113Y-114058926D01*
X207788108Y-114058920D01*
X207621078Y-113891890D01*
X207435405Y-113761879D01*
X207391780Y-113707302D01*
X207384588Y-113637804D01*
X207416110Y-113575449D01*
X207435406Y-113558730D01*
X207449749Y-113548687D01*
X207621401Y-113428495D01*
X207788495Y-113261401D01*
X207924035Y-113067830D01*
X208023903Y-112853663D01*
X208085063Y-112625408D01*
X208105659Y-112390000D01*
X208085063Y-112154592D01*
X208023903Y-111926337D01*
X207924035Y-111712171D01*
X207905154Y-111685205D01*
X207788494Y-111518597D01*
X207621402Y-111351506D01*
X207621396Y-111351501D01*
X207435842Y-111221575D01*
X207392217Y-111166998D01*
X207385023Y-111097500D01*
X207416546Y-111035145D01*
X207435842Y-111018425D01*
X207550139Y-110938393D01*
X207621401Y-110888495D01*
X207788495Y-110721401D01*
X207924035Y-110527830D01*
X208023903Y-110313663D01*
X208085063Y-110085408D01*
X208105659Y-109850000D01*
X208085063Y-109614592D01*
X208023903Y-109386337D01*
X207924035Y-109172171D01*
X207919609Y-109165849D01*
X207788494Y-108978597D01*
X207621402Y-108811506D01*
X207621396Y-108811501D01*
X207435842Y-108681575D01*
X207392217Y-108626998D01*
X207385023Y-108557500D01*
X207416546Y-108495145D01*
X207435842Y-108478425D01*
X207527646Y-108414143D01*
X207621401Y-108348495D01*
X207788495Y-108181401D01*
X207924035Y-107987830D01*
X208023903Y-107773663D01*
X208085063Y-107545408D01*
X208105659Y-107310000D01*
X208085063Y-107074592D01*
X208027445Y-106859555D01*
X208023905Y-106846344D01*
X208023904Y-106846343D01*
X208023903Y-106846337D01*
X207924035Y-106632171D01*
X207841474Y-106514260D01*
X207788494Y-106438597D01*
X207621402Y-106271506D01*
X207621396Y-106271501D01*
X207435842Y-106141575D01*
X207392217Y-106086998D01*
X207385023Y-106017500D01*
X207416546Y-105955145D01*
X207435842Y-105938425D01*
X207490718Y-105900000D01*
X207621401Y-105808495D01*
X207788495Y-105641401D01*
X207924035Y-105447830D01*
X208023903Y-105233663D01*
X208085063Y-105005408D01*
X208105659Y-104770000D01*
X208085063Y-104534592D01*
X208023903Y-104306337D01*
X207924035Y-104092171D01*
X207919462Y-104085639D01*
X207788494Y-103898597D01*
X207621402Y-103731506D01*
X207621396Y-103731501D01*
X207435842Y-103601575D01*
X207392217Y-103546998D01*
X207385023Y-103477500D01*
X207416546Y-103415145D01*
X207435842Y-103398425D01*
X207550359Y-103318239D01*
X207621401Y-103268495D01*
X207788495Y-103101401D01*
X207924035Y-102907830D01*
X208023903Y-102693663D01*
X208085063Y-102465408D01*
X208105659Y-102230000D01*
X208085063Y-101994592D01*
X208027881Y-101781183D01*
X208023905Y-101766344D01*
X208023904Y-101766343D01*
X208023903Y-101766337D01*
X207924035Y-101552171D01*
X207877449Y-101485638D01*
X207788494Y-101358597D01*
X207621402Y-101191506D01*
X207621396Y-101191501D01*
X207435842Y-101061575D01*
X207392217Y-101006998D01*
X207385023Y-100937500D01*
X207416546Y-100875145D01*
X207435842Y-100858425D01*
X207556210Y-100774142D01*
X207621401Y-100728495D01*
X207788495Y-100561401D01*
X207924035Y-100367830D01*
X208023903Y-100153663D01*
X208085063Y-99925408D01*
X208105659Y-99690000D01*
X208085063Y-99454592D01*
X208023903Y-99226337D01*
X207924035Y-99012171D01*
X207914467Y-98998507D01*
X207788496Y-98818600D01*
X207757862Y-98787966D01*
X207666567Y-98696671D01*
X207633084Y-98635351D01*
X207638068Y-98565659D01*
X207679939Y-98509725D01*
X207710915Y-98492810D01*
X207842331Y-98443796D01*
X207957546Y-98357546D01*
X208043796Y-98242331D01*
X208094091Y-98107483D01*
X208100500Y-98047873D01*
X208100499Y-96252128D01*
X208094091Y-96192517D01*
X208085907Y-96170575D01*
X208043797Y-96057671D01*
X208043793Y-96057664D01*
X207957547Y-95942455D01*
X207957544Y-95942452D01*
X207842335Y-95856206D01*
X207842328Y-95856202D01*
X207707482Y-95805908D01*
X207707483Y-95805908D01*
X207647883Y-95799501D01*
X207647881Y-95799500D01*
X207647873Y-95799500D01*
X207647864Y-95799500D01*
X205852129Y-95799500D01*
X205852123Y-95799501D01*
X205792516Y-95805908D01*
X205657671Y-95856202D01*
X205657664Y-95856206D01*
X205542455Y-95942452D01*
X205542452Y-95942455D01*
X205456206Y-96057664D01*
X205456202Y-96057671D01*
X205405908Y-96192517D01*
X205401995Y-96228920D01*
X205399501Y-96252123D01*
X205399500Y-96252135D01*
X205399500Y-97458480D01*
X205379815Y-97525519D01*
X205363181Y-97546161D01*
X201850776Y-101058565D01*
X201850775Y-101058566D01*
X201774110Y-101173304D01*
X201721309Y-101300779D01*
X201721306Y-101300791D01*
X201698760Y-101414139D01*
X201698760Y-101414143D01*
X201694388Y-101436118D01*
X201694388Y-101575500D01*
X201674703Y-101642539D01*
X201621899Y-101688294D01*
X201570388Y-101699500D01*
X201375891Y-101699500D01*
X201267478Y-101721065D01*
X201267477Y-101721065D01*
X201245184Y-101725500D01*
X201240559Y-101726420D01*
X201191556Y-101746718D01*
X201191555Y-101746718D01*
X201113081Y-101779222D01*
X201113079Y-101779223D01*
X201013609Y-101845688D01*
X201013607Y-101845689D01*
X200998346Y-101855885D01*
X200998341Y-101855889D01*
X200687181Y-102167050D01*
X200625858Y-102200535D01*
X200556166Y-102195551D01*
X200500233Y-102153679D01*
X200475816Y-102088215D01*
X200475500Y-102079369D01*
X200475500Y-101251997D01*
X200475499Y-101251993D01*
X200463468Y-101191506D01*
X200451463Y-101131152D01*
X200426418Y-101070688D01*
X200422643Y-101061575D01*
X200404314Y-101017323D01*
X200404312Y-101017320D01*
X200404312Y-101017319D01*
X200369926Y-100965858D01*
X200342292Y-100924501D01*
X200335856Y-100914868D01*
X200245637Y-100824649D01*
X200245606Y-100824620D01*
X199676594Y-100255608D01*
X199676574Y-100255586D01*
X199585131Y-100164143D01*
X199562046Y-100148718D01*
X199516498Y-100118284D01*
X199516499Y-100118284D01*
X199516497Y-100118282D01*
X199482686Y-100095690D01*
X199482682Y-100095688D01*
X199402188Y-100062347D01*
X199368848Y-100048537D01*
X199368840Y-100048535D01*
X199356679Y-100046116D01*
X199294768Y-100013732D01*
X199260194Y-99953016D01*
X199263933Y-99883246D01*
X199304799Y-99826574D01*
X199369817Y-99800993D01*
X199380868Y-99800499D01*
X199492760Y-99800499D01*
X199552371Y-99794091D01*
X199687219Y-99743796D01*
X199802434Y-99657546D01*
X199809238Y-99648455D01*
X199865168Y-99606584D01*
X199934859Y-99601597D01*
X199979628Y-99621188D01*
X199992400Y-99630130D01*
X199992406Y-99630134D01*
X200198561Y-99726265D01*
X200198570Y-99726269D01*
X200418277Y-99785139D01*
X200418288Y-99785141D01*
X200644886Y-99804966D01*
X200644890Y-99804966D01*
X200871487Y-99785141D01*
X200871498Y-99785139D01*
X201091205Y-99726269D01*
X201091219Y-99726264D01*
X201297366Y-99630136D01*
X201370359Y-99579024D01*
X200691335Y-98900000D01*
X200697549Y-98900000D01*
X200799282Y-98872741D01*
X200890494Y-98820080D01*
X200964968Y-98745606D01*
X201017629Y-98654394D01*
X201044888Y-98552661D01*
X201044888Y-98546447D01*
X201723912Y-99225471D01*
X201775024Y-99152478D01*
X201871152Y-98946331D01*
X201871157Y-98946317D01*
X201930027Y-98726610D01*
X201930029Y-98726599D01*
X201949854Y-98500002D01*
X201949854Y-98499997D01*
X201930029Y-98273400D01*
X201930027Y-98273389D01*
X201871157Y-98053682D01*
X201871152Y-98053668D01*
X201775024Y-97847521D01*
X201775020Y-97847513D01*
X201723913Y-97774526D01*
X201044888Y-98453551D01*
X201044888Y-98447339D01*
X201017629Y-98345606D01*
X200964968Y-98254394D01*
X200890494Y-98179920D01*
X200799282Y-98127259D01*
X200697549Y-98100000D01*
X200691335Y-98100000D01*
X201370360Y-97420974D01*
X201297366Y-97369863D01*
X201091219Y-97273735D01*
X201091205Y-97273730D01*
X200871498Y-97214860D01*
X200871487Y-97214858D01*
X200644890Y-97195034D01*
X200644886Y-97195034D01*
X200418288Y-97214858D01*
X200418277Y-97214860D01*
X200198570Y-97273730D01*
X200198561Y-97273734D01*
X199992400Y-97369868D01*
X199992395Y-97369871D01*
X199979624Y-97378813D01*
X199913417Y-97401138D01*
X199845651Y-97384124D01*
X199809240Y-97351546D01*
X199802434Y-97342454D01*
X199802432Y-97342453D01*
X199802432Y-97342452D01*
X199687223Y-97256206D01*
X199687216Y-97256202D01*
X199552370Y-97205908D01*
X199552371Y-97205908D01*
X199492771Y-97199501D01*
X199492769Y-97199500D01*
X199492761Y-97199500D01*
X199492752Y-97199500D01*
X197797017Y-97199500D01*
X197797011Y-97199501D01*
X197737404Y-97205908D01*
X197602559Y-97256202D01*
X197602552Y-97256206D01*
X197487343Y-97342452D01*
X197487340Y-97342455D01*
X197401094Y-97457664D01*
X197401090Y-97457671D01*
X197350796Y-97592517D01*
X197344389Y-97652116D01*
X197344388Y-97652135D01*
X197344388Y-97675500D01*
X197324703Y-97742539D01*
X197271899Y-97788294D01*
X197220388Y-97799500D01*
X195578571Y-97799500D01*
X195511532Y-97779815D01*
X195465777Y-97727011D01*
X195455833Y-97657853D01*
X195466189Y-97623095D01*
X195493903Y-97563663D01*
X195555063Y-97335408D01*
X195575659Y-97100000D01*
X195555063Y-96864592D01*
X195493903Y-96636337D01*
X195394035Y-96422171D01*
X195388731Y-96414595D01*
X195258494Y-96228597D01*
X195091402Y-96061506D01*
X195091395Y-96061501D01*
X195085922Y-96057669D01*
X195014518Y-96007671D01*
X194897834Y-95925967D01*
X194897830Y-95925965D01*
X194897828Y-95925964D01*
X194683663Y-95826097D01*
X194683659Y-95826096D01*
X194683655Y-95826094D01*
X194455413Y-95764938D01*
X194455403Y-95764936D01*
X194220001Y-95744341D01*
X194219999Y-95744341D01*
X193984596Y-95764936D01*
X193984586Y-95764938D01*
X193756344Y-95826094D01*
X193756335Y-95826098D01*
X193542171Y-95925964D01*
X193542169Y-95925965D01*
X193348597Y-96061505D01*
X193181506Y-96228596D01*
X193098864Y-96346623D01*
X193044287Y-96390248D01*
X192997289Y-96399500D01*
X192902711Y-96399500D01*
X192835672Y-96379815D01*
X192801136Y-96346623D01*
X192718494Y-96228597D01*
X192551402Y-96061506D01*
X192551395Y-96061501D01*
X192545922Y-96057669D01*
X192474518Y-96007671D01*
X192357834Y-95925967D01*
X192357830Y-95925965D01*
X192357828Y-95925964D01*
X192143663Y-95826097D01*
X192143659Y-95826096D01*
X192143655Y-95826094D01*
X191915413Y-95764938D01*
X191915403Y-95764936D01*
X191680001Y-95744341D01*
X191679999Y-95744341D01*
X191444596Y-95764936D01*
X191444586Y-95764938D01*
X191216344Y-95826094D01*
X191216335Y-95826098D01*
X191002171Y-95925964D01*
X191002169Y-95925965D01*
X190808597Y-96061505D01*
X190641508Y-96228594D01*
X190511269Y-96414595D01*
X190456692Y-96458219D01*
X190387193Y-96465412D01*
X190324839Y-96433890D01*
X190308119Y-96414594D01*
X190178113Y-96228926D01*
X190178108Y-96228920D01*
X190011082Y-96061894D01*
X189817578Y-95926399D01*
X189603492Y-95826570D01*
X189603486Y-95826567D01*
X189390000Y-95769364D01*
X189390000Y-96666988D01*
X189332993Y-96634075D01*
X189205826Y-96600000D01*
X189074174Y-96600000D01*
X188947007Y-96634075D01*
X188890000Y-96666988D01*
X188890000Y-95769364D01*
X188889999Y-95769364D01*
X188676513Y-95826567D01*
X188676507Y-95826570D01*
X188462422Y-95926399D01*
X188462420Y-95926400D01*
X188268926Y-96061886D01*
X188146865Y-96183947D01*
X188085542Y-96217431D01*
X188015850Y-96212447D01*
X187959917Y-96170575D01*
X187943002Y-96139598D01*
X187893797Y-96007671D01*
X187893793Y-96007664D01*
X187807547Y-95892455D01*
X187807544Y-95892452D01*
X187692335Y-95806206D01*
X187692328Y-95806202D01*
X187557482Y-95755908D01*
X187557483Y-95755908D01*
X187497883Y-95749501D01*
X187497881Y-95749500D01*
X187497873Y-95749500D01*
X187497864Y-95749500D01*
X185702129Y-95749500D01*
X185702123Y-95749501D01*
X185642516Y-95755908D01*
X185507671Y-95806202D01*
X185507664Y-95806206D01*
X185392455Y-95892452D01*
X185392452Y-95892455D01*
X185306206Y-96007664D01*
X185306202Y-96007671D01*
X185255908Y-96142517D01*
X185249501Y-96202116D01*
X185249500Y-96202135D01*
X184800000Y-96202135D01*
X184800000Y-95418236D01*
X184819685Y-95351197D01*
X184872489Y-95305442D01*
X184918101Y-95294376D01*
X185847060Y-95250140D01*
X185852958Y-95250000D01*
X208426264Y-95250000D01*
X208493303Y-95269685D01*
G37*
%TD.AperFunction*%
M02*
