%TF.GenerationSoftware,KiCad,Pcbnew,8.0.2*%
%TF.CreationDate,2024-05-17T12:17:20-06:00*%
%TF.ProjectId,Patch_Antenna,50617463-685f-4416-9e74-656e6e612e6b,rev?*%
%TF.SameCoordinates,Original*%
%TF.FileFunction,Drillmap*%
%TF.FilePolarity,Positive*%
%FSLAX45Y45*%
G04 Gerber Fmt 4.5, Leading zero omitted, Abs format (unit mm)*
G04 Created by KiCad (PCBNEW 8.0.2) date 2024-05-17 12:17:20*
%MOMM*%
%LPD*%
G01*
G04 APERTURE LIST*
%ADD10C,0.200000*%
G04 APERTURE END LIST*
D10*
X10000000Y-6000000D02*
X17000000Y-6000000D01*
X17000000Y-13000000D01*
X10000000Y-13000000D01*
X10000000Y-6000000D01*
X10250777Y-13321484D02*
X10250777Y-13121484D01*
X10250777Y-13121484D02*
X10298396Y-13121484D01*
X10298396Y-13121484D02*
X10326967Y-13131008D01*
X10326967Y-13131008D02*
X10346015Y-13150055D01*
X10346015Y-13150055D02*
X10355539Y-13169103D01*
X10355539Y-13169103D02*
X10365063Y-13207198D01*
X10365063Y-13207198D02*
X10365063Y-13235769D01*
X10365063Y-13235769D02*
X10355539Y-13273865D01*
X10355539Y-13273865D02*
X10346015Y-13292912D01*
X10346015Y-13292912D02*
X10326967Y-13311960D01*
X10326967Y-13311960D02*
X10298396Y-13321484D01*
X10298396Y-13321484D02*
X10250777Y-13321484D01*
X10450777Y-13321484D02*
X10450777Y-13188150D01*
X10450777Y-13226246D02*
X10460301Y-13207198D01*
X10460301Y-13207198D02*
X10469824Y-13197674D01*
X10469824Y-13197674D02*
X10488872Y-13188150D01*
X10488872Y-13188150D02*
X10507920Y-13188150D01*
X10574586Y-13321484D02*
X10574586Y-13188150D01*
X10574586Y-13121484D02*
X10565063Y-13131008D01*
X10565063Y-13131008D02*
X10574586Y-13140531D01*
X10574586Y-13140531D02*
X10584110Y-13131008D01*
X10584110Y-13131008D02*
X10574586Y-13121484D01*
X10574586Y-13121484D02*
X10574586Y-13140531D01*
X10698396Y-13321484D02*
X10679348Y-13311960D01*
X10679348Y-13311960D02*
X10669824Y-13292912D01*
X10669824Y-13292912D02*
X10669824Y-13121484D01*
X10803158Y-13321484D02*
X10784110Y-13311960D01*
X10784110Y-13311960D02*
X10774586Y-13292912D01*
X10774586Y-13292912D02*
X10774586Y-13121484D01*
X11031729Y-13321484D02*
X11031729Y-13121484D01*
X11031729Y-13121484D02*
X11098396Y-13264341D01*
X11098396Y-13264341D02*
X11165063Y-13121484D01*
X11165063Y-13121484D02*
X11165063Y-13321484D01*
X11346015Y-13321484D02*
X11346015Y-13216722D01*
X11346015Y-13216722D02*
X11336491Y-13197674D01*
X11336491Y-13197674D02*
X11317443Y-13188150D01*
X11317443Y-13188150D02*
X11279348Y-13188150D01*
X11279348Y-13188150D02*
X11260301Y-13197674D01*
X11346015Y-13311960D02*
X11326967Y-13321484D01*
X11326967Y-13321484D02*
X11279348Y-13321484D01*
X11279348Y-13321484D02*
X11260301Y-13311960D01*
X11260301Y-13311960D02*
X11250777Y-13292912D01*
X11250777Y-13292912D02*
X11250777Y-13273865D01*
X11250777Y-13273865D02*
X11260301Y-13254817D01*
X11260301Y-13254817D02*
X11279348Y-13245293D01*
X11279348Y-13245293D02*
X11326967Y-13245293D01*
X11326967Y-13245293D02*
X11346015Y-13235769D01*
X11441253Y-13188150D02*
X11441253Y-13388150D01*
X11441253Y-13197674D02*
X11460301Y-13188150D01*
X11460301Y-13188150D02*
X11498396Y-13188150D01*
X11498396Y-13188150D02*
X11517443Y-13197674D01*
X11517443Y-13197674D02*
X11526967Y-13207198D01*
X11526967Y-13207198D02*
X11536491Y-13226246D01*
X11536491Y-13226246D02*
X11536491Y-13283388D01*
X11536491Y-13283388D02*
X11526967Y-13302436D01*
X11526967Y-13302436D02*
X11517443Y-13311960D01*
X11517443Y-13311960D02*
X11498396Y-13321484D01*
X11498396Y-13321484D02*
X11460301Y-13321484D01*
X11460301Y-13321484D02*
X11441253Y-13311960D01*
X11622205Y-13302436D02*
X11631729Y-13311960D01*
X11631729Y-13311960D02*
X11622205Y-13321484D01*
X11622205Y-13321484D02*
X11612682Y-13311960D01*
X11612682Y-13311960D02*
X11622205Y-13302436D01*
X11622205Y-13302436D02*
X11622205Y-13321484D01*
X11622205Y-13197674D02*
X11631729Y-13207198D01*
X11631729Y-13207198D02*
X11622205Y-13216722D01*
X11622205Y-13216722D02*
X11612682Y-13207198D01*
X11612682Y-13207198D02*
X11622205Y-13197674D01*
X11622205Y-13197674D02*
X11622205Y-13216722D01*
M02*
