%TF.GenerationSoftware,KiCad,Pcbnew,8.0.2*%
%TF.CreationDate,2024-05-17T12:17:20-06:00*%
%TF.ProjectId,Patch_Antenna,50617463-685f-4416-9e74-656e6e612e6b,rev?*%
%TF.SameCoordinates,Original*%
%TF.FileFunction,Drillmap*%
%TF.FilePolarity,Positive*%
%FSLAX45Y45*%
G04 Gerber Fmt 4.5, Leading zero omitted, Abs format (unit mm)*
G04 Created by KiCad (PCBNEW 8.0.2) date 2024-05-17 12:17:20*
%MOMM*%
%LPD*%
G01*
G04 APERTURE LIST*
%ADD10C,0.200000*%
%ADD11C,0.100000*%
G04 APERTURE END LIST*
D10*
X10000000Y-6000000D02*
X17000000Y-6000000D01*
X17000000Y-13000000D01*
X10000000Y-13000000D01*
X10000000Y-6000000D01*
D11*
X10185000Y-6185000D02*
X10215000Y-6215000D01*
X10215000Y-6185000D02*
X10185000Y-6215000D01*
X10185000Y-6635000D02*
X10215000Y-6665000D01*
X10215000Y-6635000D02*
X10185000Y-6665000D01*
X10185000Y-7135000D02*
X10215000Y-7165000D01*
X10215000Y-7135000D02*
X10185000Y-7165000D01*
X10185000Y-7635000D02*
X10215000Y-7665000D01*
X10215000Y-7635000D02*
X10185000Y-7665000D01*
X10185000Y-8135000D02*
X10215000Y-8165000D01*
X10215000Y-8135000D02*
X10185000Y-8165000D01*
X10185000Y-8635000D02*
X10215000Y-8665000D01*
X10215000Y-8635000D02*
X10185000Y-8665000D01*
X10185000Y-9135000D02*
X10215000Y-9165000D01*
X10215000Y-9135000D02*
X10185000Y-9165000D01*
X10185000Y-9635000D02*
X10215000Y-9665000D01*
X10215000Y-9635000D02*
X10185000Y-9665000D01*
X10185000Y-10135000D02*
X10215000Y-10165000D01*
X10215000Y-10135000D02*
X10185000Y-10165000D01*
X10185000Y-10635000D02*
X10215000Y-10665000D01*
X10215000Y-10635000D02*
X10185000Y-10665000D01*
X10185000Y-11135000D02*
X10215000Y-11165000D01*
X10215000Y-11135000D02*
X10185000Y-11165000D01*
X10185000Y-11635000D02*
X10215000Y-11665000D01*
X10215000Y-11635000D02*
X10185000Y-11665000D01*
X10185000Y-12135000D02*
X10215000Y-12165000D01*
X10215000Y-12135000D02*
X10185000Y-12165000D01*
X10185000Y-12635000D02*
X10215000Y-12665000D01*
X10215000Y-12635000D02*
X10185000Y-12665000D01*
X10885000Y-6185000D02*
X10915000Y-6215000D01*
X10915000Y-6185000D02*
X10885000Y-6215000D01*
X10885000Y-6635000D02*
X10915000Y-6665000D01*
X10915000Y-6635000D02*
X10885000Y-6665000D01*
X10885000Y-7635000D02*
X10915000Y-7665000D01*
X10915000Y-7635000D02*
X10885000Y-7665000D01*
X10885000Y-8635000D02*
X10915000Y-8665000D01*
X10915000Y-8635000D02*
X10885000Y-8665000D01*
X10885000Y-9635000D02*
X10915000Y-9665000D01*
X10915000Y-9635000D02*
X10885000Y-9665000D01*
X10885000Y-10635000D02*
X10915000Y-10665000D01*
X10915000Y-10635000D02*
X10885000Y-10665000D01*
X10885000Y-11635000D02*
X10915000Y-11665000D01*
X10915000Y-11635000D02*
X10885000Y-11665000D01*
X10885000Y-12635000D02*
X10915000Y-12665000D01*
X10915000Y-12635000D02*
X10885000Y-12665000D01*
X11585000Y-6185000D02*
X11615000Y-6215000D01*
X11615000Y-6185000D02*
X11585000Y-6215000D01*
X11585000Y-7135000D02*
X11615000Y-7165000D01*
X11615000Y-7135000D02*
X11585000Y-7165000D01*
X11585000Y-8135000D02*
X11615000Y-8165000D01*
X11615000Y-8135000D02*
X11585000Y-8165000D01*
X11585000Y-9135000D02*
X11615000Y-9165000D01*
X11615000Y-9135000D02*
X11585000Y-9165000D01*
X11585000Y-10135000D02*
X11615000Y-10165000D01*
X11615000Y-10135000D02*
X11585000Y-10165000D01*
X11585000Y-11135000D02*
X11615000Y-11165000D01*
X11615000Y-11135000D02*
X11585000Y-11165000D01*
X11585000Y-12135000D02*
X11615000Y-12165000D01*
X11615000Y-12135000D02*
X11585000Y-12165000D01*
X11585000Y-12635000D02*
X11615000Y-12665000D01*
X11615000Y-12635000D02*
X11585000Y-12665000D01*
X12285000Y-6185000D02*
X12315000Y-6215000D01*
X12315000Y-6185000D02*
X12285000Y-6215000D01*
X12285000Y-6635000D02*
X12315000Y-6665000D01*
X12315000Y-6635000D02*
X12285000Y-6665000D01*
X12285000Y-7635000D02*
X12315000Y-7665000D01*
X12315000Y-7635000D02*
X12285000Y-7665000D01*
X12285000Y-11635000D02*
X12315000Y-11665000D01*
X12315000Y-11635000D02*
X12285000Y-11665000D01*
X12285000Y-12635000D02*
X12315000Y-12665000D01*
X12315000Y-12635000D02*
X12285000Y-12665000D01*
X12985000Y-6185000D02*
X13015000Y-6215000D01*
X13015000Y-6185000D02*
X12985000Y-6215000D01*
X12985000Y-7135000D02*
X13015000Y-7165000D01*
X13015000Y-7135000D02*
X12985000Y-7165000D01*
X13475000Y-9605000D02*
X13505000Y-9635000D01*
X13505000Y-9605000D02*
X13475000Y-9635000D01*
X13475000Y-9695000D02*
X13505000Y-9725000D01*
X13505000Y-9695000D02*
X13475000Y-9725000D01*
X13485000Y-6185000D02*
X13515000Y-6215000D01*
X13515000Y-6185000D02*
X13485000Y-6215000D01*
X13485000Y-6635000D02*
X13515000Y-6665000D01*
X13515000Y-6635000D02*
X13485000Y-6665000D01*
X13485000Y-7635000D02*
X13515000Y-7665000D01*
X13515000Y-7635000D02*
X13485000Y-7665000D01*
X13515000Y-9515000D02*
X13545000Y-9545000D01*
X13545000Y-9515000D02*
X13515000Y-9545000D01*
X13515000Y-9785000D02*
X13545000Y-9815000D01*
X13545000Y-9785000D02*
X13515000Y-9815000D01*
X13535000Y-9885000D02*
X13565000Y-9915000D01*
X13565000Y-9885000D02*
X13535000Y-9915000D01*
X13535000Y-9985000D02*
X13565000Y-10015000D01*
X13565000Y-9985000D02*
X13535000Y-10015000D01*
X13535000Y-10085000D02*
X13565000Y-10115000D01*
X13565000Y-10085000D02*
X13535000Y-10115000D01*
X13535000Y-10185000D02*
X13565000Y-10215000D01*
X13565000Y-10185000D02*
X13535000Y-10215000D01*
X13535000Y-10285000D02*
X13565000Y-10315000D01*
X13565000Y-10285000D02*
X13535000Y-10315000D01*
X13535000Y-10385000D02*
X13565000Y-10415000D01*
X13565000Y-10385000D02*
X13535000Y-10415000D01*
X13535000Y-10485000D02*
X13565000Y-10515000D01*
X13565000Y-10485000D02*
X13535000Y-10515000D01*
X13535000Y-10585000D02*
X13565000Y-10615000D01*
X13565000Y-10585000D02*
X13535000Y-10615000D01*
X13535000Y-10685000D02*
X13565000Y-10715000D01*
X13565000Y-10685000D02*
X13535000Y-10715000D01*
X13535000Y-10785000D02*
X13565000Y-10815000D01*
X13565000Y-10785000D02*
X13535000Y-10815000D01*
X13535000Y-10885000D02*
X13565000Y-10915000D01*
X13565000Y-10885000D02*
X13535000Y-10915000D01*
X13535000Y-10985000D02*
X13565000Y-11015000D01*
X13565000Y-10985000D02*
X13535000Y-11015000D01*
X13535000Y-11085000D02*
X13565000Y-11115000D01*
X13565000Y-11085000D02*
X13535000Y-11115000D01*
X13535000Y-11185000D02*
X13565000Y-11215000D01*
X13565000Y-11185000D02*
X13535000Y-11215000D01*
X13535000Y-11285000D02*
X13565000Y-11315000D01*
X13565000Y-11285000D02*
X13535000Y-11315000D01*
X13535000Y-11385000D02*
X13565000Y-11415000D01*
X13565000Y-11385000D02*
X13535000Y-11415000D01*
X13535000Y-11485000D02*
X13565000Y-11515000D01*
X13565000Y-11485000D02*
X13535000Y-11515000D01*
X13535000Y-11585000D02*
X13565000Y-11615000D01*
X13565000Y-11585000D02*
X13535000Y-11615000D01*
X13535000Y-11685000D02*
X13565000Y-11715000D01*
X13565000Y-11685000D02*
X13535000Y-11715000D01*
X13535000Y-11785000D02*
X13565000Y-11815000D01*
X13565000Y-11785000D02*
X13535000Y-11815000D01*
X13535000Y-11885000D02*
X13565000Y-11915000D01*
X13565000Y-11885000D02*
X13535000Y-11915000D01*
X13535000Y-11985000D02*
X13565000Y-12015000D01*
X13565000Y-11985000D02*
X13535000Y-12015000D01*
X13535000Y-12085000D02*
X13565000Y-12115000D01*
X13565000Y-12085000D02*
X13535000Y-12115000D01*
X13535000Y-12185000D02*
X13565000Y-12215000D01*
X13565000Y-12185000D02*
X13535000Y-12215000D01*
X13535000Y-12285000D02*
X13565000Y-12315000D01*
X13565000Y-12285000D02*
X13535000Y-12315000D01*
X13535000Y-12385000D02*
X13565000Y-12415000D01*
X13565000Y-12385000D02*
X13535000Y-12415000D01*
X13535000Y-12485000D02*
X13565000Y-12515000D01*
X13565000Y-12485000D02*
X13535000Y-12515000D01*
X13535000Y-12585000D02*
X13565000Y-12615000D01*
X13565000Y-12585000D02*
X13535000Y-12615000D01*
X13535000Y-12685000D02*
X13565000Y-12715000D01*
X13565000Y-12685000D02*
X13535000Y-12715000D01*
X13535000Y-12785000D02*
X13565000Y-12815000D01*
X13565000Y-12785000D02*
X13535000Y-12815000D01*
X13535000Y-12885000D02*
X13565000Y-12915000D01*
X13565000Y-12885000D02*
X13535000Y-12915000D01*
X13605000Y-9465000D02*
X13635000Y-9495000D01*
X13635000Y-9465000D02*
X13605000Y-9495000D01*
X13715000Y-9465000D02*
X13745000Y-9495000D01*
X13745000Y-9465000D02*
X13715000Y-9495000D01*
X13785000Y-9885000D02*
X13815000Y-9915000D01*
X13815000Y-9885000D02*
X13785000Y-9915000D01*
X13785000Y-9985000D02*
X13815000Y-10015000D01*
X13815000Y-9985000D02*
X13785000Y-10015000D01*
X13785000Y-10085000D02*
X13815000Y-10115000D01*
X13815000Y-10085000D02*
X13785000Y-10115000D01*
X13785000Y-10185000D02*
X13815000Y-10215000D01*
X13815000Y-10185000D02*
X13785000Y-10215000D01*
X13785000Y-10285000D02*
X13815000Y-10315000D01*
X13815000Y-10285000D02*
X13785000Y-10315000D01*
X13785000Y-10385000D02*
X13815000Y-10415000D01*
X13815000Y-10385000D02*
X13785000Y-10415000D01*
X13785000Y-10485000D02*
X13815000Y-10515000D01*
X13815000Y-10485000D02*
X13785000Y-10515000D01*
X13785000Y-10585000D02*
X13815000Y-10615000D01*
X13815000Y-10585000D02*
X13785000Y-10615000D01*
X13785000Y-10685000D02*
X13815000Y-10715000D01*
X13815000Y-10685000D02*
X13785000Y-10715000D01*
X13785000Y-10785000D02*
X13815000Y-10815000D01*
X13815000Y-10785000D02*
X13785000Y-10815000D01*
X13785000Y-10885000D02*
X13815000Y-10915000D01*
X13815000Y-10885000D02*
X13785000Y-10915000D01*
X13785000Y-10985000D02*
X13815000Y-11015000D01*
X13815000Y-10985000D02*
X13785000Y-11015000D01*
X13785000Y-11085000D02*
X13815000Y-11115000D01*
X13815000Y-11085000D02*
X13785000Y-11115000D01*
X13785000Y-11185000D02*
X13815000Y-11215000D01*
X13815000Y-11185000D02*
X13785000Y-11215000D01*
X13785000Y-11285000D02*
X13815000Y-11315000D01*
X13815000Y-11285000D02*
X13785000Y-11315000D01*
X13785000Y-11385000D02*
X13815000Y-11415000D01*
X13815000Y-11385000D02*
X13785000Y-11415000D01*
X13785000Y-11485000D02*
X13815000Y-11515000D01*
X13815000Y-11485000D02*
X13785000Y-11515000D01*
X13785000Y-11585000D02*
X13815000Y-11615000D01*
X13815000Y-11585000D02*
X13785000Y-11615000D01*
X13785000Y-11685000D02*
X13815000Y-11715000D01*
X13815000Y-11685000D02*
X13785000Y-11715000D01*
X13785000Y-11785000D02*
X13815000Y-11815000D01*
X13815000Y-11785000D02*
X13785000Y-11815000D01*
X13785000Y-11885000D02*
X13815000Y-11915000D01*
X13815000Y-11885000D02*
X13785000Y-11915000D01*
X13785000Y-11985000D02*
X13815000Y-12015000D01*
X13815000Y-11985000D02*
X13785000Y-12015000D01*
X13785000Y-12085000D02*
X13815000Y-12115000D01*
X13815000Y-12085000D02*
X13785000Y-12115000D01*
X13785000Y-12185000D02*
X13815000Y-12215000D01*
X13815000Y-12185000D02*
X13785000Y-12215000D01*
X13785000Y-12285000D02*
X13815000Y-12315000D01*
X13815000Y-12285000D02*
X13785000Y-12315000D01*
X13785000Y-12385000D02*
X13815000Y-12415000D01*
X13815000Y-12385000D02*
X13785000Y-12415000D01*
X13785000Y-12485000D02*
X13815000Y-12515000D01*
X13815000Y-12485000D02*
X13785000Y-12515000D01*
X13785000Y-12585000D02*
X13815000Y-12615000D01*
X13815000Y-12585000D02*
X13785000Y-12615000D01*
X13785000Y-12685000D02*
X13815000Y-12715000D01*
X13815000Y-12685000D02*
X13785000Y-12715000D01*
X13785000Y-12785000D02*
X13815000Y-12815000D01*
X13815000Y-12785000D02*
X13785000Y-12815000D01*
X13785000Y-12885000D02*
X13815000Y-12915000D01*
X13815000Y-12885000D02*
X13785000Y-12915000D01*
X13795000Y-9515000D02*
X13825000Y-9545000D01*
X13825000Y-9515000D02*
X13795000Y-9545000D01*
X13805000Y-9785000D02*
X13835000Y-9815000D01*
X13835000Y-9785000D02*
X13805000Y-9815000D01*
X13845000Y-9605000D02*
X13875000Y-9635000D01*
X13875000Y-9605000D02*
X13845000Y-9635000D01*
X13845000Y-9695000D02*
X13875000Y-9725000D01*
X13875000Y-9695000D02*
X13845000Y-9725000D01*
X13985000Y-6185000D02*
X14015000Y-6215000D01*
X14015000Y-6185000D02*
X13985000Y-6215000D01*
X13985000Y-7135000D02*
X14015000Y-7165000D01*
X14015000Y-7135000D02*
X13985000Y-7165000D01*
X14685000Y-6185000D02*
X14715000Y-6215000D01*
X14715000Y-6185000D02*
X14685000Y-6215000D01*
X14685000Y-6635000D02*
X14715000Y-6665000D01*
X14715000Y-6635000D02*
X14685000Y-6665000D01*
X14685000Y-7635000D02*
X14715000Y-7665000D01*
X14715000Y-7635000D02*
X14685000Y-7665000D01*
X14685000Y-11635000D02*
X14715000Y-11665000D01*
X14715000Y-11635000D02*
X14685000Y-11665000D01*
X14685000Y-12635000D02*
X14715000Y-12665000D01*
X14715000Y-12635000D02*
X14685000Y-12665000D01*
X15385000Y-6185000D02*
X15415000Y-6215000D01*
X15415000Y-6185000D02*
X15385000Y-6215000D01*
X15385000Y-7135000D02*
X15415000Y-7165000D01*
X15415000Y-7135000D02*
X15385000Y-7165000D01*
X15385000Y-8135000D02*
X15415000Y-8165000D01*
X15415000Y-8135000D02*
X15385000Y-8165000D01*
X15385000Y-9135000D02*
X15415000Y-9165000D01*
X15415000Y-9135000D02*
X15385000Y-9165000D01*
X15385000Y-10135000D02*
X15415000Y-10165000D01*
X15415000Y-10135000D02*
X15385000Y-10165000D01*
X15385000Y-11135000D02*
X15415000Y-11165000D01*
X15415000Y-11135000D02*
X15385000Y-11165000D01*
X15385000Y-12135000D02*
X15415000Y-12165000D01*
X15415000Y-12135000D02*
X15385000Y-12165000D01*
X15385000Y-12635000D02*
X15415000Y-12665000D01*
X15415000Y-12635000D02*
X15385000Y-12665000D01*
X16085000Y-6185000D02*
X16115000Y-6215000D01*
X16115000Y-6185000D02*
X16085000Y-6215000D01*
X16085000Y-6635000D02*
X16115000Y-6665000D01*
X16115000Y-6635000D02*
X16085000Y-6665000D01*
X16085000Y-7635000D02*
X16115000Y-7665000D01*
X16115000Y-7635000D02*
X16085000Y-7665000D01*
X16085000Y-8635000D02*
X16115000Y-8665000D01*
X16115000Y-8635000D02*
X16085000Y-8665000D01*
X16085000Y-9635000D02*
X16115000Y-9665000D01*
X16115000Y-9635000D02*
X16085000Y-9665000D01*
X16085000Y-10635000D02*
X16115000Y-10665000D01*
X16115000Y-10635000D02*
X16085000Y-10665000D01*
X16085000Y-11635000D02*
X16115000Y-11665000D01*
X16115000Y-11635000D02*
X16085000Y-11665000D01*
X16085000Y-12635000D02*
X16115000Y-12665000D01*
X16115000Y-12635000D02*
X16085000Y-12665000D01*
X16785000Y-6185000D02*
X16815000Y-6215000D01*
X16815000Y-6185000D02*
X16785000Y-6215000D01*
X16785000Y-6635000D02*
X16815000Y-6665000D01*
X16815000Y-6635000D02*
X16785000Y-6665000D01*
X16785000Y-7135000D02*
X16815000Y-7165000D01*
X16815000Y-7135000D02*
X16785000Y-7165000D01*
X16785000Y-7635000D02*
X16815000Y-7665000D01*
X16815000Y-7635000D02*
X16785000Y-7665000D01*
X16785000Y-8135000D02*
X16815000Y-8165000D01*
X16815000Y-8135000D02*
X16785000Y-8165000D01*
X16785000Y-8635000D02*
X16815000Y-8665000D01*
X16815000Y-8635000D02*
X16785000Y-8665000D01*
X16785000Y-9135000D02*
X16815000Y-9165000D01*
X16815000Y-9135000D02*
X16785000Y-9165000D01*
X16785000Y-9635000D02*
X16815000Y-9665000D01*
X16815000Y-9635000D02*
X16785000Y-9665000D01*
X16785000Y-10135000D02*
X16815000Y-10165000D01*
X16815000Y-10135000D02*
X16785000Y-10165000D01*
X16785000Y-10635000D02*
X16815000Y-10665000D01*
X16815000Y-10635000D02*
X16785000Y-10665000D01*
X16785000Y-11135000D02*
X16815000Y-11165000D01*
X16815000Y-11135000D02*
X16785000Y-11165000D01*
X16785000Y-11635000D02*
X16815000Y-11665000D01*
X16815000Y-11635000D02*
X16785000Y-11665000D01*
X16785000Y-12135000D02*
X16815000Y-12165000D01*
X16815000Y-12135000D02*
X16785000Y-12165000D01*
X16785000Y-12635000D02*
X16815000Y-12665000D01*
X16815000Y-12635000D02*
X16785000Y-12665000D01*
X13720720Y-9675000D02*
G75*
G02*
X13629280Y-9675000I-45720J0D01*
G01*
X13629280Y-9675000D02*
G75*
G02*
X13720720Y-9675000I45720J0D01*
G01*
D10*
X10250777Y-13321484D02*
X10250777Y-13121484D01*
X10250777Y-13121484D02*
X10298396Y-13121484D01*
X10298396Y-13121484D02*
X10326967Y-13131008D01*
X10326967Y-13131008D02*
X10346015Y-13150055D01*
X10346015Y-13150055D02*
X10355539Y-13169103D01*
X10355539Y-13169103D02*
X10365063Y-13207198D01*
X10365063Y-13207198D02*
X10365063Y-13235769D01*
X10365063Y-13235769D02*
X10355539Y-13273865D01*
X10355539Y-13273865D02*
X10346015Y-13292912D01*
X10346015Y-13292912D02*
X10326967Y-13311960D01*
X10326967Y-13311960D02*
X10298396Y-13321484D01*
X10298396Y-13321484D02*
X10250777Y-13321484D01*
X10450777Y-13321484D02*
X10450777Y-13188150D01*
X10450777Y-13226246D02*
X10460301Y-13207198D01*
X10460301Y-13207198D02*
X10469824Y-13197674D01*
X10469824Y-13197674D02*
X10488872Y-13188150D01*
X10488872Y-13188150D02*
X10507920Y-13188150D01*
X10574586Y-13321484D02*
X10574586Y-13188150D01*
X10574586Y-13121484D02*
X10565063Y-13131008D01*
X10565063Y-13131008D02*
X10574586Y-13140531D01*
X10574586Y-13140531D02*
X10584110Y-13131008D01*
X10584110Y-13131008D02*
X10574586Y-13121484D01*
X10574586Y-13121484D02*
X10574586Y-13140531D01*
X10698396Y-13321484D02*
X10679348Y-13311960D01*
X10679348Y-13311960D02*
X10669824Y-13292912D01*
X10669824Y-13292912D02*
X10669824Y-13121484D01*
X10803158Y-13321484D02*
X10784110Y-13311960D01*
X10784110Y-13311960D02*
X10774586Y-13292912D01*
X10774586Y-13292912D02*
X10774586Y-13121484D01*
X11031729Y-13321484D02*
X11031729Y-13121484D01*
X11031729Y-13121484D02*
X11098396Y-13264341D01*
X11098396Y-13264341D02*
X11165063Y-13121484D01*
X11165063Y-13121484D02*
X11165063Y-13321484D01*
X11346015Y-13321484D02*
X11346015Y-13216722D01*
X11346015Y-13216722D02*
X11336491Y-13197674D01*
X11336491Y-13197674D02*
X11317443Y-13188150D01*
X11317443Y-13188150D02*
X11279348Y-13188150D01*
X11279348Y-13188150D02*
X11260301Y-13197674D01*
X11346015Y-13311960D02*
X11326967Y-13321484D01*
X11326967Y-13321484D02*
X11279348Y-13321484D01*
X11279348Y-13321484D02*
X11260301Y-13311960D01*
X11260301Y-13311960D02*
X11250777Y-13292912D01*
X11250777Y-13292912D02*
X11250777Y-13273865D01*
X11250777Y-13273865D02*
X11260301Y-13254817D01*
X11260301Y-13254817D02*
X11279348Y-13245293D01*
X11279348Y-13245293D02*
X11326967Y-13245293D01*
X11326967Y-13245293D02*
X11346015Y-13235769D01*
X11441253Y-13188150D02*
X11441253Y-13388150D01*
X11441253Y-13197674D02*
X11460301Y-13188150D01*
X11460301Y-13188150D02*
X11498396Y-13188150D01*
X11498396Y-13188150D02*
X11517443Y-13197674D01*
X11517443Y-13197674D02*
X11526967Y-13207198D01*
X11526967Y-13207198D02*
X11536491Y-13226246D01*
X11536491Y-13226246D02*
X11536491Y-13283388D01*
X11536491Y-13283388D02*
X11526967Y-13302436D01*
X11526967Y-13302436D02*
X11517443Y-13311960D01*
X11517443Y-13311960D02*
X11498396Y-13321484D01*
X11498396Y-13321484D02*
X11460301Y-13321484D01*
X11460301Y-13321484D02*
X11441253Y-13311960D01*
X11622205Y-13302436D02*
X11631729Y-13311960D01*
X11631729Y-13311960D02*
X11622205Y-13321484D01*
X11622205Y-13321484D02*
X11612682Y-13311960D01*
X11612682Y-13311960D02*
X11622205Y-13302436D01*
X11622205Y-13302436D02*
X11622205Y-13321484D01*
X11622205Y-13197674D02*
X11631729Y-13207198D01*
X11631729Y-13207198D02*
X11622205Y-13216722D01*
X11622205Y-13216722D02*
X11612682Y-13207198D01*
X11612682Y-13207198D02*
X11622205Y-13197674D01*
X11622205Y-13197674D02*
X11622205Y-13216722D01*
D11*
X9960000Y-13635000D02*
X9990000Y-13665000D01*
X9990000Y-13635000D02*
X9960000Y-13665000D01*
D10*
X10288872Y-13541484D02*
X10307920Y-13541484D01*
X10307920Y-13541484D02*
X10326967Y-13551008D01*
X10326967Y-13551008D02*
X10336491Y-13560531D01*
X10336491Y-13560531D02*
X10346015Y-13579579D01*
X10346015Y-13579579D02*
X10355539Y-13617674D01*
X10355539Y-13617674D02*
X10355539Y-13665293D01*
X10355539Y-13665293D02*
X10346015Y-13703388D01*
X10346015Y-13703388D02*
X10336491Y-13722436D01*
X10336491Y-13722436D02*
X10326967Y-13731960D01*
X10326967Y-13731960D02*
X10307920Y-13741484D01*
X10307920Y-13741484D02*
X10288872Y-13741484D01*
X10288872Y-13741484D02*
X10269824Y-13731960D01*
X10269824Y-13731960D02*
X10260301Y-13722436D01*
X10260301Y-13722436D02*
X10250777Y-13703388D01*
X10250777Y-13703388D02*
X10241253Y-13665293D01*
X10241253Y-13665293D02*
X10241253Y-13617674D01*
X10241253Y-13617674D02*
X10250777Y-13579579D01*
X10250777Y-13579579D02*
X10260301Y-13560531D01*
X10260301Y-13560531D02*
X10269824Y-13551008D01*
X10269824Y-13551008D02*
X10288872Y-13541484D01*
X10441253Y-13722436D02*
X10450777Y-13731960D01*
X10450777Y-13731960D02*
X10441253Y-13741484D01*
X10441253Y-13741484D02*
X10431729Y-13731960D01*
X10431729Y-13731960D02*
X10441253Y-13722436D01*
X10441253Y-13722436D02*
X10441253Y-13741484D01*
X10517444Y-13541484D02*
X10641253Y-13541484D01*
X10641253Y-13541484D02*
X10574586Y-13617674D01*
X10574586Y-13617674D02*
X10603158Y-13617674D01*
X10603158Y-13617674D02*
X10622205Y-13627198D01*
X10622205Y-13627198D02*
X10631729Y-13636722D01*
X10631729Y-13636722D02*
X10641253Y-13655769D01*
X10641253Y-13655769D02*
X10641253Y-13703388D01*
X10641253Y-13703388D02*
X10631729Y-13722436D01*
X10631729Y-13722436D02*
X10622205Y-13731960D01*
X10622205Y-13731960D02*
X10603158Y-13741484D01*
X10603158Y-13741484D02*
X10546015Y-13741484D01*
X10546015Y-13741484D02*
X10526967Y-13731960D01*
X10526967Y-13731960D02*
X10517444Y-13722436D01*
X10765063Y-13541484D02*
X10784110Y-13541484D01*
X10784110Y-13541484D02*
X10803158Y-13551008D01*
X10803158Y-13551008D02*
X10812682Y-13560531D01*
X10812682Y-13560531D02*
X10822205Y-13579579D01*
X10822205Y-13579579D02*
X10831729Y-13617674D01*
X10831729Y-13617674D02*
X10831729Y-13665293D01*
X10831729Y-13665293D02*
X10822205Y-13703388D01*
X10822205Y-13703388D02*
X10812682Y-13722436D01*
X10812682Y-13722436D02*
X10803158Y-13731960D01*
X10803158Y-13731960D02*
X10784110Y-13741484D01*
X10784110Y-13741484D02*
X10765063Y-13741484D01*
X10765063Y-13741484D02*
X10746015Y-13731960D01*
X10746015Y-13731960D02*
X10736491Y-13722436D01*
X10736491Y-13722436D02*
X10726967Y-13703388D01*
X10726967Y-13703388D02*
X10717444Y-13665293D01*
X10717444Y-13665293D02*
X10717444Y-13617674D01*
X10717444Y-13617674D02*
X10726967Y-13579579D01*
X10726967Y-13579579D02*
X10736491Y-13560531D01*
X10736491Y-13560531D02*
X10746015Y-13551008D01*
X10746015Y-13551008D02*
X10765063Y-13541484D01*
X10955539Y-13541484D02*
X10974586Y-13541484D01*
X10974586Y-13541484D02*
X10993634Y-13551008D01*
X10993634Y-13551008D02*
X11003158Y-13560531D01*
X11003158Y-13560531D02*
X11012682Y-13579579D01*
X11012682Y-13579579D02*
X11022205Y-13617674D01*
X11022205Y-13617674D02*
X11022205Y-13665293D01*
X11022205Y-13665293D02*
X11012682Y-13703388D01*
X11012682Y-13703388D02*
X11003158Y-13722436D01*
X11003158Y-13722436D02*
X10993634Y-13731960D01*
X10993634Y-13731960D02*
X10974586Y-13741484D01*
X10974586Y-13741484D02*
X10955539Y-13741484D01*
X10955539Y-13741484D02*
X10936491Y-13731960D01*
X10936491Y-13731960D02*
X10926967Y-13722436D01*
X10926967Y-13722436D02*
X10917444Y-13703388D01*
X10917444Y-13703388D02*
X10907920Y-13665293D01*
X10907920Y-13665293D02*
X10907920Y-13617674D01*
X10907920Y-13617674D02*
X10917444Y-13579579D01*
X10917444Y-13579579D02*
X10926967Y-13560531D01*
X10926967Y-13560531D02*
X10936491Y-13551008D01*
X10936491Y-13551008D02*
X10955539Y-13541484D01*
X11107920Y-13741484D02*
X11107920Y-13608150D01*
X11107920Y-13627198D02*
X11117444Y-13617674D01*
X11117444Y-13617674D02*
X11136491Y-13608150D01*
X11136491Y-13608150D02*
X11165063Y-13608150D01*
X11165063Y-13608150D02*
X11184110Y-13617674D01*
X11184110Y-13617674D02*
X11193634Y-13636722D01*
X11193634Y-13636722D02*
X11193634Y-13741484D01*
X11193634Y-13636722D02*
X11203158Y-13617674D01*
X11203158Y-13617674D02*
X11222205Y-13608150D01*
X11222205Y-13608150D02*
X11250777Y-13608150D01*
X11250777Y-13608150D02*
X11269824Y-13617674D01*
X11269824Y-13617674D02*
X11279348Y-13636722D01*
X11279348Y-13636722D02*
X11279348Y-13741484D01*
X11374586Y-13741484D02*
X11374586Y-13608150D01*
X11374586Y-13627198D02*
X11384110Y-13617674D01*
X11384110Y-13617674D02*
X11403158Y-13608150D01*
X11403158Y-13608150D02*
X11431729Y-13608150D01*
X11431729Y-13608150D02*
X11450777Y-13617674D01*
X11450777Y-13617674D02*
X11460301Y-13636722D01*
X11460301Y-13636722D02*
X11460301Y-13741484D01*
X11460301Y-13636722D02*
X11469824Y-13617674D01*
X11469824Y-13617674D02*
X11488872Y-13608150D01*
X11488872Y-13608150D02*
X11517443Y-13608150D01*
X11517443Y-13608150D02*
X11536491Y-13617674D01*
X11536491Y-13617674D02*
X11546015Y-13636722D01*
X11546015Y-13636722D02*
X11546015Y-13741484D01*
X11936491Y-13531960D02*
X11765063Y-13789103D01*
X12193634Y-13541484D02*
X12212682Y-13541484D01*
X12212682Y-13541484D02*
X12231729Y-13551008D01*
X12231729Y-13551008D02*
X12241253Y-13560531D01*
X12241253Y-13560531D02*
X12250777Y-13579579D01*
X12250777Y-13579579D02*
X12260301Y-13617674D01*
X12260301Y-13617674D02*
X12260301Y-13665293D01*
X12260301Y-13665293D02*
X12250777Y-13703388D01*
X12250777Y-13703388D02*
X12241253Y-13722436D01*
X12241253Y-13722436D02*
X12231729Y-13731960D01*
X12231729Y-13731960D02*
X12212682Y-13741484D01*
X12212682Y-13741484D02*
X12193634Y-13741484D01*
X12193634Y-13741484D02*
X12174586Y-13731960D01*
X12174586Y-13731960D02*
X12165063Y-13722436D01*
X12165063Y-13722436D02*
X12155539Y-13703388D01*
X12155539Y-13703388D02*
X12146015Y-13665293D01*
X12146015Y-13665293D02*
X12146015Y-13617674D01*
X12146015Y-13617674D02*
X12155539Y-13579579D01*
X12155539Y-13579579D02*
X12165063Y-13560531D01*
X12165063Y-13560531D02*
X12174586Y-13551008D01*
X12174586Y-13551008D02*
X12193634Y-13541484D01*
X12346015Y-13722436D02*
X12355539Y-13731960D01*
X12355539Y-13731960D02*
X12346015Y-13741484D01*
X12346015Y-13741484D02*
X12336491Y-13731960D01*
X12336491Y-13731960D02*
X12346015Y-13722436D01*
X12346015Y-13722436D02*
X12346015Y-13741484D01*
X12479348Y-13541484D02*
X12498396Y-13541484D01*
X12498396Y-13541484D02*
X12517444Y-13551008D01*
X12517444Y-13551008D02*
X12526967Y-13560531D01*
X12526967Y-13560531D02*
X12536491Y-13579579D01*
X12536491Y-13579579D02*
X12546015Y-13617674D01*
X12546015Y-13617674D02*
X12546015Y-13665293D01*
X12546015Y-13665293D02*
X12536491Y-13703388D01*
X12536491Y-13703388D02*
X12526967Y-13722436D01*
X12526967Y-13722436D02*
X12517444Y-13731960D01*
X12517444Y-13731960D02*
X12498396Y-13741484D01*
X12498396Y-13741484D02*
X12479348Y-13741484D01*
X12479348Y-13741484D02*
X12460301Y-13731960D01*
X12460301Y-13731960D02*
X12450777Y-13722436D01*
X12450777Y-13722436D02*
X12441253Y-13703388D01*
X12441253Y-13703388D02*
X12431729Y-13665293D01*
X12431729Y-13665293D02*
X12431729Y-13617674D01*
X12431729Y-13617674D02*
X12441253Y-13579579D01*
X12441253Y-13579579D02*
X12450777Y-13560531D01*
X12450777Y-13560531D02*
X12460301Y-13551008D01*
X12460301Y-13551008D02*
X12479348Y-13541484D01*
X12736491Y-13741484D02*
X12622206Y-13741484D01*
X12679348Y-13741484D02*
X12679348Y-13541484D01*
X12679348Y-13541484D02*
X12660301Y-13570055D01*
X12660301Y-13570055D02*
X12641253Y-13589103D01*
X12641253Y-13589103D02*
X12622206Y-13598627D01*
X12926967Y-13741484D02*
X12812682Y-13741484D01*
X12869825Y-13741484D02*
X12869825Y-13541484D01*
X12869825Y-13541484D02*
X12850777Y-13570055D01*
X12850777Y-13570055D02*
X12831729Y-13589103D01*
X12831729Y-13589103D02*
X12812682Y-13598627D01*
X13041253Y-13627198D02*
X13022206Y-13617674D01*
X13022206Y-13617674D02*
X13012682Y-13608150D01*
X13012682Y-13608150D02*
X13003158Y-13589103D01*
X13003158Y-13589103D02*
X13003158Y-13579579D01*
X13003158Y-13579579D02*
X13012682Y-13560531D01*
X13012682Y-13560531D02*
X13022206Y-13551008D01*
X13022206Y-13551008D02*
X13041253Y-13541484D01*
X13041253Y-13541484D02*
X13079348Y-13541484D01*
X13079348Y-13541484D02*
X13098396Y-13551008D01*
X13098396Y-13551008D02*
X13107920Y-13560531D01*
X13107920Y-13560531D02*
X13117444Y-13579579D01*
X13117444Y-13579579D02*
X13117444Y-13589103D01*
X13117444Y-13589103D02*
X13107920Y-13608150D01*
X13107920Y-13608150D02*
X13098396Y-13617674D01*
X13098396Y-13617674D02*
X13079348Y-13627198D01*
X13079348Y-13627198D02*
X13041253Y-13627198D01*
X13041253Y-13627198D02*
X13022206Y-13636722D01*
X13022206Y-13636722D02*
X13012682Y-13646246D01*
X13012682Y-13646246D02*
X13003158Y-13665293D01*
X13003158Y-13665293D02*
X13003158Y-13703388D01*
X13003158Y-13703388D02*
X13012682Y-13722436D01*
X13012682Y-13722436D02*
X13022206Y-13731960D01*
X13022206Y-13731960D02*
X13041253Y-13741484D01*
X13041253Y-13741484D02*
X13079348Y-13741484D01*
X13079348Y-13741484D02*
X13098396Y-13731960D01*
X13098396Y-13731960D02*
X13107920Y-13722436D01*
X13107920Y-13722436D02*
X13117444Y-13703388D01*
X13117444Y-13703388D02*
X13117444Y-13665293D01*
X13117444Y-13665293D02*
X13107920Y-13646246D01*
X13107920Y-13646246D02*
X13098396Y-13636722D01*
X13098396Y-13636722D02*
X13079348Y-13627198D01*
X13193634Y-13541484D02*
X13193634Y-13579579D01*
X13269825Y-13541484D02*
X13269825Y-13579579D01*
X13565063Y-13817674D02*
X13555539Y-13808150D01*
X13555539Y-13808150D02*
X13536491Y-13779579D01*
X13536491Y-13779579D02*
X13526968Y-13760531D01*
X13526968Y-13760531D02*
X13517444Y-13731960D01*
X13517444Y-13731960D02*
X13507920Y-13684341D01*
X13507920Y-13684341D02*
X13507920Y-13646246D01*
X13507920Y-13646246D02*
X13517444Y-13598627D01*
X13517444Y-13598627D02*
X13526968Y-13570055D01*
X13526968Y-13570055D02*
X13536491Y-13551008D01*
X13536491Y-13551008D02*
X13555539Y-13522436D01*
X13555539Y-13522436D02*
X13565063Y-13512912D01*
X13746015Y-13741484D02*
X13631729Y-13741484D01*
X13688872Y-13741484D02*
X13688872Y-13541484D01*
X13688872Y-13541484D02*
X13669825Y-13570055D01*
X13669825Y-13570055D02*
X13650777Y-13589103D01*
X13650777Y-13589103D02*
X13631729Y-13598627D01*
X13917444Y-13608150D02*
X13917444Y-13741484D01*
X13869825Y-13531960D02*
X13822206Y-13674817D01*
X13822206Y-13674817D02*
X13946015Y-13674817D01*
X14031729Y-13741484D02*
X14069825Y-13741484D01*
X14069825Y-13741484D02*
X14088872Y-13731960D01*
X14088872Y-13731960D02*
X14098396Y-13722436D01*
X14098396Y-13722436D02*
X14117444Y-13693865D01*
X14117444Y-13693865D02*
X14126968Y-13655769D01*
X14126968Y-13655769D02*
X14126968Y-13579579D01*
X14126968Y-13579579D02*
X14117444Y-13560531D01*
X14117444Y-13560531D02*
X14107920Y-13551008D01*
X14107920Y-13551008D02*
X14088872Y-13541484D01*
X14088872Y-13541484D02*
X14050777Y-13541484D01*
X14050777Y-13541484D02*
X14031729Y-13551008D01*
X14031729Y-13551008D02*
X14022206Y-13560531D01*
X14022206Y-13560531D02*
X14012682Y-13579579D01*
X14012682Y-13579579D02*
X14012682Y-13627198D01*
X14012682Y-13627198D02*
X14022206Y-13646246D01*
X14022206Y-13646246D02*
X14031729Y-13655769D01*
X14031729Y-13655769D02*
X14050777Y-13665293D01*
X14050777Y-13665293D02*
X14088872Y-13665293D01*
X14088872Y-13665293D02*
X14107920Y-13655769D01*
X14107920Y-13655769D02*
X14117444Y-13646246D01*
X14117444Y-13646246D02*
X14126968Y-13627198D01*
X14365063Y-13741484D02*
X14365063Y-13541484D01*
X14450777Y-13741484D02*
X14450777Y-13636722D01*
X14450777Y-13636722D02*
X14441253Y-13617674D01*
X14441253Y-13617674D02*
X14422206Y-13608150D01*
X14422206Y-13608150D02*
X14393634Y-13608150D01*
X14393634Y-13608150D02*
X14374587Y-13617674D01*
X14374587Y-13617674D02*
X14365063Y-13627198D01*
X14574587Y-13741484D02*
X14555539Y-13731960D01*
X14555539Y-13731960D02*
X14546015Y-13722436D01*
X14546015Y-13722436D02*
X14536491Y-13703388D01*
X14536491Y-13703388D02*
X14536491Y-13646246D01*
X14536491Y-13646246D02*
X14546015Y-13627198D01*
X14546015Y-13627198D02*
X14555539Y-13617674D01*
X14555539Y-13617674D02*
X14574587Y-13608150D01*
X14574587Y-13608150D02*
X14603158Y-13608150D01*
X14603158Y-13608150D02*
X14622206Y-13617674D01*
X14622206Y-13617674D02*
X14631730Y-13627198D01*
X14631730Y-13627198D02*
X14641253Y-13646246D01*
X14641253Y-13646246D02*
X14641253Y-13703388D01*
X14641253Y-13703388D02*
X14631730Y-13722436D01*
X14631730Y-13722436D02*
X14622206Y-13731960D01*
X14622206Y-13731960D02*
X14603158Y-13741484D01*
X14603158Y-13741484D02*
X14574587Y-13741484D01*
X14755539Y-13741484D02*
X14736491Y-13731960D01*
X14736491Y-13731960D02*
X14726968Y-13712912D01*
X14726968Y-13712912D02*
X14726968Y-13541484D01*
X14907920Y-13731960D02*
X14888872Y-13741484D01*
X14888872Y-13741484D02*
X14850777Y-13741484D01*
X14850777Y-13741484D02*
X14831730Y-13731960D01*
X14831730Y-13731960D02*
X14822206Y-13712912D01*
X14822206Y-13712912D02*
X14822206Y-13636722D01*
X14822206Y-13636722D02*
X14831730Y-13617674D01*
X14831730Y-13617674D02*
X14850777Y-13608150D01*
X14850777Y-13608150D02*
X14888872Y-13608150D01*
X14888872Y-13608150D02*
X14907920Y-13617674D01*
X14907920Y-13617674D02*
X14917444Y-13636722D01*
X14917444Y-13636722D02*
X14917444Y-13655769D01*
X14917444Y-13655769D02*
X14822206Y-13674817D01*
X14993634Y-13731960D02*
X15012682Y-13741484D01*
X15012682Y-13741484D02*
X15050777Y-13741484D01*
X15050777Y-13741484D02*
X15069825Y-13731960D01*
X15069825Y-13731960D02*
X15079349Y-13712912D01*
X15079349Y-13712912D02*
X15079349Y-13703388D01*
X15079349Y-13703388D02*
X15069825Y-13684341D01*
X15069825Y-13684341D02*
X15050777Y-13674817D01*
X15050777Y-13674817D02*
X15022206Y-13674817D01*
X15022206Y-13674817D02*
X15003158Y-13665293D01*
X15003158Y-13665293D02*
X14993634Y-13646246D01*
X14993634Y-13646246D02*
X14993634Y-13636722D01*
X14993634Y-13636722D02*
X15003158Y-13617674D01*
X15003158Y-13617674D02*
X15022206Y-13608150D01*
X15022206Y-13608150D02*
X15050777Y-13608150D01*
X15050777Y-13608150D02*
X15069825Y-13617674D01*
X15146015Y-13817674D02*
X15155539Y-13808150D01*
X15155539Y-13808150D02*
X15174587Y-13779579D01*
X15174587Y-13779579D02*
X15184111Y-13760531D01*
X15184111Y-13760531D02*
X15193634Y-13731960D01*
X15193634Y-13731960D02*
X15203158Y-13684341D01*
X15203158Y-13684341D02*
X15203158Y-13646246D01*
X15203158Y-13646246D02*
X15193634Y-13598627D01*
X15193634Y-13598627D02*
X15184111Y-13570055D01*
X15184111Y-13570055D02*
X15174587Y-13551008D01*
X15174587Y-13551008D02*
X15155539Y-13522436D01*
X15155539Y-13522436D02*
X15146015Y-13512912D01*
D11*
X9990000Y-13914000D02*
G75*
G02*
X9898560Y-13914000I-45720J0D01*
G01*
X9898560Y-13914000D02*
G75*
G02*
X9990000Y-13914000I45720J0D01*
G01*
D10*
X10288872Y-13805484D02*
X10307920Y-13805484D01*
X10307920Y-13805484D02*
X10326967Y-13815008D01*
X10326967Y-13815008D02*
X10336491Y-13824531D01*
X10336491Y-13824531D02*
X10346015Y-13843579D01*
X10346015Y-13843579D02*
X10355539Y-13881674D01*
X10355539Y-13881674D02*
X10355539Y-13929293D01*
X10355539Y-13929293D02*
X10346015Y-13967388D01*
X10346015Y-13967388D02*
X10336491Y-13986436D01*
X10336491Y-13986436D02*
X10326967Y-13995960D01*
X10326967Y-13995960D02*
X10307920Y-14005484D01*
X10307920Y-14005484D02*
X10288872Y-14005484D01*
X10288872Y-14005484D02*
X10269824Y-13995960D01*
X10269824Y-13995960D02*
X10260301Y-13986436D01*
X10260301Y-13986436D02*
X10250777Y-13967388D01*
X10250777Y-13967388D02*
X10241253Y-13929293D01*
X10241253Y-13929293D02*
X10241253Y-13881674D01*
X10241253Y-13881674D02*
X10250777Y-13843579D01*
X10250777Y-13843579D02*
X10260301Y-13824531D01*
X10260301Y-13824531D02*
X10269824Y-13815008D01*
X10269824Y-13815008D02*
X10288872Y-13805484D01*
X10441253Y-13986436D02*
X10450777Y-13995960D01*
X10450777Y-13995960D02*
X10441253Y-14005484D01*
X10441253Y-14005484D02*
X10431729Y-13995960D01*
X10431729Y-13995960D02*
X10441253Y-13986436D01*
X10441253Y-13986436D02*
X10441253Y-14005484D01*
X10546015Y-14005484D02*
X10584110Y-14005484D01*
X10584110Y-14005484D02*
X10603158Y-13995960D01*
X10603158Y-13995960D02*
X10612682Y-13986436D01*
X10612682Y-13986436D02*
X10631729Y-13957865D01*
X10631729Y-13957865D02*
X10641253Y-13919769D01*
X10641253Y-13919769D02*
X10641253Y-13843579D01*
X10641253Y-13843579D02*
X10631729Y-13824531D01*
X10631729Y-13824531D02*
X10622205Y-13815008D01*
X10622205Y-13815008D02*
X10603158Y-13805484D01*
X10603158Y-13805484D02*
X10565063Y-13805484D01*
X10565063Y-13805484D02*
X10546015Y-13815008D01*
X10546015Y-13815008D02*
X10536491Y-13824531D01*
X10536491Y-13824531D02*
X10526967Y-13843579D01*
X10526967Y-13843579D02*
X10526967Y-13891198D01*
X10526967Y-13891198D02*
X10536491Y-13910246D01*
X10536491Y-13910246D02*
X10546015Y-13919769D01*
X10546015Y-13919769D02*
X10565063Y-13929293D01*
X10565063Y-13929293D02*
X10603158Y-13929293D01*
X10603158Y-13929293D02*
X10622205Y-13919769D01*
X10622205Y-13919769D02*
X10631729Y-13910246D01*
X10631729Y-13910246D02*
X10641253Y-13891198D01*
X10831729Y-14005484D02*
X10717444Y-14005484D01*
X10774586Y-14005484D02*
X10774586Y-13805484D01*
X10774586Y-13805484D02*
X10755539Y-13834055D01*
X10755539Y-13834055D02*
X10736491Y-13853103D01*
X10736491Y-13853103D02*
X10717444Y-13862627D01*
X11003158Y-13872150D02*
X11003158Y-14005484D01*
X10955539Y-13795960D02*
X10907920Y-13938817D01*
X10907920Y-13938817D02*
X11031729Y-13938817D01*
X11107920Y-14005484D02*
X11107920Y-13872150D01*
X11107920Y-13891198D02*
X11117444Y-13881674D01*
X11117444Y-13881674D02*
X11136491Y-13872150D01*
X11136491Y-13872150D02*
X11165063Y-13872150D01*
X11165063Y-13872150D02*
X11184110Y-13881674D01*
X11184110Y-13881674D02*
X11193634Y-13900722D01*
X11193634Y-13900722D02*
X11193634Y-14005484D01*
X11193634Y-13900722D02*
X11203158Y-13881674D01*
X11203158Y-13881674D02*
X11222205Y-13872150D01*
X11222205Y-13872150D02*
X11250777Y-13872150D01*
X11250777Y-13872150D02*
X11269824Y-13881674D01*
X11269824Y-13881674D02*
X11279348Y-13900722D01*
X11279348Y-13900722D02*
X11279348Y-14005484D01*
X11374586Y-14005484D02*
X11374586Y-13872150D01*
X11374586Y-13891198D02*
X11384110Y-13881674D01*
X11384110Y-13881674D02*
X11403158Y-13872150D01*
X11403158Y-13872150D02*
X11431729Y-13872150D01*
X11431729Y-13872150D02*
X11450777Y-13881674D01*
X11450777Y-13881674D02*
X11460301Y-13900722D01*
X11460301Y-13900722D02*
X11460301Y-14005484D01*
X11460301Y-13900722D02*
X11469824Y-13881674D01*
X11469824Y-13881674D02*
X11488872Y-13872150D01*
X11488872Y-13872150D02*
X11517443Y-13872150D01*
X11517443Y-13872150D02*
X11536491Y-13881674D01*
X11536491Y-13881674D02*
X11546015Y-13900722D01*
X11546015Y-13900722D02*
X11546015Y-14005484D01*
X11936491Y-13795960D02*
X11765063Y-14053103D01*
X12193634Y-13805484D02*
X12212682Y-13805484D01*
X12212682Y-13805484D02*
X12231729Y-13815008D01*
X12231729Y-13815008D02*
X12241253Y-13824531D01*
X12241253Y-13824531D02*
X12250777Y-13843579D01*
X12250777Y-13843579D02*
X12260301Y-13881674D01*
X12260301Y-13881674D02*
X12260301Y-13929293D01*
X12260301Y-13929293D02*
X12250777Y-13967388D01*
X12250777Y-13967388D02*
X12241253Y-13986436D01*
X12241253Y-13986436D02*
X12231729Y-13995960D01*
X12231729Y-13995960D02*
X12212682Y-14005484D01*
X12212682Y-14005484D02*
X12193634Y-14005484D01*
X12193634Y-14005484D02*
X12174586Y-13995960D01*
X12174586Y-13995960D02*
X12165063Y-13986436D01*
X12165063Y-13986436D02*
X12155539Y-13967388D01*
X12155539Y-13967388D02*
X12146015Y-13929293D01*
X12146015Y-13929293D02*
X12146015Y-13881674D01*
X12146015Y-13881674D02*
X12155539Y-13843579D01*
X12155539Y-13843579D02*
X12165063Y-13824531D01*
X12165063Y-13824531D02*
X12174586Y-13815008D01*
X12174586Y-13815008D02*
X12193634Y-13805484D01*
X12346015Y-13986436D02*
X12355539Y-13995960D01*
X12355539Y-13995960D02*
X12346015Y-14005484D01*
X12346015Y-14005484D02*
X12336491Y-13995960D01*
X12336491Y-13995960D02*
X12346015Y-13986436D01*
X12346015Y-13986436D02*
X12346015Y-14005484D01*
X12479348Y-13805484D02*
X12498396Y-13805484D01*
X12498396Y-13805484D02*
X12517444Y-13815008D01*
X12517444Y-13815008D02*
X12526967Y-13824531D01*
X12526967Y-13824531D02*
X12536491Y-13843579D01*
X12536491Y-13843579D02*
X12546015Y-13881674D01*
X12546015Y-13881674D02*
X12546015Y-13929293D01*
X12546015Y-13929293D02*
X12536491Y-13967388D01*
X12536491Y-13967388D02*
X12526967Y-13986436D01*
X12526967Y-13986436D02*
X12517444Y-13995960D01*
X12517444Y-13995960D02*
X12498396Y-14005484D01*
X12498396Y-14005484D02*
X12479348Y-14005484D01*
X12479348Y-14005484D02*
X12460301Y-13995960D01*
X12460301Y-13995960D02*
X12450777Y-13986436D01*
X12450777Y-13986436D02*
X12441253Y-13967388D01*
X12441253Y-13967388D02*
X12431729Y-13929293D01*
X12431729Y-13929293D02*
X12431729Y-13881674D01*
X12431729Y-13881674D02*
X12441253Y-13843579D01*
X12441253Y-13843579D02*
X12450777Y-13824531D01*
X12450777Y-13824531D02*
X12460301Y-13815008D01*
X12460301Y-13815008D02*
X12479348Y-13805484D01*
X12612682Y-13805484D02*
X12736491Y-13805484D01*
X12736491Y-13805484D02*
X12669825Y-13881674D01*
X12669825Y-13881674D02*
X12698396Y-13881674D01*
X12698396Y-13881674D02*
X12717444Y-13891198D01*
X12717444Y-13891198D02*
X12726967Y-13900722D01*
X12726967Y-13900722D02*
X12736491Y-13919769D01*
X12736491Y-13919769D02*
X12736491Y-13967388D01*
X12736491Y-13967388D02*
X12726967Y-13986436D01*
X12726967Y-13986436D02*
X12717444Y-13995960D01*
X12717444Y-13995960D02*
X12698396Y-14005484D01*
X12698396Y-14005484D02*
X12641253Y-14005484D01*
X12641253Y-14005484D02*
X12622206Y-13995960D01*
X12622206Y-13995960D02*
X12612682Y-13986436D01*
X12907920Y-13805484D02*
X12869825Y-13805484D01*
X12869825Y-13805484D02*
X12850777Y-13815008D01*
X12850777Y-13815008D02*
X12841253Y-13824531D01*
X12841253Y-13824531D02*
X12822206Y-13853103D01*
X12822206Y-13853103D02*
X12812682Y-13891198D01*
X12812682Y-13891198D02*
X12812682Y-13967388D01*
X12812682Y-13967388D02*
X12822206Y-13986436D01*
X12822206Y-13986436D02*
X12831729Y-13995960D01*
X12831729Y-13995960D02*
X12850777Y-14005484D01*
X12850777Y-14005484D02*
X12888872Y-14005484D01*
X12888872Y-14005484D02*
X12907920Y-13995960D01*
X12907920Y-13995960D02*
X12917444Y-13986436D01*
X12917444Y-13986436D02*
X12926967Y-13967388D01*
X12926967Y-13967388D02*
X12926967Y-13919769D01*
X12926967Y-13919769D02*
X12917444Y-13900722D01*
X12917444Y-13900722D02*
X12907920Y-13891198D01*
X12907920Y-13891198D02*
X12888872Y-13881674D01*
X12888872Y-13881674D02*
X12850777Y-13881674D01*
X12850777Y-13881674D02*
X12831729Y-13891198D01*
X12831729Y-13891198D02*
X12822206Y-13900722D01*
X12822206Y-13900722D02*
X12812682Y-13919769D01*
X13050777Y-13805484D02*
X13069825Y-13805484D01*
X13069825Y-13805484D02*
X13088872Y-13815008D01*
X13088872Y-13815008D02*
X13098396Y-13824531D01*
X13098396Y-13824531D02*
X13107920Y-13843579D01*
X13107920Y-13843579D02*
X13117444Y-13881674D01*
X13117444Y-13881674D02*
X13117444Y-13929293D01*
X13117444Y-13929293D02*
X13107920Y-13967388D01*
X13107920Y-13967388D02*
X13098396Y-13986436D01*
X13098396Y-13986436D02*
X13088872Y-13995960D01*
X13088872Y-13995960D02*
X13069825Y-14005484D01*
X13069825Y-14005484D02*
X13050777Y-14005484D01*
X13050777Y-14005484D02*
X13031729Y-13995960D01*
X13031729Y-13995960D02*
X13022206Y-13986436D01*
X13022206Y-13986436D02*
X13012682Y-13967388D01*
X13012682Y-13967388D02*
X13003158Y-13929293D01*
X13003158Y-13929293D02*
X13003158Y-13881674D01*
X13003158Y-13881674D02*
X13012682Y-13843579D01*
X13012682Y-13843579D02*
X13022206Y-13824531D01*
X13022206Y-13824531D02*
X13031729Y-13815008D01*
X13031729Y-13815008D02*
X13050777Y-13805484D01*
X13193634Y-13805484D02*
X13193634Y-13843579D01*
X13269825Y-13805484D02*
X13269825Y-13843579D01*
X13565063Y-14081674D02*
X13555539Y-14072150D01*
X13555539Y-14072150D02*
X13536491Y-14043579D01*
X13536491Y-14043579D02*
X13526968Y-14024531D01*
X13526968Y-14024531D02*
X13517444Y-13995960D01*
X13517444Y-13995960D02*
X13507920Y-13948341D01*
X13507920Y-13948341D02*
X13507920Y-13910246D01*
X13507920Y-13910246D02*
X13517444Y-13862627D01*
X13517444Y-13862627D02*
X13526968Y-13834055D01*
X13526968Y-13834055D02*
X13536491Y-13815008D01*
X13536491Y-13815008D02*
X13555539Y-13786436D01*
X13555539Y-13786436D02*
X13565063Y-13776912D01*
X13746015Y-14005484D02*
X13631729Y-14005484D01*
X13688872Y-14005484D02*
X13688872Y-13805484D01*
X13688872Y-13805484D02*
X13669825Y-13834055D01*
X13669825Y-13834055D02*
X13650777Y-13853103D01*
X13650777Y-13853103D02*
X13631729Y-13862627D01*
X13984110Y-14005484D02*
X13984110Y-13805484D01*
X14069825Y-14005484D02*
X14069825Y-13900722D01*
X14069825Y-13900722D02*
X14060301Y-13881674D01*
X14060301Y-13881674D02*
X14041253Y-13872150D01*
X14041253Y-13872150D02*
X14012682Y-13872150D01*
X14012682Y-13872150D02*
X13993634Y-13881674D01*
X13993634Y-13881674D02*
X13984110Y-13891198D01*
X14193634Y-14005484D02*
X14174587Y-13995960D01*
X14174587Y-13995960D02*
X14165063Y-13986436D01*
X14165063Y-13986436D02*
X14155539Y-13967388D01*
X14155539Y-13967388D02*
X14155539Y-13910246D01*
X14155539Y-13910246D02*
X14165063Y-13891198D01*
X14165063Y-13891198D02*
X14174587Y-13881674D01*
X14174587Y-13881674D02*
X14193634Y-13872150D01*
X14193634Y-13872150D02*
X14222206Y-13872150D01*
X14222206Y-13872150D02*
X14241253Y-13881674D01*
X14241253Y-13881674D02*
X14250777Y-13891198D01*
X14250777Y-13891198D02*
X14260301Y-13910246D01*
X14260301Y-13910246D02*
X14260301Y-13967388D01*
X14260301Y-13967388D02*
X14250777Y-13986436D01*
X14250777Y-13986436D02*
X14241253Y-13995960D01*
X14241253Y-13995960D02*
X14222206Y-14005484D01*
X14222206Y-14005484D02*
X14193634Y-14005484D01*
X14374587Y-14005484D02*
X14355539Y-13995960D01*
X14355539Y-13995960D02*
X14346015Y-13976912D01*
X14346015Y-13976912D02*
X14346015Y-13805484D01*
X14526968Y-13995960D02*
X14507920Y-14005484D01*
X14507920Y-14005484D02*
X14469825Y-14005484D01*
X14469825Y-14005484D02*
X14450777Y-13995960D01*
X14450777Y-13995960D02*
X14441253Y-13976912D01*
X14441253Y-13976912D02*
X14441253Y-13900722D01*
X14441253Y-13900722D02*
X14450777Y-13881674D01*
X14450777Y-13881674D02*
X14469825Y-13872150D01*
X14469825Y-13872150D02*
X14507920Y-13872150D01*
X14507920Y-13872150D02*
X14526968Y-13881674D01*
X14526968Y-13881674D02*
X14536491Y-13900722D01*
X14536491Y-13900722D02*
X14536491Y-13919769D01*
X14536491Y-13919769D02*
X14441253Y-13938817D01*
X14603158Y-14081674D02*
X14612682Y-14072150D01*
X14612682Y-14072150D02*
X14631730Y-14043579D01*
X14631730Y-14043579D02*
X14641253Y-14024531D01*
X14641253Y-14024531D02*
X14650777Y-13995960D01*
X14650777Y-13995960D02*
X14660301Y-13948341D01*
X14660301Y-13948341D02*
X14660301Y-13910246D01*
X14660301Y-13910246D02*
X14650777Y-13862627D01*
X14650777Y-13862627D02*
X14641253Y-13834055D01*
X14641253Y-13834055D02*
X14631730Y-13815008D01*
X14631730Y-13815008D02*
X14612682Y-13786436D01*
X14612682Y-13786436D02*
X14603158Y-13776912D01*
M02*
