M48
; DRILL file {KiCad 8.0.2} date 2024-05-17T12:17:20-0600
; FORMAT={-:-/ absolute / metric / decimal}
; #@! TF.CreationDate,2024-05-17T12:17:20-06:00
; #@! TF.GenerationSoftware,Kicad,Pcbnew,8.0.2
; #@! TF.FileFunction,Plated,1,2,PTH
FMAT,2
METRIC
; #@! TA.AperFunction,Plated,PTH,ViaDrill
T1C0.300
; #@! TA.AperFunction,Plated,PTH,ComponentDrill
T2C0.914
%
G90
G05
T1
X102.0Y-62.0
X102.0Y-66.5
X102.0Y-71.5
X102.0Y-76.5
X102.0Y-81.5
X102.0Y-86.5
X102.0Y-91.5
X102.0Y-96.5
X102.0Y-101.5
X102.0Y-106.5
X102.0Y-111.5
X102.0Y-116.5
X102.0Y-121.5
X102.0Y-126.5
X109.0Y-62.0
X109.0Y-66.5
X109.0Y-76.5
X109.0Y-86.5
X109.0Y-96.5
X109.0Y-106.5
X109.0Y-116.5
X109.0Y-126.5
X116.0Y-62.0
X116.0Y-71.5
X116.0Y-81.5
X116.0Y-91.5
X116.0Y-101.5
X116.0Y-111.5
X116.0Y-121.5
X116.0Y-126.5
X123.0Y-62.0
X123.0Y-66.5
X123.0Y-76.5
X123.0Y-116.5
X123.0Y-126.5
X130.0Y-62.0
X130.0Y-71.5
X134.9Y-96.2
X134.9Y-97.1
X135.0Y-62.0
X135.0Y-66.5
X135.0Y-76.5
X135.3Y-95.3
X135.3Y-98.0
X135.5Y-99.0
X135.5Y-100.0
X135.5Y-101.0
X135.5Y-102.0
X135.5Y-103.0
X135.5Y-104.0
X135.5Y-105.0
X135.5Y-106.0
X135.5Y-107.0
X135.5Y-108.0
X135.5Y-109.0
X135.5Y-110.0
X135.5Y-111.0
X135.5Y-112.0
X135.5Y-113.0
X135.5Y-114.0
X135.5Y-115.0
X135.5Y-116.0
X135.5Y-117.0
X135.5Y-118.0
X135.5Y-119.0
X135.5Y-120.0
X135.5Y-121.0
X135.5Y-122.0
X135.5Y-123.0
X135.5Y-124.0
X135.5Y-125.0
X135.5Y-126.0
X135.5Y-127.0
X135.5Y-128.0
X135.5Y-129.0
X136.2Y-94.8
X137.3Y-94.8
X138.0Y-99.0
X138.0Y-100.0
X138.0Y-101.0
X138.0Y-102.0
X138.0Y-103.0
X138.0Y-104.0
X138.0Y-105.0
X138.0Y-106.0
X138.0Y-107.0
X138.0Y-108.0
X138.0Y-109.0
X138.0Y-110.0
X138.0Y-111.0
X138.0Y-112.0
X138.0Y-113.0
X138.0Y-114.0
X138.0Y-115.0
X138.0Y-116.0
X138.0Y-117.0
X138.0Y-118.0
X138.0Y-119.0
X138.0Y-120.0
X138.0Y-121.0
X138.0Y-122.0
X138.0Y-123.0
X138.0Y-124.0
X138.0Y-125.0
X138.0Y-126.0
X138.0Y-127.0
X138.0Y-128.0
X138.0Y-129.0
X138.1Y-95.3
X138.2Y-98.0
X138.6Y-96.2
X138.6Y-97.1
X140.0Y-62.0
X140.0Y-71.5
X147.0Y-62.0
X147.0Y-66.5
X147.0Y-76.5
X147.0Y-116.5
X147.0Y-126.5
X154.0Y-62.0
X154.0Y-71.5
X154.0Y-81.5
X154.0Y-91.5
X154.0Y-101.5
X154.0Y-111.5
X154.0Y-121.5
X154.0Y-126.5
X161.0Y-62.0
X161.0Y-66.5
X161.0Y-76.5
X161.0Y-86.5
X161.0Y-96.5
X161.0Y-106.5
X161.0Y-116.5
X161.0Y-126.5
X168.0Y-62.0
X168.0Y-66.5
X168.0Y-71.5
X168.0Y-76.5
X168.0Y-81.5
X168.0Y-86.5
X168.0Y-91.5
X168.0Y-96.5
X168.0Y-101.5
X168.0Y-106.5
X168.0Y-111.5
X168.0Y-116.5
X168.0Y-121.5
X168.0Y-126.5
T2
X136.75Y-96.75
M30
