%TF.GenerationSoftware,KiCad,Pcbnew,8.0.2*%
%TF.CreationDate,2024-06-04T14:39:27-06:00*%
%TF.ProjectId,PCB_Project,5043425f-5072-46f6-9a65-63742e6b6963,rev?*%
%TF.SameCoordinates,Original*%
%TF.FileFunction,Drillmap*%
%TF.FilePolarity,Positive*%
%FSLAX45Y45*%
G04 Gerber Fmt 4.5, Leading zero omitted, Abs format (unit mm)*
G04 Created by KiCad (PCBNEW 8.0.2) date 2024-06-04 14:39:27*
%MOMM*%
%LPD*%
G01*
G04 APERTURE LIST*
%ADD10C,0.200000*%
%ADD11C,0.100000*%
G04 APERTURE END LIST*
D10*
X9350000Y-6750000D02*
X14650000Y-6750000D01*
X14650000Y-11750000D01*
X9350000Y-11750000D01*
X9350000Y-6750000D01*
D11*
X9470000Y-9860000D02*
X9510000Y-9900000D01*
X9510000Y-9860000D02*
X9470000Y-9900000D01*
X9500000Y-9040000D02*
X9540000Y-9080000D01*
X9540000Y-9040000D02*
X9500000Y-9080000D01*
X9555000Y-8880000D02*
X9595000Y-8920000D01*
X9595000Y-8880000D02*
X9555000Y-8920000D01*
X9636006Y-9915890D02*
X9676006Y-9955890D01*
X9676006Y-9915890D02*
X9636006Y-9955890D01*
X9639800Y-10016046D02*
X9679800Y-10056046D01*
X9679800Y-10016046D02*
X9639800Y-10056046D01*
X9655000Y-7580000D02*
X9695000Y-7620000D01*
X9695000Y-7580000D02*
X9655000Y-7620000D01*
X9687481Y-9838795D02*
X9727481Y-9878795D01*
X9727481Y-9838795D02*
X9687481Y-9878795D01*
X9700000Y-7475000D02*
X9740000Y-7515000D01*
X9740000Y-7475000D02*
X9700000Y-7515000D01*
X9705000Y-10355000D02*
X9745000Y-10395000D01*
X9745000Y-10355000D02*
X9705000Y-10395000D01*
X9710000Y-10470000D02*
X9750000Y-10510000D01*
X9750000Y-10470000D02*
X9710000Y-10510000D01*
X9730000Y-9580000D02*
X9770000Y-9620000D01*
X9770000Y-9580000D02*
X9730000Y-9620000D01*
X9800000Y-9760000D02*
X9840000Y-9800000D01*
X9840000Y-9760000D02*
X9800000Y-9800000D01*
X9810000Y-8520000D02*
X9850000Y-8560000D01*
X9850000Y-8520000D02*
X9810000Y-8560000D01*
X9810000Y-9260000D02*
X9850000Y-9300000D01*
X9850000Y-9260000D02*
X9810000Y-9300000D01*
X9850000Y-9440000D02*
X9890000Y-9480000D01*
X9890000Y-9440000D02*
X9850000Y-9480000D01*
X9855000Y-10955000D02*
X9895000Y-10995000D01*
X9895000Y-10955000D02*
X9855000Y-10995000D01*
X9855000Y-11080000D02*
X9895000Y-11120000D01*
X9895000Y-11080000D02*
X9855000Y-11120000D01*
X9880000Y-7460000D02*
X9920000Y-7500000D01*
X9920000Y-7460000D02*
X9880000Y-7500000D01*
X9930000Y-9255000D02*
X9970000Y-9295000D01*
X9970000Y-9255000D02*
X9930000Y-9295000D01*
X9990000Y-10580000D02*
X10030000Y-10620000D01*
X10030000Y-10580000D02*
X9990000Y-10620000D01*
X10005000Y-10955000D02*
X10045000Y-10995000D01*
X10045000Y-10955000D02*
X10005000Y-10995000D01*
X10005000Y-11080000D02*
X10045000Y-11120000D01*
X10045000Y-11080000D02*
X10005000Y-11120000D01*
X10034500Y-7855000D02*
X10074500Y-7895000D01*
X10074500Y-7855000D02*
X10034500Y-7895000D01*
X10074800Y-8520000D02*
X10114800Y-8560000D01*
X10114800Y-8520000D02*
X10074800Y-8560000D01*
X10080000Y-9640000D02*
X10120000Y-9680000D01*
X10120000Y-9640000D02*
X10080000Y-9680000D01*
X10090000Y-9494000D02*
X10130000Y-9534000D01*
X10130000Y-9494000D02*
X10090000Y-9534000D01*
X10100000Y-9760000D02*
X10140000Y-9800000D01*
X10140000Y-9760000D02*
X10100000Y-9800000D01*
X10155000Y-10955000D02*
X10195000Y-10995000D01*
X10195000Y-10955000D02*
X10155000Y-10995000D01*
X10160000Y-10720000D02*
X10200000Y-10760000D01*
X10200000Y-10720000D02*
X10160000Y-10760000D01*
X10180000Y-9405000D02*
X10220000Y-9445000D01*
X10220000Y-9405000D02*
X10180000Y-9445000D01*
X10190000Y-9970000D02*
X10230000Y-10010000D01*
X10230000Y-9970000D02*
X10190000Y-10010000D01*
X10205000Y-7855000D02*
X10245000Y-7895000D01*
X10245000Y-7855000D02*
X10205000Y-7895000D01*
X10205000Y-8030000D02*
X10245000Y-8070000D01*
X10245000Y-8030000D02*
X10205000Y-8070000D01*
X10210000Y-10130000D02*
X10250000Y-10170000D01*
X10250000Y-10130000D02*
X10210000Y-10170000D01*
X10220000Y-10410000D02*
X10260000Y-10450000D01*
X10260000Y-10410000D02*
X10220000Y-10450000D01*
X10270000Y-8610000D02*
X10310000Y-8650000D01*
X10310000Y-8610000D02*
X10270000Y-8650000D01*
X10280000Y-9890000D02*
X10320000Y-9930000D01*
X10320000Y-9890000D02*
X10280000Y-9930000D01*
X10320000Y-7650000D02*
X10360000Y-7690000D01*
X10360000Y-7650000D02*
X10320000Y-7690000D01*
X10330000Y-10580000D02*
X10370000Y-10620000D01*
X10370000Y-10580000D02*
X10330000Y-10620000D01*
X10370000Y-8840000D02*
X10410000Y-8880000D01*
X10410000Y-8840000D02*
X10370000Y-8880000D01*
X10370000Y-8970000D02*
X10410000Y-9010000D01*
X10410000Y-8970000D02*
X10370000Y-9010000D01*
X10460000Y-7450000D02*
X10500000Y-7490000D01*
X10500000Y-7450000D02*
X10460000Y-7490000D01*
X10480000Y-7650000D02*
X10520000Y-7690000D01*
X10520000Y-7650000D02*
X10480000Y-7690000D01*
X10540000Y-9730000D02*
X10580000Y-9770000D01*
X10580000Y-9730000D02*
X10540000Y-9770000D01*
X10555000Y-9305000D02*
X10595000Y-9345000D01*
X10595000Y-9305000D02*
X10555000Y-9345000D01*
X10555000Y-10720000D02*
X10595000Y-10760000D01*
X10595000Y-10720000D02*
X10555000Y-10760000D01*
X10555000Y-10830000D02*
X10595000Y-10870000D01*
X10595000Y-10830000D02*
X10555000Y-10870000D01*
X10570000Y-8480000D02*
X10610000Y-8520000D01*
X10610000Y-8480000D02*
X10570000Y-8520000D01*
X10763750Y-8143750D02*
X10803750Y-8183750D01*
X10803750Y-8143750D02*
X10763750Y-8183750D01*
X10809500Y-7605000D02*
X10849500Y-7645000D01*
X10849500Y-7605000D02*
X10809500Y-7645000D01*
X10840000Y-7450000D02*
X10880000Y-7490000D01*
X10880000Y-7450000D02*
X10840000Y-7490000D01*
X10850000Y-10720000D02*
X10890000Y-10760000D01*
X10890000Y-10720000D02*
X10850000Y-10760000D01*
X10855000Y-10830000D02*
X10895000Y-10870000D01*
X10895000Y-10830000D02*
X10855000Y-10870000D01*
X10880000Y-9780000D02*
X10920000Y-9820000D01*
X10920000Y-9780000D02*
X10880000Y-9820000D01*
X10955000Y-7605000D02*
X10995000Y-7645000D01*
X10995000Y-7605000D02*
X10955000Y-7645000D01*
X10970000Y-7450000D02*
X11010000Y-7490000D01*
X11010000Y-7450000D02*
X10970000Y-7490000D01*
X10980000Y-9780000D02*
X11020000Y-9820000D01*
X11020000Y-9780000D02*
X10980000Y-9820000D01*
X11091103Y-8768897D02*
X11131103Y-8808897D01*
X11131103Y-8768897D02*
X11091103Y-8808897D01*
X11184500Y-8230000D02*
X11224500Y-8270000D01*
X11224500Y-8230000D02*
X11184500Y-8270000D01*
X11218603Y-7451397D02*
X11258603Y-7491397D01*
X11258603Y-7451397D02*
X11218603Y-7491397D01*
X11229000Y-9629000D02*
X11269000Y-9669000D01*
X11269000Y-9629000D02*
X11229000Y-9669000D01*
X11350000Y-7850000D02*
X11390000Y-7890000D01*
X11390000Y-7850000D02*
X11350000Y-7890000D01*
X11355000Y-8980000D02*
X11395000Y-9020000D01*
X11395000Y-8980000D02*
X11355000Y-9020000D01*
X11355000Y-9130000D02*
X11395000Y-9170000D01*
X11395000Y-9130000D02*
X11355000Y-9170000D01*
X11370000Y-9450000D02*
X11410000Y-9490000D01*
X11410000Y-9450000D02*
X11370000Y-9490000D01*
X11470000Y-11470000D02*
X11510000Y-11510000D01*
X11510000Y-11470000D02*
X11470000Y-11510000D01*
X11505000Y-7745200D02*
X11545000Y-7785200D01*
X11545000Y-7745200D02*
X11505000Y-7785200D01*
X11580000Y-9980000D02*
X11620000Y-10020000D01*
X11620000Y-9980000D02*
X11580000Y-10020000D01*
X11605000Y-7605000D02*
X11645000Y-7645000D01*
X11645000Y-7605000D02*
X11605000Y-7645000D01*
X11605000Y-7750000D02*
X11645000Y-7790000D01*
X11645000Y-7750000D02*
X11605000Y-7790000D01*
X11655000Y-10855000D02*
X11695000Y-10895000D01*
X11695000Y-10855000D02*
X11655000Y-10895000D01*
X11710000Y-7850000D02*
X11750000Y-7890000D01*
X11750000Y-7850000D02*
X11710000Y-7890000D01*
X11710000Y-11470000D02*
X11750000Y-11510000D01*
X11750000Y-11470000D02*
X11710000Y-11510000D01*
X11730000Y-8980000D02*
X11770000Y-9020000D01*
X11770000Y-8980000D02*
X11730000Y-9020000D01*
X11730000Y-9130000D02*
X11770000Y-9170000D01*
X11770000Y-9130000D02*
X11730000Y-9170000D01*
X11760000Y-8220000D02*
X11800000Y-8260000D01*
X11800000Y-8220000D02*
X11760000Y-8260000D01*
X11880000Y-9410000D02*
X11920000Y-9450000D01*
X11920000Y-9410000D02*
X11880000Y-9450000D01*
X11940000Y-7450000D02*
X11980000Y-7490000D01*
X11980000Y-7450000D02*
X11940000Y-7490000D01*
X12000000Y-11450000D02*
X12040000Y-11490000D01*
X12040000Y-11450000D02*
X12000000Y-11490000D01*
X12070000Y-11539800D02*
X12110000Y-11579800D01*
X12110000Y-11539800D02*
X12070000Y-11579800D01*
X12105000Y-11360000D02*
X12145000Y-11400000D01*
X12145000Y-11360000D02*
X12105000Y-11400000D01*
X12130000Y-7680000D02*
X12170000Y-7720000D01*
X12170000Y-7680000D02*
X12130000Y-7720000D01*
X12143603Y-7530000D02*
X12183603Y-7570000D01*
X12183603Y-7530000D02*
X12143603Y-7570000D01*
X12155000Y-9105000D02*
X12195000Y-9145000D01*
X12195000Y-9105000D02*
X12155000Y-9145000D01*
X12205000Y-11180000D02*
X12245000Y-11220000D01*
X12245000Y-11180000D02*
X12205000Y-11220000D01*
X12210000Y-9260000D02*
X12250000Y-9300000D01*
X12250000Y-9260000D02*
X12210000Y-9300000D01*
X12230000Y-7339800D02*
X12270000Y-7379800D01*
X12270000Y-7339800D02*
X12230000Y-7379800D01*
X12250000Y-7790000D02*
X12290000Y-7830000D01*
X12290000Y-7790000D02*
X12250000Y-7830000D01*
X12300000Y-8030000D02*
X12340000Y-8070000D01*
X12340000Y-8030000D02*
X12300000Y-8070000D01*
X12305000Y-8880000D02*
X12345000Y-8920000D01*
X12345000Y-8880000D02*
X12305000Y-8920000D01*
X12307867Y-10190237D02*
X12347867Y-10230237D01*
X12347867Y-10190237D02*
X12307867Y-10230237D01*
X12320000Y-11450000D02*
X12360000Y-11490000D01*
X12360000Y-11450000D02*
X12320000Y-11490000D01*
X12360000Y-7684800D02*
X12400000Y-7724800D01*
X12400000Y-7684800D02*
X12360000Y-7724800D01*
X12360000Y-10610000D02*
X12400000Y-10650000D01*
X12400000Y-10610000D02*
X12360000Y-10650000D01*
X12400000Y-10180000D02*
X12440000Y-10220000D01*
X12440000Y-10180000D02*
X12400000Y-10220000D01*
X12500000Y-7830000D02*
X12540000Y-7870000D01*
X12540000Y-7830000D02*
X12500000Y-7870000D01*
X12530000Y-9705000D02*
X12570000Y-9745000D01*
X12570000Y-9705000D02*
X12530000Y-9745000D01*
X12580000Y-7730000D02*
X12620000Y-7770000D01*
X12620000Y-7730000D02*
X12580000Y-7770000D01*
X12663897Y-7906103D02*
X12703897Y-7946103D01*
X12703897Y-7906103D02*
X12663897Y-7946103D01*
X12705000Y-9705000D02*
X12745000Y-9745000D01*
X12745000Y-9705000D02*
X12705000Y-9745000D01*
X12755000Y-8787300D02*
X12795000Y-8827300D01*
X12795000Y-8787300D02*
X12755000Y-8827300D01*
X12755000Y-8880000D02*
X12795000Y-8920000D01*
X12795000Y-8880000D02*
X12755000Y-8920000D01*
X12780000Y-7405000D02*
X12820000Y-7445000D01*
X12820000Y-7405000D02*
X12780000Y-7445000D01*
X12780000Y-10610000D02*
X12820000Y-10650000D01*
X12820000Y-10610000D02*
X12780000Y-10650000D01*
X12830000Y-10240000D02*
X12870000Y-10280000D01*
X12870000Y-10240000D02*
X12830000Y-10280000D01*
X12854300Y-8780000D02*
X12894300Y-8820000D01*
X12894300Y-8780000D02*
X12854300Y-8820000D01*
X12960000Y-10720000D02*
X13000000Y-10760000D01*
X13000000Y-10720000D02*
X12960000Y-10760000D01*
X12990000Y-8305000D02*
X13030000Y-8345000D01*
X13030000Y-8305000D02*
X12990000Y-8345000D01*
X13030000Y-10240000D02*
X13070000Y-10280000D01*
X13070000Y-10240000D02*
X13030000Y-10280000D01*
X13085000Y-9755000D02*
X13125000Y-9795000D01*
X13125000Y-9755000D02*
X13085000Y-9795000D01*
X13090000Y-7405000D02*
X13130000Y-7445000D01*
X13130000Y-7405000D02*
X13090000Y-7445000D01*
X13180000Y-7930000D02*
X13220000Y-7970000D01*
X13220000Y-7930000D02*
X13180000Y-7970000D01*
X13330000Y-8020000D02*
X13370000Y-8060000D01*
X13370000Y-8020000D02*
X13330000Y-8060000D01*
X13430000Y-7405000D02*
X13470000Y-7445000D01*
X13470000Y-7405000D02*
X13430000Y-7445000D01*
X13430000Y-8480000D02*
X13470000Y-8520000D01*
X13470000Y-8480000D02*
X13430000Y-8520000D01*
X13460000Y-7530000D02*
X13500000Y-7570000D01*
X13500000Y-7530000D02*
X13460000Y-7570000D01*
X13540000Y-9520000D02*
X13580000Y-9560000D01*
X13580000Y-9520000D02*
X13540000Y-9560000D01*
X13605000Y-8480000D02*
X13645000Y-8520000D01*
X13645000Y-8480000D02*
X13605000Y-8520000D01*
X13680000Y-9240000D02*
X13720000Y-9280000D01*
X13720000Y-9240000D02*
X13680000Y-9280000D01*
X13750000Y-10590000D02*
X13790000Y-10630000D01*
X13790000Y-10590000D02*
X13750000Y-10630000D01*
X13810000Y-7430000D02*
X13850000Y-7470000D01*
X13850000Y-7430000D02*
X13810000Y-7470000D01*
X13940000Y-10590000D02*
X13980000Y-10630000D01*
X13980000Y-10590000D02*
X13940000Y-10630000D01*
X14040000Y-9130250D02*
X14080000Y-9170250D01*
X14080000Y-9130250D02*
X14040000Y-9170250D01*
X14120000Y-10150000D02*
X14160000Y-10190000D01*
X14160000Y-10150000D02*
X14120000Y-10190000D01*
X14215000Y-9480250D02*
X14255000Y-9520250D01*
X14255000Y-9480250D02*
X14215000Y-9520250D01*
X14224800Y-10150000D02*
X14264800Y-10190000D01*
X14264800Y-10150000D02*
X14224800Y-10190000D01*
X14270000Y-7600000D02*
X14310000Y-7640000D01*
X14310000Y-7600000D02*
X14270000Y-7640000D01*
X14350000Y-9710000D02*
X14390000Y-9750000D01*
X14390000Y-9710000D02*
X14350000Y-9750000D01*
X14370000Y-9930000D02*
X14410000Y-9970000D01*
X14410000Y-9930000D02*
X14370000Y-9970000D01*
X14430000Y-7440000D02*
X14470000Y-7480000D01*
X14470000Y-7440000D02*
X14430000Y-7480000D01*
X9712500Y-11370000D02*
G75*
G02*
X9637500Y-11370000I-37500J0D01*
G01*
X9637500Y-11370000D02*
G75*
G02*
X9712500Y-11370000I37500J0D01*
G01*
X9912500Y-11370000D02*
G75*
G02*
X9837500Y-11370000I-37500J0D01*
G01*
X9837500Y-11370000D02*
G75*
G02*
X9912500Y-11370000I37500J0D01*
G01*
X12572500Y-11005000D02*
G75*
G02*
X12497500Y-11005000I-37500J0D01*
G01*
X12497500Y-11005000D02*
G75*
G02*
X12572500Y-11005000I37500J0D01*
G01*
X12772500Y-11005000D02*
G75*
G02*
X12697500Y-11005000I-37500J0D01*
G01*
X12697500Y-11005000D02*
G75*
G02*
X12772500Y-11005000I37500J0D01*
G01*
X13367500Y-11005000D02*
G75*
G02*
X13292500Y-11005000I-37500J0D01*
G01*
X13292500Y-11005000D02*
G75*
G02*
X13367500Y-11005000I37500J0D01*
G01*
X13567500Y-11005000D02*
G75*
G02*
X13492500Y-11005000I-37500J0D01*
G01*
X13492500Y-11005000D02*
G75*
G02*
X13567500Y-11005000I37500J0D01*
G01*
X14162500Y-11005000D02*
G75*
G02*
X14087500Y-11005000I-37500J0D01*
G01*
X14087500Y-11005000D02*
G75*
G02*
X14162500Y-11005000I37500J0D01*
G01*
X14362500Y-11005000D02*
G75*
G02*
X14287500Y-11005000I-37500J0D01*
G01*
X14287500Y-11005000D02*
G75*
G02*
X14362500Y-11005000I37500J0D01*
G01*
X10325000Y-11510000D02*
X10325000Y-11590000D01*
X10285000Y-11550000D02*
X10365000Y-11550000D01*
X10525000Y-11510000D02*
X10525000Y-11590000D01*
X10485000Y-11550000D02*
X10565000Y-11550000D01*
X10725000Y-11510000D02*
X10725000Y-11590000D01*
X10685000Y-11550000D02*
X10765000Y-11550000D01*
X10925000Y-11510000D02*
X10925000Y-11590000D01*
X10885000Y-11550000D02*
X10965000Y-11550000D01*
X11125000Y-11510000D02*
X11125000Y-11590000D01*
X11085000Y-11550000D02*
X11165000Y-11550000D01*
X9627356Y-7035356D02*
X9627356Y-6964644D01*
X9556644Y-6964644D01*
X9556644Y-7035356D01*
X9627356Y-7035356D01*
X9627356Y-7289356D02*
X9627356Y-7218644D01*
X9556644Y-7218644D01*
X9556644Y-7289356D01*
X9627356Y-7289356D01*
X9881356Y-7035356D02*
X9881356Y-6964644D01*
X9810644Y-6964644D01*
X9810644Y-7035356D01*
X9881356Y-7035356D01*
X9881356Y-7289356D02*
X9881356Y-7218644D01*
X9810644Y-7218644D01*
X9810644Y-7289356D01*
X9881356Y-7289356D01*
X10135356Y-7035356D02*
X10135356Y-6964644D01*
X10064644Y-6964644D01*
X10064644Y-7035356D01*
X10135356Y-7035356D01*
X10135356Y-7289356D02*
X10135356Y-7218644D01*
X10064644Y-7218644D01*
X10064644Y-7289356D01*
X10135356Y-7289356D01*
X10389356Y-7035356D02*
X10389356Y-6964644D01*
X10318644Y-6964644D01*
X10318644Y-7035356D01*
X10389356Y-7035356D01*
X10389356Y-7289356D02*
X10389356Y-7218644D01*
X10318644Y-7218644D01*
X10318644Y-7289356D01*
X10389356Y-7289356D01*
X10643356Y-7035356D02*
X10643356Y-6964644D01*
X10572644Y-6964644D01*
X10572644Y-7035356D01*
X10643356Y-7035356D01*
X10643356Y-7289356D02*
X10643356Y-7218644D01*
X10572644Y-7218644D01*
X10572644Y-7289356D01*
X10643356Y-7289356D01*
X10897356Y-7035356D02*
X10897356Y-6964644D01*
X10826644Y-6964644D01*
X10826644Y-7035356D01*
X10897356Y-7035356D01*
X10897356Y-7289356D02*
X10897356Y-7218644D01*
X10826644Y-7218644D01*
X10826644Y-7289356D01*
X10897356Y-7289356D01*
X11151356Y-7035356D02*
X11151356Y-6964644D01*
X11080644Y-6964644D01*
X11080644Y-7035356D01*
X11151356Y-7035356D01*
X11151356Y-7289356D02*
X11151356Y-7218644D01*
X11080644Y-7218644D01*
X11080644Y-7289356D01*
X11151356Y-7289356D01*
X11405356Y-7035356D02*
X11405356Y-6964644D01*
X11334644Y-6964644D01*
X11334644Y-7035356D01*
X11405356Y-7035356D01*
X11405356Y-7289356D02*
X11405356Y-7218644D01*
X11334644Y-7218644D01*
X11334644Y-7289356D01*
X11405356Y-7289356D01*
X11659356Y-7035356D02*
X11659356Y-6964644D01*
X11588644Y-6964644D01*
X11588644Y-7035356D01*
X11659356Y-7035356D01*
X11659356Y-7289356D02*
X11659356Y-7218644D01*
X11588644Y-7218644D01*
X11588644Y-7289356D01*
X11659356Y-7289356D01*
X11913356Y-7035356D02*
X11913356Y-6964644D01*
X11842644Y-6964644D01*
X11842644Y-7035356D01*
X11913356Y-7035356D01*
X11913356Y-7289356D02*
X11913356Y-7218644D01*
X11842644Y-7218644D01*
X11842644Y-7289356D01*
X11913356Y-7289356D01*
X12167356Y-7035356D02*
X12167356Y-6964644D01*
X12096644Y-6964644D01*
X12096644Y-7035356D01*
X12167356Y-7035356D01*
X12167356Y-7289356D02*
X12167356Y-7218644D01*
X12096644Y-7218644D01*
X12096644Y-7289356D01*
X12167356Y-7289356D01*
X12421356Y-7035356D02*
X12421356Y-6964644D01*
X12350644Y-6964644D01*
X12350644Y-7035356D01*
X12421356Y-7035356D01*
X12421356Y-7289356D02*
X12421356Y-7218644D01*
X12350644Y-7218644D01*
X12350644Y-7289356D01*
X12421356Y-7289356D01*
X12675356Y-7035356D02*
X12675356Y-6964644D01*
X12604644Y-6964644D01*
X12604644Y-7035356D01*
X12675356Y-7035356D01*
X12675356Y-7289356D02*
X12675356Y-7218644D01*
X12604644Y-7218644D01*
X12604644Y-7289356D01*
X12675356Y-7289356D01*
X12929356Y-7035356D02*
X12929356Y-6964644D01*
X12858644Y-6964644D01*
X12858644Y-7035356D01*
X12929356Y-7035356D01*
X12929356Y-7289356D02*
X12929356Y-7218644D01*
X12858644Y-7218644D01*
X12858644Y-7289356D01*
X12929356Y-7289356D01*
X13183356Y-7035356D02*
X13183356Y-6964644D01*
X13112644Y-6964644D01*
X13112644Y-7035356D01*
X13183356Y-7035356D01*
X13183356Y-7289356D02*
X13183356Y-7218644D01*
X13112644Y-7218644D01*
X13112644Y-7289356D01*
X13183356Y-7289356D01*
X13437356Y-7035356D02*
X13437356Y-6964644D01*
X13366644Y-6964644D01*
X13366644Y-7035356D01*
X13437356Y-7035356D01*
X13437356Y-7289356D02*
X13437356Y-7218644D01*
X13366644Y-7218644D01*
X13366644Y-7289356D01*
X13437356Y-7289356D01*
X13691356Y-7035356D02*
X13691356Y-6964644D01*
X13620644Y-6964644D01*
X13620644Y-7035356D01*
X13691356Y-7035356D01*
X13691356Y-7289356D02*
X13691356Y-7218644D01*
X13620644Y-7218644D01*
X13620644Y-7289356D01*
X13691356Y-7289356D01*
X13945356Y-7035356D02*
X13945356Y-6964644D01*
X13874644Y-6964644D01*
X13874644Y-7035356D01*
X13945356Y-7035356D01*
X13945356Y-7289356D02*
X13945356Y-7218644D01*
X13874644Y-7218644D01*
X13874644Y-7289356D01*
X13945356Y-7289356D01*
X14199356Y-7035356D02*
X14199356Y-6964644D01*
X14128644Y-6964644D01*
X14128644Y-7035356D01*
X14199356Y-7035356D01*
X14199356Y-7289356D02*
X14199356Y-7218644D01*
X14128644Y-7218644D01*
X14128644Y-7289356D01*
X14199356Y-7289356D01*
X14453356Y-7035356D02*
X14453356Y-6964644D01*
X14382644Y-6964644D01*
X14382644Y-7035356D01*
X14453356Y-7035356D01*
X14453356Y-7289356D02*
X14453356Y-7218644D01*
X14382644Y-7218644D01*
X14382644Y-7289356D01*
X14453356Y-7289356D01*
D10*
X9600777Y-12071484D02*
X9600777Y-11871484D01*
X9600777Y-11871484D02*
X9648396Y-11871484D01*
X9648396Y-11871484D02*
X9676967Y-11881008D01*
X9676967Y-11881008D02*
X9696015Y-11900055D01*
X9696015Y-11900055D02*
X9705539Y-11919103D01*
X9705539Y-11919103D02*
X9715063Y-11957198D01*
X9715063Y-11957198D02*
X9715063Y-11985769D01*
X9715063Y-11985769D02*
X9705539Y-12023865D01*
X9705539Y-12023865D02*
X9696015Y-12042912D01*
X9696015Y-12042912D02*
X9676967Y-12061960D01*
X9676967Y-12061960D02*
X9648396Y-12071484D01*
X9648396Y-12071484D02*
X9600777Y-12071484D01*
X9800777Y-12071484D02*
X9800777Y-11938150D01*
X9800777Y-11976246D02*
X9810301Y-11957198D01*
X9810301Y-11957198D02*
X9819824Y-11947674D01*
X9819824Y-11947674D02*
X9838872Y-11938150D01*
X9838872Y-11938150D02*
X9857920Y-11938150D01*
X9924586Y-12071484D02*
X9924586Y-11938150D01*
X9924586Y-11871484D02*
X9915063Y-11881008D01*
X9915063Y-11881008D02*
X9924586Y-11890531D01*
X9924586Y-11890531D02*
X9934110Y-11881008D01*
X9934110Y-11881008D02*
X9924586Y-11871484D01*
X9924586Y-11871484D02*
X9924586Y-11890531D01*
X10048396Y-12071484D02*
X10029348Y-12061960D01*
X10029348Y-12061960D02*
X10019824Y-12042912D01*
X10019824Y-12042912D02*
X10019824Y-11871484D01*
X10153158Y-12071484D02*
X10134110Y-12061960D01*
X10134110Y-12061960D02*
X10124586Y-12042912D01*
X10124586Y-12042912D02*
X10124586Y-11871484D01*
X10381729Y-12071484D02*
X10381729Y-11871484D01*
X10381729Y-11871484D02*
X10448396Y-12014341D01*
X10448396Y-12014341D02*
X10515063Y-11871484D01*
X10515063Y-11871484D02*
X10515063Y-12071484D01*
X10696015Y-12071484D02*
X10696015Y-11966722D01*
X10696015Y-11966722D02*
X10686491Y-11947674D01*
X10686491Y-11947674D02*
X10667444Y-11938150D01*
X10667444Y-11938150D02*
X10629348Y-11938150D01*
X10629348Y-11938150D02*
X10610301Y-11947674D01*
X10696015Y-12061960D02*
X10676967Y-12071484D01*
X10676967Y-12071484D02*
X10629348Y-12071484D01*
X10629348Y-12071484D02*
X10610301Y-12061960D01*
X10610301Y-12061960D02*
X10600777Y-12042912D01*
X10600777Y-12042912D02*
X10600777Y-12023865D01*
X10600777Y-12023865D02*
X10610301Y-12004817D01*
X10610301Y-12004817D02*
X10629348Y-11995293D01*
X10629348Y-11995293D02*
X10676967Y-11995293D01*
X10676967Y-11995293D02*
X10696015Y-11985769D01*
X10791253Y-11938150D02*
X10791253Y-12138150D01*
X10791253Y-11947674D02*
X10810301Y-11938150D01*
X10810301Y-11938150D02*
X10848396Y-11938150D01*
X10848396Y-11938150D02*
X10867444Y-11947674D01*
X10867444Y-11947674D02*
X10876967Y-11957198D01*
X10876967Y-11957198D02*
X10886491Y-11976246D01*
X10886491Y-11976246D02*
X10886491Y-12033388D01*
X10886491Y-12033388D02*
X10876967Y-12052436D01*
X10876967Y-12052436D02*
X10867444Y-12061960D01*
X10867444Y-12061960D02*
X10848396Y-12071484D01*
X10848396Y-12071484D02*
X10810301Y-12071484D01*
X10810301Y-12071484D02*
X10791253Y-12061960D01*
X10972205Y-12052436D02*
X10981729Y-12061960D01*
X10981729Y-12061960D02*
X10972205Y-12071484D01*
X10972205Y-12071484D02*
X10962682Y-12061960D01*
X10962682Y-12061960D02*
X10972205Y-12052436D01*
X10972205Y-12052436D02*
X10972205Y-12071484D01*
X10972205Y-11947674D02*
X10981729Y-11957198D01*
X10981729Y-11957198D02*
X10972205Y-11966722D01*
X10972205Y-11966722D02*
X10962682Y-11957198D01*
X10962682Y-11957198D02*
X10972205Y-11947674D01*
X10972205Y-11947674D02*
X10972205Y-11966722D01*
D11*
X9300000Y-12380000D02*
X9340000Y-12420000D01*
X9340000Y-12380000D02*
X9300000Y-12420000D01*
D10*
X9638872Y-12291484D02*
X9657920Y-12291484D01*
X9657920Y-12291484D02*
X9676967Y-12301008D01*
X9676967Y-12301008D02*
X9686491Y-12310531D01*
X9686491Y-12310531D02*
X9696015Y-12329579D01*
X9696015Y-12329579D02*
X9705539Y-12367674D01*
X9705539Y-12367674D02*
X9705539Y-12415293D01*
X9705539Y-12415293D02*
X9696015Y-12453388D01*
X9696015Y-12453388D02*
X9686491Y-12472436D01*
X9686491Y-12472436D02*
X9676967Y-12481960D01*
X9676967Y-12481960D02*
X9657920Y-12491484D01*
X9657920Y-12491484D02*
X9638872Y-12491484D01*
X9638872Y-12491484D02*
X9619824Y-12481960D01*
X9619824Y-12481960D02*
X9610301Y-12472436D01*
X9610301Y-12472436D02*
X9600777Y-12453388D01*
X9600777Y-12453388D02*
X9591253Y-12415293D01*
X9591253Y-12415293D02*
X9591253Y-12367674D01*
X9591253Y-12367674D02*
X9600777Y-12329579D01*
X9600777Y-12329579D02*
X9610301Y-12310531D01*
X9610301Y-12310531D02*
X9619824Y-12301008D01*
X9619824Y-12301008D02*
X9638872Y-12291484D01*
X9791253Y-12472436D02*
X9800777Y-12481960D01*
X9800777Y-12481960D02*
X9791253Y-12491484D01*
X9791253Y-12491484D02*
X9781729Y-12481960D01*
X9781729Y-12481960D02*
X9791253Y-12472436D01*
X9791253Y-12472436D02*
X9791253Y-12491484D01*
X9972205Y-12358150D02*
X9972205Y-12491484D01*
X9924586Y-12281960D02*
X9876967Y-12424817D01*
X9876967Y-12424817D02*
X10000777Y-12424817D01*
X10115063Y-12291484D02*
X10134110Y-12291484D01*
X10134110Y-12291484D02*
X10153158Y-12301008D01*
X10153158Y-12301008D02*
X10162682Y-12310531D01*
X10162682Y-12310531D02*
X10172205Y-12329579D01*
X10172205Y-12329579D02*
X10181729Y-12367674D01*
X10181729Y-12367674D02*
X10181729Y-12415293D01*
X10181729Y-12415293D02*
X10172205Y-12453388D01*
X10172205Y-12453388D02*
X10162682Y-12472436D01*
X10162682Y-12472436D02*
X10153158Y-12481960D01*
X10153158Y-12481960D02*
X10134110Y-12491484D01*
X10134110Y-12491484D02*
X10115063Y-12491484D01*
X10115063Y-12491484D02*
X10096015Y-12481960D01*
X10096015Y-12481960D02*
X10086491Y-12472436D01*
X10086491Y-12472436D02*
X10076967Y-12453388D01*
X10076967Y-12453388D02*
X10067444Y-12415293D01*
X10067444Y-12415293D02*
X10067444Y-12367674D01*
X10067444Y-12367674D02*
X10076967Y-12329579D01*
X10076967Y-12329579D02*
X10086491Y-12310531D01*
X10086491Y-12310531D02*
X10096015Y-12301008D01*
X10096015Y-12301008D02*
X10115063Y-12291484D01*
X10305539Y-12291484D02*
X10324586Y-12291484D01*
X10324586Y-12291484D02*
X10343634Y-12301008D01*
X10343634Y-12301008D02*
X10353158Y-12310531D01*
X10353158Y-12310531D02*
X10362682Y-12329579D01*
X10362682Y-12329579D02*
X10372205Y-12367674D01*
X10372205Y-12367674D02*
X10372205Y-12415293D01*
X10372205Y-12415293D02*
X10362682Y-12453388D01*
X10362682Y-12453388D02*
X10353158Y-12472436D01*
X10353158Y-12472436D02*
X10343634Y-12481960D01*
X10343634Y-12481960D02*
X10324586Y-12491484D01*
X10324586Y-12491484D02*
X10305539Y-12491484D01*
X10305539Y-12491484D02*
X10286491Y-12481960D01*
X10286491Y-12481960D02*
X10276967Y-12472436D01*
X10276967Y-12472436D02*
X10267444Y-12453388D01*
X10267444Y-12453388D02*
X10257920Y-12415293D01*
X10257920Y-12415293D02*
X10257920Y-12367674D01*
X10257920Y-12367674D02*
X10267444Y-12329579D01*
X10267444Y-12329579D02*
X10276967Y-12310531D01*
X10276967Y-12310531D02*
X10286491Y-12301008D01*
X10286491Y-12301008D02*
X10305539Y-12291484D01*
X10457920Y-12491484D02*
X10457920Y-12358150D01*
X10457920Y-12377198D02*
X10467444Y-12367674D01*
X10467444Y-12367674D02*
X10486491Y-12358150D01*
X10486491Y-12358150D02*
X10515063Y-12358150D01*
X10515063Y-12358150D02*
X10534110Y-12367674D01*
X10534110Y-12367674D02*
X10543634Y-12386722D01*
X10543634Y-12386722D02*
X10543634Y-12491484D01*
X10543634Y-12386722D02*
X10553158Y-12367674D01*
X10553158Y-12367674D02*
X10572205Y-12358150D01*
X10572205Y-12358150D02*
X10600777Y-12358150D01*
X10600777Y-12358150D02*
X10619825Y-12367674D01*
X10619825Y-12367674D02*
X10629348Y-12386722D01*
X10629348Y-12386722D02*
X10629348Y-12491484D01*
X10724586Y-12491484D02*
X10724586Y-12358150D01*
X10724586Y-12377198D02*
X10734110Y-12367674D01*
X10734110Y-12367674D02*
X10753158Y-12358150D01*
X10753158Y-12358150D02*
X10781729Y-12358150D01*
X10781729Y-12358150D02*
X10800777Y-12367674D01*
X10800777Y-12367674D02*
X10810301Y-12386722D01*
X10810301Y-12386722D02*
X10810301Y-12491484D01*
X10810301Y-12386722D02*
X10819825Y-12367674D01*
X10819825Y-12367674D02*
X10838872Y-12358150D01*
X10838872Y-12358150D02*
X10867444Y-12358150D01*
X10867444Y-12358150D02*
X10886491Y-12367674D01*
X10886491Y-12367674D02*
X10896015Y-12386722D01*
X10896015Y-12386722D02*
X10896015Y-12491484D01*
X11286491Y-12281960D02*
X11115063Y-12539103D01*
X11543634Y-12291484D02*
X11562682Y-12291484D01*
X11562682Y-12291484D02*
X11581729Y-12301008D01*
X11581729Y-12301008D02*
X11591253Y-12310531D01*
X11591253Y-12310531D02*
X11600777Y-12329579D01*
X11600777Y-12329579D02*
X11610301Y-12367674D01*
X11610301Y-12367674D02*
X11610301Y-12415293D01*
X11610301Y-12415293D02*
X11600777Y-12453388D01*
X11600777Y-12453388D02*
X11591253Y-12472436D01*
X11591253Y-12472436D02*
X11581729Y-12481960D01*
X11581729Y-12481960D02*
X11562682Y-12491484D01*
X11562682Y-12491484D02*
X11543634Y-12491484D01*
X11543634Y-12491484D02*
X11524586Y-12481960D01*
X11524586Y-12481960D02*
X11515063Y-12472436D01*
X11515063Y-12472436D02*
X11505539Y-12453388D01*
X11505539Y-12453388D02*
X11496015Y-12415293D01*
X11496015Y-12415293D02*
X11496015Y-12367674D01*
X11496015Y-12367674D02*
X11505539Y-12329579D01*
X11505539Y-12329579D02*
X11515063Y-12310531D01*
X11515063Y-12310531D02*
X11524586Y-12301008D01*
X11524586Y-12301008D02*
X11543634Y-12291484D01*
X11696015Y-12472436D02*
X11705539Y-12481960D01*
X11705539Y-12481960D02*
X11696015Y-12491484D01*
X11696015Y-12491484D02*
X11686491Y-12481960D01*
X11686491Y-12481960D02*
X11696015Y-12472436D01*
X11696015Y-12472436D02*
X11696015Y-12491484D01*
X11829348Y-12291484D02*
X11848396Y-12291484D01*
X11848396Y-12291484D02*
X11867444Y-12301008D01*
X11867444Y-12301008D02*
X11876967Y-12310531D01*
X11876967Y-12310531D02*
X11886491Y-12329579D01*
X11886491Y-12329579D02*
X11896015Y-12367674D01*
X11896015Y-12367674D02*
X11896015Y-12415293D01*
X11896015Y-12415293D02*
X11886491Y-12453388D01*
X11886491Y-12453388D02*
X11876967Y-12472436D01*
X11876967Y-12472436D02*
X11867444Y-12481960D01*
X11867444Y-12481960D02*
X11848396Y-12491484D01*
X11848396Y-12491484D02*
X11829348Y-12491484D01*
X11829348Y-12491484D02*
X11810301Y-12481960D01*
X11810301Y-12481960D02*
X11800777Y-12472436D01*
X11800777Y-12472436D02*
X11791253Y-12453388D01*
X11791253Y-12453388D02*
X11781729Y-12415293D01*
X11781729Y-12415293D02*
X11781729Y-12367674D01*
X11781729Y-12367674D02*
X11791253Y-12329579D01*
X11791253Y-12329579D02*
X11800777Y-12310531D01*
X11800777Y-12310531D02*
X11810301Y-12301008D01*
X11810301Y-12301008D02*
X11829348Y-12291484D01*
X12086491Y-12491484D02*
X11972206Y-12491484D01*
X12029348Y-12491484D02*
X12029348Y-12291484D01*
X12029348Y-12291484D02*
X12010301Y-12320055D01*
X12010301Y-12320055D02*
X11991253Y-12339103D01*
X11991253Y-12339103D02*
X11972206Y-12348627D01*
X12267444Y-12291484D02*
X12172206Y-12291484D01*
X12172206Y-12291484D02*
X12162682Y-12386722D01*
X12162682Y-12386722D02*
X12172206Y-12377198D01*
X12172206Y-12377198D02*
X12191253Y-12367674D01*
X12191253Y-12367674D02*
X12238872Y-12367674D01*
X12238872Y-12367674D02*
X12257920Y-12377198D01*
X12257920Y-12377198D02*
X12267444Y-12386722D01*
X12267444Y-12386722D02*
X12276967Y-12405769D01*
X12276967Y-12405769D02*
X12276967Y-12453388D01*
X12276967Y-12453388D02*
X12267444Y-12472436D01*
X12267444Y-12472436D02*
X12257920Y-12481960D01*
X12257920Y-12481960D02*
X12238872Y-12491484D01*
X12238872Y-12491484D02*
X12191253Y-12491484D01*
X12191253Y-12491484D02*
X12172206Y-12481960D01*
X12172206Y-12481960D02*
X12162682Y-12472436D01*
X12343634Y-12291484D02*
X12476967Y-12291484D01*
X12476967Y-12291484D02*
X12391253Y-12491484D01*
X12543634Y-12291484D02*
X12543634Y-12329579D01*
X12619825Y-12291484D02*
X12619825Y-12329579D01*
X12915063Y-12567674D02*
X12905539Y-12558150D01*
X12905539Y-12558150D02*
X12886491Y-12529579D01*
X12886491Y-12529579D02*
X12876968Y-12510531D01*
X12876968Y-12510531D02*
X12867444Y-12481960D01*
X12867444Y-12481960D02*
X12857920Y-12434341D01*
X12857920Y-12434341D02*
X12857920Y-12396246D01*
X12857920Y-12396246D02*
X12867444Y-12348627D01*
X12867444Y-12348627D02*
X12876968Y-12320055D01*
X12876968Y-12320055D02*
X12886491Y-12301008D01*
X12886491Y-12301008D02*
X12905539Y-12272436D01*
X12905539Y-12272436D02*
X12915063Y-12262912D01*
X13096015Y-12491484D02*
X12981729Y-12491484D01*
X13038872Y-12491484D02*
X13038872Y-12291484D01*
X13038872Y-12291484D02*
X13019825Y-12320055D01*
X13019825Y-12320055D02*
X13000777Y-12339103D01*
X13000777Y-12339103D02*
X12981729Y-12348627D01*
X13162682Y-12291484D02*
X13286491Y-12291484D01*
X13286491Y-12291484D02*
X13219825Y-12367674D01*
X13219825Y-12367674D02*
X13248396Y-12367674D01*
X13248396Y-12367674D02*
X13267444Y-12377198D01*
X13267444Y-12377198D02*
X13276968Y-12386722D01*
X13276968Y-12386722D02*
X13286491Y-12405769D01*
X13286491Y-12405769D02*
X13286491Y-12453388D01*
X13286491Y-12453388D02*
X13276968Y-12472436D01*
X13276968Y-12472436D02*
X13267444Y-12481960D01*
X13267444Y-12481960D02*
X13248396Y-12491484D01*
X13248396Y-12491484D02*
X13191253Y-12491484D01*
X13191253Y-12491484D02*
X13172206Y-12481960D01*
X13172206Y-12481960D02*
X13162682Y-12472436D01*
X13410301Y-12291484D02*
X13429349Y-12291484D01*
X13429349Y-12291484D02*
X13448396Y-12301008D01*
X13448396Y-12301008D02*
X13457920Y-12310531D01*
X13457920Y-12310531D02*
X13467444Y-12329579D01*
X13467444Y-12329579D02*
X13476968Y-12367674D01*
X13476968Y-12367674D02*
X13476968Y-12415293D01*
X13476968Y-12415293D02*
X13467444Y-12453388D01*
X13467444Y-12453388D02*
X13457920Y-12472436D01*
X13457920Y-12472436D02*
X13448396Y-12481960D01*
X13448396Y-12481960D02*
X13429349Y-12491484D01*
X13429349Y-12491484D02*
X13410301Y-12491484D01*
X13410301Y-12491484D02*
X13391253Y-12481960D01*
X13391253Y-12481960D02*
X13381729Y-12472436D01*
X13381729Y-12472436D02*
X13372206Y-12453388D01*
X13372206Y-12453388D02*
X13362682Y-12415293D01*
X13362682Y-12415293D02*
X13362682Y-12367674D01*
X13362682Y-12367674D02*
X13372206Y-12329579D01*
X13372206Y-12329579D02*
X13381729Y-12310531D01*
X13381729Y-12310531D02*
X13391253Y-12301008D01*
X13391253Y-12301008D02*
X13410301Y-12291484D01*
X13715063Y-12491484D02*
X13715063Y-12291484D01*
X13800777Y-12491484D02*
X13800777Y-12386722D01*
X13800777Y-12386722D02*
X13791253Y-12367674D01*
X13791253Y-12367674D02*
X13772206Y-12358150D01*
X13772206Y-12358150D02*
X13743634Y-12358150D01*
X13743634Y-12358150D02*
X13724587Y-12367674D01*
X13724587Y-12367674D02*
X13715063Y-12377198D01*
X13924587Y-12491484D02*
X13905539Y-12481960D01*
X13905539Y-12481960D02*
X13896015Y-12472436D01*
X13896015Y-12472436D02*
X13886491Y-12453388D01*
X13886491Y-12453388D02*
X13886491Y-12396246D01*
X13886491Y-12396246D02*
X13896015Y-12377198D01*
X13896015Y-12377198D02*
X13905539Y-12367674D01*
X13905539Y-12367674D02*
X13924587Y-12358150D01*
X13924587Y-12358150D02*
X13953158Y-12358150D01*
X13953158Y-12358150D02*
X13972206Y-12367674D01*
X13972206Y-12367674D02*
X13981730Y-12377198D01*
X13981730Y-12377198D02*
X13991253Y-12396246D01*
X13991253Y-12396246D02*
X13991253Y-12453388D01*
X13991253Y-12453388D02*
X13981730Y-12472436D01*
X13981730Y-12472436D02*
X13972206Y-12481960D01*
X13972206Y-12481960D02*
X13953158Y-12491484D01*
X13953158Y-12491484D02*
X13924587Y-12491484D01*
X14105539Y-12491484D02*
X14086491Y-12481960D01*
X14086491Y-12481960D02*
X14076968Y-12462912D01*
X14076968Y-12462912D02*
X14076968Y-12291484D01*
X14257920Y-12481960D02*
X14238872Y-12491484D01*
X14238872Y-12491484D02*
X14200777Y-12491484D01*
X14200777Y-12491484D02*
X14181730Y-12481960D01*
X14181730Y-12481960D02*
X14172206Y-12462912D01*
X14172206Y-12462912D02*
X14172206Y-12386722D01*
X14172206Y-12386722D02*
X14181730Y-12367674D01*
X14181730Y-12367674D02*
X14200777Y-12358150D01*
X14200777Y-12358150D02*
X14238872Y-12358150D01*
X14238872Y-12358150D02*
X14257920Y-12367674D01*
X14257920Y-12367674D02*
X14267444Y-12386722D01*
X14267444Y-12386722D02*
X14267444Y-12405769D01*
X14267444Y-12405769D02*
X14172206Y-12424817D01*
X14343634Y-12481960D02*
X14362682Y-12491484D01*
X14362682Y-12491484D02*
X14400777Y-12491484D01*
X14400777Y-12491484D02*
X14419825Y-12481960D01*
X14419825Y-12481960D02*
X14429349Y-12462912D01*
X14429349Y-12462912D02*
X14429349Y-12453388D01*
X14429349Y-12453388D02*
X14419825Y-12434341D01*
X14419825Y-12434341D02*
X14400777Y-12424817D01*
X14400777Y-12424817D02*
X14372206Y-12424817D01*
X14372206Y-12424817D02*
X14353158Y-12415293D01*
X14353158Y-12415293D02*
X14343634Y-12396246D01*
X14343634Y-12396246D02*
X14343634Y-12386722D01*
X14343634Y-12386722D02*
X14353158Y-12367674D01*
X14353158Y-12367674D02*
X14372206Y-12358150D01*
X14372206Y-12358150D02*
X14400777Y-12358150D01*
X14400777Y-12358150D02*
X14419825Y-12367674D01*
X14496015Y-12567674D02*
X14505539Y-12558150D01*
X14505539Y-12558150D02*
X14524587Y-12529579D01*
X14524587Y-12529579D02*
X14534111Y-12510531D01*
X14534111Y-12510531D02*
X14543634Y-12481960D01*
X14543634Y-12481960D02*
X14553158Y-12434341D01*
X14553158Y-12434341D02*
X14553158Y-12396246D01*
X14553158Y-12396246D02*
X14543634Y-12348627D01*
X14543634Y-12348627D02*
X14534111Y-12320055D01*
X14534111Y-12320055D02*
X14524587Y-12301008D01*
X14524587Y-12301008D02*
X14505539Y-12272436D01*
X14505539Y-12272436D02*
X14496015Y-12262912D01*
D11*
X9340000Y-12664000D02*
G75*
G02*
X9265000Y-12664000I-37500J0D01*
G01*
X9265000Y-12664000D02*
G75*
G02*
X9340000Y-12664000I37500J0D01*
G01*
D10*
X9638872Y-12555484D02*
X9657920Y-12555484D01*
X9657920Y-12555484D02*
X9676967Y-12565008D01*
X9676967Y-12565008D02*
X9686491Y-12574531D01*
X9686491Y-12574531D02*
X9696015Y-12593579D01*
X9696015Y-12593579D02*
X9705539Y-12631674D01*
X9705539Y-12631674D02*
X9705539Y-12679293D01*
X9705539Y-12679293D02*
X9696015Y-12717388D01*
X9696015Y-12717388D02*
X9686491Y-12736436D01*
X9686491Y-12736436D02*
X9676967Y-12745960D01*
X9676967Y-12745960D02*
X9657920Y-12755484D01*
X9657920Y-12755484D02*
X9638872Y-12755484D01*
X9638872Y-12755484D02*
X9619824Y-12745960D01*
X9619824Y-12745960D02*
X9610301Y-12736436D01*
X9610301Y-12736436D02*
X9600777Y-12717388D01*
X9600777Y-12717388D02*
X9591253Y-12679293D01*
X9591253Y-12679293D02*
X9591253Y-12631674D01*
X9591253Y-12631674D02*
X9600777Y-12593579D01*
X9600777Y-12593579D02*
X9610301Y-12574531D01*
X9610301Y-12574531D02*
X9619824Y-12565008D01*
X9619824Y-12565008D02*
X9638872Y-12555484D01*
X9791253Y-12736436D02*
X9800777Y-12745960D01*
X9800777Y-12745960D02*
X9791253Y-12755484D01*
X9791253Y-12755484D02*
X9781729Y-12745960D01*
X9781729Y-12745960D02*
X9791253Y-12736436D01*
X9791253Y-12736436D02*
X9791253Y-12755484D01*
X9867444Y-12555484D02*
X10000777Y-12555484D01*
X10000777Y-12555484D02*
X9915063Y-12755484D01*
X10172205Y-12555484D02*
X10076967Y-12555484D01*
X10076967Y-12555484D02*
X10067444Y-12650722D01*
X10067444Y-12650722D02*
X10076967Y-12641198D01*
X10076967Y-12641198D02*
X10096015Y-12631674D01*
X10096015Y-12631674D02*
X10143634Y-12631674D01*
X10143634Y-12631674D02*
X10162682Y-12641198D01*
X10162682Y-12641198D02*
X10172205Y-12650722D01*
X10172205Y-12650722D02*
X10181729Y-12669769D01*
X10181729Y-12669769D02*
X10181729Y-12717388D01*
X10181729Y-12717388D02*
X10172205Y-12736436D01*
X10172205Y-12736436D02*
X10162682Y-12745960D01*
X10162682Y-12745960D02*
X10143634Y-12755484D01*
X10143634Y-12755484D02*
X10096015Y-12755484D01*
X10096015Y-12755484D02*
X10076967Y-12745960D01*
X10076967Y-12745960D02*
X10067444Y-12736436D01*
X10305539Y-12555484D02*
X10324586Y-12555484D01*
X10324586Y-12555484D02*
X10343634Y-12565008D01*
X10343634Y-12565008D02*
X10353158Y-12574531D01*
X10353158Y-12574531D02*
X10362682Y-12593579D01*
X10362682Y-12593579D02*
X10372205Y-12631674D01*
X10372205Y-12631674D02*
X10372205Y-12679293D01*
X10372205Y-12679293D02*
X10362682Y-12717388D01*
X10362682Y-12717388D02*
X10353158Y-12736436D01*
X10353158Y-12736436D02*
X10343634Y-12745960D01*
X10343634Y-12745960D02*
X10324586Y-12755484D01*
X10324586Y-12755484D02*
X10305539Y-12755484D01*
X10305539Y-12755484D02*
X10286491Y-12745960D01*
X10286491Y-12745960D02*
X10276967Y-12736436D01*
X10276967Y-12736436D02*
X10267444Y-12717388D01*
X10267444Y-12717388D02*
X10257920Y-12679293D01*
X10257920Y-12679293D02*
X10257920Y-12631674D01*
X10257920Y-12631674D02*
X10267444Y-12593579D01*
X10267444Y-12593579D02*
X10276967Y-12574531D01*
X10276967Y-12574531D02*
X10286491Y-12565008D01*
X10286491Y-12565008D02*
X10305539Y-12555484D01*
X10457920Y-12755484D02*
X10457920Y-12622150D01*
X10457920Y-12641198D02*
X10467444Y-12631674D01*
X10467444Y-12631674D02*
X10486491Y-12622150D01*
X10486491Y-12622150D02*
X10515063Y-12622150D01*
X10515063Y-12622150D02*
X10534110Y-12631674D01*
X10534110Y-12631674D02*
X10543634Y-12650722D01*
X10543634Y-12650722D02*
X10543634Y-12755484D01*
X10543634Y-12650722D02*
X10553158Y-12631674D01*
X10553158Y-12631674D02*
X10572205Y-12622150D01*
X10572205Y-12622150D02*
X10600777Y-12622150D01*
X10600777Y-12622150D02*
X10619825Y-12631674D01*
X10619825Y-12631674D02*
X10629348Y-12650722D01*
X10629348Y-12650722D02*
X10629348Y-12755484D01*
X10724586Y-12755484D02*
X10724586Y-12622150D01*
X10724586Y-12641198D02*
X10734110Y-12631674D01*
X10734110Y-12631674D02*
X10753158Y-12622150D01*
X10753158Y-12622150D02*
X10781729Y-12622150D01*
X10781729Y-12622150D02*
X10800777Y-12631674D01*
X10800777Y-12631674D02*
X10810301Y-12650722D01*
X10810301Y-12650722D02*
X10810301Y-12755484D01*
X10810301Y-12650722D02*
X10819825Y-12631674D01*
X10819825Y-12631674D02*
X10838872Y-12622150D01*
X10838872Y-12622150D02*
X10867444Y-12622150D01*
X10867444Y-12622150D02*
X10886491Y-12631674D01*
X10886491Y-12631674D02*
X10896015Y-12650722D01*
X10896015Y-12650722D02*
X10896015Y-12755484D01*
X11286491Y-12545960D02*
X11115063Y-12803103D01*
X11543634Y-12555484D02*
X11562682Y-12555484D01*
X11562682Y-12555484D02*
X11581729Y-12565008D01*
X11581729Y-12565008D02*
X11591253Y-12574531D01*
X11591253Y-12574531D02*
X11600777Y-12593579D01*
X11600777Y-12593579D02*
X11610301Y-12631674D01*
X11610301Y-12631674D02*
X11610301Y-12679293D01*
X11610301Y-12679293D02*
X11600777Y-12717388D01*
X11600777Y-12717388D02*
X11591253Y-12736436D01*
X11591253Y-12736436D02*
X11581729Y-12745960D01*
X11581729Y-12745960D02*
X11562682Y-12755484D01*
X11562682Y-12755484D02*
X11543634Y-12755484D01*
X11543634Y-12755484D02*
X11524586Y-12745960D01*
X11524586Y-12745960D02*
X11515063Y-12736436D01*
X11515063Y-12736436D02*
X11505539Y-12717388D01*
X11505539Y-12717388D02*
X11496015Y-12679293D01*
X11496015Y-12679293D02*
X11496015Y-12631674D01*
X11496015Y-12631674D02*
X11505539Y-12593579D01*
X11505539Y-12593579D02*
X11515063Y-12574531D01*
X11515063Y-12574531D02*
X11524586Y-12565008D01*
X11524586Y-12565008D02*
X11543634Y-12555484D01*
X11696015Y-12736436D02*
X11705539Y-12745960D01*
X11705539Y-12745960D02*
X11696015Y-12755484D01*
X11696015Y-12755484D02*
X11686491Y-12745960D01*
X11686491Y-12745960D02*
X11696015Y-12736436D01*
X11696015Y-12736436D02*
X11696015Y-12755484D01*
X11829348Y-12555484D02*
X11848396Y-12555484D01*
X11848396Y-12555484D02*
X11867444Y-12565008D01*
X11867444Y-12565008D02*
X11876967Y-12574531D01*
X11876967Y-12574531D02*
X11886491Y-12593579D01*
X11886491Y-12593579D02*
X11896015Y-12631674D01*
X11896015Y-12631674D02*
X11896015Y-12679293D01*
X11896015Y-12679293D02*
X11886491Y-12717388D01*
X11886491Y-12717388D02*
X11876967Y-12736436D01*
X11876967Y-12736436D02*
X11867444Y-12745960D01*
X11867444Y-12745960D02*
X11848396Y-12755484D01*
X11848396Y-12755484D02*
X11829348Y-12755484D01*
X11829348Y-12755484D02*
X11810301Y-12745960D01*
X11810301Y-12745960D02*
X11800777Y-12736436D01*
X11800777Y-12736436D02*
X11791253Y-12717388D01*
X11791253Y-12717388D02*
X11781729Y-12679293D01*
X11781729Y-12679293D02*
X11781729Y-12631674D01*
X11781729Y-12631674D02*
X11791253Y-12593579D01*
X11791253Y-12593579D02*
X11800777Y-12574531D01*
X11800777Y-12574531D02*
X11810301Y-12565008D01*
X11810301Y-12565008D02*
X11829348Y-12555484D01*
X11972206Y-12574531D02*
X11981729Y-12565008D01*
X11981729Y-12565008D02*
X12000777Y-12555484D01*
X12000777Y-12555484D02*
X12048396Y-12555484D01*
X12048396Y-12555484D02*
X12067444Y-12565008D01*
X12067444Y-12565008D02*
X12076967Y-12574531D01*
X12076967Y-12574531D02*
X12086491Y-12593579D01*
X12086491Y-12593579D02*
X12086491Y-12612627D01*
X12086491Y-12612627D02*
X12076967Y-12641198D01*
X12076967Y-12641198D02*
X11962682Y-12755484D01*
X11962682Y-12755484D02*
X12086491Y-12755484D01*
X12181729Y-12755484D02*
X12219825Y-12755484D01*
X12219825Y-12755484D02*
X12238872Y-12745960D01*
X12238872Y-12745960D02*
X12248396Y-12736436D01*
X12248396Y-12736436D02*
X12267444Y-12707865D01*
X12267444Y-12707865D02*
X12276967Y-12669769D01*
X12276967Y-12669769D02*
X12276967Y-12593579D01*
X12276967Y-12593579D02*
X12267444Y-12574531D01*
X12267444Y-12574531D02*
X12257920Y-12565008D01*
X12257920Y-12565008D02*
X12238872Y-12555484D01*
X12238872Y-12555484D02*
X12200777Y-12555484D01*
X12200777Y-12555484D02*
X12181729Y-12565008D01*
X12181729Y-12565008D02*
X12172206Y-12574531D01*
X12172206Y-12574531D02*
X12162682Y-12593579D01*
X12162682Y-12593579D02*
X12162682Y-12641198D01*
X12162682Y-12641198D02*
X12172206Y-12660246D01*
X12172206Y-12660246D02*
X12181729Y-12669769D01*
X12181729Y-12669769D02*
X12200777Y-12679293D01*
X12200777Y-12679293D02*
X12238872Y-12679293D01*
X12238872Y-12679293D02*
X12257920Y-12669769D01*
X12257920Y-12669769D02*
X12267444Y-12660246D01*
X12267444Y-12660246D02*
X12276967Y-12641198D01*
X12457920Y-12555484D02*
X12362682Y-12555484D01*
X12362682Y-12555484D02*
X12353158Y-12650722D01*
X12353158Y-12650722D02*
X12362682Y-12641198D01*
X12362682Y-12641198D02*
X12381729Y-12631674D01*
X12381729Y-12631674D02*
X12429348Y-12631674D01*
X12429348Y-12631674D02*
X12448396Y-12641198D01*
X12448396Y-12641198D02*
X12457920Y-12650722D01*
X12457920Y-12650722D02*
X12467444Y-12669769D01*
X12467444Y-12669769D02*
X12467444Y-12717388D01*
X12467444Y-12717388D02*
X12457920Y-12736436D01*
X12457920Y-12736436D02*
X12448396Y-12745960D01*
X12448396Y-12745960D02*
X12429348Y-12755484D01*
X12429348Y-12755484D02*
X12381729Y-12755484D01*
X12381729Y-12755484D02*
X12362682Y-12745960D01*
X12362682Y-12745960D02*
X12353158Y-12736436D01*
X12543634Y-12555484D02*
X12543634Y-12593579D01*
X12619825Y-12555484D02*
X12619825Y-12593579D01*
X12915063Y-12831674D02*
X12905539Y-12822150D01*
X12905539Y-12822150D02*
X12886491Y-12793579D01*
X12886491Y-12793579D02*
X12876968Y-12774531D01*
X12876968Y-12774531D02*
X12867444Y-12745960D01*
X12867444Y-12745960D02*
X12857920Y-12698341D01*
X12857920Y-12698341D02*
X12857920Y-12660246D01*
X12857920Y-12660246D02*
X12867444Y-12612627D01*
X12867444Y-12612627D02*
X12876968Y-12584055D01*
X12876968Y-12584055D02*
X12886491Y-12565008D01*
X12886491Y-12565008D02*
X12905539Y-12536436D01*
X12905539Y-12536436D02*
X12915063Y-12526912D01*
X13019825Y-12641198D02*
X13000777Y-12631674D01*
X13000777Y-12631674D02*
X12991253Y-12622150D01*
X12991253Y-12622150D02*
X12981729Y-12603103D01*
X12981729Y-12603103D02*
X12981729Y-12593579D01*
X12981729Y-12593579D02*
X12991253Y-12574531D01*
X12991253Y-12574531D02*
X13000777Y-12565008D01*
X13000777Y-12565008D02*
X13019825Y-12555484D01*
X13019825Y-12555484D02*
X13057920Y-12555484D01*
X13057920Y-12555484D02*
X13076968Y-12565008D01*
X13076968Y-12565008D02*
X13086491Y-12574531D01*
X13086491Y-12574531D02*
X13096015Y-12593579D01*
X13096015Y-12593579D02*
X13096015Y-12603103D01*
X13096015Y-12603103D02*
X13086491Y-12622150D01*
X13086491Y-12622150D02*
X13076968Y-12631674D01*
X13076968Y-12631674D02*
X13057920Y-12641198D01*
X13057920Y-12641198D02*
X13019825Y-12641198D01*
X13019825Y-12641198D02*
X13000777Y-12650722D01*
X13000777Y-12650722D02*
X12991253Y-12660246D01*
X12991253Y-12660246D02*
X12981729Y-12679293D01*
X12981729Y-12679293D02*
X12981729Y-12717388D01*
X12981729Y-12717388D02*
X12991253Y-12736436D01*
X12991253Y-12736436D02*
X13000777Y-12745960D01*
X13000777Y-12745960D02*
X13019825Y-12755484D01*
X13019825Y-12755484D02*
X13057920Y-12755484D01*
X13057920Y-12755484D02*
X13076968Y-12745960D01*
X13076968Y-12745960D02*
X13086491Y-12736436D01*
X13086491Y-12736436D02*
X13096015Y-12717388D01*
X13096015Y-12717388D02*
X13096015Y-12679293D01*
X13096015Y-12679293D02*
X13086491Y-12660246D01*
X13086491Y-12660246D02*
X13076968Y-12650722D01*
X13076968Y-12650722D02*
X13057920Y-12641198D01*
X13334110Y-12755484D02*
X13334110Y-12555484D01*
X13419825Y-12755484D02*
X13419825Y-12650722D01*
X13419825Y-12650722D02*
X13410301Y-12631674D01*
X13410301Y-12631674D02*
X13391253Y-12622150D01*
X13391253Y-12622150D02*
X13362682Y-12622150D01*
X13362682Y-12622150D02*
X13343634Y-12631674D01*
X13343634Y-12631674D02*
X13334110Y-12641198D01*
X13543634Y-12755484D02*
X13524587Y-12745960D01*
X13524587Y-12745960D02*
X13515063Y-12736436D01*
X13515063Y-12736436D02*
X13505539Y-12717388D01*
X13505539Y-12717388D02*
X13505539Y-12660246D01*
X13505539Y-12660246D02*
X13515063Y-12641198D01*
X13515063Y-12641198D02*
X13524587Y-12631674D01*
X13524587Y-12631674D02*
X13543634Y-12622150D01*
X13543634Y-12622150D02*
X13572206Y-12622150D01*
X13572206Y-12622150D02*
X13591253Y-12631674D01*
X13591253Y-12631674D02*
X13600777Y-12641198D01*
X13600777Y-12641198D02*
X13610301Y-12660246D01*
X13610301Y-12660246D02*
X13610301Y-12717388D01*
X13610301Y-12717388D02*
X13600777Y-12736436D01*
X13600777Y-12736436D02*
X13591253Y-12745960D01*
X13591253Y-12745960D02*
X13572206Y-12755484D01*
X13572206Y-12755484D02*
X13543634Y-12755484D01*
X13724587Y-12755484D02*
X13705539Y-12745960D01*
X13705539Y-12745960D02*
X13696015Y-12726912D01*
X13696015Y-12726912D02*
X13696015Y-12555484D01*
X13876968Y-12745960D02*
X13857920Y-12755484D01*
X13857920Y-12755484D02*
X13819825Y-12755484D01*
X13819825Y-12755484D02*
X13800777Y-12745960D01*
X13800777Y-12745960D02*
X13791253Y-12726912D01*
X13791253Y-12726912D02*
X13791253Y-12650722D01*
X13791253Y-12650722D02*
X13800777Y-12631674D01*
X13800777Y-12631674D02*
X13819825Y-12622150D01*
X13819825Y-12622150D02*
X13857920Y-12622150D01*
X13857920Y-12622150D02*
X13876968Y-12631674D01*
X13876968Y-12631674D02*
X13886491Y-12650722D01*
X13886491Y-12650722D02*
X13886491Y-12669769D01*
X13886491Y-12669769D02*
X13791253Y-12688817D01*
X13962682Y-12745960D02*
X13981730Y-12755484D01*
X13981730Y-12755484D02*
X14019825Y-12755484D01*
X14019825Y-12755484D02*
X14038872Y-12745960D01*
X14038872Y-12745960D02*
X14048396Y-12726912D01*
X14048396Y-12726912D02*
X14048396Y-12717388D01*
X14048396Y-12717388D02*
X14038872Y-12698341D01*
X14038872Y-12698341D02*
X14019825Y-12688817D01*
X14019825Y-12688817D02*
X13991253Y-12688817D01*
X13991253Y-12688817D02*
X13972206Y-12679293D01*
X13972206Y-12679293D02*
X13962682Y-12660246D01*
X13962682Y-12660246D02*
X13962682Y-12650722D01*
X13962682Y-12650722D02*
X13972206Y-12631674D01*
X13972206Y-12631674D02*
X13991253Y-12622150D01*
X13991253Y-12622150D02*
X14019825Y-12622150D01*
X14019825Y-12622150D02*
X14038872Y-12631674D01*
X14115063Y-12831674D02*
X14124587Y-12822150D01*
X14124587Y-12822150D02*
X14143634Y-12793579D01*
X14143634Y-12793579D02*
X14153158Y-12774531D01*
X14153158Y-12774531D02*
X14162682Y-12745960D01*
X14162682Y-12745960D02*
X14172206Y-12698341D01*
X14172206Y-12698341D02*
X14172206Y-12660246D01*
X14172206Y-12660246D02*
X14162682Y-12612627D01*
X14162682Y-12612627D02*
X14153158Y-12584055D01*
X14153158Y-12584055D02*
X14143634Y-12565008D01*
X14143634Y-12565008D02*
X14124587Y-12536436D01*
X14124587Y-12536436D02*
X14115063Y-12526912D01*
D11*
X9300000Y-12888000D02*
X9300000Y-12968000D01*
X9260000Y-12928000D02*
X9340000Y-12928000D01*
D10*
X9638872Y-12819484D02*
X9657920Y-12819484D01*
X9657920Y-12819484D02*
X9676967Y-12829008D01*
X9676967Y-12829008D02*
X9686491Y-12838531D01*
X9686491Y-12838531D02*
X9696015Y-12857579D01*
X9696015Y-12857579D02*
X9705539Y-12895674D01*
X9705539Y-12895674D02*
X9705539Y-12943293D01*
X9705539Y-12943293D02*
X9696015Y-12981388D01*
X9696015Y-12981388D02*
X9686491Y-13000436D01*
X9686491Y-13000436D02*
X9676967Y-13009960D01*
X9676967Y-13009960D02*
X9657920Y-13019484D01*
X9657920Y-13019484D02*
X9638872Y-13019484D01*
X9638872Y-13019484D02*
X9619824Y-13009960D01*
X9619824Y-13009960D02*
X9610301Y-13000436D01*
X9610301Y-13000436D02*
X9600777Y-12981388D01*
X9600777Y-12981388D02*
X9591253Y-12943293D01*
X9591253Y-12943293D02*
X9591253Y-12895674D01*
X9591253Y-12895674D02*
X9600777Y-12857579D01*
X9600777Y-12857579D02*
X9610301Y-12838531D01*
X9610301Y-12838531D02*
X9619824Y-12829008D01*
X9619824Y-12829008D02*
X9638872Y-12819484D01*
X9791253Y-13000436D02*
X9800777Y-13009960D01*
X9800777Y-13009960D02*
X9791253Y-13019484D01*
X9791253Y-13019484D02*
X9781729Y-13009960D01*
X9781729Y-13009960D02*
X9791253Y-13000436D01*
X9791253Y-13000436D02*
X9791253Y-13019484D01*
X9915063Y-12905198D02*
X9896015Y-12895674D01*
X9896015Y-12895674D02*
X9886491Y-12886150D01*
X9886491Y-12886150D02*
X9876967Y-12867103D01*
X9876967Y-12867103D02*
X9876967Y-12857579D01*
X9876967Y-12857579D02*
X9886491Y-12838531D01*
X9886491Y-12838531D02*
X9896015Y-12829008D01*
X9896015Y-12829008D02*
X9915063Y-12819484D01*
X9915063Y-12819484D02*
X9953158Y-12819484D01*
X9953158Y-12819484D02*
X9972205Y-12829008D01*
X9972205Y-12829008D02*
X9981729Y-12838531D01*
X9981729Y-12838531D02*
X9991253Y-12857579D01*
X9991253Y-12857579D02*
X9991253Y-12867103D01*
X9991253Y-12867103D02*
X9981729Y-12886150D01*
X9981729Y-12886150D02*
X9972205Y-12895674D01*
X9972205Y-12895674D02*
X9953158Y-12905198D01*
X9953158Y-12905198D02*
X9915063Y-12905198D01*
X9915063Y-12905198D02*
X9896015Y-12914722D01*
X9896015Y-12914722D02*
X9886491Y-12924246D01*
X9886491Y-12924246D02*
X9876967Y-12943293D01*
X9876967Y-12943293D02*
X9876967Y-12981388D01*
X9876967Y-12981388D02*
X9886491Y-13000436D01*
X9886491Y-13000436D02*
X9896015Y-13009960D01*
X9896015Y-13009960D02*
X9915063Y-13019484D01*
X9915063Y-13019484D02*
X9953158Y-13019484D01*
X9953158Y-13019484D02*
X9972205Y-13009960D01*
X9972205Y-13009960D02*
X9981729Y-13000436D01*
X9981729Y-13000436D02*
X9991253Y-12981388D01*
X9991253Y-12981388D02*
X9991253Y-12943293D01*
X9991253Y-12943293D02*
X9981729Y-12924246D01*
X9981729Y-12924246D02*
X9972205Y-12914722D01*
X9972205Y-12914722D02*
X9953158Y-12905198D01*
X10115063Y-12819484D02*
X10134110Y-12819484D01*
X10134110Y-12819484D02*
X10153158Y-12829008D01*
X10153158Y-12829008D02*
X10162682Y-12838531D01*
X10162682Y-12838531D02*
X10172205Y-12857579D01*
X10172205Y-12857579D02*
X10181729Y-12895674D01*
X10181729Y-12895674D02*
X10181729Y-12943293D01*
X10181729Y-12943293D02*
X10172205Y-12981388D01*
X10172205Y-12981388D02*
X10162682Y-13000436D01*
X10162682Y-13000436D02*
X10153158Y-13009960D01*
X10153158Y-13009960D02*
X10134110Y-13019484D01*
X10134110Y-13019484D02*
X10115063Y-13019484D01*
X10115063Y-13019484D02*
X10096015Y-13009960D01*
X10096015Y-13009960D02*
X10086491Y-13000436D01*
X10086491Y-13000436D02*
X10076967Y-12981388D01*
X10076967Y-12981388D02*
X10067444Y-12943293D01*
X10067444Y-12943293D02*
X10067444Y-12895674D01*
X10067444Y-12895674D02*
X10076967Y-12857579D01*
X10076967Y-12857579D02*
X10086491Y-12838531D01*
X10086491Y-12838531D02*
X10096015Y-12829008D01*
X10096015Y-12829008D02*
X10115063Y-12819484D01*
X10305539Y-12819484D02*
X10324586Y-12819484D01*
X10324586Y-12819484D02*
X10343634Y-12829008D01*
X10343634Y-12829008D02*
X10353158Y-12838531D01*
X10353158Y-12838531D02*
X10362682Y-12857579D01*
X10362682Y-12857579D02*
X10372205Y-12895674D01*
X10372205Y-12895674D02*
X10372205Y-12943293D01*
X10372205Y-12943293D02*
X10362682Y-12981388D01*
X10362682Y-12981388D02*
X10353158Y-13000436D01*
X10353158Y-13000436D02*
X10343634Y-13009960D01*
X10343634Y-13009960D02*
X10324586Y-13019484D01*
X10324586Y-13019484D02*
X10305539Y-13019484D01*
X10305539Y-13019484D02*
X10286491Y-13009960D01*
X10286491Y-13009960D02*
X10276967Y-13000436D01*
X10276967Y-13000436D02*
X10267444Y-12981388D01*
X10267444Y-12981388D02*
X10257920Y-12943293D01*
X10257920Y-12943293D02*
X10257920Y-12895674D01*
X10257920Y-12895674D02*
X10267444Y-12857579D01*
X10267444Y-12857579D02*
X10276967Y-12838531D01*
X10276967Y-12838531D02*
X10286491Y-12829008D01*
X10286491Y-12829008D02*
X10305539Y-12819484D01*
X10457920Y-13019484D02*
X10457920Y-12886150D01*
X10457920Y-12905198D02*
X10467444Y-12895674D01*
X10467444Y-12895674D02*
X10486491Y-12886150D01*
X10486491Y-12886150D02*
X10515063Y-12886150D01*
X10515063Y-12886150D02*
X10534110Y-12895674D01*
X10534110Y-12895674D02*
X10543634Y-12914722D01*
X10543634Y-12914722D02*
X10543634Y-13019484D01*
X10543634Y-12914722D02*
X10553158Y-12895674D01*
X10553158Y-12895674D02*
X10572205Y-12886150D01*
X10572205Y-12886150D02*
X10600777Y-12886150D01*
X10600777Y-12886150D02*
X10619825Y-12895674D01*
X10619825Y-12895674D02*
X10629348Y-12914722D01*
X10629348Y-12914722D02*
X10629348Y-13019484D01*
X10724586Y-13019484D02*
X10724586Y-12886150D01*
X10724586Y-12905198D02*
X10734110Y-12895674D01*
X10734110Y-12895674D02*
X10753158Y-12886150D01*
X10753158Y-12886150D02*
X10781729Y-12886150D01*
X10781729Y-12886150D02*
X10800777Y-12895674D01*
X10800777Y-12895674D02*
X10810301Y-12914722D01*
X10810301Y-12914722D02*
X10810301Y-13019484D01*
X10810301Y-12914722D02*
X10819825Y-12895674D01*
X10819825Y-12895674D02*
X10838872Y-12886150D01*
X10838872Y-12886150D02*
X10867444Y-12886150D01*
X10867444Y-12886150D02*
X10886491Y-12895674D01*
X10886491Y-12895674D02*
X10896015Y-12914722D01*
X10896015Y-12914722D02*
X10896015Y-13019484D01*
X11286491Y-12809960D02*
X11115063Y-13067103D01*
X11543634Y-12819484D02*
X11562682Y-12819484D01*
X11562682Y-12819484D02*
X11581729Y-12829008D01*
X11581729Y-12829008D02*
X11591253Y-12838531D01*
X11591253Y-12838531D02*
X11600777Y-12857579D01*
X11600777Y-12857579D02*
X11610301Y-12895674D01*
X11610301Y-12895674D02*
X11610301Y-12943293D01*
X11610301Y-12943293D02*
X11600777Y-12981388D01*
X11600777Y-12981388D02*
X11591253Y-13000436D01*
X11591253Y-13000436D02*
X11581729Y-13009960D01*
X11581729Y-13009960D02*
X11562682Y-13019484D01*
X11562682Y-13019484D02*
X11543634Y-13019484D01*
X11543634Y-13019484D02*
X11524586Y-13009960D01*
X11524586Y-13009960D02*
X11515063Y-13000436D01*
X11515063Y-13000436D02*
X11505539Y-12981388D01*
X11505539Y-12981388D02*
X11496015Y-12943293D01*
X11496015Y-12943293D02*
X11496015Y-12895674D01*
X11496015Y-12895674D02*
X11505539Y-12857579D01*
X11505539Y-12857579D02*
X11515063Y-12838531D01*
X11515063Y-12838531D02*
X11524586Y-12829008D01*
X11524586Y-12829008D02*
X11543634Y-12819484D01*
X11696015Y-13000436D02*
X11705539Y-13009960D01*
X11705539Y-13009960D02*
X11696015Y-13019484D01*
X11696015Y-13019484D02*
X11686491Y-13009960D01*
X11686491Y-13009960D02*
X11696015Y-13000436D01*
X11696015Y-13000436D02*
X11696015Y-13019484D01*
X11829348Y-12819484D02*
X11848396Y-12819484D01*
X11848396Y-12819484D02*
X11867444Y-12829008D01*
X11867444Y-12829008D02*
X11876967Y-12838531D01*
X11876967Y-12838531D02*
X11886491Y-12857579D01*
X11886491Y-12857579D02*
X11896015Y-12895674D01*
X11896015Y-12895674D02*
X11896015Y-12943293D01*
X11896015Y-12943293D02*
X11886491Y-12981388D01*
X11886491Y-12981388D02*
X11876967Y-13000436D01*
X11876967Y-13000436D02*
X11867444Y-13009960D01*
X11867444Y-13009960D02*
X11848396Y-13019484D01*
X11848396Y-13019484D02*
X11829348Y-13019484D01*
X11829348Y-13019484D02*
X11810301Y-13009960D01*
X11810301Y-13009960D02*
X11800777Y-13000436D01*
X11800777Y-13000436D02*
X11791253Y-12981388D01*
X11791253Y-12981388D02*
X11781729Y-12943293D01*
X11781729Y-12943293D02*
X11781729Y-12895674D01*
X11781729Y-12895674D02*
X11791253Y-12857579D01*
X11791253Y-12857579D02*
X11800777Y-12838531D01*
X11800777Y-12838531D02*
X11810301Y-12829008D01*
X11810301Y-12829008D02*
X11829348Y-12819484D01*
X11962682Y-12819484D02*
X12086491Y-12819484D01*
X12086491Y-12819484D02*
X12019825Y-12895674D01*
X12019825Y-12895674D02*
X12048396Y-12895674D01*
X12048396Y-12895674D02*
X12067444Y-12905198D01*
X12067444Y-12905198D02*
X12076967Y-12914722D01*
X12076967Y-12914722D02*
X12086491Y-12933769D01*
X12086491Y-12933769D02*
X12086491Y-12981388D01*
X12086491Y-12981388D02*
X12076967Y-13000436D01*
X12076967Y-13000436D02*
X12067444Y-13009960D01*
X12067444Y-13009960D02*
X12048396Y-13019484D01*
X12048396Y-13019484D02*
X11991253Y-13019484D01*
X11991253Y-13019484D02*
X11972206Y-13009960D01*
X11972206Y-13009960D02*
X11962682Y-13000436D01*
X12276967Y-13019484D02*
X12162682Y-13019484D01*
X12219825Y-13019484D02*
X12219825Y-12819484D01*
X12219825Y-12819484D02*
X12200777Y-12848055D01*
X12200777Y-12848055D02*
X12181729Y-12867103D01*
X12181729Y-12867103D02*
X12162682Y-12876627D01*
X12457920Y-12819484D02*
X12362682Y-12819484D01*
X12362682Y-12819484D02*
X12353158Y-12914722D01*
X12353158Y-12914722D02*
X12362682Y-12905198D01*
X12362682Y-12905198D02*
X12381729Y-12895674D01*
X12381729Y-12895674D02*
X12429348Y-12895674D01*
X12429348Y-12895674D02*
X12448396Y-12905198D01*
X12448396Y-12905198D02*
X12457920Y-12914722D01*
X12457920Y-12914722D02*
X12467444Y-12933769D01*
X12467444Y-12933769D02*
X12467444Y-12981388D01*
X12467444Y-12981388D02*
X12457920Y-13000436D01*
X12457920Y-13000436D02*
X12448396Y-13009960D01*
X12448396Y-13009960D02*
X12429348Y-13019484D01*
X12429348Y-13019484D02*
X12381729Y-13019484D01*
X12381729Y-13019484D02*
X12362682Y-13009960D01*
X12362682Y-13009960D02*
X12353158Y-13000436D01*
X12543634Y-12819484D02*
X12543634Y-12857579D01*
X12619825Y-12819484D02*
X12619825Y-12857579D01*
X12915063Y-13095674D02*
X12905539Y-13086150D01*
X12905539Y-13086150D02*
X12886491Y-13057579D01*
X12886491Y-13057579D02*
X12876968Y-13038531D01*
X12876968Y-13038531D02*
X12867444Y-13009960D01*
X12867444Y-13009960D02*
X12857920Y-12962341D01*
X12857920Y-12962341D02*
X12857920Y-12924246D01*
X12857920Y-12924246D02*
X12867444Y-12876627D01*
X12867444Y-12876627D02*
X12876968Y-12848055D01*
X12876968Y-12848055D02*
X12886491Y-12829008D01*
X12886491Y-12829008D02*
X12905539Y-12800436D01*
X12905539Y-12800436D02*
X12915063Y-12790912D01*
X13086491Y-12819484D02*
X12991253Y-12819484D01*
X12991253Y-12819484D02*
X12981729Y-12914722D01*
X12981729Y-12914722D02*
X12991253Y-12905198D01*
X12991253Y-12905198D02*
X13010301Y-12895674D01*
X13010301Y-12895674D02*
X13057920Y-12895674D01*
X13057920Y-12895674D02*
X13076968Y-12905198D01*
X13076968Y-12905198D02*
X13086491Y-12914722D01*
X13086491Y-12914722D02*
X13096015Y-12933769D01*
X13096015Y-12933769D02*
X13096015Y-12981388D01*
X13096015Y-12981388D02*
X13086491Y-13000436D01*
X13086491Y-13000436D02*
X13076968Y-13009960D01*
X13076968Y-13009960D02*
X13057920Y-13019484D01*
X13057920Y-13019484D02*
X13010301Y-13019484D01*
X13010301Y-13019484D02*
X12991253Y-13009960D01*
X12991253Y-13009960D02*
X12981729Y-13000436D01*
X13334110Y-13019484D02*
X13334110Y-12819484D01*
X13419825Y-13019484D02*
X13419825Y-12914722D01*
X13419825Y-12914722D02*
X13410301Y-12895674D01*
X13410301Y-12895674D02*
X13391253Y-12886150D01*
X13391253Y-12886150D02*
X13362682Y-12886150D01*
X13362682Y-12886150D02*
X13343634Y-12895674D01*
X13343634Y-12895674D02*
X13334110Y-12905198D01*
X13543634Y-13019484D02*
X13524587Y-13009960D01*
X13524587Y-13009960D02*
X13515063Y-13000436D01*
X13515063Y-13000436D02*
X13505539Y-12981388D01*
X13505539Y-12981388D02*
X13505539Y-12924246D01*
X13505539Y-12924246D02*
X13515063Y-12905198D01*
X13515063Y-12905198D02*
X13524587Y-12895674D01*
X13524587Y-12895674D02*
X13543634Y-12886150D01*
X13543634Y-12886150D02*
X13572206Y-12886150D01*
X13572206Y-12886150D02*
X13591253Y-12895674D01*
X13591253Y-12895674D02*
X13600777Y-12905198D01*
X13600777Y-12905198D02*
X13610301Y-12924246D01*
X13610301Y-12924246D02*
X13610301Y-12981388D01*
X13610301Y-12981388D02*
X13600777Y-13000436D01*
X13600777Y-13000436D02*
X13591253Y-13009960D01*
X13591253Y-13009960D02*
X13572206Y-13019484D01*
X13572206Y-13019484D02*
X13543634Y-13019484D01*
X13724587Y-13019484D02*
X13705539Y-13009960D01*
X13705539Y-13009960D02*
X13696015Y-12990912D01*
X13696015Y-12990912D02*
X13696015Y-12819484D01*
X13876968Y-13009960D02*
X13857920Y-13019484D01*
X13857920Y-13019484D02*
X13819825Y-13019484D01*
X13819825Y-13019484D02*
X13800777Y-13009960D01*
X13800777Y-13009960D02*
X13791253Y-12990912D01*
X13791253Y-12990912D02*
X13791253Y-12914722D01*
X13791253Y-12914722D02*
X13800777Y-12895674D01*
X13800777Y-12895674D02*
X13819825Y-12886150D01*
X13819825Y-12886150D02*
X13857920Y-12886150D01*
X13857920Y-12886150D02*
X13876968Y-12895674D01*
X13876968Y-12895674D02*
X13886491Y-12914722D01*
X13886491Y-12914722D02*
X13886491Y-12933769D01*
X13886491Y-12933769D02*
X13791253Y-12952817D01*
X13962682Y-13009960D02*
X13981730Y-13019484D01*
X13981730Y-13019484D02*
X14019825Y-13019484D01*
X14019825Y-13019484D02*
X14038872Y-13009960D01*
X14038872Y-13009960D02*
X14048396Y-12990912D01*
X14048396Y-12990912D02*
X14048396Y-12981388D01*
X14048396Y-12981388D02*
X14038872Y-12962341D01*
X14038872Y-12962341D02*
X14019825Y-12952817D01*
X14019825Y-12952817D02*
X13991253Y-12952817D01*
X13991253Y-12952817D02*
X13972206Y-12943293D01*
X13972206Y-12943293D02*
X13962682Y-12924246D01*
X13962682Y-12924246D02*
X13962682Y-12914722D01*
X13962682Y-12914722D02*
X13972206Y-12895674D01*
X13972206Y-12895674D02*
X13991253Y-12886150D01*
X13991253Y-12886150D02*
X14019825Y-12886150D01*
X14019825Y-12886150D02*
X14038872Y-12895674D01*
X14115063Y-13095674D02*
X14124587Y-13086150D01*
X14124587Y-13086150D02*
X14143634Y-13057579D01*
X14143634Y-13057579D02*
X14153158Y-13038531D01*
X14153158Y-13038531D02*
X14162682Y-13009960D01*
X14162682Y-13009960D02*
X14172206Y-12962341D01*
X14172206Y-12962341D02*
X14172206Y-12924246D01*
X14172206Y-12924246D02*
X14162682Y-12876627D01*
X14162682Y-12876627D02*
X14153158Y-12848055D01*
X14153158Y-12848055D02*
X14143634Y-12829008D01*
X14143634Y-12829008D02*
X14124587Y-12800436D01*
X14124587Y-12800436D02*
X14115063Y-12790912D01*
D11*
X9325356Y-13227356D02*
X9325356Y-13156644D01*
X9254644Y-13156644D01*
X9254644Y-13227356D01*
X9325356Y-13227356D01*
D10*
X9705539Y-13283484D02*
X9591253Y-13283484D01*
X9648396Y-13283484D02*
X9648396Y-13083484D01*
X9648396Y-13083484D02*
X9629348Y-13112055D01*
X9629348Y-13112055D02*
X9610301Y-13131103D01*
X9610301Y-13131103D02*
X9591253Y-13140627D01*
X9791253Y-13264436D02*
X9800777Y-13273960D01*
X9800777Y-13273960D02*
X9791253Y-13283484D01*
X9791253Y-13283484D02*
X9781729Y-13273960D01*
X9781729Y-13273960D02*
X9791253Y-13264436D01*
X9791253Y-13264436D02*
X9791253Y-13283484D01*
X9924586Y-13083484D02*
X9943634Y-13083484D01*
X9943634Y-13083484D02*
X9962682Y-13093008D01*
X9962682Y-13093008D02*
X9972205Y-13102531D01*
X9972205Y-13102531D02*
X9981729Y-13121579D01*
X9981729Y-13121579D02*
X9991253Y-13159674D01*
X9991253Y-13159674D02*
X9991253Y-13207293D01*
X9991253Y-13207293D02*
X9981729Y-13245388D01*
X9981729Y-13245388D02*
X9972205Y-13264436D01*
X9972205Y-13264436D02*
X9962682Y-13273960D01*
X9962682Y-13273960D02*
X9943634Y-13283484D01*
X9943634Y-13283484D02*
X9924586Y-13283484D01*
X9924586Y-13283484D02*
X9905539Y-13273960D01*
X9905539Y-13273960D02*
X9896015Y-13264436D01*
X9896015Y-13264436D02*
X9886491Y-13245388D01*
X9886491Y-13245388D02*
X9876967Y-13207293D01*
X9876967Y-13207293D02*
X9876967Y-13159674D01*
X9876967Y-13159674D02*
X9886491Y-13121579D01*
X9886491Y-13121579D02*
X9896015Y-13102531D01*
X9896015Y-13102531D02*
X9905539Y-13093008D01*
X9905539Y-13093008D02*
X9924586Y-13083484D01*
X10115063Y-13083484D02*
X10134110Y-13083484D01*
X10134110Y-13083484D02*
X10153158Y-13093008D01*
X10153158Y-13093008D02*
X10162682Y-13102531D01*
X10162682Y-13102531D02*
X10172205Y-13121579D01*
X10172205Y-13121579D02*
X10181729Y-13159674D01*
X10181729Y-13159674D02*
X10181729Y-13207293D01*
X10181729Y-13207293D02*
X10172205Y-13245388D01*
X10172205Y-13245388D02*
X10162682Y-13264436D01*
X10162682Y-13264436D02*
X10153158Y-13273960D01*
X10153158Y-13273960D02*
X10134110Y-13283484D01*
X10134110Y-13283484D02*
X10115063Y-13283484D01*
X10115063Y-13283484D02*
X10096015Y-13273960D01*
X10096015Y-13273960D02*
X10086491Y-13264436D01*
X10086491Y-13264436D02*
X10076967Y-13245388D01*
X10076967Y-13245388D02*
X10067444Y-13207293D01*
X10067444Y-13207293D02*
X10067444Y-13159674D01*
X10067444Y-13159674D02*
X10076967Y-13121579D01*
X10076967Y-13121579D02*
X10086491Y-13102531D01*
X10086491Y-13102531D02*
X10096015Y-13093008D01*
X10096015Y-13093008D02*
X10115063Y-13083484D01*
X10305539Y-13083484D02*
X10324586Y-13083484D01*
X10324586Y-13083484D02*
X10343634Y-13093008D01*
X10343634Y-13093008D02*
X10353158Y-13102531D01*
X10353158Y-13102531D02*
X10362682Y-13121579D01*
X10362682Y-13121579D02*
X10372205Y-13159674D01*
X10372205Y-13159674D02*
X10372205Y-13207293D01*
X10372205Y-13207293D02*
X10362682Y-13245388D01*
X10362682Y-13245388D02*
X10353158Y-13264436D01*
X10353158Y-13264436D02*
X10343634Y-13273960D01*
X10343634Y-13273960D02*
X10324586Y-13283484D01*
X10324586Y-13283484D02*
X10305539Y-13283484D01*
X10305539Y-13283484D02*
X10286491Y-13273960D01*
X10286491Y-13273960D02*
X10276967Y-13264436D01*
X10276967Y-13264436D02*
X10267444Y-13245388D01*
X10267444Y-13245388D02*
X10257920Y-13207293D01*
X10257920Y-13207293D02*
X10257920Y-13159674D01*
X10257920Y-13159674D02*
X10267444Y-13121579D01*
X10267444Y-13121579D02*
X10276967Y-13102531D01*
X10276967Y-13102531D02*
X10286491Y-13093008D01*
X10286491Y-13093008D02*
X10305539Y-13083484D01*
X10457920Y-13283484D02*
X10457920Y-13150150D01*
X10457920Y-13169198D02*
X10467444Y-13159674D01*
X10467444Y-13159674D02*
X10486491Y-13150150D01*
X10486491Y-13150150D02*
X10515063Y-13150150D01*
X10515063Y-13150150D02*
X10534110Y-13159674D01*
X10534110Y-13159674D02*
X10543634Y-13178722D01*
X10543634Y-13178722D02*
X10543634Y-13283484D01*
X10543634Y-13178722D02*
X10553158Y-13159674D01*
X10553158Y-13159674D02*
X10572205Y-13150150D01*
X10572205Y-13150150D02*
X10600777Y-13150150D01*
X10600777Y-13150150D02*
X10619825Y-13159674D01*
X10619825Y-13159674D02*
X10629348Y-13178722D01*
X10629348Y-13178722D02*
X10629348Y-13283484D01*
X10724586Y-13283484D02*
X10724586Y-13150150D01*
X10724586Y-13169198D02*
X10734110Y-13159674D01*
X10734110Y-13159674D02*
X10753158Y-13150150D01*
X10753158Y-13150150D02*
X10781729Y-13150150D01*
X10781729Y-13150150D02*
X10800777Y-13159674D01*
X10800777Y-13159674D02*
X10810301Y-13178722D01*
X10810301Y-13178722D02*
X10810301Y-13283484D01*
X10810301Y-13178722D02*
X10819825Y-13159674D01*
X10819825Y-13159674D02*
X10838872Y-13150150D01*
X10838872Y-13150150D02*
X10867444Y-13150150D01*
X10867444Y-13150150D02*
X10886491Y-13159674D01*
X10886491Y-13159674D02*
X10896015Y-13178722D01*
X10896015Y-13178722D02*
X10896015Y-13283484D01*
X11286491Y-13073960D02*
X11115063Y-13331103D01*
X11543634Y-13083484D02*
X11562682Y-13083484D01*
X11562682Y-13083484D02*
X11581729Y-13093008D01*
X11581729Y-13093008D02*
X11591253Y-13102531D01*
X11591253Y-13102531D02*
X11600777Y-13121579D01*
X11600777Y-13121579D02*
X11610301Y-13159674D01*
X11610301Y-13159674D02*
X11610301Y-13207293D01*
X11610301Y-13207293D02*
X11600777Y-13245388D01*
X11600777Y-13245388D02*
X11591253Y-13264436D01*
X11591253Y-13264436D02*
X11581729Y-13273960D01*
X11581729Y-13273960D02*
X11562682Y-13283484D01*
X11562682Y-13283484D02*
X11543634Y-13283484D01*
X11543634Y-13283484D02*
X11524586Y-13273960D01*
X11524586Y-13273960D02*
X11515063Y-13264436D01*
X11515063Y-13264436D02*
X11505539Y-13245388D01*
X11505539Y-13245388D02*
X11496015Y-13207293D01*
X11496015Y-13207293D02*
X11496015Y-13159674D01*
X11496015Y-13159674D02*
X11505539Y-13121579D01*
X11505539Y-13121579D02*
X11515063Y-13102531D01*
X11515063Y-13102531D02*
X11524586Y-13093008D01*
X11524586Y-13093008D02*
X11543634Y-13083484D01*
X11696015Y-13264436D02*
X11705539Y-13273960D01*
X11705539Y-13273960D02*
X11696015Y-13283484D01*
X11696015Y-13283484D02*
X11686491Y-13273960D01*
X11686491Y-13273960D02*
X11696015Y-13264436D01*
X11696015Y-13264436D02*
X11696015Y-13283484D01*
X11829348Y-13083484D02*
X11848396Y-13083484D01*
X11848396Y-13083484D02*
X11867444Y-13093008D01*
X11867444Y-13093008D02*
X11876967Y-13102531D01*
X11876967Y-13102531D02*
X11886491Y-13121579D01*
X11886491Y-13121579D02*
X11896015Y-13159674D01*
X11896015Y-13159674D02*
X11896015Y-13207293D01*
X11896015Y-13207293D02*
X11886491Y-13245388D01*
X11886491Y-13245388D02*
X11876967Y-13264436D01*
X11876967Y-13264436D02*
X11867444Y-13273960D01*
X11867444Y-13273960D02*
X11848396Y-13283484D01*
X11848396Y-13283484D02*
X11829348Y-13283484D01*
X11829348Y-13283484D02*
X11810301Y-13273960D01*
X11810301Y-13273960D02*
X11800777Y-13264436D01*
X11800777Y-13264436D02*
X11791253Y-13245388D01*
X11791253Y-13245388D02*
X11781729Y-13207293D01*
X11781729Y-13207293D02*
X11781729Y-13159674D01*
X11781729Y-13159674D02*
X11791253Y-13121579D01*
X11791253Y-13121579D02*
X11800777Y-13102531D01*
X11800777Y-13102531D02*
X11810301Y-13093008D01*
X11810301Y-13093008D02*
X11829348Y-13083484D01*
X11962682Y-13083484D02*
X12086491Y-13083484D01*
X12086491Y-13083484D02*
X12019825Y-13159674D01*
X12019825Y-13159674D02*
X12048396Y-13159674D01*
X12048396Y-13159674D02*
X12067444Y-13169198D01*
X12067444Y-13169198D02*
X12076967Y-13178722D01*
X12076967Y-13178722D02*
X12086491Y-13197769D01*
X12086491Y-13197769D02*
X12086491Y-13245388D01*
X12086491Y-13245388D02*
X12076967Y-13264436D01*
X12076967Y-13264436D02*
X12067444Y-13273960D01*
X12067444Y-13273960D02*
X12048396Y-13283484D01*
X12048396Y-13283484D02*
X11991253Y-13283484D01*
X11991253Y-13283484D02*
X11972206Y-13273960D01*
X11972206Y-13273960D02*
X11962682Y-13264436D01*
X12181729Y-13283484D02*
X12219825Y-13283484D01*
X12219825Y-13283484D02*
X12238872Y-13273960D01*
X12238872Y-13273960D02*
X12248396Y-13264436D01*
X12248396Y-13264436D02*
X12267444Y-13235865D01*
X12267444Y-13235865D02*
X12276967Y-13197769D01*
X12276967Y-13197769D02*
X12276967Y-13121579D01*
X12276967Y-13121579D02*
X12267444Y-13102531D01*
X12267444Y-13102531D02*
X12257920Y-13093008D01*
X12257920Y-13093008D02*
X12238872Y-13083484D01*
X12238872Y-13083484D02*
X12200777Y-13083484D01*
X12200777Y-13083484D02*
X12181729Y-13093008D01*
X12181729Y-13093008D02*
X12172206Y-13102531D01*
X12172206Y-13102531D02*
X12162682Y-13121579D01*
X12162682Y-13121579D02*
X12162682Y-13169198D01*
X12162682Y-13169198D02*
X12172206Y-13188246D01*
X12172206Y-13188246D02*
X12181729Y-13197769D01*
X12181729Y-13197769D02*
X12200777Y-13207293D01*
X12200777Y-13207293D02*
X12238872Y-13207293D01*
X12238872Y-13207293D02*
X12257920Y-13197769D01*
X12257920Y-13197769D02*
X12267444Y-13188246D01*
X12267444Y-13188246D02*
X12276967Y-13169198D01*
X12448396Y-13150150D02*
X12448396Y-13283484D01*
X12400777Y-13073960D02*
X12353158Y-13216817D01*
X12353158Y-13216817D02*
X12476967Y-13216817D01*
X12543634Y-13083484D02*
X12543634Y-13121579D01*
X12619825Y-13083484D02*
X12619825Y-13121579D01*
X12915063Y-13359674D02*
X12905539Y-13350150D01*
X12905539Y-13350150D02*
X12886491Y-13321579D01*
X12886491Y-13321579D02*
X12876968Y-13302531D01*
X12876968Y-13302531D02*
X12867444Y-13273960D01*
X12867444Y-13273960D02*
X12857920Y-13226341D01*
X12857920Y-13226341D02*
X12857920Y-13188246D01*
X12857920Y-13188246D02*
X12867444Y-13140627D01*
X12867444Y-13140627D02*
X12876968Y-13112055D01*
X12876968Y-13112055D02*
X12886491Y-13093008D01*
X12886491Y-13093008D02*
X12905539Y-13064436D01*
X12905539Y-13064436D02*
X12915063Y-13054912D01*
X13076968Y-13150150D02*
X13076968Y-13283484D01*
X13029348Y-13073960D02*
X12981729Y-13216817D01*
X12981729Y-13216817D02*
X13105539Y-13216817D01*
X13219825Y-13083484D02*
X13238872Y-13083484D01*
X13238872Y-13083484D02*
X13257920Y-13093008D01*
X13257920Y-13093008D02*
X13267444Y-13102531D01*
X13267444Y-13102531D02*
X13276968Y-13121579D01*
X13276968Y-13121579D02*
X13286491Y-13159674D01*
X13286491Y-13159674D02*
X13286491Y-13207293D01*
X13286491Y-13207293D02*
X13276968Y-13245388D01*
X13276968Y-13245388D02*
X13267444Y-13264436D01*
X13267444Y-13264436D02*
X13257920Y-13273960D01*
X13257920Y-13273960D02*
X13238872Y-13283484D01*
X13238872Y-13283484D02*
X13219825Y-13283484D01*
X13219825Y-13283484D02*
X13200777Y-13273960D01*
X13200777Y-13273960D02*
X13191253Y-13264436D01*
X13191253Y-13264436D02*
X13181729Y-13245388D01*
X13181729Y-13245388D02*
X13172206Y-13207293D01*
X13172206Y-13207293D02*
X13172206Y-13159674D01*
X13172206Y-13159674D02*
X13181729Y-13121579D01*
X13181729Y-13121579D02*
X13191253Y-13102531D01*
X13191253Y-13102531D02*
X13200777Y-13093008D01*
X13200777Y-13093008D02*
X13219825Y-13083484D01*
X13524587Y-13283484D02*
X13524587Y-13083484D01*
X13610301Y-13283484D02*
X13610301Y-13178722D01*
X13610301Y-13178722D02*
X13600777Y-13159674D01*
X13600777Y-13159674D02*
X13581730Y-13150150D01*
X13581730Y-13150150D02*
X13553158Y-13150150D01*
X13553158Y-13150150D02*
X13534110Y-13159674D01*
X13534110Y-13159674D02*
X13524587Y-13169198D01*
X13734110Y-13283484D02*
X13715063Y-13273960D01*
X13715063Y-13273960D02*
X13705539Y-13264436D01*
X13705539Y-13264436D02*
X13696015Y-13245388D01*
X13696015Y-13245388D02*
X13696015Y-13188246D01*
X13696015Y-13188246D02*
X13705539Y-13169198D01*
X13705539Y-13169198D02*
X13715063Y-13159674D01*
X13715063Y-13159674D02*
X13734110Y-13150150D01*
X13734110Y-13150150D02*
X13762682Y-13150150D01*
X13762682Y-13150150D02*
X13781730Y-13159674D01*
X13781730Y-13159674D02*
X13791253Y-13169198D01*
X13791253Y-13169198D02*
X13800777Y-13188246D01*
X13800777Y-13188246D02*
X13800777Y-13245388D01*
X13800777Y-13245388D02*
X13791253Y-13264436D01*
X13791253Y-13264436D02*
X13781730Y-13273960D01*
X13781730Y-13273960D02*
X13762682Y-13283484D01*
X13762682Y-13283484D02*
X13734110Y-13283484D01*
X13915063Y-13283484D02*
X13896015Y-13273960D01*
X13896015Y-13273960D02*
X13886491Y-13254912D01*
X13886491Y-13254912D02*
X13886491Y-13083484D01*
X14067444Y-13273960D02*
X14048396Y-13283484D01*
X14048396Y-13283484D02*
X14010301Y-13283484D01*
X14010301Y-13283484D02*
X13991253Y-13273960D01*
X13991253Y-13273960D02*
X13981730Y-13254912D01*
X13981730Y-13254912D02*
X13981730Y-13178722D01*
X13981730Y-13178722D02*
X13991253Y-13159674D01*
X13991253Y-13159674D02*
X14010301Y-13150150D01*
X14010301Y-13150150D02*
X14048396Y-13150150D01*
X14048396Y-13150150D02*
X14067444Y-13159674D01*
X14067444Y-13159674D02*
X14076968Y-13178722D01*
X14076968Y-13178722D02*
X14076968Y-13197769D01*
X14076968Y-13197769D02*
X13981730Y-13216817D01*
X14153158Y-13273960D02*
X14172206Y-13283484D01*
X14172206Y-13283484D02*
X14210301Y-13283484D01*
X14210301Y-13283484D02*
X14229349Y-13273960D01*
X14229349Y-13273960D02*
X14238872Y-13254912D01*
X14238872Y-13254912D02*
X14238872Y-13245388D01*
X14238872Y-13245388D02*
X14229349Y-13226341D01*
X14229349Y-13226341D02*
X14210301Y-13216817D01*
X14210301Y-13216817D02*
X14181730Y-13216817D01*
X14181730Y-13216817D02*
X14162682Y-13207293D01*
X14162682Y-13207293D02*
X14153158Y-13188246D01*
X14153158Y-13188246D02*
X14153158Y-13178722D01*
X14153158Y-13178722D02*
X14162682Y-13159674D01*
X14162682Y-13159674D02*
X14181730Y-13150150D01*
X14181730Y-13150150D02*
X14210301Y-13150150D01*
X14210301Y-13150150D02*
X14229349Y-13159674D01*
X14305539Y-13359674D02*
X14315063Y-13350150D01*
X14315063Y-13350150D02*
X14334111Y-13321579D01*
X14334111Y-13321579D02*
X14343634Y-13302531D01*
X14343634Y-13302531D02*
X14353158Y-13273960D01*
X14353158Y-13273960D02*
X14362682Y-13226341D01*
X14362682Y-13226341D02*
X14362682Y-13188246D01*
X14362682Y-13188246D02*
X14353158Y-13140627D01*
X14353158Y-13140627D02*
X14343634Y-13112055D01*
X14343634Y-13112055D02*
X14334111Y-13093008D01*
X14334111Y-13093008D02*
X14315063Y-13064436D01*
X14315063Y-13064436D02*
X14305539Y-13054912D01*
M02*
