G04 #@! TF.GenerationSoftware,KiCad,Pcbnew,8.0.3*
G04 #@! TF.CreationDate,2024-06-13T11:49:56-06:00*
G04 #@! TF.ProjectId,PCB_Project,5043425f-5072-46f6-9a65-63742e6b6963,rev?*
G04 #@! TF.SameCoordinates,Original*
G04 #@! TF.FileFunction,Legend,Top*
G04 #@! TF.FilePolarity,Positive*
%FSLAX46Y46*%
G04 Gerber Fmt 4.6, Leading zero omitted, Abs format (unit mm)*
G04 Created by KiCad (PCBNEW 8.0.3) date 2024-06-13 11:49:56*
%MOMM*%
%LPD*%
G01*
G04 APERTURE LIST*
G04 Aperture macros list*
%AMRoundRect*
0 Rectangle with rounded corners*
0 $1 Rounding radius*
0 $2 $3 $4 $5 $6 $7 $8 $9 X,Y pos of 4 corners*
0 Add a 4 corners polygon primitive as box body*
4,1,4,$2,$3,$4,$5,$6,$7,$8,$9,$2,$3,0*
0 Add four circle primitives for the rounded corners*
1,1,$1+$1,$2,$3*
1,1,$1+$1,$4,$5*
1,1,$1+$1,$6,$7*
1,1,$1+$1,$8,$9*
0 Add four rect primitives between the rounded corners*
20,1,$1+$1,$2,$3,$4,$5,0*
20,1,$1+$1,$4,$5,$6,$7,0*
20,1,$1+$1,$6,$7,$8,$9,0*
20,1,$1+$1,$8,$9,$2,$3,0*%
G04 Aperture macros list end*
%ADD10C,0.125000*%
%ADD11C,0.127000*%
%ADD12C,0.200000*%
%ADD13C,0.120000*%
%ADD14C,0.100000*%
%ADD15C,0.152400*%
%ADD16C,0.010000*%
%ADD17RoundRect,0.102000X-0.175000X0.295000X-0.175000X-0.295000X0.175000X-0.295000X0.175000X0.295000X0*%
%ADD18RoundRect,0.102000X0.295000X0.175000X-0.295000X0.175000X-0.295000X-0.175000X0.295000X-0.175000X0*%
%ADD19RoundRect,0.102000X0.175000X-0.295000X0.175000X0.295000X-0.175000X0.295000X-0.175000X-0.295000X0*%
%ADD20RoundRect,0.102000X-0.295000X-0.175000X0.295000X-0.175000X0.295000X0.175000X-0.295000X0.175000X0*%
%ADD21RoundRect,0.140000X-0.170000X0.140000X-0.170000X-0.140000X0.170000X-0.140000X0.170000X0.140000X0*%
%ADD22RoundRect,0.140000X-0.140000X-0.170000X0.140000X-0.170000X0.140000X0.170000X-0.140000X0.170000X0*%
%ADD23R,1.700000X1.700000*%
%ADD24O,1.700000X1.700000*%
%ADD25RoundRect,0.102000X0.275000X0.200000X-0.275000X0.200000X-0.275000X-0.200000X0.275000X-0.200000X0*%
%ADD26RoundRect,0.250000X-0.350000X-0.625000X0.350000X-0.625000X0.350000X0.625000X-0.350000X0.625000X0*%
%ADD27O,1.200000X1.750000*%
%ADD28RoundRect,0.250000X0.262500X0.450000X-0.262500X0.450000X-0.262500X-0.450000X0.262500X-0.450000X0*%
%ADD29RoundRect,0.135000X-0.135000X-0.185000X0.135000X-0.185000X0.135000X0.185000X-0.135000X0.185000X0*%
%ADD30R,0.375000X0.350000*%
%ADD31R,0.350000X0.375000*%
%ADD32RoundRect,0.140000X0.170000X-0.140000X0.170000X0.140000X-0.170000X0.140000X-0.170000X-0.140000X0*%
%ADD33RoundRect,0.135000X-0.185000X0.135000X-0.185000X-0.135000X0.185000X-0.135000X0.185000X0.135000X0*%
%ADD34R,2.030000X1.140000*%
%ADD35RoundRect,0.140000X0.140000X0.170000X-0.140000X0.170000X-0.140000X-0.170000X0.140000X-0.170000X0*%
%ADD36RoundRect,0.135000X0.185000X-0.135000X0.185000X0.135000X-0.185000X0.135000X-0.185000X-0.135000X0*%
%ADD37RoundRect,0.150000X-0.587500X-0.150000X0.587500X-0.150000X0.587500X0.150000X-0.587500X0.150000X0*%
%ADD38RoundRect,0.200000X0.275000X-0.200000X0.275000X0.200000X-0.275000X0.200000X-0.275000X-0.200000X0*%
%ADD39R,1.350000X1.350000*%
%ADD40O,1.350000X1.350000*%
%ADD41R,0.254000X0.762000*%
%ADD42R,2.006600X1.295400*%
%ADD43RoundRect,0.250000X-0.262500X-0.450000X0.262500X-0.450000X0.262500X0.450000X-0.262500X0.450000X0*%
%ADD44RoundRect,0.100500X-0.986500X-0.301500X0.986500X-0.301500X0.986500X0.301500X-0.986500X0.301500X0*%
G04 APERTURE END LIST*
D10*
X132901283Y-96332309D02*
X132901283Y-95832309D01*
X132901283Y-95832309D02*
X133091759Y-95832309D01*
X133091759Y-95832309D02*
X133139378Y-95856119D01*
X133139378Y-95856119D02*
X133163188Y-95879928D01*
X133163188Y-95879928D02*
X133186997Y-95927547D01*
X133186997Y-95927547D02*
X133186997Y-95998976D01*
X133186997Y-95998976D02*
X133163188Y-96046595D01*
X133163188Y-96046595D02*
X133139378Y-96070404D01*
X133139378Y-96070404D02*
X133091759Y-96094214D01*
X133091759Y-96094214D02*
X132901283Y-96094214D01*
X133615569Y-96332309D02*
X133615569Y-96070404D01*
X133615569Y-96070404D02*
X133591759Y-96022785D01*
X133591759Y-96022785D02*
X133544140Y-95998976D01*
X133544140Y-95998976D02*
X133448902Y-95998976D01*
X133448902Y-95998976D02*
X133401283Y-96022785D01*
X133615569Y-96308500D02*
X133567950Y-96332309D01*
X133567950Y-96332309D02*
X133448902Y-96332309D01*
X133448902Y-96332309D02*
X133401283Y-96308500D01*
X133401283Y-96308500D02*
X133377474Y-96260880D01*
X133377474Y-96260880D02*
X133377474Y-96213261D01*
X133377474Y-96213261D02*
X133401283Y-96165642D01*
X133401283Y-96165642D02*
X133448902Y-96141833D01*
X133448902Y-96141833D02*
X133567950Y-96141833D01*
X133567950Y-96141833D02*
X133615569Y-96118023D01*
X133806045Y-95998976D02*
X133925093Y-96332309D01*
X134044140Y-95998976D02*
X133925093Y-96332309D01*
X133925093Y-96332309D02*
X133877474Y-96451357D01*
X133877474Y-96451357D02*
X133853664Y-96475166D01*
X133853664Y-96475166D02*
X133806045Y-96498976D01*
X134306045Y-96332309D02*
X134258426Y-96308500D01*
X134258426Y-96308500D02*
X134234616Y-96260880D01*
X134234616Y-96260880D02*
X134234616Y-95832309D01*
X134567950Y-96332309D02*
X134520331Y-96308500D01*
X134520331Y-96308500D02*
X134496521Y-96284690D01*
X134496521Y-96284690D02*
X134472712Y-96237071D01*
X134472712Y-96237071D02*
X134472712Y-96094214D01*
X134472712Y-96094214D02*
X134496521Y-96046595D01*
X134496521Y-96046595D02*
X134520331Y-96022785D01*
X134520331Y-96022785D02*
X134567950Y-95998976D01*
X134567950Y-95998976D02*
X134639378Y-95998976D01*
X134639378Y-95998976D02*
X134686997Y-96022785D01*
X134686997Y-96022785D02*
X134710807Y-96046595D01*
X134710807Y-96046595D02*
X134734616Y-96094214D01*
X134734616Y-96094214D02*
X134734616Y-96237071D01*
X134734616Y-96237071D02*
X134710807Y-96284690D01*
X134710807Y-96284690D02*
X134686997Y-96308500D01*
X134686997Y-96308500D02*
X134639378Y-96332309D01*
X134639378Y-96332309D02*
X134567950Y-96332309D01*
X135163188Y-96332309D02*
X135163188Y-96070404D01*
X135163188Y-96070404D02*
X135139378Y-96022785D01*
X135139378Y-96022785D02*
X135091759Y-95998976D01*
X135091759Y-95998976D02*
X134996521Y-95998976D01*
X134996521Y-95998976D02*
X134948902Y-96022785D01*
X135163188Y-96308500D02*
X135115569Y-96332309D01*
X135115569Y-96332309D02*
X134996521Y-96332309D01*
X134996521Y-96332309D02*
X134948902Y-96308500D01*
X134948902Y-96308500D02*
X134925093Y-96260880D01*
X134925093Y-96260880D02*
X134925093Y-96213261D01*
X134925093Y-96213261D02*
X134948902Y-96165642D01*
X134948902Y-96165642D02*
X134996521Y-96141833D01*
X134996521Y-96141833D02*
X135115569Y-96141833D01*
X135115569Y-96141833D02*
X135163188Y-96118023D01*
X135615569Y-96332309D02*
X135615569Y-95832309D01*
X135615569Y-96308500D02*
X135567950Y-96332309D01*
X135567950Y-96332309D02*
X135472712Y-96332309D01*
X135472712Y-96332309D02*
X135425093Y-96308500D01*
X135425093Y-96308500D02*
X135401283Y-96284690D01*
X135401283Y-96284690D02*
X135377474Y-96237071D01*
X135377474Y-96237071D02*
X135377474Y-96094214D01*
X135377474Y-96094214D02*
X135401283Y-96046595D01*
X135401283Y-96046595D02*
X135425093Y-96022785D01*
X135425093Y-96022785D02*
X135472712Y-95998976D01*
X135472712Y-95998976D02*
X135567950Y-95998976D01*
X135567950Y-95998976D02*
X135615569Y-96022785D01*
X136210807Y-96308500D02*
X136282235Y-96332309D01*
X136282235Y-96332309D02*
X136401283Y-96332309D01*
X136401283Y-96332309D02*
X136448902Y-96308500D01*
X136448902Y-96308500D02*
X136472711Y-96284690D01*
X136472711Y-96284690D02*
X136496521Y-96237071D01*
X136496521Y-96237071D02*
X136496521Y-96189452D01*
X136496521Y-96189452D02*
X136472711Y-96141833D01*
X136472711Y-96141833D02*
X136448902Y-96118023D01*
X136448902Y-96118023D02*
X136401283Y-96094214D01*
X136401283Y-96094214D02*
X136306045Y-96070404D01*
X136306045Y-96070404D02*
X136258426Y-96046595D01*
X136258426Y-96046595D02*
X136234616Y-96022785D01*
X136234616Y-96022785D02*
X136210807Y-95975166D01*
X136210807Y-95975166D02*
X136210807Y-95927547D01*
X136210807Y-95927547D02*
X136234616Y-95879928D01*
X136234616Y-95879928D02*
X136258426Y-95856119D01*
X136258426Y-95856119D02*
X136306045Y-95832309D01*
X136306045Y-95832309D02*
X136425092Y-95832309D01*
X136425092Y-95832309D02*
X136496521Y-95856119D01*
X136901282Y-96308500D02*
X136853663Y-96332309D01*
X136853663Y-96332309D02*
X136758425Y-96332309D01*
X136758425Y-96332309D02*
X136710806Y-96308500D01*
X136710806Y-96308500D02*
X136686997Y-96260880D01*
X136686997Y-96260880D02*
X136686997Y-96070404D01*
X136686997Y-96070404D02*
X136710806Y-96022785D01*
X136710806Y-96022785D02*
X136758425Y-95998976D01*
X136758425Y-95998976D02*
X136853663Y-95998976D01*
X136853663Y-95998976D02*
X136901282Y-96022785D01*
X136901282Y-96022785D02*
X136925092Y-96070404D01*
X136925092Y-96070404D02*
X136925092Y-96118023D01*
X136925092Y-96118023D02*
X136686997Y-96165642D01*
X137139377Y-95998976D02*
X137139377Y-96332309D01*
X137139377Y-96046595D02*
X137163187Y-96022785D01*
X137163187Y-96022785D02*
X137210806Y-95998976D01*
X137210806Y-95998976D02*
X137282234Y-95998976D01*
X137282234Y-95998976D02*
X137329853Y-96022785D01*
X137329853Y-96022785D02*
X137353663Y-96070404D01*
X137353663Y-96070404D02*
X137353663Y-96332309D01*
X137567949Y-96308500D02*
X137615568Y-96332309D01*
X137615568Y-96332309D02*
X137710806Y-96332309D01*
X137710806Y-96332309D02*
X137758425Y-96308500D01*
X137758425Y-96308500D02*
X137782234Y-96260880D01*
X137782234Y-96260880D02*
X137782234Y-96237071D01*
X137782234Y-96237071D02*
X137758425Y-96189452D01*
X137758425Y-96189452D02*
X137710806Y-96165642D01*
X137710806Y-96165642D02*
X137639377Y-96165642D01*
X137639377Y-96165642D02*
X137591758Y-96141833D01*
X137591758Y-96141833D02*
X137567949Y-96094214D01*
X137567949Y-96094214D02*
X137567949Y-96070404D01*
X137567949Y-96070404D02*
X137591758Y-96022785D01*
X137591758Y-96022785D02*
X137639377Y-95998976D01*
X137639377Y-95998976D02*
X137710806Y-95998976D01*
X137710806Y-95998976D02*
X137758425Y-96022785D01*
X138067949Y-96332309D02*
X138020330Y-96308500D01*
X138020330Y-96308500D02*
X137996520Y-96284690D01*
X137996520Y-96284690D02*
X137972711Y-96237071D01*
X137972711Y-96237071D02*
X137972711Y-96094214D01*
X137972711Y-96094214D02*
X137996520Y-96046595D01*
X137996520Y-96046595D02*
X138020330Y-96022785D01*
X138020330Y-96022785D02*
X138067949Y-95998976D01*
X138067949Y-95998976D02*
X138139377Y-95998976D01*
X138139377Y-95998976D02*
X138186996Y-96022785D01*
X138186996Y-96022785D02*
X138210806Y-96046595D01*
X138210806Y-96046595D02*
X138234615Y-96094214D01*
X138234615Y-96094214D02*
X138234615Y-96237071D01*
X138234615Y-96237071D02*
X138210806Y-96284690D01*
X138210806Y-96284690D02*
X138186996Y-96308500D01*
X138186996Y-96308500D02*
X138139377Y-96332309D01*
X138139377Y-96332309D02*
X138067949Y-96332309D01*
X138448901Y-96332309D02*
X138448901Y-95998976D01*
X138448901Y-96094214D02*
X138472711Y-96046595D01*
X138472711Y-96046595D02*
X138496520Y-96022785D01*
X138496520Y-96022785D02*
X138544139Y-95998976D01*
X138544139Y-95998976D02*
X138591758Y-95998976D01*
X139306044Y-96070404D02*
X139377472Y-96094214D01*
X139377472Y-96094214D02*
X139401282Y-96118023D01*
X139401282Y-96118023D02*
X139425091Y-96165642D01*
X139425091Y-96165642D02*
X139425091Y-96237071D01*
X139425091Y-96237071D02*
X139401282Y-96284690D01*
X139401282Y-96284690D02*
X139377472Y-96308500D01*
X139377472Y-96308500D02*
X139329853Y-96332309D01*
X139329853Y-96332309D02*
X139139377Y-96332309D01*
X139139377Y-96332309D02*
X139139377Y-95832309D01*
X139139377Y-95832309D02*
X139306044Y-95832309D01*
X139306044Y-95832309D02*
X139353663Y-95856119D01*
X139353663Y-95856119D02*
X139377472Y-95879928D01*
X139377472Y-95879928D02*
X139401282Y-95927547D01*
X139401282Y-95927547D02*
X139401282Y-95975166D01*
X139401282Y-95975166D02*
X139377472Y-96022785D01*
X139377472Y-96022785D02*
X139353663Y-96046595D01*
X139353663Y-96046595D02*
X139306044Y-96070404D01*
X139306044Y-96070404D02*
X139139377Y-96070404D01*
X139710806Y-96332309D02*
X139663187Y-96308500D01*
X139663187Y-96308500D02*
X139639377Y-96284690D01*
X139639377Y-96284690D02*
X139615568Y-96237071D01*
X139615568Y-96237071D02*
X139615568Y-96094214D01*
X139615568Y-96094214D02*
X139639377Y-96046595D01*
X139639377Y-96046595D02*
X139663187Y-96022785D01*
X139663187Y-96022785D02*
X139710806Y-95998976D01*
X139710806Y-95998976D02*
X139782234Y-95998976D01*
X139782234Y-95998976D02*
X139829853Y-96022785D01*
X139829853Y-96022785D02*
X139853663Y-96046595D01*
X139853663Y-96046595D02*
X139877472Y-96094214D01*
X139877472Y-96094214D02*
X139877472Y-96237071D01*
X139877472Y-96237071D02*
X139853663Y-96284690D01*
X139853663Y-96284690D02*
X139829853Y-96308500D01*
X139829853Y-96308500D02*
X139782234Y-96332309D01*
X139782234Y-96332309D02*
X139710806Y-96332309D01*
X140306044Y-96332309D02*
X140306044Y-96070404D01*
X140306044Y-96070404D02*
X140282234Y-96022785D01*
X140282234Y-96022785D02*
X140234615Y-95998976D01*
X140234615Y-95998976D02*
X140139377Y-95998976D01*
X140139377Y-95998976D02*
X140091758Y-96022785D01*
X140306044Y-96308500D02*
X140258425Y-96332309D01*
X140258425Y-96332309D02*
X140139377Y-96332309D01*
X140139377Y-96332309D02*
X140091758Y-96308500D01*
X140091758Y-96308500D02*
X140067949Y-96260880D01*
X140067949Y-96260880D02*
X140067949Y-96213261D01*
X140067949Y-96213261D02*
X140091758Y-96165642D01*
X140091758Y-96165642D02*
X140139377Y-96141833D01*
X140139377Y-96141833D02*
X140258425Y-96141833D01*
X140258425Y-96141833D02*
X140306044Y-96118023D01*
X140544139Y-96332309D02*
X140544139Y-95998976D01*
X140544139Y-96094214D02*
X140567949Y-96046595D01*
X140567949Y-96046595D02*
X140591758Y-96022785D01*
X140591758Y-96022785D02*
X140639377Y-95998976D01*
X140639377Y-95998976D02*
X140686996Y-95998976D01*
X141067949Y-96332309D02*
X141067949Y-95832309D01*
X141067949Y-96308500D02*
X141020330Y-96332309D01*
X141020330Y-96332309D02*
X140925092Y-96332309D01*
X140925092Y-96332309D02*
X140877473Y-96308500D01*
X140877473Y-96308500D02*
X140853663Y-96284690D01*
X140853663Y-96284690D02*
X140829854Y-96237071D01*
X140829854Y-96237071D02*
X140829854Y-96094214D01*
X140829854Y-96094214D02*
X140853663Y-96046595D01*
X140853663Y-96046595D02*
X140877473Y-96022785D01*
X140877473Y-96022785D02*
X140925092Y-95998976D01*
X140925092Y-95998976D02*
X141020330Y-95998976D01*
X141020330Y-95998976D02*
X141067949Y-96022785D01*
D11*
X107350000Y-75835000D02*
X107600000Y-75835000D01*
X107350000Y-76835000D02*
X107350000Y-75835000D01*
X107350000Y-78835000D02*
X107350000Y-77835000D01*
X107600000Y-78835000D02*
X107350000Y-78835000D01*
X111850000Y-75835000D02*
X111600000Y-75835000D01*
X111850000Y-76835000D02*
X111850000Y-75835000D01*
X111850000Y-77835000D02*
X111850000Y-78835000D01*
X111850000Y-78835000D02*
X111600000Y-78835000D01*
D12*
X108071000Y-75235000D02*
G75*
G02*
X107871000Y-75235000I-100000J0D01*
G01*
X107871000Y-75235000D02*
G75*
G02*
X108071000Y-75235000I100000J0D01*
G01*
D13*
X108865000Y-82227164D02*
X108865000Y-82442836D01*
X109585000Y-82227164D02*
X109585000Y-82442836D01*
X109692164Y-74410000D02*
X109907836Y-74410000D01*
X109692164Y-75130000D02*
X109907836Y-75130000D01*
X113470000Y-95530000D02*
X113470000Y-94200000D01*
X114800000Y-95530000D02*
X113470000Y-95530000D01*
X116070000Y-92870000D02*
X128830000Y-92870000D01*
X116070000Y-95530000D02*
X116070000Y-92870000D01*
X116070000Y-95530000D02*
X128830000Y-95530000D01*
X128830000Y-95530000D02*
X128830000Y-92870000D01*
X121440000Y-79492164D02*
X121440000Y-79707836D01*
X122160000Y-79492164D02*
X122160000Y-79707836D01*
D11*
X113230000Y-83180000D02*
X115670000Y-83180000D01*
X115670000Y-85820000D02*
X113230000Y-85820000D01*
D12*
X116600000Y-85300000D02*
G75*
G02*
X116400000Y-85300000I-100000J0D01*
G01*
X116400000Y-85300000D02*
G75*
G02*
X116600000Y-85300000I100000J0D01*
G01*
D13*
X110492164Y-79440000D02*
X110707836Y-79440000D01*
X110492164Y-80160000D02*
X110707836Y-80160000D01*
X138240000Y-89840000D02*
X138240000Y-91090000D01*
X138540000Y-90140000D02*
X138540000Y-94860000D01*
X138540000Y-91450000D02*
X139150000Y-91450000D01*
X138540000Y-92750000D02*
X139150000Y-92750000D01*
X138540000Y-94860000D02*
X144660000Y-94860000D01*
X139150000Y-90750000D02*
X139150000Y-94250000D01*
X139150000Y-94250000D02*
X144050000Y-94250000D01*
X139490000Y-89840000D02*
X138240000Y-89840000D01*
X140000000Y-89940000D02*
X140000000Y-90140000D01*
X140300000Y-89940000D02*
X140000000Y-89940000D01*
X140300000Y-90040000D02*
X140000000Y-90040000D01*
X140300000Y-90140000D02*
X140300000Y-89940000D01*
X141100000Y-90140000D02*
X141100000Y-90750000D01*
X141100000Y-90750000D02*
X139150000Y-90750000D01*
X141500000Y-93750000D02*
X141700000Y-93750000D01*
X141500000Y-94250000D02*
X141500000Y-93750000D01*
X141600000Y-94250000D02*
X141600000Y-93750000D01*
X141700000Y-93750000D02*
X141700000Y-94250000D01*
X142100000Y-90750000D02*
X142100000Y-90140000D01*
X144050000Y-90750000D02*
X142100000Y-90750000D01*
X144050000Y-94250000D02*
X144050000Y-90750000D01*
X144660000Y-90140000D02*
X138540000Y-90140000D01*
X144660000Y-91450000D02*
X144050000Y-91450000D01*
X144660000Y-92750000D02*
X144050000Y-92750000D01*
X144660000Y-94860000D02*
X144660000Y-90140000D01*
X129914564Y-75265000D02*
X129460436Y-75265000D01*
X129914564Y-76735000D02*
X129460436Y-76735000D01*
X106371359Y-90120000D02*
X106678641Y-90120000D01*
X106371359Y-90880000D02*
X106678641Y-90880000D01*
X118757500Y-84072164D02*
X118757500Y-84287836D01*
X119477500Y-84072164D02*
X119477500Y-84287836D01*
X114700000Y-77700000D02*
X114700000Y-77700000D01*
X114700000Y-78200000D02*
X114700000Y-77900000D01*
X114700000Y-79400000D02*
X114700000Y-79400000D01*
X114700000Y-79900000D02*
X114700000Y-79400000D01*
X115200000Y-77700000D02*
X114900000Y-77700000D01*
X115200000Y-79900000D02*
X114700000Y-79900000D01*
X116400000Y-77700000D02*
X116900000Y-77700000D01*
X116400000Y-79900000D02*
X116400000Y-79900000D01*
X116900000Y-77700000D02*
X116900000Y-78200000D01*
X116900000Y-78200000D02*
X116900000Y-78200000D01*
X116900000Y-79400000D02*
X116900000Y-79900000D01*
X116900000Y-79900000D02*
X116400000Y-79900000D01*
X114700000Y-77700000D02*
X114340000Y-77700000D01*
X114700000Y-77340000D01*
X114700000Y-77700000D01*
G36*
X114700000Y-77700000D02*
G01*
X114340000Y-77700000D01*
X114700000Y-77340000D01*
X114700000Y-77700000D01*
G37*
X103727064Y-75265000D02*
X103272936Y-75265000D01*
X103727064Y-76735000D02*
X103272936Y-76735000D01*
X144340000Y-81825336D02*
X144340000Y-81609664D01*
X145060000Y-81825336D02*
X145060000Y-81609664D01*
X107820000Y-93446359D02*
X107820000Y-93753641D01*
X108580000Y-93446359D02*
X108580000Y-93753641D01*
X111540000Y-83992164D02*
X111540000Y-84207836D01*
X112260000Y-83992164D02*
X112260000Y-84207836D01*
D11*
X139250000Y-79500000D02*
X139500000Y-79500000D01*
X139250000Y-80500000D02*
X139250000Y-79500000D01*
X139250000Y-82500000D02*
X139250000Y-81500000D01*
X139500000Y-82500000D02*
X139250000Y-82500000D01*
X143750000Y-79500000D02*
X143500000Y-79500000D01*
X143750000Y-80500000D02*
X143750000Y-79500000D01*
X143750000Y-81500000D02*
X143750000Y-82500000D01*
X143750000Y-82500000D02*
X143500000Y-82500000D01*
D12*
X139971000Y-78900000D02*
G75*
G02*
X139771000Y-78900000I-100000J0D01*
G01*
X139771000Y-78900000D02*
G75*
G02*
X139971000Y-78900000I100000J0D01*
G01*
D14*
X125204000Y-77147000D02*
X134804000Y-77147000D01*
X125204000Y-87053000D02*
X134804000Y-87053000D01*
X126194000Y-78290000D02*
G75*
G02*
X125686000Y-78290000I-254000J0D01*
G01*
X125686000Y-78290000D02*
G75*
G02*
X126194000Y-78290000I254000J0D01*
G01*
D13*
X104171359Y-87670000D02*
X104478641Y-87670000D01*
X104171359Y-88430000D02*
X104478641Y-88430000D01*
X98220000Y-88446359D02*
X98220000Y-88753641D01*
X98980000Y-88446359D02*
X98980000Y-88753641D01*
X98220000Y-91136359D02*
X98220000Y-91443641D01*
X98980000Y-91136359D02*
X98980000Y-91443641D01*
X98482836Y-81320800D02*
X98267164Y-81320800D01*
X98482836Y-82040800D02*
X98267164Y-82040800D01*
X118142164Y-77902500D02*
X118357836Y-77902500D01*
X118142164Y-78622500D02*
X118357836Y-78622500D01*
X100220000Y-89253641D02*
X100220000Y-88946359D01*
X100980000Y-89253641D02*
X100980000Y-88946359D01*
X113470000Y-91130000D02*
X113470000Y-89800000D01*
X114800000Y-91130000D02*
X113470000Y-91130000D01*
X116070000Y-88470000D02*
X128830000Y-88470000D01*
X116070000Y-91130000D02*
X116070000Y-88470000D01*
X116070000Y-91130000D02*
X128830000Y-91130000D01*
X128830000Y-91130000D02*
X128830000Y-88470000D01*
X103362500Y-88940000D02*
X102712500Y-88940000D01*
X103362500Y-88940000D02*
X104012500Y-88940000D01*
X103362500Y-92060000D02*
X102712500Y-92060000D01*
X103362500Y-92060000D02*
X104012500Y-92060000D01*
X102200000Y-88990000D02*
X101960000Y-88660000D01*
X102440000Y-88660000D01*
X102200000Y-88990000D01*
G36*
X102200000Y-88990000D02*
G01*
X101960000Y-88660000D01*
X102440000Y-88660000D01*
X102200000Y-88990000D01*
G37*
X130140000Y-89840000D02*
X130140000Y-91090000D01*
X130440000Y-90140000D02*
X130440000Y-94860000D01*
X130440000Y-91450000D02*
X131050000Y-91450000D01*
X130440000Y-92750000D02*
X131050000Y-92750000D01*
X130440000Y-94860000D02*
X136560000Y-94860000D01*
X131050000Y-90750000D02*
X131050000Y-94250000D01*
X131050000Y-94250000D02*
X135950000Y-94250000D01*
X131390000Y-89840000D02*
X130140000Y-89840000D01*
X131900000Y-89940000D02*
X131900000Y-90140000D01*
X132200000Y-89940000D02*
X131900000Y-89940000D01*
X132200000Y-90040000D02*
X131900000Y-90040000D01*
X132200000Y-90140000D02*
X132200000Y-89940000D01*
X133000000Y-90140000D02*
X133000000Y-90750000D01*
X133000000Y-90750000D02*
X131050000Y-90750000D01*
X133400000Y-93750000D02*
X133600000Y-93750000D01*
X133400000Y-94250000D02*
X133400000Y-93750000D01*
X133500000Y-94250000D02*
X133500000Y-93750000D01*
X133600000Y-93750000D02*
X133600000Y-94250000D01*
X134000000Y-90750000D02*
X134000000Y-90140000D01*
X135950000Y-90750000D02*
X134000000Y-90750000D01*
X135950000Y-94250000D02*
X135950000Y-90750000D01*
X136560000Y-90140000D02*
X130440000Y-90140000D01*
X136560000Y-91450000D02*
X135950000Y-91450000D01*
X136560000Y-92750000D02*
X135950000Y-92750000D01*
X136560000Y-94860000D02*
X136560000Y-90140000D01*
X138240000Y-83890000D02*
X138240000Y-85140000D01*
X138540000Y-84190000D02*
X138540000Y-88910000D01*
X138540000Y-85500000D02*
X139150000Y-85500000D01*
X138540000Y-86800000D02*
X139150000Y-86800000D01*
X138540000Y-88910000D02*
X144660000Y-88910000D01*
X139150000Y-84800000D02*
X139150000Y-88300000D01*
X139150000Y-88300000D02*
X144050000Y-88300000D01*
X139490000Y-83890000D02*
X138240000Y-83890000D01*
X140000000Y-83990000D02*
X140000000Y-84190000D01*
X140300000Y-83990000D02*
X140000000Y-83990000D01*
X140300000Y-84090000D02*
X140000000Y-84090000D01*
X140300000Y-84190000D02*
X140300000Y-83990000D01*
X141100000Y-84190000D02*
X141100000Y-84800000D01*
X141100000Y-84800000D02*
X139150000Y-84800000D01*
X141500000Y-87800000D02*
X141700000Y-87800000D01*
X141500000Y-88300000D02*
X141500000Y-87800000D01*
X141600000Y-88300000D02*
X141600000Y-87800000D01*
X141700000Y-87800000D02*
X141700000Y-88300000D01*
X142100000Y-84800000D02*
X142100000Y-84190000D01*
X144050000Y-84800000D02*
X142100000Y-84800000D01*
X144050000Y-88300000D02*
X144050000Y-84800000D01*
X144660000Y-84190000D02*
X138540000Y-84190000D01*
X144660000Y-85500000D02*
X144050000Y-85500000D01*
X144660000Y-86800000D02*
X144050000Y-86800000D01*
X144660000Y-88910000D02*
X144660000Y-84190000D01*
X113527836Y-79202500D02*
X113312164Y-79202500D01*
X113527836Y-79922500D02*
X113312164Y-79922500D01*
X116895000Y-84762258D02*
X116895000Y-84287742D01*
X117940000Y-84762258D02*
X117940000Y-84287742D01*
X95540000Y-95560000D02*
X95540000Y-94500000D01*
X96600000Y-95560000D02*
X95540000Y-95560000D01*
X97600000Y-93440000D02*
X105660000Y-93440000D01*
X97600000Y-95560000D02*
X97600000Y-93440000D01*
X97600000Y-95560000D02*
X105660000Y-95560000D01*
X105660000Y-95560000D02*
X105660000Y-93440000D01*
X118142164Y-79102500D02*
X118357836Y-79102500D01*
X118142164Y-79822500D02*
X118357836Y-79822500D01*
X134727064Y-75265000D02*
X134272936Y-75265000D01*
X134727064Y-76735000D02*
X134272936Y-76735000D01*
D15*
X97072600Y-83058400D02*
X97072600Y-85903200D01*
X97072600Y-85903200D02*
X97285259Y-85903200D01*
X97285259Y-83058400D02*
X97072600Y-83058400D01*
X99704741Y-85903200D02*
X99917400Y-85903200D01*
X99917400Y-83058400D02*
X99704741Y-83058400D01*
X99917400Y-85903200D02*
X99917400Y-83058400D01*
X97846600Y-86631800D02*
G75*
G02*
X97643400Y-86631800I-101600J0D01*
G01*
X97643400Y-86631800D02*
G75*
G02*
X97846600Y-86631800I101600J0D01*
G01*
D13*
X125360436Y-75265000D02*
X125814564Y-75265000D01*
X125360436Y-76735000D02*
X125814564Y-76735000D01*
D11*
X102350000Y-81075000D02*
X106250000Y-81075000D01*
X102350000Y-86125000D02*
X106250000Y-86125000D01*
D12*
X99955000Y-81095000D02*
G75*
G02*
X99755000Y-81095000I-100000J0D01*
G01*
X99755000Y-81095000D02*
G75*
G02*
X99955000Y-81095000I100000J0D01*
G01*
D13*
X109662500Y-88940000D02*
X109012500Y-88940000D01*
X109662500Y-88940000D02*
X110312500Y-88940000D01*
X109662500Y-92060000D02*
X109012500Y-92060000D01*
X109662500Y-92060000D02*
X110312500Y-92060000D01*
X108500000Y-88990000D02*
X108260000Y-88660000D01*
X108740000Y-88660000D01*
X108500000Y-88990000D01*
G36*
X108500000Y-88990000D02*
G01*
X108260000Y-88660000D01*
X108740000Y-88660000D01*
X108500000Y-88990000D01*
G37*
X141392164Y-78075000D02*
X141607836Y-78075000D01*
X141392164Y-78795000D02*
X141607836Y-78795000D01*
%LPC*%
D16*
X115125000Y-85080000D02*
X114805000Y-85400000D01*
X113775000Y-85400000D01*
X113775000Y-83600000D01*
X115125000Y-83600000D01*
X115125000Y-85080000D01*
G36*
X115125000Y-85080000D02*
G01*
X114805000Y-85400000D01*
X113775000Y-85400000D01*
X113775000Y-83600000D01*
X115125000Y-83600000D01*
X115125000Y-85080000D01*
G37*
D17*
X108100000Y-76170000D03*
X108600000Y-76170000D03*
X109100000Y-76170000D03*
X109600000Y-76170000D03*
X110100000Y-76170000D03*
X110600000Y-76170000D03*
X111100000Y-76170000D03*
D18*
X111515000Y-77335000D03*
D19*
X111100000Y-78500000D03*
X110600000Y-78500000D03*
X110100000Y-78500000D03*
X109600000Y-78500000D03*
X109100000Y-78500000D03*
X108600000Y-78500000D03*
X108100000Y-78500000D03*
D20*
X107685000Y-77335000D03*
D21*
X109225000Y-81855000D03*
X109225000Y-82815000D03*
D22*
X109320000Y-74770000D03*
X110280000Y-74770000D03*
D23*
X114800000Y-94200000D03*
D24*
X117340000Y-94200000D03*
X119880000Y-94200000D03*
X122420000Y-94200000D03*
X124960000Y-94200000D03*
X127500000Y-94200000D03*
D21*
X121800000Y-79120000D03*
X121800000Y-80080000D03*
D25*
X115600000Y-85300000D03*
X115600000Y-84500000D03*
X115600000Y-83700000D03*
X113300000Y-83700000D03*
X113300000Y-84500000D03*
X113300000Y-85300000D03*
D22*
X110120000Y-79800000D03*
X111080000Y-79800000D03*
D26*
X140600000Y-91950000D03*
D27*
X142600000Y-91950000D03*
D28*
X130600000Y-76000000D03*
X128775000Y-76000000D03*
D29*
X106015000Y-90500000D03*
X107035000Y-90500000D03*
D21*
X119117500Y-83700000D03*
X119117500Y-84660000D03*
D30*
X115037500Y-78050000D03*
X115037500Y-78550000D03*
X115037500Y-79050000D03*
X115037500Y-79550000D03*
D31*
X115550000Y-79562500D03*
X116050000Y-79562500D03*
D30*
X116562500Y-79550000D03*
X116562500Y-79050000D03*
X116562500Y-78550000D03*
X116562500Y-78050000D03*
D31*
X116050000Y-78037500D03*
X115550000Y-78037500D03*
D28*
X104412500Y-76000000D03*
X102587500Y-76000000D03*
D32*
X144700000Y-82197500D03*
X144700000Y-81237500D03*
D33*
X108200000Y-93090000D03*
X108200000Y-94110000D03*
D21*
X111900000Y-83620000D03*
X111900000Y-84580000D03*
D17*
X140000000Y-79835000D03*
X140500000Y-79835000D03*
X141000000Y-79835000D03*
X141500000Y-79835000D03*
X142000000Y-79835000D03*
X142500000Y-79835000D03*
X143000000Y-79835000D03*
D18*
X143415000Y-81000000D03*
D19*
X143000000Y-82165000D03*
X142500000Y-82165000D03*
X142000000Y-82165000D03*
X141500000Y-82165000D03*
X141000000Y-82165000D03*
X140500000Y-82165000D03*
X140000000Y-82165000D03*
D20*
X139585000Y-81000000D03*
D34*
X124285000Y-78290000D03*
X124285000Y-80830000D03*
X124285000Y-83370000D03*
X124285000Y-85910000D03*
X135715000Y-85910000D03*
X135715000Y-83370000D03*
X135715000Y-80830000D03*
X135715000Y-78290000D03*
D29*
X103815000Y-88050000D03*
X104835000Y-88050000D03*
D33*
X98600000Y-88090000D03*
X98600000Y-89110000D03*
X98600000Y-90780000D03*
X98600000Y-91800000D03*
D35*
X98855000Y-81680800D03*
X97895000Y-81680800D03*
D22*
X117770000Y-78262500D03*
X118730000Y-78262500D03*
D36*
X100600000Y-89610000D03*
X100600000Y-88590000D03*
D23*
X114800000Y-89800000D03*
D24*
X117340000Y-89800000D03*
X119880000Y-89800000D03*
X122420000Y-89800000D03*
X124960000Y-89800000D03*
X127500000Y-89800000D03*
D37*
X102425000Y-89550000D03*
X102425000Y-91450000D03*
X104300000Y-90500000D03*
D26*
X132500000Y-91950000D03*
D27*
X134500000Y-91950000D03*
D26*
X140600000Y-86000000D03*
D27*
X142600000Y-86000000D03*
D35*
X113900000Y-79562500D03*
X112940000Y-79562500D03*
D38*
X117417500Y-85350000D03*
X117417500Y-83700000D03*
D39*
X96600000Y-94500000D03*
D40*
X98600000Y-94500000D03*
X100600000Y-94500000D03*
X102600000Y-94500000D03*
X104600000Y-94500000D03*
D22*
X117770000Y-79462500D03*
X118730000Y-79462500D03*
D28*
X135412500Y-76000000D03*
X133587500Y-76000000D03*
D41*
X97744999Y-85700000D03*
X98245000Y-85700000D03*
X98745000Y-85700000D03*
X99245001Y-85700000D03*
X99245001Y-83261600D03*
X98745000Y-83261600D03*
X98245000Y-83261600D03*
X97744999Y-83261600D03*
D42*
X98495000Y-84480800D03*
D43*
X124675000Y-76000000D03*
X126500000Y-76000000D03*
D44*
X101825000Y-81695000D03*
X101825000Y-82965000D03*
X101825000Y-84235000D03*
X101825000Y-85505000D03*
X106775000Y-85505000D03*
X106775000Y-84235000D03*
X106775000Y-82965000D03*
X106775000Y-81695000D03*
D37*
X108725000Y-89550000D03*
X108725000Y-91450000D03*
X110600000Y-90500000D03*
D22*
X141020000Y-78435000D03*
X141980000Y-78435000D03*
D23*
X95800000Y-72840000D03*
D24*
X95800000Y-70300000D03*
X98340000Y-72840000D03*
X98340000Y-70300000D03*
X100880000Y-72840000D03*
X100880000Y-70300000D03*
X103420000Y-72840000D03*
X103420000Y-70300000D03*
X105960000Y-72840000D03*
X105960000Y-70300000D03*
X108500000Y-72840000D03*
X108500000Y-70300000D03*
X111040000Y-72840000D03*
X111040000Y-70300000D03*
X113580000Y-72840000D03*
X113580000Y-70300000D03*
X116120000Y-72840000D03*
X116120000Y-70300000D03*
X118660000Y-72840000D03*
X118660000Y-70300000D03*
X121200000Y-72840000D03*
X121200000Y-70300000D03*
X123740000Y-72840000D03*
X123740000Y-70300000D03*
X126280000Y-72840000D03*
X126280000Y-70300000D03*
X128820000Y-72840000D03*
X128820000Y-70300000D03*
X131360000Y-72840000D03*
X131360000Y-70300000D03*
X133900000Y-72840000D03*
X133900000Y-70300000D03*
X136440000Y-72840000D03*
X136440000Y-70300000D03*
X138980000Y-72840000D03*
X138980000Y-70300000D03*
X141520000Y-72840000D03*
X141520000Y-70300000D03*
X144060000Y-72840000D03*
X144060000Y-70300000D03*
%LPD*%
M02*
