G04 #@! TF.GenerationSoftware,KiCad,Pcbnew,8.0.3*
G04 #@! TF.CreationDate,2024-06-13T11:49:56-06:00*
G04 #@! TF.ProjectId,PCB_Project,5043425f-5072-46f6-9a65-63742e6b6963,rev?*
G04 #@! TF.SameCoordinates,Original*
G04 #@! TF.FileFunction,Soldermask,Top*
G04 #@! TF.FilePolarity,Negative*
%FSLAX46Y46*%
G04 Gerber Fmt 4.6, Leading zero omitted, Abs format (unit mm)*
G04 Created by KiCad (PCBNEW 8.0.3) date 2024-06-13 11:49:56*
%MOMM*%
%LPD*%
G01*
G04 APERTURE LIST*
G04 Aperture macros list*
%AMRoundRect*
0 Rectangle with rounded corners*
0 $1 Rounding radius*
0 $2 $3 $4 $5 $6 $7 $8 $9 X,Y pos of 4 corners*
0 Add a 4 corners polygon primitive as box body*
4,1,4,$2,$3,$4,$5,$6,$7,$8,$9,$2,$3,0*
0 Add four circle primitives for the rounded corners*
1,1,$1+$1,$2,$3*
1,1,$1+$1,$4,$5*
1,1,$1+$1,$6,$7*
1,1,$1+$1,$8,$9*
0 Add four rect primitives between the rounded corners*
20,1,$1+$1,$2,$3,$4,$5,0*
20,1,$1+$1,$4,$5,$6,$7,0*
20,1,$1+$1,$6,$7,$8,$9,0*
20,1,$1+$1,$8,$9,$2,$3,0*%
G04 Aperture macros list end*
%ADD10C,0.010000*%
%ADD11RoundRect,0.102000X-0.175000X0.295000X-0.175000X-0.295000X0.175000X-0.295000X0.175000X0.295000X0*%
%ADD12RoundRect,0.102000X0.295000X0.175000X-0.295000X0.175000X-0.295000X-0.175000X0.295000X-0.175000X0*%
%ADD13RoundRect,0.102000X0.175000X-0.295000X0.175000X0.295000X-0.175000X0.295000X-0.175000X-0.295000X0*%
%ADD14RoundRect,0.102000X-0.295000X-0.175000X0.295000X-0.175000X0.295000X0.175000X-0.295000X0.175000X0*%
%ADD15RoundRect,0.140000X-0.170000X0.140000X-0.170000X-0.140000X0.170000X-0.140000X0.170000X0.140000X0*%
%ADD16RoundRect,0.140000X-0.140000X-0.170000X0.140000X-0.170000X0.140000X0.170000X-0.140000X0.170000X0*%
%ADD17R,1.700000X1.700000*%
%ADD18O,1.700000X1.700000*%
%ADD19RoundRect,0.102000X0.275000X0.200000X-0.275000X0.200000X-0.275000X-0.200000X0.275000X-0.200000X0*%
%ADD20RoundRect,0.250000X-0.350000X-0.625000X0.350000X-0.625000X0.350000X0.625000X-0.350000X0.625000X0*%
%ADD21O,1.200000X1.750000*%
%ADD22RoundRect,0.250000X0.262500X0.450000X-0.262500X0.450000X-0.262500X-0.450000X0.262500X-0.450000X0*%
%ADD23RoundRect,0.135000X-0.135000X-0.185000X0.135000X-0.185000X0.135000X0.185000X-0.135000X0.185000X0*%
%ADD24R,0.375000X0.350000*%
%ADD25R,0.350000X0.375000*%
%ADD26RoundRect,0.140000X0.170000X-0.140000X0.170000X0.140000X-0.170000X0.140000X-0.170000X-0.140000X0*%
%ADD27RoundRect,0.135000X-0.185000X0.135000X-0.185000X-0.135000X0.185000X-0.135000X0.185000X0.135000X0*%
%ADD28R,2.030000X1.140000*%
%ADD29RoundRect,0.140000X0.140000X0.170000X-0.140000X0.170000X-0.140000X-0.170000X0.140000X-0.170000X0*%
%ADD30RoundRect,0.135000X0.185000X-0.135000X0.185000X0.135000X-0.185000X0.135000X-0.185000X-0.135000X0*%
%ADD31RoundRect,0.150000X-0.587500X-0.150000X0.587500X-0.150000X0.587500X0.150000X-0.587500X0.150000X0*%
%ADD32RoundRect,0.200000X0.275000X-0.200000X0.275000X0.200000X-0.275000X0.200000X-0.275000X-0.200000X0*%
%ADD33R,1.350000X1.350000*%
%ADD34O,1.350000X1.350000*%
%ADD35R,0.254000X0.762000*%
%ADD36R,2.006600X1.295400*%
%ADD37RoundRect,0.250000X-0.262500X-0.450000X0.262500X-0.450000X0.262500X0.450000X-0.262500X0.450000X0*%
%ADD38RoundRect,0.100500X-0.986500X-0.301500X0.986500X-0.301500X0.986500X0.301500X-0.986500X0.301500X0*%
G04 APERTURE END LIST*
D10*
X115125000Y-85080000D02*
X114805000Y-85400000D01*
X113775000Y-85400000D01*
X113775000Y-83600000D01*
X115125000Y-83600000D01*
X115125000Y-85080000D01*
G36*
X115125000Y-85080000D02*
G01*
X114805000Y-85400000D01*
X113775000Y-85400000D01*
X113775000Y-83600000D01*
X115125000Y-83600000D01*
X115125000Y-85080000D01*
G37*
D11*
X108100000Y-76170000D03*
X108600000Y-76170000D03*
X109100000Y-76170000D03*
X109600000Y-76170000D03*
X110100000Y-76170000D03*
X110600000Y-76170000D03*
X111100000Y-76170000D03*
D12*
X111515000Y-77335000D03*
D13*
X111100000Y-78500000D03*
X110600000Y-78500000D03*
X110100000Y-78500000D03*
X109600000Y-78500000D03*
X109100000Y-78500000D03*
X108600000Y-78500000D03*
X108100000Y-78500000D03*
D14*
X107685000Y-77335000D03*
D15*
X109225000Y-81855000D03*
X109225000Y-82815000D03*
D16*
X109320000Y-74770000D03*
X110280000Y-74770000D03*
D17*
X114800000Y-94200000D03*
D18*
X117340000Y-94200000D03*
X119880000Y-94200000D03*
X122420000Y-94200000D03*
X124960000Y-94200000D03*
X127500000Y-94200000D03*
D15*
X121800000Y-79120000D03*
X121800000Y-80080000D03*
D19*
X115600000Y-85300000D03*
X115600000Y-84500000D03*
X115600000Y-83700000D03*
X113300000Y-83700000D03*
X113300000Y-84500000D03*
X113300000Y-85300000D03*
D16*
X110120000Y-79800000D03*
X111080000Y-79800000D03*
D20*
X140600000Y-91950000D03*
D21*
X142600000Y-91950000D03*
D22*
X130600000Y-76000000D03*
X128775000Y-76000000D03*
D23*
X106015000Y-90500000D03*
X107035000Y-90500000D03*
D15*
X119117500Y-83700000D03*
X119117500Y-84660000D03*
D24*
X115037500Y-78050000D03*
X115037500Y-78550000D03*
X115037500Y-79050000D03*
X115037500Y-79550000D03*
D25*
X115550000Y-79562500D03*
X116050000Y-79562500D03*
D24*
X116562500Y-79550000D03*
X116562500Y-79050000D03*
X116562500Y-78550000D03*
X116562500Y-78050000D03*
D25*
X116050000Y-78037500D03*
X115550000Y-78037500D03*
D22*
X104412500Y-76000000D03*
X102587500Y-76000000D03*
D26*
X144700000Y-82197500D03*
X144700000Y-81237500D03*
D27*
X108200000Y-93090000D03*
X108200000Y-94110000D03*
D15*
X111900000Y-83620000D03*
X111900000Y-84580000D03*
D11*
X140000000Y-79835000D03*
X140500000Y-79835000D03*
X141000000Y-79835000D03*
X141500000Y-79835000D03*
X142000000Y-79835000D03*
X142500000Y-79835000D03*
X143000000Y-79835000D03*
D12*
X143415000Y-81000000D03*
D13*
X143000000Y-82165000D03*
X142500000Y-82165000D03*
X142000000Y-82165000D03*
X141500000Y-82165000D03*
X141000000Y-82165000D03*
X140500000Y-82165000D03*
X140000000Y-82165000D03*
D14*
X139585000Y-81000000D03*
D28*
X124285000Y-78290000D03*
X124285000Y-80830000D03*
X124285000Y-83370000D03*
X124285000Y-85910000D03*
X135715000Y-85910000D03*
X135715000Y-83370000D03*
X135715000Y-80830000D03*
X135715000Y-78290000D03*
D23*
X103815000Y-88050000D03*
X104835000Y-88050000D03*
D27*
X98600000Y-88090000D03*
X98600000Y-89110000D03*
X98600000Y-90780000D03*
X98600000Y-91800000D03*
D29*
X98855000Y-81680800D03*
X97895000Y-81680800D03*
D16*
X117770000Y-78262500D03*
X118730000Y-78262500D03*
D30*
X100600000Y-89610000D03*
X100600000Y-88590000D03*
D17*
X114800000Y-89800000D03*
D18*
X117340000Y-89800000D03*
X119880000Y-89800000D03*
X122420000Y-89800000D03*
X124960000Y-89800000D03*
X127500000Y-89800000D03*
D31*
X102425000Y-89550000D03*
X102425000Y-91450000D03*
X104300000Y-90500000D03*
D20*
X132500000Y-91950000D03*
D21*
X134500000Y-91950000D03*
D20*
X140600000Y-86000000D03*
D21*
X142600000Y-86000000D03*
D29*
X113900000Y-79562500D03*
X112940000Y-79562500D03*
D32*
X117417500Y-85350000D03*
X117417500Y-83700000D03*
D33*
X96600000Y-94500000D03*
D34*
X98600000Y-94500000D03*
X100600000Y-94500000D03*
X102600000Y-94500000D03*
X104600000Y-94500000D03*
D16*
X117770000Y-79462500D03*
X118730000Y-79462500D03*
D22*
X135412500Y-76000000D03*
X133587500Y-76000000D03*
D35*
X97744999Y-85700000D03*
X98245000Y-85700000D03*
X98745000Y-85700000D03*
X99245001Y-85700000D03*
X99245001Y-83261600D03*
X98745000Y-83261600D03*
X98245000Y-83261600D03*
X97744999Y-83261600D03*
D36*
X98495000Y-84480800D03*
D37*
X124675000Y-76000000D03*
X126500000Y-76000000D03*
D38*
X101825000Y-81695000D03*
X101825000Y-82965000D03*
X101825000Y-84235000D03*
X101825000Y-85505000D03*
X106775000Y-85505000D03*
X106775000Y-84235000D03*
X106775000Y-82965000D03*
X106775000Y-81695000D03*
D31*
X108725000Y-89550000D03*
X108725000Y-91450000D03*
X110600000Y-90500000D03*
D16*
X141020000Y-78435000D03*
X141980000Y-78435000D03*
D17*
X95800000Y-72840000D03*
D18*
X95800000Y-70300000D03*
X98340000Y-72840000D03*
X98340000Y-70300000D03*
X100880000Y-72840000D03*
X100880000Y-70300000D03*
X103420000Y-72840000D03*
X103420000Y-70300000D03*
X105960000Y-72840000D03*
X105960000Y-70300000D03*
X108500000Y-72840000D03*
X108500000Y-70300000D03*
X111040000Y-72840000D03*
X111040000Y-70300000D03*
X113580000Y-72840000D03*
X113580000Y-70300000D03*
X116120000Y-72840000D03*
X116120000Y-70300000D03*
X118660000Y-72840000D03*
X118660000Y-70300000D03*
X121200000Y-72840000D03*
X121200000Y-70300000D03*
X123740000Y-72840000D03*
X123740000Y-70300000D03*
X126280000Y-72840000D03*
X126280000Y-70300000D03*
X128820000Y-72840000D03*
X128820000Y-70300000D03*
X131360000Y-72840000D03*
X131360000Y-70300000D03*
X133900000Y-72840000D03*
X133900000Y-70300000D03*
X136440000Y-72840000D03*
X136440000Y-70300000D03*
X138980000Y-72840000D03*
X138980000Y-70300000D03*
X141520000Y-72840000D03*
X141520000Y-70300000D03*
X144060000Y-72840000D03*
X144060000Y-70300000D03*
M02*
