%TF.GenerationSoftware,KiCad,Pcbnew,8.0.3*%
%TF.CreationDate,2024-06-13T11:50:00-06:00*%
%TF.ProjectId,PCB_Project,5043425f-5072-46f6-9a65-63742e6b6963,rev?*%
%TF.SameCoordinates,Original*%
%TF.FileFunction,Drillmap*%
%TF.FilePolarity,Positive*%
%FSLAX45Y45*%
G04 Gerber Fmt 4.5, Leading zero omitted, Abs format (unit mm)*
G04 Created by KiCad (PCBNEW 8.0.3) date 2024-06-13 11:50:00*
%MOMM*%
%LPD*%
G01*
G04 APERTURE LIST*
%ADD10C,0.200000*%
%ADD11C,0.100000*%
G04 APERTURE END LIST*
D10*
X9350000Y-6750000D02*
X14650000Y-6750000D01*
X14650000Y-9750000D01*
X9350000Y-9750000D01*
X9350000Y-6750000D01*
D11*
X9640000Y-8410000D02*
X9680000Y-8450000D01*
X9680000Y-8410000D02*
X9640000Y-8450000D01*
X9670000Y-9130000D02*
X9710000Y-9170000D01*
X9710000Y-9130000D02*
X9670000Y-9170000D01*
X9850000Y-8040000D02*
X9890000Y-8080000D01*
X9890000Y-8040000D02*
X9850000Y-8080000D01*
X9990000Y-9130000D02*
X10030000Y-9170000D01*
X10030000Y-9130000D02*
X9990000Y-9170000D01*
X10050000Y-7750000D02*
X10090000Y-7790000D01*
X10090000Y-7750000D02*
X10050000Y-7790000D01*
X10050000Y-8690000D02*
X10090000Y-8730000D01*
X10090000Y-8690000D02*
X10050000Y-8730000D01*
X10180000Y-6870000D02*
X10220000Y-6910000D01*
X10220000Y-6870000D02*
X10180000Y-6910000D01*
X10220000Y-7430000D02*
X10260000Y-7470000D01*
X10260000Y-7430000D02*
X10220000Y-7470000D01*
X10328200Y-8009500D02*
X10368200Y-8049500D01*
X10368200Y-8009500D02*
X10328200Y-8049500D01*
X10328200Y-8279500D02*
X10368200Y-8319500D01*
X10368200Y-8279500D02*
X10328200Y-8319500D01*
X10420000Y-7720000D02*
X10460000Y-7760000D01*
X10460000Y-7720000D02*
X10420000Y-7760000D01*
X10460000Y-8010000D02*
X10500000Y-8050000D01*
X10500000Y-8010000D02*
X10460000Y-8050000D01*
X10500000Y-7440000D02*
X10540000Y-7480000D01*
X10540000Y-7440000D02*
X10500000Y-7480000D01*
X10580000Y-7590000D02*
X10620000Y-7630000D01*
X10620000Y-7590000D02*
X10580000Y-7630000D01*
X10725000Y-8810000D02*
X10765000Y-8850000D01*
X10765000Y-8810000D02*
X10725000Y-8850000D01*
X10800000Y-7460000D02*
X10840000Y-7500000D01*
X10840000Y-7460000D02*
X10800000Y-7500000D01*
X10800000Y-9510000D02*
X10840000Y-9550000D01*
X10840000Y-9510000D02*
X10800000Y-9550000D01*
X10840000Y-7930000D02*
X10880000Y-7970000D01*
X10880000Y-7930000D02*
X10840000Y-7970000D01*
X10840000Y-8075200D02*
X10880000Y-8115200D01*
X10880000Y-8075200D02*
X10840000Y-8115200D01*
X10890000Y-7690000D02*
X10930000Y-7730000D01*
X10930000Y-7690000D02*
X10890000Y-7730000D01*
X10900000Y-8510000D02*
X10940000Y-8550000D01*
X10940000Y-8510000D02*
X10900000Y-8550000D01*
X11000000Y-8250000D02*
X11040000Y-8290000D01*
X11040000Y-8250000D02*
X11000000Y-8290000D01*
X11142000Y-8533690D02*
X11182000Y-8573690D01*
X11182000Y-8533690D02*
X11142000Y-8573690D01*
X11162900Y-7559880D02*
X11202900Y-7599880D01*
X11202900Y-7559880D02*
X11162900Y-7599880D01*
X11170000Y-8250000D02*
X11210000Y-8290000D01*
X11210000Y-8250000D02*
X11170000Y-8290000D01*
X11230000Y-7420000D02*
X11270000Y-7460000D01*
X11270000Y-7420000D02*
X11230000Y-7460000D01*
X11231600Y-7777230D02*
X11271600Y-7817230D01*
X11271600Y-7777230D02*
X11231600Y-7817230D01*
X11450000Y-8210570D02*
X11490000Y-8250570D01*
X11490000Y-8210570D02*
X11450000Y-8250570D01*
X11540000Y-7640000D02*
X11580000Y-7680000D01*
X11580000Y-7640000D02*
X11540000Y-7680000D01*
X11620000Y-8140000D02*
X11660000Y-8180000D01*
X11660000Y-8140000D02*
X11620000Y-8180000D01*
X11680000Y-7490000D02*
X11720000Y-7530000D01*
X11720000Y-7490000D02*
X11680000Y-7530000D01*
X11720000Y-7074800D02*
X11760000Y-7114800D01*
X11760000Y-7074800D02*
X11720000Y-7114800D01*
X11721800Y-8640000D02*
X11761800Y-8680000D01*
X11761800Y-8640000D02*
X11721800Y-8680000D01*
X11740000Y-7700000D02*
X11780000Y-7740000D01*
X11780000Y-7700000D02*
X11740000Y-7740000D01*
X11814100Y-8237010D02*
X11854100Y-8277010D01*
X11854100Y-8237010D02*
X11814100Y-8277010D01*
X11860000Y-8050000D02*
X11900000Y-8090000D01*
X11900000Y-8050000D02*
X11860000Y-8090000D01*
X11930000Y-9200000D02*
X11970000Y-9240000D01*
X11970000Y-9200000D02*
X11930000Y-9240000D01*
X12040000Y-8490000D02*
X12080000Y-8530000D01*
X12080000Y-8490000D02*
X12040000Y-8530000D01*
X12078700Y-8055000D02*
X12118700Y-8095000D01*
X12118700Y-8055000D02*
X12078700Y-8095000D01*
X12110000Y-8680000D02*
X12150000Y-8720000D01*
X12150000Y-8680000D02*
X12110000Y-8720000D01*
X12170000Y-8120000D02*
X12210000Y-8160000D01*
X12210000Y-8120000D02*
X12170000Y-8160000D01*
X12210000Y-7790000D02*
X12250000Y-7830000D01*
X12250000Y-7790000D02*
X12210000Y-7830000D01*
X12210000Y-8580000D02*
X12250000Y-8620000D01*
X12250000Y-8580000D02*
X12210000Y-8620000D01*
X12220000Y-9210000D02*
X12260000Y-9250000D01*
X12260000Y-9210000D02*
X12220000Y-9250000D01*
X12311200Y-7580000D02*
X12351200Y-7620000D01*
X12351200Y-7580000D02*
X12311200Y-7620000D01*
X12418900Y-8191410D02*
X12458900Y-8231410D01*
X12458900Y-8191410D02*
X12418900Y-8231410D01*
X12518400Y-9191150D02*
X12558400Y-9231150D01*
X12558400Y-9191150D02*
X12518400Y-9231150D01*
X12640200Y-7921290D02*
X12680200Y-7961290D01*
X12680200Y-7921290D02*
X12640200Y-7961290D01*
X12710000Y-8150000D02*
X12750000Y-8190000D01*
X12750000Y-8150000D02*
X12710000Y-8190000D01*
X12760000Y-8600000D02*
X12800000Y-8640000D01*
X12800000Y-8600000D02*
X12760000Y-8640000D01*
X12880000Y-8470000D02*
X12920000Y-8510000D01*
X12920000Y-8470000D02*
X12880000Y-8510000D01*
X12987400Y-7925000D02*
X13027400Y-7965000D01*
X13027400Y-7925000D02*
X12987400Y-7965000D01*
X12990000Y-7410000D02*
X13030000Y-7450000D01*
X13030000Y-7410000D02*
X12990000Y-7450000D01*
X13020000Y-8330000D02*
X13060000Y-8370000D01*
X13060000Y-8330000D02*
X13020000Y-8370000D01*
X13079300Y-8435450D02*
X13119300Y-8475450D01*
X13119300Y-8435450D02*
X13079300Y-8475450D01*
X13177500Y-7580000D02*
X13217500Y-7620000D01*
X13217500Y-7580000D02*
X13177500Y-7620000D01*
X13210000Y-8570000D02*
X13250000Y-8610000D01*
X13250000Y-8570000D02*
X13210000Y-8610000D01*
X13240000Y-6890000D02*
X13280000Y-6930000D01*
X13280000Y-6890000D02*
X13240000Y-6930000D01*
X13321600Y-7750000D02*
X13361600Y-7790000D01*
X13361600Y-7750000D02*
X13321600Y-7790000D01*
X13360000Y-8350000D02*
X13400000Y-8390000D01*
X13400000Y-8350000D02*
X13360000Y-8390000D01*
X13470000Y-7440000D02*
X13510000Y-7480000D01*
X13510000Y-7440000D02*
X13470000Y-7480000D01*
X13510000Y-7930000D02*
X13550000Y-7970000D01*
X13550000Y-7930000D02*
X13510000Y-7970000D01*
X13530000Y-6880000D02*
X13570000Y-6920000D01*
X13570000Y-6880000D02*
X13530000Y-6920000D01*
X13658800Y-7580000D02*
X13698800Y-7620000D01*
X13698800Y-7580000D02*
X13658800Y-7620000D01*
X13749200Y-8155130D02*
X13789200Y-8195130D01*
X13789200Y-8155130D02*
X13749200Y-8195130D01*
X14080000Y-7580000D02*
X14120000Y-7620000D01*
X14120000Y-7580000D02*
X14080000Y-7620000D01*
X14080000Y-7700000D02*
X14120000Y-7740000D01*
X14120000Y-7700000D02*
X14080000Y-7740000D01*
X14090000Y-8300000D02*
X14130000Y-8340000D01*
X14130000Y-8300000D02*
X14090000Y-8340000D01*
X14186800Y-8316630D02*
X14226800Y-8356630D01*
X14226800Y-8316630D02*
X14186800Y-8356630D01*
X14190000Y-7460000D02*
X14230000Y-7500000D01*
X14230000Y-7460000D02*
X14190000Y-7500000D01*
X14362100Y-8163750D02*
X14402100Y-8203750D01*
X14402100Y-8163750D02*
X14362100Y-8203750D01*
X14440000Y-8340000D02*
X14480000Y-8380000D01*
X14480000Y-8340000D02*
X14440000Y-8380000D01*
X14450000Y-8020000D02*
X14490000Y-8060000D01*
X14490000Y-8020000D02*
X14450000Y-8060000D01*
X14490000Y-7840000D02*
X14530000Y-7880000D01*
X14530000Y-7840000D02*
X14490000Y-7880000D01*
X13287500Y-9195000D02*
G75*
G02*
X13212500Y-9195000I-37500J0D01*
G01*
X13212500Y-9195000D02*
G75*
G02*
X13287500Y-9195000I37500J0D01*
G01*
X13487500Y-9195000D02*
G75*
G02*
X13412500Y-9195000I-37500J0D01*
G01*
X13412500Y-9195000D02*
G75*
G02*
X13487500Y-9195000I37500J0D01*
G01*
X14097500Y-8600000D02*
G75*
G02*
X14022500Y-8600000I-37500J0D01*
G01*
X14022500Y-8600000D02*
G75*
G02*
X14097500Y-8600000I37500J0D01*
G01*
X14097500Y-9195000D02*
G75*
G02*
X14022500Y-9195000I-37500J0D01*
G01*
X14022500Y-9195000D02*
G75*
G02*
X14097500Y-9195000I37500J0D01*
G01*
X14297500Y-8600000D02*
G75*
G02*
X14222500Y-8600000I-37500J0D01*
G01*
X14222500Y-8600000D02*
G75*
G02*
X14297500Y-8600000I37500J0D01*
G01*
X14297500Y-9195000D02*
G75*
G02*
X14222500Y-9195000I-37500J0D01*
G01*
X14222500Y-9195000D02*
G75*
G02*
X14297500Y-9195000I37500J0D01*
G01*
X9660000Y-9410000D02*
X9660000Y-9490000D01*
X9620000Y-9450000D02*
X9700000Y-9450000D01*
X9860000Y-9410000D02*
X9860000Y-9490000D01*
X9820000Y-9450000D02*
X9900000Y-9450000D01*
X10060000Y-9410000D02*
X10060000Y-9490000D01*
X10020000Y-9450000D02*
X10100000Y-9450000D01*
X10260000Y-9410000D02*
X10260000Y-9490000D01*
X10220000Y-9450000D02*
X10300000Y-9450000D01*
X10460000Y-9410000D02*
X10460000Y-9490000D01*
X10420000Y-9450000D02*
X10500000Y-9450000D01*
X9615356Y-7065356D02*
X9615356Y-6994644D01*
X9544644Y-6994644D01*
X9544644Y-7065356D01*
X9615356Y-7065356D01*
X9615356Y-7319356D02*
X9615356Y-7248644D01*
X9544644Y-7248644D01*
X9544644Y-7319356D01*
X9615356Y-7319356D01*
X9869356Y-7065356D02*
X9869356Y-6994644D01*
X9798644Y-6994644D01*
X9798644Y-7065356D01*
X9869356Y-7065356D01*
X9869356Y-7319356D02*
X9869356Y-7248644D01*
X9798644Y-7248644D01*
X9798644Y-7319356D01*
X9869356Y-7319356D01*
X10123356Y-7065356D02*
X10123356Y-6994644D01*
X10052644Y-6994644D01*
X10052644Y-7065356D01*
X10123356Y-7065356D01*
X10123356Y-7319356D02*
X10123356Y-7248644D01*
X10052644Y-7248644D01*
X10052644Y-7319356D01*
X10123356Y-7319356D01*
X10377356Y-7065356D02*
X10377356Y-6994644D01*
X10306644Y-6994644D01*
X10306644Y-7065356D01*
X10377356Y-7065356D01*
X10377356Y-7319356D02*
X10377356Y-7248644D01*
X10306644Y-7248644D01*
X10306644Y-7319356D01*
X10377356Y-7319356D01*
X10631356Y-7065356D02*
X10631356Y-6994644D01*
X10560644Y-6994644D01*
X10560644Y-7065356D01*
X10631356Y-7065356D01*
X10631356Y-7319356D02*
X10631356Y-7248644D01*
X10560644Y-7248644D01*
X10560644Y-7319356D01*
X10631356Y-7319356D01*
X10885356Y-7065356D02*
X10885356Y-6994644D01*
X10814644Y-6994644D01*
X10814644Y-7065356D01*
X10885356Y-7065356D01*
X10885356Y-7319356D02*
X10885356Y-7248644D01*
X10814644Y-7248644D01*
X10814644Y-7319356D01*
X10885356Y-7319356D01*
X11139356Y-7065356D02*
X11139356Y-6994644D01*
X11068644Y-6994644D01*
X11068644Y-7065356D01*
X11139356Y-7065356D01*
X11139356Y-7319356D02*
X11139356Y-7248644D01*
X11068644Y-7248644D01*
X11068644Y-7319356D01*
X11139356Y-7319356D01*
X11393356Y-7065356D02*
X11393356Y-6994644D01*
X11322644Y-6994644D01*
X11322644Y-7065356D01*
X11393356Y-7065356D01*
X11393356Y-7319356D02*
X11393356Y-7248644D01*
X11322644Y-7248644D01*
X11322644Y-7319356D01*
X11393356Y-7319356D01*
X11515356Y-9015356D02*
X11515356Y-8944644D01*
X11444644Y-8944644D01*
X11444644Y-9015356D01*
X11515356Y-9015356D01*
X11515356Y-9455356D02*
X11515356Y-9384644D01*
X11444644Y-9384644D01*
X11444644Y-9455356D01*
X11515356Y-9455356D01*
X11647356Y-7065356D02*
X11647356Y-6994644D01*
X11576644Y-6994644D01*
X11576644Y-7065356D01*
X11647356Y-7065356D01*
X11647356Y-7319356D02*
X11647356Y-7248644D01*
X11576644Y-7248644D01*
X11576644Y-7319356D01*
X11647356Y-7319356D01*
X11769356Y-9015356D02*
X11769356Y-8944644D01*
X11698644Y-8944644D01*
X11698644Y-9015356D01*
X11769356Y-9015356D01*
X11769356Y-9455356D02*
X11769356Y-9384644D01*
X11698644Y-9384644D01*
X11698644Y-9455356D01*
X11769356Y-9455356D01*
X11901356Y-7065356D02*
X11901356Y-6994644D01*
X11830644Y-6994644D01*
X11830644Y-7065356D01*
X11901356Y-7065356D01*
X11901356Y-7319356D02*
X11901356Y-7248644D01*
X11830644Y-7248644D01*
X11830644Y-7319356D01*
X11901356Y-7319356D01*
X12023356Y-9015356D02*
X12023356Y-8944644D01*
X11952644Y-8944644D01*
X11952644Y-9015356D01*
X12023356Y-9015356D01*
X12023356Y-9455356D02*
X12023356Y-9384644D01*
X11952644Y-9384644D01*
X11952644Y-9455356D01*
X12023356Y-9455356D01*
X12155356Y-7065356D02*
X12155356Y-6994644D01*
X12084644Y-6994644D01*
X12084644Y-7065356D01*
X12155356Y-7065356D01*
X12155356Y-7319356D02*
X12155356Y-7248644D01*
X12084644Y-7248644D01*
X12084644Y-7319356D01*
X12155356Y-7319356D01*
X12277356Y-9015356D02*
X12277356Y-8944644D01*
X12206644Y-8944644D01*
X12206644Y-9015356D01*
X12277356Y-9015356D01*
X12277356Y-9455356D02*
X12277356Y-9384644D01*
X12206644Y-9384644D01*
X12206644Y-9455356D01*
X12277356Y-9455356D01*
X12409356Y-7065356D02*
X12409356Y-6994644D01*
X12338644Y-6994644D01*
X12338644Y-7065356D01*
X12409356Y-7065356D01*
X12409356Y-7319356D02*
X12409356Y-7248644D01*
X12338644Y-7248644D01*
X12338644Y-7319356D01*
X12409356Y-7319356D01*
X12531356Y-9015356D02*
X12531356Y-8944644D01*
X12460644Y-8944644D01*
X12460644Y-9015356D01*
X12531356Y-9015356D01*
X12531356Y-9455356D02*
X12531356Y-9384644D01*
X12460644Y-9384644D01*
X12460644Y-9455356D01*
X12531356Y-9455356D01*
X12663356Y-7065356D02*
X12663356Y-6994644D01*
X12592644Y-6994644D01*
X12592644Y-7065356D01*
X12663356Y-7065356D01*
X12663356Y-7319356D02*
X12663356Y-7248644D01*
X12592644Y-7248644D01*
X12592644Y-7319356D01*
X12663356Y-7319356D01*
X12785356Y-9015356D02*
X12785356Y-8944644D01*
X12714644Y-8944644D01*
X12714644Y-9015356D01*
X12785356Y-9015356D01*
X12785356Y-9455356D02*
X12785356Y-9384644D01*
X12714644Y-9384644D01*
X12714644Y-9455356D01*
X12785356Y-9455356D01*
X12917356Y-7065356D02*
X12917356Y-6994644D01*
X12846644Y-6994644D01*
X12846644Y-7065356D01*
X12917356Y-7065356D01*
X12917356Y-7319356D02*
X12917356Y-7248644D01*
X12846644Y-7248644D01*
X12846644Y-7319356D01*
X12917356Y-7319356D01*
X13171356Y-7065356D02*
X13171356Y-6994644D01*
X13100644Y-6994644D01*
X13100644Y-7065356D01*
X13171356Y-7065356D01*
X13171356Y-7319356D02*
X13171356Y-7248644D01*
X13100644Y-7248644D01*
X13100644Y-7319356D01*
X13171356Y-7319356D01*
X13425356Y-7065356D02*
X13425356Y-6994644D01*
X13354644Y-6994644D01*
X13354644Y-7065356D01*
X13425356Y-7065356D01*
X13425356Y-7319356D02*
X13425356Y-7248644D01*
X13354644Y-7248644D01*
X13354644Y-7319356D01*
X13425356Y-7319356D01*
X13679356Y-7065356D02*
X13679356Y-6994644D01*
X13608644Y-6994644D01*
X13608644Y-7065356D01*
X13679356Y-7065356D01*
X13679356Y-7319356D02*
X13679356Y-7248644D01*
X13608644Y-7248644D01*
X13608644Y-7319356D01*
X13679356Y-7319356D01*
X13933356Y-7065356D02*
X13933356Y-6994644D01*
X13862644Y-6994644D01*
X13862644Y-7065356D01*
X13933356Y-7065356D01*
X13933356Y-7319356D02*
X13933356Y-7248644D01*
X13862644Y-7248644D01*
X13862644Y-7319356D01*
X13933356Y-7319356D01*
X14187356Y-7065356D02*
X14187356Y-6994644D01*
X14116644Y-6994644D01*
X14116644Y-7065356D01*
X14187356Y-7065356D01*
X14187356Y-7319356D02*
X14187356Y-7248644D01*
X14116644Y-7248644D01*
X14116644Y-7319356D01*
X14187356Y-7319356D01*
X14441356Y-7065356D02*
X14441356Y-6994644D01*
X14370644Y-6994644D01*
X14370644Y-7065356D01*
X14441356Y-7065356D01*
X14441356Y-7319356D02*
X14441356Y-7248644D01*
X14370644Y-7248644D01*
X14370644Y-7319356D01*
X14441356Y-7319356D01*
D10*
X9600777Y-10071484D02*
X9600777Y-9871484D01*
X9600777Y-9871484D02*
X9648396Y-9871484D01*
X9648396Y-9871484D02*
X9676967Y-9881008D01*
X9676967Y-9881008D02*
X9696015Y-9900055D01*
X9696015Y-9900055D02*
X9705539Y-9919103D01*
X9705539Y-9919103D02*
X9715063Y-9957198D01*
X9715063Y-9957198D02*
X9715063Y-9985770D01*
X9715063Y-9985770D02*
X9705539Y-10023865D01*
X9705539Y-10023865D02*
X9696015Y-10042912D01*
X9696015Y-10042912D02*
X9676967Y-10061960D01*
X9676967Y-10061960D02*
X9648396Y-10071484D01*
X9648396Y-10071484D02*
X9600777Y-10071484D01*
X9800777Y-10071484D02*
X9800777Y-9938150D01*
X9800777Y-9976246D02*
X9810301Y-9957198D01*
X9810301Y-9957198D02*
X9819824Y-9947674D01*
X9819824Y-9947674D02*
X9838872Y-9938150D01*
X9838872Y-9938150D02*
X9857920Y-9938150D01*
X9924586Y-10071484D02*
X9924586Y-9938150D01*
X9924586Y-9871484D02*
X9915063Y-9881008D01*
X9915063Y-9881008D02*
X9924586Y-9890531D01*
X9924586Y-9890531D02*
X9934110Y-9881008D01*
X9934110Y-9881008D02*
X9924586Y-9871484D01*
X9924586Y-9871484D02*
X9924586Y-9890531D01*
X10048396Y-10071484D02*
X10029348Y-10061960D01*
X10029348Y-10061960D02*
X10019824Y-10042912D01*
X10019824Y-10042912D02*
X10019824Y-9871484D01*
X10153158Y-10071484D02*
X10134110Y-10061960D01*
X10134110Y-10061960D02*
X10124586Y-10042912D01*
X10124586Y-10042912D02*
X10124586Y-9871484D01*
X10381729Y-10071484D02*
X10381729Y-9871484D01*
X10381729Y-9871484D02*
X10448396Y-10014341D01*
X10448396Y-10014341D02*
X10515063Y-9871484D01*
X10515063Y-9871484D02*
X10515063Y-10071484D01*
X10696015Y-10071484D02*
X10696015Y-9966722D01*
X10696015Y-9966722D02*
X10686491Y-9947674D01*
X10686491Y-9947674D02*
X10667444Y-9938150D01*
X10667444Y-9938150D02*
X10629348Y-9938150D01*
X10629348Y-9938150D02*
X10610301Y-9947674D01*
X10696015Y-10061960D02*
X10676967Y-10071484D01*
X10676967Y-10071484D02*
X10629348Y-10071484D01*
X10629348Y-10071484D02*
X10610301Y-10061960D01*
X10610301Y-10061960D02*
X10600777Y-10042912D01*
X10600777Y-10042912D02*
X10600777Y-10023865D01*
X10600777Y-10023865D02*
X10610301Y-10004817D01*
X10610301Y-10004817D02*
X10629348Y-9995293D01*
X10629348Y-9995293D02*
X10676967Y-9995293D01*
X10676967Y-9995293D02*
X10696015Y-9985770D01*
X10791253Y-9938150D02*
X10791253Y-10138150D01*
X10791253Y-9947674D02*
X10810301Y-9938150D01*
X10810301Y-9938150D02*
X10848396Y-9938150D01*
X10848396Y-9938150D02*
X10867444Y-9947674D01*
X10867444Y-9947674D02*
X10876967Y-9957198D01*
X10876967Y-9957198D02*
X10886491Y-9976246D01*
X10886491Y-9976246D02*
X10886491Y-10033389D01*
X10886491Y-10033389D02*
X10876967Y-10052436D01*
X10876967Y-10052436D02*
X10867444Y-10061960D01*
X10867444Y-10061960D02*
X10848396Y-10071484D01*
X10848396Y-10071484D02*
X10810301Y-10071484D01*
X10810301Y-10071484D02*
X10791253Y-10061960D01*
X10972205Y-10052436D02*
X10981729Y-10061960D01*
X10981729Y-10061960D02*
X10972205Y-10071484D01*
X10972205Y-10071484D02*
X10962682Y-10061960D01*
X10962682Y-10061960D02*
X10972205Y-10052436D01*
X10972205Y-10052436D02*
X10972205Y-10071484D01*
X10972205Y-9947674D02*
X10981729Y-9957198D01*
X10981729Y-9957198D02*
X10972205Y-9966722D01*
X10972205Y-9966722D02*
X10962682Y-9957198D01*
X10962682Y-9957198D02*
X10972205Y-9947674D01*
X10972205Y-9947674D02*
X10972205Y-9966722D01*
D11*
X9300000Y-10380000D02*
X9340000Y-10420000D01*
X9340000Y-10380000D02*
X9300000Y-10420000D01*
D10*
X9638872Y-10291484D02*
X9657920Y-10291484D01*
X9657920Y-10291484D02*
X9676967Y-10301008D01*
X9676967Y-10301008D02*
X9686491Y-10310531D01*
X9686491Y-10310531D02*
X9696015Y-10329579D01*
X9696015Y-10329579D02*
X9705539Y-10367674D01*
X9705539Y-10367674D02*
X9705539Y-10415293D01*
X9705539Y-10415293D02*
X9696015Y-10453389D01*
X9696015Y-10453389D02*
X9686491Y-10472436D01*
X9686491Y-10472436D02*
X9676967Y-10481960D01*
X9676967Y-10481960D02*
X9657920Y-10491484D01*
X9657920Y-10491484D02*
X9638872Y-10491484D01*
X9638872Y-10491484D02*
X9619824Y-10481960D01*
X9619824Y-10481960D02*
X9610301Y-10472436D01*
X9610301Y-10472436D02*
X9600777Y-10453389D01*
X9600777Y-10453389D02*
X9591253Y-10415293D01*
X9591253Y-10415293D02*
X9591253Y-10367674D01*
X9591253Y-10367674D02*
X9600777Y-10329579D01*
X9600777Y-10329579D02*
X9610301Y-10310531D01*
X9610301Y-10310531D02*
X9619824Y-10301008D01*
X9619824Y-10301008D02*
X9638872Y-10291484D01*
X9791253Y-10472436D02*
X9800777Y-10481960D01*
X9800777Y-10481960D02*
X9791253Y-10491484D01*
X9791253Y-10491484D02*
X9781729Y-10481960D01*
X9781729Y-10481960D02*
X9791253Y-10472436D01*
X9791253Y-10472436D02*
X9791253Y-10491484D01*
X9972205Y-10358150D02*
X9972205Y-10491484D01*
X9924586Y-10281960D02*
X9876967Y-10424817D01*
X9876967Y-10424817D02*
X10000777Y-10424817D01*
X10115063Y-10291484D02*
X10134110Y-10291484D01*
X10134110Y-10291484D02*
X10153158Y-10301008D01*
X10153158Y-10301008D02*
X10162682Y-10310531D01*
X10162682Y-10310531D02*
X10172205Y-10329579D01*
X10172205Y-10329579D02*
X10181729Y-10367674D01*
X10181729Y-10367674D02*
X10181729Y-10415293D01*
X10181729Y-10415293D02*
X10172205Y-10453389D01*
X10172205Y-10453389D02*
X10162682Y-10472436D01*
X10162682Y-10472436D02*
X10153158Y-10481960D01*
X10153158Y-10481960D02*
X10134110Y-10491484D01*
X10134110Y-10491484D02*
X10115063Y-10491484D01*
X10115063Y-10491484D02*
X10096015Y-10481960D01*
X10096015Y-10481960D02*
X10086491Y-10472436D01*
X10086491Y-10472436D02*
X10076967Y-10453389D01*
X10076967Y-10453389D02*
X10067444Y-10415293D01*
X10067444Y-10415293D02*
X10067444Y-10367674D01*
X10067444Y-10367674D02*
X10076967Y-10329579D01*
X10076967Y-10329579D02*
X10086491Y-10310531D01*
X10086491Y-10310531D02*
X10096015Y-10301008D01*
X10096015Y-10301008D02*
X10115063Y-10291484D01*
X10305539Y-10291484D02*
X10324586Y-10291484D01*
X10324586Y-10291484D02*
X10343634Y-10301008D01*
X10343634Y-10301008D02*
X10353158Y-10310531D01*
X10353158Y-10310531D02*
X10362682Y-10329579D01*
X10362682Y-10329579D02*
X10372205Y-10367674D01*
X10372205Y-10367674D02*
X10372205Y-10415293D01*
X10372205Y-10415293D02*
X10362682Y-10453389D01*
X10362682Y-10453389D02*
X10353158Y-10472436D01*
X10353158Y-10472436D02*
X10343634Y-10481960D01*
X10343634Y-10481960D02*
X10324586Y-10491484D01*
X10324586Y-10491484D02*
X10305539Y-10491484D01*
X10305539Y-10491484D02*
X10286491Y-10481960D01*
X10286491Y-10481960D02*
X10276967Y-10472436D01*
X10276967Y-10472436D02*
X10267444Y-10453389D01*
X10267444Y-10453389D02*
X10257920Y-10415293D01*
X10257920Y-10415293D02*
X10257920Y-10367674D01*
X10257920Y-10367674D02*
X10267444Y-10329579D01*
X10267444Y-10329579D02*
X10276967Y-10310531D01*
X10276967Y-10310531D02*
X10286491Y-10301008D01*
X10286491Y-10301008D02*
X10305539Y-10291484D01*
X10457920Y-10491484D02*
X10457920Y-10358150D01*
X10457920Y-10377198D02*
X10467444Y-10367674D01*
X10467444Y-10367674D02*
X10486491Y-10358150D01*
X10486491Y-10358150D02*
X10515063Y-10358150D01*
X10515063Y-10358150D02*
X10534110Y-10367674D01*
X10534110Y-10367674D02*
X10543634Y-10386722D01*
X10543634Y-10386722D02*
X10543634Y-10491484D01*
X10543634Y-10386722D02*
X10553158Y-10367674D01*
X10553158Y-10367674D02*
X10572205Y-10358150D01*
X10572205Y-10358150D02*
X10600777Y-10358150D01*
X10600777Y-10358150D02*
X10619825Y-10367674D01*
X10619825Y-10367674D02*
X10629348Y-10386722D01*
X10629348Y-10386722D02*
X10629348Y-10491484D01*
X10724586Y-10491484D02*
X10724586Y-10358150D01*
X10724586Y-10377198D02*
X10734110Y-10367674D01*
X10734110Y-10367674D02*
X10753158Y-10358150D01*
X10753158Y-10358150D02*
X10781729Y-10358150D01*
X10781729Y-10358150D02*
X10800777Y-10367674D01*
X10800777Y-10367674D02*
X10810301Y-10386722D01*
X10810301Y-10386722D02*
X10810301Y-10491484D01*
X10810301Y-10386722D02*
X10819825Y-10367674D01*
X10819825Y-10367674D02*
X10838872Y-10358150D01*
X10838872Y-10358150D02*
X10867444Y-10358150D01*
X10867444Y-10358150D02*
X10886491Y-10367674D01*
X10886491Y-10367674D02*
X10896015Y-10386722D01*
X10896015Y-10386722D02*
X10896015Y-10491484D01*
X11286491Y-10281960D02*
X11115063Y-10539103D01*
X11543634Y-10291484D02*
X11562682Y-10291484D01*
X11562682Y-10291484D02*
X11581729Y-10301008D01*
X11581729Y-10301008D02*
X11591253Y-10310531D01*
X11591253Y-10310531D02*
X11600777Y-10329579D01*
X11600777Y-10329579D02*
X11610301Y-10367674D01*
X11610301Y-10367674D02*
X11610301Y-10415293D01*
X11610301Y-10415293D02*
X11600777Y-10453389D01*
X11600777Y-10453389D02*
X11591253Y-10472436D01*
X11591253Y-10472436D02*
X11581729Y-10481960D01*
X11581729Y-10481960D02*
X11562682Y-10491484D01*
X11562682Y-10491484D02*
X11543634Y-10491484D01*
X11543634Y-10491484D02*
X11524586Y-10481960D01*
X11524586Y-10481960D02*
X11515063Y-10472436D01*
X11515063Y-10472436D02*
X11505539Y-10453389D01*
X11505539Y-10453389D02*
X11496015Y-10415293D01*
X11496015Y-10415293D02*
X11496015Y-10367674D01*
X11496015Y-10367674D02*
X11505539Y-10329579D01*
X11505539Y-10329579D02*
X11515063Y-10310531D01*
X11515063Y-10310531D02*
X11524586Y-10301008D01*
X11524586Y-10301008D02*
X11543634Y-10291484D01*
X11696015Y-10472436D02*
X11705539Y-10481960D01*
X11705539Y-10481960D02*
X11696015Y-10491484D01*
X11696015Y-10491484D02*
X11686491Y-10481960D01*
X11686491Y-10481960D02*
X11696015Y-10472436D01*
X11696015Y-10472436D02*
X11696015Y-10491484D01*
X11829348Y-10291484D02*
X11848396Y-10291484D01*
X11848396Y-10291484D02*
X11867444Y-10301008D01*
X11867444Y-10301008D02*
X11876967Y-10310531D01*
X11876967Y-10310531D02*
X11886491Y-10329579D01*
X11886491Y-10329579D02*
X11896015Y-10367674D01*
X11896015Y-10367674D02*
X11896015Y-10415293D01*
X11896015Y-10415293D02*
X11886491Y-10453389D01*
X11886491Y-10453389D02*
X11876967Y-10472436D01*
X11876967Y-10472436D02*
X11867444Y-10481960D01*
X11867444Y-10481960D02*
X11848396Y-10491484D01*
X11848396Y-10491484D02*
X11829348Y-10491484D01*
X11829348Y-10491484D02*
X11810301Y-10481960D01*
X11810301Y-10481960D02*
X11800777Y-10472436D01*
X11800777Y-10472436D02*
X11791253Y-10453389D01*
X11791253Y-10453389D02*
X11781729Y-10415293D01*
X11781729Y-10415293D02*
X11781729Y-10367674D01*
X11781729Y-10367674D02*
X11791253Y-10329579D01*
X11791253Y-10329579D02*
X11800777Y-10310531D01*
X11800777Y-10310531D02*
X11810301Y-10301008D01*
X11810301Y-10301008D02*
X11829348Y-10291484D01*
X12086491Y-10491484D02*
X11972206Y-10491484D01*
X12029348Y-10491484D02*
X12029348Y-10291484D01*
X12029348Y-10291484D02*
X12010301Y-10320055D01*
X12010301Y-10320055D02*
X11991253Y-10339103D01*
X11991253Y-10339103D02*
X11972206Y-10348627D01*
X12267444Y-10291484D02*
X12172206Y-10291484D01*
X12172206Y-10291484D02*
X12162682Y-10386722D01*
X12162682Y-10386722D02*
X12172206Y-10377198D01*
X12172206Y-10377198D02*
X12191253Y-10367674D01*
X12191253Y-10367674D02*
X12238872Y-10367674D01*
X12238872Y-10367674D02*
X12257920Y-10377198D01*
X12257920Y-10377198D02*
X12267444Y-10386722D01*
X12267444Y-10386722D02*
X12276967Y-10405770D01*
X12276967Y-10405770D02*
X12276967Y-10453389D01*
X12276967Y-10453389D02*
X12267444Y-10472436D01*
X12267444Y-10472436D02*
X12257920Y-10481960D01*
X12257920Y-10481960D02*
X12238872Y-10491484D01*
X12238872Y-10491484D02*
X12191253Y-10491484D01*
X12191253Y-10491484D02*
X12172206Y-10481960D01*
X12172206Y-10481960D02*
X12162682Y-10472436D01*
X12343634Y-10291484D02*
X12476967Y-10291484D01*
X12476967Y-10291484D02*
X12391253Y-10491484D01*
X12543634Y-10291484D02*
X12543634Y-10329579D01*
X12619825Y-10291484D02*
X12619825Y-10329579D01*
X12915063Y-10567674D02*
X12905539Y-10558150D01*
X12905539Y-10558150D02*
X12886491Y-10529579D01*
X12886491Y-10529579D02*
X12876968Y-10510531D01*
X12876968Y-10510531D02*
X12867444Y-10481960D01*
X12867444Y-10481960D02*
X12857920Y-10434341D01*
X12857920Y-10434341D02*
X12857920Y-10396246D01*
X12857920Y-10396246D02*
X12867444Y-10348627D01*
X12867444Y-10348627D02*
X12876968Y-10320055D01*
X12876968Y-10320055D02*
X12886491Y-10301008D01*
X12886491Y-10301008D02*
X12905539Y-10272436D01*
X12905539Y-10272436D02*
X12915063Y-10262912D01*
X12972206Y-10291484D02*
X13105539Y-10291484D01*
X13105539Y-10291484D02*
X13019825Y-10491484D01*
X13267444Y-10358150D02*
X13267444Y-10491484D01*
X13219825Y-10281960D02*
X13172206Y-10424817D01*
X13172206Y-10424817D02*
X13296015Y-10424817D01*
X13524587Y-10491484D02*
X13524587Y-10291484D01*
X13610301Y-10491484D02*
X13610301Y-10386722D01*
X13610301Y-10386722D02*
X13600777Y-10367674D01*
X13600777Y-10367674D02*
X13581730Y-10358150D01*
X13581730Y-10358150D02*
X13553158Y-10358150D01*
X13553158Y-10358150D02*
X13534110Y-10367674D01*
X13534110Y-10367674D02*
X13524587Y-10377198D01*
X13734110Y-10491484D02*
X13715063Y-10481960D01*
X13715063Y-10481960D02*
X13705539Y-10472436D01*
X13705539Y-10472436D02*
X13696015Y-10453389D01*
X13696015Y-10453389D02*
X13696015Y-10396246D01*
X13696015Y-10396246D02*
X13705539Y-10377198D01*
X13705539Y-10377198D02*
X13715063Y-10367674D01*
X13715063Y-10367674D02*
X13734110Y-10358150D01*
X13734110Y-10358150D02*
X13762682Y-10358150D01*
X13762682Y-10358150D02*
X13781730Y-10367674D01*
X13781730Y-10367674D02*
X13791253Y-10377198D01*
X13791253Y-10377198D02*
X13800777Y-10396246D01*
X13800777Y-10396246D02*
X13800777Y-10453389D01*
X13800777Y-10453389D02*
X13791253Y-10472436D01*
X13791253Y-10472436D02*
X13781730Y-10481960D01*
X13781730Y-10481960D02*
X13762682Y-10491484D01*
X13762682Y-10491484D02*
X13734110Y-10491484D01*
X13915063Y-10491484D02*
X13896015Y-10481960D01*
X13896015Y-10481960D02*
X13886491Y-10462912D01*
X13886491Y-10462912D02*
X13886491Y-10291484D01*
X14067444Y-10481960D02*
X14048396Y-10491484D01*
X14048396Y-10491484D02*
X14010301Y-10491484D01*
X14010301Y-10491484D02*
X13991253Y-10481960D01*
X13991253Y-10481960D02*
X13981730Y-10462912D01*
X13981730Y-10462912D02*
X13981730Y-10386722D01*
X13981730Y-10386722D02*
X13991253Y-10367674D01*
X13991253Y-10367674D02*
X14010301Y-10358150D01*
X14010301Y-10358150D02*
X14048396Y-10358150D01*
X14048396Y-10358150D02*
X14067444Y-10367674D01*
X14067444Y-10367674D02*
X14076968Y-10386722D01*
X14076968Y-10386722D02*
X14076968Y-10405770D01*
X14076968Y-10405770D02*
X13981730Y-10424817D01*
X14153158Y-10481960D02*
X14172206Y-10491484D01*
X14172206Y-10491484D02*
X14210301Y-10491484D01*
X14210301Y-10491484D02*
X14229349Y-10481960D01*
X14229349Y-10481960D02*
X14238872Y-10462912D01*
X14238872Y-10462912D02*
X14238872Y-10453389D01*
X14238872Y-10453389D02*
X14229349Y-10434341D01*
X14229349Y-10434341D02*
X14210301Y-10424817D01*
X14210301Y-10424817D02*
X14181730Y-10424817D01*
X14181730Y-10424817D02*
X14162682Y-10415293D01*
X14162682Y-10415293D02*
X14153158Y-10396246D01*
X14153158Y-10396246D02*
X14153158Y-10386722D01*
X14153158Y-10386722D02*
X14162682Y-10367674D01*
X14162682Y-10367674D02*
X14181730Y-10358150D01*
X14181730Y-10358150D02*
X14210301Y-10358150D01*
X14210301Y-10358150D02*
X14229349Y-10367674D01*
X14305539Y-10567674D02*
X14315063Y-10558150D01*
X14315063Y-10558150D02*
X14334111Y-10529579D01*
X14334111Y-10529579D02*
X14343634Y-10510531D01*
X14343634Y-10510531D02*
X14353158Y-10481960D01*
X14353158Y-10481960D02*
X14362682Y-10434341D01*
X14362682Y-10434341D02*
X14362682Y-10396246D01*
X14362682Y-10396246D02*
X14353158Y-10348627D01*
X14353158Y-10348627D02*
X14343634Y-10320055D01*
X14343634Y-10320055D02*
X14334111Y-10301008D01*
X14334111Y-10301008D02*
X14315063Y-10272436D01*
X14315063Y-10272436D02*
X14305539Y-10262912D01*
D11*
X9340000Y-10664000D02*
G75*
G02*
X9265000Y-10664000I-37500J0D01*
G01*
X9265000Y-10664000D02*
G75*
G02*
X9340000Y-10664000I37500J0D01*
G01*
D10*
X9638872Y-10555484D02*
X9657920Y-10555484D01*
X9657920Y-10555484D02*
X9676967Y-10565008D01*
X9676967Y-10565008D02*
X9686491Y-10574531D01*
X9686491Y-10574531D02*
X9696015Y-10593579D01*
X9696015Y-10593579D02*
X9705539Y-10631674D01*
X9705539Y-10631674D02*
X9705539Y-10679293D01*
X9705539Y-10679293D02*
X9696015Y-10717389D01*
X9696015Y-10717389D02*
X9686491Y-10736436D01*
X9686491Y-10736436D02*
X9676967Y-10745960D01*
X9676967Y-10745960D02*
X9657920Y-10755484D01*
X9657920Y-10755484D02*
X9638872Y-10755484D01*
X9638872Y-10755484D02*
X9619824Y-10745960D01*
X9619824Y-10745960D02*
X9610301Y-10736436D01*
X9610301Y-10736436D02*
X9600777Y-10717389D01*
X9600777Y-10717389D02*
X9591253Y-10679293D01*
X9591253Y-10679293D02*
X9591253Y-10631674D01*
X9591253Y-10631674D02*
X9600777Y-10593579D01*
X9600777Y-10593579D02*
X9610301Y-10574531D01*
X9610301Y-10574531D02*
X9619824Y-10565008D01*
X9619824Y-10565008D02*
X9638872Y-10555484D01*
X9791253Y-10736436D02*
X9800777Y-10745960D01*
X9800777Y-10745960D02*
X9791253Y-10755484D01*
X9791253Y-10755484D02*
X9781729Y-10745960D01*
X9781729Y-10745960D02*
X9791253Y-10736436D01*
X9791253Y-10736436D02*
X9791253Y-10755484D01*
X9867444Y-10555484D02*
X10000777Y-10555484D01*
X10000777Y-10555484D02*
X9915063Y-10755484D01*
X10172205Y-10555484D02*
X10076967Y-10555484D01*
X10076967Y-10555484D02*
X10067444Y-10650722D01*
X10067444Y-10650722D02*
X10076967Y-10641198D01*
X10076967Y-10641198D02*
X10096015Y-10631674D01*
X10096015Y-10631674D02*
X10143634Y-10631674D01*
X10143634Y-10631674D02*
X10162682Y-10641198D01*
X10162682Y-10641198D02*
X10172205Y-10650722D01*
X10172205Y-10650722D02*
X10181729Y-10669770D01*
X10181729Y-10669770D02*
X10181729Y-10717389D01*
X10181729Y-10717389D02*
X10172205Y-10736436D01*
X10172205Y-10736436D02*
X10162682Y-10745960D01*
X10162682Y-10745960D02*
X10143634Y-10755484D01*
X10143634Y-10755484D02*
X10096015Y-10755484D01*
X10096015Y-10755484D02*
X10076967Y-10745960D01*
X10076967Y-10745960D02*
X10067444Y-10736436D01*
X10305539Y-10555484D02*
X10324586Y-10555484D01*
X10324586Y-10555484D02*
X10343634Y-10565008D01*
X10343634Y-10565008D02*
X10353158Y-10574531D01*
X10353158Y-10574531D02*
X10362682Y-10593579D01*
X10362682Y-10593579D02*
X10372205Y-10631674D01*
X10372205Y-10631674D02*
X10372205Y-10679293D01*
X10372205Y-10679293D02*
X10362682Y-10717389D01*
X10362682Y-10717389D02*
X10353158Y-10736436D01*
X10353158Y-10736436D02*
X10343634Y-10745960D01*
X10343634Y-10745960D02*
X10324586Y-10755484D01*
X10324586Y-10755484D02*
X10305539Y-10755484D01*
X10305539Y-10755484D02*
X10286491Y-10745960D01*
X10286491Y-10745960D02*
X10276967Y-10736436D01*
X10276967Y-10736436D02*
X10267444Y-10717389D01*
X10267444Y-10717389D02*
X10257920Y-10679293D01*
X10257920Y-10679293D02*
X10257920Y-10631674D01*
X10257920Y-10631674D02*
X10267444Y-10593579D01*
X10267444Y-10593579D02*
X10276967Y-10574531D01*
X10276967Y-10574531D02*
X10286491Y-10565008D01*
X10286491Y-10565008D02*
X10305539Y-10555484D01*
X10457920Y-10755484D02*
X10457920Y-10622150D01*
X10457920Y-10641198D02*
X10467444Y-10631674D01*
X10467444Y-10631674D02*
X10486491Y-10622150D01*
X10486491Y-10622150D02*
X10515063Y-10622150D01*
X10515063Y-10622150D02*
X10534110Y-10631674D01*
X10534110Y-10631674D02*
X10543634Y-10650722D01*
X10543634Y-10650722D02*
X10543634Y-10755484D01*
X10543634Y-10650722D02*
X10553158Y-10631674D01*
X10553158Y-10631674D02*
X10572205Y-10622150D01*
X10572205Y-10622150D02*
X10600777Y-10622150D01*
X10600777Y-10622150D02*
X10619825Y-10631674D01*
X10619825Y-10631674D02*
X10629348Y-10650722D01*
X10629348Y-10650722D02*
X10629348Y-10755484D01*
X10724586Y-10755484D02*
X10724586Y-10622150D01*
X10724586Y-10641198D02*
X10734110Y-10631674D01*
X10734110Y-10631674D02*
X10753158Y-10622150D01*
X10753158Y-10622150D02*
X10781729Y-10622150D01*
X10781729Y-10622150D02*
X10800777Y-10631674D01*
X10800777Y-10631674D02*
X10810301Y-10650722D01*
X10810301Y-10650722D02*
X10810301Y-10755484D01*
X10810301Y-10650722D02*
X10819825Y-10631674D01*
X10819825Y-10631674D02*
X10838872Y-10622150D01*
X10838872Y-10622150D02*
X10867444Y-10622150D01*
X10867444Y-10622150D02*
X10886491Y-10631674D01*
X10886491Y-10631674D02*
X10896015Y-10650722D01*
X10896015Y-10650722D02*
X10896015Y-10755484D01*
X11286491Y-10545960D02*
X11115063Y-10803103D01*
X11543634Y-10555484D02*
X11562682Y-10555484D01*
X11562682Y-10555484D02*
X11581729Y-10565008D01*
X11581729Y-10565008D02*
X11591253Y-10574531D01*
X11591253Y-10574531D02*
X11600777Y-10593579D01*
X11600777Y-10593579D02*
X11610301Y-10631674D01*
X11610301Y-10631674D02*
X11610301Y-10679293D01*
X11610301Y-10679293D02*
X11600777Y-10717389D01*
X11600777Y-10717389D02*
X11591253Y-10736436D01*
X11591253Y-10736436D02*
X11581729Y-10745960D01*
X11581729Y-10745960D02*
X11562682Y-10755484D01*
X11562682Y-10755484D02*
X11543634Y-10755484D01*
X11543634Y-10755484D02*
X11524586Y-10745960D01*
X11524586Y-10745960D02*
X11515063Y-10736436D01*
X11515063Y-10736436D02*
X11505539Y-10717389D01*
X11505539Y-10717389D02*
X11496015Y-10679293D01*
X11496015Y-10679293D02*
X11496015Y-10631674D01*
X11496015Y-10631674D02*
X11505539Y-10593579D01*
X11505539Y-10593579D02*
X11515063Y-10574531D01*
X11515063Y-10574531D02*
X11524586Y-10565008D01*
X11524586Y-10565008D02*
X11543634Y-10555484D01*
X11696015Y-10736436D02*
X11705539Y-10745960D01*
X11705539Y-10745960D02*
X11696015Y-10755484D01*
X11696015Y-10755484D02*
X11686491Y-10745960D01*
X11686491Y-10745960D02*
X11696015Y-10736436D01*
X11696015Y-10736436D02*
X11696015Y-10755484D01*
X11829348Y-10555484D02*
X11848396Y-10555484D01*
X11848396Y-10555484D02*
X11867444Y-10565008D01*
X11867444Y-10565008D02*
X11876967Y-10574531D01*
X11876967Y-10574531D02*
X11886491Y-10593579D01*
X11886491Y-10593579D02*
X11896015Y-10631674D01*
X11896015Y-10631674D02*
X11896015Y-10679293D01*
X11896015Y-10679293D02*
X11886491Y-10717389D01*
X11886491Y-10717389D02*
X11876967Y-10736436D01*
X11876967Y-10736436D02*
X11867444Y-10745960D01*
X11867444Y-10745960D02*
X11848396Y-10755484D01*
X11848396Y-10755484D02*
X11829348Y-10755484D01*
X11829348Y-10755484D02*
X11810301Y-10745960D01*
X11810301Y-10745960D02*
X11800777Y-10736436D01*
X11800777Y-10736436D02*
X11791253Y-10717389D01*
X11791253Y-10717389D02*
X11781729Y-10679293D01*
X11781729Y-10679293D02*
X11781729Y-10631674D01*
X11781729Y-10631674D02*
X11791253Y-10593579D01*
X11791253Y-10593579D02*
X11800777Y-10574531D01*
X11800777Y-10574531D02*
X11810301Y-10565008D01*
X11810301Y-10565008D02*
X11829348Y-10555484D01*
X11972206Y-10574531D02*
X11981729Y-10565008D01*
X11981729Y-10565008D02*
X12000777Y-10555484D01*
X12000777Y-10555484D02*
X12048396Y-10555484D01*
X12048396Y-10555484D02*
X12067444Y-10565008D01*
X12067444Y-10565008D02*
X12076967Y-10574531D01*
X12076967Y-10574531D02*
X12086491Y-10593579D01*
X12086491Y-10593579D02*
X12086491Y-10612627D01*
X12086491Y-10612627D02*
X12076967Y-10641198D01*
X12076967Y-10641198D02*
X11962682Y-10755484D01*
X11962682Y-10755484D02*
X12086491Y-10755484D01*
X12181729Y-10755484D02*
X12219825Y-10755484D01*
X12219825Y-10755484D02*
X12238872Y-10745960D01*
X12238872Y-10745960D02*
X12248396Y-10736436D01*
X12248396Y-10736436D02*
X12267444Y-10707865D01*
X12267444Y-10707865D02*
X12276967Y-10669770D01*
X12276967Y-10669770D02*
X12276967Y-10593579D01*
X12276967Y-10593579D02*
X12267444Y-10574531D01*
X12267444Y-10574531D02*
X12257920Y-10565008D01*
X12257920Y-10565008D02*
X12238872Y-10555484D01*
X12238872Y-10555484D02*
X12200777Y-10555484D01*
X12200777Y-10555484D02*
X12181729Y-10565008D01*
X12181729Y-10565008D02*
X12172206Y-10574531D01*
X12172206Y-10574531D02*
X12162682Y-10593579D01*
X12162682Y-10593579D02*
X12162682Y-10641198D01*
X12162682Y-10641198D02*
X12172206Y-10660246D01*
X12172206Y-10660246D02*
X12181729Y-10669770D01*
X12181729Y-10669770D02*
X12200777Y-10679293D01*
X12200777Y-10679293D02*
X12238872Y-10679293D01*
X12238872Y-10679293D02*
X12257920Y-10669770D01*
X12257920Y-10669770D02*
X12267444Y-10660246D01*
X12267444Y-10660246D02*
X12276967Y-10641198D01*
X12457920Y-10555484D02*
X12362682Y-10555484D01*
X12362682Y-10555484D02*
X12353158Y-10650722D01*
X12353158Y-10650722D02*
X12362682Y-10641198D01*
X12362682Y-10641198D02*
X12381729Y-10631674D01*
X12381729Y-10631674D02*
X12429348Y-10631674D01*
X12429348Y-10631674D02*
X12448396Y-10641198D01*
X12448396Y-10641198D02*
X12457920Y-10650722D01*
X12457920Y-10650722D02*
X12467444Y-10669770D01*
X12467444Y-10669770D02*
X12467444Y-10717389D01*
X12467444Y-10717389D02*
X12457920Y-10736436D01*
X12457920Y-10736436D02*
X12448396Y-10745960D01*
X12448396Y-10745960D02*
X12429348Y-10755484D01*
X12429348Y-10755484D02*
X12381729Y-10755484D01*
X12381729Y-10755484D02*
X12362682Y-10745960D01*
X12362682Y-10745960D02*
X12353158Y-10736436D01*
X12543634Y-10555484D02*
X12543634Y-10593579D01*
X12619825Y-10555484D02*
X12619825Y-10593579D01*
X12915063Y-10831674D02*
X12905539Y-10822150D01*
X12905539Y-10822150D02*
X12886491Y-10793579D01*
X12886491Y-10793579D02*
X12876968Y-10774531D01*
X12876968Y-10774531D02*
X12867444Y-10745960D01*
X12867444Y-10745960D02*
X12857920Y-10698341D01*
X12857920Y-10698341D02*
X12857920Y-10660246D01*
X12857920Y-10660246D02*
X12867444Y-10612627D01*
X12867444Y-10612627D02*
X12876968Y-10584055D01*
X12876968Y-10584055D02*
X12886491Y-10565008D01*
X12886491Y-10565008D02*
X12905539Y-10536436D01*
X12905539Y-10536436D02*
X12915063Y-10526912D01*
X13076968Y-10555484D02*
X13038872Y-10555484D01*
X13038872Y-10555484D02*
X13019825Y-10565008D01*
X13019825Y-10565008D02*
X13010301Y-10574531D01*
X13010301Y-10574531D02*
X12991253Y-10603103D01*
X12991253Y-10603103D02*
X12981729Y-10641198D01*
X12981729Y-10641198D02*
X12981729Y-10717389D01*
X12981729Y-10717389D02*
X12991253Y-10736436D01*
X12991253Y-10736436D02*
X13000777Y-10745960D01*
X13000777Y-10745960D02*
X13019825Y-10755484D01*
X13019825Y-10755484D02*
X13057920Y-10755484D01*
X13057920Y-10755484D02*
X13076968Y-10745960D01*
X13076968Y-10745960D02*
X13086491Y-10736436D01*
X13086491Y-10736436D02*
X13096015Y-10717389D01*
X13096015Y-10717389D02*
X13096015Y-10669770D01*
X13096015Y-10669770D02*
X13086491Y-10650722D01*
X13086491Y-10650722D02*
X13076968Y-10641198D01*
X13076968Y-10641198D02*
X13057920Y-10631674D01*
X13057920Y-10631674D02*
X13019825Y-10631674D01*
X13019825Y-10631674D02*
X13000777Y-10641198D01*
X13000777Y-10641198D02*
X12991253Y-10650722D01*
X12991253Y-10650722D02*
X12981729Y-10669770D01*
X13334110Y-10755484D02*
X13334110Y-10555484D01*
X13419825Y-10755484D02*
X13419825Y-10650722D01*
X13419825Y-10650722D02*
X13410301Y-10631674D01*
X13410301Y-10631674D02*
X13391253Y-10622150D01*
X13391253Y-10622150D02*
X13362682Y-10622150D01*
X13362682Y-10622150D02*
X13343634Y-10631674D01*
X13343634Y-10631674D02*
X13334110Y-10641198D01*
X13543634Y-10755484D02*
X13524587Y-10745960D01*
X13524587Y-10745960D02*
X13515063Y-10736436D01*
X13515063Y-10736436D02*
X13505539Y-10717389D01*
X13505539Y-10717389D02*
X13505539Y-10660246D01*
X13505539Y-10660246D02*
X13515063Y-10641198D01*
X13515063Y-10641198D02*
X13524587Y-10631674D01*
X13524587Y-10631674D02*
X13543634Y-10622150D01*
X13543634Y-10622150D02*
X13572206Y-10622150D01*
X13572206Y-10622150D02*
X13591253Y-10631674D01*
X13591253Y-10631674D02*
X13600777Y-10641198D01*
X13600777Y-10641198D02*
X13610301Y-10660246D01*
X13610301Y-10660246D02*
X13610301Y-10717389D01*
X13610301Y-10717389D02*
X13600777Y-10736436D01*
X13600777Y-10736436D02*
X13591253Y-10745960D01*
X13591253Y-10745960D02*
X13572206Y-10755484D01*
X13572206Y-10755484D02*
X13543634Y-10755484D01*
X13724587Y-10755484D02*
X13705539Y-10745960D01*
X13705539Y-10745960D02*
X13696015Y-10726912D01*
X13696015Y-10726912D02*
X13696015Y-10555484D01*
X13876968Y-10745960D02*
X13857920Y-10755484D01*
X13857920Y-10755484D02*
X13819825Y-10755484D01*
X13819825Y-10755484D02*
X13800777Y-10745960D01*
X13800777Y-10745960D02*
X13791253Y-10726912D01*
X13791253Y-10726912D02*
X13791253Y-10650722D01*
X13791253Y-10650722D02*
X13800777Y-10631674D01*
X13800777Y-10631674D02*
X13819825Y-10622150D01*
X13819825Y-10622150D02*
X13857920Y-10622150D01*
X13857920Y-10622150D02*
X13876968Y-10631674D01*
X13876968Y-10631674D02*
X13886491Y-10650722D01*
X13886491Y-10650722D02*
X13886491Y-10669770D01*
X13886491Y-10669770D02*
X13791253Y-10688817D01*
X13962682Y-10745960D02*
X13981730Y-10755484D01*
X13981730Y-10755484D02*
X14019825Y-10755484D01*
X14019825Y-10755484D02*
X14038872Y-10745960D01*
X14038872Y-10745960D02*
X14048396Y-10726912D01*
X14048396Y-10726912D02*
X14048396Y-10717389D01*
X14048396Y-10717389D02*
X14038872Y-10698341D01*
X14038872Y-10698341D02*
X14019825Y-10688817D01*
X14019825Y-10688817D02*
X13991253Y-10688817D01*
X13991253Y-10688817D02*
X13972206Y-10679293D01*
X13972206Y-10679293D02*
X13962682Y-10660246D01*
X13962682Y-10660246D02*
X13962682Y-10650722D01*
X13962682Y-10650722D02*
X13972206Y-10631674D01*
X13972206Y-10631674D02*
X13991253Y-10622150D01*
X13991253Y-10622150D02*
X14019825Y-10622150D01*
X14019825Y-10622150D02*
X14038872Y-10631674D01*
X14115063Y-10831674D02*
X14124587Y-10822150D01*
X14124587Y-10822150D02*
X14143634Y-10793579D01*
X14143634Y-10793579D02*
X14153158Y-10774531D01*
X14153158Y-10774531D02*
X14162682Y-10745960D01*
X14162682Y-10745960D02*
X14172206Y-10698341D01*
X14172206Y-10698341D02*
X14172206Y-10660246D01*
X14172206Y-10660246D02*
X14162682Y-10612627D01*
X14162682Y-10612627D02*
X14153158Y-10584055D01*
X14153158Y-10584055D02*
X14143634Y-10565008D01*
X14143634Y-10565008D02*
X14124587Y-10536436D01*
X14124587Y-10536436D02*
X14115063Y-10526912D01*
D11*
X9300000Y-10888000D02*
X9300000Y-10968000D01*
X9260000Y-10928000D02*
X9340000Y-10928000D01*
D10*
X9638872Y-10819484D02*
X9657920Y-10819484D01*
X9657920Y-10819484D02*
X9676967Y-10829008D01*
X9676967Y-10829008D02*
X9686491Y-10838531D01*
X9686491Y-10838531D02*
X9696015Y-10857579D01*
X9696015Y-10857579D02*
X9705539Y-10895674D01*
X9705539Y-10895674D02*
X9705539Y-10943293D01*
X9705539Y-10943293D02*
X9696015Y-10981389D01*
X9696015Y-10981389D02*
X9686491Y-11000436D01*
X9686491Y-11000436D02*
X9676967Y-11009960D01*
X9676967Y-11009960D02*
X9657920Y-11019484D01*
X9657920Y-11019484D02*
X9638872Y-11019484D01*
X9638872Y-11019484D02*
X9619824Y-11009960D01*
X9619824Y-11009960D02*
X9610301Y-11000436D01*
X9610301Y-11000436D02*
X9600777Y-10981389D01*
X9600777Y-10981389D02*
X9591253Y-10943293D01*
X9591253Y-10943293D02*
X9591253Y-10895674D01*
X9591253Y-10895674D02*
X9600777Y-10857579D01*
X9600777Y-10857579D02*
X9610301Y-10838531D01*
X9610301Y-10838531D02*
X9619824Y-10829008D01*
X9619824Y-10829008D02*
X9638872Y-10819484D01*
X9791253Y-11000436D02*
X9800777Y-11009960D01*
X9800777Y-11009960D02*
X9791253Y-11019484D01*
X9791253Y-11019484D02*
X9781729Y-11009960D01*
X9781729Y-11009960D02*
X9791253Y-11000436D01*
X9791253Y-11000436D02*
X9791253Y-11019484D01*
X9915063Y-10905198D02*
X9896015Y-10895674D01*
X9896015Y-10895674D02*
X9886491Y-10886150D01*
X9886491Y-10886150D02*
X9876967Y-10867103D01*
X9876967Y-10867103D02*
X9876967Y-10857579D01*
X9876967Y-10857579D02*
X9886491Y-10838531D01*
X9886491Y-10838531D02*
X9896015Y-10829008D01*
X9896015Y-10829008D02*
X9915063Y-10819484D01*
X9915063Y-10819484D02*
X9953158Y-10819484D01*
X9953158Y-10819484D02*
X9972205Y-10829008D01*
X9972205Y-10829008D02*
X9981729Y-10838531D01*
X9981729Y-10838531D02*
X9991253Y-10857579D01*
X9991253Y-10857579D02*
X9991253Y-10867103D01*
X9991253Y-10867103D02*
X9981729Y-10886150D01*
X9981729Y-10886150D02*
X9972205Y-10895674D01*
X9972205Y-10895674D02*
X9953158Y-10905198D01*
X9953158Y-10905198D02*
X9915063Y-10905198D01*
X9915063Y-10905198D02*
X9896015Y-10914722D01*
X9896015Y-10914722D02*
X9886491Y-10924246D01*
X9886491Y-10924246D02*
X9876967Y-10943293D01*
X9876967Y-10943293D02*
X9876967Y-10981389D01*
X9876967Y-10981389D02*
X9886491Y-11000436D01*
X9886491Y-11000436D02*
X9896015Y-11009960D01*
X9896015Y-11009960D02*
X9915063Y-11019484D01*
X9915063Y-11019484D02*
X9953158Y-11019484D01*
X9953158Y-11019484D02*
X9972205Y-11009960D01*
X9972205Y-11009960D02*
X9981729Y-11000436D01*
X9981729Y-11000436D02*
X9991253Y-10981389D01*
X9991253Y-10981389D02*
X9991253Y-10943293D01*
X9991253Y-10943293D02*
X9981729Y-10924246D01*
X9981729Y-10924246D02*
X9972205Y-10914722D01*
X9972205Y-10914722D02*
X9953158Y-10905198D01*
X10115063Y-10819484D02*
X10134110Y-10819484D01*
X10134110Y-10819484D02*
X10153158Y-10829008D01*
X10153158Y-10829008D02*
X10162682Y-10838531D01*
X10162682Y-10838531D02*
X10172205Y-10857579D01*
X10172205Y-10857579D02*
X10181729Y-10895674D01*
X10181729Y-10895674D02*
X10181729Y-10943293D01*
X10181729Y-10943293D02*
X10172205Y-10981389D01*
X10172205Y-10981389D02*
X10162682Y-11000436D01*
X10162682Y-11000436D02*
X10153158Y-11009960D01*
X10153158Y-11009960D02*
X10134110Y-11019484D01*
X10134110Y-11019484D02*
X10115063Y-11019484D01*
X10115063Y-11019484D02*
X10096015Y-11009960D01*
X10096015Y-11009960D02*
X10086491Y-11000436D01*
X10086491Y-11000436D02*
X10076967Y-10981389D01*
X10076967Y-10981389D02*
X10067444Y-10943293D01*
X10067444Y-10943293D02*
X10067444Y-10895674D01*
X10067444Y-10895674D02*
X10076967Y-10857579D01*
X10076967Y-10857579D02*
X10086491Y-10838531D01*
X10086491Y-10838531D02*
X10096015Y-10829008D01*
X10096015Y-10829008D02*
X10115063Y-10819484D01*
X10305539Y-10819484D02*
X10324586Y-10819484D01*
X10324586Y-10819484D02*
X10343634Y-10829008D01*
X10343634Y-10829008D02*
X10353158Y-10838531D01*
X10353158Y-10838531D02*
X10362682Y-10857579D01*
X10362682Y-10857579D02*
X10372205Y-10895674D01*
X10372205Y-10895674D02*
X10372205Y-10943293D01*
X10372205Y-10943293D02*
X10362682Y-10981389D01*
X10362682Y-10981389D02*
X10353158Y-11000436D01*
X10353158Y-11000436D02*
X10343634Y-11009960D01*
X10343634Y-11009960D02*
X10324586Y-11019484D01*
X10324586Y-11019484D02*
X10305539Y-11019484D01*
X10305539Y-11019484D02*
X10286491Y-11009960D01*
X10286491Y-11009960D02*
X10276967Y-11000436D01*
X10276967Y-11000436D02*
X10267444Y-10981389D01*
X10267444Y-10981389D02*
X10257920Y-10943293D01*
X10257920Y-10943293D02*
X10257920Y-10895674D01*
X10257920Y-10895674D02*
X10267444Y-10857579D01*
X10267444Y-10857579D02*
X10276967Y-10838531D01*
X10276967Y-10838531D02*
X10286491Y-10829008D01*
X10286491Y-10829008D02*
X10305539Y-10819484D01*
X10457920Y-11019484D02*
X10457920Y-10886150D01*
X10457920Y-10905198D02*
X10467444Y-10895674D01*
X10467444Y-10895674D02*
X10486491Y-10886150D01*
X10486491Y-10886150D02*
X10515063Y-10886150D01*
X10515063Y-10886150D02*
X10534110Y-10895674D01*
X10534110Y-10895674D02*
X10543634Y-10914722D01*
X10543634Y-10914722D02*
X10543634Y-11019484D01*
X10543634Y-10914722D02*
X10553158Y-10895674D01*
X10553158Y-10895674D02*
X10572205Y-10886150D01*
X10572205Y-10886150D02*
X10600777Y-10886150D01*
X10600777Y-10886150D02*
X10619825Y-10895674D01*
X10619825Y-10895674D02*
X10629348Y-10914722D01*
X10629348Y-10914722D02*
X10629348Y-11019484D01*
X10724586Y-11019484D02*
X10724586Y-10886150D01*
X10724586Y-10905198D02*
X10734110Y-10895674D01*
X10734110Y-10895674D02*
X10753158Y-10886150D01*
X10753158Y-10886150D02*
X10781729Y-10886150D01*
X10781729Y-10886150D02*
X10800777Y-10895674D01*
X10800777Y-10895674D02*
X10810301Y-10914722D01*
X10810301Y-10914722D02*
X10810301Y-11019484D01*
X10810301Y-10914722D02*
X10819825Y-10895674D01*
X10819825Y-10895674D02*
X10838872Y-10886150D01*
X10838872Y-10886150D02*
X10867444Y-10886150D01*
X10867444Y-10886150D02*
X10886491Y-10895674D01*
X10886491Y-10895674D02*
X10896015Y-10914722D01*
X10896015Y-10914722D02*
X10896015Y-11019484D01*
X11286491Y-10809960D02*
X11115063Y-11067103D01*
X11543634Y-10819484D02*
X11562682Y-10819484D01*
X11562682Y-10819484D02*
X11581729Y-10829008D01*
X11581729Y-10829008D02*
X11591253Y-10838531D01*
X11591253Y-10838531D02*
X11600777Y-10857579D01*
X11600777Y-10857579D02*
X11610301Y-10895674D01*
X11610301Y-10895674D02*
X11610301Y-10943293D01*
X11610301Y-10943293D02*
X11600777Y-10981389D01*
X11600777Y-10981389D02*
X11591253Y-11000436D01*
X11591253Y-11000436D02*
X11581729Y-11009960D01*
X11581729Y-11009960D02*
X11562682Y-11019484D01*
X11562682Y-11019484D02*
X11543634Y-11019484D01*
X11543634Y-11019484D02*
X11524586Y-11009960D01*
X11524586Y-11009960D02*
X11515063Y-11000436D01*
X11515063Y-11000436D02*
X11505539Y-10981389D01*
X11505539Y-10981389D02*
X11496015Y-10943293D01*
X11496015Y-10943293D02*
X11496015Y-10895674D01*
X11496015Y-10895674D02*
X11505539Y-10857579D01*
X11505539Y-10857579D02*
X11515063Y-10838531D01*
X11515063Y-10838531D02*
X11524586Y-10829008D01*
X11524586Y-10829008D02*
X11543634Y-10819484D01*
X11696015Y-11000436D02*
X11705539Y-11009960D01*
X11705539Y-11009960D02*
X11696015Y-11019484D01*
X11696015Y-11019484D02*
X11686491Y-11009960D01*
X11686491Y-11009960D02*
X11696015Y-11000436D01*
X11696015Y-11000436D02*
X11696015Y-11019484D01*
X11829348Y-10819484D02*
X11848396Y-10819484D01*
X11848396Y-10819484D02*
X11867444Y-10829008D01*
X11867444Y-10829008D02*
X11876967Y-10838531D01*
X11876967Y-10838531D02*
X11886491Y-10857579D01*
X11886491Y-10857579D02*
X11896015Y-10895674D01*
X11896015Y-10895674D02*
X11896015Y-10943293D01*
X11896015Y-10943293D02*
X11886491Y-10981389D01*
X11886491Y-10981389D02*
X11876967Y-11000436D01*
X11876967Y-11000436D02*
X11867444Y-11009960D01*
X11867444Y-11009960D02*
X11848396Y-11019484D01*
X11848396Y-11019484D02*
X11829348Y-11019484D01*
X11829348Y-11019484D02*
X11810301Y-11009960D01*
X11810301Y-11009960D02*
X11800777Y-11000436D01*
X11800777Y-11000436D02*
X11791253Y-10981389D01*
X11791253Y-10981389D02*
X11781729Y-10943293D01*
X11781729Y-10943293D02*
X11781729Y-10895674D01*
X11781729Y-10895674D02*
X11791253Y-10857579D01*
X11791253Y-10857579D02*
X11800777Y-10838531D01*
X11800777Y-10838531D02*
X11810301Y-10829008D01*
X11810301Y-10829008D02*
X11829348Y-10819484D01*
X11962682Y-10819484D02*
X12086491Y-10819484D01*
X12086491Y-10819484D02*
X12019825Y-10895674D01*
X12019825Y-10895674D02*
X12048396Y-10895674D01*
X12048396Y-10895674D02*
X12067444Y-10905198D01*
X12067444Y-10905198D02*
X12076967Y-10914722D01*
X12076967Y-10914722D02*
X12086491Y-10933770D01*
X12086491Y-10933770D02*
X12086491Y-10981389D01*
X12086491Y-10981389D02*
X12076967Y-11000436D01*
X12076967Y-11000436D02*
X12067444Y-11009960D01*
X12067444Y-11009960D02*
X12048396Y-11019484D01*
X12048396Y-11019484D02*
X11991253Y-11019484D01*
X11991253Y-11019484D02*
X11972206Y-11009960D01*
X11972206Y-11009960D02*
X11962682Y-11000436D01*
X12276967Y-11019484D02*
X12162682Y-11019484D01*
X12219825Y-11019484D02*
X12219825Y-10819484D01*
X12219825Y-10819484D02*
X12200777Y-10848055D01*
X12200777Y-10848055D02*
X12181729Y-10867103D01*
X12181729Y-10867103D02*
X12162682Y-10876627D01*
X12457920Y-10819484D02*
X12362682Y-10819484D01*
X12362682Y-10819484D02*
X12353158Y-10914722D01*
X12353158Y-10914722D02*
X12362682Y-10905198D01*
X12362682Y-10905198D02*
X12381729Y-10895674D01*
X12381729Y-10895674D02*
X12429348Y-10895674D01*
X12429348Y-10895674D02*
X12448396Y-10905198D01*
X12448396Y-10905198D02*
X12457920Y-10914722D01*
X12457920Y-10914722D02*
X12467444Y-10933770D01*
X12467444Y-10933770D02*
X12467444Y-10981389D01*
X12467444Y-10981389D02*
X12457920Y-11000436D01*
X12457920Y-11000436D02*
X12448396Y-11009960D01*
X12448396Y-11009960D02*
X12429348Y-11019484D01*
X12429348Y-11019484D02*
X12381729Y-11019484D01*
X12381729Y-11019484D02*
X12362682Y-11009960D01*
X12362682Y-11009960D02*
X12353158Y-11000436D01*
X12543634Y-10819484D02*
X12543634Y-10857579D01*
X12619825Y-10819484D02*
X12619825Y-10857579D01*
X12915063Y-11095674D02*
X12905539Y-11086150D01*
X12905539Y-11086150D02*
X12886491Y-11057579D01*
X12886491Y-11057579D02*
X12876968Y-11038531D01*
X12876968Y-11038531D02*
X12867444Y-11009960D01*
X12867444Y-11009960D02*
X12857920Y-10962341D01*
X12857920Y-10962341D02*
X12857920Y-10924246D01*
X12857920Y-10924246D02*
X12867444Y-10876627D01*
X12867444Y-10876627D02*
X12876968Y-10848055D01*
X12876968Y-10848055D02*
X12886491Y-10829008D01*
X12886491Y-10829008D02*
X12905539Y-10800436D01*
X12905539Y-10800436D02*
X12915063Y-10790912D01*
X13086491Y-10819484D02*
X12991253Y-10819484D01*
X12991253Y-10819484D02*
X12981729Y-10914722D01*
X12981729Y-10914722D02*
X12991253Y-10905198D01*
X12991253Y-10905198D02*
X13010301Y-10895674D01*
X13010301Y-10895674D02*
X13057920Y-10895674D01*
X13057920Y-10895674D02*
X13076968Y-10905198D01*
X13076968Y-10905198D02*
X13086491Y-10914722D01*
X13086491Y-10914722D02*
X13096015Y-10933770D01*
X13096015Y-10933770D02*
X13096015Y-10981389D01*
X13096015Y-10981389D02*
X13086491Y-11000436D01*
X13086491Y-11000436D02*
X13076968Y-11009960D01*
X13076968Y-11009960D02*
X13057920Y-11019484D01*
X13057920Y-11019484D02*
X13010301Y-11019484D01*
X13010301Y-11019484D02*
X12991253Y-11009960D01*
X12991253Y-11009960D02*
X12981729Y-11000436D01*
X13334110Y-11019484D02*
X13334110Y-10819484D01*
X13419825Y-11019484D02*
X13419825Y-10914722D01*
X13419825Y-10914722D02*
X13410301Y-10895674D01*
X13410301Y-10895674D02*
X13391253Y-10886150D01*
X13391253Y-10886150D02*
X13362682Y-10886150D01*
X13362682Y-10886150D02*
X13343634Y-10895674D01*
X13343634Y-10895674D02*
X13334110Y-10905198D01*
X13543634Y-11019484D02*
X13524587Y-11009960D01*
X13524587Y-11009960D02*
X13515063Y-11000436D01*
X13515063Y-11000436D02*
X13505539Y-10981389D01*
X13505539Y-10981389D02*
X13505539Y-10924246D01*
X13505539Y-10924246D02*
X13515063Y-10905198D01*
X13515063Y-10905198D02*
X13524587Y-10895674D01*
X13524587Y-10895674D02*
X13543634Y-10886150D01*
X13543634Y-10886150D02*
X13572206Y-10886150D01*
X13572206Y-10886150D02*
X13591253Y-10895674D01*
X13591253Y-10895674D02*
X13600777Y-10905198D01*
X13600777Y-10905198D02*
X13610301Y-10924246D01*
X13610301Y-10924246D02*
X13610301Y-10981389D01*
X13610301Y-10981389D02*
X13600777Y-11000436D01*
X13600777Y-11000436D02*
X13591253Y-11009960D01*
X13591253Y-11009960D02*
X13572206Y-11019484D01*
X13572206Y-11019484D02*
X13543634Y-11019484D01*
X13724587Y-11019484D02*
X13705539Y-11009960D01*
X13705539Y-11009960D02*
X13696015Y-10990912D01*
X13696015Y-10990912D02*
X13696015Y-10819484D01*
X13876968Y-11009960D02*
X13857920Y-11019484D01*
X13857920Y-11019484D02*
X13819825Y-11019484D01*
X13819825Y-11019484D02*
X13800777Y-11009960D01*
X13800777Y-11009960D02*
X13791253Y-10990912D01*
X13791253Y-10990912D02*
X13791253Y-10914722D01*
X13791253Y-10914722D02*
X13800777Y-10895674D01*
X13800777Y-10895674D02*
X13819825Y-10886150D01*
X13819825Y-10886150D02*
X13857920Y-10886150D01*
X13857920Y-10886150D02*
X13876968Y-10895674D01*
X13876968Y-10895674D02*
X13886491Y-10914722D01*
X13886491Y-10914722D02*
X13886491Y-10933770D01*
X13886491Y-10933770D02*
X13791253Y-10952817D01*
X13962682Y-11009960D02*
X13981730Y-11019484D01*
X13981730Y-11019484D02*
X14019825Y-11019484D01*
X14019825Y-11019484D02*
X14038872Y-11009960D01*
X14038872Y-11009960D02*
X14048396Y-10990912D01*
X14048396Y-10990912D02*
X14048396Y-10981389D01*
X14048396Y-10981389D02*
X14038872Y-10962341D01*
X14038872Y-10962341D02*
X14019825Y-10952817D01*
X14019825Y-10952817D02*
X13991253Y-10952817D01*
X13991253Y-10952817D02*
X13972206Y-10943293D01*
X13972206Y-10943293D02*
X13962682Y-10924246D01*
X13962682Y-10924246D02*
X13962682Y-10914722D01*
X13962682Y-10914722D02*
X13972206Y-10895674D01*
X13972206Y-10895674D02*
X13991253Y-10886150D01*
X13991253Y-10886150D02*
X14019825Y-10886150D01*
X14019825Y-10886150D02*
X14038872Y-10895674D01*
X14115063Y-11095674D02*
X14124587Y-11086150D01*
X14124587Y-11086150D02*
X14143634Y-11057579D01*
X14143634Y-11057579D02*
X14153158Y-11038531D01*
X14153158Y-11038531D02*
X14162682Y-11009960D01*
X14162682Y-11009960D02*
X14172206Y-10962341D01*
X14172206Y-10962341D02*
X14172206Y-10924246D01*
X14172206Y-10924246D02*
X14162682Y-10876627D01*
X14162682Y-10876627D02*
X14153158Y-10848055D01*
X14153158Y-10848055D02*
X14143634Y-10829008D01*
X14143634Y-10829008D02*
X14124587Y-10800436D01*
X14124587Y-10800436D02*
X14115063Y-10790912D01*
D11*
X9325356Y-11227356D02*
X9325356Y-11156644D01*
X9254644Y-11156644D01*
X9254644Y-11227356D01*
X9325356Y-11227356D01*
D10*
X9705539Y-11283484D02*
X9591253Y-11283484D01*
X9648396Y-11283484D02*
X9648396Y-11083484D01*
X9648396Y-11083484D02*
X9629348Y-11112055D01*
X9629348Y-11112055D02*
X9610301Y-11131103D01*
X9610301Y-11131103D02*
X9591253Y-11140627D01*
X9791253Y-11264436D02*
X9800777Y-11273960D01*
X9800777Y-11273960D02*
X9791253Y-11283484D01*
X9791253Y-11283484D02*
X9781729Y-11273960D01*
X9781729Y-11273960D02*
X9791253Y-11264436D01*
X9791253Y-11264436D02*
X9791253Y-11283484D01*
X9924586Y-11083484D02*
X9943634Y-11083484D01*
X9943634Y-11083484D02*
X9962682Y-11093008D01*
X9962682Y-11093008D02*
X9972205Y-11102531D01*
X9972205Y-11102531D02*
X9981729Y-11121579D01*
X9981729Y-11121579D02*
X9991253Y-11159674D01*
X9991253Y-11159674D02*
X9991253Y-11207293D01*
X9991253Y-11207293D02*
X9981729Y-11245388D01*
X9981729Y-11245388D02*
X9972205Y-11264436D01*
X9972205Y-11264436D02*
X9962682Y-11273960D01*
X9962682Y-11273960D02*
X9943634Y-11283484D01*
X9943634Y-11283484D02*
X9924586Y-11283484D01*
X9924586Y-11283484D02*
X9905539Y-11273960D01*
X9905539Y-11273960D02*
X9896015Y-11264436D01*
X9896015Y-11264436D02*
X9886491Y-11245388D01*
X9886491Y-11245388D02*
X9876967Y-11207293D01*
X9876967Y-11207293D02*
X9876967Y-11159674D01*
X9876967Y-11159674D02*
X9886491Y-11121579D01*
X9886491Y-11121579D02*
X9896015Y-11102531D01*
X9896015Y-11102531D02*
X9905539Y-11093008D01*
X9905539Y-11093008D02*
X9924586Y-11083484D01*
X10115063Y-11083484D02*
X10134110Y-11083484D01*
X10134110Y-11083484D02*
X10153158Y-11093008D01*
X10153158Y-11093008D02*
X10162682Y-11102531D01*
X10162682Y-11102531D02*
X10172205Y-11121579D01*
X10172205Y-11121579D02*
X10181729Y-11159674D01*
X10181729Y-11159674D02*
X10181729Y-11207293D01*
X10181729Y-11207293D02*
X10172205Y-11245388D01*
X10172205Y-11245388D02*
X10162682Y-11264436D01*
X10162682Y-11264436D02*
X10153158Y-11273960D01*
X10153158Y-11273960D02*
X10134110Y-11283484D01*
X10134110Y-11283484D02*
X10115063Y-11283484D01*
X10115063Y-11283484D02*
X10096015Y-11273960D01*
X10096015Y-11273960D02*
X10086491Y-11264436D01*
X10086491Y-11264436D02*
X10076967Y-11245388D01*
X10076967Y-11245388D02*
X10067444Y-11207293D01*
X10067444Y-11207293D02*
X10067444Y-11159674D01*
X10067444Y-11159674D02*
X10076967Y-11121579D01*
X10076967Y-11121579D02*
X10086491Y-11102531D01*
X10086491Y-11102531D02*
X10096015Y-11093008D01*
X10096015Y-11093008D02*
X10115063Y-11083484D01*
X10305539Y-11083484D02*
X10324586Y-11083484D01*
X10324586Y-11083484D02*
X10343634Y-11093008D01*
X10343634Y-11093008D02*
X10353158Y-11102531D01*
X10353158Y-11102531D02*
X10362682Y-11121579D01*
X10362682Y-11121579D02*
X10372205Y-11159674D01*
X10372205Y-11159674D02*
X10372205Y-11207293D01*
X10372205Y-11207293D02*
X10362682Y-11245388D01*
X10362682Y-11245388D02*
X10353158Y-11264436D01*
X10353158Y-11264436D02*
X10343634Y-11273960D01*
X10343634Y-11273960D02*
X10324586Y-11283484D01*
X10324586Y-11283484D02*
X10305539Y-11283484D01*
X10305539Y-11283484D02*
X10286491Y-11273960D01*
X10286491Y-11273960D02*
X10276967Y-11264436D01*
X10276967Y-11264436D02*
X10267444Y-11245388D01*
X10267444Y-11245388D02*
X10257920Y-11207293D01*
X10257920Y-11207293D02*
X10257920Y-11159674D01*
X10257920Y-11159674D02*
X10267444Y-11121579D01*
X10267444Y-11121579D02*
X10276967Y-11102531D01*
X10276967Y-11102531D02*
X10286491Y-11093008D01*
X10286491Y-11093008D02*
X10305539Y-11083484D01*
X10457920Y-11283484D02*
X10457920Y-11150150D01*
X10457920Y-11169198D02*
X10467444Y-11159674D01*
X10467444Y-11159674D02*
X10486491Y-11150150D01*
X10486491Y-11150150D02*
X10515063Y-11150150D01*
X10515063Y-11150150D02*
X10534110Y-11159674D01*
X10534110Y-11159674D02*
X10543634Y-11178722D01*
X10543634Y-11178722D02*
X10543634Y-11283484D01*
X10543634Y-11178722D02*
X10553158Y-11159674D01*
X10553158Y-11159674D02*
X10572205Y-11150150D01*
X10572205Y-11150150D02*
X10600777Y-11150150D01*
X10600777Y-11150150D02*
X10619825Y-11159674D01*
X10619825Y-11159674D02*
X10629348Y-11178722D01*
X10629348Y-11178722D02*
X10629348Y-11283484D01*
X10724586Y-11283484D02*
X10724586Y-11150150D01*
X10724586Y-11169198D02*
X10734110Y-11159674D01*
X10734110Y-11159674D02*
X10753158Y-11150150D01*
X10753158Y-11150150D02*
X10781729Y-11150150D01*
X10781729Y-11150150D02*
X10800777Y-11159674D01*
X10800777Y-11159674D02*
X10810301Y-11178722D01*
X10810301Y-11178722D02*
X10810301Y-11283484D01*
X10810301Y-11178722D02*
X10819825Y-11159674D01*
X10819825Y-11159674D02*
X10838872Y-11150150D01*
X10838872Y-11150150D02*
X10867444Y-11150150D01*
X10867444Y-11150150D02*
X10886491Y-11159674D01*
X10886491Y-11159674D02*
X10896015Y-11178722D01*
X10896015Y-11178722D02*
X10896015Y-11283484D01*
X11286491Y-11073960D02*
X11115063Y-11331103D01*
X11543634Y-11083484D02*
X11562682Y-11083484D01*
X11562682Y-11083484D02*
X11581729Y-11093008D01*
X11581729Y-11093008D02*
X11591253Y-11102531D01*
X11591253Y-11102531D02*
X11600777Y-11121579D01*
X11600777Y-11121579D02*
X11610301Y-11159674D01*
X11610301Y-11159674D02*
X11610301Y-11207293D01*
X11610301Y-11207293D02*
X11600777Y-11245388D01*
X11600777Y-11245388D02*
X11591253Y-11264436D01*
X11591253Y-11264436D02*
X11581729Y-11273960D01*
X11581729Y-11273960D02*
X11562682Y-11283484D01*
X11562682Y-11283484D02*
X11543634Y-11283484D01*
X11543634Y-11283484D02*
X11524586Y-11273960D01*
X11524586Y-11273960D02*
X11515063Y-11264436D01*
X11515063Y-11264436D02*
X11505539Y-11245388D01*
X11505539Y-11245388D02*
X11496015Y-11207293D01*
X11496015Y-11207293D02*
X11496015Y-11159674D01*
X11496015Y-11159674D02*
X11505539Y-11121579D01*
X11505539Y-11121579D02*
X11515063Y-11102531D01*
X11515063Y-11102531D02*
X11524586Y-11093008D01*
X11524586Y-11093008D02*
X11543634Y-11083484D01*
X11696015Y-11264436D02*
X11705539Y-11273960D01*
X11705539Y-11273960D02*
X11696015Y-11283484D01*
X11696015Y-11283484D02*
X11686491Y-11273960D01*
X11686491Y-11273960D02*
X11696015Y-11264436D01*
X11696015Y-11264436D02*
X11696015Y-11283484D01*
X11829348Y-11083484D02*
X11848396Y-11083484D01*
X11848396Y-11083484D02*
X11867444Y-11093008D01*
X11867444Y-11093008D02*
X11876967Y-11102531D01*
X11876967Y-11102531D02*
X11886491Y-11121579D01*
X11886491Y-11121579D02*
X11896015Y-11159674D01*
X11896015Y-11159674D02*
X11896015Y-11207293D01*
X11896015Y-11207293D02*
X11886491Y-11245388D01*
X11886491Y-11245388D02*
X11876967Y-11264436D01*
X11876967Y-11264436D02*
X11867444Y-11273960D01*
X11867444Y-11273960D02*
X11848396Y-11283484D01*
X11848396Y-11283484D02*
X11829348Y-11283484D01*
X11829348Y-11283484D02*
X11810301Y-11273960D01*
X11810301Y-11273960D02*
X11800777Y-11264436D01*
X11800777Y-11264436D02*
X11791253Y-11245388D01*
X11791253Y-11245388D02*
X11781729Y-11207293D01*
X11781729Y-11207293D02*
X11781729Y-11159674D01*
X11781729Y-11159674D02*
X11791253Y-11121579D01*
X11791253Y-11121579D02*
X11800777Y-11102531D01*
X11800777Y-11102531D02*
X11810301Y-11093008D01*
X11810301Y-11093008D02*
X11829348Y-11083484D01*
X11962682Y-11083484D02*
X12086491Y-11083484D01*
X12086491Y-11083484D02*
X12019825Y-11159674D01*
X12019825Y-11159674D02*
X12048396Y-11159674D01*
X12048396Y-11159674D02*
X12067444Y-11169198D01*
X12067444Y-11169198D02*
X12076967Y-11178722D01*
X12076967Y-11178722D02*
X12086491Y-11197769D01*
X12086491Y-11197769D02*
X12086491Y-11245388D01*
X12086491Y-11245388D02*
X12076967Y-11264436D01*
X12076967Y-11264436D02*
X12067444Y-11273960D01*
X12067444Y-11273960D02*
X12048396Y-11283484D01*
X12048396Y-11283484D02*
X11991253Y-11283484D01*
X11991253Y-11283484D02*
X11972206Y-11273960D01*
X11972206Y-11273960D02*
X11962682Y-11264436D01*
X12181729Y-11283484D02*
X12219825Y-11283484D01*
X12219825Y-11283484D02*
X12238872Y-11273960D01*
X12238872Y-11273960D02*
X12248396Y-11264436D01*
X12248396Y-11264436D02*
X12267444Y-11235865D01*
X12267444Y-11235865D02*
X12276967Y-11197769D01*
X12276967Y-11197769D02*
X12276967Y-11121579D01*
X12276967Y-11121579D02*
X12267444Y-11102531D01*
X12267444Y-11102531D02*
X12257920Y-11093008D01*
X12257920Y-11093008D02*
X12238872Y-11083484D01*
X12238872Y-11083484D02*
X12200777Y-11083484D01*
X12200777Y-11083484D02*
X12181729Y-11093008D01*
X12181729Y-11093008D02*
X12172206Y-11102531D01*
X12172206Y-11102531D02*
X12162682Y-11121579D01*
X12162682Y-11121579D02*
X12162682Y-11169198D01*
X12162682Y-11169198D02*
X12172206Y-11188246D01*
X12172206Y-11188246D02*
X12181729Y-11197769D01*
X12181729Y-11197769D02*
X12200777Y-11207293D01*
X12200777Y-11207293D02*
X12238872Y-11207293D01*
X12238872Y-11207293D02*
X12257920Y-11197769D01*
X12257920Y-11197769D02*
X12267444Y-11188246D01*
X12267444Y-11188246D02*
X12276967Y-11169198D01*
X12448396Y-11150150D02*
X12448396Y-11283484D01*
X12400777Y-11073960D02*
X12353158Y-11216817D01*
X12353158Y-11216817D02*
X12476967Y-11216817D01*
X12543634Y-11083484D02*
X12543634Y-11121579D01*
X12619825Y-11083484D02*
X12619825Y-11121579D01*
X12915063Y-11359674D02*
X12905539Y-11350150D01*
X12905539Y-11350150D02*
X12886491Y-11321579D01*
X12886491Y-11321579D02*
X12876968Y-11302531D01*
X12876968Y-11302531D02*
X12867444Y-11273960D01*
X12867444Y-11273960D02*
X12857920Y-11226341D01*
X12857920Y-11226341D02*
X12857920Y-11188246D01*
X12857920Y-11188246D02*
X12867444Y-11140627D01*
X12867444Y-11140627D02*
X12876968Y-11112055D01*
X12876968Y-11112055D02*
X12886491Y-11093008D01*
X12886491Y-11093008D02*
X12905539Y-11064436D01*
X12905539Y-11064436D02*
X12915063Y-11054912D01*
X13086491Y-11083484D02*
X12991253Y-11083484D01*
X12991253Y-11083484D02*
X12981729Y-11178722D01*
X12981729Y-11178722D02*
X12991253Y-11169198D01*
X12991253Y-11169198D02*
X13010301Y-11159674D01*
X13010301Y-11159674D02*
X13057920Y-11159674D01*
X13057920Y-11159674D02*
X13076968Y-11169198D01*
X13076968Y-11169198D02*
X13086491Y-11178722D01*
X13086491Y-11178722D02*
X13096015Y-11197769D01*
X13096015Y-11197769D02*
X13096015Y-11245388D01*
X13096015Y-11245388D02*
X13086491Y-11264436D01*
X13086491Y-11264436D02*
X13076968Y-11273960D01*
X13076968Y-11273960D02*
X13057920Y-11283484D01*
X13057920Y-11283484D02*
X13010301Y-11283484D01*
X13010301Y-11283484D02*
X12991253Y-11273960D01*
X12991253Y-11273960D02*
X12981729Y-11264436D01*
X13172206Y-11102531D02*
X13181729Y-11093008D01*
X13181729Y-11093008D02*
X13200777Y-11083484D01*
X13200777Y-11083484D02*
X13248396Y-11083484D01*
X13248396Y-11083484D02*
X13267444Y-11093008D01*
X13267444Y-11093008D02*
X13276968Y-11102531D01*
X13276968Y-11102531D02*
X13286491Y-11121579D01*
X13286491Y-11121579D02*
X13286491Y-11140627D01*
X13286491Y-11140627D02*
X13276968Y-11169198D01*
X13276968Y-11169198D02*
X13162682Y-11283484D01*
X13162682Y-11283484D02*
X13286491Y-11283484D01*
X13524587Y-11283484D02*
X13524587Y-11083484D01*
X13610301Y-11283484D02*
X13610301Y-11178722D01*
X13610301Y-11178722D02*
X13600777Y-11159674D01*
X13600777Y-11159674D02*
X13581730Y-11150150D01*
X13581730Y-11150150D02*
X13553158Y-11150150D01*
X13553158Y-11150150D02*
X13534110Y-11159674D01*
X13534110Y-11159674D02*
X13524587Y-11169198D01*
X13734110Y-11283484D02*
X13715063Y-11273960D01*
X13715063Y-11273960D02*
X13705539Y-11264436D01*
X13705539Y-11264436D02*
X13696015Y-11245388D01*
X13696015Y-11245388D02*
X13696015Y-11188246D01*
X13696015Y-11188246D02*
X13705539Y-11169198D01*
X13705539Y-11169198D02*
X13715063Y-11159674D01*
X13715063Y-11159674D02*
X13734110Y-11150150D01*
X13734110Y-11150150D02*
X13762682Y-11150150D01*
X13762682Y-11150150D02*
X13781730Y-11159674D01*
X13781730Y-11159674D02*
X13791253Y-11169198D01*
X13791253Y-11169198D02*
X13800777Y-11188246D01*
X13800777Y-11188246D02*
X13800777Y-11245388D01*
X13800777Y-11245388D02*
X13791253Y-11264436D01*
X13791253Y-11264436D02*
X13781730Y-11273960D01*
X13781730Y-11273960D02*
X13762682Y-11283484D01*
X13762682Y-11283484D02*
X13734110Y-11283484D01*
X13915063Y-11283484D02*
X13896015Y-11273960D01*
X13896015Y-11273960D02*
X13886491Y-11254912D01*
X13886491Y-11254912D02*
X13886491Y-11083484D01*
X14067444Y-11273960D02*
X14048396Y-11283484D01*
X14048396Y-11283484D02*
X14010301Y-11283484D01*
X14010301Y-11283484D02*
X13991253Y-11273960D01*
X13991253Y-11273960D02*
X13981730Y-11254912D01*
X13981730Y-11254912D02*
X13981730Y-11178722D01*
X13981730Y-11178722D02*
X13991253Y-11159674D01*
X13991253Y-11159674D02*
X14010301Y-11150150D01*
X14010301Y-11150150D02*
X14048396Y-11150150D01*
X14048396Y-11150150D02*
X14067444Y-11159674D01*
X14067444Y-11159674D02*
X14076968Y-11178722D01*
X14076968Y-11178722D02*
X14076968Y-11197769D01*
X14076968Y-11197769D02*
X13981730Y-11216817D01*
X14153158Y-11273960D02*
X14172206Y-11283484D01*
X14172206Y-11283484D02*
X14210301Y-11283484D01*
X14210301Y-11283484D02*
X14229349Y-11273960D01*
X14229349Y-11273960D02*
X14238872Y-11254912D01*
X14238872Y-11254912D02*
X14238872Y-11245388D01*
X14238872Y-11245388D02*
X14229349Y-11226341D01*
X14229349Y-11226341D02*
X14210301Y-11216817D01*
X14210301Y-11216817D02*
X14181730Y-11216817D01*
X14181730Y-11216817D02*
X14162682Y-11207293D01*
X14162682Y-11207293D02*
X14153158Y-11188246D01*
X14153158Y-11188246D02*
X14153158Y-11178722D01*
X14153158Y-11178722D02*
X14162682Y-11159674D01*
X14162682Y-11159674D02*
X14181730Y-11150150D01*
X14181730Y-11150150D02*
X14210301Y-11150150D01*
X14210301Y-11150150D02*
X14229349Y-11159674D01*
X14305539Y-11359674D02*
X14315063Y-11350150D01*
X14315063Y-11350150D02*
X14334111Y-11321579D01*
X14334111Y-11321579D02*
X14343634Y-11302531D01*
X14343634Y-11302531D02*
X14353158Y-11273960D01*
X14353158Y-11273960D02*
X14362682Y-11226341D01*
X14362682Y-11226341D02*
X14362682Y-11188246D01*
X14362682Y-11188246D02*
X14353158Y-11140627D01*
X14353158Y-11140627D02*
X14343634Y-11112055D01*
X14343634Y-11112055D02*
X14334111Y-11093008D01*
X14334111Y-11093008D02*
X14315063Y-11064436D01*
X14315063Y-11064436D02*
X14305539Y-11054912D01*
M02*
