M48
; DRILL file {KiCad 8.0.3} date 2024-06-13T11:50:01-0600
; FORMAT={-:-/ absolute / metric / decimal}
; #@! TF.CreationDate,2024-06-13T11:50:01-06:00
; #@! TF.GenerationSoftware,Kicad,Pcbnew,8.0.3
; #@! TF.FileFunction,Plated,1,4,PTH
FMAT,2
METRIC
; #@! TA.AperFunction,Plated,PTH,ViaDrill
T1C0.400
; #@! TA.AperFunction,Plated,PTH,ComponentDrill
T2C0.750
; #@! TA.AperFunction,Plated,PTH,ComponentDrill
T3C0.800
; #@! TA.AperFunction,Plated,PTH,ComponentDrill
T4C1.000
%
G90
G05
T1
X96.6Y-84.3
X96.9Y-91.5
X98.7Y-80.6
X100.1Y-91.5
X100.7Y-77.7
X100.7Y-87.1
X102.0Y-68.9
X102.4Y-74.5
X103.482Y-80.295
X103.482Y-82.995
X104.4Y-77.4
X104.8Y-80.3
X105.2Y-74.6
X106.0Y-76.1
X107.45Y-88.3
X108.2Y-74.8
X108.2Y-95.3
X108.6Y-79.5
X108.6Y-80.952
X109.1Y-77.1
X109.2Y-85.3
X110.2Y-82.7
X111.62Y-85.537
X111.829Y-75.799
X111.9Y-82.7
X112.5Y-74.4
X112.516Y-77.972
X114.7Y-82.306
X115.6Y-76.6
X116.4Y-81.6
X117.0Y-75.1
X117.4Y-70.948
X117.418Y-86.6
X117.6Y-77.2
X118.341Y-82.57
X118.8Y-80.7
X119.5Y-92.2
X120.6Y-85.1
X120.987Y-80.75
X121.3Y-87.0
X121.9Y-81.4
X122.3Y-78.1
X122.3Y-86.0
X122.4Y-92.3
X123.312Y-76.0
X124.389Y-82.114
X125.384Y-92.111
X126.602Y-79.413
X127.3Y-81.7
X127.8Y-86.2
X129.0Y-84.9
X130.074Y-79.45
X130.1Y-74.3
X130.4Y-83.5
X130.993Y-84.554
X131.975Y-76.0
X132.3Y-85.9
X132.6Y-69.1
X133.416Y-77.7
X133.8Y-83.7
X134.9Y-74.6
X135.3Y-79.5
X135.5Y-69.0
X136.788Y-76.0
X137.692Y-81.751
X141.0Y-76.0
X141.0Y-77.2
X141.1Y-83.2
X142.068Y-83.366
X142.1Y-74.8
X143.821Y-81.837
X144.6Y-83.6
X144.7Y-80.4
X145.1Y-78.6
T2
X132.5Y-91.95
X134.5Y-91.95
X140.6Y-86.0
X140.6Y-91.95
X142.6Y-86.0
X142.6Y-91.95
T3
X96.6Y-94.5
X98.6Y-94.5
X100.6Y-94.5
X102.6Y-94.5
X104.6Y-94.5
T4
X95.8Y-70.3
X95.8Y-72.84
X98.34Y-70.3
X98.34Y-72.84
X100.88Y-70.3
X100.88Y-72.84
X103.42Y-70.3
X103.42Y-72.84
X105.96Y-70.3
X105.96Y-72.84
X108.5Y-70.3
X108.5Y-72.84
X111.04Y-70.3
X111.04Y-72.84
X113.58Y-70.3
X113.58Y-72.84
X114.8Y-89.8
X114.8Y-94.2
X116.12Y-70.3
X116.12Y-72.84
X117.34Y-89.8
X117.34Y-94.2
X118.66Y-70.3
X118.66Y-72.84
X119.88Y-89.8
X119.88Y-94.2
X121.2Y-70.3
X121.2Y-72.84
X122.42Y-89.8
X122.42Y-94.2
X123.74Y-70.3
X123.74Y-72.84
X124.96Y-89.8
X124.96Y-94.2
X126.28Y-70.3
X126.28Y-72.84
X127.5Y-89.8
X127.5Y-94.2
X128.82Y-70.3
X128.82Y-72.84
X131.36Y-70.3
X131.36Y-72.84
X133.9Y-70.3
X133.9Y-72.84
X136.44Y-70.3
X136.44Y-72.84
X138.98Y-70.3
X138.98Y-72.84
X141.52Y-70.3
X141.52Y-72.84
X144.06Y-70.3
X144.06Y-72.84
M30
