M48
; DRILL file {KiCad 8.0.2} date 2024-06-04T14:39:27-0600
; FORMAT={-:-/ absolute / metric / decimal}
; #@! TF.CreationDate,2024-06-04T14:39:27-06:00
; #@! TF.GenerationSoftware,Kicad,Pcbnew,8.0.2
; #@! TF.FileFunction,Plated,1,2,PTH
FMAT,2
METRIC
; #@! TA.AperFunction,Plated,PTH,ViaDrill
T1C0.400
; #@! TA.AperFunction,Plated,PTH,ComponentDrill
T2C0.750
; #@! TA.AperFunction,Plated,PTH,ComponentDrill
T3C0.800
; #@! TA.AperFunction,Plated,PTH,ComponentDrill
T4C1.000
%
G90
G05
T1
X94.9Y-98.8
X95.2Y-90.6
X95.75Y-89.0
X96.56Y-99.359
X96.598Y-100.36
X96.75Y-76.0
X97.075Y-98.588
X97.2Y-74.95
X97.25Y-103.75
X97.3Y-104.9
X97.5Y-96.0
X98.2Y-97.8
X98.3Y-85.4
X98.3Y-92.8
X98.7Y-94.6
X98.75Y-109.75
X98.75Y-111.0
X99.0Y-74.8
X99.5Y-92.75
X100.1Y-106.0
X100.25Y-109.75
X100.25Y-111.0
X100.545Y-78.75
X100.948Y-85.4
X101.0Y-96.6
X101.1Y-95.14
X101.2Y-97.8
X101.75Y-109.75
X101.8Y-107.4
X102.0Y-94.25
X102.1Y-99.9
X102.25Y-78.75
X102.25Y-80.5
X102.3Y-101.5
X102.4Y-104.3
X102.9Y-86.3
X103.0Y-99.1
X103.4Y-76.7
X103.5Y-106.0
X103.9Y-88.6
X103.9Y-89.9
X104.8Y-74.7
X105.0Y-76.7
X105.6Y-97.5
X105.75Y-93.25
X105.75Y-107.4
X105.75Y-108.5
X105.9Y-85.0
X107.837Y-81.638
X108.295Y-76.25
X108.6Y-74.7
X108.7Y-107.4
X108.75Y-108.5
X109.0Y-98.0
X109.75Y-76.25
X109.9Y-74.7
X110.0Y-98.0
X111.111Y-87.889
X112.045Y-82.5
X112.386Y-74.714
X112.49Y-96.49
X113.7Y-78.7
X113.75Y-90.0
X113.75Y-91.5
X113.9Y-94.7
X114.9Y-114.9
X115.25Y-77.652
X116.0Y-100.0
X116.25Y-76.25
X116.25Y-77.7
X116.75Y-108.75
X117.3Y-78.7
X117.3Y-114.9
X117.5Y-90.0
X117.5Y-91.5
X117.8Y-82.4
X119.0Y-94.3
X119.6Y-74.7
X120.2Y-114.7
X120.9Y-115.598
X121.25Y-113.8
X121.5Y-77.0
X121.636Y-75.5
X121.75Y-91.25
X122.25Y-112.0
X122.3Y-92.8
X122.5Y-73.598
X122.7Y-78.1
X123.2Y-80.5
X123.25Y-89.0
X123.279Y-102.102
X123.4Y-114.7
X123.8Y-77.048
X123.8Y-106.3
X124.2Y-102.0
X125.2Y-78.5
X125.5Y-97.25
X126.0Y-77.5
X126.839Y-79.261
X127.25Y-97.25
X127.75Y-88.073
X127.75Y-89.0
X128.0Y-74.25
X128.0Y-106.3
X128.5Y-102.6
X128.743Y-88.0
X129.8Y-107.4
X130.1Y-83.25
X130.5Y-102.6
X131.05Y-97.75
X131.1Y-74.25
X132.0Y-79.5
X133.5Y-80.4
X134.5Y-74.25
X134.5Y-85.0
X134.8Y-75.5
X135.6Y-95.4
X136.25Y-85.0
X137.0Y-92.6
X137.7Y-106.1
X138.3Y-74.5
X139.6Y-106.1
X140.6Y-91.502
X141.4Y-101.7
X142.35Y-95.002
X142.448Y-101.7
X142.9Y-76.2
X143.7Y-97.3
X143.9Y-99.5
X144.5Y-74.6
T2
X96.75Y-113.7
X98.75Y-113.7
X125.35Y-110.05
X127.35Y-110.05
X133.3Y-110.05
X135.3Y-110.05
X141.25Y-110.05
X143.25Y-110.05
T3
X103.25Y-115.5
X105.25Y-115.5
X107.25Y-115.5
X109.25Y-115.5
X111.25Y-115.5
T4
X95.92Y-70.0
X95.92Y-72.54
X98.46Y-70.0
X98.46Y-72.54
X101.0Y-70.0
X101.0Y-72.54
X103.54Y-70.0
X103.54Y-72.54
X106.08Y-70.0
X106.08Y-72.54
X108.62Y-70.0
X108.62Y-72.54
X111.16Y-70.0
X111.16Y-72.54
X113.7Y-70.0
X113.7Y-72.54
X116.24Y-70.0
X116.24Y-72.54
X118.78Y-70.0
X118.78Y-72.54
X121.32Y-70.0
X121.32Y-72.54
X123.86Y-70.0
X123.86Y-72.54
X126.4Y-70.0
X126.4Y-72.54
X128.94Y-70.0
X128.94Y-72.54
X131.48Y-70.0
X131.48Y-72.54
X134.02Y-70.0
X134.02Y-72.54
X136.56Y-70.0
X136.56Y-72.54
X139.1Y-70.0
X139.1Y-72.54
X141.64Y-70.0
X141.64Y-72.54
X144.18Y-70.0
X144.18Y-72.54
M30
