G04 #@! TF.GenerationSoftware,KiCad,Pcbnew,8.0.3*
G04 #@! TF.CreationDate,2024-06-13T11:49:56-06:00*
G04 #@! TF.ProjectId,PCB_Project,5043425f-5072-46f6-9a65-63742e6b6963,rev?*
G04 #@! TF.SameCoordinates,Original*
G04 #@! TF.FileFunction,Copper,L2,Inr*
G04 #@! TF.FilePolarity,Positive*
%FSLAX46Y46*%
G04 Gerber Fmt 4.6, Leading zero omitted, Abs format (unit mm)*
G04 Created by KiCad (PCBNEW 8.0.3) date 2024-06-13 11:49:56*
%MOMM*%
%LPD*%
G01*
G04 APERTURE LIST*
G04 Aperture macros list*
%AMRoundRect*
0 Rectangle with rounded corners*
0 $1 Rounding radius*
0 $2 $3 $4 $5 $6 $7 $8 $9 X,Y pos of 4 corners*
0 Add a 4 corners polygon primitive as box body*
4,1,4,$2,$3,$4,$5,$6,$7,$8,$9,$2,$3,0*
0 Add four circle primitives for the rounded corners*
1,1,$1+$1,$2,$3*
1,1,$1+$1,$4,$5*
1,1,$1+$1,$6,$7*
1,1,$1+$1,$8,$9*
0 Add four rect primitives between the rounded corners*
20,1,$1+$1,$2,$3,$4,$5,0*
20,1,$1+$1,$4,$5,$6,$7,0*
20,1,$1+$1,$6,$7,$8,$9,0*
20,1,$1+$1,$8,$9,$2,$3,0*%
G04 Aperture macros list end*
G04 #@! TA.AperFunction,ComponentPad*
%ADD10R,1.700000X1.700000*%
G04 #@! TD*
G04 #@! TA.AperFunction,ComponentPad*
%ADD11O,1.700000X1.700000*%
G04 #@! TD*
G04 #@! TA.AperFunction,ComponentPad*
%ADD12RoundRect,0.250000X-0.350000X-0.625000X0.350000X-0.625000X0.350000X0.625000X-0.350000X0.625000X0*%
G04 #@! TD*
G04 #@! TA.AperFunction,ComponentPad*
%ADD13O,1.200000X1.750000*%
G04 #@! TD*
G04 #@! TA.AperFunction,ComponentPad*
%ADD14R,1.350000X1.350000*%
G04 #@! TD*
G04 #@! TA.AperFunction,ComponentPad*
%ADD15O,1.350000X1.350000*%
G04 #@! TD*
G04 #@! TA.AperFunction,ViaPad*
%ADD16C,0.800000*%
G04 #@! TD*
G04 APERTURE END LIST*
D10*
X114800000Y-94200000D03*
D11*
X117340000Y-94200000D03*
X119880000Y-94200000D03*
X122420000Y-94200000D03*
X124960000Y-94200000D03*
X127500000Y-94200000D03*
D12*
X140600000Y-91950000D03*
D13*
X142600000Y-91950000D03*
D10*
X114800000Y-89800000D03*
D11*
X117340000Y-89800000D03*
X119880000Y-89800000D03*
X122420000Y-89800000D03*
X124960000Y-89800000D03*
X127500000Y-89800000D03*
D12*
X132500000Y-91950000D03*
D13*
X134500000Y-91950000D03*
D12*
X140600000Y-86000000D03*
D13*
X142600000Y-86000000D03*
D14*
X96600000Y-94500000D03*
D15*
X98600000Y-94500000D03*
X100600000Y-94500000D03*
X102600000Y-94500000D03*
X104600000Y-94500000D03*
D10*
X95800000Y-72840000D03*
D11*
X95800000Y-70300000D03*
X98340000Y-72840000D03*
X98340000Y-70300000D03*
X100880000Y-72840000D03*
X100880000Y-70300000D03*
X103420000Y-72840000D03*
X103420000Y-70300000D03*
X105960000Y-72840000D03*
X105960000Y-70300000D03*
X108500000Y-72840000D03*
X108500000Y-70300000D03*
X111040000Y-72840000D03*
X111040000Y-70300000D03*
X113580000Y-72840000D03*
X113580000Y-70300000D03*
X116120000Y-72840000D03*
X116120000Y-70300000D03*
X118660000Y-72840000D03*
X118660000Y-70300000D03*
X121200000Y-72840000D03*
X121200000Y-70300000D03*
X123740000Y-72840000D03*
X123740000Y-70300000D03*
X126280000Y-72840000D03*
X126280000Y-70300000D03*
X128820000Y-72840000D03*
X128820000Y-70300000D03*
X131360000Y-72840000D03*
X131360000Y-70300000D03*
X133900000Y-72840000D03*
X133900000Y-70300000D03*
X136440000Y-72840000D03*
X136440000Y-70300000D03*
X138980000Y-72840000D03*
X138980000Y-70300000D03*
X141520000Y-72840000D03*
X141520000Y-70300000D03*
X144060000Y-72840000D03*
X144060000Y-70300000D03*
D16*
X107450000Y-88300000D03*
X108200000Y-95300000D03*
X106000000Y-76100000D03*
X118800000Y-80700000D03*
X144700000Y-80400000D03*
X96600000Y-84300000D03*
X145100000Y-78600000D03*
X100700000Y-77700000D03*
X133800000Y-83700000D03*
X129000000Y-84900000D03*
X144600000Y-83600000D03*
X121300000Y-87000000D03*
X115600000Y-76600000D03*
X109100000Y-77100000D03*
X130100000Y-74300000D03*
X117000000Y-75100000D03*
X109200000Y-85300000D03*
X105200000Y-74600000D03*
X116400000Y-81600000D03*
X120600000Y-85100000D03*
X100100000Y-91500000D03*
X96900000Y-91500000D03*
X127300000Y-81700000D03*
X132600000Y-69100000D03*
X122300000Y-78100000D03*
X135500000Y-69000000D03*
X111900000Y-82700000D03*
X100700000Y-87100000D03*
X110200000Y-82700000D03*
X141000000Y-76000000D03*
X142100000Y-74800000D03*
X117400000Y-70948000D03*
X112500000Y-74400000D03*
X102400000Y-74500000D03*
X102000000Y-68900000D03*
X130400000Y-83500000D03*
X121900000Y-81400000D03*
X117600000Y-77200000D03*
X127800000Y-86200000D03*
X142068000Y-83366300D03*
X117418000Y-86600000D03*
X108200000Y-74800000D03*
X98700000Y-80600000D03*
X132300000Y-85900000D03*
X123312000Y-76000000D03*
X108600000Y-80952000D03*
X119500000Y-92200000D03*
X141000000Y-77200000D03*
X104400000Y-77400000D03*
X136788000Y-76000000D03*
X122400000Y-92300000D03*
X131975000Y-76000000D03*
X134900000Y-74600000D03*
X122300000Y-86000000D03*
X120987000Y-80750000D03*
X137692000Y-81751300D03*
X103482000Y-82995000D03*
X103482000Y-80295000D03*
X114700000Y-82305700D03*
X133416000Y-77700000D03*
X104800000Y-80300000D03*
X130074000Y-79450000D03*
X125384000Y-92111500D03*
X135300000Y-79500000D03*
X124389000Y-82114100D03*
X126602000Y-79412900D03*
X118341000Y-82570100D03*
X112516000Y-77972300D03*
X143821000Y-81837500D03*
X130993000Y-84554500D03*
X141100000Y-83200000D03*
X108600000Y-79500000D03*
X111620000Y-85536900D03*
X111829000Y-75798800D03*
G04 #@! TA.AperFunction,Conductor*
G36*
X145006061Y-68000597D02*
G01*
X145182941Y-68018018D01*
X145206769Y-68022757D01*
X145371001Y-68072576D01*
X145393453Y-68081877D01*
X145544798Y-68162772D01*
X145565010Y-68176277D01*
X145697666Y-68285145D01*
X145714854Y-68302333D01*
X145823722Y-68434989D01*
X145837227Y-68455201D01*
X145918121Y-68606543D01*
X145927424Y-68629001D01*
X145977240Y-68793224D01*
X145981982Y-68817065D01*
X145999403Y-68993938D01*
X146000000Y-69006092D01*
X146000000Y-95993907D01*
X145999403Y-96006061D01*
X145981982Y-96182934D01*
X145977240Y-96206775D01*
X145927424Y-96370998D01*
X145918121Y-96393456D01*
X145837227Y-96544798D01*
X145823722Y-96565010D01*
X145714854Y-96697666D01*
X145697666Y-96714854D01*
X145565010Y-96823722D01*
X145544798Y-96837227D01*
X145393456Y-96918121D01*
X145370998Y-96927424D01*
X145206775Y-96977240D01*
X145182934Y-96981982D01*
X145006061Y-96999403D01*
X144993907Y-97000000D01*
X95006093Y-97000000D01*
X94993939Y-96999403D01*
X94817065Y-96981982D01*
X94793224Y-96977240D01*
X94629001Y-96927424D01*
X94606543Y-96918121D01*
X94455201Y-96837227D01*
X94434989Y-96823722D01*
X94302333Y-96714854D01*
X94285145Y-96697666D01*
X94176277Y-96565010D01*
X94162772Y-96544798D01*
X94081878Y-96393456D01*
X94072575Y-96370998D01*
X94022757Y-96206769D01*
X94018018Y-96182941D01*
X94000597Y-96006061D01*
X94000000Y-95993907D01*
X94000000Y-93800321D01*
X95674500Y-93800321D01*
X95674500Y-95199678D01*
X95689032Y-95272735D01*
X95689033Y-95272739D01*
X95689034Y-95272740D01*
X95744399Y-95355601D01*
X95788475Y-95385051D01*
X95827260Y-95410966D01*
X95827264Y-95410967D01*
X95900321Y-95425499D01*
X95900324Y-95425500D01*
X95900326Y-95425500D01*
X97299676Y-95425500D01*
X97299677Y-95425499D01*
X97372740Y-95410966D01*
X97455601Y-95355601D01*
X97510966Y-95272740D01*
X97525500Y-95199674D01*
X97525500Y-94952687D01*
X97545185Y-94885648D01*
X97597989Y-94839893D01*
X97667147Y-94829949D01*
X97730703Y-94858974D01*
X97756887Y-94890687D01*
X97788002Y-94944579D01*
X97847130Y-95046992D01*
X97878635Y-95081982D01*
X97977302Y-95191564D01*
X97977305Y-95191566D01*
X97977308Y-95191569D01*
X98075657Y-95263024D01*
X98134702Y-95305923D01*
X98202926Y-95336297D01*
X98312429Y-95385051D01*
X98502726Y-95425500D01*
X98697274Y-95425500D01*
X98887571Y-95385051D01*
X99065299Y-95305922D01*
X99222692Y-95191569D01*
X99224696Y-95189344D01*
X99266261Y-95143181D01*
X99352870Y-95046992D01*
X99450144Y-94878508D01*
X99482069Y-94780252D01*
X99521506Y-94722576D01*
X99585864Y-94695377D01*
X99654711Y-94707291D01*
X99706187Y-94754535D01*
X99717931Y-94780252D01*
X99749855Y-94878507D01*
X99749857Y-94878511D01*
X99788002Y-94944579D01*
X99847130Y-95046992D01*
X99878635Y-95081982D01*
X99977302Y-95191564D01*
X99977305Y-95191566D01*
X99977308Y-95191569D01*
X100075657Y-95263024D01*
X100134702Y-95305923D01*
X100202926Y-95336297D01*
X100312429Y-95385051D01*
X100502726Y-95425500D01*
X100697274Y-95425500D01*
X100887571Y-95385051D01*
X101065299Y-95305922D01*
X101222692Y-95191569D01*
X101224696Y-95189344D01*
X101266261Y-95143181D01*
X101352870Y-95046992D01*
X101450144Y-94878508D01*
X101510262Y-94693482D01*
X101530598Y-94500000D01*
X103669402Y-94500000D01*
X103689738Y-94693483D01*
X103749856Y-94878510D01*
X103749857Y-94878511D01*
X103788002Y-94944579D01*
X103847130Y-95046992D01*
X103878635Y-95081982D01*
X103977302Y-95191564D01*
X103977305Y-95191566D01*
X103977308Y-95191569D01*
X104075657Y-95263024D01*
X104134702Y-95305923D01*
X104202926Y-95336297D01*
X104312429Y-95385051D01*
X104502726Y-95425500D01*
X104697274Y-95425500D01*
X104887571Y-95385051D01*
X105065299Y-95305922D01*
X105073451Y-95299999D01*
X107544722Y-95299999D01*
X107544722Y-95300000D01*
X107563762Y-95456818D01*
X107619780Y-95604523D01*
X107709517Y-95734530D01*
X107827760Y-95839283D01*
X107827762Y-95839284D01*
X107967634Y-95912696D01*
X108121014Y-95950500D01*
X108121015Y-95950500D01*
X108278985Y-95950500D01*
X108432365Y-95912696D01*
X108572240Y-95839283D01*
X108690483Y-95734530D01*
X108780220Y-95604523D01*
X108836237Y-95456818D01*
X108855278Y-95300000D01*
X108851968Y-95272735D01*
X108836237Y-95143181D01*
X108799756Y-95046990D01*
X108780220Y-94995477D01*
X108690483Y-94865470D01*
X108572240Y-94760717D01*
X108572238Y-94760716D01*
X108572237Y-94760715D01*
X108432365Y-94687303D01*
X108278986Y-94649500D01*
X108278985Y-94649500D01*
X108121015Y-94649500D01*
X108121014Y-94649500D01*
X107967634Y-94687303D01*
X107827762Y-94760715D01*
X107709516Y-94865471D01*
X107619781Y-94995475D01*
X107619780Y-94995476D01*
X107563762Y-95143181D01*
X107544722Y-95299999D01*
X105073451Y-95299999D01*
X105222692Y-95191569D01*
X105224696Y-95189344D01*
X105266261Y-95143181D01*
X105352870Y-95046992D01*
X105450144Y-94878508D01*
X105510262Y-94693482D01*
X105530598Y-94500000D01*
X105510262Y-94306518D01*
X105450144Y-94121492D01*
X105450143Y-94121491D01*
X105450143Y-94121489D01*
X105450142Y-94121488D01*
X105407316Y-94047312D01*
X105352870Y-93953008D01*
X105301882Y-93896381D01*
X105222697Y-93808435D01*
X105222694Y-93808433D01*
X105222693Y-93808432D01*
X105222692Y-93808431D01*
X105143995Y-93751254D01*
X105065297Y-93694076D01*
X104928848Y-93633326D01*
X104887571Y-93614949D01*
X104887569Y-93614948D01*
X104697274Y-93574500D01*
X104502726Y-93574500D01*
X104312431Y-93614948D01*
X104134702Y-93694076D01*
X103977305Y-93808433D01*
X103977302Y-93808435D01*
X103847129Y-93953009D01*
X103749857Y-94121488D01*
X103749856Y-94121489D01*
X103689738Y-94306516D01*
X103669402Y-94500000D01*
X101530598Y-94500000D01*
X101510262Y-94306518D01*
X101450144Y-94121492D01*
X101450143Y-94121491D01*
X101450143Y-94121489D01*
X101450142Y-94121488D01*
X101407316Y-94047312D01*
X101352870Y-93953008D01*
X101301882Y-93896381D01*
X101222697Y-93808435D01*
X101222694Y-93808433D01*
X101222693Y-93808432D01*
X101222692Y-93808431D01*
X101143995Y-93751254D01*
X101065297Y-93694076D01*
X100928848Y-93633326D01*
X100887571Y-93614949D01*
X100887569Y-93614948D01*
X100697274Y-93574500D01*
X100502726Y-93574500D01*
X100312431Y-93614948D01*
X100134702Y-93694076D01*
X99977305Y-93808433D01*
X99977302Y-93808435D01*
X99847129Y-93953009D01*
X99749857Y-94121488D01*
X99749856Y-94121489D01*
X99717931Y-94219748D01*
X99678494Y-94277423D01*
X99614135Y-94304622D01*
X99545289Y-94292708D01*
X99493813Y-94245464D01*
X99482069Y-94219748D01*
X99450143Y-94121489D01*
X99450142Y-94121488D01*
X99407316Y-94047312D01*
X99352870Y-93953008D01*
X99301882Y-93896381D01*
X99222697Y-93808435D01*
X99222694Y-93808433D01*
X99222693Y-93808432D01*
X99222692Y-93808431D01*
X99143995Y-93751254D01*
X99065297Y-93694076D01*
X98928848Y-93633326D01*
X98887571Y-93614949D01*
X98887569Y-93614948D01*
X98697274Y-93574500D01*
X98502726Y-93574500D01*
X98312431Y-93614948D01*
X98134702Y-93694076D01*
X97977305Y-93808433D01*
X97977302Y-93808435D01*
X97847128Y-93953009D01*
X97756887Y-94109312D01*
X97706320Y-94157528D01*
X97637713Y-94170750D01*
X97572848Y-94144782D01*
X97532320Y-94087868D01*
X97525500Y-94047312D01*
X97525500Y-93800323D01*
X97525499Y-93800321D01*
X97510967Y-93727264D01*
X97510966Y-93727260D01*
X97455601Y-93644399D01*
X97372740Y-93589034D01*
X97372739Y-93589033D01*
X97372735Y-93589032D01*
X97299677Y-93574500D01*
X97299674Y-93574500D01*
X95900326Y-93574500D01*
X95900323Y-93574500D01*
X95827264Y-93589032D01*
X95827260Y-93589033D01*
X95744399Y-93644399D01*
X95689033Y-93727260D01*
X95689032Y-93727264D01*
X95674500Y-93800321D01*
X94000000Y-93800321D01*
X94000000Y-93325321D01*
X113699500Y-93325321D01*
X113699500Y-95074678D01*
X113714032Y-95147735D01*
X113714033Y-95147739D01*
X113714034Y-95147740D01*
X113769399Y-95230601D01*
X113832458Y-95272735D01*
X113852260Y-95285966D01*
X113852264Y-95285967D01*
X113925321Y-95300499D01*
X113925324Y-95300500D01*
X113925326Y-95300500D01*
X115674676Y-95300500D01*
X115674677Y-95300499D01*
X115747740Y-95285966D01*
X115830601Y-95230601D01*
X115885966Y-95147740D01*
X115900500Y-95074674D01*
X115900500Y-94199999D01*
X116234785Y-94199999D01*
X116234785Y-94200000D01*
X116253602Y-94403082D01*
X116309417Y-94599247D01*
X116309422Y-94599260D01*
X116400327Y-94781821D01*
X116523237Y-94944581D01*
X116673958Y-95081980D01*
X116673960Y-95081982D01*
X116772801Y-95143181D01*
X116847363Y-95189348D01*
X117037544Y-95263024D01*
X117238024Y-95300500D01*
X117238026Y-95300500D01*
X117441974Y-95300500D01*
X117441976Y-95300500D01*
X117642456Y-95263024D01*
X117832637Y-95189348D01*
X118006041Y-95081981D01*
X118156764Y-94944579D01*
X118279673Y-94781821D01*
X118370582Y-94599250D01*
X118426397Y-94403083D01*
X118445215Y-94200000D01*
X118445215Y-94199999D01*
X118774785Y-94199999D01*
X118774785Y-94200000D01*
X118793602Y-94403082D01*
X118849417Y-94599247D01*
X118849422Y-94599260D01*
X118940327Y-94781821D01*
X119063237Y-94944581D01*
X119213958Y-95081980D01*
X119213960Y-95081982D01*
X119312801Y-95143181D01*
X119387363Y-95189348D01*
X119577544Y-95263024D01*
X119778024Y-95300500D01*
X119778026Y-95300500D01*
X119981974Y-95300500D01*
X119981976Y-95300500D01*
X120182456Y-95263024D01*
X120372637Y-95189348D01*
X120546041Y-95081981D01*
X120696764Y-94944579D01*
X120819673Y-94781821D01*
X120910582Y-94599250D01*
X120966397Y-94403083D01*
X120985215Y-94200000D01*
X120985215Y-94199999D01*
X121314785Y-94199999D01*
X121314785Y-94200000D01*
X121333602Y-94403082D01*
X121389417Y-94599247D01*
X121389422Y-94599260D01*
X121480327Y-94781821D01*
X121603237Y-94944581D01*
X121753958Y-95081980D01*
X121753960Y-95081982D01*
X121852801Y-95143181D01*
X121927363Y-95189348D01*
X122117544Y-95263024D01*
X122318024Y-95300500D01*
X122318026Y-95300500D01*
X122521974Y-95300500D01*
X122521976Y-95300500D01*
X122722456Y-95263024D01*
X122912637Y-95189348D01*
X123086041Y-95081981D01*
X123236764Y-94944579D01*
X123359673Y-94781821D01*
X123450582Y-94599250D01*
X123506397Y-94403083D01*
X123525215Y-94200000D01*
X123525215Y-94199999D01*
X123854785Y-94199999D01*
X123854785Y-94200000D01*
X123873602Y-94403082D01*
X123929417Y-94599247D01*
X123929422Y-94599260D01*
X124020327Y-94781821D01*
X124143237Y-94944581D01*
X124293958Y-95081980D01*
X124293960Y-95081982D01*
X124392801Y-95143181D01*
X124467363Y-95189348D01*
X124657544Y-95263024D01*
X124858024Y-95300500D01*
X124858026Y-95300500D01*
X125061974Y-95300500D01*
X125061976Y-95300500D01*
X125262456Y-95263024D01*
X125452637Y-95189348D01*
X125626041Y-95081981D01*
X125776764Y-94944579D01*
X125899673Y-94781821D01*
X125990582Y-94599250D01*
X126046397Y-94403083D01*
X126065215Y-94200000D01*
X126065215Y-94199999D01*
X126394785Y-94199999D01*
X126394785Y-94200000D01*
X126413602Y-94403082D01*
X126469417Y-94599247D01*
X126469422Y-94599260D01*
X126560327Y-94781821D01*
X126683237Y-94944581D01*
X126833958Y-95081980D01*
X126833960Y-95081982D01*
X126932801Y-95143181D01*
X127007363Y-95189348D01*
X127197544Y-95263024D01*
X127398024Y-95300500D01*
X127398026Y-95300500D01*
X127601974Y-95300500D01*
X127601976Y-95300500D01*
X127802456Y-95263024D01*
X127992637Y-95189348D01*
X128166041Y-95081981D01*
X128316764Y-94944579D01*
X128439673Y-94781821D01*
X128530582Y-94599250D01*
X128586397Y-94403083D01*
X128605215Y-94200000D01*
X128601279Y-94157528D01*
X128586397Y-93996917D01*
X128573904Y-93953008D01*
X128530582Y-93800750D01*
X128530369Y-93800323D01*
X128452729Y-93644399D01*
X128439673Y-93618179D01*
X128316764Y-93455421D01*
X128316762Y-93455418D01*
X128166041Y-93318019D01*
X128166039Y-93318017D01*
X127992642Y-93210655D01*
X127992635Y-93210651D01*
X127886150Y-93169399D01*
X127802456Y-93136976D01*
X127601976Y-93099500D01*
X127398024Y-93099500D01*
X127197544Y-93136976D01*
X127197541Y-93136976D01*
X127197541Y-93136977D01*
X127007364Y-93210651D01*
X127007357Y-93210655D01*
X126833960Y-93318017D01*
X126833958Y-93318019D01*
X126683237Y-93455418D01*
X126560327Y-93618178D01*
X126469422Y-93800739D01*
X126469417Y-93800752D01*
X126413602Y-93996917D01*
X126394785Y-94199999D01*
X126065215Y-94199999D01*
X126061279Y-94157528D01*
X126046397Y-93996917D01*
X126033904Y-93953008D01*
X125990582Y-93800750D01*
X125990369Y-93800323D01*
X125912729Y-93644399D01*
X125899673Y-93618179D01*
X125776764Y-93455421D01*
X125776762Y-93455418D01*
X125626041Y-93318019D01*
X125626039Y-93318017D01*
X125452642Y-93210655D01*
X125452635Y-93210651D01*
X125346150Y-93169399D01*
X125262456Y-93136976D01*
X125061976Y-93099500D01*
X124858024Y-93099500D01*
X124657544Y-93136976D01*
X124657541Y-93136976D01*
X124657541Y-93136977D01*
X124467364Y-93210651D01*
X124467357Y-93210655D01*
X124293960Y-93318017D01*
X124293958Y-93318019D01*
X124143237Y-93455418D01*
X124020327Y-93618178D01*
X123929422Y-93800739D01*
X123929417Y-93800752D01*
X123873602Y-93996917D01*
X123854785Y-94199999D01*
X123525215Y-94199999D01*
X123521279Y-94157528D01*
X123506397Y-93996917D01*
X123493904Y-93953008D01*
X123450582Y-93800750D01*
X123450369Y-93800323D01*
X123372729Y-93644399D01*
X123359673Y-93618179D01*
X123236764Y-93455421D01*
X123236762Y-93455418D01*
X123086041Y-93318019D01*
X123086039Y-93318017D01*
X122912642Y-93210655D01*
X122912635Y-93210651D01*
X122722455Y-93136975D01*
X122692117Y-93131304D01*
X122629836Y-93099635D01*
X122594564Y-93039322D01*
X122597499Y-92969514D01*
X122637709Y-92912375D01*
X122657266Y-92899626D01*
X122772240Y-92839283D01*
X122890483Y-92734530D01*
X122980220Y-92604523D01*
X123036237Y-92456818D01*
X123055278Y-92300000D01*
X123036237Y-92143182D01*
X123024221Y-92111499D01*
X124728722Y-92111499D01*
X124728722Y-92111500D01*
X124747762Y-92268318D01*
X124803780Y-92416023D01*
X124893517Y-92546030D01*
X125011760Y-92650783D01*
X125011762Y-92650784D01*
X125151634Y-92724196D01*
X125305014Y-92762000D01*
X125305015Y-92762000D01*
X125462985Y-92762000D01*
X125616365Y-92724196D01*
X125695843Y-92682482D01*
X125756240Y-92650783D01*
X125874483Y-92546030D01*
X125964220Y-92416023D01*
X126020237Y-92268318D01*
X126039278Y-92111500D01*
X126020237Y-91954682D01*
X125964220Y-91806977D01*
X125874483Y-91676970D01*
X125777699Y-91591228D01*
X133649500Y-91591228D01*
X133649500Y-92308771D01*
X133682182Y-92473074D01*
X133682184Y-92473082D01*
X133746295Y-92627860D01*
X133839373Y-92767162D01*
X133957837Y-92885626D01*
X134028055Y-92932544D01*
X134097137Y-92978703D01*
X134251918Y-93042816D01*
X134416223Y-93075498D01*
X134416228Y-93075499D01*
X134416232Y-93075500D01*
X134416233Y-93075500D01*
X134583768Y-93075500D01*
X134583769Y-93075499D01*
X134748082Y-93042816D01*
X134902863Y-92978703D01*
X135042162Y-92885626D01*
X135160626Y-92767162D01*
X135253703Y-92627863D01*
X135317816Y-92473082D01*
X135350500Y-92308767D01*
X135350500Y-91591233D01*
X135317816Y-91426918D01*
X135255773Y-91277135D01*
X139749500Y-91277135D01*
X139749500Y-92622870D01*
X139749501Y-92622876D01*
X139755908Y-92682483D01*
X139806202Y-92817328D01*
X139806206Y-92817335D01*
X139892452Y-92932544D01*
X139892455Y-92932547D01*
X140007664Y-93018793D01*
X140007671Y-93018797D01*
X140142517Y-93069091D01*
X140142516Y-93069091D01*
X140149444Y-93069835D01*
X140202127Y-93075500D01*
X140997872Y-93075499D01*
X141057483Y-93069091D01*
X141192331Y-93018796D01*
X141307546Y-92932546D01*
X141393796Y-92817331D01*
X141444091Y-92682483D01*
X141450500Y-92622873D01*
X141450499Y-91591228D01*
X141749500Y-91591228D01*
X141749500Y-92308771D01*
X141782182Y-92473074D01*
X141782184Y-92473082D01*
X141846295Y-92627860D01*
X141939373Y-92767162D01*
X142057837Y-92885626D01*
X142128055Y-92932544D01*
X142197137Y-92978703D01*
X142351918Y-93042816D01*
X142516223Y-93075498D01*
X142516228Y-93075499D01*
X142516232Y-93075500D01*
X142516233Y-93075500D01*
X142683768Y-93075500D01*
X142683769Y-93075499D01*
X142848082Y-93042816D01*
X143002863Y-92978703D01*
X143142162Y-92885626D01*
X143260626Y-92767162D01*
X143353703Y-92627863D01*
X143417816Y-92473082D01*
X143450500Y-92308767D01*
X143450500Y-91591233D01*
X143417816Y-91426918D01*
X143355771Y-91277129D01*
X143353704Y-91272139D01*
X143260626Y-91132837D01*
X143142162Y-91014373D01*
X143002860Y-90921295D01*
X142848082Y-90857184D01*
X142848074Y-90857182D01*
X142683771Y-90824500D01*
X142683767Y-90824500D01*
X142516233Y-90824500D01*
X142516228Y-90824500D01*
X142351925Y-90857182D01*
X142351917Y-90857184D01*
X142197139Y-90921295D01*
X142057837Y-91014373D01*
X141939373Y-91132837D01*
X141846295Y-91272139D01*
X141782184Y-91426917D01*
X141782182Y-91426925D01*
X141749500Y-91591228D01*
X141450499Y-91591228D01*
X141450499Y-91277128D01*
X141444091Y-91217517D01*
X141412507Y-91132837D01*
X141393797Y-91082671D01*
X141393793Y-91082664D01*
X141307547Y-90967455D01*
X141307544Y-90967452D01*
X141192335Y-90881206D01*
X141192328Y-90881202D01*
X141057482Y-90830908D01*
X141057483Y-90830908D01*
X140997883Y-90824501D01*
X140997881Y-90824500D01*
X140997873Y-90824500D01*
X140997864Y-90824500D01*
X140202129Y-90824500D01*
X140202123Y-90824501D01*
X140142516Y-90830908D01*
X140007671Y-90881202D01*
X140007664Y-90881206D01*
X139892455Y-90967452D01*
X139892452Y-90967455D01*
X139806206Y-91082664D01*
X139806202Y-91082671D01*
X139755908Y-91217517D01*
X139750036Y-91272139D01*
X139749501Y-91277123D01*
X139749500Y-91277135D01*
X135255773Y-91277135D01*
X135255771Y-91277129D01*
X135253704Y-91272139D01*
X135160626Y-91132837D01*
X135042162Y-91014373D01*
X134902860Y-90921295D01*
X134748082Y-90857184D01*
X134748074Y-90857182D01*
X134583771Y-90824500D01*
X134583767Y-90824500D01*
X134416233Y-90824500D01*
X134416228Y-90824500D01*
X134251925Y-90857182D01*
X134251917Y-90857184D01*
X134097139Y-90921295D01*
X133957837Y-91014373D01*
X133839373Y-91132837D01*
X133746295Y-91272139D01*
X133682184Y-91426917D01*
X133682182Y-91426925D01*
X133649500Y-91591228D01*
X125777699Y-91591228D01*
X125756240Y-91572217D01*
X125756238Y-91572216D01*
X125756237Y-91572215D01*
X125616365Y-91498803D01*
X125462986Y-91461000D01*
X125462985Y-91461000D01*
X125305015Y-91461000D01*
X125305014Y-91461000D01*
X125151634Y-91498803D01*
X125011762Y-91572215D01*
X124893516Y-91676971D01*
X124803781Y-91806975D01*
X124803780Y-91806976D01*
X124747762Y-91954681D01*
X124728722Y-92111499D01*
X123024221Y-92111499D01*
X122980220Y-91995477D01*
X122890483Y-91865470D01*
X122772240Y-91760717D01*
X122772238Y-91760716D01*
X122772237Y-91760715D01*
X122632365Y-91687303D01*
X122478986Y-91649500D01*
X122478985Y-91649500D01*
X122321015Y-91649500D01*
X122321014Y-91649500D01*
X122167634Y-91687303D01*
X122027762Y-91760715D01*
X121909516Y-91865471D01*
X121819781Y-91995475D01*
X121819780Y-91995476D01*
X121763762Y-92143181D01*
X121744722Y-92299999D01*
X121744722Y-92300000D01*
X121763762Y-92456818D01*
X121819780Y-92604523D01*
X121909517Y-92734530D01*
X121997749Y-92812696D01*
X122027762Y-92839285D01*
X122153226Y-92905134D01*
X122203439Y-92953719D01*
X122219413Y-93021738D01*
X122196078Y-93087595D01*
X122140841Y-93130382D01*
X122118393Y-93136817D01*
X122117545Y-93136975D01*
X121927364Y-93210651D01*
X121927357Y-93210655D01*
X121753960Y-93318017D01*
X121753958Y-93318019D01*
X121603237Y-93455418D01*
X121480327Y-93618178D01*
X121389422Y-93800739D01*
X121389417Y-93800752D01*
X121333602Y-93996917D01*
X121314785Y-94199999D01*
X120985215Y-94199999D01*
X120981279Y-94157528D01*
X120966397Y-93996917D01*
X120953904Y-93953008D01*
X120910582Y-93800750D01*
X120910369Y-93800323D01*
X120832729Y-93644399D01*
X120819673Y-93618179D01*
X120696764Y-93455421D01*
X120696762Y-93455418D01*
X120546041Y-93318019D01*
X120546039Y-93318017D01*
X120372642Y-93210655D01*
X120372635Y-93210651D01*
X120266150Y-93169399D01*
X120182456Y-93136976D01*
X119981976Y-93099500D01*
X119778024Y-93099500D01*
X119577544Y-93136976D01*
X119577541Y-93136976D01*
X119577541Y-93136977D01*
X119387364Y-93210651D01*
X119387357Y-93210655D01*
X119213960Y-93318017D01*
X119213958Y-93318019D01*
X119063237Y-93455418D01*
X118940327Y-93618178D01*
X118849422Y-93800739D01*
X118849417Y-93800752D01*
X118793602Y-93996917D01*
X118774785Y-94199999D01*
X118445215Y-94199999D01*
X118441279Y-94157528D01*
X118426397Y-93996917D01*
X118413904Y-93953008D01*
X118370582Y-93800750D01*
X118370369Y-93800323D01*
X118292729Y-93644399D01*
X118279673Y-93618179D01*
X118156764Y-93455421D01*
X118156762Y-93455418D01*
X118006041Y-93318019D01*
X118006039Y-93318017D01*
X117832642Y-93210655D01*
X117832635Y-93210651D01*
X117726150Y-93169399D01*
X117642456Y-93136976D01*
X117441976Y-93099500D01*
X117238024Y-93099500D01*
X117037544Y-93136976D01*
X117037541Y-93136976D01*
X117037541Y-93136977D01*
X116847364Y-93210651D01*
X116847357Y-93210655D01*
X116673960Y-93318017D01*
X116673958Y-93318019D01*
X116523237Y-93455418D01*
X116400327Y-93618178D01*
X116309422Y-93800739D01*
X116309417Y-93800752D01*
X116253602Y-93996917D01*
X116234785Y-94199999D01*
X115900500Y-94199999D01*
X115900500Y-93325326D01*
X115900500Y-93325323D01*
X115900499Y-93325321D01*
X115885967Y-93252264D01*
X115885966Y-93252260D01*
X115830601Y-93169399D01*
X115747740Y-93114034D01*
X115747739Y-93114033D01*
X115747735Y-93114032D01*
X115674677Y-93099500D01*
X115674674Y-93099500D01*
X113925326Y-93099500D01*
X113925323Y-93099500D01*
X113852264Y-93114032D01*
X113852260Y-93114033D01*
X113769399Y-93169399D01*
X113714033Y-93252260D01*
X113714032Y-93252264D01*
X113699500Y-93325321D01*
X94000000Y-93325321D01*
X94000000Y-92199999D01*
X118844722Y-92199999D01*
X118844722Y-92200000D01*
X118863762Y-92356818D01*
X118901688Y-92456818D01*
X118919780Y-92504523D01*
X119009517Y-92634530D01*
X119127760Y-92739283D01*
X119127762Y-92739284D01*
X119267634Y-92812696D01*
X119421014Y-92850500D01*
X119421015Y-92850500D01*
X119578985Y-92850500D01*
X119732365Y-92812696D01*
X119872240Y-92739283D01*
X119990483Y-92634530D01*
X120080220Y-92504523D01*
X120136237Y-92356818D01*
X120155278Y-92200000D01*
X120136237Y-92043182D01*
X120080220Y-91895477D01*
X119990483Y-91765470D01*
X119872240Y-91660717D01*
X119872238Y-91660716D01*
X119872237Y-91660715D01*
X119732365Y-91587303D01*
X119578986Y-91549500D01*
X119578985Y-91549500D01*
X119421015Y-91549500D01*
X119421014Y-91549500D01*
X119267634Y-91587303D01*
X119127762Y-91660715D01*
X119009516Y-91765471D01*
X118919781Y-91895475D01*
X118919780Y-91895476D01*
X118863762Y-92043181D01*
X118844722Y-92199999D01*
X94000000Y-92199999D01*
X94000000Y-88299999D01*
X106794722Y-88299999D01*
X106794722Y-88300000D01*
X106813762Y-88456818D01*
X106869780Y-88604523D01*
X106959517Y-88734530D01*
X107077760Y-88839283D01*
X107077762Y-88839284D01*
X107217634Y-88912696D01*
X107371014Y-88950500D01*
X107371015Y-88950500D01*
X107528985Y-88950500D01*
X107631142Y-88925321D01*
X113699500Y-88925321D01*
X113699500Y-90674678D01*
X113714032Y-90747735D01*
X113714033Y-90747739D01*
X113714034Y-90747740D01*
X113769399Y-90830601D01*
X113845130Y-90881202D01*
X113852260Y-90885966D01*
X113852264Y-90885967D01*
X113925321Y-90900499D01*
X113925324Y-90900500D01*
X113925326Y-90900500D01*
X115674676Y-90900500D01*
X115674677Y-90900499D01*
X115747740Y-90885966D01*
X115830601Y-90830601D01*
X115885966Y-90747740D01*
X115900500Y-90674674D01*
X115900500Y-89799999D01*
X116234785Y-89799999D01*
X116234785Y-89800000D01*
X116253602Y-90003082D01*
X116309417Y-90199247D01*
X116309422Y-90199260D01*
X116400327Y-90381821D01*
X116523237Y-90544581D01*
X116673958Y-90681980D01*
X116673960Y-90681982D01*
X116773141Y-90743392D01*
X116847363Y-90789348D01*
X117037544Y-90863024D01*
X117238024Y-90900500D01*
X117238026Y-90900500D01*
X117441974Y-90900500D01*
X117441976Y-90900500D01*
X117642456Y-90863024D01*
X117832637Y-90789348D01*
X118006041Y-90681981D01*
X118156764Y-90544579D01*
X118279673Y-90381821D01*
X118370582Y-90199250D01*
X118426397Y-90003083D01*
X118445215Y-89800000D01*
X118445215Y-89799999D01*
X118774785Y-89799999D01*
X118774785Y-89800000D01*
X118793602Y-90003082D01*
X118849417Y-90199247D01*
X118849422Y-90199260D01*
X118940327Y-90381821D01*
X119063237Y-90544581D01*
X119213958Y-90681980D01*
X119213960Y-90681982D01*
X119313141Y-90743392D01*
X119387363Y-90789348D01*
X119577544Y-90863024D01*
X119778024Y-90900500D01*
X119778026Y-90900500D01*
X119981974Y-90900500D01*
X119981976Y-90900500D01*
X120182456Y-90863024D01*
X120372637Y-90789348D01*
X120546041Y-90681981D01*
X120696764Y-90544579D01*
X120819673Y-90381821D01*
X120910582Y-90199250D01*
X120966397Y-90003083D01*
X120985215Y-89800000D01*
X120985215Y-89799999D01*
X121314785Y-89799999D01*
X121314785Y-89800000D01*
X121333602Y-90003082D01*
X121389417Y-90199247D01*
X121389422Y-90199260D01*
X121480327Y-90381821D01*
X121603237Y-90544581D01*
X121753958Y-90681980D01*
X121753960Y-90681982D01*
X121853141Y-90743392D01*
X121927363Y-90789348D01*
X122117544Y-90863024D01*
X122318024Y-90900500D01*
X122318026Y-90900500D01*
X122521974Y-90900500D01*
X122521976Y-90900500D01*
X122722456Y-90863024D01*
X122912637Y-90789348D01*
X123086041Y-90681981D01*
X123236764Y-90544579D01*
X123359673Y-90381821D01*
X123450582Y-90199250D01*
X123506397Y-90003083D01*
X123525215Y-89800000D01*
X123525215Y-89799999D01*
X123854785Y-89799999D01*
X123854785Y-89800000D01*
X123873602Y-90003082D01*
X123929417Y-90199247D01*
X123929422Y-90199260D01*
X124020327Y-90381821D01*
X124143237Y-90544581D01*
X124293958Y-90681980D01*
X124293960Y-90681982D01*
X124393141Y-90743392D01*
X124467363Y-90789348D01*
X124657544Y-90863024D01*
X124858024Y-90900500D01*
X124858026Y-90900500D01*
X125061974Y-90900500D01*
X125061976Y-90900500D01*
X125262456Y-90863024D01*
X125452637Y-90789348D01*
X125626041Y-90681981D01*
X125776764Y-90544579D01*
X125899673Y-90381821D01*
X125990582Y-90199250D01*
X126046397Y-90003083D01*
X126065215Y-89800000D01*
X126065215Y-89799999D01*
X126394785Y-89799999D01*
X126394785Y-89800000D01*
X126413602Y-90003082D01*
X126469417Y-90199247D01*
X126469422Y-90199260D01*
X126560327Y-90381821D01*
X126683237Y-90544581D01*
X126833958Y-90681980D01*
X126833960Y-90681982D01*
X126933141Y-90743392D01*
X127007363Y-90789348D01*
X127197544Y-90863024D01*
X127398024Y-90900500D01*
X127398026Y-90900500D01*
X127601974Y-90900500D01*
X127601976Y-90900500D01*
X127802456Y-90863024D01*
X127992637Y-90789348D01*
X128166041Y-90681981D01*
X128316764Y-90544579D01*
X128439673Y-90381821D01*
X128530582Y-90199250D01*
X128586397Y-90003083D01*
X128605215Y-89800000D01*
X128586397Y-89596917D01*
X128530582Y-89400750D01*
X128439673Y-89218179D01*
X128316764Y-89055421D01*
X128316762Y-89055418D01*
X128166041Y-88918019D01*
X128166039Y-88918017D01*
X127992642Y-88810655D01*
X127992635Y-88810651D01*
X127886150Y-88769399D01*
X127802456Y-88736976D01*
X127601976Y-88699500D01*
X127398024Y-88699500D01*
X127197544Y-88736976D01*
X127197541Y-88736976D01*
X127197541Y-88736977D01*
X127007364Y-88810651D01*
X127007357Y-88810655D01*
X126833960Y-88918017D01*
X126833958Y-88918019D01*
X126683237Y-89055418D01*
X126560327Y-89218178D01*
X126469422Y-89400739D01*
X126469417Y-89400752D01*
X126413602Y-89596917D01*
X126394785Y-89799999D01*
X126065215Y-89799999D01*
X126046397Y-89596917D01*
X125990582Y-89400750D01*
X125899673Y-89218179D01*
X125776764Y-89055421D01*
X125776762Y-89055418D01*
X125626041Y-88918019D01*
X125626039Y-88918017D01*
X125452642Y-88810655D01*
X125452635Y-88810651D01*
X125346150Y-88769399D01*
X125262456Y-88736976D01*
X125061976Y-88699500D01*
X124858024Y-88699500D01*
X124657544Y-88736976D01*
X124657541Y-88736976D01*
X124657541Y-88736977D01*
X124467364Y-88810651D01*
X124467357Y-88810655D01*
X124293960Y-88918017D01*
X124293958Y-88918019D01*
X124143237Y-89055418D01*
X124020327Y-89218178D01*
X123929422Y-89400739D01*
X123929417Y-89400752D01*
X123873602Y-89596917D01*
X123854785Y-89799999D01*
X123525215Y-89799999D01*
X123506397Y-89596917D01*
X123450582Y-89400750D01*
X123359673Y-89218179D01*
X123236764Y-89055421D01*
X123236762Y-89055418D01*
X123086041Y-88918019D01*
X123086039Y-88918017D01*
X122912642Y-88810655D01*
X122912635Y-88810651D01*
X122806150Y-88769399D01*
X122722456Y-88736976D01*
X122521976Y-88699500D01*
X122318024Y-88699500D01*
X122117544Y-88736976D01*
X122117541Y-88736976D01*
X122117541Y-88736977D01*
X121927364Y-88810651D01*
X121927357Y-88810655D01*
X121753960Y-88918017D01*
X121753958Y-88918019D01*
X121603237Y-89055418D01*
X121480327Y-89218178D01*
X121389422Y-89400739D01*
X121389417Y-89400752D01*
X121333602Y-89596917D01*
X121314785Y-89799999D01*
X120985215Y-89799999D01*
X120966397Y-89596917D01*
X120910582Y-89400750D01*
X120819673Y-89218179D01*
X120696764Y-89055421D01*
X120696762Y-89055418D01*
X120546041Y-88918019D01*
X120546039Y-88918017D01*
X120372642Y-88810655D01*
X120372635Y-88810651D01*
X120266150Y-88769399D01*
X120182456Y-88736976D01*
X119981976Y-88699500D01*
X119778024Y-88699500D01*
X119577544Y-88736976D01*
X119577541Y-88736976D01*
X119577541Y-88736977D01*
X119387364Y-88810651D01*
X119387357Y-88810655D01*
X119213960Y-88918017D01*
X119213958Y-88918019D01*
X119063237Y-89055418D01*
X118940327Y-89218178D01*
X118849422Y-89400739D01*
X118849417Y-89400752D01*
X118793602Y-89596917D01*
X118774785Y-89799999D01*
X118445215Y-89799999D01*
X118426397Y-89596917D01*
X118370582Y-89400750D01*
X118279673Y-89218179D01*
X118156764Y-89055421D01*
X118156762Y-89055418D01*
X118006041Y-88918019D01*
X118006039Y-88918017D01*
X117832642Y-88810655D01*
X117832635Y-88810651D01*
X117726150Y-88769399D01*
X117642456Y-88736976D01*
X117441976Y-88699500D01*
X117238024Y-88699500D01*
X117037544Y-88736976D01*
X117037541Y-88736976D01*
X117037541Y-88736977D01*
X116847364Y-88810651D01*
X116847357Y-88810655D01*
X116673960Y-88918017D01*
X116673958Y-88918019D01*
X116523237Y-89055418D01*
X116400327Y-89218178D01*
X116309422Y-89400739D01*
X116309417Y-89400752D01*
X116253602Y-89596917D01*
X116234785Y-89799999D01*
X115900500Y-89799999D01*
X115900500Y-88925326D01*
X115900500Y-88925323D01*
X115900499Y-88925321D01*
X115885967Y-88852264D01*
X115885966Y-88852260D01*
X115877295Y-88839283D01*
X115830601Y-88769399D01*
X115747740Y-88714034D01*
X115747739Y-88714033D01*
X115747735Y-88714032D01*
X115674677Y-88699500D01*
X115674674Y-88699500D01*
X113925326Y-88699500D01*
X113925323Y-88699500D01*
X113852264Y-88714032D01*
X113852260Y-88714033D01*
X113769399Y-88769399D01*
X113714033Y-88852260D01*
X113714032Y-88852264D01*
X113699500Y-88925321D01*
X107631142Y-88925321D01*
X107682365Y-88912696D01*
X107822240Y-88839283D01*
X107940483Y-88734530D01*
X108030220Y-88604523D01*
X108086237Y-88456818D01*
X108105278Y-88300000D01*
X108086237Y-88143182D01*
X108030220Y-87995477D01*
X107940483Y-87865470D01*
X107822240Y-87760717D01*
X107822238Y-87760716D01*
X107822237Y-87760715D01*
X107682365Y-87687303D01*
X107528986Y-87649500D01*
X107528985Y-87649500D01*
X107371015Y-87649500D01*
X107371014Y-87649500D01*
X107217634Y-87687303D01*
X107077762Y-87760715D01*
X106959516Y-87865471D01*
X106869781Y-87995475D01*
X106869780Y-87995476D01*
X106813762Y-88143181D01*
X106794722Y-88299999D01*
X94000000Y-88299999D01*
X94000000Y-86599999D01*
X116762722Y-86599999D01*
X116762722Y-86600000D01*
X116781762Y-86756818D01*
X116823674Y-86867328D01*
X116837780Y-86904523D01*
X116927517Y-87034530D01*
X117045760Y-87139283D01*
X117045762Y-87139284D01*
X117185634Y-87212696D01*
X117339014Y-87250500D01*
X117339015Y-87250500D01*
X117496985Y-87250500D01*
X117650365Y-87212696D01*
X117790240Y-87139283D01*
X117908483Y-87034530D01*
X117998220Y-86904523D01*
X118054237Y-86756818D01*
X118073278Y-86600000D01*
X118062678Y-86512696D01*
X118054237Y-86443181D01*
X118022223Y-86358768D01*
X117998220Y-86295477D01*
X117908483Y-86165470D01*
X117790240Y-86060717D01*
X117790238Y-86060716D01*
X117790237Y-86060715D01*
X117674555Y-85999999D01*
X121644722Y-85999999D01*
X121644722Y-86000000D01*
X121663762Y-86156818D01*
X121716349Y-86295476D01*
X121719780Y-86304523D01*
X121809517Y-86434530D01*
X121927760Y-86539283D01*
X121927762Y-86539284D01*
X122067634Y-86612696D01*
X122221014Y-86650500D01*
X122221015Y-86650500D01*
X122378985Y-86650500D01*
X122532365Y-86612696D01*
X122556557Y-86599999D01*
X122672240Y-86539283D01*
X122790483Y-86434530D01*
X122880220Y-86304523D01*
X122919861Y-86199999D01*
X127144722Y-86199999D01*
X127144722Y-86200000D01*
X127163762Y-86356818D01*
X127195038Y-86439284D01*
X127219780Y-86504523D01*
X127309517Y-86634530D01*
X127427760Y-86739283D01*
X127427762Y-86739284D01*
X127567634Y-86812696D01*
X127721014Y-86850500D01*
X127721015Y-86850500D01*
X127878985Y-86850500D01*
X128032365Y-86812696D01*
X128172240Y-86739283D01*
X128290483Y-86634530D01*
X128380220Y-86504523D01*
X128436237Y-86356818D01*
X128455278Y-86200000D01*
X128451086Y-86165471D01*
X128436237Y-86043181D01*
X128381935Y-85900000D01*
X128381935Y-85899999D01*
X131644722Y-85899999D01*
X131644722Y-85900000D01*
X131663762Y-86056818D01*
X131713286Y-86187400D01*
X131719780Y-86204523D01*
X131809517Y-86334530D01*
X131927760Y-86439283D01*
X131927762Y-86439284D01*
X132067634Y-86512696D01*
X132221014Y-86550500D01*
X132221015Y-86550500D01*
X132378985Y-86550500D01*
X132532365Y-86512696D01*
X132547937Y-86504523D01*
X132672240Y-86439283D01*
X132790483Y-86334530D01*
X132880220Y-86204523D01*
X132936237Y-86056818D01*
X132955278Y-85900000D01*
X132936237Y-85743182D01*
X132880220Y-85595477D01*
X132790483Y-85465470D01*
X132672240Y-85360717D01*
X132672238Y-85360716D01*
X132672237Y-85360715D01*
X132608257Y-85327135D01*
X139749500Y-85327135D01*
X139749500Y-86672870D01*
X139749501Y-86672876D01*
X139755908Y-86732483D01*
X139806202Y-86867328D01*
X139806206Y-86867335D01*
X139892452Y-86982544D01*
X139892455Y-86982547D01*
X140007664Y-87068793D01*
X140007671Y-87068797D01*
X140142517Y-87119091D01*
X140142516Y-87119091D01*
X140149444Y-87119835D01*
X140202127Y-87125500D01*
X140997872Y-87125499D01*
X141057483Y-87119091D01*
X141192331Y-87068796D01*
X141307546Y-86982546D01*
X141393796Y-86867331D01*
X141444091Y-86732483D01*
X141450500Y-86672873D01*
X141450499Y-85641228D01*
X141749500Y-85641228D01*
X141749500Y-86358771D01*
X141782182Y-86523074D01*
X141782184Y-86523082D01*
X141846295Y-86677860D01*
X141939373Y-86817162D01*
X142057837Y-86935626D01*
X142128055Y-86982544D01*
X142197137Y-87028703D01*
X142197138Y-87028703D01*
X142197139Y-87028704D01*
X142211204Y-87034530D01*
X142351918Y-87092816D01*
X142516223Y-87125498D01*
X142516228Y-87125499D01*
X142516232Y-87125500D01*
X142516233Y-87125500D01*
X142683768Y-87125500D01*
X142683769Y-87125499D01*
X142848082Y-87092816D01*
X143002863Y-87028703D01*
X143142162Y-86935626D01*
X143260626Y-86817162D01*
X143353703Y-86677863D01*
X143417816Y-86523082D01*
X143450500Y-86358767D01*
X143450500Y-85641233D01*
X143417816Y-85476918D01*
X143355771Y-85327129D01*
X143353704Y-85322139D01*
X143330427Y-85287303D01*
X143293727Y-85232377D01*
X143260626Y-85182837D01*
X143142162Y-85064373D01*
X143002860Y-84971295D01*
X142848082Y-84907184D01*
X142848074Y-84907182D01*
X142683771Y-84874500D01*
X142683767Y-84874500D01*
X142516233Y-84874500D01*
X142516228Y-84874500D01*
X142351925Y-84907182D01*
X142351917Y-84907184D01*
X142197139Y-84971295D01*
X142057837Y-85064373D01*
X141939373Y-85182837D01*
X141846295Y-85322139D01*
X141782184Y-85476917D01*
X141782182Y-85476925D01*
X141749500Y-85641228D01*
X141450499Y-85641228D01*
X141450499Y-85327128D01*
X141444091Y-85267517D01*
X141430984Y-85232376D01*
X141393797Y-85132671D01*
X141393793Y-85132664D01*
X141307547Y-85017455D01*
X141307544Y-85017452D01*
X141192335Y-84931206D01*
X141192328Y-84931202D01*
X141057482Y-84880908D01*
X141057483Y-84880908D01*
X140997883Y-84874501D01*
X140997881Y-84874500D01*
X140997873Y-84874500D01*
X140997864Y-84874500D01*
X140202129Y-84874500D01*
X140202123Y-84874501D01*
X140142516Y-84880908D01*
X140007671Y-84931202D01*
X140007664Y-84931206D01*
X139892455Y-85017452D01*
X139892452Y-85017455D01*
X139806206Y-85132664D01*
X139806202Y-85132671D01*
X139755908Y-85267517D01*
X139750036Y-85322139D01*
X139749501Y-85327123D01*
X139749500Y-85327135D01*
X132608257Y-85327135D01*
X132532365Y-85287303D01*
X132378986Y-85249500D01*
X132378985Y-85249500D01*
X132221015Y-85249500D01*
X132221014Y-85249500D01*
X132067634Y-85287303D01*
X131927762Y-85360715D01*
X131809516Y-85465471D01*
X131719781Y-85595475D01*
X131719780Y-85595476D01*
X131663762Y-85743181D01*
X131644722Y-85899999D01*
X128381935Y-85899999D01*
X128380220Y-85895477D01*
X128290483Y-85765470D01*
X128172240Y-85660717D01*
X128172238Y-85660716D01*
X128172237Y-85660715D01*
X128032365Y-85587303D01*
X127878986Y-85549500D01*
X127878985Y-85549500D01*
X127721015Y-85549500D01*
X127721014Y-85549500D01*
X127567634Y-85587303D01*
X127427762Y-85660715D01*
X127309516Y-85765471D01*
X127219781Y-85895475D01*
X127219780Y-85895476D01*
X127163762Y-86043181D01*
X127144722Y-86199999D01*
X122919861Y-86199999D01*
X122936237Y-86156818D01*
X122955278Y-86000000D01*
X122953737Y-85987304D01*
X122936237Y-85843181D01*
X122898312Y-85743182D01*
X122880220Y-85695477D01*
X122790483Y-85565470D01*
X122672240Y-85460717D01*
X122672238Y-85460716D01*
X122672237Y-85460715D01*
X122532365Y-85387303D01*
X122378986Y-85349500D01*
X122378985Y-85349500D01*
X122221015Y-85349500D01*
X122221014Y-85349500D01*
X122067634Y-85387303D01*
X121927762Y-85460715D01*
X121809516Y-85565471D01*
X121719781Y-85695475D01*
X121719780Y-85695476D01*
X121663762Y-85843181D01*
X121644722Y-85999999D01*
X117674555Y-85999999D01*
X117650365Y-85987303D01*
X117496986Y-85949500D01*
X117496985Y-85949500D01*
X117339015Y-85949500D01*
X117339014Y-85949500D01*
X117185634Y-85987303D01*
X117045762Y-86060715D01*
X116927516Y-86165471D01*
X116837781Y-86295475D01*
X116837780Y-86295476D01*
X116781762Y-86443181D01*
X116762722Y-86599999D01*
X94000000Y-86599999D01*
X94000000Y-85536899D01*
X110964722Y-85536899D01*
X110964722Y-85536900D01*
X110983762Y-85693718D01*
X111010975Y-85765471D01*
X111039780Y-85841423D01*
X111129517Y-85971430D01*
X111247760Y-86076183D01*
X111247762Y-86076184D01*
X111387634Y-86149596D01*
X111541014Y-86187400D01*
X111541015Y-86187400D01*
X111698985Y-86187400D01*
X111852365Y-86149596D01*
X111992240Y-86076183D01*
X112110483Y-85971430D01*
X112200220Y-85841423D01*
X112256237Y-85693718D01*
X112275278Y-85536900D01*
X112256237Y-85380082D01*
X112200220Y-85232377D01*
X112110483Y-85102370D01*
X111992240Y-84997617D01*
X111992238Y-84997616D01*
X111992237Y-84997615D01*
X111852365Y-84924203D01*
X111698986Y-84886400D01*
X111698985Y-84886400D01*
X111541015Y-84886400D01*
X111541014Y-84886400D01*
X111387634Y-84924203D01*
X111247762Y-84997615D01*
X111129516Y-85102371D01*
X111039781Y-85232375D01*
X111039780Y-85232376D01*
X110983762Y-85380081D01*
X110964722Y-85536899D01*
X94000000Y-85536899D01*
X94000000Y-82994999D01*
X102826722Y-82994999D01*
X102826722Y-82995000D01*
X102845762Y-83151818D01*
X102901780Y-83299523D01*
X102991517Y-83429530D01*
X103109760Y-83534283D01*
X103109762Y-83534284D01*
X103249634Y-83607696D01*
X103403014Y-83645500D01*
X103403015Y-83645500D01*
X103560985Y-83645500D01*
X103714365Y-83607696D01*
X103854240Y-83534283D01*
X103892939Y-83499999D01*
X129744722Y-83499999D01*
X129744722Y-83500000D01*
X129763762Y-83656818D01*
X129816250Y-83795216D01*
X129819780Y-83804523D01*
X129909517Y-83934530D01*
X130027760Y-84039283D01*
X130167635Y-84112696D01*
X130281469Y-84140752D01*
X130303536Y-84146192D01*
X130363916Y-84181348D01*
X130395705Y-84243567D01*
X130389803Y-84310559D01*
X130356763Y-84397678D01*
X130356763Y-84397680D01*
X130337722Y-84554499D01*
X130337722Y-84554500D01*
X130356762Y-84711318D01*
X130412780Y-84859023D01*
X130502517Y-84989030D01*
X130620760Y-85093783D01*
X130620762Y-85093784D01*
X130760634Y-85167196D01*
X130914014Y-85205000D01*
X130914015Y-85205000D01*
X131071985Y-85205000D01*
X131225365Y-85167196D01*
X131291146Y-85132671D01*
X131365240Y-85093783D01*
X131483483Y-84989030D01*
X131573220Y-84859023D01*
X131629237Y-84711318D01*
X131648278Y-84554500D01*
X131629237Y-84397682D01*
X131629236Y-84397680D01*
X131607992Y-84341664D01*
X131573220Y-84249977D01*
X131483483Y-84119970D01*
X131365240Y-84015217D01*
X131365238Y-84015216D01*
X131365237Y-84015215D01*
X131225366Y-83941804D01*
X131089463Y-83908307D01*
X131029082Y-83873151D01*
X130997294Y-83810931D01*
X131003195Y-83743940D01*
X131036237Y-83656818D01*
X131055278Y-83500000D01*
X131046722Y-83429530D01*
X131036237Y-83343181D01*
X131014992Y-83287164D01*
X130981935Y-83199999D01*
X140444722Y-83199999D01*
X140444722Y-83200000D01*
X140463762Y-83356818D01*
X140518064Y-83499999D01*
X140519780Y-83504523D01*
X140609517Y-83634530D01*
X140727760Y-83739283D01*
X140727762Y-83739284D01*
X140867634Y-83812696D01*
X141021014Y-83850500D01*
X141021015Y-83850500D01*
X141178985Y-83850500D01*
X141332365Y-83812696D01*
X141421064Y-83766143D01*
X141489572Y-83752417D01*
X141554625Y-83777909D01*
X141571706Y-83795956D01*
X141572543Y-83795216D01*
X141577512Y-83800825D01*
X141577515Y-83800828D01*
X141577517Y-83800830D01*
X141695760Y-83905583D01*
X141695762Y-83905584D01*
X141835634Y-83978996D01*
X141989014Y-84016800D01*
X141989015Y-84016800D01*
X142146985Y-84016800D01*
X142300365Y-83978996D01*
X142440240Y-83905583D01*
X142558483Y-83800830D01*
X142648220Y-83670823D01*
X142704237Y-83523118D01*
X142723278Y-83366300D01*
X142704237Y-83209482D01*
X142698925Y-83195476D01*
X142666275Y-83109384D01*
X142648220Y-83061777D01*
X142558483Y-82931770D01*
X142440240Y-82827017D01*
X142440238Y-82827016D01*
X142440237Y-82827015D01*
X142300365Y-82753603D01*
X142146986Y-82715800D01*
X142146985Y-82715800D01*
X141989015Y-82715800D01*
X141989014Y-82715800D01*
X141835635Y-82753603D01*
X141746935Y-82800157D01*
X141678427Y-82813881D01*
X141613374Y-82788389D01*
X141596291Y-82770345D01*
X141595457Y-82771084D01*
X141590487Y-82765474D01*
X141590483Y-82765471D01*
X141590483Y-82765470D01*
X141472240Y-82660717D01*
X141472238Y-82660716D01*
X141472237Y-82660715D01*
X141332365Y-82587303D01*
X141178986Y-82549500D01*
X141178985Y-82549500D01*
X141021015Y-82549500D01*
X141021014Y-82549500D01*
X140867634Y-82587303D01*
X140727762Y-82660715D01*
X140609516Y-82765471D01*
X140519781Y-82895475D01*
X140519780Y-82895476D01*
X140463762Y-83043181D01*
X140444722Y-83199999D01*
X130981935Y-83199999D01*
X130980220Y-83195477D01*
X130890483Y-83065470D01*
X130772240Y-82960717D01*
X130772238Y-82960716D01*
X130772237Y-82960715D01*
X130632365Y-82887303D01*
X130478986Y-82849500D01*
X130478985Y-82849500D01*
X130321015Y-82849500D01*
X130321014Y-82849500D01*
X130167634Y-82887303D01*
X130027762Y-82960715D01*
X129909516Y-83065471D01*
X129819781Y-83195475D01*
X129819780Y-83195476D01*
X129763762Y-83343181D01*
X129744722Y-83499999D01*
X103892939Y-83499999D01*
X103972483Y-83429530D01*
X104062220Y-83299523D01*
X104118237Y-83151818D01*
X104137278Y-82995000D01*
X104124202Y-82887304D01*
X104118237Y-82838181D01*
X104092510Y-82770345D01*
X104062220Y-82690477D01*
X103972483Y-82560470D01*
X103854240Y-82455717D01*
X103854238Y-82455716D01*
X103854237Y-82455715D01*
X103714365Y-82382303D01*
X103560986Y-82344500D01*
X103560985Y-82344500D01*
X103403015Y-82344500D01*
X103403014Y-82344500D01*
X103249634Y-82382303D01*
X103109762Y-82455715D01*
X102991516Y-82560471D01*
X102901781Y-82690475D01*
X102901780Y-82690476D01*
X102845762Y-82838181D01*
X102826722Y-82994999D01*
X94000000Y-82994999D01*
X94000000Y-82305699D01*
X114044722Y-82305699D01*
X114044722Y-82305700D01*
X114063762Y-82462518D01*
X114111088Y-82587304D01*
X114119780Y-82610223D01*
X114209517Y-82740230D01*
X114327760Y-82844983D01*
X114327762Y-82844984D01*
X114467634Y-82918396D01*
X114621014Y-82956200D01*
X114621015Y-82956200D01*
X114778985Y-82956200D01*
X114932365Y-82918396D01*
X114976035Y-82895476D01*
X115072240Y-82844983D01*
X115190483Y-82740230D01*
X115280220Y-82610223D01*
X115295437Y-82570099D01*
X117685722Y-82570099D01*
X117685722Y-82570100D01*
X117704762Y-82726918D01*
X117742725Y-82827017D01*
X117760780Y-82874623D01*
X117850517Y-83004630D01*
X117968760Y-83109383D01*
X117968762Y-83109384D01*
X118108634Y-83182796D01*
X118262014Y-83220600D01*
X118262015Y-83220600D01*
X118419985Y-83220600D01*
X118573365Y-83182796D01*
X118713240Y-83109383D01*
X118831483Y-83004630D01*
X118921220Y-82874623D01*
X118977237Y-82726918D01*
X118996278Y-82570100D01*
X118977237Y-82413282D01*
X118972882Y-82401800D01*
X118951151Y-82344500D01*
X118921220Y-82265577D01*
X118831483Y-82135570D01*
X118807247Y-82114099D01*
X123733722Y-82114099D01*
X123733722Y-82114100D01*
X123752762Y-82270918D01*
X123795006Y-82382304D01*
X123808780Y-82418623D01*
X123898517Y-82548630D01*
X124016760Y-82653383D01*
X124016762Y-82653384D01*
X124156634Y-82726796D01*
X124310014Y-82764600D01*
X124310015Y-82764600D01*
X124467985Y-82764600D01*
X124621365Y-82726796D01*
X124690566Y-82690476D01*
X124761240Y-82653383D01*
X124879483Y-82548630D01*
X124969220Y-82418623D01*
X125025237Y-82270918D01*
X125044278Y-82114100D01*
X125034166Y-82030815D01*
X125025237Y-81957281D01*
X124992579Y-81871170D01*
X124969220Y-81809577D01*
X124928994Y-81751299D01*
X137036722Y-81751299D01*
X137036722Y-81751300D01*
X137055762Y-81908118D01*
X137095424Y-82012696D01*
X137111780Y-82055823D01*
X137201517Y-82185830D01*
X137319760Y-82290583D01*
X137319762Y-82290584D01*
X137459634Y-82363996D01*
X137613014Y-82401800D01*
X137613015Y-82401800D01*
X137770985Y-82401800D01*
X137924365Y-82363996D01*
X137961511Y-82344500D01*
X138064240Y-82290583D01*
X138182483Y-82185830D01*
X138272220Y-82055823D01*
X138328237Y-81908118D01*
X138336812Y-81837499D01*
X143165722Y-81837499D01*
X143165722Y-81837500D01*
X143184762Y-81994318D01*
X143208089Y-82055824D01*
X143240780Y-82142023D01*
X143330517Y-82272030D01*
X143448760Y-82376783D01*
X143448762Y-82376784D01*
X143588634Y-82450196D01*
X143742014Y-82488000D01*
X143742015Y-82488000D01*
X143899985Y-82488000D01*
X144053365Y-82450196D01*
X144193240Y-82376783D01*
X144311483Y-82272030D01*
X144401220Y-82142023D01*
X144457237Y-81994318D01*
X144476278Y-81837500D01*
X144475918Y-81834530D01*
X144457237Y-81680681D01*
X144435992Y-81624664D01*
X144401220Y-81532977D01*
X144311483Y-81402970D01*
X144193240Y-81298217D01*
X144193238Y-81298216D01*
X144193237Y-81298215D01*
X144053365Y-81224803D01*
X143899986Y-81187000D01*
X143899985Y-81187000D01*
X143742015Y-81187000D01*
X143742014Y-81187000D01*
X143588634Y-81224803D01*
X143448762Y-81298215D01*
X143394889Y-81345942D01*
X143333870Y-81400000D01*
X143330516Y-81402971D01*
X143240781Y-81532975D01*
X143240780Y-81532976D01*
X143184762Y-81680681D01*
X143165722Y-81837499D01*
X138336812Y-81837499D01*
X138347278Y-81751300D01*
X138341599Y-81704524D01*
X138328237Y-81594481D01*
X138304911Y-81532976D01*
X138272220Y-81446777D01*
X138182483Y-81316770D01*
X138064240Y-81212017D01*
X138064238Y-81212016D01*
X138064237Y-81212015D01*
X137924365Y-81138603D01*
X137770986Y-81100800D01*
X137770985Y-81100800D01*
X137613015Y-81100800D01*
X137613014Y-81100800D01*
X137459634Y-81138603D01*
X137319762Y-81212015D01*
X137269521Y-81256524D01*
X137222462Y-81298215D01*
X137201516Y-81316771D01*
X137111781Y-81446775D01*
X137111780Y-81446776D01*
X137055762Y-81594481D01*
X137036722Y-81751299D01*
X124928994Y-81751299D01*
X124879483Y-81679570D01*
X124761240Y-81574817D01*
X124761238Y-81574816D01*
X124761237Y-81574815D01*
X124621365Y-81501403D01*
X124467986Y-81463600D01*
X124467985Y-81463600D01*
X124310015Y-81463600D01*
X124310014Y-81463600D01*
X124156634Y-81501403D01*
X124016762Y-81574815D01*
X123898516Y-81679571D01*
X123808781Y-81809575D01*
X123808780Y-81809576D01*
X123752762Y-81957281D01*
X123733722Y-82114099D01*
X118807247Y-82114099D01*
X118713240Y-82030817D01*
X118713238Y-82030816D01*
X118713237Y-82030815D01*
X118573365Y-81957403D01*
X118419986Y-81919600D01*
X118419985Y-81919600D01*
X118262015Y-81919600D01*
X118262014Y-81919600D01*
X118108634Y-81957403D01*
X117968762Y-82030815D01*
X117850516Y-82135571D01*
X117760781Y-82265575D01*
X117760780Y-82265576D01*
X117704762Y-82413281D01*
X117685722Y-82570099D01*
X115295437Y-82570099D01*
X115336237Y-82462518D01*
X115355278Y-82305700D01*
X115353443Y-82290583D01*
X115336237Y-82148881D01*
X115300944Y-82055823D01*
X115280220Y-82001177D01*
X115190483Y-81871170D01*
X115072240Y-81766417D01*
X115072238Y-81766416D01*
X115072237Y-81766415D01*
X114932365Y-81693003D01*
X114778986Y-81655200D01*
X114778985Y-81655200D01*
X114621015Y-81655200D01*
X114621014Y-81655200D01*
X114467634Y-81693003D01*
X114327762Y-81766415D01*
X114209516Y-81871171D01*
X114119781Y-82001175D01*
X114119780Y-82001176D01*
X114063762Y-82148881D01*
X114044722Y-82305699D01*
X94000000Y-82305699D01*
X94000000Y-80599999D01*
X98044722Y-80599999D01*
X98044722Y-80600000D01*
X98063762Y-80756818D01*
X98119780Y-80904523D01*
X98209517Y-81034530D01*
X98327760Y-81139283D01*
X98327762Y-81139284D01*
X98467634Y-81212696D01*
X98621014Y-81250500D01*
X98621015Y-81250500D01*
X98778985Y-81250500D01*
X98932365Y-81212696D01*
X98986034Y-81184528D01*
X99072240Y-81139283D01*
X99190483Y-81034530D01*
X99280220Y-80904523D01*
X99336237Y-80756818D01*
X99355278Y-80600000D01*
X99336516Y-80445475D01*
X99336237Y-80443181D01*
X99295493Y-80335749D01*
X99280220Y-80295477D01*
X99279890Y-80294999D01*
X102826722Y-80294999D01*
X102826722Y-80295000D01*
X102845762Y-80451818D01*
X102895925Y-80584085D01*
X102901780Y-80599523D01*
X102991517Y-80729530D01*
X103109760Y-80834283D01*
X103121860Y-80840633D01*
X103249634Y-80907696D01*
X103403014Y-80945500D01*
X103403015Y-80945500D01*
X103560985Y-80945500D01*
X103714365Y-80907696D01*
X103720411Y-80904523D01*
X103854240Y-80834283D01*
X103972483Y-80729530D01*
X104037224Y-80635735D01*
X104091506Y-80591745D01*
X104160955Y-80584085D01*
X104223520Y-80615188D01*
X104241324Y-80635735D01*
X104309517Y-80734530D01*
X104427760Y-80839283D01*
X104427762Y-80839284D01*
X104567634Y-80912696D01*
X104721014Y-80950500D01*
X104721015Y-80950500D01*
X104878985Y-80950500D01*
X105032365Y-80912696D01*
X105131401Y-80860717D01*
X105172240Y-80839283D01*
X105290483Y-80734530D01*
X105380220Y-80604523D01*
X105436237Y-80456818D01*
X105455278Y-80300000D01*
X105436237Y-80143182D01*
X105434340Y-80138181D01*
X105404961Y-80060715D01*
X105380220Y-79995477D01*
X105290483Y-79865470D01*
X105172240Y-79760717D01*
X105172238Y-79760716D01*
X105172237Y-79760715D01*
X105032365Y-79687303D01*
X104878986Y-79649500D01*
X104878985Y-79649500D01*
X104721015Y-79649500D01*
X104721014Y-79649500D01*
X104567634Y-79687303D01*
X104427762Y-79760715D01*
X104329882Y-79847428D01*
X104309517Y-79865470D01*
X104296362Y-79884528D01*
X104244775Y-79959265D01*
X104190492Y-80003255D01*
X104121043Y-80010914D01*
X104058478Y-79979810D01*
X104040675Y-79959264D01*
X104035787Y-79952183D01*
X103972483Y-79860470D01*
X103854240Y-79755717D01*
X103854238Y-79755716D01*
X103854237Y-79755715D01*
X103714365Y-79682303D01*
X103560986Y-79644500D01*
X103560985Y-79644500D01*
X103403015Y-79644500D01*
X103403014Y-79644500D01*
X103249634Y-79682303D01*
X103109762Y-79755715D01*
X102991516Y-79860471D01*
X102901781Y-79990475D01*
X102901780Y-79990476D01*
X102845762Y-80138181D01*
X102826722Y-80294999D01*
X99279890Y-80294999D01*
X99190483Y-80165470D01*
X99072240Y-80060717D01*
X99072238Y-80060716D01*
X99072237Y-80060715D01*
X98932365Y-79987303D01*
X98778986Y-79949500D01*
X98778985Y-79949500D01*
X98621015Y-79949500D01*
X98621014Y-79949500D01*
X98467634Y-79987303D01*
X98327762Y-80060715D01*
X98209516Y-80165471D01*
X98119781Y-80295475D01*
X98119780Y-80295476D01*
X98063762Y-80443181D01*
X98044722Y-80599999D01*
X94000000Y-80599999D01*
X94000000Y-79499999D01*
X107944722Y-79499999D01*
X107944722Y-79500000D01*
X107963762Y-79656818D01*
X108019780Y-79804523D01*
X108109517Y-79934530D01*
X108227760Y-80039283D01*
X108227762Y-80039284D01*
X108374276Y-80116182D01*
X108372709Y-80119166D01*
X108416386Y-80152241D01*
X108440439Y-80217840D01*
X108425209Y-80286029D01*
X108375530Y-80335160D01*
X108374239Y-80335749D01*
X108374276Y-80335818D01*
X108227762Y-80412715D01*
X108109516Y-80517471D01*
X108019781Y-80647475D01*
X108019780Y-80647476D01*
X107963762Y-80795181D01*
X107944722Y-80951999D01*
X107944722Y-80952000D01*
X107963762Y-81108818D01*
X108014720Y-81243181D01*
X108019780Y-81256523D01*
X108109517Y-81386530D01*
X108227760Y-81491283D01*
X108227762Y-81491284D01*
X108367634Y-81564696D01*
X108521014Y-81602500D01*
X108521015Y-81602500D01*
X108678985Y-81602500D01*
X108832365Y-81564696D01*
X108847375Y-81556818D01*
X108972240Y-81491283D01*
X109090483Y-81386530D01*
X109180220Y-81256523D01*
X109236237Y-81108818D01*
X109255278Y-80952000D01*
X109249514Y-80904524D01*
X109236237Y-80795181D01*
X109219101Y-80749999D01*
X120331722Y-80749999D01*
X120331722Y-80750000D01*
X120350762Y-80906818D01*
X120399197Y-81034528D01*
X120406780Y-81054523D01*
X120496517Y-81184530D01*
X120614760Y-81289283D01*
X120614762Y-81289284D01*
X120754634Y-81362696D01*
X120908014Y-81400500D01*
X120908015Y-81400500D01*
X121065983Y-81400500D01*
X121065985Y-81400500D01*
X121103688Y-81391207D01*
X121173489Y-81394276D01*
X121230551Y-81434596D01*
X121256458Y-81496657D01*
X121263763Y-81556819D01*
X121278047Y-81594482D01*
X121319780Y-81704523D01*
X121409517Y-81834530D01*
X121527760Y-81939283D01*
X121527762Y-81939284D01*
X121667634Y-82012696D01*
X121821014Y-82050500D01*
X121821015Y-82050500D01*
X121978985Y-82050500D01*
X122132365Y-82012696D01*
X122167381Y-81994318D01*
X122272240Y-81939283D01*
X122390483Y-81834530D01*
X122480220Y-81704523D01*
X122536237Y-81556818D01*
X122555278Y-81400000D01*
X122553643Y-81386530D01*
X122536237Y-81243181D01*
X122513993Y-81184528D01*
X122480220Y-81095477D01*
X122390483Y-80965470D01*
X122272240Y-80860717D01*
X122272238Y-80860716D01*
X122272237Y-80860715D01*
X122132365Y-80787303D01*
X121978986Y-80749500D01*
X121978985Y-80749500D01*
X121821015Y-80749500D01*
X121821009Y-80749500D01*
X121783309Y-80758792D01*
X121713507Y-80755722D01*
X121656446Y-80715401D01*
X121630541Y-80653340D01*
X121629829Y-80647477D01*
X121623237Y-80593182D01*
X121567220Y-80445477D01*
X121477483Y-80315470D01*
X121359240Y-80210717D01*
X121359238Y-80210716D01*
X121359237Y-80210715D01*
X121219365Y-80137303D01*
X121065986Y-80099500D01*
X121065985Y-80099500D01*
X120908015Y-80099500D01*
X120908014Y-80099500D01*
X120754634Y-80137303D01*
X120614762Y-80210715D01*
X120496516Y-80315471D01*
X120406781Y-80445475D01*
X120406780Y-80445476D01*
X120350762Y-80593181D01*
X120331722Y-80749999D01*
X109219101Y-80749999D01*
X109213234Y-80734528D01*
X109180220Y-80647477D01*
X109090483Y-80517470D01*
X108972240Y-80412717D01*
X108972238Y-80412716D01*
X108972237Y-80412715D01*
X108825724Y-80335818D01*
X108827341Y-80332735D01*
X108784030Y-80300319D01*
X108759608Y-80234857D01*
X108774454Y-80166583D01*
X108823855Y-80117173D01*
X108825782Y-80116292D01*
X108825724Y-80116182D01*
X108926289Y-80063400D01*
X108972240Y-80039283D01*
X109090483Y-79934530D01*
X109180220Y-79804523D01*
X109236237Y-79656818D01*
X109255278Y-79500000D01*
X109244702Y-79412899D01*
X125946722Y-79412899D01*
X125946722Y-79412900D01*
X125965762Y-79569718D01*
X126008461Y-79682303D01*
X126021780Y-79717423D01*
X126111517Y-79847430D01*
X126229760Y-79952183D01*
X126229762Y-79952184D01*
X126369634Y-80025596D01*
X126523014Y-80063400D01*
X126523015Y-80063400D01*
X126680985Y-80063400D01*
X126834365Y-80025596D01*
X126862339Y-80010914D01*
X126974240Y-79952183D01*
X127092483Y-79847430D01*
X127182220Y-79717423D01*
X127238237Y-79569718D01*
X127252773Y-79449999D01*
X129418722Y-79449999D01*
X129418722Y-79450000D01*
X129437762Y-79606818D01*
X129468287Y-79687304D01*
X129493780Y-79754523D01*
X129583517Y-79884530D01*
X129701760Y-79989283D01*
X129701762Y-79989284D01*
X129841634Y-80062696D01*
X129995014Y-80100500D01*
X129995015Y-80100500D01*
X130152985Y-80100500D01*
X130306365Y-80062696D01*
X130377052Y-80025596D01*
X130446240Y-79989283D01*
X130564483Y-79884530D01*
X130654220Y-79754523D01*
X130710237Y-79606818D01*
X130723207Y-79499999D01*
X134644722Y-79499999D01*
X134644722Y-79500000D01*
X134663762Y-79656818D01*
X134719780Y-79804523D01*
X134809517Y-79934530D01*
X134927760Y-80039283D01*
X134927762Y-80039284D01*
X135067634Y-80112696D01*
X135221014Y-80150500D01*
X135221015Y-80150500D01*
X135378985Y-80150500D01*
X135532365Y-80112696D01*
X135555602Y-80100500D01*
X135672240Y-80039283D01*
X135790483Y-79934530D01*
X135880220Y-79804523D01*
X135936237Y-79656818D01*
X135955278Y-79500000D01*
X135936237Y-79343182D01*
X135880220Y-79195477D01*
X135790483Y-79065470D01*
X135672240Y-78960717D01*
X135672238Y-78960716D01*
X135672237Y-78960715D01*
X135532365Y-78887303D01*
X135378986Y-78849500D01*
X135378985Y-78849500D01*
X135221015Y-78849500D01*
X135221014Y-78849500D01*
X135067634Y-78887303D01*
X134927762Y-78960715D01*
X134809516Y-79065471D01*
X134719781Y-79195475D01*
X134719780Y-79195476D01*
X134663762Y-79343181D01*
X134644722Y-79499999D01*
X130723207Y-79499999D01*
X130729278Y-79450000D01*
X130710237Y-79293182D01*
X130696166Y-79256081D01*
X130673182Y-79195476D01*
X130654220Y-79145477D01*
X130564483Y-79015470D01*
X130446240Y-78910717D01*
X130446238Y-78910716D01*
X130446237Y-78910715D01*
X130306365Y-78837303D01*
X130152986Y-78799500D01*
X130152985Y-78799500D01*
X129995015Y-78799500D01*
X129995014Y-78799500D01*
X129841634Y-78837303D01*
X129701762Y-78910715D01*
X129583516Y-79015471D01*
X129493781Y-79145475D01*
X129493780Y-79145476D01*
X129437762Y-79293181D01*
X129418722Y-79449999D01*
X127252773Y-79449999D01*
X127257278Y-79412900D01*
X127238237Y-79256082D01*
X127182220Y-79108377D01*
X127092483Y-78978370D01*
X126974240Y-78873617D01*
X126974238Y-78873616D01*
X126974237Y-78873615D01*
X126834365Y-78800203D01*
X126680986Y-78762400D01*
X126680985Y-78762400D01*
X126523015Y-78762400D01*
X126523014Y-78762400D01*
X126369634Y-78800203D01*
X126229762Y-78873615D01*
X126111516Y-78978371D01*
X126021781Y-79108375D01*
X126021780Y-79108376D01*
X125965762Y-79256081D01*
X125946722Y-79412899D01*
X109244702Y-79412899D01*
X109236237Y-79343182D01*
X109180220Y-79195477D01*
X109090483Y-79065470D01*
X108972240Y-78960717D01*
X108972238Y-78960716D01*
X108972237Y-78960715D01*
X108832365Y-78887303D01*
X108678986Y-78849500D01*
X108678985Y-78849500D01*
X108521015Y-78849500D01*
X108521014Y-78849500D01*
X108367634Y-78887303D01*
X108227762Y-78960715D01*
X108109516Y-79065471D01*
X108019781Y-79195475D01*
X108019780Y-79195476D01*
X107963762Y-79343181D01*
X107944722Y-79499999D01*
X94000000Y-79499999D01*
X94000000Y-77399999D01*
X103744722Y-77399999D01*
X103744722Y-77400000D01*
X103763762Y-77556818D01*
X103805844Y-77667777D01*
X103819780Y-77704523D01*
X103909517Y-77834530D01*
X104027760Y-77939283D01*
X104027762Y-77939284D01*
X104167634Y-78012696D01*
X104321014Y-78050500D01*
X104321015Y-78050500D01*
X104478985Y-78050500D01*
X104632365Y-78012696D01*
X104709332Y-77972300D01*
X104709334Y-77972299D01*
X111860722Y-77972299D01*
X111860722Y-77972300D01*
X111879762Y-78129118D01*
X111881815Y-78134530D01*
X111935780Y-78276823D01*
X112025517Y-78406830D01*
X112143760Y-78511583D01*
X112143762Y-78511584D01*
X112283634Y-78584996D01*
X112437014Y-78622800D01*
X112437015Y-78622800D01*
X112594985Y-78622800D01*
X112748365Y-78584996D01*
X112888240Y-78511583D01*
X113006483Y-78406830D01*
X113096220Y-78276823D01*
X113152237Y-78129118D01*
X113171278Y-77972300D01*
X113152237Y-77815482D01*
X113151180Y-77812696D01*
X113123339Y-77739284D01*
X113096220Y-77667777D01*
X113006483Y-77537770D01*
X112888240Y-77433017D01*
X112888238Y-77433016D01*
X112888237Y-77433015D01*
X112748365Y-77359603D01*
X112594986Y-77321800D01*
X112594985Y-77321800D01*
X112437015Y-77321800D01*
X112437014Y-77321800D01*
X112283634Y-77359603D01*
X112143762Y-77433015D01*
X112025516Y-77537771D01*
X111935781Y-77667775D01*
X111935780Y-77667776D01*
X111879762Y-77815481D01*
X111860722Y-77972299D01*
X104709334Y-77972299D01*
X104772240Y-77939283D01*
X104890483Y-77834530D01*
X104980220Y-77704523D01*
X105036237Y-77556818D01*
X105055278Y-77400000D01*
X105036237Y-77243182D01*
X105019860Y-77199999D01*
X116944722Y-77199999D01*
X116944722Y-77200000D01*
X116963762Y-77356818D01*
X116992661Y-77433017D01*
X117019780Y-77504523D01*
X117109517Y-77634530D01*
X117227760Y-77739283D01*
X117227762Y-77739284D01*
X117367634Y-77812696D01*
X117521014Y-77850500D01*
X117521015Y-77850500D01*
X117678985Y-77850500D01*
X117832365Y-77812696D01*
X117972240Y-77739283D01*
X118016583Y-77699999D01*
X132760722Y-77699999D01*
X132760722Y-77700000D01*
X132779762Y-77856818D01*
X132811038Y-77939284D01*
X132835780Y-78004523D01*
X132925517Y-78134530D01*
X133043760Y-78239283D01*
X133043762Y-78239284D01*
X133183634Y-78312696D01*
X133337014Y-78350500D01*
X133337015Y-78350500D01*
X133494985Y-78350500D01*
X133648365Y-78312696D01*
X133788240Y-78239283D01*
X133906483Y-78134530D01*
X133996220Y-78004523D01*
X134052237Y-77856818D01*
X134071278Y-77700000D01*
X134067366Y-77667777D01*
X134052237Y-77543181D01*
X133997935Y-77400000D01*
X133996220Y-77395477D01*
X133906483Y-77265470D01*
X133832581Y-77199999D01*
X140344722Y-77199999D01*
X140344722Y-77200000D01*
X140363762Y-77356818D01*
X140392661Y-77433017D01*
X140419780Y-77504523D01*
X140509517Y-77634530D01*
X140627760Y-77739283D01*
X140627762Y-77739284D01*
X140767634Y-77812696D01*
X140921014Y-77850500D01*
X140921015Y-77850500D01*
X141078985Y-77850500D01*
X141232365Y-77812696D01*
X141372240Y-77739283D01*
X141490483Y-77634530D01*
X141580220Y-77504523D01*
X141636237Y-77356818D01*
X141655278Y-77200000D01*
X141642587Y-77095475D01*
X141636237Y-77043181D01*
X141606765Y-76965470D01*
X141580220Y-76895477D01*
X141490483Y-76765470D01*
X141372240Y-76660717D01*
X141372238Y-76660716D01*
X141372237Y-76660715D01*
X141232365Y-76587303D01*
X141078986Y-76549500D01*
X141078985Y-76549500D01*
X140921015Y-76549500D01*
X140921014Y-76549500D01*
X140767634Y-76587303D01*
X140627762Y-76660715D01*
X140509516Y-76765471D01*
X140419781Y-76895475D01*
X140419780Y-76895476D01*
X140363762Y-77043181D01*
X140344722Y-77199999D01*
X133832581Y-77199999D01*
X133788240Y-77160717D01*
X133788238Y-77160716D01*
X133788237Y-77160715D01*
X133648365Y-77087303D01*
X133494986Y-77049500D01*
X133494985Y-77049500D01*
X133337015Y-77049500D01*
X133337014Y-77049500D01*
X133183634Y-77087303D01*
X133043762Y-77160715D01*
X132925516Y-77265471D01*
X132835781Y-77395475D01*
X132835780Y-77395476D01*
X132779762Y-77543181D01*
X132760722Y-77699999D01*
X118016583Y-77699999D01*
X118090483Y-77634530D01*
X118180220Y-77504523D01*
X118236237Y-77356818D01*
X118255278Y-77200000D01*
X118242587Y-77095475D01*
X118236237Y-77043181D01*
X118206765Y-76965470D01*
X118180220Y-76895477D01*
X118090483Y-76765470D01*
X117972240Y-76660717D01*
X117972238Y-76660716D01*
X117972237Y-76660715D01*
X117832365Y-76587303D01*
X117678986Y-76549500D01*
X117678985Y-76549500D01*
X117521015Y-76549500D01*
X117521014Y-76549500D01*
X117367634Y-76587303D01*
X117227762Y-76660715D01*
X117109516Y-76765471D01*
X117019781Y-76895475D01*
X117019780Y-76895476D01*
X116963762Y-77043181D01*
X116944722Y-77199999D01*
X105019860Y-77199999D01*
X104980220Y-77095477D01*
X104890483Y-76965470D01*
X104772240Y-76860717D01*
X104772238Y-76860716D01*
X104772237Y-76860715D01*
X104632365Y-76787303D01*
X104478986Y-76749500D01*
X104478985Y-76749500D01*
X104321015Y-76749500D01*
X104321014Y-76749500D01*
X104167634Y-76787303D01*
X104027762Y-76860715D01*
X103909516Y-76965471D01*
X103819781Y-77095475D01*
X103819780Y-77095476D01*
X103763762Y-77243181D01*
X103744722Y-77399999D01*
X94000000Y-77399999D01*
X94000000Y-75798799D01*
X111173722Y-75798799D01*
X111173722Y-75798800D01*
X111192762Y-75955618D01*
X111248780Y-76103323D01*
X111338517Y-76233330D01*
X111456760Y-76338083D01*
X111456762Y-76338084D01*
X111596634Y-76411496D01*
X111750014Y-76449300D01*
X111750015Y-76449300D01*
X111907985Y-76449300D01*
X112061365Y-76411496D01*
X112201240Y-76338083D01*
X112319483Y-76233330D01*
X112409220Y-76103323D01*
X112448406Y-75999999D01*
X122656722Y-75999999D01*
X122656722Y-76000000D01*
X122675762Y-76156818D01*
X122704779Y-76233328D01*
X122731780Y-76304523D01*
X122821517Y-76434530D01*
X122939760Y-76539283D01*
X122939762Y-76539284D01*
X123079634Y-76612696D01*
X123233014Y-76650500D01*
X123233015Y-76650500D01*
X123390985Y-76650500D01*
X123544365Y-76612696D01*
X123684240Y-76539283D01*
X123802483Y-76434530D01*
X123892220Y-76304523D01*
X123948237Y-76156818D01*
X123967278Y-76000000D01*
X123967278Y-75999999D01*
X131319722Y-75999999D01*
X131319722Y-76000000D01*
X131338762Y-76156818D01*
X131367779Y-76233328D01*
X131394780Y-76304523D01*
X131484517Y-76434530D01*
X131602760Y-76539283D01*
X131602762Y-76539284D01*
X131742634Y-76612696D01*
X131896014Y-76650500D01*
X131896015Y-76650500D01*
X132053985Y-76650500D01*
X132207365Y-76612696D01*
X132347240Y-76539283D01*
X132465483Y-76434530D01*
X132555220Y-76304523D01*
X132611237Y-76156818D01*
X132630278Y-76000000D01*
X132630278Y-75999999D01*
X136132722Y-75999999D01*
X136132722Y-76000000D01*
X136151762Y-76156818D01*
X136180779Y-76233328D01*
X136207780Y-76304523D01*
X136297517Y-76434530D01*
X136415760Y-76539283D01*
X136415762Y-76539284D01*
X136555634Y-76612696D01*
X136709014Y-76650500D01*
X136709015Y-76650500D01*
X136866985Y-76650500D01*
X137020365Y-76612696D01*
X137160240Y-76539283D01*
X137278483Y-76434530D01*
X137368220Y-76304523D01*
X137424237Y-76156818D01*
X137443278Y-76000000D01*
X137424237Y-75843182D01*
X137368220Y-75695477D01*
X137278483Y-75565470D01*
X137160240Y-75460717D01*
X137160238Y-75460716D01*
X137160237Y-75460715D01*
X137020365Y-75387303D01*
X136866986Y-75349500D01*
X136866985Y-75349500D01*
X136709015Y-75349500D01*
X136709014Y-75349500D01*
X136555634Y-75387303D01*
X136415762Y-75460715D01*
X136297516Y-75565471D01*
X136207781Y-75695475D01*
X136207780Y-75695476D01*
X136151762Y-75843181D01*
X136132722Y-75999999D01*
X132630278Y-75999999D01*
X132611237Y-75843182D01*
X132555220Y-75695477D01*
X132465483Y-75565470D01*
X132347240Y-75460717D01*
X132347238Y-75460716D01*
X132347237Y-75460715D01*
X132207365Y-75387303D01*
X132053986Y-75349500D01*
X132053985Y-75349500D01*
X131896015Y-75349500D01*
X131896014Y-75349500D01*
X131742634Y-75387303D01*
X131602762Y-75460715D01*
X131484516Y-75565471D01*
X131394781Y-75695475D01*
X131394780Y-75695476D01*
X131338762Y-75843181D01*
X131319722Y-75999999D01*
X123967278Y-75999999D01*
X123948237Y-75843182D01*
X123892220Y-75695477D01*
X123802483Y-75565470D01*
X123684240Y-75460717D01*
X123684238Y-75460716D01*
X123684237Y-75460715D01*
X123544365Y-75387303D01*
X123390986Y-75349500D01*
X123390985Y-75349500D01*
X123233015Y-75349500D01*
X123233014Y-75349500D01*
X123079634Y-75387303D01*
X122939762Y-75460715D01*
X122821516Y-75565471D01*
X122731781Y-75695475D01*
X122731780Y-75695476D01*
X122675762Y-75843181D01*
X122656722Y-75999999D01*
X112448406Y-75999999D01*
X112465237Y-75955618D01*
X112484278Y-75798800D01*
X112471733Y-75695477D01*
X112465237Y-75641981D01*
X112436220Y-75565470D01*
X112409220Y-75494277D01*
X112319483Y-75364270D01*
X112201240Y-75259517D01*
X112201238Y-75259516D01*
X112201237Y-75259515D01*
X112061365Y-75186103D01*
X111907986Y-75148300D01*
X111907985Y-75148300D01*
X111750015Y-75148300D01*
X111750014Y-75148300D01*
X111596634Y-75186103D01*
X111456762Y-75259515D01*
X111338516Y-75364271D01*
X111248781Y-75494275D01*
X111248780Y-75494276D01*
X111192762Y-75641981D01*
X111173722Y-75798799D01*
X94000000Y-75798799D01*
X94000000Y-74499999D01*
X101744722Y-74499999D01*
X101744722Y-74500000D01*
X101763762Y-74656818D01*
X101801688Y-74756818D01*
X101819780Y-74804523D01*
X101909517Y-74934530D01*
X102027760Y-75039283D01*
X102027762Y-75039284D01*
X102167634Y-75112696D01*
X102321014Y-75150500D01*
X102321015Y-75150500D01*
X102478985Y-75150500D01*
X102632365Y-75112696D01*
X102647937Y-75104523D01*
X102772240Y-75039283D01*
X102890483Y-74934530D01*
X102980220Y-74804523D01*
X103036237Y-74656818D01*
X103055278Y-74500000D01*
X103036237Y-74343182D01*
X102980220Y-74195477D01*
X102890483Y-74065470D01*
X102890482Y-74065469D01*
X102886222Y-74059297D01*
X102887610Y-74058338D01*
X102861780Y-74003392D01*
X102870959Y-73934128D01*
X102916128Y-73880822D01*
X102982946Y-73860399D01*
X103029107Y-73868763D01*
X103117544Y-73903024D01*
X103318024Y-73940500D01*
X103318026Y-73940500D01*
X103521974Y-73940500D01*
X103521976Y-73940500D01*
X103722456Y-73903024D01*
X103912637Y-73829348D01*
X104086041Y-73721981D01*
X104236764Y-73584579D01*
X104359673Y-73421821D01*
X104450582Y-73239250D01*
X104506397Y-73043083D01*
X104525215Y-72840000D01*
X104525215Y-72839999D01*
X107394785Y-72839999D01*
X107394785Y-72840000D01*
X107413602Y-73043082D01*
X107469417Y-73239247D01*
X107469422Y-73239260D01*
X107560327Y-73421821D01*
X107683237Y-73584581D01*
X107833958Y-73721980D01*
X107833960Y-73721982D01*
X107933141Y-73783392D01*
X108007363Y-73829348D01*
X108113850Y-73870601D01*
X108197538Y-73903022D01*
X108197544Y-73903024D01*
X108200688Y-73903611D01*
X108202059Y-73904309D01*
X108203051Y-73904591D01*
X108202995Y-73904784D01*
X108262968Y-73935278D01*
X108298242Y-73995590D01*
X108295309Y-74065399D01*
X108255100Y-74122539D01*
X108190382Y-74148870D01*
X108177903Y-74149500D01*
X108121014Y-74149500D01*
X107967634Y-74187303D01*
X107827762Y-74260715D01*
X107709516Y-74365471D01*
X107619781Y-74495475D01*
X107619780Y-74495476D01*
X107563762Y-74643181D01*
X107544722Y-74799999D01*
X107544722Y-74800000D01*
X107563762Y-74956818D01*
X107595038Y-75039284D01*
X107619780Y-75104523D01*
X107709517Y-75234530D01*
X107827760Y-75339283D01*
X107827762Y-75339284D01*
X107967634Y-75412696D01*
X108121014Y-75450500D01*
X108121015Y-75450500D01*
X108278985Y-75450500D01*
X108432365Y-75412696D01*
X108572240Y-75339283D01*
X108690483Y-75234530D01*
X108780220Y-75104523D01*
X108836237Y-74956818D01*
X108855278Y-74800000D01*
X108836237Y-74643182D01*
X108819860Y-74599999D01*
X134244722Y-74599999D01*
X134244722Y-74600000D01*
X134263762Y-74756818D01*
X134281855Y-74804524D01*
X134319780Y-74904523D01*
X134409517Y-75034530D01*
X134527760Y-75139283D01*
X134527762Y-75139284D01*
X134667634Y-75212696D01*
X134821014Y-75250500D01*
X134821015Y-75250500D01*
X134978985Y-75250500D01*
X135132365Y-75212696D01*
X135183033Y-75186103D01*
X135272240Y-75139283D01*
X135390483Y-75034530D01*
X135480220Y-74904523D01*
X135536237Y-74756818D01*
X135555278Y-74600000D01*
X135542587Y-74495475D01*
X135536237Y-74443181D01*
X135498312Y-74343182D01*
X135480220Y-74295477D01*
X135390483Y-74165470D01*
X135272240Y-74060717D01*
X135272238Y-74060716D01*
X135272237Y-74060715D01*
X135132365Y-73987303D01*
X134978986Y-73949500D01*
X134978985Y-73949500D01*
X134821015Y-73949500D01*
X134821014Y-73949500D01*
X134667634Y-73987303D01*
X134527762Y-74060715D01*
X134527760Y-74060717D01*
X134427271Y-74149742D01*
X134409516Y-74165471D01*
X134319781Y-74295475D01*
X134319780Y-74295476D01*
X134263762Y-74443181D01*
X134244722Y-74599999D01*
X108819860Y-74599999D01*
X108780220Y-74495477D01*
X108690483Y-74365470D01*
X108572240Y-74260717D01*
X108572238Y-74260716D01*
X108572237Y-74260715D01*
X108432365Y-74187303D01*
X108422600Y-74184897D01*
X108362219Y-74149742D01*
X108330430Y-74087523D01*
X108337325Y-74017994D01*
X108380716Y-73963231D01*
X108446826Y-73940620D01*
X108452274Y-73940500D01*
X108601974Y-73940500D01*
X108601976Y-73940500D01*
X108802456Y-73903024D01*
X108992637Y-73829348D01*
X109166041Y-73721981D01*
X109316764Y-73584579D01*
X109439673Y-73421821D01*
X109530582Y-73239250D01*
X109586397Y-73043083D01*
X109605215Y-72840000D01*
X109605215Y-72839999D01*
X109934785Y-72839999D01*
X109934785Y-72840000D01*
X109953602Y-73043082D01*
X110009417Y-73239247D01*
X110009422Y-73239260D01*
X110100327Y-73421821D01*
X110223237Y-73584581D01*
X110373958Y-73721980D01*
X110373960Y-73721982D01*
X110473141Y-73783392D01*
X110547363Y-73829348D01*
X110737544Y-73903024D01*
X110938024Y-73940500D01*
X110938026Y-73940500D01*
X111141974Y-73940500D01*
X111141976Y-73940500D01*
X111342456Y-73903024D01*
X111532637Y-73829348D01*
X111706041Y-73721981D01*
X111856764Y-73584579D01*
X111979673Y-73421821D01*
X112070582Y-73239250D01*
X112126397Y-73043083D01*
X112145215Y-72840000D01*
X112145215Y-72839999D01*
X112474785Y-72839999D01*
X112474785Y-72840000D01*
X112493602Y-73043082D01*
X112549417Y-73239247D01*
X112549422Y-73239260D01*
X112640327Y-73421821D01*
X112763237Y-73584581D01*
X112913958Y-73721980D01*
X112913960Y-73721982D01*
X113013141Y-73783392D01*
X113087363Y-73829348D01*
X113277544Y-73903024D01*
X113478024Y-73940500D01*
X113478026Y-73940500D01*
X113681974Y-73940500D01*
X113681976Y-73940500D01*
X113882456Y-73903024D01*
X114072637Y-73829348D01*
X114246041Y-73721981D01*
X114396764Y-73584579D01*
X114519673Y-73421821D01*
X114610582Y-73239250D01*
X114666397Y-73043083D01*
X114685215Y-72840000D01*
X114685215Y-72839999D01*
X115014785Y-72839999D01*
X115014785Y-72840000D01*
X115033602Y-73043082D01*
X115089417Y-73239247D01*
X115089422Y-73239260D01*
X115180327Y-73421821D01*
X115303237Y-73584581D01*
X115453958Y-73721980D01*
X115453960Y-73721982D01*
X115553141Y-73783392D01*
X115627363Y-73829348D01*
X115817544Y-73903024D01*
X116018024Y-73940500D01*
X116018026Y-73940500D01*
X116221974Y-73940500D01*
X116221976Y-73940500D01*
X116422456Y-73903024D01*
X116612637Y-73829348D01*
X116786041Y-73721981D01*
X116936764Y-73584579D01*
X117059673Y-73421821D01*
X117150582Y-73239250D01*
X117206397Y-73043083D01*
X117225215Y-72840000D01*
X117225215Y-72839999D01*
X117554785Y-72839999D01*
X117554785Y-72840000D01*
X117573602Y-73043082D01*
X117629417Y-73239247D01*
X117629422Y-73239260D01*
X117720327Y-73421821D01*
X117843237Y-73584581D01*
X117993958Y-73721980D01*
X117993960Y-73721982D01*
X118093141Y-73783392D01*
X118167363Y-73829348D01*
X118357544Y-73903024D01*
X118558024Y-73940500D01*
X118558026Y-73940500D01*
X118761974Y-73940500D01*
X118761976Y-73940500D01*
X118962456Y-73903024D01*
X119152637Y-73829348D01*
X119326041Y-73721981D01*
X119476764Y-73584579D01*
X119599673Y-73421821D01*
X119690582Y-73239250D01*
X119746397Y-73043083D01*
X119765215Y-72840000D01*
X119765215Y-72839999D01*
X120094785Y-72839999D01*
X120094785Y-72840000D01*
X120113602Y-73043082D01*
X120169417Y-73239247D01*
X120169422Y-73239260D01*
X120260327Y-73421821D01*
X120383237Y-73584581D01*
X120533958Y-73721980D01*
X120533960Y-73721982D01*
X120633141Y-73783392D01*
X120707363Y-73829348D01*
X120897544Y-73903024D01*
X121098024Y-73940500D01*
X121098026Y-73940500D01*
X121301974Y-73940500D01*
X121301976Y-73940500D01*
X121502456Y-73903024D01*
X121692637Y-73829348D01*
X121866041Y-73721981D01*
X122016764Y-73584579D01*
X122139673Y-73421821D01*
X122230582Y-73239250D01*
X122286397Y-73043083D01*
X122305215Y-72840000D01*
X122305215Y-72839999D01*
X122634785Y-72839999D01*
X122634785Y-72840000D01*
X122653602Y-73043082D01*
X122709417Y-73239247D01*
X122709422Y-73239260D01*
X122800327Y-73421821D01*
X122923237Y-73584581D01*
X123073958Y-73721980D01*
X123073960Y-73721982D01*
X123173141Y-73783392D01*
X123247363Y-73829348D01*
X123437544Y-73903024D01*
X123638024Y-73940500D01*
X123638026Y-73940500D01*
X123841974Y-73940500D01*
X123841976Y-73940500D01*
X124042456Y-73903024D01*
X124232637Y-73829348D01*
X124406041Y-73721981D01*
X124556764Y-73584579D01*
X124679673Y-73421821D01*
X124770582Y-73239250D01*
X124826397Y-73043083D01*
X124845215Y-72840000D01*
X124845215Y-72839999D01*
X127714785Y-72839999D01*
X127714785Y-72840000D01*
X127733602Y-73043082D01*
X127789417Y-73239247D01*
X127789422Y-73239260D01*
X127880327Y-73421821D01*
X128003237Y-73584581D01*
X128153958Y-73721980D01*
X128153960Y-73721982D01*
X128253141Y-73783392D01*
X128327363Y-73829348D01*
X128517544Y-73903024D01*
X128718024Y-73940500D01*
X128718026Y-73940500D01*
X128921974Y-73940500D01*
X128921976Y-73940500D01*
X129122456Y-73903024D01*
X129312637Y-73829348D01*
X129486041Y-73721981D01*
X129636764Y-73584579D01*
X129759673Y-73421821D01*
X129850582Y-73239250D01*
X129906397Y-73043083D01*
X129925215Y-72840000D01*
X129925215Y-72839999D01*
X130254785Y-72839999D01*
X130254785Y-72840000D01*
X130273602Y-73043082D01*
X130329417Y-73239247D01*
X130329422Y-73239260D01*
X130420327Y-73421821D01*
X130543237Y-73584581D01*
X130693958Y-73721980D01*
X130693960Y-73721982D01*
X130793141Y-73783392D01*
X130867363Y-73829348D01*
X131057544Y-73903024D01*
X131258024Y-73940500D01*
X131258026Y-73940500D01*
X131461974Y-73940500D01*
X131461976Y-73940500D01*
X131662456Y-73903024D01*
X131852637Y-73829348D01*
X132026041Y-73721981D01*
X132176764Y-73584579D01*
X132299673Y-73421821D01*
X132390582Y-73239250D01*
X132446397Y-73043083D01*
X132465215Y-72840000D01*
X132465215Y-72839999D01*
X132794785Y-72839999D01*
X132794785Y-72840000D01*
X132813602Y-73043082D01*
X132869417Y-73239247D01*
X132869422Y-73239260D01*
X132960327Y-73421821D01*
X133083237Y-73584581D01*
X133233958Y-73721980D01*
X133233960Y-73721982D01*
X133333141Y-73783392D01*
X133407363Y-73829348D01*
X133597544Y-73903024D01*
X133798024Y-73940500D01*
X133798026Y-73940500D01*
X134001974Y-73940500D01*
X134001976Y-73940500D01*
X134202456Y-73903024D01*
X134392637Y-73829348D01*
X134566041Y-73721981D01*
X134716764Y-73584579D01*
X134839673Y-73421821D01*
X134930582Y-73239250D01*
X134986397Y-73043083D01*
X135005215Y-72840000D01*
X135005215Y-72839999D01*
X135334785Y-72839999D01*
X135334785Y-72840000D01*
X135353602Y-73043082D01*
X135409417Y-73239247D01*
X135409422Y-73239260D01*
X135500327Y-73421821D01*
X135623237Y-73584581D01*
X135773958Y-73721980D01*
X135773960Y-73721982D01*
X135873141Y-73783392D01*
X135947363Y-73829348D01*
X136137544Y-73903024D01*
X136338024Y-73940500D01*
X136338026Y-73940500D01*
X136541974Y-73940500D01*
X136541976Y-73940500D01*
X136742456Y-73903024D01*
X136932637Y-73829348D01*
X137106041Y-73721981D01*
X137256764Y-73584579D01*
X137379673Y-73421821D01*
X137470582Y-73239250D01*
X137526397Y-73043083D01*
X137545215Y-72840000D01*
X137545215Y-72839999D01*
X137874785Y-72839999D01*
X137874785Y-72840000D01*
X137893602Y-73043082D01*
X137949417Y-73239247D01*
X137949422Y-73239260D01*
X138040327Y-73421821D01*
X138163237Y-73584581D01*
X138313958Y-73721980D01*
X138313960Y-73721982D01*
X138413141Y-73783392D01*
X138487363Y-73829348D01*
X138677544Y-73903024D01*
X138878024Y-73940500D01*
X138878026Y-73940500D01*
X139081974Y-73940500D01*
X139081976Y-73940500D01*
X139282456Y-73903024D01*
X139472637Y-73829348D01*
X139646041Y-73721981D01*
X139796764Y-73584579D01*
X139919673Y-73421821D01*
X140010582Y-73239250D01*
X140066397Y-73043083D01*
X140085215Y-72840000D01*
X140085215Y-72839999D01*
X140414785Y-72839999D01*
X140414785Y-72840000D01*
X140433602Y-73043082D01*
X140489417Y-73239247D01*
X140489422Y-73239260D01*
X140580327Y-73421821D01*
X140703237Y-73584581D01*
X140853958Y-73721980D01*
X140853960Y-73721982D01*
X140953141Y-73783392D01*
X141027363Y-73829348D01*
X141217544Y-73903024D01*
X141418024Y-73940500D01*
X141418026Y-73940500D01*
X141621974Y-73940500D01*
X141621976Y-73940500D01*
X141822456Y-73903024D01*
X142012637Y-73829348D01*
X142186041Y-73721981D01*
X142336764Y-73584579D01*
X142459673Y-73421821D01*
X142550582Y-73239250D01*
X142606397Y-73043083D01*
X142625215Y-72840000D01*
X142606397Y-72636917D01*
X142550582Y-72440750D01*
X142459673Y-72258179D01*
X142336764Y-72095421D01*
X142336762Y-72095418D01*
X142186041Y-71958019D01*
X142186039Y-71958017D01*
X142012642Y-71850655D01*
X142012635Y-71850651D01*
X141906150Y-71809399D01*
X141822456Y-71776976D01*
X141621976Y-71739500D01*
X141418024Y-71739500D01*
X141217544Y-71776976D01*
X141217541Y-71776976D01*
X141217541Y-71776977D01*
X141027364Y-71850651D01*
X141027357Y-71850655D01*
X140853960Y-71958017D01*
X140853958Y-71958019D01*
X140703237Y-72095418D01*
X140580327Y-72258178D01*
X140489422Y-72440739D01*
X140489417Y-72440752D01*
X140433602Y-72636917D01*
X140414785Y-72839999D01*
X140085215Y-72839999D01*
X140066397Y-72636917D01*
X140010582Y-72440750D01*
X139919673Y-72258179D01*
X139796764Y-72095421D01*
X139796762Y-72095418D01*
X139646041Y-71958019D01*
X139646039Y-71958017D01*
X139472642Y-71850655D01*
X139472635Y-71850651D01*
X139366150Y-71809399D01*
X139282456Y-71776976D01*
X139081976Y-71739500D01*
X138878024Y-71739500D01*
X138677544Y-71776976D01*
X138677541Y-71776976D01*
X138677541Y-71776977D01*
X138487364Y-71850651D01*
X138487357Y-71850655D01*
X138313960Y-71958017D01*
X138313958Y-71958019D01*
X138163237Y-72095418D01*
X138040327Y-72258178D01*
X137949422Y-72440739D01*
X137949417Y-72440752D01*
X137893602Y-72636917D01*
X137874785Y-72839999D01*
X137545215Y-72839999D01*
X137526397Y-72636917D01*
X137470582Y-72440750D01*
X137379673Y-72258179D01*
X137256764Y-72095421D01*
X137256762Y-72095418D01*
X137106041Y-71958019D01*
X137106039Y-71958017D01*
X136932642Y-71850655D01*
X136932635Y-71850651D01*
X136826150Y-71809399D01*
X136742456Y-71776976D01*
X136541976Y-71739500D01*
X136338024Y-71739500D01*
X136137544Y-71776976D01*
X136137541Y-71776976D01*
X136137541Y-71776977D01*
X135947364Y-71850651D01*
X135947357Y-71850655D01*
X135773960Y-71958017D01*
X135773958Y-71958019D01*
X135623237Y-72095418D01*
X135500327Y-72258178D01*
X135409422Y-72440739D01*
X135409417Y-72440752D01*
X135353602Y-72636917D01*
X135334785Y-72839999D01*
X135005215Y-72839999D01*
X134986397Y-72636917D01*
X134930582Y-72440750D01*
X134839673Y-72258179D01*
X134716764Y-72095421D01*
X134716762Y-72095418D01*
X134566041Y-71958019D01*
X134566039Y-71958017D01*
X134392642Y-71850655D01*
X134392635Y-71850651D01*
X134286150Y-71809399D01*
X134202456Y-71776976D01*
X134001976Y-71739500D01*
X133798024Y-71739500D01*
X133597544Y-71776976D01*
X133597541Y-71776976D01*
X133597541Y-71776977D01*
X133407364Y-71850651D01*
X133407357Y-71850655D01*
X133233960Y-71958017D01*
X133233958Y-71958019D01*
X133083237Y-72095418D01*
X132960327Y-72258178D01*
X132869422Y-72440739D01*
X132869417Y-72440752D01*
X132813602Y-72636917D01*
X132794785Y-72839999D01*
X132465215Y-72839999D01*
X132446397Y-72636917D01*
X132390582Y-72440750D01*
X132299673Y-72258179D01*
X132176764Y-72095421D01*
X132176762Y-72095418D01*
X132026041Y-71958019D01*
X132026039Y-71958017D01*
X131852642Y-71850655D01*
X131852635Y-71850651D01*
X131746150Y-71809399D01*
X131662456Y-71776976D01*
X131461976Y-71739500D01*
X131258024Y-71739500D01*
X131057544Y-71776976D01*
X131057541Y-71776976D01*
X131057541Y-71776977D01*
X130867364Y-71850651D01*
X130867357Y-71850655D01*
X130693960Y-71958017D01*
X130693958Y-71958019D01*
X130543237Y-72095418D01*
X130420327Y-72258178D01*
X130329422Y-72440739D01*
X130329417Y-72440752D01*
X130273602Y-72636917D01*
X130254785Y-72839999D01*
X129925215Y-72839999D01*
X129906397Y-72636917D01*
X129850582Y-72440750D01*
X129759673Y-72258179D01*
X129636764Y-72095421D01*
X129636762Y-72095418D01*
X129486041Y-71958019D01*
X129486039Y-71958017D01*
X129312642Y-71850655D01*
X129312635Y-71850651D01*
X129206150Y-71809399D01*
X129122456Y-71776976D01*
X128921976Y-71739500D01*
X128718024Y-71739500D01*
X128517544Y-71776976D01*
X128517541Y-71776976D01*
X128517541Y-71776977D01*
X128327364Y-71850651D01*
X128327357Y-71850655D01*
X128153960Y-71958017D01*
X128153958Y-71958019D01*
X128003237Y-72095418D01*
X127880327Y-72258178D01*
X127789422Y-72440739D01*
X127789417Y-72440752D01*
X127733602Y-72636917D01*
X127714785Y-72839999D01*
X124845215Y-72839999D01*
X124826397Y-72636917D01*
X124770582Y-72440750D01*
X124679673Y-72258179D01*
X124556764Y-72095421D01*
X124556762Y-72095418D01*
X124406041Y-71958019D01*
X124406039Y-71958017D01*
X124232642Y-71850655D01*
X124232635Y-71850651D01*
X124126150Y-71809399D01*
X124042456Y-71776976D01*
X123841976Y-71739500D01*
X123638024Y-71739500D01*
X123437544Y-71776976D01*
X123437541Y-71776976D01*
X123437541Y-71776977D01*
X123247364Y-71850651D01*
X123247357Y-71850655D01*
X123073960Y-71958017D01*
X123073958Y-71958019D01*
X122923237Y-72095418D01*
X122800327Y-72258178D01*
X122709422Y-72440739D01*
X122709417Y-72440752D01*
X122653602Y-72636917D01*
X122634785Y-72839999D01*
X122305215Y-72839999D01*
X122286397Y-72636917D01*
X122230582Y-72440750D01*
X122139673Y-72258179D01*
X122016764Y-72095421D01*
X122016762Y-72095418D01*
X121866041Y-71958019D01*
X121866039Y-71958017D01*
X121692642Y-71850655D01*
X121692635Y-71850651D01*
X121586150Y-71809399D01*
X121502456Y-71776976D01*
X121301976Y-71739500D01*
X121098024Y-71739500D01*
X120897544Y-71776976D01*
X120897541Y-71776976D01*
X120897541Y-71776977D01*
X120707364Y-71850651D01*
X120707357Y-71850655D01*
X120533960Y-71958017D01*
X120533958Y-71958019D01*
X120383237Y-72095418D01*
X120260327Y-72258178D01*
X120169422Y-72440739D01*
X120169417Y-72440752D01*
X120113602Y-72636917D01*
X120094785Y-72839999D01*
X119765215Y-72839999D01*
X119746397Y-72636917D01*
X119690582Y-72440750D01*
X119599673Y-72258179D01*
X119476764Y-72095421D01*
X119476762Y-72095418D01*
X119326041Y-71958019D01*
X119326039Y-71958017D01*
X119152642Y-71850655D01*
X119152635Y-71850651D01*
X119046150Y-71809399D01*
X118962456Y-71776976D01*
X118761976Y-71739500D01*
X118558024Y-71739500D01*
X118357544Y-71776976D01*
X118357541Y-71776976D01*
X118357541Y-71776977D01*
X118167364Y-71850651D01*
X118167357Y-71850655D01*
X117993960Y-71958017D01*
X117993958Y-71958019D01*
X117843237Y-72095418D01*
X117720327Y-72258178D01*
X117629422Y-72440739D01*
X117629417Y-72440752D01*
X117573602Y-72636917D01*
X117554785Y-72839999D01*
X117225215Y-72839999D01*
X117206397Y-72636917D01*
X117150582Y-72440750D01*
X117059673Y-72258179D01*
X116936764Y-72095421D01*
X116936762Y-72095418D01*
X116786041Y-71958019D01*
X116786039Y-71958017D01*
X116612642Y-71850655D01*
X116612635Y-71850651D01*
X116506150Y-71809399D01*
X116422456Y-71776976D01*
X116221976Y-71739500D01*
X116018024Y-71739500D01*
X115817544Y-71776976D01*
X115817541Y-71776976D01*
X115817541Y-71776977D01*
X115627364Y-71850651D01*
X115627357Y-71850655D01*
X115453960Y-71958017D01*
X115453958Y-71958019D01*
X115303237Y-72095418D01*
X115180327Y-72258178D01*
X115089422Y-72440739D01*
X115089417Y-72440752D01*
X115033602Y-72636917D01*
X115014785Y-72839999D01*
X114685215Y-72839999D01*
X114666397Y-72636917D01*
X114610582Y-72440750D01*
X114519673Y-72258179D01*
X114396764Y-72095421D01*
X114396762Y-72095418D01*
X114246041Y-71958019D01*
X114246039Y-71958017D01*
X114072642Y-71850655D01*
X114072635Y-71850651D01*
X113966150Y-71809399D01*
X113882456Y-71776976D01*
X113681976Y-71739500D01*
X113478024Y-71739500D01*
X113277544Y-71776976D01*
X113277541Y-71776976D01*
X113277541Y-71776977D01*
X113087364Y-71850651D01*
X113087357Y-71850655D01*
X112913960Y-71958017D01*
X112913958Y-71958019D01*
X112763237Y-72095418D01*
X112640327Y-72258178D01*
X112549422Y-72440739D01*
X112549417Y-72440752D01*
X112493602Y-72636917D01*
X112474785Y-72839999D01*
X112145215Y-72839999D01*
X112126397Y-72636917D01*
X112070582Y-72440750D01*
X111979673Y-72258179D01*
X111856764Y-72095421D01*
X111856762Y-72095418D01*
X111706041Y-71958019D01*
X111706039Y-71958017D01*
X111532642Y-71850655D01*
X111532635Y-71850651D01*
X111426150Y-71809399D01*
X111342456Y-71776976D01*
X111141976Y-71739500D01*
X110938024Y-71739500D01*
X110737544Y-71776976D01*
X110737541Y-71776976D01*
X110737541Y-71776977D01*
X110547364Y-71850651D01*
X110547357Y-71850655D01*
X110373960Y-71958017D01*
X110373958Y-71958019D01*
X110223237Y-72095418D01*
X110100327Y-72258178D01*
X110009422Y-72440739D01*
X110009417Y-72440752D01*
X109953602Y-72636917D01*
X109934785Y-72839999D01*
X109605215Y-72839999D01*
X109586397Y-72636917D01*
X109530582Y-72440750D01*
X109439673Y-72258179D01*
X109316764Y-72095421D01*
X109316762Y-72095418D01*
X109166041Y-71958019D01*
X109166039Y-71958017D01*
X108992642Y-71850655D01*
X108992635Y-71850651D01*
X108886150Y-71809399D01*
X108802456Y-71776976D01*
X108601976Y-71739500D01*
X108398024Y-71739500D01*
X108197544Y-71776976D01*
X108197541Y-71776976D01*
X108197541Y-71776977D01*
X108007364Y-71850651D01*
X108007357Y-71850655D01*
X107833960Y-71958017D01*
X107833958Y-71958019D01*
X107683237Y-72095418D01*
X107560327Y-72258178D01*
X107469422Y-72440739D01*
X107469417Y-72440752D01*
X107413602Y-72636917D01*
X107394785Y-72839999D01*
X104525215Y-72839999D01*
X104506397Y-72636917D01*
X104450582Y-72440750D01*
X104359673Y-72258179D01*
X104236764Y-72095421D01*
X104236762Y-72095418D01*
X104086041Y-71958019D01*
X104086039Y-71958017D01*
X103912642Y-71850655D01*
X103912635Y-71850651D01*
X103806150Y-71809399D01*
X103722456Y-71776976D01*
X103521976Y-71739500D01*
X103318024Y-71739500D01*
X103117544Y-71776976D01*
X103117541Y-71776976D01*
X103117541Y-71776977D01*
X102927364Y-71850651D01*
X102927357Y-71850655D01*
X102753960Y-71958017D01*
X102753958Y-71958019D01*
X102603237Y-72095418D01*
X102480327Y-72258178D01*
X102389422Y-72440739D01*
X102389417Y-72440752D01*
X102333602Y-72636917D01*
X102314785Y-72839999D01*
X102314785Y-72840000D01*
X102333602Y-73043082D01*
X102389417Y-73239247D01*
X102389422Y-73239260D01*
X102480327Y-73421821D01*
X102603236Y-73584579D01*
X102686838Y-73660792D01*
X102723118Y-73720501D01*
X102721358Y-73790349D01*
X102682115Y-73848157D01*
X102617848Y-73875571D01*
X102573626Y-73872825D01*
X102478988Y-73849500D01*
X102478985Y-73849500D01*
X102321015Y-73849500D01*
X102321014Y-73849500D01*
X102167634Y-73887303D01*
X102027762Y-73960715D01*
X102027760Y-73960717D01*
X101917568Y-74058338D01*
X101909516Y-74065471D01*
X101819781Y-74195475D01*
X101819780Y-74195476D01*
X101763762Y-74343181D01*
X101744722Y-74499999D01*
X94000000Y-74499999D01*
X94000000Y-71965321D01*
X94699500Y-71965321D01*
X94699500Y-73714678D01*
X94714032Y-73787735D01*
X94714033Y-73787739D01*
X94714034Y-73787740D01*
X94769399Y-73870601D01*
X94852260Y-73925966D01*
X94852264Y-73925967D01*
X94925321Y-73940499D01*
X94925324Y-73940500D01*
X94925326Y-73940500D01*
X96674676Y-73940500D01*
X96674677Y-73940499D01*
X96747740Y-73925966D01*
X96830601Y-73870601D01*
X96885966Y-73787740D01*
X96900500Y-73714674D01*
X96900500Y-72839999D01*
X97234785Y-72839999D01*
X97234785Y-72840000D01*
X97253602Y-73043082D01*
X97309417Y-73239247D01*
X97309422Y-73239260D01*
X97400327Y-73421821D01*
X97523237Y-73584581D01*
X97673958Y-73721980D01*
X97673960Y-73721982D01*
X97773141Y-73783392D01*
X97847363Y-73829348D01*
X98037544Y-73903024D01*
X98238024Y-73940500D01*
X98238026Y-73940500D01*
X98441974Y-73940500D01*
X98441976Y-73940500D01*
X98642456Y-73903024D01*
X98832637Y-73829348D01*
X99006041Y-73721981D01*
X99156764Y-73584579D01*
X99279673Y-73421821D01*
X99370582Y-73239250D01*
X99426397Y-73043083D01*
X99445215Y-72840000D01*
X99445215Y-72839999D01*
X99774785Y-72839999D01*
X99774785Y-72840000D01*
X99793602Y-73043082D01*
X99849417Y-73239247D01*
X99849422Y-73239260D01*
X99940327Y-73421821D01*
X100063237Y-73584581D01*
X100213958Y-73721980D01*
X100213960Y-73721982D01*
X100313141Y-73783392D01*
X100387363Y-73829348D01*
X100577544Y-73903024D01*
X100778024Y-73940500D01*
X100778026Y-73940500D01*
X100981974Y-73940500D01*
X100981976Y-73940500D01*
X101182456Y-73903024D01*
X101372637Y-73829348D01*
X101546041Y-73721981D01*
X101696764Y-73584579D01*
X101819673Y-73421821D01*
X101910582Y-73239250D01*
X101966397Y-73043083D01*
X101985215Y-72840000D01*
X101966397Y-72636917D01*
X101910582Y-72440750D01*
X101819673Y-72258179D01*
X101696764Y-72095421D01*
X101696762Y-72095418D01*
X101546041Y-71958019D01*
X101546039Y-71958017D01*
X101372642Y-71850655D01*
X101372635Y-71850651D01*
X101266150Y-71809399D01*
X101182456Y-71776976D01*
X100981976Y-71739500D01*
X100778024Y-71739500D01*
X100577544Y-71776976D01*
X100577541Y-71776976D01*
X100577541Y-71776977D01*
X100387364Y-71850651D01*
X100387357Y-71850655D01*
X100213960Y-71958017D01*
X100213958Y-71958019D01*
X100063237Y-72095418D01*
X99940327Y-72258178D01*
X99849422Y-72440739D01*
X99849417Y-72440752D01*
X99793602Y-72636917D01*
X99774785Y-72839999D01*
X99445215Y-72839999D01*
X99426397Y-72636917D01*
X99370582Y-72440750D01*
X99279673Y-72258179D01*
X99156764Y-72095421D01*
X99156762Y-72095418D01*
X99006041Y-71958019D01*
X99006039Y-71958017D01*
X98832642Y-71850655D01*
X98832635Y-71850651D01*
X98726150Y-71809399D01*
X98642456Y-71776976D01*
X98441976Y-71739500D01*
X98238024Y-71739500D01*
X98037544Y-71776976D01*
X98037541Y-71776976D01*
X98037541Y-71776977D01*
X97847364Y-71850651D01*
X97847357Y-71850655D01*
X97673960Y-71958017D01*
X97673958Y-71958019D01*
X97523237Y-72095418D01*
X97400327Y-72258178D01*
X97309422Y-72440739D01*
X97309417Y-72440752D01*
X97253602Y-72636917D01*
X97234785Y-72839999D01*
X96900500Y-72839999D01*
X96900500Y-71965326D01*
X96900500Y-71965323D01*
X96900499Y-71965321D01*
X96885967Y-71892264D01*
X96885966Y-71892260D01*
X96830601Y-71809399D01*
X96747740Y-71754034D01*
X96747739Y-71754033D01*
X96747735Y-71754032D01*
X96674677Y-71739500D01*
X96674674Y-71739500D01*
X94925326Y-71739500D01*
X94925323Y-71739500D01*
X94852264Y-71754032D01*
X94852260Y-71754033D01*
X94769399Y-71809399D01*
X94714033Y-71892260D01*
X94714032Y-71892264D01*
X94699500Y-71965321D01*
X94000000Y-71965321D01*
X94000000Y-70299999D01*
X94694785Y-70299999D01*
X94694785Y-70300000D01*
X94713602Y-70503082D01*
X94769417Y-70699247D01*
X94769422Y-70699260D01*
X94860327Y-70881821D01*
X94983237Y-71044581D01*
X95133958Y-71181980D01*
X95133960Y-71181982D01*
X95233141Y-71243392D01*
X95307363Y-71289348D01*
X95497544Y-71363024D01*
X95698024Y-71400500D01*
X95698026Y-71400500D01*
X95901974Y-71400500D01*
X95901976Y-71400500D01*
X96102456Y-71363024D01*
X96292637Y-71289348D01*
X96466041Y-71181981D01*
X96616764Y-71044579D01*
X96739673Y-70881821D01*
X96830582Y-70699250D01*
X96886397Y-70503083D01*
X96905215Y-70300000D01*
X96905215Y-70299999D01*
X97234785Y-70299999D01*
X97234785Y-70300000D01*
X97253602Y-70503082D01*
X97309417Y-70699247D01*
X97309422Y-70699260D01*
X97400327Y-70881821D01*
X97523237Y-71044581D01*
X97673958Y-71181980D01*
X97673960Y-71181982D01*
X97773141Y-71243392D01*
X97847363Y-71289348D01*
X98037544Y-71363024D01*
X98238024Y-71400500D01*
X98238026Y-71400500D01*
X98441974Y-71400500D01*
X98441976Y-71400500D01*
X98642456Y-71363024D01*
X98832637Y-71289348D01*
X99006041Y-71181981D01*
X99156764Y-71044579D01*
X99279673Y-70881821D01*
X99370582Y-70699250D01*
X99426397Y-70503083D01*
X99445215Y-70300000D01*
X99445215Y-70299999D01*
X102314785Y-70299999D01*
X102314785Y-70300000D01*
X102333602Y-70503082D01*
X102389417Y-70699247D01*
X102389422Y-70699260D01*
X102480327Y-70881821D01*
X102603237Y-71044581D01*
X102753958Y-71181980D01*
X102753960Y-71181982D01*
X102853141Y-71243392D01*
X102927363Y-71289348D01*
X103117544Y-71363024D01*
X103318024Y-71400500D01*
X103318026Y-71400500D01*
X103521974Y-71400500D01*
X103521976Y-71400500D01*
X103722456Y-71363024D01*
X103912637Y-71289348D01*
X104086041Y-71181981D01*
X104236764Y-71044579D01*
X104359673Y-70881821D01*
X104450582Y-70699250D01*
X104506397Y-70503083D01*
X104525215Y-70300000D01*
X104525215Y-70299999D01*
X104854785Y-70299999D01*
X104854785Y-70300000D01*
X104873602Y-70503082D01*
X104929417Y-70699247D01*
X104929422Y-70699260D01*
X105020327Y-70881821D01*
X105143237Y-71044581D01*
X105293958Y-71181980D01*
X105293960Y-71181982D01*
X105393141Y-71243392D01*
X105467363Y-71289348D01*
X105657544Y-71363024D01*
X105858024Y-71400500D01*
X105858026Y-71400500D01*
X106061974Y-71400500D01*
X106061976Y-71400500D01*
X106262456Y-71363024D01*
X106452637Y-71289348D01*
X106626041Y-71181981D01*
X106776764Y-71044579D01*
X106899673Y-70881821D01*
X106990582Y-70699250D01*
X107046397Y-70503083D01*
X107065215Y-70300000D01*
X107065215Y-70299999D01*
X107394785Y-70299999D01*
X107394785Y-70300000D01*
X107413602Y-70503082D01*
X107469417Y-70699247D01*
X107469422Y-70699260D01*
X107560327Y-70881821D01*
X107683237Y-71044581D01*
X107833958Y-71181980D01*
X107833960Y-71181982D01*
X107933141Y-71243392D01*
X108007363Y-71289348D01*
X108197544Y-71363024D01*
X108398024Y-71400500D01*
X108398026Y-71400500D01*
X108601974Y-71400500D01*
X108601976Y-71400500D01*
X108802456Y-71363024D01*
X108992637Y-71289348D01*
X109166041Y-71181981D01*
X109316764Y-71044579D01*
X109439673Y-70881821D01*
X109530582Y-70699250D01*
X109586397Y-70503083D01*
X109605215Y-70300000D01*
X109605215Y-70299999D01*
X112474785Y-70299999D01*
X112474785Y-70300000D01*
X112493602Y-70503082D01*
X112549417Y-70699247D01*
X112549422Y-70699260D01*
X112640327Y-70881821D01*
X112763237Y-71044581D01*
X112913958Y-71181980D01*
X112913960Y-71181982D01*
X113013141Y-71243392D01*
X113087363Y-71289348D01*
X113277544Y-71363024D01*
X113478024Y-71400500D01*
X113478026Y-71400500D01*
X113681974Y-71400500D01*
X113681976Y-71400500D01*
X113882456Y-71363024D01*
X114072637Y-71289348D01*
X114246041Y-71181981D01*
X114396764Y-71044579D01*
X114519673Y-70881821D01*
X114610582Y-70699250D01*
X114666397Y-70503083D01*
X114685215Y-70300000D01*
X114685215Y-70299999D01*
X115014785Y-70299999D01*
X115014785Y-70300000D01*
X115033602Y-70503082D01*
X115089417Y-70699247D01*
X115089422Y-70699260D01*
X115180327Y-70881821D01*
X115303237Y-71044581D01*
X115453958Y-71181980D01*
X115453960Y-71181982D01*
X115553141Y-71243392D01*
X115627363Y-71289348D01*
X115817544Y-71363024D01*
X116018024Y-71400500D01*
X116018026Y-71400500D01*
X116221974Y-71400500D01*
X116221976Y-71400500D01*
X116422456Y-71363024D01*
X116612637Y-71289348D01*
X116786041Y-71181981D01*
X116936764Y-71044579D01*
X117059673Y-70881821D01*
X117150582Y-70699250D01*
X117206397Y-70503083D01*
X117225215Y-70300000D01*
X117225215Y-70299999D01*
X120094785Y-70299999D01*
X120094785Y-70300000D01*
X120113602Y-70503082D01*
X120169417Y-70699247D01*
X120169422Y-70699260D01*
X120260327Y-70881821D01*
X120383237Y-71044581D01*
X120533958Y-71181980D01*
X120533960Y-71181982D01*
X120633141Y-71243392D01*
X120707363Y-71289348D01*
X120897544Y-71363024D01*
X121098024Y-71400500D01*
X121098026Y-71400500D01*
X121301974Y-71400500D01*
X121301976Y-71400500D01*
X121502456Y-71363024D01*
X121692637Y-71289348D01*
X121866041Y-71181981D01*
X122016764Y-71044579D01*
X122139673Y-70881821D01*
X122230582Y-70699250D01*
X122286397Y-70503083D01*
X122305215Y-70300000D01*
X122305215Y-70299999D01*
X122634785Y-70299999D01*
X122634785Y-70300000D01*
X122653602Y-70503082D01*
X122709417Y-70699247D01*
X122709422Y-70699260D01*
X122800327Y-70881821D01*
X122923237Y-71044581D01*
X123073958Y-71181980D01*
X123073960Y-71181982D01*
X123173141Y-71243392D01*
X123247363Y-71289348D01*
X123437544Y-71363024D01*
X123638024Y-71400500D01*
X123638026Y-71400500D01*
X123841974Y-71400500D01*
X123841976Y-71400500D01*
X124042456Y-71363024D01*
X124232637Y-71289348D01*
X124406041Y-71181981D01*
X124556764Y-71044579D01*
X124679673Y-70881821D01*
X124770582Y-70699250D01*
X124826397Y-70503083D01*
X124845215Y-70300000D01*
X124845215Y-70299999D01*
X125174785Y-70299999D01*
X125174785Y-70300000D01*
X125193602Y-70503082D01*
X125249417Y-70699247D01*
X125249422Y-70699260D01*
X125340327Y-70881821D01*
X125463237Y-71044581D01*
X125613958Y-71181980D01*
X125613960Y-71181982D01*
X125713141Y-71243392D01*
X125787363Y-71289348D01*
X125977544Y-71363024D01*
X126178024Y-71400500D01*
X126178026Y-71400500D01*
X126381974Y-71400500D01*
X126381976Y-71400500D01*
X126582456Y-71363024D01*
X126772637Y-71289348D01*
X126946041Y-71181981D01*
X127096764Y-71044579D01*
X127219673Y-70881821D01*
X127310582Y-70699250D01*
X127366397Y-70503083D01*
X127385215Y-70300000D01*
X127385215Y-70299999D01*
X127714785Y-70299999D01*
X127714785Y-70300000D01*
X127733602Y-70503082D01*
X127789417Y-70699247D01*
X127789422Y-70699260D01*
X127880327Y-70881821D01*
X128003237Y-71044581D01*
X128153958Y-71181980D01*
X128153960Y-71181982D01*
X128253141Y-71243392D01*
X128327363Y-71289348D01*
X128517544Y-71363024D01*
X128718024Y-71400500D01*
X128718026Y-71400500D01*
X128921974Y-71400500D01*
X128921976Y-71400500D01*
X129122456Y-71363024D01*
X129312637Y-71289348D01*
X129486041Y-71181981D01*
X129636764Y-71044579D01*
X129759673Y-70881821D01*
X129850582Y-70699250D01*
X129906397Y-70503083D01*
X129925215Y-70300000D01*
X129925215Y-70299999D01*
X132794785Y-70299999D01*
X132794785Y-70300000D01*
X132813602Y-70503082D01*
X132869417Y-70699247D01*
X132869422Y-70699260D01*
X132960327Y-70881821D01*
X133083237Y-71044581D01*
X133233958Y-71181980D01*
X133233960Y-71181982D01*
X133333141Y-71243392D01*
X133407363Y-71289348D01*
X133597544Y-71363024D01*
X133798024Y-71400500D01*
X133798026Y-71400500D01*
X134001974Y-71400500D01*
X134001976Y-71400500D01*
X134202456Y-71363024D01*
X134392637Y-71289348D01*
X134566041Y-71181981D01*
X134716764Y-71044579D01*
X134839673Y-70881821D01*
X134930582Y-70699250D01*
X134986397Y-70503083D01*
X135005215Y-70300000D01*
X135005215Y-70299999D01*
X137874785Y-70299999D01*
X137874785Y-70300000D01*
X137893602Y-70503082D01*
X137949417Y-70699247D01*
X137949422Y-70699260D01*
X138040327Y-70881821D01*
X138163237Y-71044581D01*
X138313958Y-71181980D01*
X138313960Y-71181982D01*
X138413141Y-71243392D01*
X138487363Y-71289348D01*
X138677544Y-71363024D01*
X138878024Y-71400500D01*
X138878026Y-71400500D01*
X139081974Y-71400500D01*
X139081976Y-71400500D01*
X139282456Y-71363024D01*
X139472637Y-71289348D01*
X139646041Y-71181981D01*
X139796764Y-71044579D01*
X139919673Y-70881821D01*
X140010582Y-70699250D01*
X140066397Y-70503083D01*
X140085215Y-70300000D01*
X140085215Y-70299999D01*
X140414785Y-70299999D01*
X140414785Y-70300000D01*
X140433602Y-70503082D01*
X140489417Y-70699247D01*
X140489422Y-70699260D01*
X140580327Y-70881821D01*
X140703237Y-71044581D01*
X140853958Y-71181980D01*
X140853960Y-71181982D01*
X140953141Y-71243392D01*
X141027363Y-71289348D01*
X141217544Y-71363024D01*
X141418024Y-71400500D01*
X141418026Y-71400500D01*
X141621974Y-71400500D01*
X141621976Y-71400500D01*
X141822456Y-71363024D01*
X142012637Y-71289348D01*
X142186041Y-71181981D01*
X142336764Y-71044579D01*
X142459673Y-70881821D01*
X142550582Y-70699250D01*
X142606397Y-70503083D01*
X142625215Y-70300000D01*
X142625215Y-70299999D01*
X142954785Y-70299999D01*
X142954785Y-70300000D01*
X142973602Y-70503082D01*
X143029417Y-70699247D01*
X143029422Y-70699260D01*
X143120327Y-70881821D01*
X143243237Y-71044581D01*
X143393958Y-71181980D01*
X143393960Y-71181982D01*
X143493141Y-71243392D01*
X143567363Y-71289348D01*
X143757544Y-71363024D01*
X143958024Y-71400500D01*
X143958026Y-71400500D01*
X144161974Y-71400500D01*
X144161976Y-71400500D01*
X144362456Y-71363024D01*
X144552637Y-71289348D01*
X144726041Y-71181981D01*
X144876764Y-71044579D01*
X144999673Y-70881821D01*
X145090582Y-70699250D01*
X145146397Y-70503083D01*
X145165215Y-70300000D01*
X145146397Y-70096917D01*
X145090582Y-69900750D01*
X144999673Y-69718179D01*
X144893356Y-69577392D01*
X144876762Y-69555418D01*
X144726041Y-69418019D01*
X144726039Y-69418017D01*
X144552642Y-69310655D01*
X144552635Y-69310651D01*
X144457546Y-69273814D01*
X144362456Y-69236976D01*
X144161976Y-69199500D01*
X143958024Y-69199500D01*
X143757544Y-69236976D01*
X143757541Y-69236976D01*
X143757541Y-69236977D01*
X143567364Y-69310651D01*
X143567357Y-69310655D01*
X143393960Y-69418017D01*
X143393958Y-69418019D01*
X143243237Y-69555418D01*
X143120327Y-69718178D01*
X143029422Y-69900739D01*
X143029417Y-69900752D01*
X142973602Y-70096917D01*
X142954785Y-70299999D01*
X142625215Y-70299999D01*
X142606397Y-70096917D01*
X142550582Y-69900750D01*
X142459673Y-69718179D01*
X142353356Y-69577392D01*
X142336762Y-69555418D01*
X142186041Y-69418019D01*
X142186039Y-69418017D01*
X142012642Y-69310655D01*
X142012635Y-69310651D01*
X141917546Y-69273814D01*
X141822456Y-69236976D01*
X141621976Y-69199500D01*
X141418024Y-69199500D01*
X141217544Y-69236976D01*
X141217541Y-69236976D01*
X141217541Y-69236977D01*
X141027364Y-69310651D01*
X141027357Y-69310655D01*
X140853960Y-69418017D01*
X140853958Y-69418019D01*
X140703237Y-69555418D01*
X140580327Y-69718178D01*
X140489422Y-69900739D01*
X140489417Y-69900752D01*
X140433602Y-70096917D01*
X140414785Y-70299999D01*
X140085215Y-70299999D01*
X140066397Y-70096917D01*
X140010582Y-69900750D01*
X139919673Y-69718179D01*
X139813356Y-69577392D01*
X139796762Y-69555418D01*
X139646041Y-69418019D01*
X139646039Y-69418017D01*
X139472642Y-69310655D01*
X139472635Y-69310651D01*
X139377546Y-69273814D01*
X139282456Y-69236976D01*
X139081976Y-69199500D01*
X138878024Y-69199500D01*
X138677544Y-69236976D01*
X138677541Y-69236976D01*
X138677541Y-69236977D01*
X138487364Y-69310651D01*
X138487357Y-69310655D01*
X138313960Y-69418017D01*
X138313958Y-69418019D01*
X138163237Y-69555418D01*
X138040327Y-69718178D01*
X137949422Y-69900739D01*
X137949417Y-69900752D01*
X137893602Y-70096917D01*
X137874785Y-70299999D01*
X135005215Y-70299999D01*
X134986397Y-70096917D01*
X134930582Y-69900750D01*
X134839673Y-69718179D01*
X134733356Y-69577392D01*
X134716762Y-69555418D01*
X134566041Y-69418019D01*
X134566039Y-69418017D01*
X134392642Y-69310655D01*
X134392635Y-69310651D01*
X134297546Y-69273814D01*
X134202456Y-69236976D01*
X134001976Y-69199500D01*
X133798024Y-69199500D01*
X133597544Y-69236976D01*
X133597541Y-69236976D01*
X133597541Y-69236977D01*
X133407364Y-69310651D01*
X133407357Y-69310655D01*
X133233960Y-69418017D01*
X133233958Y-69418019D01*
X133083237Y-69555418D01*
X132960327Y-69718178D01*
X132869422Y-69900739D01*
X132869417Y-69900752D01*
X132813602Y-70096917D01*
X132794785Y-70299999D01*
X129925215Y-70299999D01*
X129906397Y-70096917D01*
X129850582Y-69900750D01*
X129759673Y-69718179D01*
X129653356Y-69577392D01*
X129636762Y-69555418D01*
X129486041Y-69418019D01*
X129486039Y-69418017D01*
X129312642Y-69310655D01*
X129312635Y-69310651D01*
X129217546Y-69273814D01*
X129122456Y-69236976D01*
X128921976Y-69199500D01*
X128718024Y-69199500D01*
X128517544Y-69236976D01*
X128517541Y-69236976D01*
X128517541Y-69236977D01*
X128327364Y-69310651D01*
X128327357Y-69310655D01*
X128153960Y-69418017D01*
X128153958Y-69418019D01*
X128003237Y-69555418D01*
X127880327Y-69718178D01*
X127789422Y-69900739D01*
X127789417Y-69900752D01*
X127733602Y-70096917D01*
X127714785Y-70299999D01*
X127385215Y-70299999D01*
X127366397Y-70096917D01*
X127310582Y-69900750D01*
X127219673Y-69718179D01*
X127113356Y-69577392D01*
X127096762Y-69555418D01*
X126946041Y-69418019D01*
X126946039Y-69418017D01*
X126772642Y-69310655D01*
X126772635Y-69310651D01*
X126677546Y-69273814D01*
X126582456Y-69236976D01*
X126381976Y-69199500D01*
X126178024Y-69199500D01*
X125977544Y-69236976D01*
X125977541Y-69236976D01*
X125977541Y-69236977D01*
X125787364Y-69310651D01*
X125787357Y-69310655D01*
X125613960Y-69418017D01*
X125613958Y-69418019D01*
X125463237Y-69555418D01*
X125340327Y-69718178D01*
X125249422Y-69900739D01*
X125249417Y-69900752D01*
X125193602Y-70096917D01*
X125174785Y-70299999D01*
X124845215Y-70299999D01*
X124826397Y-70096917D01*
X124770582Y-69900750D01*
X124679673Y-69718179D01*
X124573356Y-69577392D01*
X124556762Y-69555418D01*
X124406041Y-69418019D01*
X124406039Y-69418017D01*
X124232642Y-69310655D01*
X124232635Y-69310651D01*
X124137546Y-69273814D01*
X124042456Y-69236976D01*
X123841976Y-69199500D01*
X123638024Y-69199500D01*
X123437544Y-69236976D01*
X123437541Y-69236976D01*
X123437541Y-69236977D01*
X123247364Y-69310651D01*
X123247357Y-69310655D01*
X123073960Y-69418017D01*
X123073958Y-69418019D01*
X122923237Y-69555418D01*
X122800327Y-69718178D01*
X122709422Y-69900739D01*
X122709417Y-69900752D01*
X122653602Y-70096917D01*
X122634785Y-70299999D01*
X122305215Y-70299999D01*
X122286397Y-70096917D01*
X122230582Y-69900750D01*
X122139673Y-69718179D01*
X122033356Y-69577392D01*
X122016762Y-69555418D01*
X121866041Y-69418019D01*
X121866039Y-69418017D01*
X121692642Y-69310655D01*
X121692635Y-69310651D01*
X121597546Y-69273814D01*
X121502456Y-69236976D01*
X121301976Y-69199500D01*
X121098024Y-69199500D01*
X120897544Y-69236976D01*
X120897541Y-69236976D01*
X120897541Y-69236977D01*
X120707364Y-69310651D01*
X120707357Y-69310655D01*
X120533960Y-69418017D01*
X120533958Y-69418019D01*
X120383237Y-69555418D01*
X120260327Y-69718178D01*
X120169422Y-69900739D01*
X120169417Y-69900752D01*
X120113602Y-70096917D01*
X120094785Y-70299999D01*
X117225215Y-70299999D01*
X117206397Y-70096917D01*
X117150582Y-69900750D01*
X117059673Y-69718179D01*
X116953356Y-69577392D01*
X116936762Y-69555418D01*
X116786041Y-69418019D01*
X116786039Y-69418017D01*
X116612642Y-69310655D01*
X116612635Y-69310651D01*
X116517546Y-69273814D01*
X116422456Y-69236976D01*
X116221976Y-69199500D01*
X116018024Y-69199500D01*
X115817544Y-69236976D01*
X115817541Y-69236976D01*
X115817541Y-69236977D01*
X115627364Y-69310651D01*
X115627357Y-69310655D01*
X115453960Y-69418017D01*
X115453958Y-69418019D01*
X115303237Y-69555418D01*
X115180327Y-69718178D01*
X115089422Y-69900739D01*
X115089417Y-69900752D01*
X115033602Y-70096917D01*
X115014785Y-70299999D01*
X114685215Y-70299999D01*
X114666397Y-70096917D01*
X114610582Y-69900750D01*
X114519673Y-69718179D01*
X114413356Y-69577392D01*
X114396762Y-69555418D01*
X114246041Y-69418019D01*
X114246039Y-69418017D01*
X114072642Y-69310655D01*
X114072635Y-69310651D01*
X113977546Y-69273814D01*
X113882456Y-69236976D01*
X113681976Y-69199500D01*
X113478024Y-69199500D01*
X113277544Y-69236976D01*
X113277541Y-69236976D01*
X113277541Y-69236977D01*
X113087364Y-69310651D01*
X113087357Y-69310655D01*
X112913960Y-69418017D01*
X112913958Y-69418019D01*
X112763237Y-69555418D01*
X112640327Y-69718178D01*
X112549422Y-69900739D01*
X112549417Y-69900752D01*
X112493602Y-70096917D01*
X112474785Y-70299999D01*
X109605215Y-70299999D01*
X109586397Y-70096917D01*
X109530582Y-69900750D01*
X109439673Y-69718179D01*
X109333356Y-69577392D01*
X109316762Y-69555418D01*
X109166041Y-69418019D01*
X109166039Y-69418017D01*
X108992642Y-69310655D01*
X108992635Y-69310651D01*
X108897546Y-69273814D01*
X108802456Y-69236976D01*
X108601976Y-69199500D01*
X108398024Y-69199500D01*
X108197544Y-69236976D01*
X108197541Y-69236976D01*
X108197541Y-69236977D01*
X108007364Y-69310651D01*
X108007357Y-69310655D01*
X107833960Y-69418017D01*
X107833958Y-69418019D01*
X107683237Y-69555418D01*
X107560327Y-69718178D01*
X107469422Y-69900739D01*
X107469417Y-69900752D01*
X107413602Y-70096917D01*
X107394785Y-70299999D01*
X107065215Y-70299999D01*
X107046397Y-70096917D01*
X106990582Y-69900750D01*
X106899673Y-69718179D01*
X106793356Y-69577392D01*
X106776762Y-69555418D01*
X106626041Y-69418019D01*
X106626039Y-69418017D01*
X106452642Y-69310655D01*
X106452635Y-69310651D01*
X106357546Y-69273814D01*
X106262456Y-69236976D01*
X106061976Y-69199500D01*
X105858024Y-69199500D01*
X105657544Y-69236976D01*
X105657541Y-69236976D01*
X105657541Y-69236977D01*
X105467364Y-69310651D01*
X105467357Y-69310655D01*
X105293960Y-69418017D01*
X105293958Y-69418019D01*
X105143237Y-69555418D01*
X105020327Y-69718178D01*
X104929422Y-69900739D01*
X104929417Y-69900752D01*
X104873602Y-70096917D01*
X104854785Y-70299999D01*
X104525215Y-70299999D01*
X104506397Y-70096917D01*
X104450582Y-69900750D01*
X104359673Y-69718179D01*
X104253356Y-69577392D01*
X104236762Y-69555418D01*
X104086041Y-69418019D01*
X104086039Y-69418017D01*
X103912642Y-69310655D01*
X103912635Y-69310651D01*
X103817546Y-69273814D01*
X103722456Y-69236976D01*
X103521976Y-69199500D01*
X103318024Y-69199500D01*
X103117544Y-69236976D01*
X103117541Y-69236976D01*
X103117541Y-69236977D01*
X102927364Y-69310651D01*
X102927357Y-69310655D01*
X102753962Y-69418016D01*
X102690190Y-69476152D01*
X102627385Y-69506768D01*
X102610697Y-69504796D01*
X102592735Y-69568555D01*
X102586643Y-69577392D01*
X102480328Y-69718175D01*
X102389422Y-69900739D01*
X102389417Y-69900752D01*
X102333602Y-70096917D01*
X102314785Y-70299999D01*
X99445215Y-70299999D01*
X99426397Y-70096917D01*
X99370582Y-69900750D01*
X99279673Y-69718179D01*
X99173356Y-69577392D01*
X99156762Y-69555418D01*
X99006041Y-69418019D01*
X99006039Y-69418017D01*
X98832642Y-69310655D01*
X98832635Y-69310651D01*
X98737546Y-69273814D01*
X98642456Y-69236976D01*
X98441976Y-69199500D01*
X98238024Y-69199500D01*
X98037544Y-69236976D01*
X98037541Y-69236976D01*
X98037541Y-69236977D01*
X97847364Y-69310651D01*
X97847357Y-69310655D01*
X97673960Y-69418017D01*
X97673958Y-69418019D01*
X97523237Y-69555418D01*
X97400327Y-69718178D01*
X97309422Y-69900739D01*
X97309417Y-69900752D01*
X97253602Y-70096917D01*
X97234785Y-70299999D01*
X96905215Y-70299999D01*
X96886397Y-70096917D01*
X96830582Y-69900750D01*
X96739673Y-69718179D01*
X96633356Y-69577392D01*
X96616762Y-69555418D01*
X96466041Y-69418019D01*
X96466039Y-69418017D01*
X96292642Y-69310655D01*
X96292635Y-69310651D01*
X96197546Y-69273814D01*
X96102456Y-69236976D01*
X95901976Y-69199500D01*
X95698024Y-69199500D01*
X95497544Y-69236976D01*
X95497541Y-69236976D01*
X95497541Y-69236977D01*
X95307364Y-69310651D01*
X95307357Y-69310655D01*
X95133960Y-69418017D01*
X95133958Y-69418019D01*
X94983237Y-69555418D01*
X94860327Y-69718178D01*
X94769422Y-69900739D01*
X94769417Y-69900752D01*
X94713602Y-70096917D01*
X94694785Y-70299999D01*
X94000000Y-70299999D01*
X94000000Y-69006092D01*
X94000597Y-68993938D01*
X94009849Y-68899999D01*
X101344722Y-68899999D01*
X101344722Y-68900000D01*
X101363762Y-69056818D01*
X101417875Y-69199500D01*
X101419780Y-69204523D01*
X101509517Y-69334530D01*
X101627760Y-69439283D01*
X101627762Y-69439284D01*
X101767634Y-69512696D01*
X101921014Y-69550500D01*
X101921015Y-69550500D01*
X102078985Y-69550500D01*
X102232365Y-69512696D01*
X102247417Y-69504796D01*
X102372240Y-69439283D01*
X102405463Y-69409849D01*
X102468694Y-69380129D01*
X102484145Y-69382177D01*
X102500681Y-69320124D01*
X102504591Y-69314090D01*
X102580220Y-69204523D01*
X102636237Y-69056818D01*
X102655278Y-68900000D01*
X102636237Y-68743182D01*
X102580220Y-68595477D01*
X102490483Y-68465470D01*
X102372240Y-68360717D01*
X102372238Y-68360716D01*
X102372237Y-68360715D01*
X102232365Y-68287303D01*
X102078986Y-68249500D01*
X102078985Y-68249500D01*
X101921015Y-68249500D01*
X101921014Y-68249500D01*
X101767634Y-68287303D01*
X101627762Y-68360715D01*
X101627760Y-68360717D01*
X101521109Y-68455201D01*
X101509516Y-68465471D01*
X101419781Y-68595475D01*
X101419780Y-68595476D01*
X101363762Y-68743181D01*
X101344722Y-68899999D01*
X94009849Y-68899999D01*
X94018018Y-68817056D01*
X94022757Y-68793232D01*
X94072577Y-68628994D01*
X94081875Y-68606549D01*
X94162775Y-68455195D01*
X94176272Y-68434995D01*
X94285149Y-68302328D01*
X94302328Y-68285149D01*
X94434995Y-68176272D01*
X94455195Y-68162775D01*
X94606549Y-68081875D01*
X94628994Y-68072577D01*
X94793232Y-68022757D01*
X94817056Y-68018018D01*
X94993939Y-68000597D01*
X95006093Y-68000000D01*
X144993907Y-68000000D01*
X145006061Y-68000597D01*
G37*
G04 #@! TD.AperFunction*
M02*
