G04 #@! TF.GenerationSoftware,KiCad,Pcbnew,8.0.3*
G04 #@! TF.CreationDate,2024-06-13T11:49:56-06:00*
G04 #@! TF.ProjectId,PCB_Project,5043425f-5072-46f6-9a65-63742e6b6963,rev?*
G04 #@! TF.SameCoordinates,Original*
G04 #@! TF.FileFunction,Copper,L4,Bot*
G04 #@! TF.FilePolarity,Positive*
%FSLAX46Y46*%
G04 Gerber Fmt 4.6, Leading zero omitted, Abs format (unit mm)*
G04 Created by KiCad (PCBNEW 8.0.3) date 2024-06-13 11:49:56*
%MOMM*%
%LPD*%
G01*
G04 APERTURE LIST*
G04 Aperture macros list*
%AMRoundRect*
0 Rectangle with rounded corners*
0 $1 Rounding radius*
0 $2 $3 $4 $5 $6 $7 $8 $9 X,Y pos of 4 corners*
0 Add a 4 corners polygon primitive as box body*
4,1,4,$2,$3,$4,$5,$6,$7,$8,$9,$2,$3,0*
0 Add four circle primitives for the rounded corners*
1,1,$1+$1,$2,$3*
1,1,$1+$1,$4,$5*
1,1,$1+$1,$6,$7*
1,1,$1+$1,$8,$9*
0 Add four rect primitives between the rounded corners*
20,1,$1+$1,$2,$3,$4,$5,0*
20,1,$1+$1,$4,$5,$6,$7,0*
20,1,$1+$1,$6,$7,$8,$9,0*
20,1,$1+$1,$8,$9,$2,$3,0*%
G04 Aperture macros list end*
G04 #@! TA.AperFunction,ComponentPad*
%ADD10R,1.700000X1.700000*%
G04 #@! TD*
G04 #@! TA.AperFunction,ComponentPad*
%ADD11O,1.700000X1.700000*%
G04 #@! TD*
G04 #@! TA.AperFunction,ComponentPad*
%ADD12RoundRect,0.250000X-0.350000X-0.625000X0.350000X-0.625000X0.350000X0.625000X-0.350000X0.625000X0*%
G04 #@! TD*
G04 #@! TA.AperFunction,ComponentPad*
%ADD13O,1.200000X1.750000*%
G04 #@! TD*
G04 #@! TA.AperFunction,ComponentPad*
%ADD14R,1.350000X1.350000*%
G04 #@! TD*
G04 #@! TA.AperFunction,ComponentPad*
%ADD15O,1.350000X1.350000*%
G04 #@! TD*
G04 #@! TA.AperFunction,ViaPad*
%ADD16C,0.800000*%
G04 #@! TD*
G04 #@! TA.AperFunction,Conductor*
%ADD17C,0.250000*%
G04 #@! TD*
G04 APERTURE END LIST*
D10*
X114800000Y-94200000D03*
D11*
X117340000Y-94200000D03*
X119880000Y-94200000D03*
X122420000Y-94200000D03*
X124960000Y-94200000D03*
X127500000Y-94200000D03*
D12*
X140600000Y-91950000D03*
D13*
X142600000Y-91950000D03*
D10*
X114800000Y-89800000D03*
D11*
X117340000Y-89800000D03*
X119880000Y-89800000D03*
X122420000Y-89800000D03*
X124960000Y-89800000D03*
X127500000Y-89800000D03*
D12*
X132500000Y-91950000D03*
D13*
X134500000Y-91950000D03*
D12*
X140600000Y-86000000D03*
D13*
X142600000Y-86000000D03*
D14*
X96600000Y-94500000D03*
D15*
X98600000Y-94500000D03*
X100600000Y-94500000D03*
X102600000Y-94500000D03*
X104600000Y-94500000D03*
D10*
X95800000Y-72840000D03*
D11*
X95800000Y-70300000D03*
X98340000Y-72840000D03*
X98340000Y-70300000D03*
X100880000Y-72840000D03*
X100880000Y-70300000D03*
X103420000Y-72840000D03*
X103420000Y-70300000D03*
X105960000Y-72840000D03*
X105960000Y-70300000D03*
X108500000Y-72840000D03*
X108500000Y-70300000D03*
X111040000Y-72840000D03*
X111040000Y-70300000D03*
X113580000Y-72840000D03*
X113580000Y-70300000D03*
X116120000Y-72840000D03*
X116120000Y-70300000D03*
X118660000Y-72840000D03*
X118660000Y-70300000D03*
X121200000Y-72840000D03*
X121200000Y-70300000D03*
X123740000Y-72840000D03*
X123740000Y-70300000D03*
X126280000Y-72840000D03*
X126280000Y-70300000D03*
X128820000Y-72840000D03*
X128820000Y-70300000D03*
X131360000Y-72840000D03*
X131360000Y-70300000D03*
X133900000Y-72840000D03*
X133900000Y-70300000D03*
X136440000Y-72840000D03*
X136440000Y-70300000D03*
X138980000Y-72840000D03*
X138980000Y-70300000D03*
X141520000Y-72840000D03*
X141520000Y-70300000D03*
X144060000Y-72840000D03*
X144060000Y-70300000D03*
D16*
X107450000Y-88300000D03*
X108200000Y-95300000D03*
X106000000Y-76100000D03*
X118800000Y-80700000D03*
X144700000Y-80400000D03*
X96600000Y-84300000D03*
X145100000Y-78600000D03*
X100700000Y-77700000D03*
X133800000Y-83700000D03*
X129000000Y-84900000D03*
X144600000Y-83600000D03*
X121300000Y-87000000D03*
X115600000Y-76600000D03*
X109100000Y-77100000D03*
X130100000Y-74300000D03*
X117000000Y-75100000D03*
X109200000Y-85300000D03*
X105200000Y-74600000D03*
X116400000Y-81600000D03*
X120600000Y-85100000D03*
X100100000Y-91500000D03*
X96900000Y-91500000D03*
X127300000Y-81700000D03*
X132600000Y-69100000D03*
X122300000Y-78100000D03*
X135500000Y-69000000D03*
X111900000Y-82700000D03*
X100700000Y-87100000D03*
X110200000Y-82700000D03*
X141000000Y-76000000D03*
X142100000Y-74800000D03*
X117400000Y-70948000D03*
X112500000Y-74400000D03*
X102400000Y-74500000D03*
X102000000Y-68900000D03*
X130400000Y-83500000D03*
X121900000Y-81400000D03*
X117600000Y-77200000D03*
X127800000Y-86200000D03*
X142068000Y-83366300D03*
X117418000Y-86600000D03*
X108200000Y-74800000D03*
X98700000Y-80600000D03*
X132300000Y-85900000D03*
X123312000Y-76000000D03*
X108600000Y-80952000D03*
X119500000Y-92200000D03*
X141000000Y-77200000D03*
X104400000Y-77400000D03*
X136788000Y-76000000D03*
X122400000Y-92300000D03*
X131975000Y-76000000D03*
X134900000Y-74600000D03*
X122300000Y-86000000D03*
X120987000Y-80750000D03*
X137692000Y-81751300D03*
X103482000Y-82995000D03*
X103482000Y-80295000D03*
X114700000Y-82305700D03*
X133416000Y-77700000D03*
X104800000Y-80300000D03*
X130074000Y-79450000D03*
X125384000Y-92111500D03*
X135300000Y-79500000D03*
X124389000Y-82114100D03*
X126602000Y-79412900D03*
X118341000Y-82570100D03*
X112516000Y-77972300D03*
X143821000Y-81837500D03*
X130993000Y-84554500D03*
X141100000Y-83200000D03*
X108600000Y-79500000D03*
X111620000Y-85536900D03*
X111829000Y-75798800D03*
D17*
X104550000Y-89250000D02*
X100500000Y-93300000D01*
X107372000Y-88050000D02*
X104550000Y-88050000D01*
X104550000Y-88050000D02*
X97000000Y-80500000D01*
X97000000Y-70300000D02*
X98340000Y-70300000D01*
X108200000Y-95300000D02*
X109000000Y-96100000D01*
X107450000Y-94550000D02*
X108200000Y-95300000D01*
X109000000Y-96100000D02*
X130350000Y-96100000D01*
X97000000Y-80500000D02*
X97000000Y-70300000D01*
X104550000Y-88050000D02*
X104550000Y-89250000D01*
X107450000Y-88300000D02*
X107450000Y-94550000D01*
X130350000Y-96100000D02*
X134500000Y-91950000D01*
X107450000Y-88300000D02*
X107372000Y-88222000D01*
X100500000Y-93300000D02*
X97400000Y-93300000D01*
X107450000Y-88050000D02*
X107372000Y-88050000D01*
X97400000Y-93300000D02*
X96600000Y-94100000D01*
X96600000Y-94100000D02*
X96600000Y-94500000D01*
X107372000Y-88222000D02*
X107372000Y-88050000D01*
X95800000Y-70300000D02*
X97000000Y-70300000D01*
X99400000Y-87100000D02*
X100700000Y-87100000D01*
X115600000Y-76600000D02*
X115600000Y-76500000D01*
X109700000Y-76500000D02*
X111500000Y-76500000D01*
X132700000Y-69000000D02*
X135500000Y-69000000D01*
X96600000Y-84300000D02*
X99400000Y-87100000D01*
X113100000Y-79100000D02*
X112100000Y-79100000D01*
X115600000Y-76500000D02*
X117000000Y-75100000D01*
X121300000Y-85800000D02*
X120600000Y-85100000D01*
X96900000Y-91500000D02*
X100100000Y-91500000D01*
X116400000Y-81600000D02*
X116800000Y-81200000D01*
X141000000Y-76000000D02*
X141000000Y-75900000D01*
X111500000Y-78500000D02*
X111500000Y-76500000D01*
X116800000Y-81200000D02*
X118300000Y-81200000D01*
X121300000Y-87000000D02*
X121300000Y-85800000D01*
X113900000Y-74400000D02*
X113000000Y-74400000D01*
X114900000Y-72300000D02*
X114900000Y-73400000D01*
X118800000Y-80300000D02*
X118800000Y-80700000D01*
X132600000Y-69100000D02*
X132700000Y-69000000D01*
X144700000Y-80400000D02*
X144700000Y-79000000D01*
X113000000Y-74400000D02*
X112500000Y-74400000D01*
X100700000Y-77700000D02*
X103800000Y-74600000D01*
X106000000Y-76100000D02*
X108300000Y-76100000D01*
X121000000Y-78100000D02*
X118800000Y-80300000D01*
X114900000Y-73400000D02*
X113900000Y-74400000D01*
X122300000Y-78100000D02*
X121000000Y-78100000D01*
X112100000Y-79100000D02*
X111500000Y-78500000D01*
X144700000Y-79000000D02*
X145100000Y-78600000D01*
X141000000Y-75900000D02*
X142100000Y-74800000D01*
X108300000Y-76100000D02*
X110000000Y-74400000D01*
X109100000Y-77100000D02*
X109700000Y-76500000D01*
X103800000Y-74600000D02*
X105200000Y-74600000D01*
X110200000Y-82700000D02*
X111900000Y-82700000D01*
X112050000Y-76500000D02*
X113000000Y-75549800D01*
X116748000Y-71600000D02*
X115600000Y-71600000D01*
X115600000Y-76600000D02*
X113100000Y-79100000D01*
X118300000Y-81200000D02*
X118800000Y-80700000D01*
X111500000Y-76500000D02*
X112050000Y-76500000D01*
X117400000Y-70948000D02*
X116748000Y-71600000D01*
X110000000Y-74400000D02*
X112500000Y-74400000D01*
X115600000Y-71600000D02*
X114900000Y-72300000D01*
X113000000Y-75549800D02*
X113000000Y-74400000D01*
X102000000Y-68900000D02*
X102200000Y-69100000D01*
X102200000Y-74300000D02*
X102400000Y-74500000D01*
X102200000Y-69100000D02*
X102200000Y-74300000D01*
X103600000Y-77400000D02*
X100400000Y-80600000D01*
X100400000Y-80600000D02*
X98700000Y-80600000D01*
X104400000Y-77400000D02*
X103600000Y-77400000D01*
X121000000Y-80763000D02*
X121000000Y-82900000D01*
X121800000Y-83700000D02*
X121800000Y-85500000D01*
X121800000Y-85500000D02*
X122300000Y-86000000D01*
X121000000Y-82900000D02*
X121800000Y-83700000D01*
X120987000Y-80750000D02*
X121000000Y-80763000D01*
X140600000Y-86000000D02*
X137692000Y-83092500D01*
X137692000Y-83092500D02*
X137692000Y-81751300D01*
X114700000Y-82305700D02*
X114425000Y-82030700D01*
X103500000Y-81250000D02*
X103482000Y-81232000D01*
X103482000Y-82618000D02*
X103482000Y-82995000D01*
X103500000Y-82600000D02*
X103500000Y-82200000D01*
X103500000Y-83000000D02*
X103500000Y-82600000D01*
X103500000Y-82200000D02*
X103500000Y-81250000D01*
X103669000Y-82030700D02*
X103500000Y-82200000D01*
X114425000Y-82030700D02*
X103669000Y-82030700D01*
X103500000Y-82600000D02*
X103482000Y-82618000D01*
X103500000Y-81250000D02*
X103500000Y-80300000D01*
X103482000Y-81232000D02*
X103482000Y-80295000D01*
X109847000Y-81276700D02*
X108870000Y-80300000D01*
X133416000Y-77700000D02*
X133416000Y-78184400D01*
X133416000Y-78184400D02*
X130600000Y-81000000D01*
X108870000Y-80300000D02*
X104800000Y-80300000D01*
X126200000Y-81000000D02*
X122600000Y-77400000D01*
X115801000Y-81276700D02*
X109847000Y-81276700D01*
X122600000Y-77400000D02*
X119678000Y-77400000D01*
X119678000Y-77400000D02*
X115801000Y-81276700D01*
X130600000Y-81000000D02*
X126200000Y-81000000D01*
X123740000Y-73943700D02*
X124568000Y-73943700D01*
X135300000Y-79500000D02*
X134893000Y-79906600D01*
X124568000Y-73943700D02*
X130074000Y-79450000D01*
X134893000Y-79906600D02*
X134893000Y-85006600D01*
X123740000Y-72840000D02*
X123740000Y-73943700D01*
X127788000Y-92111500D02*
X125384000Y-92111500D01*
X134893000Y-85006600D02*
X127788000Y-92111500D01*
X126602000Y-78365800D02*
X126602000Y-79412900D01*
X121120000Y-88579800D02*
X121120000Y-91856100D01*
X124389000Y-85310900D02*
X121120000Y-88579800D01*
X121200000Y-73391800D02*
X121628000Y-73391800D01*
X124389000Y-82114100D02*
X124389000Y-85310900D01*
X121628000Y-73391800D02*
X126602000Y-78365800D01*
X121120000Y-91856100D02*
X119880000Y-93096300D01*
X119880000Y-93096300D02*
X119880000Y-94200000D01*
X121200000Y-72840000D02*
X121200000Y-73391800D01*
X118600000Y-82828800D02*
X118341000Y-82570100D01*
X112516000Y-77972300D02*
X112576000Y-77972300D01*
X118600000Y-91836300D02*
X118600000Y-82828800D01*
X117340000Y-94200000D02*
X117340000Y-93096300D01*
X117708000Y-72840000D02*
X118660000Y-72840000D01*
X117340000Y-93096300D02*
X118600000Y-91836300D01*
X112576000Y-77972300D02*
X117708000Y-72840000D01*
X143542000Y-81837500D02*
X143900000Y-82195100D01*
X141520000Y-71403700D02*
X141749000Y-71403700D01*
X143900000Y-86206000D02*
X142406000Y-87700000D01*
X129474000Y-94325800D02*
X128299800Y-95500000D01*
X116100000Y-92143700D02*
X117340000Y-90903700D01*
X142790000Y-80806300D02*
X143821000Y-81837500D01*
X142406000Y-87700000D02*
X133600000Y-87700000D01*
X133600000Y-87700000D02*
X129474000Y-91825800D01*
X143821000Y-81837500D02*
X143542000Y-81837500D01*
X143900000Y-82195100D02*
X143900000Y-86206000D01*
X141749000Y-71403700D02*
X142790000Y-72445000D01*
X128299800Y-95500000D02*
X116600000Y-95500000D01*
X129474000Y-91825800D02*
X129474000Y-94325800D01*
X141520000Y-70300000D02*
X141520000Y-71403700D01*
X117340000Y-90903700D02*
X117340000Y-89800000D01*
X116100000Y-95000000D02*
X116100000Y-92143700D01*
X116600000Y-95500000D02*
X116100000Y-95000000D01*
X142790000Y-72445000D02*
X142790000Y-80806300D01*
X134462000Y-79067300D02*
X134462000Y-75862000D01*
X127500000Y-89800000D02*
X127500000Y-88972400D01*
X134462000Y-75862000D02*
X133900000Y-75300000D01*
X134240000Y-79289300D02*
X134462000Y-79067300D01*
X133900000Y-75300000D02*
X133900000Y-72840000D01*
X134240000Y-82232700D02*
X134240000Y-79289300D01*
X127500000Y-88972400D02*
X134240000Y-82232700D01*
X136440000Y-72840000D02*
X136440000Y-73943700D01*
X127500000Y-93096300D02*
X127500000Y-94200000D01*
X136440000Y-73943700D02*
X136116000Y-74268000D01*
X136116000Y-84480600D02*
X127500000Y-93096300D01*
X136116000Y-74268000D02*
X136116000Y-84480600D01*
X140250000Y-82350000D02*
X140250000Y-72520500D01*
X109604000Y-70300000D02*
X108500000Y-70300000D01*
X138650000Y-71570000D02*
X137577000Y-70496700D01*
X126064000Y-88696300D02*
X126851000Y-88696300D01*
X139300000Y-71570000D02*
X138650000Y-71570000D01*
X137577000Y-69836700D02*
X135940000Y-68200000D01*
X135940000Y-68200000D02*
X111566000Y-68200000D01*
X141100000Y-83200000D02*
X140250000Y-82350000D01*
X126851000Y-88696300D02*
X130993000Y-84554500D01*
X111566000Y-68200000D02*
X109604000Y-70162000D01*
X109604000Y-70162000D02*
X109604000Y-70300000D01*
X124960000Y-89800000D02*
X126064000Y-88696300D01*
X140250000Y-72520500D02*
X139300000Y-71570000D01*
X137577000Y-70496700D02*
X137577000Y-69836700D01*
X120600000Y-71600000D02*
X121700000Y-71600000D01*
X123000000Y-70300000D02*
X123612000Y-70300000D01*
X108600000Y-79500000D02*
X109023000Y-79923000D01*
X121700000Y-71600000D02*
X123000000Y-70300000D01*
X134068000Y-78467900D02*
X134068000Y-77367600D01*
X110003000Y-80899700D02*
X115400000Y-80899700D01*
X123740000Y-70300000D02*
X123612000Y-70300000D01*
X125176000Y-73297200D02*
X125176000Y-71864200D01*
X133541000Y-76840700D02*
X128720000Y-76840700D01*
X119930000Y-72270000D02*
X120600000Y-71600000D01*
X125176000Y-71864200D02*
X123612000Y-70300000D01*
X124960000Y-93096300D02*
X123790000Y-91926500D01*
X123790000Y-88745300D02*
X134068000Y-78467900D01*
X115400000Y-80899700D02*
X119930000Y-76370000D01*
X109023000Y-79923000D02*
X109026000Y-79923000D01*
X128720000Y-76840700D02*
X125176000Y-73297200D01*
X109026000Y-79923000D02*
X110003000Y-80899700D01*
X124960000Y-94200000D02*
X124960000Y-93096300D01*
X134068000Y-77367600D02*
X133541000Y-76840700D01*
X119930000Y-76370000D02*
X119930000Y-72270000D01*
X123790000Y-91926500D02*
X123790000Y-88745300D01*
X114780000Y-88696300D02*
X114800000Y-88696300D01*
X114800000Y-88696300D02*
X114800000Y-89800000D01*
X111620000Y-85536900D02*
X114780000Y-88696300D01*
X115254000Y-81653700D02*
X116156000Y-82555700D01*
X105196000Y-81653700D02*
X115254000Y-81653700D01*
X105352000Y-79648000D02*
X104530000Y-79648000D01*
X109000000Y-76000000D02*
X105352000Y-79648000D01*
X116156000Y-82555700D02*
X116156000Y-90983000D01*
X111628000Y-76000000D02*
X109000000Y-76000000D01*
X104146000Y-80604200D02*
X105196000Y-81653700D01*
X111829000Y-75798800D02*
X111628000Y-76000000D01*
X114800000Y-92338700D02*
X114800000Y-94200000D01*
X104146000Y-80031600D02*
X104146000Y-80604200D01*
X104530000Y-79648000D02*
X104146000Y-80031600D01*
X116156000Y-90983000D02*
X114800000Y-92338700D01*
G04 #@! TA.AperFunction,Conductor*
G36*
X111002640Y-68019685D02*
G01*
X111048395Y-68072489D01*
X111058339Y-68141647D01*
X111029314Y-68205203D01*
X111023282Y-68211681D01*
X109573610Y-69661351D01*
X109512287Y-69694836D01*
X109442595Y-69689852D01*
X109386977Y-69648398D01*
X109316764Y-69555421D01*
X109299061Y-69539283D01*
X109166041Y-69418019D01*
X109166039Y-69418017D01*
X108992642Y-69310655D01*
X108992635Y-69310651D01*
X108853674Y-69256818D01*
X108802456Y-69236976D01*
X108601976Y-69199500D01*
X108398024Y-69199500D01*
X108197544Y-69236976D01*
X108197541Y-69236976D01*
X108197541Y-69236977D01*
X108007364Y-69310651D01*
X108007357Y-69310655D01*
X107833960Y-69418017D01*
X107833958Y-69418019D01*
X107683237Y-69555418D01*
X107560327Y-69718178D01*
X107469422Y-69900739D01*
X107469417Y-69900752D01*
X107413602Y-70096917D01*
X107394785Y-70299999D01*
X107394785Y-70300000D01*
X107413602Y-70503082D01*
X107469417Y-70699247D01*
X107469422Y-70699260D01*
X107560327Y-70881821D01*
X107683237Y-71044581D01*
X107833958Y-71181980D01*
X107833960Y-71181982D01*
X107911067Y-71229724D01*
X108007363Y-71289348D01*
X108197544Y-71363024D01*
X108398024Y-71400500D01*
X108398026Y-71400500D01*
X108601974Y-71400500D01*
X108601976Y-71400500D01*
X108802456Y-71363024D01*
X108992637Y-71289348D01*
X109166041Y-71181981D01*
X109316764Y-71044579D01*
X109439673Y-70881821D01*
X109508186Y-70744226D01*
X109555687Y-70692992D01*
X109619185Y-70675500D01*
X109653432Y-70675500D01*
X109653435Y-70675500D01*
X109748938Y-70649910D01*
X109822871Y-70607224D01*
X109890766Y-70590752D01*
X109956794Y-70613604D01*
X109999985Y-70668524D01*
X110004134Y-70680678D01*
X110009416Y-70699245D01*
X110009422Y-70699260D01*
X110100327Y-70881821D01*
X110223237Y-71044581D01*
X110373958Y-71181980D01*
X110373960Y-71181982D01*
X110451067Y-71229724D01*
X110547363Y-71289348D01*
X110737544Y-71363024D01*
X110938024Y-71400500D01*
X110938026Y-71400500D01*
X111141974Y-71400500D01*
X111141976Y-71400500D01*
X111342456Y-71363024D01*
X111532637Y-71289348D01*
X111706041Y-71181981D01*
X111856764Y-71044579D01*
X111979673Y-70881821D01*
X112070582Y-70699250D01*
X112126397Y-70503083D01*
X112145215Y-70300000D01*
X112145215Y-70299999D01*
X112474785Y-70299999D01*
X112474785Y-70300000D01*
X112493602Y-70503082D01*
X112549417Y-70699247D01*
X112549422Y-70699260D01*
X112640327Y-70881821D01*
X112763237Y-71044581D01*
X112913958Y-71181980D01*
X112913960Y-71181982D01*
X112991067Y-71229724D01*
X113087363Y-71289348D01*
X113277544Y-71363024D01*
X113478024Y-71400500D01*
X113478026Y-71400500D01*
X113681974Y-71400500D01*
X113681976Y-71400500D01*
X113882456Y-71363024D01*
X114072637Y-71289348D01*
X114246041Y-71181981D01*
X114396764Y-71044579D01*
X114519673Y-70881821D01*
X114610582Y-70699250D01*
X114666397Y-70503083D01*
X114685215Y-70300000D01*
X114666397Y-70096917D01*
X114610582Y-69900750D01*
X114584284Y-69847937D01*
X114562982Y-69805156D01*
X114519673Y-69718179D01*
X114406220Y-69567943D01*
X114396762Y-69555418D01*
X114246041Y-69418019D01*
X114246039Y-69418017D01*
X114072642Y-69310655D01*
X114072635Y-69310651D01*
X113933674Y-69256818D01*
X113882456Y-69236976D01*
X113681976Y-69199500D01*
X113478024Y-69199500D01*
X113277544Y-69236976D01*
X113277541Y-69236976D01*
X113277541Y-69236977D01*
X113087364Y-69310651D01*
X113087357Y-69310655D01*
X112913960Y-69418017D01*
X112913958Y-69418019D01*
X112763237Y-69555418D01*
X112640327Y-69718178D01*
X112549422Y-69900739D01*
X112549417Y-69900752D01*
X112493602Y-70096917D01*
X112474785Y-70299999D01*
X112145215Y-70299999D01*
X112126397Y-70096917D01*
X112070582Y-69900750D01*
X112044284Y-69847937D01*
X112022982Y-69805156D01*
X111979673Y-69718179D01*
X111866220Y-69567943D01*
X111856762Y-69555418D01*
X111706041Y-69418019D01*
X111706039Y-69418017D01*
X111532642Y-69310655D01*
X111532635Y-69310651D01*
X111393674Y-69256818D01*
X111342456Y-69236976D01*
X111342455Y-69236975D01*
X111342453Y-69236975D01*
X111335768Y-69235725D01*
X111273489Y-69204054D01*
X111238219Y-69143739D01*
X111241157Y-69073932D01*
X111270877Y-69026159D01*
X111685218Y-68611819D01*
X111746541Y-68578334D01*
X111772899Y-68575500D01*
X131935357Y-68575500D01*
X132002396Y-68595185D01*
X132048151Y-68647989D01*
X132058095Y-68717147D01*
X132037407Y-68769940D01*
X132019780Y-68795475D01*
X132019780Y-68795476D01*
X131963762Y-68943181D01*
X131944722Y-69099999D01*
X131944722Y-69100000D01*
X131951183Y-69153215D01*
X131939722Y-69222139D01*
X131892818Y-69273924D01*
X131825362Y-69292131D01*
X131783293Y-69283788D01*
X131662459Y-69236977D01*
X131662458Y-69236976D01*
X131662456Y-69236976D01*
X131461976Y-69199500D01*
X131258024Y-69199500D01*
X131057544Y-69236976D01*
X131057541Y-69236976D01*
X131057541Y-69236977D01*
X130867364Y-69310651D01*
X130867357Y-69310655D01*
X130693960Y-69418017D01*
X130693958Y-69418019D01*
X130543237Y-69555418D01*
X130420327Y-69718178D01*
X130329422Y-69900739D01*
X130329417Y-69900752D01*
X130273602Y-70096917D01*
X130254785Y-70299999D01*
X130254785Y-70300000D01*
X130273602Y-70503082D01*
X130329417Y-70699247D01*
X130329422Y-70699260D01*
X130420327Y-70881821D01*
X130543237Y-71044581D01*
X130693958Y-71181980D01*
X130693960Y-71181982D01*
X130771067Y-71229724D01*
X130867363Y-71289348D01*
X131057544Y-71363024D01*
X131258024Y-71400500D01*
X131258026Y-71400500D01*
X131461974Y-71400500D01*
X131461976Y-71400500D01*
X131662456Y-71363024D01*
X131852637Y-71289348D01*
X132026041Y-71181981D01*
X132176764Y-71044579D01*
X132299673Y-70881821D01*
X132390582Y-70699250D01*
X132446397Y-70503083D01*
X132465215Y-70300000D01*
X132446397Y-70096917D01*
X132392715Y-69908246D01*
X132393301Y-69838381D01*
X132431568Y-69779922D01*
X132495365Y-69751431D01*
X132513515Y-69751312D01*
X132513515Y-69750500D01*
X132678985Y-69750500D01*
X132722482Y-69739779D01*
X132792284Y-69742848D01*
X132849346Y-69783168D01*
X132875552Y-69847937D01*
X132869183Y-69894723D01*
X132870987Y-69895237D01*
X132869418Y-69900748D01*
X132869418Y-69900750D01*
X132854671Y-69952576D01*
X132813602Y-70096917D01*
X132794785Y-70299999D01*
X132794785Y-70300000D01*
X132813602Y-70503082D01*
X132869417Y-70699247D01*
X132869422Y-70699260D01*
X132960327Y-70881821D01*
X133083237Y-71044581D01*
X133233958Y-71181980D01*
X133233960Y-71181982D01*
X133311067Y-71229724D01*
X133407363Y-71289348D01*
X133597544Y-71363024D01*
X133798024Y-71400500D01*
X133798026Y-71400500D01*
X134001974Y-71400500D01*
X134001976Y-71400500D01*
X134202456Y-71363024D01*
X134392637Y-71289348D01*
X134566041Y-71181981D01*
X134716764Y-71044579D01*
X134839673Y-70881821D01*
X134930582Y-70699250D01*
X134986397Y-70503083D01*
X135005215Y-70300000D01*
X134986397Y-70096917D01*
X134930582Y-69900750D01*
X134904284Y-69847937D01*
X134882982Y-69805156D01*
X134839673Y-69718179D01*
X134730966Y-69574227D01*
X134706274Y-69508865D01*
X134720839Y-69440531D01*
X134770037Y-69390918D01*
X134829920Y-69375500D01*
X134903692Y-69375500D01*
X134970731Y-69395185D01*
X135005742Y-69429061D01*
X135009517Y-69434530D01*
X135127760Y-69539283D01*
X135127762Y-69539284D01*
X135267634Y-69612696D01*
X135267633Y-69612696D01*
X135371326Y-69638253D01*
X135431707Y-69673409D01*
X135463496Y-69735628D01*
X135456600Y-69805156D01*
X135452653Y-69813921D01*
X135409421Y-69900743D01*
X135409417Y-69900752D01*
X135353602Y-70096917D01*
X135334785Y-70299999D01*
X135334785Y-70300000D01*
X135353602Y-70503082D01*
X135409417Y-70699247D01*
X135409422Y-70699260D01*
X135500327Y-70881821D01*
X135623237Y-71044581D01*
X135773958Y-71181980D01*
X135773960Y-71181982D01*
X135851067Y-71229724D01*
X135947363Y-71289348D01*
X136137544Y-71363024D01*
X136338024Y-71400500D01*
X136338026Y-71400500D01*
X136541974Y-71400500D01*
X136541976Y-71400500D01*
X136742456Y-71363024D01*
X136932637Y-71289348D01*
X137106041Y-71181981D01*
X137256764Y-71044579D01*
X137315897Y-70966273D01*
X137372003Y-70924640D01*
X137441715Y-70919947D01*
X137502541Y-70953332D01*
X137806005Y-71256881D01*
X138323193Y-71774213D01*
X138356670Y-71835541D01*
X138351676Y-71905232D01*
X138316571Y-71952376D01*
X138318195Y-71954157D01*
X138163237Y-72095418D01*
X138040327Y-72258178D01*
X137949422Y-72440739D01*
X137949417Y-72440752D01*
X137893602Y-72636917D01*
X137874785Y-72839999D01*
X137874785Y-72840000D01*
X137893602Y-73043082D01*
X137949417Y-73239247D01*
X137949422Y-73239260D01*
X138040327Y-73421821D01*
X138163237Y-73584581D01*
X138313958Y-73721980D01*
X138313960Y-73721982D01*
X138376520Y-73760717D01*
X138487363Y-73829348D01*
X138677544Y-73903024D01*
X138878024Y-73940500D01*
X138878026Y-73940500D01*
X139081974Y-73940500D01*
X139081976Y-73940500D01*
X139282456Y-73903024D01*
X139472637Y-73829348D01*
X139646041Y-73721981D01*
X139666961Y-73702910D01*
X139729765Y-73672292D01*
X139799152Y-73680489D01*
X139853093Y-73724899D01*
X139874461Y-73791421D01*
X139874500Y-73794546D01*
X139874500Y-82399436D01*
X139887277Y-82447123D01*
X139887291Y-82447173D01*
X139887295Y-82447186D01*
X139899167Y-82491495D01*
X139900091Y-82494940D01*
X139929077Y-82545146D01*
X139946628Y-82575544D01*
X139949526Y-82580563D01*
X139949529Y-82580566D01*
X140415481Y-83046518D01*
X140448966Y-83107841D01*
X140450896Y-83149143D01*
X140444722Y-83199997D01*
X140444722Y-83200000D01*
X140463762Y-83356818D01*
X140506474Y-83469438D01*
X140519780Y-83504523D01*
X140609517Y-83634530D01*
X140727760Y-83739283D01*
X140727762Y-83739284D01*
X140867634Y-83812696D01*
X141021014Y-83850500D01*
X141021015Y-83850500D01*
X141178985Y-83850500D01*
X141332365Y-83812696D01*
X141431401Y-83760717D01*
X141472240Y-83739283D01*
X141590483Y-83634530D01*
X141680220Y-83504523D01*
X141736237Y-83356818D01*
X141755278Y-83200000D01*
X141753834Y-83188103D01*
X141736237Y-83043181D01*
X141700684Y-82949436D01*
X141680220Y-82895477D01*
X141590483Y-82765470D01*
X141472240Y-82660717D01*
X141472238Y-82660716D01*
X141472237Y-82660715D01*
X141332365Y-82587303D01*
X141178986Y-82549500D01*
X141178985Y-82549500D01*
X141031899Y-82549500D01*
X140964860Y-82529815D01*
X140944218Y-82513181D01*
X140661819Y-82230782D01*
X140628334Y-82169459D01*
X140625500Y-82143101D01*
X140625500Y-76735937D01*
X140645185Y-76668898D01*
X140697989Y-76623143D01*
X140767147Y-76613199D01*
X140779169Y-76615538D01*
X140921015Y-76650500D01*
X141078985Y-76650500D01*
X141232365Y-76612696D01*
X141261564Y-76597371D01*
X141372240Y-76539283D01*
X141490483Y-76434530D01*
X141580220Y-76304523D01*
X141636237Y-76156818D01*
X141655278Y-76000000D01*
X141638275Y-75859970D01*
X141649735Y-75791050D01*
X141673687Y-75757348D01*
X141944217Y-75486819D01*
X142005540Y-75453334D01*
X142031898Y-75450500D01*
X142178985Y-75450500D01*
X142260827Y-75430328D01*
X142330627Y-75433397D01*
X142387689Y-75473717D01*
X142413895Y-75538486D01*
X142414500Y-75550725D01*
X142414500Y-80806277D01*
X142414494Y-80855703D01*
X142414498Y-80855729D01*
X142414500Y-80855735D01*
X142422932Y-80887202D01*
X142426231Y-80899513D01*
X142426232Y-80899525D01*
X142426234Y-80899525D01*
X142436883Y-80939284D01*
X142440082Y-80951224D01*
X142465555Y-80995344D01*
X142465553Y-80995345D01*
X142465561Y-80995355D01*
X142470854Y-81004524D01*
X142489510Y-81036846D01*
X142489514Y-81036852D01*
X142520504Y-81067841D01*
X142520511Y-81067853D01*
X142520514Y-81067851D01*
X143131888Y-81679344D01*
X143165367Y-81740671D01*
X143167146Y-81783136D01*
X143166679Y-81786698D01*
X143166672Y-81786750D01*
X143166473Y-81788260D01*
X143166492Y-81823591D01*
X143165721Y-81836396D01*
X143165722Y-81838546D01*
X143166500Y-81851406D01*
X143166500Y-81886955D01*
X143166522Y-81887126D01*
X143173779Y-81914151D01*
X143177117Y-81931358D01*
X143184762Y-81994316D01*
X143184763Y-81994321D01*
X143237938Y-82134530D01*
X143240780Y-82142023D01*
X143330517Y-82272030D01*
X143448760Y-82376783D01*
X143458125Y-82381698D01*
X143508338Y-82430282D01*
X143524500Y-82491495D01*
X143524500Y-85168979D01*
X143504815Y-85236018D01*
X143452011Y-85281773D01*
X143382853Y-85291717D01*
X143319297Y-85262692D01*
X143297398Y-85237870D01*
X143260626Y-85182838D01*
X143260623Y-85182834D01*
X143142162Y-85064373D01*
X143002860Y-84971295D01*
X142848082Y-84907184D01*
X142848074Y-84907182D01*
X142683771Y-84874500D01*
X142683767Y-84874500D01*
X142516233Y-84874500D01*
X142516228Y-84874500D01*
X142351925Y-84907182D01*
X142351917Y-84907184D01*
X142197139Y-84971295D01*
X142057837Y-85064373D01*
X141939373Y-85182837D01*
X141846295Y-85322139D01*
X141782184Y-85476917D01*
X141782182Y-85476925D01*
X141749500Y-85641228D01*
X141749500Y-86358771D01*
X141782182Y-86523074D01*
X141782184Y-86523082D01*
X141846295Y-86677860D01*
X141939373Y-86817162D01*
X142057837Y-86935626D01*
X142128055Y-86982544D01*
X142197137Y-87028703D01*
X142197138Y-87028703D01*
X142197139Y-87028704D01*
X142272551Y-87059941D01*
X142326954Y-87103782D01*
X142349019Y-87170077D01*
X142331740Y-87237776D01*
X142312782Y-87262180D01*
X142286781Y-87288181D01*
X142225461Y-87321666D01*
X142199101Y-87324500D01*
X141194048Y-87324500D01*
X141127009Y-87304815D01*
X141081254Y-87252011D01*
X141071310Y-87182853D01*
X141100335Y-87119297D01*
X141150715Y-87084318D01*
X141192328Y-87068797D01*
X141192327Y-87068797D01*
X141192331Y-87068796D01*
X141307546Y-86982546D01*
X141393796Y-86867331D01*
X141444091Y-86732483D01*
X141450500Y-86672873D01*
X141450499Y-85327128D01*
X141444091Y-85267517D01*
X141442291Y-85262692D01*
X141393797Y-85132671D01*
X141393793Y-85132664D01*
X141307547Y-85017455D01*
X141307544Y-85017452D01*
X141192335Y-84931206D01*
X141192328Y-84931202D01*
X141057482Y-84880908D01*
X141057483Y-84880908D01*
X140997883Y-84874501D01*
X140997881Y-84874500D01*
X140997873Y-84874500D01*
X140997864Y-84874500D01*
X140202129Y-84874500D01*
X140202123Y-84874501D01*
X140142516Y-84880908D01*
X140121969Y-84888572D01*
X140052277Y-84893554D01*
X139990965Y-84860078D01*
X138103826Y-82973263D01*
X138070336Y-82911942D01*
X138067500Y-82885574D01*
X138067500Y-82343502D01*
X138087185Y-82276463D01*
X138109274Y-82250686D01*
X138182482Y-82185831D01*
X138206709Y-82150732D01*
X138272220Y-82055823D01*
X138328237Y-81908118D01*
X138347278Y-81751300D01*
X138345988Y-81740671D01*
X138328237Y-81594481D01*
X138304911Y-81532976D01*
X138272220Y-81446777D01*
X138182483Y-81316770D01*
X138064240Y-81212017D01*
X138064238Y-81212016D01*
X138064237Y-81212015D01*
X137924365Y-81138603D01*
X137770986Y-81100800D01*
X137770985Y-81100800D01*
X137613015Y-81100800D01*
X137613014Y-81100800D01*
X137459634Y-81138603D01*
X137319762Y-81212015D01*
X137267274Y-81258515D01*
X137219911Y-81300475D01*
X137201516Y-81316771D01*
X137111781Y-81446775D01*
X137111780Y-81446776D01*
X137055762Y-81594481D01*
X137036722Y-81751299D01*
X137036722Y-81751300D01*
X137055762Y-81908118D01*
X137102296Y-82030815D01*
X137111780Y-82055823D01*
X137137326Y-82092833D01*
X137201517Y-82185831D01*
X137274726Y-82250686D01*
X137311853Y-82309874D01*
X137316500Y-82343502D01*
X137316500Y-83034975D01*
X137316495Y-83035053D01*
X137316500Y-83087303D01*
X137316500Y-83141954D01*
X137321529Y-83160717D01*
X137330167Y-83192943D01*
X137338290Y-83223257D01*
X137342094Y-83237453D01*
X137367718Y-83281829D01*
X137367721Y-83281834D01*
X137391528Y-83323068D01*
X137391540Y-83323083D01*
X137391543Y-83323086D01*
X137391545Y-83323089D01*
X137418961Y-83350500D01*
X137432259Y-83363796D01*
X137467686Y-83399223D01*
X137467732Y-83399263D01*
X137573010Y-83504523D01*
X139607222Y-85538385D01*
X139713174Y-85644318D01*
X139746664Y-85705638D01*
X139749500Y-85732007D01*
X139749500Y-86672870D01*
X139749501Y-86672876D01*
X139755908Y-86732483D01*
X139806202Y-86867328D01*
X139806206Y-86867335D01*
X139892452Y-86982544D01*
X139892455Y-86982547D01*
X140007664Y-87068793D01*
X140007671Y-87068797D01*
X140049285Y-87084318D01*
X140105219Y-87126189D01*
X140129636Y-87191653D01*
X140114785Y-87259926D01*
X140065380Y-87309332D01*
X140005952Y-87324500D01*
X134102417Y-87324500D01*
X134035378Y-87304815D01*
X133989623Y-87252011D01*
X133979679Y-87182853D01*
X134008704Y-87119297D01*
X134014737Y-87112817D01*
X136334640Y-84792992D01*
X136334652Y-84792984D01*
X136346560Y-84781075D01*
X136346562Y-84781075D01*
X136393107Y-84734530D01*
X136410249Y-84717388D01*
X136413295Y-84714746D01*
X136413994Y-84713959D01*
X136416297Y-84711513D01*
X136417478Y-84709536D01*
X136421570Y-84702914D01*
X136422747Y-84700298D01*
X136455269Y-84643970D01*
X136455269Y-84643969D01*
X136456393Y-84642020D01*
X136465908Y-84625543D01*
X136465908Y-84625540D01*
X136465910Y-84625538D01*
X136484945Y-84554500D01*
X136490548Y-84533588D01*
X136491442Y-84530611D01*
X136491500Y-84530223D01*
X136491500Y-84449500D01*
X136491501Y-84431171D01*
X136491500Y-84431167D01*
X136491500Y-74474764D01*
X136511185Y-74407725D01*
X136527778Y-74387123D01*
X136571679Y-74343182D01*
X136706008Y-74208727D01*
X136706047Y-74208690D01*
X136719261Y-74195475D01*
X136740475Y-74174262D01*
X136740477Y-74174257D01*
X136740483Y-74174252D01*
X136740578Y-74174128D01*
X136740579Y-74174125D01*
X136740581Y-74174124D01*
X136758426Y-74143181D01*
X136764918Y-74131925D01*
X136764920Y-74131926D01*
X136764935Y-74131894D01*
X136789910Y-74088638D01*
X136789911Y-74088632D01*
X136789914Y-74088628D01*
X136789974Y-74088482D01*
X136789974Y-74088478D01*
X136789977Y-74088475D01*
X136798944Y-74054944D01*
X136802459Y-74041805D01*
X136802473Y-74041751D01*
X136803667Y-74037294D01*
X136815500Y-73993135D01*
X136815500Y-73993132D01*
X136815522Y-73992966D01*
X136815516Y-73980117D01*
X136815506Y-73959723D01*
X136835158Y-73892677D01*
X136887940Y-73846897D01*
X136894714Y-73844039D01*
X136932629Y-73829351D01*
X136932628Y-73829351D01*
X136932637Y-73829348D01*
X137106041Y-73721981D01*
X137256764Y-73584579D01*
X137379673Y-73421821D01*
X137470582Y-73239250D01*
X137526397Y-73043083D01*
X137545215Y-72840000D01*
X137526397Y-72636917D01*
X137470582Y-72440750D01*
X137459860Y-72419218D01*
X137426272Y-72351764D01*
X137379673Y-72258179D01*
X137256764Y-72095421D01*
X137256762Y-72095418D01*
X137106041Y-71958019D01*
X137106039Y-71958017D01*
X136932642Y-71850655D01*
X136932635Y-71850651D01*
X136813902Y-71804654D01*
X136742456Y-71776976D01*
X136541976Y-71739500D01*
X136338024Y-71739500D01*
X136137544Y-71776976D01*
X136137541Y-71776976D01*
X136137541Y-71776977D01*
X135947364Y-71850651D01*
X135947357Y-71850655D01*
X135773960Y-71958017D01*
X135773958Y-71958019D01*
X135623237Y-72095418D01*
X135500327Y-72258178D01*
X135409422Y-72440739D01*
X135409417Y-72440752D01*
X135353602Y-72636917D01*
X135334785Y-72839999D01*
X135334785Y-72840000D01*
X135353602Y-73043082D01*
X135409417Y-73239247D01*
X135409422Y-73239260D01*
X135500327Y-73421821D01*
X135623237Y-73584581D01*
X135773958Y-73721980D01*
X135773960Y-73721982D01*
X135861335Y-73776082D01*
X135907971Y-73828110D01*
X135919075Y-73897091D01*
X135891122Y-73961126D01*
X135883781Y-73969149D01*
X135850085Y-74002877D01*
X135850045Y-74002916D01*
X135815511Y-74037450D01*
X135815427Y-74037561D01*
X135802072Y-74060717D01*
X135791082Y-74079773D01*
X135772587Y-74111808D01*
X135766080Y-74123079D01*
X135766030Y-74123197D01*
X135762166Y-74137644D01*
X135753258Y-74170949D01*
X135753258Y-74170950D01*
X135740498Y-74218568D01*
X135740476Y-74218735D01*
X135740500Y-74268174D01*
X135740500Y-78791420D01*
X135720815Y-78858459D01*
X135668011Y-78904214D01*
X135598853Y-78914158D01*
X135558876Y-78901217D01*
X135532366Y-78887304D01*
X135532365Y-78887303D01*
X135378986Y-78849500D01*
X135378985Y-78849500D01*
X135221015Y-78849500D01*
X135221014Y-78849500D01*
X135067637Y-78887303D01*
X135067635Y-78887303D01*
X135067635Y-78887304D01*
X135034826Y-78904524D01*
X135019126Y-78912764D01*
X134950617Y-78926489D01*
X134885564Y-78900996D01*
X134844620Y-78844381D01*
X134837500Y-78802967D01*
X134837500Y-75812567D01*
X134837500Y-75812565D01*
X134811910Y-75717062D01*
X134762475Y-75631438D01*
X134692562Y-75561525D01*
X134311819Y-75180782D01*
X134278334Y-75119459D01*
X134275500Y-75093101D01*
X134275500Y-73959668D01*
X134295185Y-73892629D01*
X134347989Y-73846874D01*
X134354679Y-73844052D01*
X134392637Y-73829348D01*
X134566041Y-73721981D01*
X134716764Y-73584579D01*
X134839673Y-73421821D01*
X134930582Y-73239250D01*
X134986397Y-73043083D01*
X135005215Y-72840000D01*
X134986397Y-72636917D01*
X134930582Y-72440750D01*
X134919860Y-72419218D01*
X134886272Y-72351764D01*
X134839673Y-72258179D01*
X134716764Y-72095421D01*
X134716762Y-72095418D01*
X134566041Y-71958019D01*
X134566039Y-71958017D01*
X134392642Y-71850655D01*
X134392635Y-71850651D01*
X134273902Y-71804654D01*
X134202456Y-71776976D01*
X134001976Y-71739500D01*
X133798024Y-71739500D01*
X133597544Y-71776976D01*
X133597541Y-71776976D01*
X133597541Y-71776977D01*
X133407364Y-71850651D01*
X133407357Y-71850655D01*
X133233960Y-71958017D01*
X133233958Y-71958019D01*
X133083237Y-72095418D01*
X132960327Y-72258178D01*
X132869422Y-72440739D01*
X132869417Y-72440752D01*
X132813602Y-72636917D01*
X132794785Y-72839999D01*
X132794785Y-72840000D01*
X132813602Y-73043082D01*
X132869417Y-73239247D01*
X132869422Y-73239260D01*
X132960327Y-73421821D01*
X133083237Y-73584581D01*
X133233958Y-73721980D01*
X133233960Y-73721982D01*
X133296520Y-73760717D01*
X133407363Y-73829348D01*
X133445293Y-73844042D01*
X133500694Y-73886612D01*
X133524286Y-73952378D01*
X133524500Y-73959668D01*
X133524500Y-75349435D01*
X133550090Y-75444938D01*
X133574549Y-75487303D01*
X133599526Y-75530563D01*
X134050181Y-75981218D01*
X134083666Y-76042541D01*
X134086500Y-76068899D01*
X134086500Y-76555787D01*
X134066815Y-76622826D01*
X134014011Y-76668581D01*
X133944853Y-76678525D01*
X133881297Y-76649500D01*
X133874827Y-76643477D01*
X133808186Y-76576849D01*
X133808186Y-76576848D01*
X133808177Y-76576840D01*
X133771560Y-76540223D01*
X133771534Y-76540203D01*
X133731975Y-76517369D01*
X133731964Y-76517363D01*
X133686557Y-76491147D01*
X133685958Y-76490794D01*
X133685926Y-76490781D01*
X133648864Y-76480854D01*
X133635525Y-76477281D01*
X133635518Y-76477277D01*
X133635518Y-76477279D01*
X133590424Y-76465197D01*
X133590407Y-76465194D01*
X133540964Y-76465200D01*
X128926879Y-76465200D01*
X128859840Y-76445515D01*
X128839204Y-76428887D01*
X127510127Y-75099998D01*
X126521797Y-74111807D01*
X126488309Y-74050488D01*
X126493288Y-73980796D01*
X126535156Y-73924859D01*
X126577435Y-73906299D01*
X126576949Y-73904591D01*
X126582448Y-73903025D01*
X126582456Y-73903024D01*
X126772637Y-73829348D01*
X126946041Y-73721981D01*
X127096764Y-73584579D01*
X127219673Y-73421821D01*
X127310582Y-73239250D01*
X127366397Y-73043083D01*
X127385215Y-72840000D01*
X127385215Y-72839999D01*
X127714785Y-72839999D01*
X127714785Y-72840000D01*
X127733602Y-73043082D01*
X127789417Y-73239247D01*
X127789422Y-73239260D01*
X127880327Y-73421821D01*
X128003237Y-73584581D01*
X128153958Y-73721980D01*
X128153960Y-73721982D01*
X128216520Y-73760717D01*
X128327363Y-73829348D01*
X128517544Y-73903024D01*
X128718024Y-73940500D01*
X128718026Y-73940500D01*
X128921974Y-73940500D01*
X128921976Y-73940500D01*
X129122456Y-73903024D01*
X129312637Y-73829348D01*
X129370430Y-73793563D01*
X129437790Y-73775007D01*
X129504490Y-73795815D01*
X129549351Y-73849380D01*
X129558132Y-73918696D01*
X129537759Y-73969428D01*
X129519782Y-73995472D01*
X129519780Y-73995476D01*
X129463762Y-74143181D01*
X129444722Y-74299999D01*
X129444722Y-74300000D01*
X129463762Y-74456818D01*
X129514111Y-74589575D01*
X129519780Y-74604523D01*
X129609517Y-74734530D01*
X129727760Y-74839283D01*
X129727762Y-74839284D01*
X129867634Y-74912696D01*
X130021014Y-74950500D01*
X130021015Y-74950500D01*
X130178985Y-74950500D01*
X130332365Y-74912696D01*
X130347973Y-74904504D01*
X130472240Y-74839283D01*
X130590483Y-74734530D01*
X130680220Y-74604523D01*
X130736237Y-74456818D01*
X130755278Y-74300000D01*
X130755221Y-74299526D01*
X130736237Y-74143181D01*
X130704961Y-74060715D01*
X130680220Y-73995477D01*
X130677169Y-73991057D01*
X130655285Y-73924705D01*
X130672748Y-73857053D01*
X130724015Y-73809582D01*
X130792808Y-73797363D01*
X130844495Y-73815189D01*
X130867363Y-73829348D01*
X131057544Y-73903024D01*
X131258024Y-73940500D01*
X131258026Y-73940500D01*
X131461974Y-73940500D01*
X131461976Y-73940500D01*
X131662456Y-73903024D01*
X131852637Y-73829348D01*
X132026041Y-73721981D01*
X132176764Y-73584579D01*
X132299673Y-73421821D01*
X132390582Y-73239250D01*
X132446397Y-73043083D01*
X132465215Y-72840000D01*
X132446397Y-72636917D01*
X132390582Y-72440750D01*
X132379860Y-72419218D01*
X132346272Y-72351764D01*
X132299673Y-72258179D01*
X132176764Y-72095421D01*
X132176762Y-72095418D01*
X132026041Y-71958019D01*
X132026039Y-71958017D01*
X131852642Y-71850655D01*
X131852635Y-71850651D01*
X131733902Y-71804654D01*
X131662456Y-71776976D01*
X131461976Y-71739500D01*
X131258024Y-71739500D01*
X131057544Y-71776976D01*
X131057541Y-71776976D01*
X131057541Y-71776977D01*
X130867364Y-71850651D01*
X130867357Y-71850655D01*
X130693960Y-71958017D01*
X130693958Y-71958019D01*
X130543237Y-72095418D01*
X130420327Y-72258178D01*
X130329422Y-72440739D01*
X130329417Y-72440752D01*
X130273602Y-72636917D01*
X130254785Y-72839999D01*
X130254785Y-72840000D01*
X130273602Y-73043082D01*
X130329417Y-73239247D01*
X130329422Y-73239260D01*
X130382889Y-73346635D01*
X130420327Y-73421821D01*
X130469275Y-73486639D01*
X130477439Y-73497449D01*
X130502131Y-73562810D01*
X130487566Y-73631145D01*
X130438369Y-73680757D01*
X130370159Y-73695896D01*
X130334522Y-73688121D01*
X130332369Y-73687304D01*
X130178986Y-73649500D01*
X130178985Y-73649500D01*
X130021015Y-73649500D01*
X130021014Y-73649500D01*
X129867637Y-73687303D01*
X129846893Y-73698190D01*
X129778384Y-73711913D01*
X129713331Y-73686420D01*
X129672388Y-73629803D01*
X129668554Y-73560039D01*
X129690313Y-73513667D01*
X129759673Y-73421821D01*
X129850582Y-73239250D01*
X129906397Y-73043083D01*
X129925215Y-72840000D01*
X129906397Y-72636917D01*
X129850582Y-72440750D01*
X129839860Y-72419218D01*
X129806272Y-72351764D01*
X129759673Y-72258179D01*
X129636764Y-72095421D01*
X129636762Y-72095418D01*
X129486041Y-71958019D01*
X129486039Y-71958017D01*
X129312642Y-71850655D01*
X129312635Y-71850651D01*
X129193902Y-71804654D01*
X129122456Y-71776976D01*
X128921976Y-71739500D01*
X128718024Y-71739500D01*
X128517544Y-71776976D01*
X128517541Y-71776976D01*
X128517541Y-71776977D01*
X128327364Y-71850651D01*
X128327357Y-71850655D01*
X128153960Y-71958017D01*
X128153958Y-71958019D01*
X128003237Y-72095418D01*
X127880327Y-72258178D01*
X127789422Y-72440739D01*
X127789417Y-72440752D01*
X127733602Y-72636917D01*
X127714785Y-72839999D01*
X127385215Y-72839999D01*
X127366397Y-72636917D01*
X127310582Y-72440750D01*
X127299860Y-72419218D01*
X127266272Y-72351764D01*
X127219673Y-72258179D01*
X127096764Y-72095421D01*
X127096762Y-72095418D01*
X126946041Y-71958019D01*
X126946039Y-71958017D01*
X126772642Y-71850655D01*
X126772635Y-71850651D01*
X126653902Y-71804654D01*
X126582456Y-71776976D01*
X126381976Y-71739500D01*
X126178024Y-71739500D01*
X125977544Y-71776976D01*
X125977541Y-71776976D01*
X125977541Y-71776977D01*
X125787364Y-71850651D01*
X125787359Y-71850654D01*
X125735174Y-71882965D01*
X125667813Y-71901519D01*
X125601114Y-71880710D01*
X125556253Y-71827144D01*
X125550128Y-71809647D01*
X125535114Y-71753610D01*
X125526450Y-71721270D01*
X125525979Y-71719380D01*
X125525963Y-71719341D01*
X125525517Y-71718582D01*
X125510643Y-71692819D01*
X125499100Y-71672826D01*
X125476889Y-71634350D01*
X125476512Y-71633684D01*
X125476482Y-71633644D01*
X125441343Y-71598506D01*
X125441338Y-71598498D01*
X125441337Y-71598500D01*
X124757737Y-70914812D01*
X124724256Y-70853486D01*
X124729245Y-70783795D01*
X124734424Y-70771864D01*
X124770582Y-70699250D01*
X124826397Y-70503083D01*
X124845215Y-70300000D01*
X124845215Y-70299999D01*
X125174785Y-70299999D01*
X125174785Y-70300000D01*
X125193602Y-70503082D01*
X125249417Y-70699247D01*
X125249422Y-70699260D01*
X125340327Y-70881821D01*
X125463237Y-71044581D01*
X125613958Y-71181980D01*
X125613960Y-71181982D01*
X125691067Y-71229724D01*
X125787363Y-71289348D01*
X125977544Y-71363024D01*
X126178024Y-71400500D01*
X126178026Y-71400500D01*
X126381974Y-71400500D01*
X126381976Y-71400500D01*
X126582456Y-71363024D01*
X126772637Y-71289348D01*
X126946041Y-71181981D01*
X127096764Y-71044579D01*
X127219673Y-70881821D01*
X127310582Y-70699250D01*
X127366397Y-70503083D01*
X127385215Y-70300000D01*
X127385215Y-70299999D01*
X127714785Y-70299999D01*
X127714785Y-70300000D01*
X127733602Y-70503082D01*
X127789417Y-70699247D01*
X127789422Y-70699260D01*
X127880327Y-70881821D01*
X128003237Y-71044581D01*
X128153958Y-71181980D01*
X128153960Y-71181982D01*
X128231067Y-71229724D01*
X128327363Y-71289348D01*
X128517544Y-71363024D01*
X128718024Y-71400500D01*
X128718026Y-71400500D01*
X128921974Y-71400500D01*
X128921976Y-71400500D01*
X129122456Y-71363024D01*
X129312637Y-71289348D01*
X129486041Y-71181981D01*
X129636764Y-71044579D01*
X129759673Y-70881821D01*
X129850582Y-70699250D01*
X129906397Y-70503083D01*
X129925215Y-70300000D01*
X129906397Y-70096917D01*
X129850582Y-69900750D01*
X129824284Y-69847937D01*
X129802982Y-69805156D01*
X129759673Y-69718179D01*
X129646220Y-69567943D01*
X129636762Y-69555418D01*
X129486041Y-69418019D01*
X129486039Y-69418017D01*
X129312642Y-69310655D01*
X129312635Y-69310651D01*
X129173674Y-69256818D01*
X129122456Y-69236976D01*
X128921976Y-69199500D01*
X128718024Y-69199500D01*
X128517544Y-69236976D01*
X128517541Y-69236976D01*
X128517541Y-69236977D01*
X128327364Y-69310651D01*
X128327357Y-69310655D01*
X128153960Y-69418017D01*
X128153958Y-69418019D01*
X128003237Y-69555418D01*
X127880327Y-69718178D01*
X127789422Y-69900739D01*
X127789417Y-69900752D01*
X127733602Y-70096917D01*
X127714785Y-70299999D01*
X127385215Y-70299999D01*
X127366397Y-70096917D01*
X127310582Y-69900750D01*
X127284284Y-69847937D01*
X127262982Y-69805156D01*
X127219673Y-69718179D01*
X127106220Y-69567943D01*
X127096762Y-69555418D01*
X126946041Y-69418019D01*
X126946039Y-69418017D01*
X126772642Y-69310655D01*
X126772635Y-69310651D01*
X126633674Y-69256818D01*
X126582456Y-69236976D01*
X126381976Y-69199500D01*
X126178024Y-69199500D01*
X125977544Y-69236976D01*
X125977541Y-69236976D01*
X125977541Y-69236977D01*
X125787364Y-69310651D01*
X125787357Y-69310655D01*
X125613960Y-69418017D01*
X125613958Y-69418019D01*
X125463237Y-69555418D01*
X125340327Y-69718178D01*
X125249422Y-69900739D01*
X125249417Y-69900752D01*
X125193602Y-70096917D01*
X125174785Y-70299999D01*
X124845215Y-70299999D01*
X124826397Y-70096917D01*
X124770582Y-69900750D01*
X124744284Y-69847937D01*
X124722982Y-69805156D01*
X124679673Y-69718179D01*
X124566220Y-69567943D01*
X124556762Y-69555418D01*
X124406041Y-69418019D01*
X124406039Y-69418017D01*
X124232642Y-69310655D01*
X124232635Y-69310651D01*
X124093674Y-69256818D01*
X124042456Y-69236976D01*
X123841976Y-69199500D01*
X123638024Y-69199500D01*
X123437544Y-69236976D01*
X123437541Y-69236976D01*
X123437541Y-69236977D01*
X123247364Y-69310651D01*
X123247357Y-69310655D01*
X123073960Y-69418017D01*
X123073958Y-69418019D01*
X122923237Y-69555418D01*
X122800327Y-69718178D01*
X122709422Y-69900739D01*
X122709417Y-69900752D01*
X122655082Y-70091717D01*
X122623497Y-70145463D01*
X122505881Y-70263079D01*
X122444558Y-70296564D01*
X122374866Y-70291580D01*
X122318933Y-70249708D01*
X122294729Y-70186839D01*
X122294553Y-70184942D01*
X122286397Y-70096917D01*
X122230582Y-69900750D01*
X122204284Y-69847937D01*
X122182982Y-69805156D01*
X122139673Y-69718179D01*
X122026220Y-69567943D01*
X122016762Y-69555418D01*
X121866041Y-69418019D01*
X121866039Y-69418017D01*
X121692642Y-69310655D01*
X121692635Y-69310651D01*
X121553674Y-69256818D01*
X121502456Y-69236976D01*
X121301976Y-69199500D01*
X121098024Y-69199500D01*
X120897544Y-69236976D01*
X120897541Y-69236976D01*
X120897541Y-69236977D01*
X120707364Y-69310651D01*
X120707357Y-69310655D01*
X120533960Y-69418017D01*
X120533958Y-69418019D01*
X120383237Y-69555418D01*
X120260327Y-69718178D01*
X120169422Y-69900739D01*
X120169417Y-69900752D01*
X120113602Y-70096917D01*
X120094785Y-70299999D01*
X120094785Y-70300000D01*
X120113602Y-70503082D01*
X120169417Y-70699247D01*
X120169422Y-70699260D01*
X120260327Y-70881821D01*
X120383237Y-71044581D01*
X120423794Y-71081553D01*
X120460076Y-71141264D01*
X120458315Y-71211112D01*
X120419072Y-71268919D01*
X120402258Y-71280576D01*
X120369436Y-71299526D01*
X119629524Y-72039438D01*
X119624579Y-72045884D01*
X119622129Y-72044004D01*
X119582148Y-72082123D01*
X119513541Y-72095343D01*
X119448677Y-72069372D01*
X119441795Y-72063542D01*
X119326041Y-71958019D01*
X119326039Y-71958017D01*
X119152642Y-71850655D01*
X119152635Y-71850651D01*
X119033902Y-71804654D01*
X118962456Y-71776976D01*
X118761976Y-71739500D01*
X118558024Y-71739500D01*
X118357544Y-71776976D01*
X118357541Y-71776976D01*
X118357541Y-71776977D01*
X118167364Y-71850651D01*
X118167357Y-71850655D01*
X117993960Y-71958017D01*
X117993958Y-71958019D01*
X117843237Y-72095418D01*
X117720327Y-72258178D01*
X117636112Y-72427304D01*
X117588609Y-72478541D01*
X117564328Y-72489667D01*
X117563060Y-72490089D01*
X117561908Y-72490652D01*
X117559603Y-72492085D01*
X117520777Y-72514501D01*
X117520776Y-72514503D01*
X117477438Y-72539525D01*
X117477435Y-72539527D01*
X117477432Y-72539529D01*
X117477430Y-72539530D01*
X117477426Y-72539534D01*
X117426976Y-72589987D01*
X117426975Y-72589987D01*
X117407527Y-72609436D01*
X117407523Y-72609438D01*
X117407524Y-72609439D01*
X112725028Y-77292208D01*
X112663706Y-77325694D01*
X112607673Y-77324927D01*
X112603268Y-77323841D01*
X112594985Y-77321800D01*
X112437015Y-77321800D01*
X112437014Y-77321800D01*
X112283634Y-77359603D01*
X112143761Y-77433015D01*
X112143759Y-77433017D01*
X112081726Y-77487973D01*
X112018493Y-77517694D01*
X111949230Y-77508510D01*
X111895927Y-77463337D01*
X111875507Y-77396518D01*
X111875500Y-77395157D01*
X111875500Y-76999505D01*
X111895185Y-76932466D01*
X111947989Y-76886711D01*
X111999488Y-76875505D01*
X112000603Y-76875504D01*
X112000604Y-76875505D01*
X112049995Y-76875500D01*
X112050041Y-76875500D01*
X112099436Y-76875500D01*
X112099474Y-76875495D01*
X112099475Y-76875495D01*
X112111805Y-76872189D01*
X112148798Y-76862273D01*
X112148798Y-76862274D01*
X112148807Y-76862269D01*
X112194938Y-76849910D01*
X112194943Y-76849906D01*
X112194950Y-76849905D01*
X112194966Y-76849898D01*
X112194968Y-76849896D01*
X112194974Y-76849895D01*
X112235209Y-76826659D01*
X112278780Y-76801503D01*
X112280572Y-76800512D01*
X112280577Y-76800508D01*
X112281852Y-76799191D01*
X112313800Y-76767236D01*
X112313801Y-76767235D01*
X112313803Y-76767237D01*
X112313810Y-76767225D01*
X112350475Y-76730562D01*
X112350476Y-76730559D01*
X112357039Y-76723997D01*
X112357099Y-76723927D01*
X113262548Y-75818288D01*
X113298857Y-75781979D01*
X113300516Y-75780384D01*
X113300522Y-75780377D01*
X113301637Y-75778357D01*
X113321434Y-75744058D01*
X113321442Y-75744050D01*
X113321440Y-75744049D01*
X113325465Y-75737076D01*
X113349661Y-75695167D01*
X113349911Y-75694744D01*
X113349914Y-75694736D01*
X113349922Y-75694704D01*
X113349925Y-75694700D01*
X113362249Y-75648687D01*
X113375500Y-75599235D01*
X113375500Y-75599232D01*
X113375505Y-75599195D01*
X113375500Y-75550090D01*
X113375500Y-74899500D01*
X113395185Y-74832461D01*
X113447989Y-74786706D01*
X113499500Y-74775500D01*
X113949434Y-74775500D01*
X113949436Y-74775500D01*
X114006994Y-74760077D01*
X114019158Y-74756818D01*
X114025602Y-74755091D01*
X114044938Y-74749910D01*
X114130562Y-74700475D01*
X114200475Y-74630562D01*
X115200475Y-73630562D01*
X115249911Y-73544937D01*
X115275500Y-73449436D01*
X115275500Y-73350564D01*
X115275500Y-72506899D01*
X115295185Y-72439860D01*
X115311819Y-72419218D01*
X115719218Y-72011819D01*
X115780541Y-71978334D01*
X115806899Y-71975500D01*
X116797435Y-71975500D01*
X116797436Y-71975500D01*
X116845186Y-71962705D01*
X116892938Y-71949910D01*
X116978562Y-71900475D01*
X117048475Y-71830562D01*
X117244217Y-71634818D01*
X117305540Y-71601334D01*
X117331898Y-71598500D01*
X117478985Y-71598500D01*
X117632365Y-71560696D01*
X117655339Y-71548638D01*
X117772240Y-71487283D01*
X117890483Y-71382530D01*
X117951428Y-71294235D01*
X118005708Y-71250247D01*
X118075156Y-71242587D01*
X118118751Y-71259249D01*
X118167363Y-71289348D01*
X118357544Y-71363024D01*
X118558024Y-71400500D01*
X118558026Y-71400500D01*
X118761974Y-71400500D01*
X118761976Y-71400500D01*
X118962456Y-71363024D01*
X119152637Y-71289348D01*
X119326041Y-71181981D01*
X119476764Y-71044579D01*
X119599673Y-70881821D01*
X119690582Y-70699250D01*
X119746397Y-70503083D01*
X119765215Y-70300000D01*
X119746397Y-70096917D01*
X119690582Y-69900750D01*
X119664284Y-69847937D01*
X119642982Y-69805156D01*
X119599673Y-69718179D01*
X119486220Y-69567943D01*
X119476762Y-69555418D01*
X119326041Y-69418019D01*
X119326039Y-69418017D01*
X119152642Y-69310655D01*
X119152635Y-69310651D01*
X119013674Y-69256818D01*
X118962456Y-69236976D01*
X118761976Y-69199500D01*
X118558024Y-69199500D01*
X118357544Y-69236976D01*
X118357541Y-69236976D01*
X118357541Y-69236977D01*
X118167364Y-69310651D01*
X118167357Y-69310655D01*
X117993960Y-69418017D01*
X117993958Y-69418019D01*
X117843237Y-69555418D01*
X117720327Y-69718178D01*
X117629422Y-69900739D01*
X117629417Y-69900752D01*
X117573602Y-70096917D01*
X117565446Y-70184942D01*
X117539660Y-70249879D01*
X117482859Y-70290566D01*
X117441975Y-70297500D01*
X117338024Y-70297500D01*
X117270985Y-70277815D01*
X117225230Y-70225011D01*
X117214553Y-70184940D01*
X117206397Y-70096918D01*
X117204917Y-70091717D01*
X117150582Y-69900750D01*
X117124284Y-69847937D01*
X117102982Y-69805156D01*
X117059673Y-69718179D01*
X116946220Y-69567943D01*
X116936762Y-69555418D01*
X116786041Y-69418019D01*
X116786039Y-69418017D01*
X116612642Y-69310655D01*
X116612635Y-69310651D01*
X116473674Y-69256818D01*
X116422456Y-69236976D01*
X116221976Y-69199500D01*
X116018024Y-69199500D01*
X115817544Y-69236976D01*
X115817541Y-69236976D01*
X115817541Y-69236977D01*
X115627364Y-69310651D01*
X115627357Y-69310655D01*
X115453960Y-69418017D01*
X115453958Y-69418019D01*
X115303237Y-69555418D01*
X115180327Y-69718178D01*
X115089422Y-69900739D01*
X115089417Y-69900752D01*
X115033602Y-70096917D01*
X115014785Y-70299999D01*
X115014785Y-70300000D01*
X115033602Y-70503082D01*
X115089417Y-70699247D01*
X115089422Y-70699260D01*
X115180327Y-70881821D01*
X115303237Y-71044581D01*
X115375847Y-71110773D01*
X115412129Y-71170484D01*
X115410368Y-71240331D01*
X115374530Y-71293123D01*
X115375185Y-71293778D01*
X115371761Y-71297201D01*
X115371125Y-71298139D01*
X115369657Y-71299305D01*
X114599525Y-72069437D01*
X114596503Y-72074672D01*
X114545935Y-72122886D01*
X114477327Y-72136107D01*
X114412463Y-72110137D01*
X114397480Y-72096207D01*
X114396766Y-72095424D01*
X114396764Y-72095421D01*
X114396760Y-72095418D01*
X114396758Y-72095415D01*
X114246041Y-71958019D01*
X114246039Y-71958017D01*
X114072642Y-71850655D01*
X114072635Y-71850651D01*
X113953902Y-71804654D01*
X113882456Y-71776976D01*
X113681976Y-71739500D01*
X113478024Y-71739500D01*
X113277544Y-71776976D01*
X113277541Y-71776976D01*
X113277541Y-71776977D01*
X113087364Y-71850651D01*
X113087357Y-71850655D01*
X112913960Y-71958017D01*
X112913958Y-71958019D01*
X112763237Y-72095418D01*
X112640327Y-72258178D01*
X112549422Y-72440739D01*
X112549417Y-72440752D01*
X112493602Y-72636917D01*
X112474785Y-72839999D01*
X112474785Y-72840000D01*
X112493602Y-73043082D01*
X112549417Y-73239247D01*
X112549422Y-73239260D01*
X112602889Y-73346635D01*
X112640327Y-73421821D01*
X112720346Y-73527784D01*
X112747932Y-73564313D01*
X112772624Y-73629674D01*
X112758059Y-73698009D01*
X112708862Y-73747622D01*
X112640652Y-73762760D01*
X112619304Y-73759437D01*
X112578986Y-73749500D01*
X112578985Y-73749500D01*
X112421015Y-73749500D01*
X112421014Y-73749500D01*
X112267634Y-73787303D01*
X112127762Y-73860715D01*
X112009516Y-73965470D01*
X112007089Y-73968987D01*
X112005742Y-73970938D01*
X111951463Y-74014929D01*
X111903692Y-74024500D01*
X111653271Y-74024500D01*
X111586232Y-74004815D01*
X111540477Y-73952011D01*
X111530533Y-73882853D01*
X111559558Y-73819297D01*
X111587993Y-73795073D01*
X111593891Y-73791421D01*
X111706041Y-73721981D01*
X111856764Y-73584579D01*
X111979673Y-73421821D01*
X112070582Y-73239250D01*
X112126397Y-73043083D01*
X112145215Y-72840000D01*
X112126397Y-72636917D01*
X112070582Y-72440750D01*
X112059860Y-72419218D01*
X112026272Y-72351764D01*
X111979673Y-72258179D01*
X111856764Y-72095421D01*
X111856762Y-72095418D01*
X111706041Y-71958019D01*
X111706039Y-71958017D01*
X111532642Y-71850655D01*
X111532635Y-71850651D01*
X111413902Y-71804654D01*
X111342456Y-71776976D01*
X111141976Y-71739500D01*
X110938024Y-71739500D01*
X110737544Y-71776976D01*
X110737541Y-71776976D01*
X110737541Y-71776977D01*
X110547364Y-71850651D01*
X110547357Y-71850655D01*
X110373960Y-71958017D01*
X110373958Y-71958019D01*
X110223237Y-72095418D01*
X110100327Y-72258178D01*
X110009422Y-72440739D01*
X110009417Y-72440752D01*
X109953602Y-72636917D01*
X109934785Y-72839999D01*
X109934785Y-72840000D01*
X109953602Y-73043082D01*
X110009417Y-73239247D01*
X110009422Y-73239260D01*
X110100327Y-73421821D01*
X110223237Y-73584581D01*
X110319900Y-73672700D01*
X110373959Y-73721981D01*
X110486109Y-73791421D01*
X110492007Y-73795073D01*
X110538642Y-73847101D01*
X110549746Y-73916083D01*
X110521793Y-73980117D01*
X110463658Y-74018873D01*
X110426729Y-74024500D01*
X109950564Y-74024500D01*
X109902812Y-74037295D01*
X109902811Y-74037294D01*
X109855063Y-74050089D01*
X109855062Y-74050089D01*
X109769435Y-74099527D01*
X108180782Y-75688181D01*
X108119459Y-75721666D01*
X108093101Y-75724500D01*
X106596308Y-75724500D01*
X106529269Y-75704815D01*
X106494257Y-75670938D01*
X106490483Y-75665470D01*
X106372240Y-75560717D01*
X106372238Y-75560716D01*
X106372237Y-75560715D01*
X106232365Y-75487303D01*
X106078986Y-75449500D01*
X106078985Y-75449500D01*
X105921015Y-75449500D01*
X105921014Y-75449500D01*
X105767634Y-75487303D01*
X105627762Y-75560715D01*
X105509516Y-75665471D01*
X105419781Y-75795475D01*
X105419780Y-75795476D01*
X105363762Y-75943181D01*
X105344722Y-76099999D01*
X105344722Y-76100000D01*
X105363762Y-76256818D01*
X105408773Y-76375500D01*
X105419780Y-76404523D01*
X105509517Y-76534530D01*
X105627760Y-76639283D01*
X105627762Y-76639284D01*
X105767634Y-76712696D01*
X105921014Y-76750500D01*
X105921015Y-76750500D01*
X106078985Y-76750500D01*
X106232365Y-76712696D01*
X106280979Y-76687181D01*
X106372240Y-76639283D01*
X106490483Y-76534530D01*
X106494257Y-76529061D01*
X106548537Y-76485071D01*
X106596308Y-76475500D01*
X107694101Y-76475500D01*
X107761140Y-76495185D01*
X107806895Y-76547989D01*
X107816839Y-76617147D01*
X107787814Y-76680703D01*
X107781782Y-76687181D01*
X105232782Y-79236181D01*
X105171459Y-79269666D01*
X105145101Y-79272500D01*
X104529227Y-79272500D01*
X104525764Y-79272498D01*
X104480760Y-79272475D01*
X104480759Y-79272475D01*
X104480747Y-79272475D01*
X104480568Y-79272498D01*
X104443477Y-79282436D01*
X104432751Y-79285311D01*
X104385228Y-79298018D01*
X104385076Y-79298081D01*
X104341947Y-79322982D01*
X104341892Y-79323014D01*
X104313838Y-79339192D01*
X104299568Y-79347421D01*
X104299451Y-79347511D01*
X104264127Y-79382834D01*
X104264083Y-79382878D01*
X103942759Y-79703866D01*
X103881419Y-79737319D01*
X103811730Y-79732298D01*
X103797498Y-79725936D01*
X103755447Y-79703866D01*
X103714365Y-79682304D01*
X103714362Y-79682303D01*
X103560986Y-79644500D01*
X103560985Y-79644500D01*
X103403015Y-79644500D01*
X103403014Y-79644500D01*
X103249634Y-79682303D01*
X103109762Y-79755715D01*
X102991516Y-79860471D01*
X102901781Y-79990475D01*
X102901780Y-79990476D01*
X102845762Y-80138181D01*
X102826722Y-80294999D01*
X102826722Y-80295000D01*
X102845762Y-80451818D01*
X102901780Y-80599523D01*
X102901781Y-80599524D01*
X102991517Y-80729531D01*
X103064726Y-80794386D01*
X103101853Y-80853574D01*
X103106500Y-80887202D01*
X103106500Y-81182564D01*
X103106500Y-81281436D01*
X103110997Y-81298217D01*
X103111601Y-81300473D01*
X103120275Y-81332842D01*
X103124500Y-81364936D01*
X103124500Y-82142499D01*
X103124449Y-82143277D01*
X103124500Y-82200333D01*
X103124500Y-82386849D01*
X103104815Y-82453888D01*
X103082727Y-82479664D01*
X102991518Y-82560468D01*
X102901781Y-82690475D01*
X102901780Y-82690476D01*
X102845762Y-82838181D01*
X102826722Y-82994999D01*
X102826722Y-82995000D01*
X102845762Y-83151818D01*
X102895071Y-83281834D01*
X102901780Y-83299523D01*
X102991517Y-83429530D01*
X103109760Y-83534283D01*
X103109762Y-83534284D01*
X103249634Y-83607696D01*
X103403014Y-83645500D01*
X103403015Y-83645500D01*
X103560985Y-83645500D01*
X103714365Y-83607696D01*
X103784608Y-83570829D01*
X103854240Y-83534283D01*
X103972483Y-83429530D01*
X104062220Y-83299523D01*
X104118237Y-83151818D01*
X104137278Y-82995000D01*
X104136344Y-82987303D01*
X104118237Y-82838181D01*
X104089572Y-82762599D01*
X104062220Y-82690477D01*
X104000209Y-82600639D01*
X103978327Y-82534286D01*
X103995792Y-82466634D01*
X104047060Y-82419164D01*
X104102260Y-82406200D01*
X109440428Y-82406200D01*
X109507467Y-82425885D01*
X109553222Y-82478689D01*
X109563524Y-82545146D01*
X109544722Y-82699999D01*
X109544722Y-82700000D01*
X109563762Y-82856818D01*
X109613249Y-82987303D01*
X109619780Y-83004523D01*
X109709517Y-83134530D01*
X109827760Y-83239283D01*
X109827762Y-83239284D01*
X109967634Y-83312696D01*
X110121014Y-83350500D01*
X110121015Y-83350500D01*
X110278985Y-83350500D01*
X110432365Y-83312696D01*
X110457464Y-83299523D01*
X110572240Y-83239283D01*
X110690483Y-83134530D01*
X110694257Y-83129061D01*
X110748537Y-83085071D01*
X110796308Y-83075500D01*
X111303692Y-83075500D01*
X111370731Y-83095185D01*
X111405742Y-83129061D01*
X111408163Y-83132569D01*
X111409515Y-83134528D01*
X111409517Y-83134530D01*
X111527760Y-83239283D01*
X111527762Y-83239284D01*
X111667634Y-83312696D01*
X111821014Y-83350500D01*
X111821015Y-83350500D01*
X111978985Y-83350500D01*
X112132365Y-83312696D01*
X112157464Y-83299523D01*
X112272240Y-83239283D01*
X112390483Y-83134530D01*
X112480220Y-83004523D01*
X112536237Y-82856818D01*
X112555278Y-82700000D01*
X112554122Y-82690476D01*
X112536476Y-82545146D01*
X112547937Y-82476223D01*
X112594841Y-82424437D01*
X112659572Y-82406200D01*
X113956813Y-82406200D01*
X114023852Y-82425885D01*
X114069607Y-82478689D01*
X114072755Y-82486229D01*
X114096421Y-82548630D01*
X114119780Y-82610223D01*
X114209517Y-82740230D01*
X114327760Y-82844983D01*
X114327762Y-82844984D01*
X114467634Y-82918396D01*
X114621014Y-82956200D01*
X114621015Y-82956200D01*
X114778985Y-82956200D01*
X114932365Y-82918396D01*
X114976035Y-82895476D01*
X115072240Y-82844983D01*
X115190483Y-82740230D01*
X115280220Y-82610223D01*
X115321997Y-82500065D01*
X115364173Y-82444364D01*
X115429771Y-82420306D01*
X115497961Y-82435533D01*
X115525619Y-82456356D01*
X115744181Y-82674918D01*
X115777666Y-82736241D01*
X115780500Y-82762599D01*
X115780500Y-88575500D01*
X115760815Y-88642539D01*
X115708011Y-88688294D01*
X115656500Y-88699500D01*
X115284752Y-88699500D01*
X115217713Y-88679815D01*
X115171958Y-88627011D01*
X115164977Y-88607594D01*
X115149910Y-88551362D01*
X115100475Y-88465738D01*
X115030562Y-88395825D01*
X114997344Y-88376646D01*
X114971674Y-88356950D01*
X112838028Y-86223710D01*
X112304533Y-85690317D01*
X112271043Y-85628998D01*
X112269111Y-85587685D01*
X112275278Y-85536900D01*
X112256237Y-85380082D01*
X112200220Y-85232377D01*
X112110483Y-85102370D01*
X111992240Y-84997617D01*
X111992238Y-84997616D01*
X111992237Y-84997615D01*
X111852365Y-84924203D01*
X111698986Y-84886400D01*
X111698985Y-84886400D01*
X111541015Y-84886400D01*
X111541014Y-84886400D01*
X111387634Y-84924203D01*
X111247762Y-84997615D01*
X111129516Y-85102371D01*
X111039781Y-85232375D01*
X111039780Y-85232376D01*
X110983762Y-85380081D01*
X110964722Y-85536899D01*
X110964722Y-85536900D01*
X110983762Y-85693718D01*
X111012763Y-85770185D01*
X111039780Y-85841423D01*
X111129517Y-85971430D01*
X111247760Y-86076183D01*
X111247762Y-86076184D01*
X111387634Y-86149596D01*
X111541014Y-86187400D01*
X111688180Y-86187400D01*
X111755219Y-86207085D01*
X111775853Y-86223710D01*
X113207230Y-87654815D01*
X113948381Y-88395826D01*
X114040383Y-88487810D01*
X114073874Y-88549130D01*
X114068896Y-88618823D01*
X114027030Y-88674760D01*
X113961568Y-88699183D01*
X113952710Y-88699500D01*
X113925323Y-88699500D01*
X113852264Y-88714032D01*
X113852260Y-88714033D01*
X113769399Y-88769399D01*
X113714033Y-88852260D01*
X113714032Y-88852264D01*
X113699500Y-88925321D01*
X113699500Y-90674678D01*
X113714032Y-90747735D01*
X113714033Y-90747739D01*
X113732405Y-90775235D01*
X113769399Y-90830601D01*
X113845130Y-90881202D01*
X113852260Y-90885966D01*
X113852264Y-90885967D01*
X113925321Y-90900499D01*
X113925324Y-90900500D01*
X115408010Y-90900500D01*
X115475049Y-90920185D01*
X115520804Y-90972989D01*
X115530748Y-91042147D01*
X115501723Y-91105703D01*
X115495682Y-91112191D01*
X114574096Y-92033573D01*
X114574015Y-92033646D01*
X114536234Y-92071428D01*
X114536225Y-92071438D01*
X114499536Y-92108118D01*
X114473969Y-92152402D01*
X114473963Y-92152412D01*
X114450094Y-92193743D01*
X114437776Y-92239715D01*
X114437774Y-92239724D01*
X114424500Y-92289245D01*
X114424500Y-92342075D01*
X114424494Y-92396451D01*
X114424500Y-92396540D01*
X114424500Y-92975500D01*
X114404815Y-93042539D01*
X114352011Y-93088294D01*
X114300500Y-93099500D01*
X113925323Y-93099500D01*
X113852264Y-93114032D01*
X113852260Y-93114033D01*
X113769399Y-93169399D01*
X113714033Y-93252260D01*
X113714032Y-93252264D01*
X113699500Y-93325321D01*
X113699500Y-95074678D01*
X113714032Y-95147735D01*
X113714033Y-95147739D01*
X113714034Y-95147740D01*
X113769399Y-95230601D01*
X113832458Y-95272735D01*
X113852260Y-95285966D01*
X113852264Y-95285967D01*
X113925321Y-95300499D01*
X113925324Y-95300500D01*
X113925326Y-95300500D01*
X115674676Y-95300500D01*
X115674677Y-95300499D01*
X115691719Y-95297109D01*
X115759719Y-95283584D01*
X115759977Y-95284883D01*
X115816438Y-95278805D01*
X115878922Y-95310071D01*
X115882120Y-95313157D01*
X116081781Y-95512819D01*
X116115266Y-95574142D01*
X116110282Y-95643834D01*
X116068410Y-95699767D01*
X116002946Y-95724184D01*
X115994100Y-95724500D01*
X109206900Y-95724500D01*
X109139861Y-95704815D01*
X109119219Y-95688181D01*
X108884517Y-95453480D01*
X108851032Y-95392157D01*
X108849102Y-95350857D01*
X108855278Y-95300000D01*
X108836237Y-95143182D01*
X108780220Y-94995477D01*
X108690483Y-94865470D01*
X108572240Y-94760717D01*
X108572238Y-94760716D01*
X108572237Y-94760715D01*
X108432365Y-94687303D01*
X108278986Y-94649500D01*
X108278985Y-94649500D01*
X108131899Y-94649500D01*
X108064860Y-94629815D01*
X108044218Y-94613181D01*
X107861819Y-94430782D01*
X107828334Y-94369459D01*
X107825500Y-94343101D01*
X107825500Y-88892202D01*
X107845185Y-88825163D01*
X107867274Y-88799386D01*
X107872536Y-88794725D01*
X107937722Y-88736976D01*
X107940482Y-88734531D01*
X107940483Y-88734530D01*
X108030220Y-88604523D01*
X108086237Y-88456818D01*
X108105278Y-88300000D01*
X108102768Y-88279324D01*
X108086237Y-88143181D01*
X108060568Y-88075499D01*
X108030220Y-87995477D01*
X107940483Y-87865470D01*
X107822240Y-87760717D01*
X107822238Y-87760716D01*
X107822237Y-87760715D01*
X107682365Y-87687303D01*
X107528986Y-87649500D01*
X107528985Y-87649500D01*
X107371015Y-87649500D01*
X107371014Y-87649500D01*
X107284201Y-87670897D01*
X107254527Y-87674500D01*
X104756899Y-87674500D01*
X104689860Y-87654815D01*
X104669218Y-87638181D01*
X102331036Y-85299999D01*
X108544722Y-85299999D01*
X108544722Y-85300000D01*
X108563762Y-85456818D01*
X108608121Y-85573781D01*
X108619780Y-85604523D01*
X108709517Y-85734530D01*
X108827760Y-85839283D01*
X108827762Y-85839284D01*
X108967634Y-85912696D01*
X109121014Y-85950500D01*
X109121015Y-85950500D01*
X109278985Y-85950500D01*
X109432365Y-85912696D01*
X109572240Y-85839283D01*
X109690483Y-85734530D01*
X109780220Y-85604523D01*
X109836237Y-85456818D01*
X109855278Y-85300000D01*
X109843733Y-85204913D01*
X109836237Y-85143181D01*
X109806349Y-85064373D01*
X109780220Y-84995477D01*
X109690483Y-84865470D01*
X109572240Y-84760717D01*
X109572238Y-84760716D01*
X109572237Y-84760715D01*
X109432365Y-84687303D01*
X109278986Y-84649500D01*
X109278985Y-84649500D01*
X109121015Y-84649500D01*
X109121014Y-84649500D01*
X108967634Y-84687303D01*
X108827762Y-84760715D01*
X108709516Y-84865471D01*
X108619781Y-84995475D01*
X108619780Y-84995476D01*
X108563762Y-85143181D01*
X108544722Y-85299999D01*
X102331036Y-85299999D01*
X97411819Y-80380782D01*
X97378334Y-80319459D01*
X97375500Y-80293101D01*
X97375500Y-73730733D01*
X97395185Y-73663694D01*
X97447989Y-73617939D01*
X97517147Y-73607995D01*
X97580703Y-73637020D01*
X97583038Y-73639096D01*
X97673958Y-73721980D01*
X97673960Y-73721982D01*
X97736520Y-73760717D01*
X97847363Y-73829348D01*
X98037544Y-73903024D01*
X98238024Y-73940500D01*
X98238026Y-73940500D01*
X98441974Y-73940500D01*
X98441976Y-73940500D01*
X98642456Y-73903024D01*
X98832637Y-73829348D01*
X99006041Y-73721981D01*
X99156764Y-73584579D01*
X99279673Y-73421821D01*
X99370582Y-73239250D01*
X99426397Y-73043083D01*
X99445215Y-72840000D01*
X99426397Y-72636917D01*
X99370582Y-72440750D01*
X99359860Y-72419218D01*
X99326272Y-72351764D01*
X99279673Y-72258179D01*
X99156764Y-72095421D01*
X99156762Y-72095418D01*
X99006041Y-71958019D01*
X99006039Y-71958017D01*
X98832642Y-71850655D01*
X98832635Y-71850651D01*
X98713902Y-71804654D01*
X98642456Y-71776976D01*
X98441976Y-71739500D01*
X98238024Y-71739500D01*
X98037544Y-71776976D01*
X98037541Y-71776976D01*
X98037541Y-71776977D01*
X97847364Y-71850651D01*
X97847357Y-71850655D01*
X97673962Y-71958016D01*
X97583038Y-72040904D01*
X97520233Y-72071520D01*
X97450846Y-72063322D01*
X97396906Y-72018912D01*
X97375539Y-71952390D01*
X97375500Y-71949266D01*
X97375500Y-71190733D01*
X97395185Y-71123694D01*
X97447989Y-71077939D01*
X97517147Y-71067995D01*
X97580703Y-71097020D01*
X97583038Y-71099096D01*
X97673958Y-71181980D01*
X97673960Y-71181982D01*
X97751067Y-71229724D01*
X97847363Y-71289348D01*
X98037544Y-71363024D01*
X98238024Y-71400500D01*
X98238026Y-71400500D01*
X98441974Y-71400500D01*
X98441976Y-71400500D01*
X98642456Y-71363024D01*
X98832637Y-71289348D01*
X99006041Y-71181981D01*
X99156764Y-71044579D01*
X99279673Y-70881821D01*
X99370582Y-70699250D01*
X99426397Y-70503083D01*
X99445215Y-70300000D01*
X99445215Y-70299999D01*
X99774785Y-70299999D01*
X99774785Y-70300000D01*
X99793602Y-70503082D01*
X99849417Y-70699247D01*
X99849422Y-70699260D01*
X99940327Y-70881821D01*
X100063237Y-71044581D01*
X100213958Y-71181980D01*
X100213960Y-71181982D01*
X100291067Y-71229724D01*
X100387363Y-71289348D01*
X100577544Y-71363024D01*
X100778024Y-71400500D01*
X100778026Y-71400500D01*
X100981974Y-71400500D01*
X100981976Y-71400500D01*
X101182456Y-71363024D01*
X101372637Y-71289348D01*
X101546041Y-71181981D01*
X101616962Y-71117327D01*
X101679766Y-71086711D01*
X101749153Y-71094908D01*
X101803093Y-71139318D01*
X101824461Y-71205840D01*
X101824500Y-71208965D01*
X101824500Y-71931034D01*
X101804815Y-71998073D01*
X101752011Y-72043828D01*
X101682853Y-72053772D01*
X101619297Y-72024747D01*
X101616962Y-72022672D01*
X101613726Y-72019722D01*
X101546041Y-71958019D01*
X101546038Y-71958017D01*
X101546037Y-71958016D01*
X101372642Y-71850655D01*
X101372635Y-71850651D01*
X101253902Y-71804654D01*
X101182456Y-71776976D01*
X100981976Y-71739500D01*
X100778024Y-71739500D01*
X100577544Y-71776976D01*
X100577541Y-71776976D01*
X100577541Y-71776977D01*
X100387364Y-71850651D01*
X100387357Y-71850655D01*
X100213960Y-71958017D01*
X100213958Y-71958019D01*
X100063237Y-72095418D01*
X99940327Y-72258178D01*
X99849422Y-72440739D01*
X99849417Y-72440752D01*
X99793602Y-72636917D01*
X99774785Y-72839999D01*
X99774785Y-72840000D01*
X99793602Y-73043082D01*
X99849417Y-73239247D01*
X99849422Y-73239260D01*
X99940327Y-73421821D01*
X100063237Y-73584581D01*
X100213958Y-73721980D01*
X100213960Y-73721982D01*
X100276520Y-73760717D01*
X100387363Y-73829348D01*
X100577544Y-73903024D01*
X100778024Y-73940500D01*
X100778026Y-73940500D01*
X100981974Y-73940500D01*
X100981976Y-73940500D01*
X101182456Y-73903024D01*
X101372637Y-73829348D01*
X101546041Y-73721981D01*
X101616962Y-73657327D01*
X101679766Y-73626711D01*
X101749153Y-73634908D01*
X101803093Y-73679318D01*
X101824461Y-73745840D01*
X101824500Y-73748965D01*
X101824500Y-74160307D01*
X101816442Y-74204278D01*
X101763763Y-74343181D01*
X101744722Y-74499999D01*
X101744722Y-74500000D01*
X101763762Y-74656818D01*
X101816349Y-74795476D01*
X101819780Y-74804523D01*
X101909517Y-74934530D01*
X102027760Y-75039283D01*
X102027762Y-75039284D01*
X102167634Y-75112696D01*
X102321014Y-75150500D01*
X102419101Y-75150500D01*
X102486140Y-75170185D01*
X102531895Y-75222989D01*
X102541839Y-75292147D01*
X102512814Y-75355703D01*
X102506787Y-75362175D01*
X101654507Y-76214455D01*
X100855781Y-77013181D01*
X100794458Y-77046666D01*
X100768100Y-77049500D01*
X100621014Y-77049500D01*
X100467634Y-77087303D01*
X100327762Y-77160715D01*
X100209516Y-77265471D01*
X100119781Y-77395475D01*
X100119780Y-77395476D01*
X100063762Y-77543181D01*
X100044722Y-77699999D01*
X100044722Y-77700000D01*
X100063762Y-77856818D01*
X100107559Y-77972299D01*
X100119780Y-78004523D01*
X100209517Y-78134530D01*
X100327760Y-78239283D01*
X100327762Y-78239284D01*
X100467634Y-78312696D01*
X100621014Y-78350500D01*
X100621015Y-78350500D01*
X100778985Y-78350500D01*
X100932365Y-78312696D01*
X101072240Y-78239283D01*
X101190483Y-78134530D01*
X101280220Y-78004523D01*
X101336237Y-77856818D01*
X101355278Y-77700000D01*
X101349102Y-77649144D01*
X101360561Y-77580224D01*
X101384514Y-77546521D01*
X103919218Y-75011819D01*
X103980541Y-74978334D01*
X104006899Y-74975500D01*
X104603692Y-74975500D01*
X104670731Y-74995185D01*
X104705742Y-75029061D01*
X104708163Y-75032569D01*
X104709515Y-75034528D01*
X104709517Y-75034530D01*
X104827760Y-75139283D01*
X104827762Y-75139284D01*
X104967634Y-75212696D01*
X105121014Y-75250500D01*
X105121015Y-75250500D01*
X105278985Y-75250500D01*
X105432365Y-75212696D01*
X105505140Y-75174500D01*
X105572240Y-75139283D01*
X105690483Y-75034530D01*
X105780220Y-74904523D01*
X105836237Y-74756818D01*
X105855278Y-74600000D01*
X105846064Y-74524111D01*
X105836237Y-74443181D01*
X105806765Y-74365470D01*
X105780220Y-74295477D01*
X105690483Y-74165470D01*
X105659072Y-74137642D01*
X105621947Y-74078455D01*
X105622714Y-74008589D01*
X105661131Y-73950229D01*
X105725001Y-73921904D01*
X105764079Y-73922938D01*
X105858024Y-73940500D01*
X105858026Y-73940500D01*
X106061974Y-73940500D01*
X106061976Y-73940500D01*
X106262456Y-73903024D01*
X106452637Y-73829348D01*
X106626041Y-73721981D01*
X106776764Y-73584579D01*
X106899673Y-73421821D01*
X106990582Y-73239250D01*
X107046397Y-73043083D01*
X107065215Y-72840000D01*
X107065215Y-72839999D01*
X107394785Y-72839999D01*
X107394785Y-72840000D01*
X107413602Y-73043082D01*
X107469417Y-73239247D01*
X107469422Y-73239260D01*
X107560327Y-73421821D01*
X107683237Y-73584581D01*
X107833958Y-73721980D01*
X107833960Y-73721982D01*
X107896520Y-73760717D01*
X108007363Y-73829348D01*
X108197544Y-73903024D01*
X108398024Y-73940500D01*
X108398026Y-73940500D01*
X108601974Y-73940500D01*
X108601976Y-73940500D01*
X108802456Y-73903024D01*
X108992637Y-73829348D01*
X109166041Y-73721981D01*
X109316764Y-73584579D01*
X109439673Y-73421821D01*
X109530582Y-73239250D01*
X109586397Y-73043083D01*
X109605215Y-72840000D01*
X109586397Y-72636917D01*
X109530582Y-72440750D01*
X109519860Y-72419218D01*
X109486272Y-72351764D01*
X109439673Y-72258179D01*
X109316764Y-72095421D01*
X109316762Y-72095418D01*
X109166041Y-71958019D01*
X109166039Y-71958017D01*
X108992642Y-71850655D01*
X108992635Y-71850651D01*
X108873902Y-71804654D01*
X108802456Y-71776976D01*
X108601976Y-71739500D01*
X108398024Y-71739500D01*
X108197544Y-71776976D01*
X108197541Y-71776976D01*
X108197541Y-71776977D01*
X108007364Y-71850651D01*
X108007357Y-71850655D01*
X107833960Y-71958017D01*
X107833958Y-71958019D01*
X107683237Y-72095418D01*
X107560327Y-72258178D01*
X107469422Y-72440739D01*
X107469417Y-72440752D01*
X107413602Y-72636917D01*
X107394785Y-72839999D01*
X107065215Y-72839999D01*
X107046397Y-72636917D01*
X106990582Y-72440750D01*
X106979860Y-72419218D01*
X106946272Y-72351764D01*
X106899673Y-72258179D01*
X106776764Y-72095421D01*
X106776762Y-72095418D01*
X106626041Y-71958019D01*
X106626039Y-71958017D01*
X106452642Y-71850655D01*
X106452635Y-71850651D01*
X106333902Y-71804654D01*
X106262456Y-71776976D01*
X106061976Y-71739500D01*
X105858024Y-71739500D01*
X105657544Y-71776976D01*
X105657541Y-71776976D01*
X105657541Y-71776977D01*
X105467364Y-71850651D01*
X105467357Y-71850655D01*
X105293960Y-71958017D01*
X105293958Y-71958019D01*
X105143237Y-72095418D01*
X105020327Y-72258178D01*
X104929422Y-72440739D01*
X104929417Y-72440752D01*
X104873602Y-72636917D01*
X104854785Y-72839999D01*
X104854785Y-72840000D01*
X104873602Y-73043082D01*
X104929417Y-73239247D01*
X104929422Y-73239260D01*
X105020327Y-73421821D01*
X105143237Y-73584581D01*
X105293958Y-73721980D01*
X105298535Y-73725437D01*
X105297231Y-73727163D01*
X105337509Y-73772093D01*
X105348618Y-73841074D01*
X105320670Y-73905110D01*
X105262537Y-73943871D01*
X105225600Y-73949500D01*
X105121014Y-73949500D01*
X104967634Y-73987303D01*
X104827762Y-74060715D01*
X104709516Y-74165470D01*
X104707089Y-74168987D01*
X104705742Y-74170938D01*
X104651463Y-74214929D01*
X104603692Y-74224500D01*
X103750564Y-74224500D01*
X103702812Y-74237295D01*
X103702811Y-74237294D01*
X103655063Y-74250089D01*
X103655062Y-74250089D01*
X103587530Y-74289079D01*
X103576450Y-74295477D01*
X103569435Y-74299527D01*
X103266016Y-74602946D01*
X103204693Y-74636431D01*
X103135001Y-74631447D01*
X103079068Y-74589575D01*
X103054651Y-74524111D01*
X103055240Y-74500314D01*
X103055278Y-74500001D01*
X103055278Y-74499999D01*
X103036237Y-74343181D01*
X103000932Y-74250090D01*
X102980220Y-74195477D01*
X102890483Y-74065470D01*
X102890482Y-74065469D01*
X102886222Y-74059297D01*
X102887610Y-74058338D01*
X102861780Y-74003392D01*
X102870959Y-73934128D01*
X102916128Y-73880822D01*
X102982946Y-73860399D01*
X103029107Y-73868763D01*
X103117544Y-73903024D01*
X103318024Y-73940500D01*
X103318026Y-73940500D01*
X103521974Y-73940500D01*
X103521976Y-73940500D01*
X103722456Y-73903024D01*
X103912637Y-73829348D01*
X104086041Y-73721981D01*
X104236764Y-73584579D01*
X104359673Y-73421821D01*
X104450582Y-73239250D01*
X104506397Y-73043083D01*
X104525215Y-72840000D01*
X104506397Y-72636917D01*
X104450582Y-72440750D01*
X104439860Y-72419218D01*
X104406272Y-72351764D01*
X104359673Y-72258179D01*
X104236764Y-72095421D01*
X104236762Y-72095418D01*
X104086041Y-71958019D01*
X104086039Y-71958017D01*
X103912642Y-71850655D01*
X103912635Y-71850651D01*
X103793902Y-71804654D01*
X103722456Y-71776976D01*
X103521976Y-71739500D01*
X103318024Y-71739500D01*
X103117544Y-71776976D01*
X103117541Y-71776976D01*
X103117541Y-71776977D01*
X102927364Y-71850651D01*
X102927357Y-71850655D01*
X102764777Y-71951320D01*
X102697416Y-71969875D01*
X102630717Y-71949067D01*
X102585856Y-71895502D01*
X102575500Y-71845893D01*
X102575500Y-71294106D01*
X102595185Y-71227067D01*
X102647989Y-71181312D01*
X102717147Y-71171368D01*
X102764774Y-71188677D01*
X102927363Y-71289348D01*
X103117544Y-71363024D01*
X103318024Y-71400500D01*
X103318026Y-71400500D01*
X103521974Y-71400500D01*
X103521976Y-71400500D01*
X103722456Y-71363024D01*
X103912637Y-71289348D01*
X104086041Y-71181981D01*
X104236764Y-71044579D01*
X104359673Y-70881821D01*
X104450582Y-70699250D01*
X104506397Y-70503083D01*
X104525215Y-70300000D01*
X104525215Y-70299999D01*
X104854785Y-70299999D01*
X104854785Y-70300000D01*
X104873602Y-70503082D01*
X104929417Y-70699247D01*
X104929422Y-70699260D01*
X105020327Y-70881821D01*
X105143237Y-71044581D01*
X105293958Y-71181980D01*
X105293960Y-71181982D01*
X105371067Y-71229724D01*
X105467363Y-71289348D01*
X105657544Y-71363024D01*
X105858024Y-71400500D01*
X105858026Y-71400500D01*
X106061974Y-71400500D01*
X106061976Y-71400500D01*
X106262456Y-71363024D01*
X106452637Y-71289348D01*
X106626041Y-71181981D01*
X106776764Y-71044579D01*
X106899673Y-70881821D01*
X106990582Y-70699250D01*
X107046397Y-70503083D01*
X107065215Y-70300000D01*
X107046397Y-70096917D01*
X106990582Y-69900750D01*
X106964284Y-69847937D01*
X106942982Y-69805156D01*
X106899673Y-69718179D01*
X106786220Y-69567943D01*
X106776762Y-69555418D01*
X106626041Y-69418019D01*
X106626039Y-69418017D01*
X106452642Y-69310655D01*
X106452635Y-69310651D01*
X106313674Y-69256818D01*
X106262456Y-69236976D01*
X106061976Y-69199500D01*
X105858024Y-69199500D01*
X105657544Y-69236976D01*
X105657541Y-69236976D01*
X105657541Y-69236977D01*
X105467364Y-69310651D01*
X105467357Y-69310655D01*
X105293960Y-69418017D01*
X105293958Y-69418019D01*
X105143237Y-69555418D01*
X105020327Y-69718178D01*
X104929422Y-69900739D01*
X104929417Y-69900752D01*
X104873602Y-70096917D01*
X104854785Y-70299999D01*
X104525215Y-70299999D01*
X104506397Y-70096917D01*
X104450582Y-69900750D01*
X104424284Y-69847937D01*
X104402982Y-69805156D01*
X104359673Y-69718179D01*
X104246220Y-69567943D01*
X104236762Y-69555418D01*
X104086041Y-69418019D01*
X104086039Y-69418017D01*
X103912642Y-69310655D01*
X103912635Y-69310651D01*
X103773674Y-69256818D01*
X103722456Y-69236976D01*
X103521976Y-69199500D01*
X103318024Y-69199500D01*
X103117544Y-69236976D01*
X103117541Y-69236976D01*
X103117541Y-69236977D01*
X102927364Y-69310651D01*
X102927357Y-69310655D01*
X102764777Y-69411320D01*
X102697416Y-69429875D01*
X102630717Y-69409067D01*
X102585856Y-69355502D01*
X102575500Y-69305893D01*
X102575500Y-69239691D01*
X102583557Y-69195723D01*
X102636237Y-69056818D01*
X102655278Y-68900000D01*
X102642587Y-68795475D01*
X102636237Y-68743181D01*
X102591227Y-68624500D01*
X102580220Y-68595477D01*
X102490483Y-68465470D01*
X102372240Y-68360717D01*
X102372238Y-68360716D01*
X102372237Y-68360715D01*
X102232365Y-68287303D01*
X102078986Y-68249500D01*
X102078985Y-68249500D01*
X101921015Y-68249500D01*
X101921014Y-68249500D01*
X101767634Y-68287303D01*
X101627762Y-68360715D01*
X101627760Y-68360717D01*
X101521109Y-68455201D01*
X101509516Y-68465471D01*
X101419781Y-68595475D01*
X101419780Y-68595476D01*
X101363762Y-68743181D01*
X101344722Y-68899999D01*
X101344722Y-68900000D01*
X101363762Y-69056816D01*
X101376446Y-69090261D01*
X101381812Y-69159925D01*
X101348663Y-69221430D01*
X101287525Y-69255251D01*
X101217807Y-69250648D01*
X101215710Y-69249858D01*
X101182461Y-69236977D01*
X101182456Y-69236976D01*
X100981976Y-69199500D01*
X100778024Y-69199500D01*
X100577544Y-69236976D01*
X100577541Y-69236976D01*
X100577541Y-69236977D01*
X100387364Y-69310651D01*
X100387357Y-69310655D01*
X100213960Y-69418017D01*
X100213958Y-69418019D01*
X100063237Y-69555418D01*
X99940327Y-69718178D01*
X99849422Y-69900739D01*
X99849417Y-69900752D01*
X99793602Y-70096917D01*
X99774785Y-70299999D01*
X99445215Y-70299999D01*
X99426397Y-70096917D01*
X99370582Y-69900750D01*
X99344284Y-69847937D01*
X99322982Y-69805156D01*
X99279673Y-69718179D01*
X99166220Y-69567943D01*
X99156762Y-69555418D01*
X99006041Y-69418019D01*
X99006039Y-69418017D01*
X98832642Y-69310655D01*
X98832635Y-69310651D01*
X98693674Y-69256818D01*
X98642456Y-69236976D01*
X98441976Y-69199500D01*
X98238024Y-69199500D01*
X98037544Y-69236976D01*
X98037541Y-69236976D01*
X98037541Y-69236977D01*
X97847364Y-69310651D01*
X97847357Y-69310655D01*
X97673960Y-69418017D01*
X97673958Y-69418019D01*
X97523237Y-69555418D01*
X97400329Y-69718176D01*
X97400327Y-69718179D01*
X97331813Y-69855773D01*
X97284313Y-69907008D01*
X97220815Y-69924500D01*
X96919185Y-69924500D01*
X96852146Y-69904815D01*
X96808186Y-69855774D01*
X96739673Y-69718179D01*
X96626220Y-69567943D01*
X96616762Y-69555418D01*
X96466041Y-69418019D01*
X96466039Y-69418017D01*
X96292642Y-69310655D01*
X96292635Y-69310651D01*
X96153674Y-69256818D01*
X96102456Y-69236976D01*
X95901976Y-69199500D01*
X95698024Y-69199500D01*
X95497544Y-69236976D01*
X95497541Y-69236976D01*
X95497541Y-69236977D01*
X95307364Y-69310651D01*
X95307357Y-69310655D01*
X95133960Y-69418017D01*
X95133958Y-69418019D01*
X94983237Y-69555418D01*
X94860327Y-69718178D01*
X94769422Y-69900739D01*
X94769417Y-69900752D01*
X94713602Y-70096917D01*
X94694785Y-70299999D01*
X94694785Y-70300000D01*
X94713602Y-70503082D01*
X94769417Y-70699247D01*
X94769422Y-70699260D01*
X94860327Y-70881821D01*
X94983237Y-71044581D01*
X95133958Y-71181980D01*
X95133960Y-71181982D01*
X95211067Y-71229724D01*
X95307363Y-71289348D01*
X95497544Y-71363024D01*
X95698024Y-71400500D01*
X95698026Y-71400500D01*
X95901974Y-71400500D01*
X95901976Y-71400500D01*
X96102456Y-71363024D01*
X96292637Y-71289348D01*
X96418993Y-71211112D01*
X96435223Y-71201063D01*
X96502583Y-71182508D01*
X96569283Y-71203316D01*
X96614144Y-71256881D01*
X96624500Y-71306490D01*
X96624500Y-80549435D01*
X96650090Y-80644938D01*
X96698929Y-80729530D01*
X96699526Y-80730563D01*
X104138181Y-88169218D01*
X104171666Y-88230541D01*
X104174500Y-88256899D01*
X104174500Y-89043101D01*
X104154815Y-89110140D01*
X104138181Y-89130782D01*
X100380782Y-92888181D01*
X100319459Y-92921666D01*
X100293101Y-92924500D01*
X97350561Y-92924500D01*
X97320534Y-92932546D01*
X97320533Y-92932545D01*
X97255066Y-92950088D01*
X97255059Y-92950091D01*
X97231126Y-92963908D01*
X97212250Y-92974807D01*
X97211050Y-92975500D01*
X97169440Y-92999522D01*
X97169435Y-92999526D01*
X96630782Y-93538181D01*
X96569459Y-93571666D01*
X96543101Y-93574500D01*
X95900323Y-93574500D01*
X95827264Y-93589032D01*
X95827260Y-93589033D01*
X95744399Y-93644399D01*
X95689033Y-93727260D01*
X95689032Y-93727264D01*
X95674500Y-93800321D01*
X95674500Y-95199678D01*
X95689032Y-95272735D01*
X95689033Y-95272739D01*
X95697871Y-95285966D01*
X95744399Y-95355601D01*
X95788475Y-95385051D01*
X95827260Y-95410966D01*
X95827264Y-95410967D01*
X95900321Y-95425499D01*
X95900324Y-95425500D01*
X95900326Y-95425500D01*
X97299676Y-95425500D01*
X97299677Y-95425499D01*
X97372740Y-95410966D01*
X97455601Y-95355601D01*
X97510966Y-95272740D01*
X97525500Y-95199674D01*
X97525500Y-94952687D01*
X97545185Y-94885648D01*
X97597989Y-94839893D01*
X97667147Y-94829949D01*
X97730703Y-94858974D01*
X97756887Y-94890687D01*
X97777144Y-94925773D01*
X97847130Y-95046992D01*
X97892476Y-95097354D01*
X97977302Y-95191564D01*
X97977305Y-95191566D01*
X97977308Y-95191569D01*
X98031031Y-95230601D01*
X98134702Y-95305923D01*
X98202926Y-95336297D01*
X98312429Y-95385051D01*
X98502726Y-95425500D01*
X98697274Y-95425500D01*
X98887571Y-95385051D01*
X99065299Y-95305922D01*
X99222692Y-95191569D01*
X99224816Y-95189211D01*
X99283081Y-95124500D01*
X99352870Y-95046992D01*
X99450144Y-94878508D01*
X99482069Y-94780252D01*
X99521506Y-94722576D01*
X99585864Y-94695377D01*
X99654711Y-94707291D01*
X99706187Y-94754535D01*
X99717931Y-94780252D01*
X99749855Y-94878507D01*
X99749857Y-94878511D01*
X99777144Y-94925773D01*
X99847130Y-95046992D01*
X99892476Y-95097354D01*
X99977302Y-95191564D01*
X99977305Y-95191566D01*
X99977308Y-95191569D01*
X100031031Y-95230601D01*
X100134702Y-95305923D01*
X100202926Y-95336297D01*
X100312429Y-95385051D01*
X100502726Y-95425500D01*
X100697274Y-95425500D01*
X100887571Y-95385051D01*
X101065299Y-95305922D01*
X101222692Y-95191569D01*
X101224816Y-95189211D01*
X101283081Y-95124500D01*
X101352870Y-95046992D01*
X101450144Y-94878508D01*
X101482069Y-94780252D01*
X101521506Y-94722576D01*
X101585864Y-94695377D01*
X101654711Y-94707291D01*
X101706187Y-94754535D01*
X101717931Y-94780252D01*
X101749855Y-94878507D01*
X101749857Y-94878511D01*
X101777144Y-94925773D01*
X101847130Y-95046992D01*
X101892476Y-95097354D01*
X101977302Y-95191564D01*
X101977305Y-95191566D01*
X101977308Y-95191569D01*
X102031031Y-95230601D01*
X102134702Y-95305923D01*
X102202926Y-95336297D01*
X102312429Y-95385051D01*
X102502726Y-95425500D01*
X102697274Y-95425500D01*
X102887571Y-95385051D01*
X103065299Y-95305922D01*
X103222692Y-95191569D01*
X103224816Y-95189211D01*
X103283081Y-95124500D01*
X103352870Y-95046992D01*
X103450144Y-94878508D01*
X103482069Y-94780252D01*
X103521506Y-94722576D01*
X103585864Y-94695377D01*
X103654711Y-94707291D01*
X103706187Y-94754535D01*
X103717931Y-94780252D01*
X103749855Y-94878507D01*
X103749857Y-94878511D01*
X103777144Y-94925773D01*
X103847130Y-95046992D01*
X103892476Y-95097354D01*
X103977302Y-95191564D01*
X103977305Y-95191566D01*
X103977308Y-95191569D01*
X104031031Y-95230601D01*
X104134702Y-95305923D01*
X104202926Y-95336297D01*
X104312429Y-95385051D01*
X104502726Y-95425500D01*
X104697274Y-95425500D01*
X104887571Y-95385051D01*
X105065299Y-95305922D01*
X105222692Y-95191569D01*
X105224816Y-95189211D01*
X105283081Y-95124500D01*
X105352870Y-95046992D01*
X105450144Y-94878508D01*
X105510262Y-94693482D01*
X105530598Y-94500000D01*
X105510262Y-94306518D01*
X105450144Y-94121492D01*
X105450143Y-94121491D01*
X105450143Y-94121489D01*
X105450142Y-94121488D01*
X105416202Y-94062703D01*
X105352870Y-93953008D01*
X105287766Y-93880703D01*
X105222697Y-93808435D01*
X105222694Y-93808433D01*
X105222693Y-93808432D01*
X105222692Y-93808431D01*
X105139501Y-93747989D01*
X105065297Y-93694076D01*
X104928848Y-93633326D01*
X104887571Y-93614949D01*
X104887569Y-93614948D01*
X104697274Y-93574500D01*
X104502726Y-93574500D01*
X104312431Y-93614948D01*
X104134702Y-93694076D01*
X103977305Y-93808433D01*
X103977302Y-93808435D01*
X103847129Y-93953009D01*
X103749857Y-94121488D01*
X103749856Y-94121489D01*
X103717931Y-94219748D01*
X103678494Y-94277423D01*
X103614135Y-94304622D01*
X103545289Y-94292708D01*
X103493813Y-94245464D01*
X103482069Y-94219748D01*
X103471084Y-94185940D01*
X103450144Y-94121492D01*
X103450143Y-94121491D01*
X103450143Y-94121489D01*
X103450142Y-94121488D01*
X103416202Y-94062703D01*
X103352870Y-93953008D01*
X103287766Y-93880703D01*
X103222697Y-93808435D01*
X103222694Y-93808433D01*
X103222693Y-93808432D01*
X103222692Y-93808431D01*
X103139501Y-93747989D01*
X103065297Y-93694076D01*
X102928848Y-93633326D01*
X102887571Y-93614949D01*
X102887569Y-93614948D01*
X102697274Y-93574500D01*
X102502726Y-93574500D01*
X102312431Y-93614948D01*
X102134702Y-93694076D01*
X101977305Y-93808433D01*
X101977302Y-93808435D01*
X101847129Y-93953009D01*
X101749857Y-94121488D01*
X101749856Y-94121489D01*
X101717931Y-94219748D01*
X101678494Y-94277423D01*
X101614135Y-94304622D01*
X101545289Y-94292708D01*
X101493813Y-94245464D01*
X101482069Y-94219748D01*
X101471084Y-94185940D01*
X101450144Y-94121492D01*
X101450143Y-94121491D01*
X101450143Y-94121489D01*
X101450142Y-94121488D01*
X101416202Y-94062703D01*
X101352870Y-93953008D01*
X101287766Y-93880703D01*
X101222697Y-93808435D01*
X101222694Y-93808433D01*
X101222693Y-93808432D01*
X101222692Y-93808431D01*
X101139501Y-93747989D01*
X101065297Y-93694076D01*
X100933740Y-93635504D01*
X100880503Y-93590254D01*
X100860181Y-93523405D01*
X100879226Y-93456181D01*
X100896494Y-93434543D01*
X104850472Y-89480565D01*
X104850474Y-89480563D01*
X104868068Y-89450090D01*
X104899910Y-89394938D01*
X104919370Y-89322314D01*
X104925500Y-89299436D01*
X104925500Y-89200564D01*
X104925500Y-88549500D01*
X104945185Y-88482461D01*
X104997989Y-88436706D01*
X105049500Y-88425500D01*
X106716295Y-88425500D01*
X106783334Y-88445185D01*
X106829089Y-88497989D01*
X106832232Y-88505518D01*
X106857412Y-88571910D01*
X106869780Y-88604523D01*
X106869781Y-88604524D01*
X106959517Y-88734531D01*
X107008001Y-88777482D01*
X107027464Y-88794725D01*
X107032726Y-88799386D01*
X107069853Y-88858574D01*
X107074500Y-88892202D01*
X107074500Y-94599435D01*
X107100090Y-94694938D01*
X107143102Y-94769437D01*
X107149526Y-94780563D01*
X107149528Y-94780566D01*
X107515481Y-95146518D01*
X107548966Y-95207841D01*
X107550896Y-95249143D01*
X107544722Y-95299997D01*
X107544722Y-95300000D01*
X107563762Y-95456818D01*
X107585001Y-95512819D01*
X107619780Y-95604523D01*
X107709517Y-95734530D01*
X107827760Y-95839283D01*
X107827762Y-95839284D01*
X107967634Y-95912696D01*
X108121014Y-95950500D01*
X108268100Y-95950500D01*
X108335139Y-95970185D01*
X108355781Y-95986819D01*
X108769432Y-96400471D01*
X108769435Y-96400473D01*
X108769437Y-96400475D01*
X108812250Y-96425192D01*
X108855062Y-96449910D01*
X108902813Y-96462705D01*
X108950564Y-96475500D01*
X108950565Y-96475500D01*
X108950566Y-96475500D01*
X130399435Y-96475500D01*
X130399436Y-96475500D01*
X130447186Y-96462705D01*
X130494938Y-96449910D01*
X130580562Y-96400475D01*
X130650475Y-96330562D01*
X133971515Y-93009520D01*
X134032836Y-92976037D01*
X134102528Y-92981021D01*
X134106636Y-92982638D01*
X134251918Y-93042816D01*
X134393223Y-93070923D01*
X134416228Y-93075499D01*
X134416232Y-93075500D01*
X134416233Y-93075500D01*
X134583768Y-93075500D01*
X134583769Y-93075499D01*
X134748082Y-93042816D01*
X134902863Y-92978703D01*
X135042162Y-92885626D01*
X135160626Y-92767162D01*
X135253703Y-92627863D01*
X135317816Y-92473082D01*
X135350500Y-92308767D01*
X135350500Y-91591233D01*
X135317816Y-91426918D01*
X135258404Y-91283485D01*
X135255774Y-91277135D01*
X139749500Y-91277135D01*
X139749500Y-92622870D01*
X139749501Y-92622876D01*
X139755908Y-92682483D01*
X139806202Y-92817328D01*
X139806206Y-92817335D01*
X139892452Y-92932544D01*
X139892454Y-92932546D01*
X140007664Y-93018793D01*
X140007671Y-93018797D01*
X140142517Y-93069091D01*
X140142516Y-93069091D01*
X140149444Y-93069835D01*
X140202127Y-93075500D01*
X140997872Y-93075499D01*
X141057483Y-93069091D01*
X141192331Y-93018796D01*
X141307546Y-92932546D01*
X141393796Y-92817331D01*
X141444091Y-92682483D01*
X141450500Y-92622873D01*
X141450499Y-91591228D01*
X141749500Y-91591228D01*
X141749500Y-92308771D01*
X141782182Y-92473074D01*
X141782184Y-92473082D01*
X141846295Y-92627860D01*
X141939373Y-92767162D01*
X142057837Y-92885626D01*
X142156211Y-92951357D01*
X142197137Y-92978703D01*
X142351918Y-93042816D01*
X142493223Y-93070923D01*
X142516228Y-93075499D01*
X142516232Y-93075500D01*
X142516233Y-93075500D01*
X142683768Y-93075500D01*
X142683769Y-93075499D01*
X142848082Y-93042816D01*
X143002863Y-92978703D01*
X143142162Y-92885626D01*
X143260626Y-92767162D01*
X143353703Y-92627863D01*
X143417816Y-92473082D01*
X143450500Y-92308767D01*
X143450500Y-91591233D01*
X143417816Y-91426918D01*
X143358404Y-91283485D01*
X143353704Y-91272139D01*
X143338778Y-91249801D01*
X143261579Y-91134264D01*
X143260626Y-91132837D01*
X143142162Y-91014373D01*
X143002860Y-90921295D01*
X142848082Y-90857184D01*
X142848074Y-90857182D01*
X142683771Y-90824500D01*
X142683767Y-90824500D01*
X142516233Y-90824500D01*
X142516228Y-90824500D01*
X142351925Y-90857182D01*
X142351917Y-90857184D01*
X142197139Y-90921295D01*
X142057837Y-91014373D01*
X141939373Y-91132837D01*
X141846295Y-91272139D01*
X141782184Y-91426917D01*
X141782182Y-91426925D01*
X141749500Y-91591228D01*
X141450499Y-91591228D01*
X141450499Y-91277128D01*
X141444091Y-91217517D01*
X141442621Y-91213577D01*
X141393797Y-91082671D01*
X141393793Y-91082664D01*
X141307547Y-90967455D01*
X141307544Y-90967452D01*
X141192335Y-90881206D01*
X141192328Y-90881202D01*
X141057482Y-90830908D01*
X141057483Y-90830908D01*
X140997883Y-90824501D01*
X140997881Y-90824500D01*
X140997873Y-90824500D01*
X140997864Y-90824500D01*
X140202129Y-90824500D01*
X140202123Y-90824501D01*
X140142516Y-90830908D01*
X140007671Y-90881202D01*
X140007664Y-90881206D01*
X139892455Y-90967452D01*
X139892452Y-90967455D01*
X139806206Y-91082664D01*
X139806202Y-91082671D01*
X139755908Y-91217517D01*
X139750036Y-91272139D01*
X139749501Y-91277123D01*
X139749500Y-91277135D01*
X135255774Y-91277135D01*
X135253704Y-91272139D01*
X135238778Y-91249801D01*
X135161579Y-91134264D01*
X135160626Y-91132837D01*
X135042162Y-91014373D01*
X134902860Y-90921295D01*
X134748082Y-90857184D01*
X134748074Y-90857182D01*
X134583771Y-90824500D01*
X134583767Y-90824500D01*
X134416233Y-90824500D01*
X134416228Y-90824500D01*
X134251925Y-90857182D01*
X134251917Y-90857184D01*
X134097139Y-90921295D01*
X133957837Y-91014373D01*
X133839373Y-91132837D01*
X133746295Y-91272139D01*
X133682184Y-91426917D01*
X133682182Y-91426925D01*
X133649500Y-91591228D01*
X133649500Y-92218100D01*
X133629815Y-92285139D01*
X133613181Y-92305781D01*
X133562180Y-92356782D01*
X133500857Y-92390267D01*
X133431165Y-92385283D01*
X133375232Y-92343411D01*
X133350815Y-92277947D01*
X133350499Y-92269101D01*
X133350499Y-91277129D01*
X133350498Y-91277123D01*
X133350497Y-91277116D01*
X133344091Y-91217517D01*
X133342621Y-91213577D01*
X133293797Y-91082671D01*
X133293793Y-91082664D01*
X133207547Y-90967455D01*
X133207544Y-90967452D01*
X133092335Y-90881206D01*
X133092328Y-90881202D01*
X132957482Y-90830908D01*
X132957483Y-90830908D01*
X132897883Y-90824501D01*
X132897881Y-90824500D01*
X132897873Y-90824500D01*
X132897864Y-90824500D01*
X132102129Y-90824500D01*
X132102123Y-90824501D01*
X132042516Y-90830908D01*
X131907671Y-90881202D01*
X131907664Y-90881206D01*
X131792455Y-90967452D01*
X131792452Y-90967455D01*
X131706206Y-91082664D01*
X131706202Y-91082671D01*
X131655908Y-91217517D01*
X131650036Y-91272139D01*
X131649501Y-91277123D01*
X131649500Y-91277135D01*
X131649500Y-92622870D01*
X131649501Y-92622876D01*
X131655908Y-92682483D01*
X131706202Y-92817328D01*
X131706206Y-92817335D01*
X131792452Y-92932544D01*
X131792454Y-92932546D01*
X131907664Y-93018793D01*
X131907671Y-93018797D01*
X131952618Y-93035561D01*
X132042517Y-93069091D01*
X132102127Y-93075500D01*
X132544101Y-93075499D01*
X132611139Y-93095183D01*
X132656894Y-93147987D01*
X132666838Y-93217146D01*
X132637813Y-93280702D01*
X132631781Y-93287180D01*
X130230782Y-95688181D01*
X130169459Y-95721666D01*
X130143101Y-95724500D01*
X128905699Y-95724500D01*
X128838660Y-95704815D01*
X128792905Y-95652011D01*
X128782961Y-95582853D01*
X128811986Y-95519297D01*
X128818018Y-95512819D01*
X129283847Y-95046990D01*
X129774475Y-94556362D01*
X129823911Y-94470737D01*
X129849500Y-94375236D01*
X129849500Y-94276364D01*
X129849500Y-92032705D01*
X129869185Y-91965666D01*
X129885817Y-91945025D01*
X133719213Y-88111816D01*
X133780537Y-88078333D01*
X133806892Y-88075500D01*
X142455435Y-88075500D01*
X142455436Y-88075500D01*
X142503186Y-88062705D01*
X142550938Y-88049910D01*
X142636562Y-88000475D01*
X142706475Y-87930562D01*
X144200474Y-86436563D01*
X144201648Y-86434530D01*
X144249910Y-86350938D01*
X144275500Y-86255435D01*
X144275500Y-84348260D01*
X144295185Y-84281221D01*
X144347989Y-84235466D01*
X144417147Y-84225522D01*
X144429153Y-84227858D01*
X144521015Y-84250500D01*
X144521017Y-84250500D01*
X144678985Y-84250500D01*
X144832365Y-84212696D01*
X144849757Y-84203568D01*
X144972240Y-84139283D01*
X145090483Y-84034530D01*
X145180220Y-83904523D01*
X145236237Y-83756818D01*
X145255278Y-83600000D01*
X145249822Y-83555061D01*
X145236237Y-83443181D01*
X145206130Y-83363796D01*
X145180220Y-83295477D01*
X145090483Y-83165470D01*
X144972240Y-83060717D01*
X144972238Y-83060716D01*
X144972237Y-83060715D01*
X144832365Y-82987303D01*
X144678986Y-82949500D01*
X144678985Y-82949500D01*
X144521015Y-82949500D01*
X144521014Y-82949500D01*
X144429174Y-82972136D01*
X144359372Y-82969067D01*
X144302310Y-82928747D01*
X144276105Y-82863977D01*
X144275500Y-82851739D01*
X144275500Y-82359673D01*
X144295185Y-82292634D01*
X144306686Y-82277445D01*
X144311481Y-82272032D01*
X144311481Y-82272031D01*
X144311483Y-82272030D01*
X144401220Y-82142023D01*
X144457237Y-81994318D01*
X144476278Y-81837500D01*
X144472888Y-81809576D01*
X144457237Y-81680681D01*
X144421778Y-81587184D01*
X144401220Y-81532977D01*
X144311483Y-81402970D01*
X144193240Y-81298217D01*
X144193238Y-81298216D01*
X144193237Y-81298215D01*
X144053365Y-81224803D01*
X143899986Y-81187000D01*
X143899985Y-81187000D01*
X143752982Y-81187000D01*
X143685943Y-81167315D01*
X143665292Y-81150673D01*
X143201810Y-80687101D01*
X143168331Y-80625774D01*
X143165500Y-80599428D01*
X143165500Y-80399999D01*
X144044722Y-80399999D01*
X144044722Y-80400000D01*
X144063762Y-80556818D01*
X144108773Y-80675500D01*
X144119780Y-80704523D01*
X144209517Y-80834530D01*
X144327760Y-80939283D01*
X144327762Y-80939284D01*
X144467634Y-81012696D01*
X144621014Y-81050500D01*
X144621015Y-81050500D01*
X144778985Y-81050500D01*
X144932365Y-81012696D01*
X144982151Y-80986566D01*
X145072240Y-80939283D01*
X145190483Y-80834530D01*
X145280220Y-80704523D01*
X145336237Y-80556818D01*
X145355278Y-80400000D01*
X145354665Y-80394947D01*
X145336237Y-80243181D01*
X145303348Y-80156460D01*
X145280220Y-80095477D01*
X145190483Y-79965470D01*
X145190481Y-79965468D01*
X145117273Y-79900611D01*
X145080146Y-79841422D01*
X145075500Y-79807796D01*
X145075500Y-79372919D01*
X145095185Y-79305880D01*
X145147989Y-79260125D01*
X145171969Y-79253374D01*
X145171703Y-79252295D01*
X145332365Y-79212696D01*
X145472240Y-79139283D01*
X145590483Y-79034530D01*
X145680220Y-78904523D01*
X145736237Y-78756818D01*
X145752904Y-78619552D01*
X145759483Y-78604264D01*
X145757023Y-78600436D01*
X145752904Y-78580447D01*
X145736237Y-78443181D01*
X145693959Y-78331704D01*
X145680220Y-78295477D01*
X145590483Y-78165470D01*
X145472240Y-78060717D01*
X145472238Y-78060716D01*
X145472237Y-78060715D01*
X145332365Y-77987303D01*
X145178986Y-77949500D01*
X145178985Y-77949500D01*
X145021015Y-77949500D01*
X145021014Y-77949500D01*
X144867634Y-77987303D01*
X144727762Y-78060715D01*
X144609516Y-78165471D01*
X144519781Y-78295475D01*
X144519780Y-78295476D01*
X144463762Y-78443181D01*
X144444722Y-78599999D01*
X144444722Y-78600001D01*
X144450896Y-78650854D01*
X144439435Y-78719777D01*
X144415483Y-78753478D01*
X144399525Y-78769435D01*
X144350091Y-78855059D01*
X144350091Y-78855060D01*
X144350090Y-78855062D01*
X144324500Y-78950565D01*
X144324500Y-78950567D01*
X144324500Y-79807796D01*
X144304815Y-79874835D01*
X144282727Y-79900611D01*
X144209518Y-79965468D01*
X144119781Y-80095475D01*
X144119780Y-80095476D01*
X144063762Y-80243181D01*
X144044722Y-80399999D01*
X143165500Y-80399999D01*
X143165500Y-73794546D01*
X143185185Y-73727507D01*
X143237989Y-73681752D01*
X143307147Y-73671808D01*
X143370703Y-73700833D01*
X143373039Y-73702910D01*
X143393957Y-73721980D01*
X143393960Y-73721982D01*
X143456520Y-73760717D01*
X143567363Y-73829348D01*
X143757544Y-73903024D01*
X143958024Y-73940500D01*
X143958026Y-73940500D01*
X144161974Y-73940500D01*
X144161976Y-73940500D01*
X144362456Y-73903024D01*
X144552637Y-73829348D01*
X144726041Y-73721981D01*
X144876764Y-73584579D01*
X144999673Y-73421821D01*
X145090582Y-73239250D01*
X145146397Y-73043083D01*
X145165215Y-72840000D01*
X145146397Y-72636917D01*
X145090582Y-72440750D01*
X145079860Y-72419218D01*
X145046272Y-72351764D01*
X144999673Y-72258179D01*
X144876764Y-72095421D01*
X144876762Y-72095418D01*
X144726041Y-71958019D01*
X144726039Y-71958017D01*
X144552642Y-71850655D01*
X144552635Y-71850651D01*
X144433902Y-71804654D01*
X144362456Y-71776976D01*
X144161976Y-71739500D01*
X143958024Y-71739500D01*
X143757544Y-71776976D01*
X143757541Y-71776976D01*
X143757541Y-71776977D01*
X143567364Y-71850651D01*
X143567357Y-71850655D01*
X143393960Y-71958017D01*
X143393958Y-71958019D01*
X143243236Y-72095419D01*
X143212179Y-72136546D01*
X143156070Y-72178181D01*
X143086358Y-72182872D01*
X143025533Y-72149487D01*
X142211012Y-71334732D01*
X142177537Y-71273405D01*
X142182531Y-71203714D01*
X142215169Y-71155427D01*
X142232840Y-71139318D01*
X142336764Y-71044579D01*
X142459673Y-70881821D01*
X142550582Y-70699250D01*
X142606397Y-70503083D01*
X142625215Y-70300000D01*
X142625215Y-70299999D01*
X142954785Y-70299999D01*
X142954785Y-70300000D01*
X142973602Y-70503082D01*
X143029417Y-70699247D01*
X143029422Y-70699260D01*
X143120327Y-70881821D01*
X143243237Y-71044581D01*
X143393958Y-71181980D01*
X143393960Y-71181982D01*
X143471067Y-71229724D01*
X143567363Y-71289348D01*
X143757544Y-71363024D01*
X143958024Y-71400500D01*
X143958026Y-71400500D01*
X144161974Y-71400500D01*
X144161976Y-71400500D01*
X144362456Y-71363024D01*
X144552637Y-71289348D01*
X144726041Y-71181981D01*
X144876764Y-71044579D01*
X144999673Y-70881821D01*
X145090582Y-70699250D01*
X145146397Y-70503083D01*
X145165215Y-70300000D01*
X145146397Y-70096917D01*
X145090582Y-69900750D01*
X145064284Y-69847937D01*
X145042982Y-69805156D01*
X144999673Y-69718179D01*
X144886220Y-69567943D01*
X144876762Y-69555418D01*
X144726041Y-69418019D01*
X144726039Y-69418017D01*
X144552642Y-69310655D01*
X144552635Y-69310651D01*
X144413674Y-69256818D01*
X144362456Y-69236976D01*
X144161976Y-69199500D01*
X143958024Y-69199500D01*
X143757544Y-69236976D01*
X143757541Y-69236976D01*
X143757541Y-69236977D01*
X143567364Y-69310651D01*
X143567357Y-69310655D01*
X143393960Y-69418017D01*
X143393958Y-69418019D01*
X143243237Y-69555418D01*
X143120327Y-69718178D01*
X143029422Y-69900739D01*
X143029417Y-69900752D01*
X142973602Y-70096917D01*
X142954785Y-70299999D01*
X142625215Y-70299999D01*
X142606397Y-70096917D01*
X142550582Y-69900750D01*
X142524284Y-69847937D01*
X142502982Y-69805156D01*
X142459673Y-69718179D01*
X142346220Y-69567943D01*
X142336762Y-69555418D01*
X142186041Y-69418019D01*
X142186039Y-69418017D01*
X142012642Y-69310655D01*
X142012635Y-69310651D01*
X141873674Y-69256818D01*
X141822456Y-69236976D01*
X141621976Y-69199500D01*
X141418024Y-69199500D01*
X141217544Y-69236976D01*
X141217541Y-69236976D01*
X141217541Y-69236977D01*
X141027364Y-69310651D01*
X141027357Y-69310655D01*
X140853960Y-69418017D01*
X140853958Y-69418019D01*
X140703237Y-69555418D01*
X140580327Y-69718178D01*
X140489422Y-69900739D01*
X140489417Y-69900752D01*
X140433602Y-70096917D01*
X140414785Y-70299999D01*
X140414785Y-70300000D01*
X140433602Y-70503082D01*
X140489417Y-70699247D01*
X140489422Y-70699260D01*
X140580327Y-70881821D01*
X140703237Y-71044581D01*
X140853958Y-71181980D01*
X140853960Y-71181982D01*
X140931067Y-71229724D01*
X141027363Y-71289348D01*
X141065293Y-71304042D01*
X141120694Y-71346612D01*
X141144286Y-71412378D01*
X141144500Y-71419668D01*
X141144500Y-71453135D01*
X141170090Y-71548638D01*
X141170091Y-71548639D01*
X141170091Y-71548640D01*
X141214131Y-71624919D01*
X141230604Y-71692819D01*
X141207752Y-71758846D01*
X141152830Y-71802037D01*
X141151538Y-71802545D01*
X141027373Y-71850647D01*
X141027357Y-71850655D01*
X140853960Y-71958017D01*
X140853958Y-71958019D01*
X140703237Y-72095419D01*
X140639706Y-72179547D01*
X140583596Y-72221183D01*
X140513884Y-72225874D01*
X140453048Y-72192478D01*
X140397145Y-72136546D01*
X139661487Y-71400500D01*
X139631088Y-71370085D01*
X139597619Y-71308753D01*
X139602622Y-71239063D01*
X139642076Y-71186140D01*
X139641805Y-71185843D01*
X139643345Y-71184439D01*
X139644066Y-71183472D01*
X139646032Y-71181986D01*
X139646041Y-71181981D01*
X139796764Y-71044579D01*
X139919673Y-70881821D01*
X140010582Y-70699250D01*
X140066397Y-70503083D01*
X140085215Y-70300000D01*
X140066397Y-70096917D01*
X140010582Y-69900750D01*
X139984284Y-69847937D01*
X139962982Y-69805156D01*
X139919673Y-69718179D01*
X139806220Y-69567943D01*
X139796762Y-69555418D01*
X139646041Y-69418019D01*
X139646039Y-69418017D01*
X139472642Y-69310655D01*
X139472635Y-69310651D01*
X139333674Y-69256818D01*
X139282456Y-69236976D01*
X139081976Y-69199500D01*
X138878024Y-69199500D01*
X138677544Y-69236976D01*
X138677541Y-69236976D01*
X138677541Y-69236977D01*
X138487364Y-69310651D01*
X138487357Y-69310655D01*
X138313960Y-69418017D01*
X138313958Y-69418019D01*
X138163237Y-69555419D01*
X138097468Y-69642511D01*
X138041359Y-69684147D01*
X137971647Y-69688838D01*
X137910465Y-69655096D01*
X137891127Y-69629783D01*
X137877586Y-69606329D01*
X137877480Y-69606144D01*
X137877453Y-69606108D01*
X137839280Y-69567943D01*
X137801751Y-69530414D01*
X137801695Y-69530365D01*
X137328059Y-69056816D01*
X136482776Y-68211688D01*
X136449286Y-68150369D01*
X136454264Y-68080677D01*
X136496130Y-68024740D01*
X136561593Y-68000317D01*
X136570450Y-68000000D01*
X144993907Y-68000000D01*
X145006061Y-68000597D01*
X145182941Y-68018018D01*
X145206769Y-68022757D01*
X145371001Y-68072576D01*
X145393453Y-68081877D01*
X145544798Y-68162772D01*
X145565008Y-68176276D01*
X145654232Y-68249500D01*
X145697666Y-68285145D01*
X145714854Y-68302333D01*
X145823722Y-68434989D01*
X145837227Y-68455201D01*
X145918121Y-68606543D01*
X145927424Y-68629001D01*
X145977240Y-68793224D01*
X145981982Y-68817065D01*
X145999403Y-68993938D01*
X146000000Y-69006092D01*
X146000000Y-78565501D01*
X145990476Y-78597934D01*
X145998321Y-78614159D01*
X146000000Y-78634498D01*
X146000000Y-95993907D01*
X145999403Y-96006061D01*
X145981982Y-96182934D01*
X145977240Y-96206775D01*
X145927424Y-96370998D01*
X145918121Y-96393456D01*
X145837227Y-96544798D01*
X145823722Y-96565010D01*
X145714854Y-96697666D01*
X145697666Y-96714854D01*
X145565010Y-96823722D01*
X145544798Y-96837227D01*
X145393456Y-96918121D01*
X145370998Y-96927424D01*
X145206775Y-96977240D01*
X145182934Y-96981982D01*
X145006061Y-96999403D01*
X144993907Y-97000000D01*
X95006093Y-97000000D01*
X94993939Y-96999403D01*
X94817065Y-96981982D01*
X94793224Y-96977240D01*
X94629001Y-96927424D01*
X94606543Y-96918121D01*
X94455201Y-96837227D01*
X94434989Y-96823722D01*
X94302333Y-96714854D01*
X94285145Y-96697666D01*
X94176277Y-96565010D01*
X94162772Y-96544798D01*
X94081877Y-96393453D01*
X94072575Y-96370998D01*
X94060309Y-96330562D01*
X94022757Y-96206769D01*
X94018018Y-96182941D01*
X94000597Y-96006061D01*
X94000000Y-95993907D01*
X94000000Y-91499999D01*
X96244722Y-91499999D01*
X96244722Y-91500000D01*
X96263762Y-91656818D01*
X96297563Y-91745942D01*
X96319780Y-91804523D01*
X96409517Y-91934530D01*
X96527760Y-92039283D01*
X96527762Y-92039284D01*
X96667634Y-92112696D01*
X96821014Y-92150500D01*
X96821015Y-92150500D01*
X96978985Y-92150500D01*
X97132365Y-92112696D01*
X97141080Y-92108122D01*
X97272240Y-92039283D01*
X97390483Y-91934530D01*
X97394257Y-91929061D01*
X97448537Y-91885071D01*
X97496308Y-91875500D01*
X99503692Y-91875500D01*
X99570731Y-91895185D01*
X99605742Y-91929061D01*
X99608163Y-91932569D01*
X99609515Y-91934528D01*
X99609517Y-91934530D01*
X99727760Y-92039283D01*
X99727762Y-92039284D01*
X99867634Y-92112696D01*
X100021014Y-92150500D01*
X100021015Y-92150500D01*
X100178985Y-92150500D01*
X100332365Y-92112696D01*
X100341080Y-92108122D01*
X100472240Y-92039283D01*
X100590483Y-91934530D01*
X100680220Y-91804523D01*
X100736237Y-91656818D01*
X100755278Y-91500000D01*
X100736237Y-91343182D01*
X100680220Y-91195477D01*
X100590483Y-91065470D01*
X100472240Y-90960717D01*
X100472238Y-90960716D01*
X100472237Y-90960715D01*
X100332365Y-90887303D01*
X100178986Y-90849500D01*
X100178985Y-90849500D01*
X100021015Y-90849500D01*
X100021014Y-90849500D01*
X99867634Y-90887303D01*
X99727762Y-90960715D01*
X99609516Y-91065470D01*
X99607089Y-91068987D01*
X99605742Y-91070938D01*
X99551463Y-91114929D01*
X99503692Y-91124500D01*
X97496308Y-91124500D01*
X97429269Y-91104815D01*
X97394257Y-91070938D01*
X97390483Y-91065470D01*
X97272240Y-90960717D01*
X97272238Y-90960716D01*
X97272237Y-90960715D01*
X97132365Y-90887303D01*
X96978986Y-90849500D01*
X96978985Y-90849500D01*
X96821015Y-90849500D01*
X96821014Y-90849500D01*
X96667634Y-90887303D01*
X96527762Y-90960715D01*
X96507634Y-90978547D01*
X96428516Y-91048639D01*
X96409516Y-91065471D01*
X96319781Y-91195475D01*
X96319780Y-91195476D01*
X96263762Y-91343181D01*
X96244722Y-91499999D01*
X94000000Y-91499999D01*
X94000000Y-84299999D01*
X95944722Y-84299999D01*
X95944722Y-84300000D01*
X95963762Y-84456818D01*
X96016349Y-84595476D01*
X96019780Y-84604523D01*
X96109517Y-84734530D01*
X96227760Y-84839283D01*
X96227762Y-84839284D01*
X96367634Y-84912696D01*
X96521014Y-84950500D01*
X96668101Y-84950500D01*
X96735140Y-84970185D01*
X96755782Y-84986819D01*
X99099525Y-87330562D01*
X99169438Y-87400475D01*
X99255062Y-87449910D01*
X99302811Y-87462705D01*
X99302812Y-87462705D01*
X99312903Y-87465408D01*
X99350564Y-87475500D01*
X99350565Y-87475500D01*
X100103692Y-87475500D01*
X100170731Y-87495185D01*
X100205742Y-87529061D01*
X100208163Y-87532569D01*
X100209515Y-87534528D01*
X100209517Y-87534530D01*
X100327760Y-87639283D01*
X100327762Y-87639284D01*
X100467634Y-87712696D01*
X100621014Y-87750500D01*
X100621015Y-87750500D01*
X100778985Y-87750500D01*
X100932365Y-87712696D01*
X101072240Y-87639283D01*
X101190483Y-87534530D01*
X101280220Y-87404523D01*
X101336237Y-87256818D01*
X101355278Y-87100000D01*
X101336237Y-86943182D01*
X101333371Y-86935626D01*
X101307472Y-86867335D01*
X101280220Y-86795477D01*
X101190483Y-86665470D01*
X101072240Y-86560717D01*
X101072238Y-86560716D01*
X101072237Y-86560715D01*
X100932365Y-86487303D01*
X100778986Y-86449500D01*
X100778985Y-86449500D01*
X100621015Y-86449500D01*
X100621014Y-86449500D01*
X100467634Y-86487303D01*
X100327762Y-86560715D01*
X100209516Y-86665470D01*
X100207089Y-86668987D01*
X100205742Y-86670938D01*
X100151463Y-86714929D01*
X100103692Y-86724500D01*
X99606899Y-86724500D01*
X99539860Y-86704815D01*
X99519218Y-86688181D01*
X97284517Y-84453480D01*
X97251032Y-84392157D01*
X97249102Y-84350857D01*
X97255278Y-84300000D01*
X97236237Y-84143182D01*
X97180220Y-83995477D01*
X97090483Y-83865470D01*
X96972240Y-83760717D01*
X96972238Y-83760716D01*
X96972237Y-83760715D01*
X96832365Y-83687303D01*
X96678986Y-83649500D01*
X96678985Y-83649500D01*
X96521015Y-83649500D01*
X96521014Y-83649500D01*
X96367634Y-83687303D01*
X96227762Y-83760715D01*
X96109516Y-83865471D01*
X96019781Y-83995475D01*
X96019780Y-83995476D01*
X95963762Y-84143181D01*
X95944722Y-84299999D01*
X94000000Y-84299999D01*
X94000000Y-69006092D01*
X94000597Y-68993938D01*
X94009849Y-68899999D01*
X94018018Y-68817056D01*
X94022757Y-68793232D01*
X94072577Y-68628994D01*
X94081875Y-68606549D01*
X94162775Y-68455195D01*
X94176272Y-68434995D01*
X94285149Y-68302328D01*
X94302328Y-68285149D01*
X94434995Y-68176272D01*
X94455195Y-68162775D01*
X94606549Y-68081875D01*
X94628994Y-68072577D01*
X94793232Y-68022757D01*
X94817056Y-68018018D01*
X94993939Y-68000597D01*
X95006093Y-68000000D01*
X110935601Y-68000000D01*
X111002640Y-68019685D01*
G37*
G04 #@! TD.AperFunction*
G04 #@! TA.AperFunction,Conductor*
G36*
X119180703Y-90651717D02*
G01*
X119183038Y-90653793D01*
X119213958Y-90681980D01*
X119213960Y-90681982D01*
X119286985Y-90727197D01*
X119387363Y-90789348D01*
X119577544Y-90863024D01*
X119778024Y-90900500D01*
X119778026Y-90900500D01*
X119981974Y-90900500D01*
X119981976Y-90900500D01*
X120182456Y-90863024D01*
X120372637Y-90789348D01*
X120526609Y-90694013D01*
X120550916Y-90678963D01*
X120551557Y-90679999D01*
X120611125Y-90657492D01*
X120679461Y-90672052D01*
X120729077Y-90721245D01*
X120744500Y-90781137D01*
X120744500Y-91649223D01*
X120724815Y-91716262D01*
X120708188Y-91736897D01*
X119610552Y-92834709D01*
X119610548Y-92834714D01*
X119579513Y-92865750D01*
X119579507Y-92865761D01*
X119554850Y-92908475D01*
X119540954Y-92932544D01*
X119530081Y-92951377D01*
X119517188Y-92999514D01*
X119517185Y-92999524D01*
X119504497Y-93046873D01*
X119504495Y-93046890D01*
X119504498Y-93080321D01*
X119484818Y-93147362D01*
X119432018Y-93193121D01*
X119425295Y-93195955D01*
X119387374Y-93210646D01*
X119387359Y-93210653D01*
X119213960Y-93318017D01*
X119213958Y-93318019D01*
X119063237Y-93455418D01*
X118940327Y-93618178D01*
X118849422Y-93800739D01*
X118849417Y-93800752D01*
X118793602Y-93996917D01*
X118774785Y-94199999D01*
X118774785Y-94200000D01*
X118793602Y-94403082D01*
X118849417Y-94599247D01*
X118849422Y-94599260D01*
X118940327Y-94781821D01*
X119049034Y-94925773D01*
X119073726Y-94991135D01*
X119059161Y-95059469D01*
X119009963Y-95109082D01*
X118950080Y-95124500D01*
X118269920Y-95124500D01*
X118202881Y-95104815D01*
X118157126Y-95052011D01*
X118147182Y-94982853D01*
X118170966Y-94925773D01*
X118206659Y-94878507D01*
X118279673Y-94781821D01*
X118370582Y-94599250D01*
X118426397Y-94403083D01*
X118445215Y-94200000D01*
X118426397Y-93996917D01*
X118370582Y-93800750D01*
X118370368Y-93800321D01*
X118292729Y-93644399D01*
X118279673Y-93618179D01*
X118208103Y-93523405D01*
X118156762Y-93455418D01*
X118006041Y-93318019D01*
X118006039Y-93318017D01*
X117918828Y-93264019D01*
X117872192Y-93211991D01*
X117861088Y-93143010D01*
X117889041Y-93078975D01*
X117896413Y-93070923D01*
X118900474Y-92066863D01*
X118900475Y-92066862D01*
X118949910Y-91981238D01*
X118970195Y-91905535D01*
X118975500Y-91885736D01*
X118975500Y-91786864D01*
X118975500Y-90745430D01*
X118995185Y-90678391D01*
X119047989Y-90632636D01*
X119117147Y-90622692D01*
X119180703Y-90651717D01*
G37*
G04 #@! TD.AperFunction*
G04 #@! TA.AperFunction,Conductor*
G36*
X123339153Y-90549327D02*
G01*
X123393093Y-90593737D01*
X123414461Y-90660259D01*
X123414500Y-90663384D01*
X123414500Y-91868974D01*
X123414495Y-91869052D01*
X123414500Y-91926531D01*
X123414500Y-91975954D01*
X123415944Y-91981342D01*
X123428167Y-92026943D01*
X123431476Y-92039292D01*
X123440093Y-92071452D01*
X123440102Y-92071467D01*
X123463214Y-92111490D01*
X123463217Y-92111502D01*
X123463221Y-92111501D01*
X123473048Y-92128522D01*
X123489533Y-92157076D01*
X123524637Y-92192174D01*
X123524636Y-92192174D01*
X123524644Y-92192181D01*
X123565245Y-92232782D01*
X123565301Y-92232831D01*
X124403535Y-93070923D01*
X124437025Y-93132244D01*
X124432046Y-93201936D01*
X124390180Y-93257873D01*
X124381139Y-93264039D01*
X124293957Y-93318020D01*
X124143237Y-93455418D01*
X124020327Y-93618178D01*
X123929422Y-93800739D01*
X123929417Y-93800752D01*
X123873602Y-93996917D01*
X123854785Y-94199999D01*
X123854785Y-94200000D01*
X123873602Y-94403082D01*
X123929417Y-94599247D01*
X123929422Y-94599260D01*
X124020327Y-94781821D01*
X124129034Y-94925773D01*
X124153726Y-94991135D01*
X124139161Y-95059469D01*
X124089963Y-95109082D01*
X124030080Y-95124500D01*
X123349920Y-95124500D01*
X123282881Y-95104815D01*
X123237126Y-95052011D01*
X123227182Y-94982853D01*
X123250966Y-94925773D01*
X123286659Y-94878507D01*
X123359673Y-94781821D01*
X123450582Y-94599250D01*
X123506397Y-94403083D01*
X123525215Y-94200000D01*
X123506397Y-93996917D01*
X123450582Y-93800750D01*
X123450368Y-93800321D01*
X123372729Y-93644399D01*
X123359673Y-93618179D01*
X123288103Y-93523405D01*
X123236762Y-93455418D01*
X123086041Y-93318019D01*
X123086039Y-93318017D01*
X122912642Y-93210655D01*
X122912639Y-93210653D01*
X122912637Y-93210652D01*
X122912636Y-93210651D01*
X122912635Y-93210651D01*
X122795499Y-93165273D01*
X122722456Y-93136976D01*
X122521976Y-93099500D01*
X122318024Y-93099500D01*
X122117544Y-93136976D01*
X122117541Y-93136976D01*
X122117541Y-93136977D01*
X121927364Y-93210651D01*
X121927357Y-93210655D01*
X121753960Y-93318017D01*
X121753958Y-93318019D01*
X121603237Y-93455418D01*
X121480327Y-93618178D01*
X121389422Y-93800739D01*
X121389417Y-93800752D01*
X121333602Y-93996917D01*
X121314785Y-94199999D01*
X121314785Y-94200000D01*
X121333602Y-94403082D01*
X121389417Y-94599247D01*
X121389422Y-94599260D01*
X121480327Y-94781821D01*
X121589034Y-94925773D01*
X121613726Y-94991135D01*
X121599161Y-95059469D01*
X121549963Y-95109082D01*
X121490080Y-95124500D01*
X120809920Y-95124500D01*
X120742881Y-95104815D01*
X120697126Y-95052011D01*
X120687182Y-94982853D01*
X120710966Y-94925773D01*
X120746659Y-94878507D01*
X120819673Y-94781821D01*
X120910582Y-94599250D01*
X120966397Y-94403083D01*
X120985215Y-94200000D01*
X120966397Y-93996917D01*
X120910582Y-93800750D01*
X120910368Y-93800321D01*
X120832729Y-93644399D01*
X120819673Y-93618179D01*
X120748103Y-93523405D01*
X120696762Y-93455418D01*
X120546042Y-93318020D01*
X120546041Y-93318019D01*
X120458860Y-93264039D01*
X120458799Y-93264001D01*
X120412164Y-93211973D01*
X120401060Y-93142991D01*
X120429013Y-93078957D01*
X120436379Y-93070910D01*
X121389445Y-92117690D01*
X121389450Y-92117688D01*
X121389449Y-92117687D01*
X121399032Y-92108104D01*
X121418683Y-92088453D01*
X121420638Y-92086582D01*
X121420664Y-92086548D01*
X121422297Y-92083513D01*
X121447825Y-92039288D01*
X121447828Y-92039286D01*
X121459816Y-92018519D01*
X121469148Y-92002356D01*
X121469906Y-92001085D01*
X121469910Y-92001075D01*
X121470088Y-92000387D01*
X121483452Y-91950500D01*
X121495326Y-91906183D01*
X121495498Y-91905562D01*
X121495504Y-91905517D01*
X121495500Y-91849911D01*
X121495500Y-90727197D01*
X121515185Y-90660158D01*
X121567989Y-90614403D01*
X121637147Y-90604459D01*
X121700703Y-90633484D01*
X121703023Y-90635547D01*
X121718039Y-90649235D01*
X121753957Y-90681980D01*
X121753960Y-90681982D01*
X121826985Y-90727197D01*
X121927363Y-90789348D01*
X122117544Y-90863024D01*
X122318024Y-90900500D01*
X122318026Y-90900500D01*
X122521974Y-90900500D01*
X122521976Y-90900500D01*
X122722456Y-90863024D01*
X122912637Y-90789348D01*
X123086041Y-90681981D01*
X123206962Y-90571746D01*
X123269766Y-90541130D01*
X123339153Y-90549327D01*
G37*
G04 #@! TD.AperFunction*
G04 #@! TA.AperFunction,Conductor*
G36*
X133155694Y-83950492D02*
G01*
X133211627Y-83992365D01*
X133215438Y-83998405D01*
X133215519Y-83998350D01*
X133235467Y-84027249D01*
X133309517Y-84134530D01*
X133427760Y-84239283D01*
X133427762Y-84239284D01*
X133567634Y-84312696D01*
X133721014Y-84350500D01*
X133721015Y-84350500D01*
X133878985Y-84350500D01*
X134032365Y-84312696D01*
X134056559Y-84299998D01*
X134172240Y-84239283D01*
X134290483Y-84134530D01*
X134291447Y-84133132D01*
X134292418Y-84132345D01*
X134295457Y-84128916D01*
X134296027Y-84129421D01*
X134345726Y-84089140D01*
X134415174Y-84081477D01*
X134477741Y-84112577D01*
X134513562Y-84172565D01*
X134517500Y-84203568D01*
X134517500Y-84799697D01*
X134497815Y-84866736D01*
X134481181Y-84887379D01*
X131437956Y-87930562D01*
X127711648Y-91656818D01*
X127668783Y-91699682D01*
X127607459Y-91733166D01*
X127581102Y-91736000D01*
X125980308Y-91736000D01*
X125913269Y-91716315D01*
X125878257Y-91682438D01*
X125874483Y-91676970D01*
X125756240Y-91572217D01*
X125756238Y-91572216D01*
X125756237Y-91572215D01*
X125616365Y-91498803D01*
X125462986Y-91461000D01*
X125462985Y-91461000D01*
X125305015Y-91461000D01*
X125305014Y-91461000D01*
X125151634Y-91498803D01*
X125011762Y-91572215D01*
X124893516Y-91676971D01*
X124803781Y-91806975D01*
X124803780Y-91806976D01*
X124747763Y-91954680D01*
X124735316Y-92057187D01*
X124707694Y-92121365D01*
X124649759Y-92160421D01*
X124579907Y-92161956D01*
X124524547Y-92129929D01*
X124366720Y-91972130D01*
X124201826Y-91807263D01*
X124168336Y-91745942D01*
X124165500Y-91719574D01*
X124165500Y-90825065D01*
X124185185Y-90758026D01*
X124237989Y-90712271D01*
X124307147Y-90702327D01*
X124354777Y-90719638D01*
X124366985Y-90727197D01*
X124467363Y-90789348D01*
X124657544Y-90863024D01*
X124858024Y-90900500D01*
X124858026Y-90900500D01*
X125061974Y-90900500D01*
X125061976Y-90900500D01*
X125262456Y-90863024D01*
X125452637Y-90789348D01*
X125626041Y-90681981D01*
X125776764Y-90544579D01*
X125899673Y-90381821D01*
X125990582Y-90199250D01*
X126046397Y-90003083D01*
X126065215Y-89800000D01*
X126046397Y-89596917D01*
X125990582Y-89400750D01*
X125990581Y-89400749D01*
X125989013Y-89395236D01*
X125991048Y-89394656D01*
X125985954Y-89334370D01*
X126018645Y-89272620D01*
X126019621Y-89271631D01*
X126183192Y-89108104D01*
X126244518Y-89074630D01*
X126270859Y-89071800D01*
X126432948Y-89071800D01*
X126499987Y-89091485D01*
X126545742Y-89144289D01*
X126555686Y-89213447D01*
X126543948Y-89251071D01*
X126469424Y-89400734D01*
X126469417Y-89400752D01*
X126413602Y-89596917D01*
X126394785Y-89799999D01*
X126394785Y-89800000D01*
X126413602Y-90003082D01*
X126469417Y-90199247D01*
X126469422Y-90199260D01*
X126560327Y-90381821D01*
X126683237Y-90544581D01*
X126833958Y-90681980D01*
X126833960Y-90681982D01*
X126906985Y-90727197D01*
X127007363Y-90789348D01*
X127197544Y-90863024D01*
X127398024Y-90900500D01*
X127398026Y-90900500D01*
X127601974Y-90900500D01*
X127601976Y-90900500D01*
X127802456Y-90863024D01*
X127992637Y-90789348D01*
X128166041Y-90681981D01*
X128316764Y-90544579D01*
X128439673Y-90381821D01*
X128530582Y-90199250D01*
X128586397Y-90003083D01*
X128605215Y-89800000D01*
X128586397Y-89596917D01*
X128530582Y-89400750D01*
X128530574Y-89400734D01*
X128456051Y-89251071D01*
X128439673Y-89218179D01*
X128373674Y-89130782D01*
X128316762Y-89055418D01*
X128219847Y-88967069D01*
X128183565Y-88907358D01*
X128185326Y-88837510D01*
X128215703Y-88787752D01*
X133024680Y-83978988D01*
X133086003Y-83945506D01*
X133155694Y-83950492D01*
G37*
G04 #@! TD.AperFunction*
G04 #@! TA.AperFunction,Conductor*
G36*
X123060918Y-78392085D02*
G01*
X123064353Y-78395391D01*
X125969437Y-81300475D01*
X125969438Y-81300476D01*
X125969440Y-81300477D01*
X126012250Y-81325193D01*
X126055063Y-81349911D01*
X126150564Y-81375500D01*
X126150565Y-81375500D01*
X126547711Y-81375500D01*
X126614750Y-81395185D01*
X126660505Y-81447989D01*
X126670449Y-81517147D01*
X126664507Y-81540159D01*
X126663763Y-81543180D01*
X126644722Y-81699999D01*
X126644722Y-81700000D01*
X126663762Y-81856818D01*
X126701910Y-81957404D01*
X126719780Y-82004523D01*
X126809517Y-82134530D01*
X126927760Y-82239283D01*
X126927762Y-82239284D01*
X127067634Y-82312696D01*
X127221014Y-82350500D01*
X127221015Y-82350500D01*
X127378985Y-82350500D01*
X127532365Y-82312696D01*
X127537742Y-82309874D01*
X127672240Y-82239283D01*
X127790483Y-82134530D01*
X127880220Y-82004523D01*
X127936237Y-81856818D01*
X127955278Y-81700000D01*
X127936237Y-81543182D01*
X127936235Y-81543178D01*
X127934442Y-81535898D01*
X127935739Y-81535578D01*
X127930980Y-81473807D01*
X127964128Y-81412301D01*
X128025267Y-81378480D01*
X128052289Y-81375500D01*
X130329801Y-81375500D01*
X130396840Y-81395185D01*
X130442595Y-81447989D01*
X130452539Y-81517147D01*
X130423514Y-81580703D01*
X130417484Y-81587178D01*
X123559440Y-88444823D01*
X123559438Y-88444825D01*
X123547445Y-88456818D01*
X123547444Y-88456819D01*
X123547443Y-88456818D01*
X123489539Y-88514719D01*
X123489530Y-88514730D01*
X123489528Y-88514732D01*
X123489527Y-88514735D01*
X123489525Y-88514738D01*
X123464503Y-88558076D01*
X123464502Y-88558078D01*
X123464501Y-88558077D01*
X123442085Y-88596903D01*
X123440652Y-88599208D01*
X123440093Y-88600352D01*
X123440087Y-88600368D01*
X123428407Y-88643964D01*
X123428406Y-88643966D01*
X123414505Y-88695840D01*
X123414500Y-88695860D01*
X123414500Y-88695865D01*
X123414500Y-88745701D01*
X123414500Y-88772488D01*
X123414499Y-88804712D01*
X123414500Y-88804725D01*
X123414500Y-88936615D01*
X123394815Y-89003654D01*
X123342011Y-89049409D01*
X123272853Y-89059353D01*
X123209297Y-89030328D01*
X123206962Y-89028252D01*
X123086041Y-88918019D01*
X123086039Y-88918017D01*
X122912642Y-88810655D01*
X122912635Y-88810651D01*
X122740600Y-88744005D01*
X122722456Y-88736976D01*
X122521976Y-88699500D01*
X122318024Y-88699500D01*
X122117544Y-88736976D01*
X122117541Y-88736976D01*
X122117541Y-88736977D01*
X121927364Y-88810651D01*
X121927357Y-88810655D01*
X121753960Y-88918017D01*
X121753958Y-88918019D01*
X121703038Y-88964439D01*
X121640234Y-88995056D01*
X121570847Y-88986858D01*
X121516907Y-88942448D01*
X121495539Y-88875926D01*
X121495500Y-88872802D01*
X121495500Y-88786704D01*
X121515185Y-88719665D01*
X121531820Y-88699021D01*
X121603832Y-88627011D01*
X124688234Y-85542704D01*
X124689733Y-85541250D01*
X124691503Y-85538385D01*
X124692151Y-85537402D01*
X124693906Y-85533786D01*
X124720630Y-85487500D01*
X124738908Y-85455843D01*
X124738908Y-85455842D01*
X124738909Y-85455841D01*
X124754264Y-85398537D01*
X124763546Y-85363897D01*
X124764442Y-85360912D01*
X124764500Y-85360523D01*
X124764500Y-82706302D01*
X124784185Y-82639263D01*
X124806274Y-82613486D01*
X124879482Y-82548631D01*
X124879483Y-82548630D01*
X124969220Y-82418623D01*
X125025237Y-82270918D01*
X125044278Y-82114100D01*
X125039793Y-82077158D01*
X125025237Y-81957281D01*
X124998597Y-81887039D01*
X124969220Y-81809577D01*
X124879483Y-81679570D01*
X124761240Y-81574817D01*
X124761238Y-81574816D01*
X124761237Y-81574815D01*
X124621365Y-81501403D01*
X124467986Y-81463600D01*
X124467985Y-81463600D01*
X124310015Y-81463600D01*
X124310014Y-81463600D01*
X124156634Y-81501403D01*
X124016762Y-81574815D01*
X123898516Y-81679571D01*
X123808781Y-81809575D01*
X123808780Y-81809576D01*
X123752762Y-81957281D01*
X123733722Y-82114099D01*
X123733722Y-82114100D01*
X123752762Y-82270918D01*
X123780290Y-82343502D01*
X123808780Y-82418623D01*
X123809942Y-82420306D01*
X123898517Y-82548631D01*
X123971726Y-82613486D01*
X124008853Y-82672674D01*
X124013500Y-82706302D01*
X124013500Y-85103994D01*
X123993815Y-85171033D01*
X123977180Y-85191677D01*
X123158479Y-86010353D01*
X123097155Y-86043837D01*
X123027464Y-86038851D01*
X122971531Y-85996979D01*
X122947703Y-85937616D01*
X122944677Y-85912696D01*
X122936237Y-85843182D01*
X122880220Y-85695477D01*
X122790483Y-85565470D01*
X122672240Y-85460717D01*
X122672238Y-85460716D01*
X122672237Y-85460715D01*
X122532365Y-85387303D01*
X122378986Y-85349500D01*
X122378985Y-85349500D01*
X122299500Y-85349500D01*
X122232461Y-85329815D01*
X122186706Y-85277011D01*
X122175500Y-85225500D01*
X122175500Y-83650564D01*
X122171203Y-83634529D01*
X122171202Y-83634526D01*
X122154135Y-83570830D01*
X122154135Y-83570829D01*
X122149910Y-83555061D01*
X122101824Y-83471774D01*
X122101818Y-83471764D01*
X122100475Y-83469437D01*
X121411819Y-82780781D01*
X121378334Y-82719458D01*
X121375500Y-82693100D01*
X121375500Y-81330686D01*
X121395185Y-81263647D01*
X121417274Y-81237870D01*
X121477482Y-81184531D01*
X121478840Y-81182564D01*
X121567220Y-81054523D01*
X121623237Y-80906818D01*
X121642278Y-80750000D01*
X121640400Y-80734529D01*
X121623237Y-80593181D01*
X121583307Y-80487895D01*
X121567220Y-80445477D01*
X121477483Y-80315470D01*
X121359240Y-80210717D01*
X121359238Y-80210716D01*
X121359237Y-80210715D01*
X121219365Y-80137303D01*
X121065986Y-80099500D01*
X121065985Y-80099500D01*
X120908015Y-80099500D01*
X120908014Y-80099500D01*
X120754634Y-80137303D01*
X120614762Y-80210715D01*
X120614760Y-80210717D01*
X120502815Y-80309891D01*
X120496516Y-80315471D01*
X120406781Y-80445475D01*
X120406780Y-80445476D01*
X120350762Y-80593181D01*
X120331722Y-80749999D01*
X120331722Y-80750000D01*
X120350762Y-80906818D01*
X120387818Y-81004524D01*
X120406780Y-81054523D01*
X120496517Y-81184530D01*
X120582727Y-81260905D01*
X120619853Y-81320093D01*
X120624500Y-81353720D01*
X120624500Y-82949436D01*
X120634646Y-82987303D01*
X120634647Y-82987303D01*
X120634647Y-82987304D01*
X120650090Y-83044938D01*
X120695290Y-83123226D01*
X120695291Y-83123228D01*
X120699523Y-83130559D01*
X120699527Y-83130564D01*
X121388181Y-83819218D01*
X121421666Y-83880541D01*
X121424500Y-83906899D01*
X121424500Y-84762945D01*
X121404815Y-84829984D01*
X121352011Y-84875739D01*
X121282853Y-84885683D01*
X121219297Y-84856658D01*
X121184558Y-84806916D01*
X121181820Y-84799697D01*
X121180220Y-84795477D01*
X121090483Y-84665470D01*
X120972240Y-84560717D01*
X120972238Y-84560716D01*
X120972237Y-84560715D01*
X120832365Y-84487303D01*
X120678986Y-84449500D01*
X120678985Y-84449500D01*
X120521015Y-84449500D01*
X120521014Y-84449500D01*
X120367634Y-84487303D01*
X120227762Y-84560715D01*
X120177396Y-84605335D01*
X120109741Y-84665272D01*
X120109516Y-84665471D01*
X120019781Y-84795475D01*
X120019780Y-84795476D01*
X119963762Y-84943181D01*
X119944722Y-85099999D01*
X119944722Y-85100000D01*
X119963762Y-85256818D01*
X120017509Y-85398535D01*
X120019780Y-85404523D01*
X120109517Y-85534530D01*
X120227760Y-85639283D01*
X120227762Y-85639284D01*
X120367634Y-85712696D01*
X120521014Y-85750500D01*
X120668101Y-85750500D01*
X120735140Y-85770185D01*
X120755782Y-85786819D01*
X120888181Y-85919218D01*
X120921666Y-85980541D01*
X120924500Y-86006899D01*
X120924500Y-86407796D01*
X120904815Y-86474835D01*
X120882727Y-86500611D01*
X120809518Y-86565468D01*
X120719781Y-86695475D01*
X120719780Y-86695476D01*
X120663762Y-86843181D01*
X120644722Y-86999999D01*
X120644722Y-87000000D01*
X120663762Y-87156818D01*
X120703722Y-87262182D01*
X120719780Y-87304523D01*
X120809517Y-87434530D01*
X120927760Y-87539283D01*
X120927762Y-87539284D01*
X121067634Y-87612696D01*
X121221014Y-87650500D01*
X121228460Y-87651404D01*
X121228237Y-87653237D01*
X121285952Y-87670185D01*
X121331707Y-87722989D01*
X121341651Y-87792147D01*
X121312626Y-87855703D01*
X121306597Y-87862177D01*
X120889440Y-88279323D01*
X120889438Y-88279325D01*
X120852263Y-88316499D01*
X120819529Y-88349233D01*
X120819525Y-88349236D01*
X120819521Y-88349242D01*
X120770091Y-88434859D01*
X120770090Y-88434861D01*
X120770090Y-88434862D01*
X120764207Y-88456818D01*
X120761817Y-88465738D01*
X120745465Y-88526759D01*
X120744636Y-88529518D01*
X120744500Y-88530359D01*
X120744500Y-88530361D01*
X120744500Y-88530365D01*
X120744500Y-88571910D01*
X120744500Y-88604524D01*
X120744499Y-88639217D01*
X120744500Y-88639230D01*
X120744500Y-88818862D01*
X120724815Y-88885901D01*
X120672011Y-88931656D01*
X120602853Y-88941600D01*
X120551445Y-88920181D01*
X120550916Y-88921037D01*
X120372642Y-88810655D01*
X120372635Y-88810651D01*
X120200600Y-88744005D01*
X120182456Y-88736976D01*
X119981976Y-88699500D01*
X119778024Y-88699500D01*
X119577544Y-88736976D01*
X119577541Y-88736976D01*
X119577541Y-88736977D01*
X119387364Y-88810651D01*
X119387357Y-88810655D01*
X119213960Y-88918017D01*
X119213958Y-88918019D01*
X119183037Y-88946207D01*
X119120233Y-88976824D01*
X119050846Y-88968625D01*
X118996906Y-88924214D01*
X118975539Y-88857692D01*
X118975500Y-88854569D01*
X118975500Y-82886379D01*
X118975532Y-82885879D01*
X118975500Y-82829450D01*
X118975500Y-82779369D01*
X118975500Y-82779365D01*
X118975498Y-82779361D01*
X118974657Y-82772980D01*
X118976791Y-82734420D01*
X118976333Y-82734365D01*
X118977182Y-82727369D01*
X118977199Y-82727070D01*
X118977233Y-82726928D01*
X118977237Y-82726918D01*
X118996278Y-82570100D01*
X118995109Y-82560468D01*
X118977237Y-82413281D01*
X118939090Y-82312696D01*
X118921220Y-82265577D01*
X118831483Y-82135570D01*
X118713240Y-82030817D01*
X118713238Y-82030816D01*
X118713237Y-82030815D01*
X118573365Y-81957403D01*
X118419986Y-81919600D01*
X118419985Y-81919600D01*
X118262015Y-81919600D01*
X118262014Y-81919600D01*
X118108634Y-81957403D01*
X117968762Y-82030815D01*
X117850516Y-82135571D01*
X117760781Y-82265575D01*
X117760780Y-82265576D01*
X117704762Y-82413281D01*
X117685722Y-82570099D01*
X117685722Y-82570100D01*
X117704762Y-82726918D01*
X117760780Y-82874623D01*
X117850517Y-83004630D01*
X117968760Y-83109383D01*
X117968762Y-83109384D01*
X118066567Y-83160717D01*
X118108635Y-83182796D01*
X118130173Y-83188104D01*
X118190553Y-83223257D01*
X118222344Y-83285476D01*
X118224500Y-83308501D01*
X118224500Y-88836337D01*
X118204815Y-88903376D01*
X118152011Y-88949131D01*
X118082853Y-88959075D01*
X118019297Y-88930050D01*
X118016963Y-88927975D01*
X118006042Y-88918019D01*
X118006039Y-88918017D01*
X117832642Y-88810655D01*
X117832635Y-88810651D01*
X117660600Y-88744005D01*
X117642456Y-88736976D01*
X117441976Y-88699500D01*
X117238024Y-88699500D01*
X117037544Y-88736976D01*
X117037541Y-88736976D01*
X117037541Y-88736977D01*
X116847364Y-88810651D01*
X116847357Y-88810655D01*
X116720777Y-88889030D01*
X116653417Y-88907585D01*
X116586717Y-88886777D01*
X116541856Y-88833212D01*
X116531500Y-88783603D01*
X116531500Y-82506266D01*
X116531500Y-82506265D01*
X116531500Y-82506264D01*
X116505911Y-82410763D01*
X116505907Y-82410756D01*
X116504063Y-82407561D01*
X116503325Y-82404522D01*
X116502800Y-82403253D01*
X116502997Y-82403171D01*
X116487590Y-82339661D01*
X116510443Y-82273634D01*
X116565364Y-82230444D01*
X116581776Y-82225165D01*
X116632365Y-82212696D01*
X116655920Y-82200333D01*
X116772240Y-82139283D01*
X116890483Y-82034530D01*
X116980220Y-81904523D01*
X117036237Y-81756818D01*
X117045011Y-81684552D01*
X117072632Y-81620376D01*
X117130566Y-81581319D01*
X117168107Y-81575500D01*
X118349435Y-81575500D01*
X118349436Y-81575500D01*
X118397186Y-81562705D01*
X118444938Y-81549910D01*
X118530562Y-81500475D01*
X118600475Y-81430562D01*
X118600474Y-81430562D01*
X118644219Y-81386818D01*
X118705542Y-81353334D01*
X118731900Y-81350500D01*
X118878985Y-81350500D01*
X119032365Y-81312696D01*
X119091927Y-81281435D01*
X119172240Y-81239283D01*
X119290483Y-81134530D01*
X119380220Y-81004523D01*
X119436237Y-80856818D01*
X119455278Y-80700000D01*
X119448593Y-80644939D01*
X119436237Y-80543181D01*
X119399182Y-80445476D01*
X119380220Y-80395477D01*
X119379851Y-80394943D01*
X119379702Y-80394492D01*
X119376733Y-80388833D01*
X119377673Y-80388339D01*
X119357966Y-80328594D01*
X119375426Y-80260941D01*
X119394213Y-80236822D01*
X121119219Y-78511819D01*
X121180542Y-78478334D01*
X121206900Y-78475500D01*
X121703692Y-78475500D01*
X121770731Y-78495185D01*
X121805742Y-78529061D01*
X121809517Y-78534530D01*
X121927760Y-78639283D01*
X121927762Y-78639284D01*
X122067634Y-78712696D01*
X122221014Y-78750500D01*
X122221015Y-78750500D01*
X122378985Y-78750500D01*
X122532365Y-78712696D01*
X122536000Y-78710788D01*
X122672240Y-78639283D01*
X122790483Y-78534530D01*
X122874622Y-78412632D01*
X122928904Y-78368642D01*
X122998353Y-78360982D01*
X123060918Y-78392085D01*
G37*
G04 #@! TD.AperFunction*
G04 #@! TA.AperFunction,Conductor*
G36*
X128276371Y-84892722D02*
G01*
X128332303Y-84934595D01*
X128356130Y-84993956D01*
X128363763Y-85056819D01*
X128402157Y-85158054D01*
X128419780Y-85204523D01*
X128509517Y-85334530D01*
X128627760Y-85439283D01*
X128627762Y-85439284D01*
X128767634Y-85512696D01*
X128921014Y-85550500D01*
X128921015Y-85550500D01*
X129078985Y-85550500D01*
X129160567Y-85530392D01*
X129230367Y-85533461D01*
X129287429Y-85573781D01*
X129313635Y-85638550D01*
X129300663Y-85707205D01*
X129277919Y-85738472D01*
X127303601Y-87712696D01*
X126785732Y-88230541D01*
X126731787Y-88284483D01*
X126670463Y-88317967D01*
X126644108Y-88320800D01*
X126064052Y-88320800D01*
X126056988Y-88320799D01*
X126014615Y-88320793D01*
X126014614Y-88320793D01*
X126014609Y-88320793D01*
X126014564Y-88320798D01*
X125968579Y-88333121D01*
X125968565Y-88333124D01*
X125919088Y-88346375D01*
X125875276Y-88371669D01*
X125875265Y-88371675D01*
X125833457Y-88395805D01*
X125801049Y-88428214D01*
X125801037Y-88428226D01*
X125485171Y-88744005D01*
X125423843Y-88777482D01*
X125354152Y-88772488D01*
X125352709Y-88771939D01*
X125262461Y-88736977D01*
X125262456Y-88736976D01*
X125061976Y-88699500D01*
X124858024Y-88699500D01*
X124657544Y-88736976D01*
X124657540Y-88736977D01*
X124651909Y-88738030D01*
X124651672Y-88736763D01*
X124588232Y-88736222D01*
X124529778Y-88697948D01*
X124501296Y-88634147D01*
X124511829Y-88565075D01*
X124536499Y-88529865D01*
X128145356Y-84921217D01*
X128206679Y-84887736D01*
X128276371Y-84892722D01*
G37*
G04 #@! TD.AperFunction*
G04 #@! TA.AperFunction,Conductor*
G36*
X133783837Y-79385577D02*
G01*
X133839769Y-79427450D01*
X133864184Y-79492916D01*
X133864500Y-79501758D01*
X133864500Y-82025794D01*
X133844815Y-82092833D01*
X133828179Y-82113477D01*
X131726764Y-84214797D01*
X131665440Y-84248281D01*
X131595749Y-84243295D01*
X131539816Y-84201422D01*
X131537035Y-84197554D01*
X131483483Y-84119970D01*
X131365240Y-84015217D01*
X131365238Y-84015216D01*
X131365237Y-84015215D01*
X131225365Y-83941803D01*
X131071986Y-83904000D01*
X131071985Y-83904000D01*
X130914015Y-83904000D01*
X130914014Y-83904000D01*
X130760634Y-83941803D01*
X130620762Y-84015215D01*
X130502516Y-84119971D01*
X130412781Y-84249975D01*
X130412780Y-84249976D01*
X130356762Y-84397681D01*
X130337722Y-84554496D01*
X130337722Y-84554499D01*
X130343894Y-84605335D01*
X130332433Y-84674259D01*
X130308477Y-84707964D01*
X129844989Y-85171429D01*
X129783665Y-85204913D01*
X129713974Y-85199927D01*
X129658041Y-85158054D01*
X129633626Y-85092589D01*
X129636038Y-85064349D01*
X129635333Y-85064264D01*
X129655278Y-84900000D01*
X129655278Y-84899999D01*
X129636237Y-84743181D01*
X129598611Y-84643970D01*
X129580220Y-84595477D01*
X129490483Y-84465470D01*
X129372240Y-84360717D01*
X129372238Y-84360716D01*
X129372237Y-84360715D01*
X129232366Y-84287304D01*
X129082375Y-84250335D01*
X129021994Y-84215179D01*
X128990206Y-84152959D01*
X128997102Y-84083431D01*
X129024368Y-84042257D01*
X133652822Y-79414072D01*
X133714145Y-79380591D01*
X133783837Y-79385577D01*
G37*
G04 #@! TD.AperFunction*
G04 #@! TA.AperFunction,Conductor*
G36*
X108730184Y-80695185D02*
G01*
X108750813Y-80711805D01*
X109105622Y-81066505D01*
X109139116Y-81127823D01*
X109134142Y-81197516D01*
X109092280Y-81253456D01*
X109026819Y-81277883D01*
X109017954Y-81278200D01*
X105402830Y-81278200D01*
X105335791Y-81258515D01*
X105315170Y-81241902D01*
X105121056Y-81047881D01*
X105087556Y-80986566D01*
X105092524Y-80916873D01*
X105134382Y-80860930D01*
X105151084Y-80850386D01*
X105172240Y-80839283D01*
X105290483Y-80734530D01*
X105294257Y-80729061D01*
X105348537Y-80685071D01*
X105396308Y-80675500D01*
X108663145Y-80675500D01*
X108730184Y-80695185D01*
G37*
G04 #@! TD.AperFunction*
G04 #@! TA.AperFunction,Conductor*
G36*
X122898978Y-71034572D02*
G01*
X122939182Y-71059117D01*
X123073957Y-71181980D01*
X123073960Y-71181982D01*
X123151067Y-71229724D01*
X123247363Y-71289348D01*
X123437544Y-71363024D01*
X123638024Y-71400500D01*
X123638026Y-71400500D01*
X123841974Y-71400500D01*
X123841976Y-71400500D01*
X124042456Y-71363024D01*
X124042465Y-71363020D01*
X124047971Y-71361455D01*
X124048467Y-71363201D01*
X124109816Y-71358023D01*
X124171562Y-71390720D01*
X124172684Y-71391828D01*
X124502102Y-71721287D01*
X124524142Y-71743329D01*
X124557623Y-71804654D01*
X124552634Y-71874346D01*
X124510759Y-71930277D01*
X124445293Y-71954690D01*
X124377021Y-71939833D01*
X124371178Y-71936432D01*
X124232642Y-71850655D01*
X124232635Y-71850651D01*
X124113902Y-71804654D01*
X124042456Y-71776976D01*
X123841976Y-71739500D01*
X123638024Y-71739500D01*
X123437544Y-71776976D01*
X123437541Y-71776976D01*
X123437541Y-71776977D01*
X123247364Y-71850651D01*
X123247357Y-71850655D01*
X123073960Y-71958017D01*
X123073958Y-71958019D01*
X122923237Y-72095418D01*
X122800327Y-72258178D01*
X122709422Y-72440739D01*
X122709417Y-72440752D01*
X122653602Y-72636917D01*
X122634785Y-72839999D01*
X122634785Y-72840000D01*
X122653602Y-73043082D01*
X122709417Y-73239247D01*
X122709422Y-73239260D01*
X122800327Y-73421821D01*
X122923237Y-73584581D01*
X123073958Y-73721980D01*
X123073960Y-73721982D01*
X123136520Y-73760717D01*
X123247363Y-73829348D01*
X123285293Y-73844042D01*
X123340694Y-73886612D01*
X123364286Y-73952378D01*
X123364500Y-73959668D01*
X123364500Y-73993135D01*
X123390090Y-74088638D01*
X123439525Y-74174262D01*
X123509438Y-74244175D01*
X123595062Y-74293610D01*
X123690565Y-74319200D01*
X123789435Y-74319200D01*
X124361091Y-74319200D01*
X124428130Y-74338885D01*
X124448775Y-74355521D01*
X129389487Y-79296501D01*
X129422970Y-79357824D01*
X129424899Y-79399125D01*
X129418722Y-79450000D01*
X129437762Y-79606818D01*
X129482938Y-79725936D01*
X129493780Y-79754523D01*
X129583517Y-79884530D01*
X129701760Y-79989283D01*
X129701762Y-79989284D01*
X129841634Y-80062696D01*
X129995014Y-80100500D01*
X129995015Y-80100500D01*
X130152985Y-80100500D01*
X130306365Y-80062696D01*
X130377052Y-80025596D01*
X130446240Y-79989283D01*
X130564483Y-79884530D01*
X130654220Y-79754523D01*
X130710237Y-79606818D01*
X130729278Y-79450000D01*
X130723265Y-79400473D01*
X130710237Y-79293181D01*
X130673182Y-79195476D01*
X130654220Y-79145477D01*
X130564483Y-79015470D01*
X130446240Y-78910717D01*
X130446238Y-78910716D01*
X130446237Y-78910715D01*
X130306365Y-78837303D01*
X130152986Y-78799500D01*
X130152985Y-78799500D01*
X130005924Y-78799500D01*
X129938885Y-78779815D01*
X129918240Y-78763179D01*
X129911879Y-78756818D01*
X128744336Y-77589211D01*
X128583016Y-77427882D01*
X128549533Y-77366558D01*
X128554519Y-77296866D01*
X128596392Y-77240934D01*
X128661857Y-77216519D01*
X128670691Y-77216203D01*
X128712964Y-77216200D01*
X132724751Y-77216200D01*
X132791790Y-77235885D01*
X132837545Y-77288689D01*
X132847489Y-77357847D01*
X132837672Y-77388172D01*
X132838440Y-77388464D01*
X132779762Y-77543181D01*
X132760722Y-77699999D01*
X132760722Y-77700000D01*
X132779762Y-77856818D01*
X132835780Y-78004523D01*
X132835783Y-78004529D01*
X132870599Y-78054969D01*
X132892482Y-78121323D01*
X132875016Y-78188975D01*
X132856224Y-78213095D01*
X130480797Y-80588187D01*
X130419472Y-80621668D01*
X130393122Y-80624500D01*
X126406900Y-80624500D01*
X126339861Y-80604815D01*
X126319219Y-80588181D01*
X122830563Y-77099526D01*
X122830562Y-77099525D01*
X122744938Y-77050090D01*
X122697186Y-77037295D01*
X122697184Y-77037294D01*
X122697182Y-77037293D01*
X122649436Y-77024500D01*
X122649435Y-77024500D01*
X120105888Y-77024500D01*
X120038849Y-77004815D01*
X119993094Y-76952011D01*
X119983150Y-76882853D01*
X120012175Y-76819297D01*
X120018198Y-76812826D01*
X120153498Y-76677536D01*
X120153509Y-76677527D01*
X120160560Y-76670476D01*
X120160562Y-76670475D01*
X120191754Y-76639283D01*
X120224258Y-76606780D01*
X120227297Y-76604145D01*
X120227977Y-76603379D01*
X120230559Y-76600636D01*
X120232317Y-76597371D01*
X120265323Y-76540204D01*
X120277936Y-76518357D01*
X120280022Y-76514999D01*
X120280029Y-76514984D01*
X120280925Y-76511146D01*
X120293712Y-76463421D01*
X120293714Y-76463419D01*
X120305262Y-76420329D01*
X120305493Y-76419493D01*
X120305500Y-76419444D01*
X120305500Y-76336161D01*
X120305501Y-76320577D01*
X120305500Y-76320573D01*
X120305500Y-73794546D01*
X120325185Y-73727507D01*
X120377989Y-73681752D01*
X120447147Y-73671808D01*
X120510703Y-73700833D01*
X120513039Y-73702910D01*
X120533957Y-73721980D01*
X120533960Y-73721982D01*
X120596520Y-73760717D01*
X120707363Y-73829348D01*
X120897544Y-73903024D01*
X121098024Y-73940500D01*
X121098026Y-73940500D01*
X121301974Y-73940500D01*
X121301976Y-73940500D01*
X121502456Y-73903024D01*
X121503315Y-73902690D01*
X121503760Y-73902653D01*
X121507977Y-73901454D01*
X121508211Y-73902278D01*
X121572938Y-73896825D01*
X121634680Y-73929530D01*
X121635797Y-73930634D01*
X126190181Y-78485018D01*
X126223666Y-78546341D01*
X126226500Y-78572699D01*
X126226500Y-78820696D01*
X126206815Y-78887735D01*
X126184727Y-78913511D01*
X126111518Y-78978368D01*
X126021781Y-79108375D01*
X126021780Y-79108376D01*
X125965762Y-79256081D01*
X125946722Y-79412899D01*
X125946722Y-79412900D01*
X125965762Y-79569718D01*
X126020034Y-79712819D01*
X126021780Y-79717423D01*
X126111517Y-79847430D01*
X126229760Y-79952183D01*
X126229762Y-79952184D01*
X126369634Y-80025596D01*
X126523014Y-80063400D01*
X126523015Y-80063400D01*
X126680985Y-80063400D01*
X126834365Y-80025596D01*
X126974240Y-79952183D01*
X127092483Y-79847430D01*
X127182220Y-79717423D01*
X127238237Y-79569718D01*
X127257278Y-79412900D01*
X127255606Y-79399125D01*
X127238237Y-79256081D01*
X127196290Y-79145477D01*
X127182220Y-79108377D01*
X127092483Y-78978370D01*
X127072557Y-78960717D01*
X127019273Y-78913511D01*
X126982146Y-78854322D01*
X126977500Y-78820696D01*
X126977500Y-78316367D01*
X126977500Y-78316365D01*
X126951910Y-78220862D01*
X126902475Y-78135238D01*
X126832562Y-78065325D01*
X122219176Y-73451939D01*
X122185691Y-73390616D01*
X122190675Y-73320924D01*
X122195849Y-73309001D01*
X122230582Y-73239250D01*
X122286397Y-73043083D01*
X122305215Y-72840000D01*
X122286397Y-72636917D01*
X122230582Y-72440750D01*
X122219860Y-72419218D01*
X122186272Y-72351764D01*
X122139673Y-72258179D01*
X122016764Y-72095421D01*
X122016762Y-72095418D01*
X121965662Y-72048835D01*
X121929380Y-71989124D01*
X121931141Y-71919277D01*
X121961518Y-71869518D01*
X122000475Y-71830562D01*
X122000474Y-71830562D01*
X122059034Y-71772003D01*
X122059046Y-71771989D01*
X122767964Y-71063071D01*
X122829286Y-71029588D01*
X122898978Y-71034572D01*
G37*
G04 #@! TD.AperFunction*
G04 #@! TA.AperFunction,Conductor*
G36*
X117723432Y-73458135D02*
G01*
X117779056Y-73499591D01*
X117843237Y-73584581D01*
X117993958Y-73721980D01*
X117993960Y-73721982D01*
X118056520Y-73760717D01*
X118167363Y-73829348D01*
X118357544Y-73903024D01*
X118558024Y-73940500D01*
X118558026Y-73940500D01*
X118761974Y-73940500D01*
X118761976Y-73940500D01*
X118962456Y-73903024D01*
X119152637Y-73829348D01*
X119326041Y-73721981D01*
X119346961Y-73702910D01*
X119409765Y-73672292D01*
X119479152Y-73680489D01*
X119533093Y-73724899D01*
X119554461Y-73791421D01*
X119554500Y-73794546D01*
X119554500Y-76163090D01*
X119534815Y-76230129D01*
X119518178Y-76250774D01*
X115280788Y-80487884D01*
X115219464Y-80521367D01*
X115193110Y-80524200D01*
X110209856Y-80524200D01*
X110142817Y-80504515D01*
X110122188Y-80487895D01*
X109289131Y-79655094D01*
X109289132Y-79655092D01*
X109289117Y-79655080D01*
X109284842Y-79650805D01*
X109251357Y-79589482D01*
X109249427Y-79548181D01*
X109255278Y-79500000D01*
X109236237Y-79343182D01*
X109180220Y-79195477D01*
X109090483Y-79065470D01*
X108972240Y-78960717D01*
X108972238Y-78960716D01*
X108972237Y-78960715D01*
X108832365Y-78887303D01*
X108678986Y-78849500D01*
X108678985Y-78849500D01*
X108521015Y-78849500D01*
X108521014Y-78849500D01*
X108367634Y-78887303D01*
X108227762Y-78960715D01*
X108109516Y-79065471D01*
X108019781Y-79195475D01*
X108019780Y-79195476D01*
X107963762Y-79343181D01*
X107944722Y-79499999D01*
X107944722Y-79500000D01*
X107963763Y-79656818D01*
X108001578Y-79756529D01*
X108006945Y-79826192D01*
X107973797Y-79887698D01*
X107912659Y-79921520D01*
X107885636Y-79924500D01*
X105905899Y-79924500D01*
X105838860Y-79904815D01*
X105793105Y-79852011D01*
X105783161Y-79782853D01*
X105812186Y-79719297D01*
X105818218Y-79712819D01*
X106422662Y-79108375D01*
X108276031Y-77255004D01*
X108337352Y-77221521D01*
X108407044Y-77226505D01*
X108462977Y-77268377D01*
X108479652Y-77298715D01*
X108519781Y-77404525D01*
X108539448Y-77433017D01*
X108609517Y-77534530D01*
X108727760Y-77639283D01*
X108727762Y-77639284D01*
X108867634Y-77712696D01*
X109021014Y-77750500D01*
X109021015Y-77750500D01*
X109178985Y-77750500D01*
X109332365Y-77712696D01*
X109356557Y-77699999D01*
X109472240Y-77639283D01*
X109590483Y-77534530D01*
X109680220Y-77404523D01*
X109736237Y-77256818D01*
X109755278Y-77100000D01*
X109749102Y-77049144D01*
X109760561Y-76980225D01*
X109784515Y-76946520D01*
X109819221Y-76911816D01*
X109880545Y-76878333D01*
X109906900Y-76875500D01*
X111000500Y-76875500D01*
X111067539Y-76895185D01*
X111113294Y-76947989D01*
X111124500Y-76999500D01*
X111124500Y-78549437D01*
X111137073Y-78596362D01*
X111150088Y-78644934D01*
X111150089Y-78644937D01*
X111166568Y-78673479D01*
X111199525Y-78730562D01*
X111199526Y-78730563D01*
X111799525Y-79330562D01*
X111869438Y-79400475D01*
X111955062Y-79449910D01*
X112001433Y-79462335D01*
X112050564Y-79475500D01*
X112050565Y-79475500D01*
X113149434Y-79475500D01*
X113149436Y-79475500D01*
X113198567Y-79462335D01*
X113244938Y-79449910D01*
X113330562Y-79400475D01*
X113400475Y-79330562D01*
X115444217Y-77286818D01*
X115505540Y-77253334D01*
X115531898Y-77250500D01*
X115678985Y-77250500D01*
X115832365Y-77212696D01*
X115851439Y-77202685D01*
X115972240Y-77139283D01*
X116090483Y-77034530D01*
X116180220Y-76904523D01*
X116236237Y-76756818D01*
X116255278Y-76600000D01*
X116238275Y-76459970D01*
X116249735Y-76391050D01*
X116273687Y-76357348D01*
X116844217Y-75786819D01*
X116905540Y-75753334D01*
X116931898Y-75750500D01*
X117078985Y-75750500D01*
X117232365Y-75712696D01*
X117247381Y-75704815D01*
X117372240Y-75639283D01*
X117490483Y-75534530D01*
X117580220Y-75404523D01*
X117636237Y-75256818D01*
X117655278Y-75100000D01*
X117647906Y-75039281D01*
X117636237Y-74943181D01*
X117614992Y-74887164D01*
X117580220Y-74795477D01*
X117490483Y-74665470D01*
X117372240Y-74560717D01*
X117372238Y-74560716D01*
X117372237Y-74560715D01*
X117232365Y-74487303D01*
X117078986Y-74449500D01*
X117078985Y-74449500D01*
X116928965Y-74449500D01*
X116861926Y-74429815D01*
X116816171Y-74377011D01*
X116806227Y-74307853D01*
X116835252Y-74244297D01*
X116841281Y-74237821D01*
X116848690Y-74230412D01*
X117592420Y-73486637D01*
X117653740Y-73453153D01*
X117723432Y-73458135D01*
G37*
G04 #@! TD.AperFunction*
M02*
