G04 #@! TF.GenerationSoftware,KiCad,Pcbnew,8.0.3*
G04 #@! TF.CreationDate,2024-06-13T11:49:56-06:00*
G04 #@! TF.ProjectId,PCB_Project,5043425f-5072-46f6-9a65-63742e6b6963,rev?*
G04 #@! TF.SameCoordinates,Original*
G04 #@! TF.FileFunction,Copper,L3,Inr*
G04 #@! TF.FilePolarity,Positive*
%FSLAX46Y46*%
G04 Gerber Fmt 4.6, Leading zero omitted, Abs format (unit mm)*
G04 Created by KiCad (PCBNEW 8.0.3) date 2024-06-13 11:49:56*
%MOMM*%
%LPD*%
G01*
G04 APERTURE LIST*
G04 Aperture macros list*
%AMRoundRect*
0 Rectangle with rounded corners*
0 $1 Rounding radius*
0 $2 $3 $4 $5 $6 $7 $8 $9 X,Y pos of 4 corners*
0 Add a 4 corners polygon primitive as box body*
4,1,4,$2,$3,$4,$5,$6,$7,$8,$9,$2,$3,0*
0 Add four circle primitives for the rounded corners*
1,1,$1+$1,$2,$3*
1,1,$1+$1,$4,$5*
1,1,$1+$1,$6,$7*
1,1,$1+$1,$8,$9*
0 Add four rect primitives between the rounded corners*
20,1,$1+$1,$2,$3,$4,$5,0*
20,1,$1+$1,$4,$5,$6,$7,0*
20,1,$1+$1,$6,$7,$8,$9,0*
20,1,$1+$1,$8,$9,$2,$3,0*%
G04 Aperture macros list end*
G04 #@! TA.AperFunction,ComponentPad*
%ADD10R,1.700000X1.700000*%
G04 #@! TD*
G04 #@! TA.AperFunction,ComponentPad*
%ADD11O,1.700000X1.700000*%
G04 #@! TD*
G04 #@! TA.AperFunction,ComponentPad*
%ADD12RoundRect,0.250000X-0.350000X-0.625000X0.350000X-0.625000X0.350000X0.625000X-0.350000X0.625000X0*%
G04 #@! TD*
G04 #@! TA.AperFunction,ComponentPad*
%ADD13O,1.200000X1.750000*%
G04 #@! TD*
G04 #@! TA.AperFunction,ComponentPad*
%ADD14R,1.350000X1.350000*%
G04 #@! TD*
G04 #@! TA.AperFunction,ComponentPad*
%ADD15O,1.350000X1.350000*%
G04 #@! TD*
G04 #@! TA.AperFunction,ViaPad*
%ADD16C,0.800000*%
G04 #@! TD*
G04 APERTURE END LIST*
D10*
X114800000Y-94200000D03*
D11*
X117340000Y-94200000D03*
X119880000Y-94200000D03*
X122420000Y-94200000D03*
X124960000Y-94200000D03*
X127500000Y-94200000D03*
D12*
X140600000Y-91950000D03*
D13*
X142600000Y-91950000D03*
D10*
X114800000Y-89800000D03*
D11*
X117340000Y-89800000D03*
X119880000Y-89800000D03*
X122420000Y-89800000D03*
X124960000Y-89800000D03*
X127500000Y-89800000D03*
D12*
X132500000Y-91950000D03*
D13*
X134500000Y-91950000D03*
D12*
X140600000Y-86000000D03*
D13*
X142600000Y-86000000D03*
D14*
X96600000Y-94500000D03*
D15*
X98600000Y-94500000D03*
X100600000Y-94500000D03*
X102600000Y-94500000D03*
X104600000Y-94500000D03*
D10*
X95800000Y-72840000D03*
D11*
X95800000Y-70300000D03*
X98340000Y-72840000D03*
X98340000Y-70300000D03*
X100880000Y-72840000D03*
X100880000Y-70300000D03*
X103420000Y-72840000D03*
X103420000Y-70300000D03*
X105960000Y-72840000D03*
X105960000Y-70300000D03*
X108500000Y-72840000D03*
X108500000Y-70300000D03*
X111040000Y-72840000D03*
X111040000Y-70300000D03*
X113580000Y-72840000D03*
X113580000Y-70300000D03*
X116120000Y-72840000D03*
X116120000Y-70300000D03*
X118660000Y-72840000D03*
X118660000Y-70300000D03*
X121200000Y-72840000D03*
X121200000Y-70300000D03*
X123740000Y-72840000D03*
X123740000Y-70300000D03*
X126280000Y-72840000D03*
X126280000Y-70300000D03*
X128820000Y-72840000D03*
X128820000Y-70300000D03*
X131360000Y-72840000D03*
X131360000Y-70300000D03*
X133900000Y-72840000D03*
X133900000Y-70300000D03*
X136440000Y-72840000D03*
X136440000Y-70300000D03*
X138980000Y-72840000D03*
X138980000Y-70300000D03*
X141520000Y-72840000D03*
X141520000Y-70300000D03*
X144060000Y-72840000D03*
X144060000Y-70300000D03*
D16*
X107450000Y-88300000D03*
X108200000Y-95300000D03*
X106000000Y-76100000D03*
X118800000Y-80700000D03*
X144700000Y-80400000D03*
X96600000Y-84300000D03*
X145100000Y-78600000D03*
X100700000Y-77700000D03*
X133800000Y-83700000D03*
X129000000Y-84900000D03*
X144600000Y-83600000D03*
X121300000Y-87000000D03*
X115600000Y-76600000D03*
X109100000Y-77100000D03*
X130100000Y-74300000D03*
X117000000Y-75100000D03*
X109200000Y-85300000D03*
X105200000Y-74600000D03*
X116400000Y-81600000D03*
X120600000Y-85100000D03*
X100100000Y-91500000D03*
X96900000Y-91500000D03*
X127300000Y-81700000D03*
X132600000Y-69100000D03*
X122300000Y-78100000D03*
X135500000Y-69000000D03*
X111900000Y-82700000D03*
X100700000Y-87100000D03*
X110200000Y-82700000D03*
X141000000Y-76000000D03*
X142100000Y-74800000D03*
X117400000Y-70948000D03*
X112500000Y-74400000D03*
X102400000Y-74500000D03*
X102000000Y-68900000D03*
X130400000Y-83500000D03*
X121900000Y-81400000D03*
X117600000Y-77200000D03*
X127800000Y-86200000D03*
X142068000Y-83366300D03*
X117418000Y-86600000D03*
X108200000Y-74800000D03*
X98700000Y-80600000D03*
X132300000Y-85900000D03*
X123312000Y-76000000D03*
X108600000Y-80952000D03*
X119500000Y-92200000D03*
X141000000Y-77200000D03*
X104400000Y-77400000D03*
X136788000Y-76000000D03*
X122400000Y-92300000D03*
X131975000Y-76000000D03*
X134900000Y-74600000D03*
X122300000Y-86000000D03*
X120987000Y-80750000D03*
X137692000Y-81751300D03*
X103482000Y-82995000D03*
X103482000Y-80295000D03*
X114700000Y-82305700D03*
X133416000Y-77700000D03*
X104800000Y-80300000D03*
X130074000Y-79450000D03*
X125384000Y-92111500D03*
X135300000Y-79500000D03*
X124389000Y-82114100D03*
X126602000Y-79412900D03*
X118341000Y-82570100D03*
X112516000Y-77972300D03*
X143821000Y-81837500D03*
X130993000Y-84554500D03*
X141100000Y-83200000D03*
X108600000Y-79500000D03*
X111620000Y-85536900D03*
X111829000Y-75798800D03*
G04 #@! TA.AperFunction,Conductor*
G36*
X145006061Y-68000597D02*
G01*
X145182941Y-68018018D01*
X145206769Y-68022757D01*
X145371001Y-68072576D01*
X145393453Y-68081877D01*
X145544798Y-68162772D01*
X145565010Y-68176277D01*
X145697666Y-68285145D01*
X145714854Y-68302333D01*
X145823722Y-68434989D01*
X145837227Y-68455201D01*
X145918121Y-68606543D01*
X145927424Y-68629001D01*
X145977240Y-68793224D01*
X145981982Y-68817065D01*
X145999403Y-68993938D01*
X146000000Y-69006092D01*
X146000000Y-78565501D01*
X145990476Y-78597934D01*
X145998321Y-78614159D01*
X146000000Y-78634498D01*
X146000000Y-95993907D01*
X145999403Y-96006061D01*
X145981982Y-96182934D01*
X145977240Y-96206775D01*
X145927424Y-96370998D01*
X145918121Y-96393456D01*
X145837227Y-96544798D01*
X145823722Y-96565010D01*
X145714854Y-96697666D01*
X145697666Y-96714854D01*
X145565010Y-96823722D01*
X145544798Y-96837227D01*
X145393456Y-96918121D01*
X145370998Y-96927424D01*
X145206775Y-96977240D01*
X145182934Y-96981982D01*
X145006061Y-96999403D01*
X144993907Y-97000000D01*
X95006093Y-97000000D01*
X94993939Y-96999403D01*
X94817065Y-96981982D01*
X94793224Y-96977240D01*
X94629001Y-96927424D01*
X94606543Y-96918121D01*
X94455201Y-96837227D01*
X94434989Y-96823722D01*
X94302333Y-96714854D01*
X94285145Y-96697666D01*
X94176277Y-96565010D01*
X94162772Y-96544798D01*
X94081878Y-96393456D01*
X94072575Y-96370998D01*
X94022757Y-96206769D01*
X94018018Y-96182941D01*
X94000597Y-96006061D01*
X94000000Y-95993907D01*
X94000000Y-93800321D01*
X95674500Y-93800321D01*
X95674500Y-95199678D01*
X95689032Y-95272735D01*
X95689033Y-95272739D01*
X95689034Y-95272740D01*
X95744399Y-95355601D01*
X95788475Y-95385051D01*
X95827260Y-95410966D01*
X95827264Y-95410967D01*
X95900321Y-95425499D01*
X95900324Y-95425500D01*
X95900326Y-95425500D01*
X97299676Y-95425500D01*
X97299677Y-95425499D01*
X97372740Y-95410966D01*
X97455601Y-95355601D01*
X97510966Y-95272740D01*
X97525500Y-95199674D01*
X97525500Y-94952687D01*
X97545185Y-94885648D01*
X97597989Y-94839893D01*
X97667147Y-94829949D01*
X97730703Y-94858974D01*
X97756887Y-94890687D01*
X97788002Y-94944579D01*
X97847130Y-95046992D01*
X97878635Y-95081982D01*
X97977302Y-95191564D01*
X97977305Y-95191566D01*
X97977308Y-95191569D01*
X98075657Y-95263024D01*
X98134702Y-95305923D01*
X98202926Y-95336297D01*
X98312429Y-95385051D01*
X98502726Y-95425500D01*
X98697274Y-95425500D01*
X98887571Y-95385051D01*
X99065299Y-95305922D01*
X99222692Y-95191569D01*
X99224696Y-95189344D01*
X99266261Y-95143181D01*
X99352870Y-95046992D01*
X99450144Y-94878508D01*
X99482069Y-94780252D01*
X99521506Y-94722576D01*
X99585864Y-94695377D01*
X99654711Y-94707291D01*
X99706187Y-94754535D01*
X99717931Y-94780252D01*
X99749855Y-94878507D01*
X99749857Y-94878511D01*
X99788002Y-94944579D01*
X99847130Y-95046992D01*
X99878635Y-95081982D01*
X99977302Y-95191564D01*
X99977305Y-95191566D01*
X99977308Y-95191569D01*
X100075657Y-95263024D01*
X100134702Y-95305923D01*
X100202926Y-95336297D01*
X100312429Y-95385051D01*
X100502726Y-95425500D01*
X100697274Y-95425500D01*
X100887571Y-95385051D01*
X101065299Y-95305922D01*
X101222692Y-95191569D01*
X101224696Y-95189344D01*
X101266261Y-95143181D01*
X101352870Y-95046992D01*
X101450144Y-94878508D01*
X101482069Y-94780252D01*
X101521506Y-94722576D01*
X101585864Y-94695377D01*
X101654711Y-94707291D01*
X101706187Y-94754535D01*
X101717931Y-94780252D01*
X101749855Y-94878507D01*
X101749857Y-94878511D01*
X101788002Y-94944579D01*
X101847130Y-95046992D01*
X101878635Y-95081982D01*
X101977302Y-95191564D01*
X101977305Y-95191566D01*
X101977308Y-95191569D01*
X102075657Y-95263024D01*
X102134702Y-95305923D01*
X102202926Y-95336297D01*
X102312429Y-95385051D01*
X102502726Y-95425500D01*
X102697274Y-95425500D01*
X102887571Y-95385051D01*
X103065299Y-95305922D01*
X103222692Y-95191569D01*
X103224696Y-95189344D01*
X103266261Y-95143181D01*
X103352870Y-95046992D01*
X103450144Y-94878508D01*
X103482069Y-94780252D01*
X103521506Y-94722576D01*
X103585864Y-94695377D01*
X103654711Y-94707291D01*
X103706187Y-94754535D01*
X103717931Y-94780252D01*
X103749855Y-94878507D01*
X103749857Y-94878511D01*
X103788002Y-94944579D01*
X103847130Y-95046992D01*
X103878635Y-95081982D01*
X103977302Y-95191564D01*
X103977305Y-95191566D01*
X103977308Y-95191569D01*
X104075657Y-95263024D01*
X104134702Y-95305923D01*
X104202926Y-95336297D01*
X104312429Y-95385051D01*
X104502726Y-95425500D01*
X104697274Y-95425500D01*
X104887571Y-95385051D01*
X105065299Y-95305922D01*
X105073451Y-95299999D01*
X107544722Y-95299999D01*
X107544722Y-95300000D01*
X107563762Y-95456818D01*
X107619780Y-95604523D01*
X107709517Y-95734530D01*
X107827760Y-95839283D01*
X107827762Y-95839284D01*
X107967634Y-95912696D01*
X108121014Y-95950500D01*
X108121015Y-95950500D01*
X108278985Y-95950500D01*
X108432365Y-95912696D01*
X108572240Y-95839283D01*
X108690483Y-95734530D01*
X108780220Y-95604523D01*
X108836237Y-95456818D01*
X108855278Y-95300000D01*
X108851968Y-95272735D01*
X108836237Y-95143181D01*
X108799756Y-95046990D01*
X108780220Y-94995477D01*
X108690483Y-94865470D01*
X108572240Y-94760717D01*
X108572238Y-94760716D01*
X108572237Y-94760715D01*
X108432365Y-94687303D01*
X108278986Y-94649500D01*
X108278985Y-94649500D01*
X108121015Y-94649500D01*
X108121014Y-94649500D01*
X107967634Y-94687303D01*
X107827762Y-94760715D01*
X107709516Y-94865471D01*
X107619781Y-94995475D01*
X107619780Y-94995476D01*
X107563762Y-95143181D01*
X107544722Y-95299999D01*
X105073451Y-95299999D01*
X105222692Y-95191569D01*
X105224696Y-95189344D01*
X105266261Y-95143181D01*
X105352870Y-95046992D01*
X105450144Y-94878508D01*
X105510262Y-94693482D01*
X105530598Y-94500000D01*
X105510262Y-94306518D01*
X105450144Y-94121492D01*
X105450143Y-94121491D01*
X105450143Y-94121489D01*
X105450142Y-94121488D01*
X105407316Y-94047312D01*
X105352870Y-93953008D01*
X105301882Y-93896381D01*
X105222697Y-93808435D01*
X105222694Y-93808433D01*
X105222693Y-93808432D01*
X105222692Y-93808431D01*
X105143995Y-93751254D01*
X105065297Y-93694076D01*
X104928848Y-93633326D01*
X104887571Y-93614949D01*
X104887569Y-93614948D01*
X104697274Y-93574500D01*
X104502726Y-93574500D01*
X104312431Y-93614948D01*
X104134702Y-93694076D01*
X103977305Y-93808433D01*
X103977302Y-93808435D01*
X103847129Y-93953009D01*
X103749857Y-94121488D01*
X103749856Y-94121489D01*
X103717931Y-94219748D01*
X103678494Y-94277423D01*
X103614135Y-94304622D01*
X103545289Y-94292708D01*
X103493813Y-94245464D01*
X103482069Y-94219748D01*
X103450143Y-94121489D01*
X103450142Y-94121488D01*
X103407316Y-94047312D01*
X103352870Y-93953008D01*
X103301882Y-93896381D01*
X103222697Y-93808435D01*
X103222694Y-93808433D01*
X103222693Y-93808432D01*
X103222692Y-93808431D01*
X103143995Y-93751254D01*
X103065297Y-93694076D01*
X102928848Y-93633326D01*
X102887571Y-93614949D01*
X102887569Y-93614948D01*
X102697274Y-93574500D01*
X102502726Y-93574500D01*
X102312431Y-93614948D01*
X102134702Y-93694076D01*
X101977305Y-93808433D01*
X101977302Y-93808435D01*
X101847129Y-93953009D01*
X101749857Y-94121488D01*
X101749856Y-94121489D01*
X101717931Y-94219748D01*
X101678494Y-94277423D01*
X101614135Y-94304622D01*
X101545289Y-94292708D01*
X101493813Y-94245464D01*
X101482069Y-94219748D01*
X101450143Y-94121489D01*
X101450142Y-94121488D01*
X101407316Y-94047312D01*
X101352870Y-93953008D01*
X101301882Y-93896381D01*
X101222697Y-93808435D01*
X101222694Y-93808433D01*
X101222693Y-93808432D01*
X101222692Y-93808431D01*
X101143995Y-93751254D01*
X101065297Y-93694076D01*
X100928848Y-93633326D01*
X100887571Y-93614949D01*
X100887569Y-93614948D01*
X100697274Y-93574500D01*
X100502726Y-93574500D01*
X100312431Y-93614948D01*
X100134702Y-93694076D01*
X99977305Y-93808433D01*
X99977302Y-93808435D01*
X99847129Y-93953009D01*
X99749857Y-94121488D01*
X99749856Y-94121489D01*
X99717931Y-94219748D01*
X99678494Y-94277423D01*
X99614135Y-94304622D01*
X99545289Y-94292708D01*
X99493813Y-94245464D01*
X99482069Y-94219748D01*
X99450143Y-94121489D01*
X99450142Y-94121488D01*
X99407316Y-94047312D01*
X99352870Y-93953008D01*
X99301882Y-93896381D01*
X99222697Y-93808435D01*
X99222694Y-93808433D01*
X99222693Y-93808432D01*
X99222692Y-93808431D01*
X99143995Y-93751254D01*
X99065297Y-93694076D01*
X98928848Y-93633326D01*
X98887571Y-93614949D01*
X98887569Y-93614948D01*
X98697274Y-93574500D01*
X98502726Y-93574500D01*
X98312431Y-93614948D01*
X98134702Y-93694076D01*
X97977305Y-93808433D01*
X97977302Y-93808435D01*
X97847128Y-93953009D01*
X97756887Y-94109312D01*
X97706320Y-94157528D01*
X97637713Y-94170750D01*
X97572848Y-94144782D01*
X97532320Y-94087868D01*
X97525500Y-94047312D01*
X97525500Y-93800323D01*
X97525499Y-93800321D01*
X97510967Y-93727264D01*
X97510966Y-93727260D01*
X97455601Y-93644399D01*
X97372740Y-93589034D01*
X97372739Y-93589033D01*
X97372735Y-93589032D01*
X97299677Y-93574500D01*
X97299674Y-93574500D01*
X95900326Y-93574500D01*
X95900323Y-93574500D01*
X95827264Y-93589032D01*
X95827260Y-93589033D01*
X95744399Y-93644399D01*
X95689033Y-93727260D01*
X95689032Y-93727264D01*
X95674500Y-93800321D01*
X94000000Y-93800321D01*
X94000000Y-93325321D01*
X113699500Y-93325321D01*
X113699500Y-95074678D01*
X113714032Y-95147735D01*
X113714033Y-95147739D01*
X113714034Y-95147740D01*
X113769399Y-95230601D01*
X113832458Y-95272735D01*
X113852260Y-95285966D01*
X113852264Y-95285967D01*
X113925321Y-95300499D01*
X113925324Y-95300500D01*
X113925326Y-95300500D01*
X115674676Y-95300500D01*
X115674677Y-95300499D01*
X115747740Y-95285966D01*
X115830601Y-95230601D01*
X115885966Y-95147740D01*
X115900500Y-95074674D01*
X115900500Y-94199999D01*
X116234785Y-94199999D01*
X116234785Y-94200000D01*
X116253602Y-94403082D01*
X116309417Y-94599247D01*
X116309422Y-94599260D01*
X116400327Y-94781821D01*
X116523237Y-94944581D01*
X116673958Y-95081980D01*
X116673960Y-95081982D01*
X116772801Y-95143181D01*
X116847363Y-95189348D01*
X117037544Y-95263024D01*
X117238024Y-95300500D01*
X117238026Y-95300500D01*
X117441974Y-95300500D01*
X117441976Y-95300500D01*
X117642456Y-95263024D01*
X117832637Y-95189348D01*
X118006041Y-95081981D01*
X118156764Y-94944579D01*
X118279673Y-94781821D01*
X118370582Y-94599250D01*
X118426397Y-94403083D01*
X118445215Y-94200000D01*
X118445215Y-94199999D01*
X118774785Y-94199999D01*
X118774785Y-94200000D01*
X118793602Y-94403082D01*
X118849417Y-94599247D01*
X118849422Y-94599260D01*
X118940327Y-94781821D01*
X119063237Y-94944581D01*
X119213958Y-95081980D01*
X119213960Y-95081982D01*
X119312801Y-95143181D01*
X119387363Y-95189348D01*
X119577544Y-95263024D01*
X119778024Y-95300500D01*
X119778026Y-95300500D01*
X119981974Y-95300500D01*
X119981976Y-95300500D01*
X120182456Y-95263024D01*
X120372637Y-95189348D01*
X120546041Y-95081981D01*
X120696764Y-94944579D01*
X120819673Y-94781821D01*
X120910582Y-94599250D01*
X120966397Y-94403083D01*
X120985215Y-94200000D01*
X120985215Y-94199999D01*
X121314785Y-94199999D01*
X121314785Y-94200000D01*
X121333602Y-94403082D01*
X121389417Y-94599247D01*
X121389422Y-94599260D01*
X121480327Y-94781821D01*
X121603237Y-94944581D01*
X121753958Y-95081980D01*
X121753960Y-95081982D01*
X121852801Y-95143181D01*
X121927363Y-95189348D01*
X122117544Y-95263024D01*
X122318024Y-95300500D01*
X122318026Y-95300500D01*
X122521974Y-95300500D01*
X122521976Y-95300500D01*
X122722456Y-95263024D01*
X122912637Y-95189348D01*
X123086041Y-95081981D01*
X123236764Y-94944579D01*
X123359673Y-94781821D01*
X123450582Y-94599250D01*
X123506397Y-94403083D01*
X123525215Y-94200000D01*
X123525215Y-94199999D01*
X123854785Y-94199999D01*
X123854785Y-94200000D01*
X123873602Y-94403082D01*
X123929417Y-94599247D01*
X123929422Y-94599260D01*
X124020327Y-94781821D01*
X124143237Y-94944581D01*
X124293958Y-95081980D01*
X124293960Y-95081982D01*
X124392801Y-95143181D01*
X124467363Y-95189348D01*
X124657544Y-95263024D01*
X124858024Y-95300500D01*
X124858026Y-95300500D01*
X125061974Y-95300500D01*
X125061976Y-95300500D01*
X125262456Y-95263024D01*
X125452637Y-95189348D01*
X125626041Y-95081981D01*
X125776764Y-94944579D01*
X125899673Y-94781821D01*
X125990582Y-94599250D01*
X126046397Y-94403083D01*
X126065215Y-94200000D01*
X126065215Y-94199999D01*
X126394785Y-94199999D01*
X126394785Y-94200000D01*
X126413602Y-94403082D01*
X126469417Y-94599247D01*
X126469422Y-94599260D01*
X126560327Y-94781821D01*
X126683237Y-94944581D01*
X126833958Y-95081980D01*
X126833960Y-95081982D01*
X126932801Y-95143181D01*
X127007363Y-95189348D01*
X127197544Y-95263024D01*
X127398024Y-95300500D01*
X127398026Y-95300500D01*
X127601974Y-95300500D01*
X127601976Y-95300500D01*
X127802456Y-95263024D01*
X127992637Y-95189348D01*
X128166041Y-95081981D01*
X128316764Y-94944579D01*
X128439673Y-94781821D01*
X128530582Y-94599250D01*
X128586397Y-94403083D01*
X128605215Y-94200000D01*
X128601279Y-94157528D01*
X128586397Y-93996917D01*
X128573904Y-93953008D01*
X128530582Y-93800750D01*
X128530369Y-93800323D01*
X128452729Y-93644399D01*
X128439673Y-93618179D01*
X128316764Y-93455421D01*
X128316762Y-93455418D01*
X128166041Y-93318019D01*
X128166039Y-93318017D01*
X127992642Y-93210655D01*
X127992635Y-93210651D01*
X127886150Y-93169399D01*
X127802456Y-93136976D01*
X127601976Y-93099500D01*
X127398024Y-93099500D01*
X127197544Y-93136976D01*
X127197541Y-93136976D01*
X127197541Y-93136977D01*
X127007364Y-93210651D01*
X127007357Y-93210655D01*
X126833960Y-93318017D01*
X126833958Y-93318019D01*
X126683237Y-93455418D01*
X126560327Y-93618178D01*
X126469422Y-93800739D01*
X126469417Y-93800752D01*
X126413602Y-93996917D01*
X126394785Y-94199999D01*
X126065215Y-94199999D01*
X126061279Y-94157528D01*
X126046397Y-93996917D01*
X126033904Y-93953008D01*
X125990582Y-93800750D01*
X125990369Y-93800323D01*
X125912729Y-93644399D01*
X125899673Y-93618179D01*
X125776764Y-93455421D01*
X125776762Y-93455418D01*
X125626041Y-93318019D01*
X125626039Y-93318017D01*
X125452642Y-93210655D01*
X125452635Y-93210651D01*
X125346150Y-93169399D01*
X125262456Y-93136976D01*
X125061976Y-93099500D01*
X124858024Y-93099500D01*
X124657544Y-93136976D01*
X124657541Y-93136976D01*
X124657541Y-93136977D01*
X124467364Y-93210651D01*
X124467357Y-93210655D01*
X124293960Y-93318017D01*
X124293958Y-93318019D01*
X124143237Y-93455418D01*
X124020327Y-93618178D01*
X123929422Y-93800739D01*
X123929417Y-93800752D01*
X123873602Y-93996917D01*
X123854785Y-94199999D01*
X123525215Y-94199999D01*
X123521279Y-94157528D01*
X123506397Y-93996917D01*
X123493904Y-93953008D01*
X123450582Y-93800750D01*
X123450369Y-93800323D01*
X123372729Y-93644399D01*
X123359673Y-93618179D01*
X123236764Y-93455421D01*
X123236762Y-93455418D01*
X123086041Y-93318019D01*
X123086039Y-93318017D01*
X122912642Y-93210655D01*
X122912635Y-93210651D01*
X122806150Y-93169399D01*
X122722456Y-93136976D01*
X122521976Y-93099500D01*
X122318024Y-93099500D01*
X122117544Y-93136976D01*
X122117541Y-93136976D01*
X122117541Y-93136977D01*
X121927364Y-93210651D01*
X121927357Y-93210655D01*
X121753960Y-93318017D01*
X121753958Y-93318019D01*
X121603237Y-93455418D01*
X121480327Y-93618178D01*
X121389422Y-93800739D01*
X121389417Y-93800752D01*
X121333602Y-93996917D01*
X121314785Y-94199999D01*
X120985215Y-94199999D01*
X120981279Y-94157528D01*
X120966397Y-93996917D01*
X120953904Y-93953008D01*
X120910582Y-93800750D01*
X120910369Y-93800323D01*
X120832729Y-93644399D01*
X120819673Y-93618179D01*
X120696764Y-93455421D01*
X120696762Y-93455418D01*
X120546041Y-93318019D01*
X120546039Y-93318017D01*
X120372642Y-93210655D01*
X120372635Y-93210651D01*
X120266150Y-93169399D01*
X120182456Y-93136976D01*
X119981976Y-93099500D01*
X119778024Y-93099500D01*
X119577544Y-93136976D01*
X119577541Y-93136976D01*
X119577541Y-93136977D01*
X119387364Y-93210651D01*
X119387357Y-93210655D01*
X119213960Y-93318017D01*
X119213958Y-93318019D01*
X119063237Y-93455418D01*
X118940327Y-93618178D01*
X118849422Y-93800739D01*
X118849417Y-93800752D01*
X118793602Y-93996917D01*
X118774785Y-94199999D01*
X118445215Y-94199999D01*
X118441279Y-94157528D01*
X118426397Y-93996917D01*
X118413904Y-93953008D01*
X118370582Y-93800750D01*
X118370369Y-93800323D01*
X118292729Y-93644399D01*
X118279673Y-93618179D01*
X118156764Y-93455421D01*
X118156762Y-93455418D01*
X118006041Y-93318019D01*
X118006039Y-93318017D01*
X117832642Y-93210655D01*
X117832635Y-93210651D01*
X117726150Y-93169399D01*
X117642456Y-93136976D01*
X117441976Y-93099500D01*
X117238024Y-93099500D01*
X117037544Y-93136976D01*
X117037541Y-93136976D01*
X117037541Y-93136977D01*
X116847364Y-93210651D01*
X116847357Y-93210655D01*
X116673960Y-93318017D01*
X116673958Y-93318019D01*
X116523237Y-93455418D01*
X116400327Y-93618178D01*
X116309422Y-93800739D01*
X116309417Y-93800752D01*
X116253602Y-93996917D01*
X116234785Y-94199999D01*
X115900500Y-94199999D01*
X115900500Y-93325326D01*
X115900500Y-93325323D01*
X115900499Y-93325321D01*
X115885967Y-93252264D01*
X115885966Y-93252260D01*
X115830601Y-93169399D01*
X115747740Y-93114034D01*
X115747739Y-93114033D01*
X115747735Y-93114032D01*
X115674677Y-93099500D01*
X115674674Y-93099500D01*
X113925326Y-93099500D01*
X113925323Y-93099500D01*
X113852264Y-93114032D01*
X113852260Y-93114033D01*
X113769399Y-93169399D01*
X113714033Y-93252260D01*
X113714032Y-93252264D01*
X113699500Y-93325321D01*
X94000000Y-93325321D01*
X94000000Y-91499999D01*
X96244722Y-91499999D01*
X96244722Y-91500000D01*
X96263762Y-91656818D01*
X96319780Y-91804523D01*
X96409517Y-91934530D01*
X96527760Y-92039283D01*
X96527762Y-92039284D01*
X96667634Y-92112696D01*
X96821014Y-92150500D01*
X96821015Y-92150500D01*
X96978985Y-92150500D01*
X97132365Y-92112696D01*
X97134646Y-92111499D01*
X97272240Y-92039283D01*
X97390483Y-91934530D01*
X97480220Y-91804523D01*
X97536237Y-91656818D01*
X97555278Y-91500000D01*
X97555278Y-91499999D01*
X99444722Y-91499999D01*
X99444722Y-91500000D01*
X99463762Y-91656818D01*
X99519780Y-91804523D01*
X99609517Y-91934530D01*
X99727760Y-92039283D01*
X99727762Y-92039284D01*
X99867634Y-92112696D01*
X100021014Y-92150500D01*
X100021015Y-92150500D01*
X100178985Y-92150500D01*
X100332365Y-92112696D01*
X100334646Y-92111499D01*
X124728722Y-92111499D01*
X124728722Y-92111500D01*
X124747762Y-92268318D01*
X124803780Y-92416023D01*
X124893517Y-92546030D01*
X125011760Y-92650783D01*
X125011762Y-92650784D01*
X125151634Y-92724196D01*
X125305014Y-92762000D01*
X125305015Y-92762000D01*
X125462985Y-92762000D01*
X125616365Y-92724196D01*
X125695843Y-92682482D01*
X125756240Y-92650783D01*
X125874483Y-92546030D01*
X125964220Y-92416023D01*
X126020237Y-92268318D01*
X126039278Y-92111500D01*
X126030510Y-92039284D01*
X126020237Y-91954681D01*
X125998992Y-91898664D01*
X125964220Y-91806977D01*
X125874483Y-91676970D01*
X125756240Y-91572217D01*
X125756238Y-91572216D01*
X125756237Y-91572215D01*
X125616365Y-91498803D01*
X125462986Y-91461000D01*
X125462985Y-91461000D01*
X125305015Y-91461000D01*
X125305014Y-91461000D01*
X125151634Y-91498803D01*
X125011762Y-91572215D01*
X124893516Y-91676971D01*
X124803781Y-91806975D01*
X124803780Y-91806976D01*
X124747762Y-91954681D01*
X124728722Y-92111499D01*
X100334646Y-92111499D01*
X100472240Y-92039283D01*
X100590483Y-91934530D01*
X100680220Y-91804523D01*
X100736237Y-91656818D01*
X100755278Y-91500000D01*
X100736237Y-91343182D01*
X100711189Y-91277135D01*
X131649500Y-91277135D01*
X131649500Y-92622870D01*
X131649501Y-92622876D01*
X131655908Y-92682483D01*
X131706202Y-92817328D01*
X131706206Y-92817335D01*
X131792452Y-92932544D01*
X131792455Y-92932547D01*
X131907664Y-93018793D01*
X131907671Y-93018797D01*
X132042517Y-93069091D01*
X132042516Y-93069091D01*
X132049444Y-93069835D01*
X132102127Y-93075500D01*
X132897872Y-93075499D01*
X132957483Y-93069091D01*
X133092331Y-93018796D01*
X133207546Y-92932546D01*
X133293796Y-92817331D01*
X133344091Y-92682483D01*
X133350500Y-92622873D01*
X133350499Y-91591228D01*
X133649500Y-91591228D01*
X133649500Y-92308771D01*
X133682182Y-92473074D01*
X133682184Y-92473082D01*
X133746295Y-92627860D01*
X133839373Y-92767162D01*
X133957837Y-92885626D01*
X134028055Y-92932544D01*
X134097137Y-92978703D01*
X134251918Y-93042816D01*
X134416223Y-93075498D01*
X134416228Y-93075499D01*
X134416232Y-93075500D01*
X134416233Y-93075500D01*
X134583768Y-93075500D01*
X134583769Y-93075499D01*
X134748082Y-93042816D01*
X134902863Y-92978703D01*
X135042162Y-92885626D01*
X135160626Y-92767162D01*
X135253703Y-92627863D01*
X135317816Y-92473082D01*
X135350500Y-92308767D01*
X135350500Y-91591233D01*
X135317816Y-91426918D01*
X135255773Y-91277135D01*
X139749500Y-91277135D01*
X139749500Y-92622870D01*
X139749501Y-92622876D01*
X139755908Y-92682483D01*
X139806202Y-92817328D01*
X139806206Y-92817335D01*
X139892452Y-92932544D01*
X139892455Y-92932547D01*
X140007664Y-93018793D01*
X140007671Y-93018797D01*
X140142517Y-93069091D01*
X140142516Y-93069091D01*
X140149444Y-93069835D01*
X140202127Y-93075500D01*
X140997872Y-93075499D01*
X141057483Y-93069091D01*
X141192331Y-93018796D01*
X141307546Y-92932546D01*
X141393796Y-92817331D01*
X141444091Y-92682483D01*
X141450500Y-92622873D01*
X141450499Y-91591228D01*
X141749500Y-91591228D01*
X141749500Y-92308771D01*
X141782182Y-92473074D01*
X141782184Y-92473082D01*
X141846295Y-92627860D01*
X141939373Y-92767162D01*
X142057837Y-92885626D01*
X142128055Y-92932544D01*
X142197137Y-92978703D01*
X142351918Y-93042816D01*
X142516223Y-93075498D01*
X142516228Y-93075499D01*
X142516232Y-93075500D01*
X142516233Y-93075500D01*
X142683768Y-93075500D01*
X142683769Y-93075499D01*
X142848082Y-93042816D01*
X143002863Y-92978703D01*
X143142162Y-92885626D01*
X143260626Y-92767162D01*
X143353703Y-92627863D01*
X143417816Y-92473082D01*
X143450500Y-92308767D01*
X143450500Y-91591233D01*
X143417816Y-91426918D01*
X143355771Y-91277129D01*
X143353704Y-91272139D01*
X143260626Y-91132837D01*
X143142162Y-91014373D01*
X143002860Y-90921295D01*
X142848082Y-90857184D01*
X142848074Y-90857182D01*
X142683771Y-90824500D01*
X142683767Y-90824500D01*
X142516233Y-90824500D01*
X142516228Y-90824500D01*
X142351925Y-90857182D01*
X142351917Y-90857184D01*
X142197139Y-90921295D01*
X142057837Y-91014373D01*
X141939373Y-91132837D01*
X141846295Y-91272139D01*
X141782184Y-91426917D01*
X141782182Y-91426925D01*
X141749500Y-91591228D01*
X141450499Y-91591228D01*
X141450499Y-91277128D01*
X141444091Y-91217517D01*
X141435870Y-91195476D01*
X141393797Y-91082671D01*
X141393793Y-91082664D01*
X141307547Y-90967455D01*
X141307544Y-90967452D01*
X141192335Y-90881206D01*
X141192328Y-90881202D01*
X141057482Y-90830908D01*
X141057483Y-90830908D01*
X140997883Y-90824501D01*
X140997881Y-90824500D01*
X140997873Y-90824500D01*
X140997864Y-90824500D01*
X140202129Y-90824500D01*
X140202123Y-90824501D01*
X140142516Y-90830908D01*
X140007671Y-90881202D01*
X140007664Y-90881206D01*
X139892455Y-90967452D01*
X139892452Y-90967455D01*
X139806206Y-91082664D01*
X139806202Y-91082671D01*
X139755908Y-91217517D01*
X139750036Y-91272139D01*
X139749501Y-91277123D01*
X139749500Y-91277135D01*
X135255773Y-91277135D01*
X135255771Y-91277129D01*
X135253704Y-91272139D01*
X135160626Y-91132837D01*
X135042162Y-91014373D01*
X134902860Y-90921295D01*
X134748082Y-90857184D01*
X134748074Y-90857182D01*
X134583771Y-90824500D01*
X134583767Y-90824500D01*
X134416233Y-90824500D01*
X134416228Y-90824500D01*
X134251925Y-90857182D01*
X134251917Y-90857184D01*
X134097139Y-90921295D01*
X133957837Y-91014373D01*
X133839373Y-91132837D01*
X133746295Y-91272139D01*
X133682184Y-91426917D01*
X133682182Y-91426925D01*
X133649500Y-91591228D01*
X133350499Y-91591228D01*
X133350499Y-91277128D01*
X133344091Y-91217517D01*
X133335870Y-91195476D01*
X133293797Y-91082671D01*
X133293793Y-91082664D01*
X133207547Y-90967455D01*
X133207544Y-90967452D01*
X133092335Y-90881206D01*
X133092328Y-90881202D01*
X132957482Y-90830908D01*
X132957483Y-90830908D01*
X132897883Y-90824501D01*
X132897881Y-90824500D01*
X132897873Y-90824500D01*
X132897864Y-90824500D01*
X132102129Y-90824500D01*
X132102123Y-90824501D01*
X132042516Y-90830908D01*
X131907671Y-90881202D01*
X131907664Y-90881206D01*
X131792455Y-90967452D01*
X131792452Y-90967455D01*
X131706206Y-91082664D01*
X131706202Y-91082671D01*
X131655908Y-91217517D01*
X131650036Y-91272139D01*
X131649501Y-91277123D01*
X131649500Y-91277135D01*
X100711189Y-91277135D01*
X100680220Y-91195477D01*
X100590483Y-91065470D01*
X100472240Y-90960717D01*
X100472238Y-90960716D01*
X100472237Y-90960715D01*
X100332365Y-90887303D01*
X100178986Y-90849500D01*
X100178985Y-90849500D01*
X100021015Y-90849500D01*
X100021014Y-90849500D01*
X99867634Y-90887303D01*
X99727762Y-90960715D01*
X99609516Y-91065471D01*
X99519781Y-91195475D01*
X99519780Y-91195476D01*
X99463762Y-91343181D01*
X99444722Y-91499999D01*
X97555278Y-91499999D01*
X97536237Y-91343182D01*
X97480220Y-91195477D01*
X97390483Y-91065470D01*
X97272240Y-90960717D01*
X97272238Y-90960716D01*
X97272237Y-90960715D01*
X97132365Y-90887303D01*
X96978986Y-90849500D01*
X96978985Y-90849500D01*
X96821015Y-90849500D01*
X96821014Y-90849500D01*
X96667634Y-90887303D01*
X96527762Y-90960715D01*
X96409516Y-91065471D01*
X96319781Y-91195475D01*
X96319780Y-91195476D01*
X96263762Y-91343181D01*
X96244722Y-91499999D01*
X94000000Y-91499999D01*
X94000000Y-88299999D01*
X106794722Y-88299999D01*
X106794722Y-88300000D01*
X106813762Y-88456818D01*
X106869780Y-88604523D01*
X106959517Y-88734530D01*
X107077760Y-88839283D01*
X107077762Y-88839284D01*
X107217634Y-88912696D01*
X107371014Y-88950500D01*
X107371015Y-88950500D01*
X107528985Y-88950500D01*
X107631142Y-88925321D01*
X113699500Y-88925321D01*
X113699500Y-90674678D01*
X113714032Y-90747735D01*
X113714033Y-90747739D01*
X113714034Y-90747740D01*
X113769399Y-90830601D01*
X113845130Y-90881202D01*
X113852260Y-90885966D01*
X113852264Y-90885967D01*
X113925321Y-90900499D01*
X113925324Y-90900500D01*
X113925326Y-90900500D01*
X115674676Y-90900500D01*
X115674677Y-90900499D01*
X115747740Y-90885966D01*
X115830601Y-90830601D01*
X115885966Y-90747740D01*
X115900500Y-90674674D01*
X115900500Y-89799999D01*
X116234785Y-89799999D01*
X116234785Y-89800000D01*
X116253602Y-90003082D01*
X116309417Y-90199247D01*
X116309422Y-90199260D01*
X116400327Y-90381821D01*
X116523237Y-90544581D01*
X116673958Y-90681980D01*
X116673960Y-90681982D01*
X116773141Y-90743392D01*
X116847363Y-90789348D01*
X117037544Y-90863024D01*
X117238024Y-90900500D01*
X117238026Y-90900500D01*
X117441974Y-90900500D01*
X117441976Y-90900500D01*
X117642456Y-90863024D01*
X117832637Y-90789348D01*
X118006041Y-90681981D01*
X118156764Y-90544579D01*
X118279673Y-90381821D01*
X118370582Y-90199250D01*
X118426397Y-90003083D01*
X118445215Y-89800000D01*
X118445215Y-89799999D01*
X118774785Y-89799999D01*
X118774785Y-89800000D01*
X118793602Y-90003082D01*
X118849417Y-90199247D01*
X118849422Y-90199260D01*
X118940327Y-90381821D01*
X119063237Y-90544581D01*
X119213958Y-90681980D01*
X119213960Y-90681982D01*
X119313141Y-90743392D01*
X119387363Y-90789348D01*
X119577544Y-90863024D01*
X119778024Y-90900500D01*
X119778026Y-90900500D01*
X119981974Y-90900500D01*
X119981976Y-90900500D01*
X120182456Y-90863024D01*
X120372637Y-90789348D01*
X120546041Y-90681981D01*
X120696764Y-90544579D01*
X120819673Y-90381821D01*
X120910582Y-90199250D01*
X120966397Y-90003083D01*
X120985215Y-89800000D01*
X120985215Y-89799999D01*
X121314785Y-89799999D01*
X121314785Y-89800000D01*
X121333602Y-90003082D01*
X121389417Y-90199247D01*
X121389422Y-90199260D01*
X121480327Y-90381821D01*
X121603237Y-90544581D01*
X121753958Y-90681980D01*
X121753960Y-90681982D01*
X121853141Y-90743392D01*
X121927363Y-90789348D01*
X122117544Y-90863024D01*
X122318024Y-90900500D01*
X122318026Y-90900500D01*
X122521974Y-90900500D01*
X122521976Y-90900500D01*
X122722456Y-90863024D01*
X122912637Y-90789348D01*
X123086041Y-90681981D01*
X123236764Y-90544579D01*
X123359673Y-90381821D01*
X123450582Y-90199250D01*
X123506397Y-90003083D01*
X123525215Y-89800000D01*
X123525215Y-89799999D01*
X123854785Y-89799999D01*
X123854785Y-89800000D01*
X123873602Y-90003082D01*
X123929417Y-90199247D01*
X123929422Y-90199260D01*
X124020327Y-90381821D01*
X124143237Y-90544581D01*
X124293958Y-90681980D01*
X124293960Y-90681982D01*
X124393141Y-90743392D01*
X124467363Y-90789348D01*
X124657544Y-90863024D01*
X124858024Y-90900500D01*
X124858026Y-90900500D01*
X125061974Y-90900500D01*
X125061976Y-90900500D01*
X125262456Y-90863024D01*
X125452637Y-90789348D01*
X125626041Y-90681981D01*
X125776764Y-90544579D01*
X125899673Y-90381821D01*
X125990582Y-90199250D01*
X126046397Y-90003083D01*
X126065215Y-89800000D01*
X126065215Y-89799999D01*
X126394785Y-89799999D01*
X126394785Y-89800000D01*
X126413602Y-90003082D01*
X126469417Y-90199247D01*
X126469422Y-90199260D01*
X126560327Y-90381821D01*
X126683237Y-90544581D01*
X126833958Y-90681980D01*
X126833960Y-90681982D01*
X126933141Y-90743392D01*
X127007363Y-90789348D01*
X127197544Y-90863024D01*
X127398024Y-90900500D01*
X127398026Y-90900500D01*
X127601974Y-90900500D01*
X127601976Y-90900500D01*
X127802456Y-90863024D01*
X127992637Y-90789348D01*
X128166041Y-90681981D01*
X128316764Y-90544579D01*
X128439673Y-90381821D01*
X128530582Y-90199250D01*
X128586397Y-90003083D01*
X128605215Y-89800000D01*
X128586397Y-89596917D01*
X128530582Y-89400750D01*
X128439673Y-89218179D01*
X128316764Y-89055421D01*
X128316762Y-89055418D01*
X128166041Y-88918019D01*
X128166039Y-88918017D01*
X127992642Y-88810655D01*
X127992635Y-88810651D01*
X127886150Y-88769399D01*
X127802456Y-88736976D01*
X127601976Y-88699500D01*
X127398024Y-88699500D01*
X127197544Y-88736976D01*
X127197541Y-88736976D01*
X127197541Y-88736977D01*
X127007364Y-88810651D01*
X127007357Y-88810655D01*
X126833960Y-88918017D01*
X126833958Y-88918019D01*
X126683237Y-89055418D01*
X126560327Y-89218178D01*
X126469422Y-89400739D01*
X126469417Y-89400752D01*
X126413602Y-89596917D01*
X126394785Y-89799999D01*
X126065215Y-89799999D01*
X126046397Y-89596917D01*
X125990582Y-89400750D01*
X125899673Y-89218179D01*
X125776764Y-89055421D01*
X125776762Y-89055418D01*
X125626041Y-88918019D01*
X125626039Y-88918017D01*
X125452642Y-88810655D01*
X125452635Y-88810651D01*
X125346150Y-88769399D01*
X125262456Y-88736976D01*
X125061976Y-88699500D01*
X124858024Y-88699500D01*
X124657544Y-88736976D01*
X124657541Y-88736976D01*
X124657541Y-88736977D01*
X124467364Y-88810651D01*
X124467357Y-88810655D01*
X124293960Y-88918017D01*
X124293958Y-88918019D01*
X124143237Y-89055418D01*
X124020327Y-89218178D01*
X123929422Y-89400739D01*
X123929417Y-89400752D01*
X123873602Y-89596917D01*
X123854785Y-89799999D01*
X123525215Y-89799999D01*
X123506397Y-89596917D01*
X123450582Y-89400750D01*
X123359673Y-89218179D01*
X123236764Y-89055421D01*
X123236762Y-89055418D01*
X123086041Y-88918019D01*
X123086039Y-88918017D01*
X122912642Y-88810655D01*
X122912635Y-88810651D01*
X122806150Y-88769399D01*
X122722456Y-88736976D01*
X122521976Y-88699500D01*
X122318024Y-88699500D01*
X122117544Y-88736976D01*
X122117541Y-88736976D01*
X122117541Y-88736977D01*
X121927364Y-88810651D01*
X121927357Y-88810655D01*
X121753960Y-88918017D01*
X121753958Y-88918019D01*
X121603237Y-89055418D01*
X121480327Y-89218178D01*
X121389422Y-89400739D01*
X121389417Y-89400752D01*
X121333602Y-89596917D01*
X121314785Y-89799999D01*
X120985215Y-89799999D01*
X120966397Y-89596917D01*
X120910582Y-89400750D01*
X120819673Y-89218179D01*
X120696764Y-89055421D01*
X120696762Y-89055418D01*
X120546041Y-88918019D01*
X120546039Y-88918017D01*
X120372642Y-88810655D01*
X120372635Y-88810651D01*
X120266150Y-88769399D01*
X120182456Y-88736976D01*
X119981976Y-88699500D01*
X119778024Y-88699500D01*
X119577544Y-88736976D01*
X119577541Y-88736976D01*
X119577541Y-88736977D01*
X119387364Y-88810651D01*
X119387357Y-88810655D01*
X119213960Y-88918017D01*
X119213958Y-88918019D01*
X119063237Y-89055418D01*
X118940327Y-89218178D01*
X118849422Y-89400739D01*
X118849417Y-89400752D01*
X118793602Y-89596917D01*
X118774785Y-89799999D01*
X118445215Y-89799999D01*
X118426397Y-89596917D01*
X118370582Y-89400750D01*
X118279673Y-89218179D01*
X118156764Y-89055421D01*
X118156762Y-89055418D01*
X118006041Y-88918019D01*
X118006039Y-88918017D01*
X117832642Y-88810655D01*
X117832635Y-88810651D01*
X117726150Y-88769399D01*
X117642456Y-88736976D01*
X117441976Y-88699500D01*
X117238024Y-88699500D01*
X117037544Y-88736976D01*
X117037541Y-88736976D01*
X117037541Y-88736977D01*
X116847364Y-88810651D01*
X116847357Y-88810655D01*
X116673960Y-88918017D01*
X116673958Y-88918019D01*
X116523237Y-89055418D01*
X116400327Y-89218178D01*
X116309422Y-89400739D01*
X116309417Y-89400752D01*
X116253602Y-89596917D01*
X116234785Y-89799999D01*
X115900500Y-89799999D01*
X115900500Y-88925326D01*
X115900500Y-88925323D01*
X115900499Y-88925321D01*
X115885967Y-88852264D01*
X115885966Y-88852260D01*
X115877295Y-88839283D01*
X115830601Y-88769399D01*
X115747740Y-88714034D01*
X115747739Y-88714033D01*
X115747735Y-88714032D01*
X115674677Y-88699500D01*
X115674674Y-88699500D01*
X113925326Y-88699500D01*
X113925323Y-88699500D01*
X113852264Y-88714032D01*
X113852260Y-88714033D01*
X113769399Y-88769399D01*
X113714033Y-88852260D01*
X113714032Y-88852264D01*
X113699500Y-88925321D01*
X107631142Y-88925321D01*
X107682365Y-88912696D01*
X107822240Y-88839283D01*
X107940483Y-88734530D01*
X108030220Y-88604523D01*
X108086237Y-88456818D01*
X108105278Y-88300000D01*
X108086237Y-88143182D01*
X108030220Y-87995477D01*
X107940483Y-87865470D01*
X107822240Y-87760717D01*
X107822238Y-87760716D01*
X107822237Y-87760715D01*
X107682365Y-87687303D01*
X107528986Y-87649500D01*
X107528985Y-87649500D01*
X107371015Y-87649500D01*
X107371014Y-87649500D01*
X107217634Y-87687303D01*
X107077762Y-87760715D01*
X106959516Y-87865471D01*
X106869781Y-87995475D01*
X106869780Y-87995476D01*
X106813762Y-88143181D01*
X106794722Y-88299999D01*
X94000000Y-88299999D01*
X94000000Y-87099999D01*
X100044722Y-87099999D01*
X100044722Y-87100000D01*
X100063762Y-87256818D01*
X100081855Y-87304524D01*
X100119780Y-87404523D01*
X100209517Y-87534530D01*
X100327760Y-87639283D01*
X100327762Y-87639284D01*
X100467634Y-87712696D01*
X100621014Y-87750500D01*
X100621015Y-87750500D01*
X100778985Y-87750500D01*
X100932365Y-87712696D01*
X101072240Y-87639283D01*
X101190483Y-87534530D01*
X101280220Y-87404523D01*
X101336237Y-87256818D01*
X101355278Y-87100000D01*
X101343136Y-86999999D01*
X120644722Y-86999999D01*
X120644722Y-87000000D01*
X120663762Y-87156818D01*
X120701688Y-87256818D01*
X120719780Y-87304523D01*
X120809517Y-87434530D01*
X120927760Y-87539283D01*
X120927762Y-87539284D01*
X121067634Y-87612696D01*
X121221014Y-87650500D01*
X121221015Y-87650500D01*
X121378985Y-87650500D01*
X121532365Y-87612696D01*
X121672240Y-87539283D01*
X121790483Y-87434530D01*
X121880220Y-87304523D01*
X121936237Y-87156818D01*
X121955278Y-87000000D01*
X121953158Y-86982544D01*
X121936237Y-86843182D01*
X121918145Y-86795477D01*
X121909765Y-86773383D01*
X121904399Y-86703721D01*
X121937546Y-86642215D01*
X121998684Y-86608394D01*
X122059972Y-86612438D01*
X122060351Y-86610901D01*
X122221014Y-86650500D01*
X122221015Y-86650500D01*
X122378985Y-86650500D01*
X122532365Y-86612696D01*
X122540562Y-86608394D01*
X122672240Y-86539283D01*
X122790483Y-86434530D01*
X122880220Y-86304523D01*
X122936237Y-86156818D01*
X122955278Y-86000000D01*
X122944678Y-85912696D01*
X122936237Y-85843181D01*
X122901087Y-85750500D01*
X122880220Y-85695477D01*
X122790483Y-85565470D01*
X122672240Y-85460717D01*
X122672238Y-85460716D01*
X122672237Y-85460715D01*
X122532365Y-85387303D01*
X122378986Y-85349500D01*
X122378985Y-85349500D01*
X122221015Y-85349500D01*
X122221014Y-85349500D01*
X122067634Y-85387303D01*
X121927762Y-85460715D01*
X121809516Y-85565471D01*
X121719781Y-85695475D01*
X121719780Y-85695476D01*
X121663762Y-85843181D01*
X121644722Y-85999999D01*
X121644722Y-86000000D01*
X121663763Y-86156818D01*
X121690233Y-86226615D01*
X121695600Y-86296278D01*
X121662452Y-86357785D01*
X121601314Y-86391606D01*
X121540028Y-86387560D01*
X121539649Y-86389099D01*
X121378986Y-86349500D01*
X121378985Y-86349500D01*
X121221015Y-86349500D01*
X121221014Y-86349500D01*
X121067634Y-86387303D01*
X120927762Y-86460715D01*
X120809516Y-86565471D01*
X120719781Y-86695475D01*
X120719780Y-86695476D01*
X120663762Y-86843181D01*
X120644722Y-86999999D01*
X101343136Y-86999999D01*
X101336237Y-86943182D01*
X101333371Y-86935626D01*
X101307472Y-86867335D01*
X101280220Y-86795477D01*
X101190483Y-86665470D01*
X101072240Y-86560717D01*
X101072238Y-86560716D01*
X101072237Y-86560715D01*
X100932365Y-86487303D01*
X100778986Y-86449500D01*
X100778985Y-86449500D01*
X100621015Y-86449500D01*
X100621014Y-86449500D01*
X100467634Y-86487303D01*
X100327762Y-86560715D01*
X100209516Y-86665471D01*
X100119781Y-86795475D01*
X100119780Y-86795476D01*
X100063762Y-86943181D01*
X100044722Y-87099999D01*
X94000000Y-87099999D01*
X94000000Y-85299999D01*
X108544722Y-85299999D01*
X108544722Y-85300000D01*
X108563762Y-85456818D01*
X108619780Y-85604523D01*
X108709517Y-85734530D01*
X108827760Y-85839283D01*
X108827762Y-85839284D01*
X108967634Y-85912696D01*
X109121014Y-85950500D01*
X109121015Y-85950500D01*
X109278985Y-85950500D01*
X109432365Y-85912696D01*
X109572240Y-85839283D01*
X109690483Y-85734530D01*
X109780220Y-85604523D01*
X109805866Y-85536899D01*
X110964722Y-85536899D01*
X110964722Y-85536900D01*
X110983762Y-85693718D01*
X111038968Y-85839283D01*
X111039780Y-85841423D01*
X111129517Y-85971430D01*
X111247760Y-86076183D01*
X111247762Y-86076184D01*
X111387634Y-86149596D01*
X111541014Y-86187400D01*
X111541015Y-86187400D01*
X111698985Y-86187400D01*
X111852365Y-86149596D01*
X111992240Y-86076183D01*
X112110483Y-85971430D01*
X112200220Y-85841423D01*
X112256237Y-85693718D01*
X112275278Y-85536900D01*
X112256237Y-85380082D01*
X112238961Y-85334530D01*
X112225866Y-85300000D01*
X112200220Y-85232377D01*
X112110483Y-85102370D01*
X112107807Y-85099999D01*
X119944722Y-85099999D01*
X119944722Y-85100000D01*
X119963762Y-85256818D01*
X120010510Y-85380081D01*
X120019780Y-85404523D01*
X120109517Y-85534530D01*
X120227760Y-85639283D01*
X120231475Y-85641233D01*
X120367634Y-85712696D01*
X120521014Y-85750500D01*
X120521015Y-85750500D01*
X120678985Y-85750500D01*
X120832365Y-85712696D01*
X120972240Y-85639283D01*
X121090483Y-85534530D01*
X121180220Y-85404523D01*
X121236237Y-85256818D01*
X121255278Y-85100000D01*
X121242587Y-84995475D01*
X121236237Y-84943181D01*
X121219860Y-84899999D01*
X128344722Y-84899999D01*
X128344722Y-84900000D01*
X128363762Y-85056818D01*
X128411556Y-85182838D01*
X128419780Y-85204523D01*
X128509517Y-85334530D01*
X128627760Y-85439283D01*
X128627762Y-85439284D01*
X128767634Y-85512696D01*
X128921014Y-85550500D01*
X128921015Y-85550500D01*
X129078985Y-85550500D01*
X129232365Y-85512696D01*
X129331401Y-85460717D01*
X129372240Y-85439283D01*
X129490483Y-85334530D01*
X129495587Y-85327135D01*
X139749500Y-85327135D01*
X139749500Y-86672870D01*
X139749501Y-86672876D01*
X139755908Y-86732483D01*
X139806202Y-86867328D01*
X139806206Y-86867335D01*
X139892452Y-86982544D01*
X139892455Y-86982547D01*
X140007664Y-87068793D01*
X140007671Y-87068797D01*
X140142517Y-87119091D01*
X140142516Y-87119091D01*
X140149444Y-87119835D01*
X140202127Y-87125500D01*
X140997872Y-87125499D01*
X141057483Y-87119091D01*
X141192331Y-87068796D01*
X141307546Y-86982546D01*
X141393796Y-86867331D01*
X141444091Y-86732483D01*
X141450500Y-86672873D01*
X141450499Y-85641228D01*
X141749500Y-85641228D01*
X141749500Y-86358771D01*
X141782182Y-86523074D01*
X141782184Y-86523082D01*
X141846295Y-86677860D01*
X141939373Y-86817162D01*
X142057837Y-86935626D01*
X142128055Y-86982544D01*
X142197137Y-87028703D01*
X142351918Y-87092816D01*
X142516223Y-87125498D01*
X142516228Y-87125499D01*
X142516232Y-87125500D01*
X142516233Y-87125500D01*
X142683768Y-87125500D01*
X142683769Y-87125499D01*
X142848082Y-87092816D01*
X143002863Y-87028703D01*
X143142162Y-86935626D01*
X143260626Y-86817162D01*
X143353703Y-86677863D01*
X143417816Y-86523082D01*
X143450500Y-86358767D01*
X143450500Y-85641233D01*
X143417816Y-85476918D01*
X143365037Y-85349500D01*
X143353704Y-85322139D01*
X143260626Y-85182837D01*
X143142162Y-85064373D01*
X143002860Y-84971295D01*
X142848082Y-84907184D01*
X142848074Y-84907182D01*
X142683771Y-84874500D01*
X142683767Y-84874500D01*
X142516233Y-84874500D01*
X142516228Y-84874500D01*
X142351925Y-84907182D01*
X142351917Y-84907184D01*
X142197139Y-84971295D01*
X142057837Y-85064373D01*
X141939373Y-85182837D01*
X141846295Y-85322139D01*
X141782184Y-85476917D01*
X141782182Y-85476925D01*
X141749500Y-85641228D01*
X141450499Y-85641228D01*
X141450499Y-85327128D01*
X141444091Y-85267517D01*
X141430984Y-85232376D01*
X141393797Y-85132671D01*
X141393793Y-85132664D01*
X141307547Y-85017455D01*
X141307544Y-85017452D01*
X141192335Y-84931206D01*
X141192328Y-84931202D01*
X141057482Y-84880908D01*
X141057483Y-84880908D01*
X140997883Y-84874501D01*
X140997881Y-84874500D01*
X140997873Y-84874500D01*
X140997864Y-84874500D01*
X140202129Y-84874500D01*
X140202123Y-84874501D01*
X140142516Y-84880908D01*
X140007671Y-84931202D01*
X140007664Y-84931206D01*
X139892455Y-85017452D01*
X139892452Y-85017455D01*
X139806206Y-85132664D01*
X139806202Y-85132671D01*
X139755908Y-85267517D01*
X139750036Y-85322139D01*
X139749501Y-85327123D01*
X139749500Y-85327135D01*
X129495587Y-85327135D01*
X129580220Y-85204523D01*
X129636237Y-85056818D01*
X129655278Y-84900000D01*
X129651086Y-84865471D01*
X129636237Y-84743181D01*
X129583651Y-84604524D01*
X129580220Y-84595477D01*
X129551935Y-84554499D01*
X130337722Y-84554499D01*
X130337722Y-84554500D01*
X130356762Y-84711318D01*
X130405294Y-84839284D01*
X130412780Y-84859023D01*
X130502517Y-84989030D01*
X130620760Y-85093783D01*
X130620762Y-85093784D01*
X130760634Y-85167196D01*
X130914014Y-85205000D01*
X130914015Y-85205000D01*
X131071985Y-85205000D01*
X131225365Y-85167196D01*
X131291146Y-85132671D01*
X131365240Y-85093783D01*
X131483483Y-84989030D01*
X131573220Y-84859023D01*
X131629237Y-84711318D01*
X131648278Y-84554500D01*
X131629237Y-84397682D01*
X131573220Y-84249977D01*
X131483483Y-84119970D01*
X131365240Y-84015217D01*
X131365238Y-84015216D01*
X131365237Y-84015215D01*
X131225365Y-83941803D01*
X131071986Y-83904000D01*
X131071985Y-83904000D01*
X130914015Y-83904000D01*
X130914014Y-83904000D01*
X130760634Y-83941803D01*
X130620762Y-84015215D01*
X130502516Y-84119971D01*
X130412781Y-84249975D01*
X130412780Y-84249976D01*
X130356762Y-84397681D01*
X130337722Y-84554499D01*
X129551935Y-84554499D01*
X129490483Y-84465470D01*
X129372240Y-84360717D01*
X129372238Y-84360716D01*
X129372237Y-84360715D01*
X129232365Y-84287303D01*
X129078986Y-84249500D01*
X129078985Y-84249500D01*
X128921015Y-84249500D01*
X128921014Y-84249500D01*
X128767634Y-84287303D01*
X128627762Y-84360715D01*
X128509516Y-84465471D01*
X128419781Y-84595475D01*
X128419780Y-84595476D01*
X128363762Y-84743181D01*
X128344722Y-84899999D01*
X121219860Y-84899999D01*
X121204320Y-84859023D01*
X121180220Y-84795477D01*
X121090483Y-84665470D01*
X120972240Y-84560717D01*
X120972238Y-84560716D01*
X120972237Y-84560715D01*
X120832365Y-84487303D01*
X120678986Y-84449500D01*
X120678985Y-84449500D01*
X120521015Y-84449500D01*
X120521014Y-84449500D01*
X120367634Y-84487303D01*
X120227762Y-84560715D01*
X120109516Y-84665471D01*
X120019781Y-84795475D01*
X120019780Y-84795476D01*
X119963762Y-84943181D01*
X119944722Y-85099999D01*
X112107807Y-85099999D01*
X111992240Y-84997617D01*
X111992238Y-84997616D01*
X111992237Y-84997615D01*
X111852365Y-84924203D01*
X111698986Y-84886400D01*
X111698985Y-84886400D01*
X111541015Y-84886400D01*
X111541014Y-84886400D01*
X111387634Y-84924203D01*
X111247762Y-84997615D01*
X111129516Y-85102371D01*
X111039781Y-85232375D01*
X111039780Y-85232376D01*
X110983762Y-85380081D01*
X110964722Y-85536899D01*
X109805866Y-85536899D01*
X109836237Y-85456818D01*
X109855278Y-85300000D01*
X109836237Y-85143182D01*
X109820759Y-85102371D01*
X109806349Y-85064373D01*
X109780220Y-84995477D01*
X109690483Y-84865470D01*
X109572240Y-84760717D01*
X109572238Y-84760716D01*
X109572237Y-84760715D01*
X109432365Y-84687303D01*
X109278986Y-84649500D01*
X109278985Y-84649500D01*
X109121015Y-84649500D01*
X109121014Y-84649500D01*
X108967634Y-84687303D01*
X108827762Y-84760715D01*
X108709516Y-84865471D01*
X108619781Y-84995475D01*
X108619780Y-84995476D01*
X108563762Y-85143181D01*
X108544722Y-85299999D01*
X94000000Y-85299999D01*
X94000000Y-84299999D01*
X95944722Y-84299999D01*
X95944722Y-84300000D01*
X95963762Y-84456818D01*
X96016349Y-84595476D01*
X96019780Y-84604523D01*
X96109517Y-84734530D01*
X96227760Y-84839283D01*
X96227762Y-84839284D01*
X96367634Y-84912696D01*
X96521014Y-84950500D01*
X96521015Y-84950500D01*
X96678985Y-84950500D01*
X96832365Y-84912696D01*
X96892931Y-84880908D01*
X96972240Y-84839283D01*
X97090483Y-84734530D01*
X97180220Y-84604523D01*
X97236237Y-84456818D01*
X97255278Y-84300000D01*
X97253737Y-84287304D01*
X97236237Y-84143181D01*
X97214992Y-84087164D01*
X97180220Y-83995477D01*
X97090483Y-83865470D01*
X96972240Y-83760717D01*
X96972238Y-83760716D01*
X96972237Y-83760715D01*
X96856555Y-83699999D01*
X133144722Y-83699999D01*
X133144722Y-83700000D01*
X133163762Y-83856818D01*
X133216349Y-83995476D01*
X133219780Y-84004523D01*
X133309517Y-84134530D01*
X133427760Y-84239283D01*
X133427762Y-84239284D01*
X133567634Y-84312696D01*
X133721014Y-84350500D01*
X133721015Y-84350500D01*
X133878985Y-84350500D01*
X134032365Y-84312696D01*
X134056557Y-84299999D01*
X134172240Y-84239283D01*
X134290483Y-84134530D01*
X134380220Y-84004523D01*
X134436237Y-83856818D01*
X134455278Y-83700000D01*
X134453737Y-83687304D01*
X134436237Y-83543181D01*
X134398312Y-83443182D01*
X134380220Y-83395477D01*
X134290483Y-83265470D01*
X134216581Y-83199999D01*
X140444722Y-83199999D01*
X140444722Y-83200000D01*
X140463762Y-83356818D01*
X140496516Y-83443181D01*
X140519780Y-83504523D01*
X140609517Y-83634530D01*
X140727760Y-83739283D01*
X140727762Y-83739284D01*
X140867634Y-83812696D01*
X141021014Y-83850500D01*
X141021015Y-83850500D01*
X141178985Y-83850500D01*
X141332365Y-83812696D01*
X141431401Y-83760717D01*
X141472240Y-83739283D01*
X141590483Y-83634530D01*
X141614318Y-83599999D01*
X143944722Y-83599999D01*
X143944722Y-83600000D01*
X143963762Y-83756818D01*
X144019582Y-83904000D01*
X144019780Y-83904523D01*
X144109517Y-84034530D01*
X144227760Y-84139283D01*
X144227762Y-84139284D01*
X144367634Y-84212696D01*
X144521014Y-84250500D01*
X144521015Y-84250500D01*
X144678985Y-84250500D01*
X144832365Y-84212696D01*
X144972240Y-84139283D01*
X145090483Y-84034530D01*
X145180220Y-83904523D01*
X145236237Y-83756818D01*
X145255278Y-83600000D01*
X145236237Y-83443182D01*
X145231059Y-83429530D01*
X145214992Y-83387164D01*
X145180220Y-83295477D01*
X145090483Y-83165470D01*
X144972240Y-83060717D01*
X144972238Y-83060716D01*
X144972237Y-83060715D01*
X144832365Y-82987303D01*
X144678986Y-82949500D01*
X144678985Y-82949500D01*
X144521015Y-82949500D01*
X144521014Y-82949500D01*
X144367634Y-82987303D01*
X144227762Y-83060715D01*
X144109516Y-83165471D01*
X144019781Y-83295475D01*
X144019780Y-83295476D01*
X143963762Y-83443181D01*
X143944722Y-83599999D01*
X141614318Y-83599999D01*
X141680220Y-83504523D01*
X141736237Y-83356818D01*
X141755278Y-83200000D01*
X141751086Y-83165471D01*
X141736237Y-83043181D01*
X141688912Y-82918396D01*
X141680220Y-82895477D01*
X141590483Y-82765470D01*
X141472240Y-82660717D01*
X141472238Y-82660716D01*
X141472237Y-82660715D01*
X141332365Y-82587303D01*
X141178986Y-82549500D01*
X141178985Y-82549500D01*
X141021015Y-82549500D01*
X141021014Y-82549500D01*
X140867634Y-82587303D01*
X140727762Y-82660715D01*
X140609516Y-82765471D01*
X140519781Y-82895475D01*
X140519780Y-82895476D01*
X140463762Y-83043181D01*
X140444722Y-83199999D01*
X134216581Y-83199999D01*
X134172240Y-83160717D01*
X134172238Y-83160716D01*
X134172237Y-83160715D01*
X134032365Y-83087303D01*
X133878986Y-83049500D01*
X133878985Y-83049500D01*
X133721015Y-83049500D01*
X133721014Y-83049500D01*
X133567634Y-83087303D01*
X133427762Y-83160715D01*
X133309516Y-83265471D01*
X133219781Y-83395475D01*
X133219780Y-83395476D01*
X133163762Y-83543181D01*
X133144722Y-83699999D01*
X96856555Y-83699999D01*
X96832365Y-83687303D01*
X96678986Y-83649500D01*
X96678985Y-83649500D01*
X96521015Y-83649500D01*
X96521014Y-83649500D01*
X96367634Y-83687303D01*
X96227762Y-83760715D01*
X96109516Y-83865471D01*
X96019781Y-83995475D01*
X96019780Y-83995476D01*
X95963762Y-84143181D01*
X95944722Y-84299999D01*
X94000000Y-84299999D01*
X94000000Y-82994999D01*
X102826722Y-82994999D01*
X102826722Y-82995000D01*
X102845762Y-83151818D01*
X102878934Y-83239283D01*
X102901780Y-83299523D01*
X102991517Y-83429530D01*
X103109760Y-83534283D01*
X103109762Y-83534284D01*
X103249634Y-83607696D01*
X103403014Y-83645500D01*
X103403015Y-83645500D01*
X103560985Y-83645500D01*
X103714365Y-83607696D01*
X103729030Y-83599999D01*
X103854240Y-83534283D01*
X103972483Y-83429530D01*
X104062220Y-83299523D01*
X104118237Y-83151818D01*
X104137278Y-82995000D01*
X104136344Y-82987303D01*
X104118237Y-82838181D01*
X104075994Y-82726796D01*
X104065831Y-82699999D01*
X109544722Y-82699999D01*
X109544722Y-82700000D01*
X109563762Y-82856818D01*
X109613249Y-82987303D01*
X109619780Y-83004523D01*
X109709517Y-83134530D01*
X109827760Y-83239283D01*
X109827762Y-83239284D01*
X109967634Y-83312696D01*
X110121014Y-83350500D01*
X110121015Y-83350500D01*
X110278985Y-83350500D01*
X110432365Y-83312696D01*
X110457464Y-83299523D01*
X110572240Y-83239283D01*
X110690483Y-83134530D01*
X110780220Y-83004523D01*
X110836237Y-82856818D01*
X110855278Y-82700000D01*
X110855278Y-82699999D01*
X111244722Y-82699999D01*
X111244722Y-82700000D01*
X111263762Y-82856818D01*
X111313249Y-82987303D01*
X111319780Y-83004523D01*
X111409517Y-83134530D01*
X111527760Y-83239283D01*
X111527762Y-83239284D01*
X111667634Y-83312696D01*
X111821014Y-83350500D01*
X111821015Y-83350500D01*
X111978985Y-83350500D01*
X112132365Y-83312696D01*
X112157464Y-83299523D01*
X112272240Y-83239283D01*
X112390483Y-83134530D01*
X112480220Y-83004523D01*
X112536237Y-82856818D01*
X112555278Y-82700000D01*
X112554122Y-82690475D01*
X112536237Y-82543181D01*
X112488998Y-82418623D01*
X112480220Y-82395477D01*
X112418251Y-82305699D01*
X114044722Y-82305699D01*
X114044722Y-82305700D01*
X114063762Y-82462518D01*
X114111088Y-82587304D01*
X114119780Y-82610223D01*
X114209517Y-82740230D01*
X114327760Y-82844983D01*
X114327762Y-82844984D01*
X114467634Y-82918396D01*
X114621014Y-82956200D01*
X114621015Y-82956200D01*
X114778985Y-82956200D01*
X114932365Y-82918396D01*
X114976035Y-82895476D01*
X115072240Y-82844983D01*
X115190483Y-82740230D01*
X115280220Y-82610223D01*
X115295437Y-82570099D01*
X117685722Y-82570099D01*
X117685722Y-82570100D01*
X117704762Y-82726918D01*
X117746959Y-82838181D01*
X117760780Y-82874623D01*
X117850517Y-83004630D01*
X117968760Y-83109383D01*
X117968762Y-83109384D01*
X118108634Y-83182796D01*
X118262014Y-83220600D01*
X118262015Y-83220600D01*
X118419985Y-83220600D01*
X118573365Y-83182796D01*
X118713240Y-83109383D01*
X118831483Y-83004630D01*
X118921220Y-82874623D01*
X118977237Y-82726918D01*
X118996278Y-82570100D01*
X118993010Y-82543181D01*
X118977237Y-82413281D01*
X118939090Y-82312696D01*
X118921220Y-82265577D01*
X118831483Y-82135570D01*
X118807247Y-82114099D01*
X123733722Y-82114099D01*
X123733722Y-82114100D01*
X123752762Y-82270918D01*
X123800002Y-82395477D01*
X123808780Y-82418623D01*
X123898517Y-82548630D01*
X124016760Y-82653383D01*
X124016762Y-82653384D01*
X124156634Y-82726796D01*
X124310014Y-82764600D01*
X124310015Y-82764600D01*
X124467985Y-82764600D01*
X124621365Y-82726796D01*
X124761240Y-82653383D01*
X124879483Y-82548630D01*
X124969220Y-82418623D01*
X125025237Y-82270918D01*
X125044278Y-82114100D01*
X125041025Y-82087304D01*
X125025237Y-81957281D01*
X124987136Y-81856818D01*
X124969220Y-81809577D01*
X124893584Y-81699999D01*
X126644722Y-81699999D01*
X126644722Y-81700000D01*
X126663762Y-81856818D01*
X126701910Y-81957404D01*
X126719780Y-82004523D01*
X126809517Y-82134530D01*
X126927760Y-82239283D01*
X126927762Y-82239284D01*
X127067634Y-82312696D01*
X127221014Y-82350500D01*
X127221015Y-82350500D01*
X127378985Y-82350500D01*
X127532365Y-82312696D01*
X127672240Y-82239283D01*
X127790483Y-82134530D01*
X127880220Y-82004523D01*
X127936237Y-81856818D01*
X127949049Y-81751299D01*
X137036722Y-81751299D01*
X137036722Y-81751300D01*
X137055762Y-81908118D01*
X137092325Y-82004524D01*
X137111780Y-82055823D01*
X137201517Y-82185830D01*
X137319760Y-82290583D01*
X137319762Y-82290584D01*
X137459634Y-82363996D01*
X137613014Y-82401800D01*
X137613015Y-82401800D01*
X137770985Y-82401800D01*
X137924365Y-82363996D01*
X137961511Y-82344500D01*
X138064240Y-82290583D01*
X138182483Y-82185830D01*
X138272220Y-82055823D01*
X138328237Y-81908118D01*
X138336812Y-81837499D01*
X143165722Y-81837499D01*
X143165722Y-81837500D01*
X143184762Y-81994318D01*
X143237938Y-82134530D01*
X143240780Y-82142023D01*
X143330517Y-82272030D01*
X143448760Y-82376783D01*
X143448762Y-82376784D01*
X143588634Y-82450196D01*
X143742014Y-82488000D01*
X143742015Y-82488000D01*
X143899985Y-82488000D01*
X144053365Y-82450196D01*
X144193240Y-82376783D01*
X144311483Y-82272030D01*
X144401220Y-82142023D01*
X144457237Y-81994318D01*
X144476278Y-81837500D01*
X144472888Y-81809576D01*
X144457237Y-81680681D01*
X144424545Y-81594481D01*
X144401220Y-81532977D01*
X144311483Y-81402970D01*
X144193240Y-81298217D01*
X144193238Y-81298216D01*
X144193237Y-81298215D01*
X144053365Y-81224803D01*
X143899986Y-81187000D01*
X143899985Y-81187000D01*
X143742015Y-81187000D01*
X143742014Y-81187000D01*
X143588634Y-81224803D01*
X143448762Y-81298215D01*
X143330516Y-81402971D01*
X143240781Y-81532975D01*
X143240780Y-81532976D01*
X143184762Y-81680681D01*
X143165722Y-81837499D01*
X138336812Y-81837499D01*
X138347278Y-81751300D01*
X138338704Y-81680682D01*
X138328237Y-81594481D01*
X138304911Y-81532976D01*
X138272220Y-81446777D01*
X138182483Y-81316770D01*
X138064240Y-81212017D01*
X138064238Y-81212016D01*
X138064237Y-81212015D01*
X137924365Y-81138603D01*
X137770986Y-81100800D01*
X137770985Y-81100800D01*
X137613015Y-81100800D01*
X137613014Y-81100800D01*
X137459634Y-81138603D01*
X137319762Y-81212015D01*
X137259423Y-81265470D01*
X137222462Y-81298215D01*
X137201516Y-81316771D01*
X137111781Y-81446775D01*
X137111780Y-81446776D01*
X137055762Y-81594481D01*
X137036722Y-81751299D01*
X127949049Y-81751299D01*
X127955278Y-81700000D01*
X127954429Y-81693003D01*
X127936237Y-81543181D01*
X127914992Y-81487164D01*
X127880220Y-81395477D01*
X127790483Y-81265470D01*
X127672240Y-81160717D01*
X127672238Y-81160716D01*
X127672237Y-81160715D01*
X127532365Y-81087303D01*
X127378986Y-81049500D01*
X127378985Y-81049500D01*
X127221015Y-81049500D01*
X127221014Y-81049500D01*
X127067634Y-81087303D01*
X126927762Y-81160715D01*
X126809516Y-81265471D01*
X126719781Y-81395475D01*
X126719780Y-81395476D01*
X126663762Y-81543181D01*
X126644722Y-81699999D01*
X124893584Y-81699999D01*
X124879483Y-81679570D01*
X124761240Y-81574817D01*
X124761238Y-81574816D01*
X124761237Y-81574815D01*
X124621365Y-81501403D01*
X124467986Y-81463600D01*
X124467985Y-81463600D01*
X124310015Y-81463600D01*
X124310014Y-81463600D01*
X124156634Y-81501403D01*
X124016762Y-81574815D01*
X123898516Y-81679571D01*
X123808781Y-81809575D01*
X123808780Y-81809576D01*
X123752762Y-81957281D01*
X123733722Y-82114099D01*
X118807247Y-82114099D01*
X118713240Y-82030817D01*
X118713238Y-82030816D01*
X118713237Y-82030815D01*
X118573365Y-81957403D01*
X118419986Y-81919600D01*
X118419985Y-81919600D01*
X118262015Y-81919600D01*
X118262014Y-81919600D01*
X118108634Y-81957403D01*
X117968762Y-82030815D01*
X117850516Y-82135571D01*
X117760781Y-82265575D01*
X117760780Y-82265576D01*
X117704762Y-82413281D01*
X117685722Y-82570099D01*
X115295437Y-82570099D01*
X115336237Y-82462518D01*
X115355278Y-82305700D01*
X115353443Y-82290583D01*
X115336237Y-82148881D01*
X115281489Y-82004524D01*
X115280220Y-82001177D01*
X115190483Y-81871170D01*
X115072240Y-81766417D01*
X115072238Y-81766416D01*
X115072237Y-81766415D01*
X114932365Y-81693003D01*
X114778986Y-81655200D01*
X114778985Y-81655200D01*
X114621015Y-81655200D01*
X114621014Y-81655200D01*
X114467634Y-81693003D01*
X114327762Y-81766415D01*
X114209516Y-81871171D01*
X114119781Y-82001175D01*
X114119780Y-82001176D01*
X114063762Y-82148881D01*
X114044722Y-82305699D01*
X112418251Y-82305699D01*
X112390483Y-82265470D01*
X112272240Y-82160717D01*
X112272238Y-82160716D01*
X112272237Y-82160715D01*
X112132365Y-82087303D01*
X111978986Y-82049500D01*
X111978985Y-82049500D01*
X111821015Y-82049500D01*
X111821014Y-82049500D01*
X111667634Y-82087303D01*
X111527762Y-82160715D01*
X111409516Y-82265471D01*
X111319781Y-82395475D01*
X111319780Y-82395476D01*
X111263762Y-82543181D01*
X111244722Y-82699999D01*
X110855278Y-82699999D01*
X110854122Y-82690475D01*
X110836237Y-82543181D01*
X110788998Y-82418623D01*
X110780220Y-82395477D01*
X110690483Y-82265470D01*
X110572240Y-82160717D01*
X110572238Y-82160716D01*
X110572237Y-82160715D01*
X110432365Y-82087303D01*
X110278986Y-82049500D01*
X110278985Y-82049500D01*
X110121015Y-82049500D01*
X110121014Y-82049500D01*
X109967634Y-82087303D01*
X109827762Y-82160715D01*
X109709516Y-82265471D01*
X109619781Y-82395475D01*
X109619780Y-82395476D01*
X109563762Y-82543181D01*
X109544722Y-82699999D01*
X104065831Y-82699999D01*
X104062220Y-82690477D01*
X103972483Y-82560470D01*
X103854240Y-82455717D01*
X103854238Y-82455716D01*
X103854237Y-82455715D01*
X103714365Y-82382303D01*
X103560986Y-82344500D01*
X103560985Y-82344500D01*
X103403015Y-82344500D01*
X103403014Y-82344500D01*
X103249634Y-82382303D01*
X103109762Y-82455715D01*
X103030931Y-82525552D01*
X103011033Y-82543181D01*
X102991516Y-82560471D01*
X102901781Y-82690475D01*
X102901780Y-82690476D01*
X102845762Y-82838181D01*
X102826722Y-82994999D01*
X94000000Y-82994999D01*
X94000000Y-81599999D01*
X115744722Y-81599999D01*
X115744722Y-81600000D01*
X115763762Y-81756818D01*
X115801688Y-81856818D01*
X115819780Y-81904523D01*
X115909517Y-82034530D01*
X116027760Y-82139283D01*
X116039860Y-82145633D01*
X116167634Y-82212696D01*
X116321014Y-82250500D01*
X116321015Y-82250500D01*
X116478985Y-82250500D01*
X116632365Y-82212696D01*
X116731401Y-82160717D01*
X116772240Y-82139283D01*
X116890483Y-82034530D01*
X116980220Y-81904523D01*
X117036237Y-81756818D01*
X117055278Y-81600000D01*
X117036674Y-81446776D01*
X117036237Y-81443181D01*
X117001087Y-81350500D01*
X116980220Y-81295477D01*
X116890483Y-81165470D01*
X116772240Y-81060717D01*
X116772238Y-81060716D01*
X116772237Y-81060715D01*
X116632365Y-80987303D01*
X116478986Y-80949500D01*
X116478985Y-80949500D01*
X116321015Y-80949500D01*
X116321014Y-80949500D01*
X116167634Y-80987303D01*
X116027762Y-81060715D01*
X115909516Y-81165471D01*
X115819781Y-81295475D01*
X115819780Y-81295476D01*
X115763762Y-81443181D01*
X115744722Y-81599999D01*
X94000000Y-81599999D01*
X94000000Y-80294999D01*
X102826722Y-80294999D01*
X102826722Y-80295000D01*
X102845762Y-80451818D01*
X102885584Y-80556818D01*
X102901780Y-80599523D01*
X102991517Y-80729530D01*
X103109760Y-80834283D01*
X103121860Y-80840633D01*
X103249634Y-80907696D01*
X103403014Y-80945500D01*
X103403015Y-80945500D01*
X103560985Y-80945500D01*
X103714365Y-80907696D01*
X103716038Y-80906818D01*
X103854240Y-80834283D01*
X103972483Y-80729530D01*
X104037224Y-80635735D01*
X104091506Y-80591745D01*
X104160955Y-80584085D01*
X104223520Y-80615188D01*
X104241324Y-80635735D01*
X104309517Y-80734530D01*
X104427760Y-80839283D01*
X104427762Y-80839284D01*
X104567634Y-80912696D01*
X104721014Y-80950500D01*
X104721015Y-80950500D01*
X104878985Y-80950500D01*
X105032365Y-80912696D01*
X105043564Y-80906818D01*
X105172240Y-80839283D01*
X105290483Y-80734530D01*
X105314318Y-80699999D01*
X118144722Y-80699999D01*
X118144722Y-80700000D01*
X118163762Y-80856818D01*
X118213249Y-80987303D01*
X118219780Y-81004523D01*
X118309517Y-81134530D01*
X118427760Y-81239283D01*
X118427762Y-81239284D01*
X118567634Y-81312696D01*
X118721014Y-81350500D01*
X118721015Y-81350500D01*
X118878985Y-81350500D01*
X119032365Y-81312696D01*
X119059956Y-81298215D01*
X119172240Y-81239283D01*
X119290483Y-81134530D01*
X119380220Y-81004523D01*
X119436237Y-80856818D01*
X119449207Y-80749999D01*
X120331722Y-80749999D01*
X120331722Y-80750000D01*
X120350762Y-80906818D01*
X120387818Y-81004524D01*
X120406780Y-81054523D01*
X120496517Y-81184530D01*
X120614760Y-81289283D01*
X120614762Y-81289284D01*
X120754634Y-81362696D01*
X120908014Y-81400500D01*
X120908015Y-81400500D01*
X121065985Y-81400500D01*
X121219365Y-81362696D01*
X121242602Y-81350500D01*
X121359240Y-81289283D01*
X121477483Y-81184530D01*
X121567220Y-81054523D01*
X121623237Y-80906818D01*
X121642278Y-80750000D01*
X121623237Y-80593182D01*
X121567220Y-80445477D01*
X121535829Y-80399999D01*
X144044722Y-80399999D01*
X144044722Y-80400000D01*
X144063762Y-80556818D01*
X144118064Y-80699999D01*
X144119780Y-80704523D01*
X144209517Y-80834530D01*
X144327760Y-80939283D01*
X144327762Y-80939284D01*
X144467634Y-81012696D01*
X144621014Y-81050500D01*
X144621015Y-81050500D01*
X144778985Y-81050500D01*
X144932365Y-81012696D01*
X144947937Y-81004523D01*
X145072240Y-80939283D01*
X145190483Y-80834530D01*
X145280220Y-80704523D01*
X145336237Y-80556818D01*
X145355278Y-80400000D01*
X145345015Y-80315471D01*
X145336237Y-80243181D01*
X145298312Y-80143182D01*
X145280220Y-80095477D01*
X145190483Y-79965470D01*
X145072240Y-79860717D01*
X145072238Y-79860716D01*
X145072237Y-79860715D01*
X144932365Y-79787303D01*
X144778986Y-79749500D01*
X144778985Y-79749500D01*
X144621015Y-79749500D01*
X144621014Y-79749500D01*
X144467634Y-79787303D01*
X144327762Y-79860715D01*
X144209516Y-79965471D01*
X144119781Y-80095475D01*
X144119780Y-80095476D01*
X144063762Y-80243181D01*
X144044722Y-80399999D01*
X121535829Y-80399999D01*
X121477483Y-80315470D01*
X121359240Y-80210717D01*
X121359238Y-80210716D01*
X121359237Y-80210715D01*
X121219365Y-80137303D01*
X121065986Y-80099500D01*
X121065985Y-80099500D01*
X120908015Y-80099500D01*
X120908014Y-80099500D01*
X120754634Y-80137303D01*
X120614762Y-80210715D01*
X120496516Y-80315471D01*
X120406781Y-80445475D01*
X120406780Y-80445476D01*
X120350762Y-80593181D01*
X120331722Y-80749999D01*
X119449207Y-80749999D01*
X119455278Y-80700000D01*
X119441204Y-80584085D01*
X119436237Y-80543181D01*
X119414992Y-80487164D01*
X119380220Y-80395477D01*
X119290483Y-80265470D01*
X119172240Y-80160717D01*
X119172238Y-80160716D01*
X119172237Y-80160715D01*
X119032365Y-80087303D01*
X118878986Y-80049500D01*
X118878985Y-80049500D01*
X118721015Y-80049500D01*
X118721014Y-80049500D01*
X118567634Y-80087303D01*
X118427762Y-80160715D01*
X118309516Y-80265471D01*
X118219781Y-80395475D01*
X118219780Y-80395476D01*
X118163762Y-80543181D01*
X118144722Y-80699999D01*
X105314318Y-80699999D01*
X105380220Y-80604523D01*
X105436237Y-80456818D01*
X105455278Y-80300000D01*
X105451086Y-80265471D01*
X105436237Y-80143181D01*
X105400708Y-80049500D01*
X105380220Y-79995477D01*
X105290483Y-79865470D01*
X105172240Y-79760717D01*
X105172238Y-79760716D01*
X105172237Y-79760715D01*
X105032365Y-79687303D01*
X104878986Y-79649500D01*
X104878985Y-79649500D01*
X104721015Y-79649500D01*
X104721014Y-79649500D01*
X104567634Y-79687303D01*
X104427762Y-79760715D01*
X104329882Y-79847428D01*
X104309517Y-79865470D01*
X104296362Y-79884528D01*
X104244775Y-79959265D01*
X104190492Y-80003255D01*
X104121043Y-80010914D01*
X104058478Y-79979810D01*
X104040675Y-79959264D01*
X104035787Y-79952183D01*
X103972483Y-79860470D01*
X103854240Y-79755717D01*
X103854238Y-79755716D01*
X103854237Y-79755715D01*
X103714365Y-79682303D01*
X103560986Y-79644500D01*
X103560985Y-79644500D01*
X103403015Y-79644500D01*
X103403014Y-79644500D01*
X103249634Y-79682303D01*
X103109762Y-79755715D01*
X102991516Y-79860471D01*
X102901781Y-79990475D01*
X102901780Y-79990476D01*
X102845762Y-80138181D01*
X102826722Y-80294999D01*
X94000000Y-80294999D01*
X94000000Y-79499999D01*
X107944722Y-79499999D01*
X107944722Y-79500000D01*
X107963762Y-79656818D01*
X108013249Y-79787303D01*
X108019780Y-79804523D01*
X108109517Y-79934530D01*
X108227760Y-80039283D01*
X108227762Y-80039284D01*
X108367634Y-80112696D01*
X108521014Y-80150500D01*
X108521015Y-80150500D01*
X108678985Y-80150500D01*
X108832365Y-80112696D01*
X108855602Y-80100500D01*
X108972240Y-80039283D01*
X109090483Y-79934530D01*
X109180220Y-79804523D01*
X109236237Y-79656818D01*
X109255278Y-79500000D01*
X109244702Y-79412899D01*
X125946722Y-79412899D01*
X125946722Y-79412900D01*
X125965762Y-79569718D01*
X126008461Y-79682303D01*
X126021780Y-79717423D01*
X126111517Y-79847430D01*
X126229760Y-79952183D01*
X126229762Y-79952184D01*
X126369634Y-80025596D01*
X126523014Y-80063400D01*
X126523015Y-80063400D01*
X126680985Y-80063400D01*
X126834365Y-80025596D01*
X126862339Y-80010914D01*
X126974240Y-79952183D01*
X127092483Y-79847430D01*
X127182220Y-79717423D01*
X127238237Y-79569718D01*
X127252773Y-79449999D01*
X129418722Y-79449999D01*
X129418722Y-79450000D01*
X129437762Y-79606818D01*
X129468287Y-79687304D01*
X129493780Y-79754523D01*
X129583517Y-79884530D01*
X129701760Y-79989283D01*
X129701762Y-79989284D01*
X129841634Y-80062696D01*
X129995014Y-80100500D01*
X129995015Y-80100500D01*
X130152985Y-80100500D01*
X130306365Y-80062696D01*
X130446240Y-79989283D01*
X130564483Y-79884530D01*
X130654220Y-79754523D01*
X130710237Y-79606818D01*
X130723207Y-79499999D01*
X134644722Y-79499999D01*
X134644722Y-79500000D01*
X134663762Y-79656818D01*
X134713249Y-79787303D01*
X134719780Y-79804523D01*
X134809517Y-79934530D01*
X134927760Y-80039283D01*
X134927762Y-80039284D01*
X135067634Y-80112696D01*
X135221014Y-80150500D01*
X135221015Y-80150500D01*
X135378985Y-80150500D01*
X135532365Y-80112696D01*
X135555602Y-80100500D01*
X135672240Y-80039283D01*
X135790483Y-79934530D01*
X135880220Y-79804523D01*
X135936237Y-79656818D01*
X135955278Y-79500000D01*
X135936237Y-79343182D01*
X135880220Y-79195477D01*
X135790483Y-79065470D01*
X135672240Y-78960717D01*
X135672238Y-78960716D01*
X135672237Y-78960715D01*
X135532365Y-78887303D01*
X135378986Y-78849500D01*
X135378985Y-78849500D01*
X135221015Y-78849500D01*
X135221014Y-78849500D01*
X135067634Y-78887303D01*
X134927762Y-78960715D01*
X134809516Y-79065471D01*
X134719781Y-79195475D01*
X134719780Y-79195476D01*
X134663762Y-79343181D01*
X134644722Y-79499999D01*
X130723207Y-79499999D01*
X130729278Y-79450000D01*
X130710237Y-79293182D01*
X130696166Y-79256081D01*
X130673182Y-79195476D01*
X130654220Y-79145477D01*
X130564483Y-79015470D01*
X130446240Y-78910717D01*
X130446238Y-78910716D01*
X130446237Y-78910715D01*
X130306365Y-78837303D01*
X130152986Y-78799500D01*
X130152985Y-78799500D01*
X129995015Y-78799500D01*
X129995014Y-78799500D01*
X129841634Y-78837303D01*
X129701762Y-78910715D01*
X129583516Y-79015471D01*
X129493781Y-79145475D01*
X129493780Y-79145476D01*
X129437762Y-79293181D01*
X129418722Y-79449999D01*
X127252773Y-79449999D01*
X127257278Y-79412900D01*
X127238237Y-79256082D01*
X127182220Y-79108377D01*
X127092483Y-78978370D01*
X126974240Y-78873617D01*
X126974238Y-78873616D01*
X126974237Y-78873615D01*
X126834365Y-78800203D01*
X126680986Y-78762400D01*
X126680985Y-78762400D01*
X126523015Y-78762400D01*
X126523014Y-78762400D01*
X126369634Y-78800203D01*
X126229762Y-78873615D01*
X126111516Y-78978371D01*
X126021781Y-79108375D01*
X126021780Y-79108376D01*
X125965762Y-79256081D01*
X125946722Y-79412899D01*
X109244702Y-79412899D01*
X109236237Y-79343182D01*
X109180220Y-79195477D01*
X109090483Y-79065470D01*
X108972240Y-78960717D01*
X108972238Y-78960716D01*
X108972237Y-78960715D01*
X108832365Y-78887303D01*
X108678986Y-78849500D01*
X108678985Y-78849500D01*
X108521015Y-78849500D01*
X108521014Y-78849500D01*
X108367634Y-78887303D01*
X108227762Y-78960715D01*
X108109516Y-79065471D01*
X108019781Y-79195475D01*
X108019780Y-79195476D01*
X107963762Y-79343181D01*
X107944722Y-79499999D01*
X94000000Y-79499999D01*
X94000000Y-77699999D01*
X100044722Y-77699999D01*
X100044722Y-77700000D01*
X100063762Y-77856818D01*
X100107559Y-77972299D01*
X100119780Y-78004523D01*
X100209517Y-78134530D01*
X100327760Y-78239283D01*
X100327762Y-78239284D01*
X100467634Y-78312696D01*
X100621014Y-78350500D01*
X100621015Y-78350500D01*
X100778985Y-78350500D01*
X100932365Y-78312696D01*
X101072240Y-78239283D01*
X101190483Y-78134530D01*
X101280220Y-78004523D01*
X101292441Y-77972299D01*
X111860722Y-77972299D01*
X111860722Y-77972300D01*
X111879762Y-78129118D01*
X111921543Y-78239283D01*
X111935780Y-78276823D01*
X112025517Y-78406830D01*
X112143760Y-78511583D01*
X112143762Y-78511584D01*
X112283634Y-78584996D01*
X112437014Y-78622800D01*
X112437015Y-78622800D01*
X112594985Y-78622800D01*
X112748365Y-78584996D01*
X112785509Y-78565501D01*
X112888240Y-78511583D01*
X113006483Y-78406830D01*
X113096220Y-78276823D01*
X113152237Y-78129118D01*
X113155773Y-78099999D01*
X121644722Y-78099999D01*
X121644722Y-78100000D01*
X121663762Y-78256818D01*
X121719780Y-78404523D01*
X121809517Y-78534530D01*
X121927760Y-78639283D01*
X121927762Y-78639284D01*
X122067634Y-78712696D01*
X122221014Y-78750500D01*
X122221015Y-78750500D01*
X122378985Y-78750500D01*
X122532365Y-78712696D01*
X122672240Y-78639283D01*
X122716583Y-78599999D01*
X144444722Y-78599999D01*
X144444722Y-78600000D01*
X144463762Y-78756818D01*
X144508058Y-78873615D01*
X144519780Y-78904523D01*
X144609517Y-79034530D01*
X144727760Y-79139283D01*
X144727762Y-79139284D01*
X144867634Y-79212696D01*
X145021014Y-79250500D01*
X145021015Y-79250500D01*
X145178985Y-79250500D01*
X145332365Y-79212696D01*
X145472240Y-79139283D01*
X145590483Y-79034530D01*
X145680220Y-78904523D01*
X145736237Y-78756818D01*
X145752904Y-78619552D01*
X145759483Y-78604264D01*
X145757023Y-78600436D01*
X145752904Y-78580447D01*
X145736237Y-78443181D01*
X145686750Y-78312696D01*
X145680220Y-78295477D01*
X145590483Y-78165470D01*
X145472240Y-78060717D01*
X145472238Y-78060716D01*
X145472237Y-78060715D01*
X145332365Y-77987303D01*
X145178986Y-77949500D01*
X145178985Y-77949500D01*
X145021015Y-77949500D01*
X145021014Y-77949500D01*
X144867634Y-77987303D01*
X144727762Y-78060715D01*
X144609516Y-78165471D01*
X144519781Y-78295475D01*
X144519780Y-78295476D01*
X144463762Y-78443181D01*
X144444722Y-78599999D01*
X122716583Y-78599999D01*
X122790483Y-78534530D01*
X122880220Y-78404523D01*
X122936237Y-78256818D01*
X122955278Y-78100000D01*
X122939773Y-77972299D01*
X122936237Y-77943181D01*
X122914992Y-77887164D01*
X122880220Y-77795477D01*
X122814317Y-77699999D01*
X132760722Y-77699999D01*
X132760722Y-77700000D01*
X132779762Y-77856818D01*
X132823559Y-77972299D01*
X132835780Y-78004523D01*
X132925517Y-78134530D01*
X133043760Y-78239283D01*
X133043762Y-78239284D01*
X133183634Y-78312696D01*
X133337014Y-78350500D01*
X133337015Y-78350500D01*
X133494985Y-78350500D01*
X133648365Y-78312696D01*
X133788240Y-78239283D01*
X133906483Y-78134530D01*
X133996220Y-78004523D01*
X134052237Y-77856818D01*
X134071278Y-77700000D01*
X134067366Y-77667777D01*
X134052237Y-77543181D01*
X133999651Y-77404524D01*
X133996220Y-77395477D01*
X133906483Y-77265470D01*
X133788240Y-77160717D01*
X133788238Y-77160716D01*
X133788237Y-77160715D01*
X133648365Y-77087303D01*
X133494986Y-77049500D01*
X133494985Y-77049500D01*
X133337015Y-77049500D01*
X133337014Y-77049500D01*
X133183634Y-77087303D01*
X133043762Y-77160715D01*
X132925516Y-77265471D01*
X132835781Y-77395475D01*
X132835780Y-77395476D01*
X132779762Y-77543181D01*
X132760722Y-77699999D01*
X122814317Y-77699999D01*
X122790483Y-77665470D01*
X122672240Y-77560717D01*
X122672238Y-77560716D01*
X122672237Y-77560715D01*
X122532365Y-77487303D01*
X122378986Y-77449500D01*
X122378985Y-77449500D01*
X122221015Y-77449500D01*
X122221014Y-77449500D01*
X122067634Y-77487303D01*
X121927762Y-77560715D01*
X121809516Y-77665471D01*
X121719781Y-77795475D01*
X121719780Y-77795476D01*
X121663762Y-77943181D01*
X121644722Y-78099999D01*
X113155773Y-78099999D01*
X113171278Y-77972300D01*
X113167743Y-77943182D01*
X113152237Y-77815481D01*
X113113255Y-77712696D01*
X113096220Y-77667777D01*
X113006483Y-77537770D01*
X112888240Y-77433017D01*
X112888238Y-77433016D01*
X112888237Y-77433015D01*
X112748365Y-77359603D01*
X112594986Y-77321800D01*
X112594985Y-77321800D01*
X112437015Y-77321800D01*
X112437014Y-77321800D01*
X112283634Y-77359603D01*
X112143762Y-77433015D01*
X112025516Y-77537771D01*
X111935781Y-77667775D01*
X111935780Y-77667776D01*
X111879762Y-77815481D01*
X111860722Y-77972299D01*
X101292441Y-77972299D01*
X101336237Y-77856818D01*
X101355278Y-77700000D01*
X101351366Y-77667777D01*
X101336237Y-77543181D01*
X101283651Y-77404524D01*
X101280220Y-77395477D01*
X101190483Y-77265470D01*
X101072240Y-77160717D01*
X101072238Y-77160716D01*
X101072237Y-77160715D01*
X100956555Y-77099999D01*
X108444722Y-77099999D01*
X108444722Y-77100000D01*
X108463762Y-77256818D01*
X108516349Y-77395476D01*
X108519780Y-77404523D01*
X108609517Y-77534530D01*
X108727760Y-77639283D01*
X108727762Y-77639284D01*
X108867634Y-77712696D01*
X109021014Y-77750500D01*
X109021015Y-77750500D01*
X109178985Y-77750500D01*
X109332365Y-77712696D01*
X109356557Y-77699999D01*
X109472240Y-77639283D01*
X109590483Y-77534530D01*
X109680220Y-77404523D01*
X109736237Y-77256818D01*
X109755278Y-77100000D01*
X109753737Y-77087304D01*
X109736237Y-76943181D01*
X109714992Y-76887164D01*
X109680220Y-76795477D01*
X109590483Y-76665470D01*
X109516581Y-76599999D01*
X114944722Y-76599999D01*
X114944722Y-76600000D01*
X114963762Y-76756818D01*
X114978424Y-76795477D01*
X115019780Y-76904523D01*
X115109517Y-77034530D01*
X115227760Y-77139283D01*
X115227762Y-77139284D01*
X115367634Y-77212696D01*
X115521014Y-77250500D01*
X115521015Y-77250500D01*
X115678985Y-77250500D01*
X115832365Y-77212696D01*
X115931401Y-77160717D01*
X115972240Y-77139283D01*
X116090483Y-77034530D01*
X116180220Y-76904523D01*
X116236237Y-76756818D01*
X116255278Y-76600000D01*
X116236237Y-76443182D01*
X116180220Y-76295477D01*
X116090483Y-76165470D01*
X115972240Y-76060717D01*
X115972238Y-76060716D01*
X115972237Y-76060715D01*
X115856555Y-75999999D01*
X140344722Y-75999999D01*
X140344722Y-76000000D01*
X140363762Y-76156818D01*
X140416349Y-76295476D01*
X140419780Y-76304523D01*
X140509517Y-76434530D01*
X140627760Y-76539283D01*
X140627762Y-76539284D01*
X140767634Y-76612696D01*
X140921014Y-76650500D01*
X140921015Y-76650500D01*
X141078985Y-76650500D01*
X141232365Y-76612696D01*
X141331401Y-76560717D01*
X141372240Y-76539283D01*
X141490483Y-76434530D01*
X141580220Y-76304523D01*
X141636237Y-76156818D01*
X141655278Y-76000000D01*
X141653737Y-75987304D01*
X141636237Y-75843181D01*
X141586750Y-75712696D01*
X141580220Y-75695477D01*
X141490483Y-75565470D01*
X141372240Y-75460717D01*
X141372238Y-75460716D01*
X141372237Y-75460715D01*
X141232365Y-75387303D01*
X141078986Y-75349500D01*
X141078985Y-75349500D01*
X140921015Y-75349500D01*
X140921014Y-75349500D01*
X140767634Y-75387303D01*
X140627762Y-75460715D01*
X140509516Y-75565471D01*
X140419781Y-75695475D01*
X140419780Y-75695476D01*
X140363762Y-75843181D01*
X140344722Y-75999999D01*
X115856555Y-75999999D01*
X115832365Y-75987303D01*
X115678986Y-75949500D01*
X115678985Y-75949500D01*
X115521015Y-75949500D01*
X115521014Y-75949500D01*
X115367634Y-75987303D01*
X115227762Y-76060715D01*
X115109516Y-76165471D01*
X115019781Y-76295475D01*
X115019780Y-76295476D01*
X114963762Y-76443181D01*
X114944722Y-76599999D01*
X109516581Y-76599999D01*
X109472240Y-76560717D01*
X109472238Y-76560716D01*
X109472237Y-76560715D01*
X109332365Y-76487303D01*
X109178986Y-76449500D01*
X109178985Y-76449500D01*
X109021015Y-76449500D01*
X109021014Y-76449500D01*
X108867634Y-76487303D01*
X108727762Y-76560715D01*
X108609516Y-76665471D01*
X108519781Y-76795475D01*
X108519780Y-76795476D01*
X108463762Y-76943181D01*
X108444722Y-77099999D01*
X100956555Y-77099999D01*
X100932365Y-77087303D01*
X100778986Y-77049500D01*
X100778985Y-77049500D01*
X100621015Y-77049500D01*
X100621014Y-77049500D01*
X100467634Y-77087303D01*
X100327762Y-77160715D01*
X100209516Y-77265471D01*
X100119781Y-77395475D01*
X100119780Y-77395476D01*
X100063762Y-77543181D01*
X100044722Y-77699999D01*
X94000000Y-77699999D01*
X94000000Y-76099999D01*
X105344722Y-76099999D01*
X105344722Y-76100000D01*
X105363762Y-76256818D01*
X105394583Y-76338084D01*
X105419780Y-76404523D01*
X105509517Y-76534530D01*
X105627760Y-76639283D01*
X105627762Y-76639284D01*
X105767634Y-76712696D01*
X105921014Y-76750500D01*
X105921015Y-76750500D01*
X106078985Y-76750500D01*
X106232365Y-76712696D01*
X106372240Y-76639283D01*
X106490483Y-76534530D01*
X106580220Y-76404523D01*
X106636237Y-76256818D01*
X106655278Y-76100000D01*
X106636237Y-75943182D01*
X106581480Y-75798799D01*
X111173722Y-75798799D01*
X111173722Y-75798800D01*
X111192762Y-75955618D01*
X111247519Y-76099999D01*
X111248780Y-76103323D01*
X111338517Y-76233330D01*
X111456760Y-76338083D01*
X111456762Y-76338084D01*
X111596634Y-76411496D01*
X111750014Y-76449300D01*
X111750015Y-76449300D01*
X111907985Y-76449300D01*
X112061365Y-76411496D01*
X112074651Y-76404523D01*
X112201240Y-76338083D01*
X112319483Y-76233330D01*
X112409220Y-76103323D01*
X112465237Y-75955618D01*
X112484278Y-75798800D01*
X112483875Y-75795476D01*
X112465237Y-75641981D01*
X112434417Y-75560717D01*
X112409220Y-75494277D01*
X112319483Y-75364270D01*
X112201240Y-75259517D01*
X112201238Y-75259516D01*
X112201237Y-75259515D01*
X112061365Y-75186103D01*
X111907986Y-75148300D01*
X111907985Y-75148300D01*
X111750015Y-75148300D01*
X111750014Y-75148300D01*
X111596634Y-75186103D01*
X111456762Y-75259515D01*
X111338516Y-75364271D01*
X111248781Y-75494275D01*
X111248780Y-75494276D01*
X111192762Y-75641981D01*
X111173722Y-75798799D01*
X106581480Y-75798799D01*
X106580220Y-75795477D01*
X106490483Y-75665470D01*
X106372240Y-75560717D01*
X106372238Y-75560716D01*
X106372237Y-75560715D01*
X106232365Y-75487303D01*
X106078986Y-75449500D01*
X106078985Y-75449500D01*
X105921015Y-75449500D01*
X105921014Y-75449500D01*
X105767634Y-75487303D01*
X105627762Y-75560715D01*
X105509516Y-75665471D01*
X105419781Y-75795475D01*
X105419780Y-75795476D01*
X105363762Y-75943181D01*
X105344722Y-76099999D01*
X94000000Y-76099999D01*
X94000000Y-74499999D01*
X101744722Y-74499999D01*
X101744722Y-74500000D01*
X101763762Y-74656818D01*
X101816349Y-74795476D01*
X101819780Y-74804523D01*
X101909517Y-74934530D01*
X102027760Y-75039283D01*
X102027762Y-75039284D01*
X102167634Y-75112696D01*
X102321014Y-75150500D01*
X102321015Y-75150500D01*
X102478985Y-75150500D01*
X102632365Y-75112696D01*
X102656557Y-75099999D01*
X102772240Y-75039283D01*
X102890483Y-74934530D01*
X102980220Y-74804523D01*
X103036237Y-74656818D01*
X103043136Y-74599999D01*
X104544722Y-74599999D01*
X104544722Y-74600000D01*
X104563762Y-74756818D01*
X104595038Y-74839284D01*
X104619780Y-74904523D01*
X104709517Y-75034530D01*
X104827760Y-75139283D01*
X104827762Y-75139284D01*
X104967634Y-75212696D01*
X105121014Y-75250500D01*
X105121015Y-75250500D01*
X105278985Y-75250500D01*
X105432365Y-75212696D01*
X105483033Y-75186103D01*
X105572240Y-75139283D01*
X105616583Y-75099999D01*
X116344722Y-75099999D01*
X116344722Y-75100000D01*
X116363762Y-75256818D01*
X116404514Y-75364270D01*
X116419780Y-75404523D01*
X116509517Y-75534530D01*
X116627760Y-75639283D01*
X116639860Y-75645633D01*
X116767634Y-75712696D01*
X116921014Y-75750500D01*
X116921015Y-75750500D01*
X117078985Y-75750500D01*
X117232365Y-75712696D01*
X117372240Y-75639283D01*
X117490483Y-75534530D01*
X117580220Y-75404523D01*
X117636237Y-75256818D01*
X117655278Y-75100000D01*
X117644678Y-75012696D01*
X117636237Y-74943181D01*
X117614992Y-74887164D01*
X117580220Y-74795477D01*
X117490483Y-74665470D01*
X117372240Y-74560717D01*
X117372238Y-74560716D01*
X117372237Y-74560715D01*
X117232365Y-74487303D01*
X117078986Y-74449500D01*
X117078985Y-74449500D01*
X116921015Y-74449500D01*
X116921014Y-74449500D01*
X116767634Y-74487303D01*
X116627762Y-74560715D01*
X116509516Y-74665471D01*
X116419781Y-74795475D01*
X116419780Y-74795476D01*
X116363762Y-74943181D01*
X116344722Y-75099999D01*
X105616583Y-75099999D01*
X105690483Y-75034530D01*
X105780220Y-74904523D01*
X105836237Y-74756818D01*
X105855278Y-74600000D01*
X105842587Y-74495475D01*
X105836237Y-74443181D01*
X105819860Y-74399999D01*
X111844722Y-74399999D01*
X111844722Y-74400000D01*
X111863762Y-74556818D01*
X111919780Y-74704523D01*
X112009517Y-74834530D01*
X112127760Y-74939283D01*
X112127762Y-74939284D01*
X112267634Y-75012696D01*
X112421014Y-75050500D01*
X112421015Y-75050500D01*
X112578985Y-75050500D01*
X112732365Y-75012696D01*
X112872240Y-74939283D01*
X112990483Y-74834530D01*
X113080220Y-74704523D01*
X113136237Y-74556818D01*
X113155278Y-74400000D01*
X113151086Y-74365471D01*
X113136237Y-74243181D01*
X113098312Y-74143182D01*
X113080220Y-74095477D01*
X113055777Y-74060065D01*
X113033894Y-73993710D01*
X113051359Y-73926059D01*
X113102627Y-73878589D01*
X113171421Y-73866372D01*
X113202620Y-73873998D01*
X113214470Y-73878589D01*
X113277538Y-73903022D01*
X113277539Y-73903022D01*
X113277544Y-73903024D01*
X113478024Y-73940500D01*
X113478026Y-73940500D01*
X113681974Y-73940500D01*
X113681976Y-73940500D01*
X113882456Y-73903024D01*
X114072637Y-73829348D01*
X114246041Y-73721981D01*
X114396764Y-73584579D01*
X114519673Y-73421821D01*
X114610582Y-73239250D01*
X114666397Y-73043083D01*
X114685215Y-72840000D01*
X114685215Y-72839999D01*
X117554785Y-72839999D01*
X117554785Y-72840000D01*
X117573602Y-73043082D01*
X117629417Y-73239247D01*
X117629422Y-73239260D01*
X117720327Y-73421821D01*
X117843237Y-73584581D01*
X117993958Y-73721980D01*
X117993960Y-73721982D01*
X118056520Y-73760717D01*
X118167363Y-73829348D01*
X118357544Y-73903024D01*
X118558024Y-73940500D01*
X118558026Y-73940500D01*
X118761974Y-73940500D01*
X118761976Y-73940500D01*
X118962456Y-73903024D01*
X119152637Y-73829348D01*
X119326041Y-73721981D01*
X119476764Y-73584579D01*
X119599673Y-73421821D01*
X119690582Y-73239250D01*
X119746397Y-73043083D01*
X119765215Y-72840000D01*
X119765215Y-72839999D01*
X120094785Y-72839999D01*
X120094785Y-72840000D01*
X120113602Y-73043082D01*
X120169417Y-73239247D01*
X120169422Y-73239260D01*
X120260327Y-73421821D01*
X120383237Y-73584581D01*
X120533958Y-73721980D01*
X120533960Y-73721982D01*
X120596520Y-73760717D01*
X120707363Y-73829348D01*
X120897544Y-73903024D01*
X121098024Y-73940500D01*
X121098026Y-73940500D01*
X121301974Y-73940500D01*
X121301976Y-73940500D01*
X121502456Y-73903024D01*
X121692637Y-73829348D01*
X121866041Y-73721981D01*
X122016764Y-73584579D01*
X122139673Y-73421821D01*
X122230582Y-73239250D01*
X122286397Y-73043083D01*
X122305215Y-72840000D01*
X122305215Y-72839999D01*
X122634785Y-72839999D01*
X122634785Y-72840000D01*
X122653602Y-73043082D01*
X122709417Y-73239247D01*
X122709422Y-73239260D01*
X122800327Y-73421821D01*
X122923237Y-73584581D01*
X123073958Y-73721980D01*
X123073960Y-73721982D01*
X123136520Y-73760717D01*
X123247363Y-73829348D01*
X123437544Y-73903024D01*
X123638024Y-73940500D01*
X123638026Y-73940500D01*
X123841974Y-73940500D01*
X123841976Y-73940500D01*
X124042456Y-73903024D01*
X124232637Y-73829348D01*
X124406041Y-73721981D01*
X124556764Y-73584579D01*
X124679673Y-73421821D01*
X124770582Y-73239250D01*
X124826397Y-73043083D01*
X124845215Y-72840000D01*
X124845215Y-72839999D01*
X125174785Y-72839999D01*
X125174785Y-72840000D01*
X125193602Y-73043082D01*
X125249417Y-73239247D01*
X125249422Y-73239260D01*
X125340327Y-73421821D01*
X125463237Y-73584581D01*
X125613958Y-73721980D01*
X125613960Y-73721982D01*
X125676520Y-73760717D01*
X125787363Y-73829348D01*
X125977544Y-73903024D01*
X126178024Y-73940500D01*
X126178026Y-73940500D01*
X126381974Y-73940500D01*
X126381976Y-73940500D01*
X126582456Y-73903024D01*
X126772637Y-73829348D01*
X126946041Y-73721981D01*
X127096764Y-73584579D01*
X127219673Y-73421821D01*
X127310582Y-73239250D01*
X127366397Y-73043083D01*
X127385215Y-72840000D01*
X127385215Y-72839999D01*
X127714785Y-72839999D01*
X127714785Y-72840000D01*
X127733602Y-73043082D01*
X127789417Y-73239247D01*
X127789422Y-73239260D01*
X127880327Y-73421821D01*
X128003237Y-73584581D01*
X128153958Y-73721980D01*
X128153960Y-73721982D01*
X128216520Y-73760717D01*
X128327363Y-73829348D01*
X128517544Y-73903024D01*
X128718024Y-73940500D01*
X128718026Y-73940500D01*
X128921974Y-73940500D01*
X128921976Y-73940500D01*
X129122456Y-73903024D01*
X129312637Y-73829348D01*
X129370430Y-73793563D01*
X129437790Y-73775007D01*
X129504490Y-73795815D01*
X129549351Y-73849380D01*
X129558132Y-73918696D01*
X129537759Y-73969428D01*
X129519782Y-73995472D01*
X129519780Y-73995476D01*
X129463762Y-74143181D01*
X129444722Y-74299999D01*
X129444722Y-74300000D01*
X129463762Y-74456818D01*
X129518064Y-74599999D01*
X129519780Y-74604523D01*
X129609517Y-74734530D01*
X129727760Y-74839283D01*
X129727762Y-74839284D01*
X129867634Y-74912696D01*
X130021014Y-74950500D01*
X130021015Y-74950500D01*
X130178985Y-74950500D01*
X130332365Y-74912696D01*
X130347937Y-74904523D01*
X130472240Y-74839283D01*
X130516583Y-74799999D01*
X141444722Y-74799999D01*
X141444722Y-74800000D01*
X141463762Y-74956818D01*
X141518064Y-75099999D01*
X141519780Y-75104523D01*
X141609517Y-75234530D01*
X141727760Y-75339283D01*
X141727762Y-75339284D01*
X141867634Y-75412696D01*
X142021014Y-75450500D01*
X142021015Y-75450500D01*
X142178985Y-75450500D01*
X142332365Y-75412696D01*
X142347937Y-75404523D01*
X142472240Y-75339283D01*
X142590483Y-75234530D01*
X142680220Y-75104523D01*
X142736237Y-74956818D01*
X142755278Y-74800000D01*
X142736237Y-74643182D01*
X142680220Y-74495477D01*
X142590483Y-74365470D01*
X142472240Y-74260717D01*
X142472238Y-74260716D01*
X142472237Y-74260715D01*
X142332365Y-74187303D01*
X142178986Y-74149500D01*
X142178985Y-74149500D01*
X142021015Y-74149500D01*
X142021014Y-74149500D01*
X141867634Y-74187303D01*
X141727762Y-74260715D01*
X141609516Y-74365471D01*
X141519781Y-74495475D01*
X141519780Y-74495476D01*
X141463762Y-74643181D01*
X141444722Y-74799999D01*
X130516583Y-74799999D01*
X130590483Y-74734530D01*
X130680220Y-74604523D01*
X130736237Y-74456818D01*
X130755278Y-74300000D01*
X130742587Y-74195475D01*
X130736237Y-74143181D01*
X130704715Y-74060065D01*
X130680220Y-73995477D01*
X130677169Y-73991057D01*
X130655285Y-73924705D01*
X130672748Y-73857053D01*
X130724015Y-73809582D01*
X130792808Y-73797363D01*
X130844495Y-73815189D01*
X130867363Y-73829348D01*
X131057544Y-73903024D01*
X131258024Y-73940500D01*
X131258026Y-73940500D01*
X131461974Y-73940500D01*
X131461976Y-73940500D01*
X131662456Y-73903024D01*
X131852637Y-73829348D01*
X132026041Y-73721981D01*
X132176764Y-73584579D01*
X132299673Y-73421821D01*
X132390582Y-73239250D01*
X132446397Y-73043083D01*
X132465215Y-72840000D01*
X132465215Y-72839999D01*
X132794785Y-72839999D01*
X132794785Y-72840000D01*
X132813602Y-73043082D01*
X132869417Y-73239247D01*
X132869422Y-73239260D01*
X132960327Y-73421821D01*
X133083237Y-73584581D01*
X133233958Y-73721980D01*
X133233960Y-73721982D01*
X133296520Y-73760717D01*
X133407363Y-73829348D01*
X133597544Y-73903024D01*
X133798024Y-73940500D01*
X133798026Y-73940500D01*
X134001974Y-73940500D01*
X134001976Y-73940500D01*
X134202456Y-73903024D01*
X134392637Y-73829348D01*
X134566041Y-73721981D01*
X134716764Y-73584579D01*
X134839673Y-73421821D01*
X134930582Y-73239250D01*
X134986397Y-73043083D01*
X135005215Y-72840000D01*
X135005215Y-72839999D01*
X135334785Y-72839999D01*
X135334785Y-72840000D01*
X135353602Y-73043082D01*
X135409417Y-73239247D01*
X135409422Y-73239260D01*
X135500327Y-73421821D01*
X135623237Y-73584581D01*
X135773958Y-73721980D01*
X135773960Y-73721982D01*
X135836520Y-73760717D01*
X135947363Y-73829348D01*
X136137544Y-73903024D01*
X136338024Y-73940500D01*
X136338026Y-73940500D01*
X136541974Y-73940500D01*
X136541976Y-73940500D01*
X136742456Y-73903024D01*
X136932637Y-73829348D01*
X137106041Y-73721981D01*
X137256764Y-73584579D01*
X137379673Y-73421821D01*
X137470582Y-73239250D01*
X137526397Y-73043083D01*
X137545215Y-72840000D01*
X137545215Y-72839999D01*
X137874785Y-72839999D01*
X137874785Y-72840000D01*
X137893602Y-73043082D01*
X137949417Y-73239247D01*
X137949422Y-73239260D01*
X138040327Y-73421821D01*
X138163237Y-73584581D01*
X138313958Y-73721980D01*
X138313960Y-73721982D01*
X138376520Y-73760717D01*
X138487363Y-73829348D01*
X138677544Y-73903024D01*
X138878024Y-73940500D01*
X138878026Y-73940500D01*
X139081974Y-73940500D01*
X139081976Y-73940500D01*
X139282456Y-73903024D01*
X139472637Y-73829348D01*
X139646041Y-73721981D01*
X139796764Y-73584579D01*
X139919673Y-73421821D01*
X140010582Y-73239250D01*
X140066397Y-73043083D01*
X140085215Y-72840000D01*
X140085215Y-72839999D01*
X140414785Y-72839999D01*
X140414785Y-72840000D01*
X140433602Y-73043082D01*
X140489417Y-73239247D01*
X140489422Y-73239260D01*
X140580327Y-73421821D01*
X140703237Y-73584581D01*
X140853958Y-73721980D01*
X140853960Y-73721982D01*
X140916520Y-73760717D01*
X141027363Y-73829348D01*
X141217544Y-73903024D01*
X141418024Y-73940500D01*
X141418026Y-73940500D01*
X141621974Y-73940500D01*
X141621976Y-73940500D01*
X141822456Y-73903024D01*
X142012637Y-73829348D01*
X142186041Y-73721981D01*
X142336764Y-73584579D01*
X142459673Y-73421821D01*
X142550582Y-73239250D01*
X142606397Y-73043083D01*
X142625215Y-72840000D01*
X142625215Y-72839999D01*
X142954785Y-72839999D01*
X142954785Y-72840000D01*
X142973602Y-73043082D01*
X143029417Y-73239247D01*
X143029422Y-73239260D01*
X143120327Y-73421821D01*
X143243237Y-73584581D01*
X143393958Y-73721980D01*
X143393960Y-73721982D01*
X143456520Y-73760717D01*
X143567363Y-73829348D01*
X143757544Y-73903024D01*
X143958024Y-73940500D01*
X143958026Y-73940500D01*
X144161974Y-73940500D01*
X144161976Y-73940500D01*
X144362456Y-73903024D01*
X144552637Y-73829348D01*
X144726041Y-73721981D01*
X144876764Y-73584579D01*
X144999673Y-73421821D01*
X145090582Y-73239250D01*
X145146397Y-73043083D01*
X145165215Y-72840000D01*
X145146397Y-72636917D01*
X145090582Y-72440750D01*
X144999673Y-72258179D01*
X144876764Y-72095421D01*
X144876762Y-72095418D01*
X144726041Y-71958019D01*
X144726039Y-71958017D01*
X144552642Y-71850655D01*
X144552635Y-71850651D01*
X144457546Y-71813814D01*
X144362456Y-71776976D01*
X144161976Y-71739500D01*
X143958024Y-71739500D01*
X143757544Y-71776976D01*
X143757541Y-71776976D01*
X143757541Y-71776977D01*
X143567364Y-71850651D01*
X143567357Y-71850655D01*
X143393960Y-71958017D01*
X143393958Y-71958019D01*
X143243237Y-72095418D01*
X143120327Y-72258178D01*
X143029422Y-72440739D01*
X143029417Y-72440752D01*
X142973602Y-72636917D01*
X142954785Y-72839999D01*
X142625215Y-72839999D01*
X142606397Y-72636917D01*
X142550582Y-72440750D01*
X142459673Y-72258179D01*
X142336764Y-72095421D01*
X142336762Y-72095418D01*
X142186041Y-71958019D01*
X142186039Y-71958017D01*
X142012642Y-71850655D01*
X142012635Y-71850651D01*
X141917546Y-71813814D01*
X141822456Y-71776976D01*
X141621976Y-71739500D01*
X141418024Y-71739500D01*
X141217544Y-71776976D01*
X141217541Y-71776976D01*
X141217541Y-71776977D01*
X141027364Y-71850651D01*
X141027357Y-71850655D01*
X140853960Y-71958017D01*
X140853958Y-71958019D01*
X140703237Y-72095418D01*
X140580327Y-72258178D01*
X140489422Y-72440739D01*
X140489417Y-72440752D01*
X140433602Y-72636917D01*
X140414785Y-72839999D01*
X140085215Y-72839999D01*
X140066397Y-72636917D01*
X140010582Y-72440750D01*
X139919673Y-72258179D01*
X139796764Y-72095421D01*
X139796762Y-72095418D01*
X139646041Y-71958019D01*
X139646039Y-71958017D01*
X139472642Y-71850655D01*
X139472635Y-71850651D01*
X139377546Y-71813814D01*
X139282456Y-71776976D01*
X139081976Y-71739500D01*
X138878024Y-71739500D01*
X138677544Y-71776976D01*
X138677541Y-71776976D01*
X138677541Y-71776977D01*
X138487364Y-71850651D01*
X138487357Y-71850655D01*
X138313960Y-71958017D01*
X138313958Y-71958019D01*
X138163237Y-72095418D01*
X138040327Y-72258178D01*
X137949422Y-72440739D01*
X137949417Y-72440752D01*
X137893602Y-72636917D01*
X137874785Y-72839999D01*
X137545215Y-72839999D01*
X137526397Y-72636917D01*
X137470582Y-72440750D01*
X137379673Y-72258179D01*
X137256764Y-72095421D01*
X137256762Y-72095418D01*
X137106041Y-71958019D01*
X137106039Y-71958017D01*
X136932642Y-71850655D01*
X136932635Y-71850651D01*
X136837546Y-71813814D01*
X136742456Y-71776976D01*
X136541976Y-71739500D01*
X136338024Y-71739500D01*
X136137544Y-71776976D01*
X136137541Y-71776976D01*
X136137541Y-71776977D01*
X135947364Y-71850651D01*
X135947357Y-71850655D01*
X135773960Y-71958017D01*
X135773958Y-71958019D01*
X135623237Y-72095418D01*
X135500327Y-72258178D01*
X135409422Y-72440739D01*
X135409417Y-72440752D01*
X135353602Y-72636917D01*
X135334785Y-72839999D01*
X135005215Y-72839999D01*
X134986397Y-72636917D01*
X134930582Y-72440750D01*
X134839673Y-72258179D01*
X134716764Y-72095421D01*
X134716762Y-72095418D01*
X134566041Y-71958019D01*
X134566039Y-71958017D01*
X134392642Y-71850655D01*
X134392635Y-71850651D01*
X134297546Y-71813814D01*
X134202456Y-71776976D01*
X134001976Y-71739500D01*
X133798024Y-71739500D01*
X133597544Y-71776976D01*
X133597541Y-71776976D01*
X133597541Y-71776977D01*
X133407364Y-71850651D01*
X133407357Y-71850655D01*
X133233960Y-71958017D01*
X133233958Y-71958019D01*
X133083237Y-72095418D01*
X132960327Y-72258178D01*
X132869422Y-72440739D01*
X132869417Y-72440752D01*
X132813602Y-72636917D01*
X132794785Y-72839999D01*
X132465215Y-72839999D01*
X132446397Y-72636917D01*
X132390582Y-72440750D01*
X132299673Y-72258179D01*
X132176764Y-72095421D01*
X132176762Y-72095418D01*
X132026041Y-71958019D01*
X132026039Y-71958017D01*
X131852642Y-71850655D01*
X131852635Y-71850651D01*
X131757546Y-71813814D01*
X131662456Y-71776976D01*
X131461976Y-71739500D01*
X131258024Y-71739500D01*
X131057544Y-71776976D01*
X131057541Y-71776976D01*
X131057541Y-71776977D01*
X130867364Y-71850651D01*
X130867357Y-71850655D01*
X130693960Y-71958017D01*
X130693958Y-71958019D01*
X130543237Y-72095418D01*
X130420327Y-72258178D01*
X130329422Y-72440739D01*
X130329417Y-72440752D01*
X130273602Y-72636917D01*
X130254785Y-72839999D01*
X130254785Y-72840000D01*
X130273602Y-73043082D01*
X130329417Y-73239247D01*
X130329422Y-73239260D01*
X130420327Y-73421821D01*
X130477439Y-73497449D01*
X130502131Y-73562810D01*
X130487566Y-73631145D01*
X130438369Y-73680757D01*
X130370159Y-73695896D01*
X130334522Y-73688121D01*
X130332369Y-73687304D01*
X130178986Y-73649500D01*
X130178985Y-73649500D01*
X130021015Y-73649500D01*
X130021014Y-73649500D01*
X129867637Y-73687303D01*
X129846893Y-73698190D01*
X129778384Y-73711913D01*
X129713331Y-73686420D01*
X129672388Y-73629803D01*
X129668554Y-73560039D01*
X129690313Y-73513667D01*
X129759673Y-73421821D01*
X129850582Y-73239250D01*
X129906397Y-73043083D01*
X129925215Y-72840000D01*
X129906397Y-72636917D01*
X129850582Y-72440750D01*
X129759673Y-72258179D01*
X129636764Y-72095421D01*
X129636762Y-72095418D01*
X129486041Y-71958019D01*
X129486039Y-71958017D01*
X129312642Y-71850655D01*
X129312635Y-71850651D01*
X129217546Y-71813814D01*
X129122456Y-71776976D01*
X128921976Y-71739500D01*
X128718024Y-71739500D01*
X128517544Y-71776976D01*
X128517541Y-71776976D01*
X128517541Y-71776977D01*
X128327364Y-71850651D01*
X128327357Y-71850655D01*
X128153960Y-71958017D01*
X128153958Y-71958019D01*
X128003237Y-72095418D01*
X127880327Y-72258178D01*
X127789422Y-72440739D01*
X127789417Y-72440752D01*
X127733602Y-72636917D01*
X127714785Y-72839999D01*
X127385215Y-72839999D01*
X127366397Y-72636917D01*
X127310582Y-72440750D01*
X127219673Y-72258179D01*
X127096764Y-72095421D01*
X127096762Y-72095418D01*
X126946041Y-71958019D01*
X126946039Y-71958017D01*
X126772642Y-71850655D01*
X126772635Y-71850651D01*
X126677546Y-71813814D01*
X126582456Y-71776976D01*
X126381976Y-71739500D01*
X126178024Y-71739500D01*
X125977544Y-71776976D01*
X125977541Y-71776976D01*
X125977541Y-71776977D01*
X125787364Y-71850651D01*
X125787357Y-71850655D01*
X125613960Y-71958017D01*
X125613958Y-71958019D01*
X125463237Y-72095418D01*
X125340327Y-72258178D01*
X125249422Y-72440739D01*
X125249417Y-72440752D01*
X125193602Y-72636917D01*
X125174785Y-72839999D01*
X124845215Y-72839999D01*
X124826397Y-72636917D01*
X124770582Y-72440750D01*
X124679673Y-72258179D01*
X124556764Y-72095421D01*
X124556762Y-72095418D01*
X124406041Y-71958019D01*
X124406039Y-71958017D01*
X124232642Y-71850655D01*
X124232635Y-71850651D01*
X124137546Y-71813814D01*
X124042456Y-71776976D01*
X123841976Y-71739500D01*
X123638024Y-71739500D01*
X123437544Y-71776976D01*
X123437541Y-71776976D01*
X123437541Y-71776977D01*
X123247364Y-71850651D01*
X123247357Y-71850655D01*
X123073960Y-71958017D01*
X123073958Y-71958019D01*
X122923237Y-72095418D01*
X122800327Y-72258178D01*
X122709422Y-72440739D01*
X122709417Y-72440752D01*
X122653602Y-72636917D01*
X122634785Y-72839999D01*
X122305215Y-72839999D01*
X122286397Y-72636917D01*
X122230582Y-72440750D01*
X122139673Y-72258179D01*
X122016764Y-72095421D01*
X122016762Y-72095418D01*
X121866041Y-71958019D01*
X121866039Y-71958017D01*
X121692642Y-71850655D01*
X121692635Y-71850651D01*
X121597546Y-71813814D01*
X121502456Y-71776976D01*
X121301976Y-71739500D01*
X121098024Y-71739500D01*
X120897544Y-71776976D01*
X120897541Y-71776976D01*
X120897541Y-71776977D01*
X120707364Y-71850651D01*
X120707357Y-71850655D01*
X120533960Y-71958017D01*
X120533958Y-71958019D01*
X120383237Y-72095418D01*
X120260327Y-72258178D01*
X120169422Y-72440739D01*
X120169417Y-72440752D01*
X120113602Y-72636917D01*
X120094785Y-72839999D01*
X119765215Y-72839999D01*
X119746397Y-72636917D01*
X119690582Y-72440750D01*
X119599673Y-72258179D01*
X119476764Y-72095421D01*
X119476762Y-72095418D01*
X119326041Y-71958019D01*
X119326039Y-71958017D01*
X119152642Y-71850655D01*
X119152635Y-71850651D01*
X119057546Y-71813814D01*
X118962456Y-71776976D01*
X118761976Y-71739500D01*
X118558024Y-71739500D01*
X118357544Y-71776976D01*
X118357541Y-71776976D01*
X118357541Y-71776977D01*
X118167364Y-71850651D01*
X118167357Y-71850655D01*
X117993960Y-71958017D01*
X117993958Y-71958019D01*
X117843237Y-72095418D01*
X117720327Y-72258178D01*
X117629422Y-72440739D01*
X117629417Y-72440752D01*
X117573602Y-72636917D01*
X117554785Y-72839999D01*
X114685215Y-72839999D01*
X114666397Y-72636917D01*
X114610582Y-72440750D01*
X114519673Y-72258179D01*
X114396764Y-72095421D01*
X114396762Y-72095418D01*
X114246041Y-71958019D01*
X114246039Y-71958017D01*
X114072642Y-71850655D01*
X114072635Y-71850651D01*
X113977546Y-71813814D01*
X113882456Y-71776976D01*
X113681976Y-71739500D01*
X113478024Y-71739500D01*
X113277544Y-71776976D01*
X113277541Y-71776976D01*
X113277541Y-71776977D01*
X113087364Y-71850651D01*
X113087357Y-71850655D01*
X112913960Y-71958017D01*
X112913958Y-71958019D01*
X112763237Y-72095418D01*
X112640327Y-72258178D01*
X112549422Y-72440739D01*
X112549417Y-72440752D01*
X112493602Y-72636917D01*
X112474785Y-72839999D01*
X112474785Y-72840000D01*
X112493602Y-73043082D01*
X112549417Y-73239247D01*
X112549422Y-73239260D01*
X112640327Y-73421821D01*
X112747932Y-73564313D01*
X112772624Y-73629674D01*
X112758059Y-73698009D01*
X112708862Y-73747622D01*
X112640652Y-73762760D01*
X112619304Y-73759437D01*
X112578986Y-73749500D01*
X112578985Y-73749500D01*
X112421015Y-73749500D01*
X112421014Y-73749500D01*
X112267634Y-73787303D01*
X112127762Y-73860715D01*
X112009516Y-73965471D01*
X111919781Y-74095475D01*
X111919780Y-74095476D01*
X111863762Y-74243181D01*
X111844722Y-74399999D01*
X105819860Y-74399999D01*
X105798312Y-74343182D01*
X105780220Y-74295477D01*
X105690483Y-74165470D01*
X105659072Y-74137642D01*
X105621947Y-74078455D01*
X105622714Y-74008589D01*
X105661131Y-73950229D01*
X105725001Y-73921904D01*
X105764079Y-73922938D01*
X105858024Y-73940500D01*
X105858026Y-73940500D01*
X106061974Y-73940500D01*
X106061976Y-73940500D01*
X106262456Y-73903024D01*
X106452637Y-73829348D01*
X106626041Y-73721981D01*
X106776764Y-73584579D01*
X106899673Y-73421821D01*
X106990582Y-73239250D01*
X107046397Y-73043083D01*
X107065215Y-72840000D01*
X107065215Y-72839999D01*
X107394785Y-72839999D01*
X107394785Y-72840000D01*
X107413602Y-73043082D01*
X107469417Y-73239247D01*
X107469422Y-73239260D01*
X107560327Y-73421821D01*
X107683237Y-73584581D01*
X107833958Y-73721980D01*
X107833960Y-73721982D01*
X107896520Y-73760717D01*
X108007363Y-73829348D01*
X108197544Y-73903024D01*
X108398024Y-73940500D01*
X108398026Y-73940500D01*
X108601974Y-73940500D01*
X108601976Y-73940500D01*
X108802456Y-73903024D01*
X108992637Y-73829348D01*
X109166041Y-73721981D01*
X109316764Y-73584579D01*
X109439673Y-73421821D01*
X109530582Y-73239250D01*
X109586397Y-73043083D01*
X109605215Y-72840000D01*
X109605215Y-72839999D01*
X109934785Y-72839999D01*
X109934785Y-72840000D01*
X109953602Y-73043082D01*
X110009417Y-73239247D01*
X110009422Y-73239260D01*
X110100327Y-73421821D01*
X110223237Y-73584581D01*
X110373958Y-73721980D01*
X110373960Y-73721982D01*
X110436520Y-73760717D01*
X110547363Y-73829348D01*
X110737544Y-73903024D01*
X110938024Y-73940500D01*
X110938026Y-73940500D01*
X111141974Y-73940500D01*
X111141976Y-73940500D01*
X111342456Y-73903024D01*
X111532637Y-73829348D01*
X111706041Y-73721981D01*
X111856764Y-73584579D01*
X111979673Y-73421821D01*
X112070582Y-73239250D01*
X112126397Y-73043083D01*
X112145215Y-72840000D01*
X112126397Y-72636917D01*
X112070582Y-72440750D01*
X111979673Y-72258179D01*
X111856764Y-72095421D01*
X111856762Y-72095418D01*
X111706041Y-71958019D01*
X111706039Y-71958017D01*
X111532642Y-71850655D01*
X111532635Y-71850651D01*
X111437546Y-71813814D01*
X111342456Y-71776976D01*
X111141976Y-71739500D01*
X110938024Y-71739500D01*
X110737544Y-71776976D01*
X110737541Y-71776976D01*
X110737541Y-71776977D01*
X110547364Y-71850651D01*
X110547357Y-71850655D01*
X110373960Y-71958017D01*
X110373958Y-71958019D01*
X110223237Y-72095418D01*
X110100327Y-72258178D01*
X110009422Y-72440739D01*
X110009417Y-72440752D01*
X109953602Y-72636917D01*
X109934785Y-72839999D01*
X109605215Y-72839999D01*
X109586397Y-72636917D01*
X109530582Y-72440750D01*
X109439673Y-72258179D01*
X109316764Y-72095421D01*
X109316762Y-72095418D01*
X109166041Y-71958019D01*
X109166039Y-71958017D01*
X108992642Y-71850655D01*
X108992635Y-71850651D01*
X108897546Y-71813814D01*
X108802456Y-71776976D01*
X108601976Y-71739500D01*
X108398024Y-71739500D01*
X108197544Y-71776976D01*
X108197541Y-71776976D01*
X108197541Y-71776977D01*
X108007364Y-71850651D01*
X108007357Y-71850655D01*
X107833960Y-71958017D01*
X107833958Y-71958019D01*
X107683237Y-72095418D01*
X107560327Y-72258178D01*
X107469422Y-72440739D01*
X107469417Y-72440752D01*
X107413602Y-72636917D01*
X107394785Y-72839999D01*
X107065215Y-72839999D01*
X107046397Y-72636917D01*
X106990582Y-72440750D01*
X106899673Y-72258179D01*
X106776764Y-72095421D01*
X106776762Y-72095418D01*
X106626041Y-71958019D01*
X106626039Y-71958017D01*
X106452642Y-71850655D01*
X106452635Y-71850651D01*
X106357546Y-71813814D01*
X106262456Y-71776976D01*
X106061976Y-71739500D01*
X105858024Y-71739500D01*
X105657544Y-71776976D01*
X105657541Y-71776976D01*
X105657541Y-71776977D01*
X105467364Y-71850651D01*
X105467357Y-71850655D01*
X105293960Y-71958017D01*
X105293958Y-71958019D01*
X105143237Y-72095418D01*
X105020327Y-72258178D01*
X104929422Y-72440739D01*
X104929417Y-72440752D01*
X104873602Y-72636917D01*
X104854785Y-72839999D01*
X104854785Y-72840000D01*
X104873602Y-73043082D01*
X104929417Y-73239247D01*
X104929422Y-73239260D01*
X105020327Y-73421821D01*
X105143237Y-73584581D01*
X105293958Y-73721980D01*
X105298535Y-73725437D01*
X105297231Y-73727163D01*
X105337509Y-73772093D01*
X105348618Y-73841074D01*
X105320670Y-73905110D01*
X105262537Y-73943871D01*
X105225600Y-73949500D01*
X105121014Y-73949500D01*
X104967634Y-73987303D01*
X104827762Y-74060715D01*
X104709516Y-74165471D01*
X104619781Y-74295475D01*
X104619780Y-74295476D01*
X104563762Y-74443181D01*
X104544722Y-74599999D01*
X103043136Y-74599999D01*
X103055278Y-74500000D01*
X103053737Y-74487304D01*
X103036237Y-74343181D01*
X102998312Y-74243182D01*
X102980220Y-74195477D01*
X102890483Y-74065470D01*
X102890482Y-74065469D01*
X102886222Y-74059297D01*
X102887610Y-74058338D01*
X102861780Y-74003392D01*
X102870959Y-73934128D01*
X102916128Y-73880822D01*
X102982946Y-73860399D01*
X103029107Y-73868763D01*
X103117544Y-73903024D01*
X103318024Y-73940500D01*
X103318026Y-73940500D01*
X103521974Y-73940500D01*
X103521976Y-73940500D01*
X103722456Y-73903024D01*
X103912637Y-73829348D01*
X104086041Y-73721981D01*
X104236764Y-73584579D01*
X104359673Y-73421821D01*
X104450582Y-73239250D01*
X104506397Y-73043083D01*
X104525215Y-72840000D01*
X104506397Y-72636917D01*
X104450582Y-72440750D01*
X104359673Y-72258179D01*
X104236764Y-72095421D01*
X104236762Y-72095418D01*
X104086041Y-71958019D01*
X104086039Y-71958017D01*
X103912642Y-71850655D01*
X103912635Y-71850651D01*
X103817546Y-71813814D01*
X103722456Y-71776976D01*
X103521976Y-71739500D01*
X103318024Y-71739500D01*
X103117544Y-71776976D01*
X103117541Y-71776976D01*
X103117541Y-71776977D01*
X102927364Y-71850651D01*
X102927357Y-71850655D01*
X102753960Y-71958017D01*
X102753958Y-71958019D01*
X102603237Y-72095418D01*
X102480327Y-72258178D01*
X102389422Y-72440739D01*
X102389417Y-72440752D01*
X102333602Y-72636917D01*
X102314785Y-72839999D01*
X102314785Y-72840000D01*
X102333602Y-73043082D01*
X102389417Y-73239247D01*
X102389422Y-73239260D01*
X102480327Y-73421821D01*
X102603236Y-73584579D01*
X102686838Y-73660792D01*
X102723118Y-73720501D01*
X102721358Y-73790349D01*
X102682115Y-73848157D01*
X102617848Y-73875571D01*
X102573626Y-73872825D01*
X102478988Y-73849500D01*
X102478985Y-73849500D01*
X102321015Y-73849500D01*
X102321014Y-73849500D01*
X102167634Y-73887303D01*
X102027762Y-73960715D01*
X101990518Y-73993710D01*
X101917568Y-74058338D01*
X101909516Y-74065471D01*
X101819781Y-74195475D01*
X101819780Y-74195476D01*
X101763762Y-74343181D01*
X101744722Y-74499999D01*
X94000000Y-74499999D01*
X94000000Y-72839999D01*
X97234785Y-72839999D01*
X97234785Y-72840000D01*
X97253602Y-73043082D01*
X97309417Y-73239247D01*
X97309422Y-73239260D01*
X97400327Y-73421821D01*
X97523237Y-73584581D01*
X97673958Y-73721980D01*
X97673960Y-73721982D01*
X97736520Y-73760717D01*
X97847363Y-73829348D01*
X98037544Y-73903024D01*
X98238024Y-73940500D01*
X98238026Y-73940500D01*
X98441974Y-73940500D01*
X98441976Y-73940500D01*
X98642456Y-73903024D01*
X98832637Y-73829348D01*
X99006041Y-73721981D01*
X99156764Y-73584579D01*
X99279673Y-73421821D01*
X99370582Y-73239250D01*
X99426397Y-73043083D01*
X99445215Y-72840000D01*
X99445215Y-72839999D01*
X99774785Y-72839999D01*
X99774785Y-72840000D01*
X99793602Y-73043082D01*
X99849417Y-73239247D01*
X99849422Y-73239260D01*
X99940327Y-73421821D01*
X100063237Y-73584581D01*
X100213958Y-73721980D01*
X100213960Y-73721982D01*
X100276520Y-73760717D01*
X100387363Y-73829348D01*
X100577544Y-73903024D01*
X100778024Y-73940500D01*
X100778026Y-73940500D01*
X100981974Y-73940500D01*
X100981976Y-73940500D01*
X101182456Y-73903024D01*
X101372637Y-73829348D01*
X101546041Y-73721981D01*
X101696764Y-73584579D01*
X101819673Y-73421821D01*
X101910582Y-73239250D01*
X101966397Y-73043083D01*
X101985215Y-72840000D01*
X101966397Y-72636917D01*
X101910582Y-72440750D01*
X101819673Y-72258179D01*
X101696764Y-72095421D01*
X101696762Y-72095418D01*
X101546041Y-71958019D01*
X101546039Y-71958017D01*
X101372642Y-71850655D01*
X101372635Y-71850651D01*
X101277546Y-71813814D01*
X101182456Y-71776976D01*
X100981976Y-71739500D01*
X100778024Y-71739500D01*
X100577544Y-71776976D01*
X100577541Y-71776976D01*
X100577541Y-71776977D01*
X100387364Y-71850651D01*
X100387357Y-71850655D01*
X100213960Y-71958017D01*
X100213958Y-71958019D01*
X100063237Y-72095418D01*
X99940327Y-72258178D01*
X99849422Y-72440739D01*
X99849417Y-72440752D01*
X99793602Y-72636917D01*
X99774785Y-72839999D01*
X99445215Y-72839999D01*
X99426397Y-72636917D01*
X99370582Y-72440750D01*
X99279673Y-72258179D01*
X99156764Y-72095421D01*
X99156762Y-72095418D01*
X99006041Y-71958019D01*
X99006039Y-71958017D01*
X98832642Y-71850655D01*
X98832635Y-71850651D01*
X98737546Y-71813814D01*
X98642456Y-71776976D01*
X98441976Y-71739500D01*
X98238024Y-71739500D01*
X98037544Y-71776976D01*
X98037541Y-71776976D01*
X98037541Y-71776977D01*
X97847364Y-71850651D01*
X97847357Y-71850655D01*
X97673960Y-71958017D01*
X97673958Y-71958019D01*
X97523237Y-72095418D01*
X97400327Y-72258178D01*
X97309422Y-72440739D01*
X97309417Y-72440752D01*
X97253602Y-72636917D01*
X97234785Y-72839999D01*
X94000000Y-72839999D01*
X94000000Y-70299999D01*
X94694785Y-70299999D01*
X94694785Y-70300000D01*
X94713602Y-70503082D01*
X94769417Y-70699247D01*
X94769422Y-70699260D01*
X94860327Y-70881821D01*
X94983237Y-71044581D01*
X95133958Y-71181980D01*
X95133960Y-71181982D01*
X95144497Y-71188506D01*
X95307363Y-71289348D01*
X95497544Y-71363024D01*
X95698024Y-71400500D01*
X95698026Y-71400500D01*
X95901974Y-71400500D01*
X95901976Y-71400500D01*
X96102456Y-71363024D01*
X96292637Y-71289348D01*
X96466041Y-71181981D01*
X96616764Y-71044579D01*
X96739673Y-70881821D01*
X96830582Y-70699250D01*
X96886397Y-70503083D01*
X96905215Y-70300000D01*
X96905215Y-70299999D01*
X97234785Y-70299999D01*
X97234785Y-70300000D01*
X97253602Y-70503082D01*
X97309417Y-70699247D01*
X97309422Y-70699260D01*
X97400327Y-70881821D01*
X97523237Y-71044581D01*
X97673958Y-71181980D01*
X97673960Y-71181982D01*
X97684497Y-71188506D01*
X97847363Y-71289348D01*
X98037544Y-71363024D01*
X98238024Y-71400500D01*
X98238026Y-71400500D01*
X98441974Y-71400500D01*
X98441976Y-71400500D01*
X98642456Y-71363024D01*
X98832637Y-71289348D01*
X99006041Y-71181981D01*
X99156764Y-71044579D01*
X99279673Y-70881821D01*
X99370582Y-70699250D01*
X99426397Y-70503083D01*
X99445215Y-70300000D01*
X99445215Y-70299999D01*
X99774785Y-70299999D01*
X99774785Y-70300000D01*
X99793602Y-70503082D01*
X99849417Y-70699247D01*
X99849422Y-70699260D01*
X99940327Y-70881821D01*
X100063237Y-71044581D01*
X100213958Y-71181980D01*
X100213960Y-71181982D01*
X100224497Y-71188506D01*
X100387363Y-71289348D01*
X100577544Y-71363024D01*
X100778024Y-71400500D01*
X100778026Y-71400500D01*
X100981974Y-71400500D01*
X100981976Y-71400500D01*
X101182456Y-71363024D01*
X101372637Y-71289348D01*
X101546041Y-71181981D01*
X101696764Y-71044579D01*
X101819673Y-70881821D01*
X101910582Y-70699250D01*
X101966397Y-70503083D01*
X101985215Y-70300000D01*
X101985215Y-70299999D01*
X102314785Y-70299999D01*
X102314785Y-70300000D01*
X102333602Y-70503082D01*
X102389417Y-70699247D01*
X102389422Y-70699260D01*
X102480327Y-70881821D01*
X102603237Y-71044581D01*
X102753958Y-71181980D01*
X102753960Y-71181982D01*
X102764497Y-71188506D01*
X102927363Y-71289348D01*
X103117544Y-71363024D01*
X103318024Y-71400500D01*
X103318026Y-71400500D01*
X103521974Y-71400500D01*
X103521976Y-71400500D01*
X103722456Y-71363024D01*
X103912637Y-71289348D01*
X104086041Y-71181981D01*
X104236764Y-71044579D01*
X104359673Y-70881821D01*
X104450582Y-70699250D01*
X104506397Y-70503083D01*
X104525215Y-70300000D01*
X104525215Y-70299999D01*
X104854785Y-70299999D01*
X104854785Y-70300000D01*
X104873602Y-70503082D01*
X104929417Y-70699247D01*
X104929422Y-70699260D01*
X105020327Y-70881821D01*
X105143237Y-71044581D01*
X105293958Y-71181980D01*
X105293960Y-71181982D01*
X105304497Y-71188506D01*
X105467363Y-71289348D01*
X105657544Y-71363024D01*
X105858024Y-71400500D01*
X105858026Y-71400500D01*
X106061974Y-71400500D01*
X106061976Y-71400500D01*
X106262456Y-71363024D01*
X106452637Y-71289348D01*
X106626041Y-71181981D01*
X106776764Y-71044579D01*
X106899673Y-70881821D01*
X106990582Y-70699250D01*
X107046397Y-70503083D01*
X107065215Y-70300000D01*
X107065215Y-70299999D01*
X107394785Y-70299999D01*
X107394785Y-70300000D01*
X107413602Y-70503082D01*
X107469417Y-70699247D01*
X107469422Y-70699260D01*
X107560327Y-70881821D01*
X107683237Y-71044581D01*
X107833958Y-71181980D01*
X107833960Y-71181982D01*
X107844497Y-71188506D01*
X108007363Y-71289348D01*
X108197544Y-71363024D01*
X108398024Y-71400500D01*
X108398026Y-71400500D01*
X108601974Y-71400500D01*
X108601976Y-71400500D01*
X108802456Y-71363024D01*
X108992637Y-71289348D01*
X109166041Y-71181981D01*
X109316764Y-71044579D01*
X109439673Y-70881821D01*
X109530582Y-70699250D01*
X109586397Y-70503083D01*
X109605215Y-70300000D01*
X109605215Y-70299999D01*
X109934785Y-70299999D01*
X109934785Y-70300000D01*
X109953602Y-70503082D01*
X110009417Y-70699247D01*
X110009422Y-70699260D01*
X110100327Y-70881821D01*
X110223237Y-71044581D01*
X110373958Y-71181980D01*
X110373960Y-71181982D01*
X110384497Y-71188506D01*
X110547363Y-71289348D01*
X110737544Y-71363024D01*
X110938024Y-71400500D01*
X110938026Y-71400500D01*
X111141974Y-71400500D01*
X111141976Y-71400500D01*
X111342456Y-71363024D01*
X111532637Y-71289348D01*
X111706041Y-71181981D01*
X111856764Y-71044579D01*
X111979673Y-70881821D01*
X112070582Y-70699250D01*
X112126397Y-70503083D01*
X112145215Y-70300000D01*
X112145215Y-70299999D01*
X112474785Y-70299999D01*
X112474785Y-70300000D01*
X112493602Y-70503082D01*
X112549417Y-70699247D01*
X112549422Y-70699260D01*
X112640327Y-70881821D01*
X112763237Y-71044581D01*
X112913958Y-71181980D01*
X112913960Y-71181982D01*
X112924497Y-71188506D01*
X113087363Y-71289348D01*
X113277544Y-71363024D01*
X113478024Y-71400500D01*
X113478026Y-71400500D01*
X113681974Y-71400500D01*
X113681976Y-71400500D01*
X113882456Y-71363024D01*
X114072637Y-71289348D01*
X114246041Y-71181981D01*
X114396764Y-71044579D01*
X114519673Y-70881821D01*
X114610582Y-70699250D01*
X114666397Y-70503083D01*
X114685215Y-70300000D01*
X114685215Y-70299999D01*
X115014785Y-70299999D01*
X115014785Y-70300000D01*
X115033602Y-70503082D01*
X115089417Y-70699247D01*
X115089422Y-70699260D01*
X115180327Y-70881821D01*
X115303237Y-71044581D01*
X115453958Y-71181980D01*
X115453960Y-71181982D01*
X115464497Y-71188506D01*
X115627363Y-71289348D01*
X115817544Y-71363024D01*
X116018024Y-71400500D01*
X116018026Y-71400500D01*
X116221974Y-71400500D01*
X116221976Y-71400500D01*
X116422456Y-71363024D01*
X116612637Y-71289348D01*
X116675258Y-71250575D01*
X116742618Y-71232020D01*
X116809318Y-71252828D01*
X116842585Y-71285562D01*
X116909517Y-71382530D01*
X117027760Y-71487283D01*
X117027762Y-71487284D01*
X117167634Y-71560696D01*
X117321014Y-71598500D01*
X117321015Y-71598500D01*
X117478985Y-71598500D01*
X117632365Y-71560696D01*
X117772240Y-71487283D01*
X117890483Y-71382530D01*
X117951428Y-71294235D01*
X118005708Y-71250247D01*
X118075156Y-71242587D01*
X118118751Y-71259249D01*
X118167363Y-71289348D01*
X118357544Y-71363024D01*
X118558024Y-71400500D01*
X118558026Y-71400500D01*
X118761974Y-71400500D01*
X118761976Y-71400500D01*
X118962456Y-71363024D01*
X119152637Y-71289348D01*
X119326041Y-71181981D01*
X119476764Y-71044579D01*
X119599673Y-70881821D01*
X119690582Y-70699250D01*
X119746397Y-70503083D01*
X119765215Y-70300000D01*
X119765215Y-70299999D01*
X120094785Y-70299999D01*
X120094785Y-70300000D01*
X120113602Y-70503082D01*
X120169417Y-70699247D01*
X120169422Y-70699260D01*
X120260327Y-70881821D01*
X120383237Y-71044581D01*
X120533958Y-71181980D01*
X120533960Y-71181982D01*
X120544497Y-71188506D01*
X120707363Y-71289348D01*
X120897544Y-71363024D01*
X121098024Y-71400500D01*
X121098026Y-71400500D01*
X121301974Y-71400500D01*
X121301976Y-71400500D01*
X121502456Y-71363024D01*
X121692637Y-71289348D01*
X121866041Y-71181981D01*
X122016764Y-71044579D01*
X122139673Y-70881821D01*
X122230582Y-70699250D01*
X122286397Y-70503083D01*
X122305215Y-70300000D01*
X122305215Y-70299999D01*
X122634785Y-70299999D01*
X122634785Y-70300000D01*
X122653602Y-70503082D01*
X122709417Y-70699247D01*
X122709422Y-70699260D01*
X122800327Y-70881821D01*
X122923237Y-71044581D01*
X123073958Y-71181980D01*
X123073960Y-71181982D01*
X123084497Y-71188506D01*
X123247363Y-71289348D01*
X123437544Y-71363024D01*
X123638024Y-71400500D01*
X123638026Y-71400500D01*
X123841974Y-71400500D01*
X123841976Y-71400500D01*
X124042456Y-71363024D01*
X124232637Y-71289348D01*
X124406041Y-71181981D01*
X124556764Y-71044579D01*
X124679673Y-70881821D01*
X124770582Y-70699250D01*
X124826397Y-70503083D01*
X124845215Y-70300000D01*
X124845215Y-70299999D01*
X125174785Y-70299999D01*
X125174785Y-70300000D01*
X125193602Y-70503082D01*
X125249417Y-70699247D01*
X125249422Y-70699260D01*
X125340327Y-70881821D01*
X125463237Y-71044581D01*
X125613958Y-71181980D01*
X125613960Y-71181982D01*
X125624497Y-71188506D01*
X125787363Y-71289348D01*
X125977544Y-71363024D01*
X126178024Y-71400500D01*
X126178026Y-71400500D01*
X126381974Y-71400500D01*
X126381976Y-71400500D01*
X126582456Y-71363024D01*
X126772637Y-71289348D01*
X126946041Y-71181981D01*
X127096764Y-71044579D01*
X127219673Y-70881821D01*
X127310582Y-70699250D01*
X127366397Y-70503083D01*
X127385215Y-70300000D01*
X127385215Y-70299999D01*
X127714785Y-70299999D01*
X127714785Y-70300000D01*
X127733602Y-70503082D01*
X127789417Y-70699247D01*
X127789422Y-70699260D01*
X127880327Y-70881821D01*
X128003237Y-71044581D01*
X128153958Y-71181980D01*
X128153960Y-71181982D01*
X128164497Y-71188506D01*
X128327363Y-71289348D01*
X128517544Y-71363024D01*
X128718024Y-71400500D01*
X128718026Y-71400500D01*
X128921974Y-71400500D01*
X128921976Y-71400500D01*
X129122456Y-71363024D01*
X129312637Y-71289348D01*
X129486041Y-71181981D01*
X129636764Y-71044579D01*
X129759673Y-70881821D01*
X129850582Y-70699250D01*
X129906397Y-70503083D01*
X129925215Y-70300000D01*
X129925215Y-70299999D01*
X130254785Y-70299999D01*
X130254785Y-70300000D01*
X130273602Y-70503082D01*
X130329417Y-70699247D01*
X130329422Y-70699260D01*
X130420327Y-70881821D01*
X130543237Y-71044581D01*
X130693958Y-71181980D01*
X130693960Y-71181982D01*
X130704497Y-71188506D01*
X130867363Y-71289348D01*
X131057544Y-71363024D01*
X131258024Y-71400500D01*
X131258026Y-71400500D01*
X131461974Y-71400500D01*
X131461976Y-71400500D01*
X131662456Y-71363024D01*
X131852637Y-71289348D01*
X132026041Y-71181981D01*
X132176764Y-71044579D01*
X132299673Y-70881821D01*
X132390582Y-70699250D01*
X132446397Y-70503083D01*
X132465215Y-70300000D01*
X132446397Y-70096917D01*
X132392715Y-69908246D01*
X132393301Y-69838381D01*
X132431568Y-69779922D01*
X132495365Y-69751431D01*
X132513515Y-69751312D01*
X132513515Y-69750500D01*
X132678985Y-69750500D01*
X132722482Y-69739779D01*
X132792284Y-69742848D01*
X132849346Y-69783168D01*
X132875552Y-69847937D01*
X132869183Y-69894723D01*
X132870987Y-69895237D01*
X132869418Y-69900748D01*
X132869418Y-69900750D01*
X132867285Y-69908248D01*
X132813602Y-70096917D01*
X132794785Y-70299999D01*
X132794785Y-70300000D01*
X132813602Y-70503082D01*
X132869417Y-70699247D01*
X132869422Y-70699260D01*
X132960327Y-70881821D01*
X133083237Y-71044581D01*
X133233958Y-71181980D01*
X133233960Y-71181982D01*
X133244497Y-71188506D01*
X133407363Y-71289348D01*
X133597544Y-71363024D01*
X133798024Y-71400500D01*
X133798026Y-71400500D01*
X134001974Y-71400500D01*
X134001976Y-71400500D01*
X134202456Y-71363024D01*
X134392637Y-71289348D01*
X134566041Y-71181981D01*
X134716764Y-71044579D01*
X134839673Y-70881821D01*
X134930582Y-70699250D01*
X134986397Y-70503083D01*
X135005215Y-70300000D01*
X134986397Y-70096917D01*
X134930582Y-69900750D01*
X134930574Y-69900734D01*
X134855767Y-69750500D01*
X134839673Y-69718179D01*
X134733356Y-69577392D01*
X134716762Y-69555418D01*
X134566041Y-69418019D01*
X134566039Y-69418017D01*
X134392642Y-69310655D01*
X134392635Y-69310651D01*
X134253674Y-69256818D01*
X134202456Y-69236976D01*
X134001976Y-69199500D01*
X133798024Y-69199500D01*
X133646739Y-69227779D01*
X133597538Y-69236977D01*
X133413743Y-69308179D01*
X133344120Y-69314041D01*
X133282380Y-69281330D01*
X133248125Y-69220434D01*
X133245854Y-69177611D01*
X133255278Y-69100000D01*
X133243136Y-68999999D01*
X134844722Y-68999999D01*
X134844722Y-69000000D01*
X134863762Y-69156818D01*
X134901688Y-69256818D01*
X134919780Y-69304523D01*
X135009517Y-69434530D01*
X135127760Y-69539283D01*
X135127762Y-69539284D01*
X135267634Y-69612696D01*
X135267633Y-69612696D01*
X135371326Y-69638253D01*
X135431707Y-69673409D01*
X135463496Y-69735628D01*
X135456600Y-69805156D01*
X135452653Y-69813921D01*
X135409421Y-69900743D01*
X135409417Y-69900752D01*
X135353602Y-70096917D01*
X135334785Y-70299999D01*
X135334785Y-70300000D01*
X135353602Y-70503082D01*
X135409417Y-70699247D01*
X135409422Y-70699260D01*
X135500327Y-70881821D01*
X135623237Y-71044581D01*
X135773958Y-71181980D01*
X135773960Y-71181982D01*
X135784497Y-71188506D01*
X135947363Y-71289348D01*
X136137544Y-71363024D01*
X136338024Y-71400500D01*
X136338026Y-71400500D01*
X136541974Y-71400500D01*
X136541976Y-71400500D01*
X136742456Y-71363024D01*
X136932637Y-71289348D01*
X137106041Y-71181981D01*
X137256764Y-71044579D01*
X137379673Y-70881821D01*
X137470582Y-70699250D01*
X137526397Y-70503083D01*
X137545215Y-70300000D01*
X137545215Y-70299999D01*
X137874785Y-70299999D01*
X137874785Y-70300000D01*
X137893602Y-70503082D01*
X137949417Y-70699247D01*
X137949422Y-70699260D01*
X138040327Y-70881821D01*
X138163237Y-71044581D01*
X138313958Y-71181980D01*
X138313960Y-71181982D01*
X138324497Y-71188506D01*
X138487363Y-71289348D01*
X138677544Y-71363024D01*
X138878024Y-71400500D01*
X138878026Y-71400500D01*
X139081974Y-71400500D01*
X139081976Y-71400500D01*
X139282456Y-71363024D01*
X139472637Y-71289348D01*
X139646041Y-71181981D01*
X139796764Y-71044579D01*
X139919673Y-70881821D01*
X140010582Y-70699250D01*
X140066397Y-70503083D01*
X140085215Y-70300000D01*
X140085215Y-70299999D01*
X140414785Y-70299999D01*
X140414785Y-70300000D01*
X140433602Y-70503082D01*
X140489417Y-70699247D01*
X140489422Y-70699260D01*
X140580327Y-70881821D01*
X140703237Y-71044581D01*
X140853958Y-71181980D01*
X140853960Y-71181982D01*
X140864497Y-71188506D01*
X141027363Y-71289348D01*
X141217544Y-71363024D01*
X141418024Y-71400500D01*
X141418026Y-71400500D01*
X141621974Y-71400500D01*
X141621976Y-71400500D01*
X141822456Y-71363024D01*
X142012637Y-71289348D01*
X142186041Y-71181981D01*
X142336764Y-71044579D01*
X142459673Y-70881821D01*
X142550582Y-70699250D01*
X142606397Y-70503083D01*
X142625215Y-70300000D01*
X142625215Y-70299999D01*
X142954785Y-70299999D01*
X142954785Y-70300000D01*
X142973602Y-70503082D01*
X143029417Y-70699247D01*
X143029422Y-70699260D01*
X143120327Y-70881821D01*
X143243237Y-71044581D01*
X143393958Y-71181980D01*
X143393960Y-71181982D01*
X143404497Y-71188506D01*
X143567363Y-71289348D01*
X143757544Y-71363024D01*
X143958024Y-71400500D01*
X143958026Y-71400500D01*
X144161974Y-71400500D01*
X144161976Y-71400500D01*
X144362456Y-71363024D01*
X144552637Y-71289348D01*
X144726041Y-71181981D01*
X144876764Y-71044579D01*
X144999673Y-70881821D01*
X145090582Y-70699250D01*
X145146397Y-70503083D01*
X145165215Y-70300000D01*
X145146397Y-70096917D01*
X145090582Y-69900750D01*
X145090574Y-69900734D01*
X145015767Y-69750500D01*
X144999673Y-69718179D01*
X144893356Y-69577392D01*
X144876762Y-69555418D01*
X144726041Y-69418019D01*
X144726039Y-69418017D01*
X144552642Y-69310655D01*
X144552635Y-69310651D01*
X144413674Y-69256818D01*
X144362456Y-69236976D01*
X144161976Y-69199500D01*
X143958024Y-69199500D01*
X143757544Y-69236976D01*
X143757541Y-69236976D01*
X143757541Y-69236977D01*
X143567364Y-69310651D01*
X143567357Y-69310655D01*
X143393960Y-69418017D01*
X143393958Y-69418019D01*
X143243237Y-69555418D01*
X143120327Y-69718178D01*
X143029422Y-69900739D01*
X143029417Y-69900752D01*
X142973602Y-70096917D01*
X142954785Y-70299999D01*
X142625215Y-70299999D01*
X142606397Y-70096917D01*
X142550582Y-69900750D01*
X142550574Y-69900734D01*
X142475767Y-69750500D01*
X142459673Y-69718179D01*
X142353356Y-69577392D01*
X142336762Y-69555418D01*
X142186041Y-69418019D01*
X142186039Y-69418017D01*
X142012642Y-69310655D01*
X142012635Y-69310651D01*
X141873674Y-69256818D01*
X141822456Y-69236976D01*
X141621976Y-69199500D01*
X141418024Y-69199500D01*
X141217544Y-69236976D01*
X141217541Y-69236976D01*
X141217541Y-69236977D01*
X141027364Y-69310651D01*
X141027357Y-69310655D01*
X140853960Y-69418017D01*
X140853958Y-69418019D01*
X140703237Y-69555418D01*
X140580327Y-69718178D01*
X140489422Y-69900739D01*
X140489417Y-69900752D01*
X140433602Y-70096917D01*
X140414785Y-70299999D01*
X140085215Y-70299999D01*
X140066397Y-70096917D01*
X140010582Y-69900750D01*
X140010574Y-69900734D01*
X139935767Y-69750500D01*
X139919673Y-69718179D01*
X139813356Y-69577392D01*
X139796762Y-69555418D01*
X139646041Y-69418019D01*
X139646039Y-69418017D01*
X139472642Y-69310655D01*
X139472635Y-69310651D01*
X139333674Y-69256818D01*
X139282456Y-69236976D01*
X139081976Y-69199500D01*
X138878024Y-69199500D01*
X138677544Y-69236976D01*
X138677541Y-69236976D01*
X138677541Y-69236977D01*
X138487364Y-69310651D01*
X138487357Y-69310655D01*
X138313960Y-69418017D01*
X138313958Y-69418019D01*
X138163237Y-69555418D01*
X138040327Y-69718178D01*
X137949422Y-69900739D01*
X137949417Y-69900752D01*
X137893602Y-70096917D01*
X137874785Y-70299999D01*
X137545215Y-70299999D01*
X137526397Y-70096917D01*
X137470582Y-69900750D01*
X137470574Y-69900734D01*
X137395767Y-69750500D01*
X137379673Y-69718179D01*
X137273356Y-69577392D01*
X137256762Y-69555418D01*
X137106041Y-69418019D01*
X137106039Y-69418017D01*
X136932642Y-69310655D01*
X136932635Y-69310651D01*
X136793674Y-69256818D01*
X136742456Y-69236976D01*
X136541976Y-69199500D01*
X136338024Y-69199500D01*
X136292515Y-69208006D01*
X136223002Y-69200976D01*
X136168323Y-69157478D01*
X136145841Y-69091324D01*
X136146636Y-69071171D01*
X136148379Y-69056816D01*
X136155278Y-69000000D01*
X136136237Y-68843182D01*
X136117290Y-68793224D01*
X136098312Y-68743182D01*
X136080220Y-68695477D01*
X135990483Y-68565470D01*
X135872240Y-68460717D01*
X135872238Y-68460716D01*
X135872237Y-68460715D01*
X135732365Y-68387303D01*
X135578986Y-68349500D01*
X135578985Y-68349500D01*
X135421015Y-68349500D01*
X135421014Y-68349500D01*
X135267634Y-68387303D01*
X135127762Y-68460715D01*
X135009516Y-68565471D01*
X134919781Y-68695475D01*
X134919780Y-68695476D01*
X134863762Y-68843181D01*
X134844722Y-68999999D01*
X133243136Y-68999999D01*
X133236237Y-68943182D01*
X133180220Y-68795477D01*
X133090483Y-68665470D01*
X132972240Y-68560717D01*
X132972238Y-68560716D01*
X132972237Y-68560715D01*
X132832365Y-68487303D01*
X132678986Y-68449500D01*
X132678985Y-68449500D01*
X132521015Y-68449500D01*
X132521014Y-68449500D01*
X132367634Y-68487303D01*
X132227762Y-68560715D01*
X132109516Y-68665471D01*
X132019781Y-68795475D01*
X132019780Y-68795476D01*
X131963762Y-68943181D01*
X131944722Y-69099999D01*
X131944722Y-69100000D01*
X131951183Y-69153215D01*
X131939722Y-69222139D01*
X131892818Y-69273924D01*
X131825362Y-69292131D01*
X131783293Y-69283788D01*
X131662459Y-69236977D01*
X131662458Y-69236976D01*
X131662456Y-69236976D01*
X131461976Y-69199500D01*
X131258024Y-69199500D01*
X131057544Y-69236976D01*
X131057541Y-69236976D01*
X131057541Y-69236977D01*
X130867364Y-69310651D01*
X130867357Y-69310655D01*
X130693960Y-69418017D01*
X130693958Y-69418019D01*
X130543237Y-69555418D01*
X130420327Y-69718178D01*
X130329422Y-69900739D01*
X130329417Y-69900752D01*
X130273602Y-70096917D01*
X130254785Y-70299999D01*
X129925215Y-70299999D01*
X129906397Y-70096917D01*
X129850582Y-69900750D01*
X129850574Y-69900734D01*
X129775767Y-69750500D01*
X129759673Y-69718179D01*
X129653356Y-69577392D01*
X129636762Y-69555418D01*
X129486041Y-69418019D01*
X129486039Y-69418017D01*
X129312642Y-69310655D01*
X129312635Y-69310651D01*
X129173674Y-69256818D01*
X129122456Y-69236976D01*
X128921976Y-69199500D01*
X128718024Y-69199500D01*
X128517544Y-69236976D01*
X128517541Y-69236976D01*
X128517541Y-69236977D01*
X128327364Y-69310651D01*
X128327357Y-69310655D01*
X128153960Y-69418017D01*
X128153958Y-69418019D01*
X128003237Y-69555418D01*
X127880327Y-69718178D01*
X127789422Y-69900739D01*
X127789417Y-69900752D01*
X127733602Y-70096917D01*
X127714785Y-70299999D01*
X127385215Y-70299999D01*
X127366397Y-70096917D01*
X127310582Y-69900750D01*
X127310574Y-69900734D01*
X127235767Y-69750500D01*
X127219673Y-69718179D01*
X127113356Y-69577392D01*
X127096762Y-69555418D01*
X126946041Y-69418019D01*
X126946039Y-69418017D01*
X126772642Y-69310655D01*
X126772635Y-69310651D01*
X126633674Y-69256818D01*
X126582456Y-69236976D01*
X126381976Y-69199500D01*
X126178024Y-69199500D01*
X125977544Y-69236976D01*
X125977541Y-69236976D01*
X125977541Y-69236977D01*
X125787364Y-69310651D01*
X125787357Y-69310655D01*
X125613960Y-69418017D01*
X125613958Y-69418019D01*
X125463237Y-69555418D01*
X125340327Y-69718178D01*
X125249422Y-69900739D01*
X125249417Y-69900752D01*
X125193602Y-70096917D01*
X125174785Y-70299999D01*
X124845215Y-70299999D01*
X124826397Y-70096917D01*
X124770582Y-69900750D01*
X124770574Y-69900734D01*
X124695767Y-69750500D01*
X124679673Y-69718179D01*
X124573356Y-69577392D01*
X124556762Y-69555418D01*
X124406041Y-69418019D01*
X124406039Y-69418017D01*
X124232642Y-69310655D01*
X124232635Y-69310651D01*
X124093674Y-69256818D01*
X124042456Y-69236976D01*
X123841976Y-69199500D01*
X123638024Y-69199500D01*
X123437544Y-69236976D01*
X123437541Y-69236976D01*
X123437541Y-69236977D01*
X123247364Y-69310651D01*
X123247357Y-69310655D01*
X123073960Y-69418017D01*
X123073958Y-69418019D01*
X122923237Y-69555418D01*
X122800327Y-69718178D01*
X122709422Y-69900739D01*
X122709417Y-69900752D01*
X122653602Y-70096917D01*
X122634785Y-70299999D01*
X122305215Y-70299999D01*
X122286397Y-70096917D01*
X122230582Y-69900750D01*
X122230574Y-69900734D01*
X122155767Y-69750500D01*
X122139673Y-69718179D01*
X122033356Y-69577392D01*
X122016762Y-69555418D01*
X121866041Y-69418019D01*
X121866039Y-69418017D01*
X121692642Y-69310655D01*
X121692635Y-69310651D01*
X121553674Y-69256818D01*
X121502456Y-69236976D01*
X121301976Y-69199500D01*
X121098024Y-69199500D01*
X120897544Y-69236976D01*
X120897541Y-69236976D01*
X120897541Y-69236977D01*
X120707364Y-69310651D01*
X120707357Y-69310655D01*
X120533960Y-69418017D01*
X120533958Y-69418019D01*
X120383237Y-69555418D01*
X120260327Y-69718178D01*
X120169422Y-69900739D01*
X120169417Y-69900752D01*
X120113602Y-70096917D01*
X120094785Y-70299999D01*
X119765215Y-70299999D01*
X119746397Y-70096917D01*
X119690582Y-69900750D01*
X119690574Y-69900734D01*
X119615767Y-69750500D01*
X119599673Y-69718179D01*
X119493356Y-69577392D01*
X119476762Y-69555418D01*
X119326041Y-69418019D01*
X119326039Y-69418017D01*
X119152642Y-69310655D01*
X119152635Y-69310651D01*
X119013674Y-69256818D01*
X118962456Y-69236976D01*
X118761976Y-69199500D01*
X118558024Y-69199500D01*
X118357544Y-69236976D01*
X118357541Y-69236976D01*
X118357541Y-69236977D01*
X118167364Y-69310651D01*
X118167357Y-69310655D01*
X117993960Y-69418017D01*
X117993958Y-69418019D01*
X117843237Y-69555418D01*
X117720327Y-69718178D01*
X117629422Y-69900739D01*
X117629417Y-69900752D01*
X117573602Y-70096917D01*
X117565446Y-70184942D01*
X117539660Y-70249879D01*
X117482859Y-70290566D01*
X117441975Y-70297500D01*
X117338024Y-70297500D01*
X117270985Y-70277815D01*
X117225230Y-70225011D01*
X117214553Y-70184940D01*
X117206397Y-70096918D01*
X117152715Y-69908248D01*
X117150582Y-69900750D01*
X117150574Y-69900734D01*
X117075767Y-69750500D01*
X117059673Y-69718179D01*
X116953356Y-69577392D01*
X116936762Y-69555418D01*
X116786041Y-69418019D01*
X116786039Y-69418017D01*
X116612642Y-69310655D01*
X116612635Y-69310651D01*
X116473674Y-69256818D01*
X116422456Y-69236976D01*
X116221976Y-69199500D01*
X116018024Y-69199500D01*
X115817544Y-69236976D01*
X115817541Y-69236976D01*
X115817541Y-69236977D01*
X115627364Y-69310651D01*
X115627357Y-69310655D01*
X115453960Y-69418017D01*
X115453958Y-69418019D01*
X115303237Y-69555418D01*
X115180327Y-69718178D01*
X115089422Y-69900739D01*
X115089417Y-69900752D01*
X115033602Y-70096917D01*
X115014785Y-70299999D01*
X114685215Y-70299999D01*
X114666397Y-70096917D01*
X114610582Y-69900750D01*
X114610574Y-69900734D01*
X114535767Y-69750500D01*
X114519673Y-69718179D01*
X114413356Y-69577392D01*
X114396762Y-69555418D01*
X114246041Y-69418019D01*
X114246039Y-69418017D01*
X114072642Y-69310655D01*
X114072635Y-69310651D01*
X113933674Y-69256818D01*
X113882456Y-69236976D01*
X113681976Y-69199500D01*
X113478024Y-69199500D01*
X113277544Y-69236976D01*
X113277541Y-69236976D01*
X113277541Y-69236977D01*
X113087364Y-69310651D01*
X113087357Y-69310655D01*
X112913960Y-69418017D01*
X112913958Y-69418019D01*
X112763237Y-69555418D01*
X112640327Y-69718178D01*
X112549422Y-69900739D01*
X112549417Y-69900752D01*
X112493602Y-70096917D01*
X112474785Y-70299999D01*
X112145215Y-70299999D01*
X112126397Y-70096917D01*
X112070582Y-69900750D01*
X112070574Y-69900734D01*
X111995767Y-69750500D01*
X111979673Y-69718179D01*
X111873356Y-69577392D01*
X111856762Y-69555418D01*
X111706041Y-69418019D01*
X111706039Y-69418017D01*
X111532642Y-69310655D01*
X111532635Y-69310651D01*
X111393674Y-69256818D01*
X111342456Y-69236976D01*
X111141976Y-69199500D01*
X110938024Y-69199500D01*
X110737544Y-69236976D01*
X110737541Y-69236976D01*
X110737541Y-69236977D01*
X110547364Y-69310651D01*
X110547357Y-69310655D01*
X110373960Y-69418017D01*
X110373958Y-69418019D01*
X110223237Y-69555418D01*
X110100327Y-69718178D01*
X110009422Y-69900739D01*
X110009417Y-69900752D01*
X109953602Y-70096917D01*
X109934785Y-70299999D01*
X109605215Y-70299999D01*
X109586397Y-70096917D01*
X109530582Y-69900750D01*
X109530574Y-69900734D01*
X109455767Y-69750500D01*
X109439673Y-69718179D01*
X109333356Y-69577392D01*
X109316762Y-69555418D01*
X109166041Y-69418019D01*
X109166039Y-69418017D01*
X108992642Y-69310655D01*
X108992635Y-69310651D01*
X108853674Y-69256818D01*
X108802456Y-69236976D01*
X108601976Y-69199500D01*
X108398024Y-69199500D01*
X108197544Y-69236976D01*
X108197541Y-69236976D01*
X108197541Y-69236977D01*
X108007364Y-69310651D01*
X108007357Y-69310655D01*
X107833960Y-69418017D01*
X107833958Y-69418019D01*
X107683237Y-69555418D01*
X107560327Y-69718178D01*
X107469422Y-69900739D01*
X107469417Y-69900752D01*
X107413602Y-70096917D01*
X107394785Y-70299999D01*
X107065215Y-70299999D01*
X107046397Y-70096917D01*
X106990582Y-69900750D01*
X106990574Y-69900734D01*
X106915767Y-69750500D01*
X106899673Y-69718179D01*
X106793356Y-69577392D01*
X106776762Y-69555418D01*
X106626041Y-69418019D01*
X106626039Y-69418017D01*
X106452642Y-69310655D01*
X106452635Y-69310651D01*
X106313674Y-69256818D01*
X106262456Y-69236976D01*
X106061976Y-69199500D01*
X105858024Y-69199500D01*
X105657544Y-69236976D01*
X105657541Y-69236976D01*
X105657541Y-69236977D01*
X105467364Y-69310651D01*
X105467357Y-69310655D01*
X105293960Y-69418017D01*
X105293958Y-69418019D01*
X105143237Y-69555418D01*
X105020327Y-69718178D01*
X104929422Y-69900739D01*
X104929417Y-69900752D01*
X104873602Y-70096917D01*
X104854785Y-70299999D01*
X104525215Y-70299999D01*
X104506397Y-70096917D01*
X104450582Y-69900750D01*
X104450574Y-69900734D01*
X104375767Y-69750500D01*
X104359673Y-69718179D01*
X104253356Y-69577392D01*
X104236762Y-69555418D01*
X104086041Y-69418019D01*
X104086039Y-69418017D01*
X103912642Y-69310655D01*
X103912635Y-69310651D01*
X103773674Y-69256818D01*
X103722456Y-69236976D01*
X103521976Y-69199500D01*
X103318024Y-69199500D01*
X103117544Y-69236976D01*
X103117541Y-69236976D01*
X103117541Y-69236977D01*
X102927364Y-69310651D01*
X102927357Y-69310655D01*
X102753962Y-69418016D01*
X102690190Y-69476152D01*
X102627385Y-69506768D01*
X102610697Y-69504796D01*
X102592735Y-69568555D01*
X102586643Y-69577392D01*
X102480328Y-69718175D01*
X102389422Y-69900739D01*
X102389417Y-69900752D01*
X102333602Y-70096917D01*
X102314785Y-70299999D01*
X101985215Y-70299999D01*
X101966397Y-70096917D01*
X101910582Y-69900750D01*
X101910577Y-69900739D01*
X101910575Y-69900734D01*
X101825446Y-69729771D01*
X101813185Y-69660986D01*
X101840058Y-69596491D01*
X101897534Y-69556764D01*
X101936446Y-69550500D01*
X102078985Y-69550500D01*
X102232365Y-69512696D01*
X102247417Y-69504796D01*
X102372240Y-69439283D01*
X102405463Y-69409849D01*
X102468694Y-69380129D01*
X102484145Y-69382177D01*
X102500681Y-69320124D01*
X102504591Y-69314090D01*
X102580220Y-69204523D01*
X102636237Y-69056818D01*
X102655278Y-68900000D01*
X102642587Y-68795475D01*
X102636237Y-68743181D01*
X102584419Y-68606549D01*
X102580220Y-68595477D01*
X102490483Y-68465470D01*
X102372240Y-68360717D01*
X102372238Y-68360716D01*
X102372237Y-68360715D01*
X102232365Y-68287303D01*
X102078986Y-68249500D01*
X102078985Y-68249500D01*
X101921015Y-68249500D01*
X101921014Y-68249500D01*
X101767634Y-68287303D01*
X101627762Y-68360715D01*
X101627760Y-68360717D01*
X101521109Y-68455201D01*
X101509516Y-68465471D01*
X101419781Y-68595475D01*
X101419780Y-68595476D01*
X101363762Y-68743181D01*
X101344722Y-68899999D01*
X101344722Y-68900000D01*
X101363762Y-69056816D01*
X101376446Y-69090261D01*
X101381812Y-69159925D01*
X101348663Y-69221430D01*
X101287525Y-69255251D01*
X101217807Y-69250648D01*
X101215710Y-69249858D01*
X101182461Y-69236977D01*
X101182456Y-69236976D01*
X100981976Y-69199500D01*
X100778024Y-69199500D01*
X100577544Y-69236976D01*
X100577541Y-69236976D01*
X100577541Y-69236977D01*
X100387364Y-69310651D01*
X100387357Y-69310655D01*
X100213960Y-69418017D01*
X100213958Y-69418019D01*
X100063237Y-69555418D01*
X99940327Y-69718178D01*
X99849422Y-69900739D01*
X99849417Y-69900752D01*
X99793602Y-70096917D01*
X99774785Y-70299999D01*
X99445215Y-70299999D01*
X99426397Y-70096917D01*
X99370582Y-69900750D01*
X99370574Y-69900734D01*
X99295767Y-69750500D01*
X99279673Y-69718179D01*
X99173356Y-69577392D01*
X99156762Y-69555418D01*
X99006041Y-69418019D01*
X99006039Y-69418017D01*
X98832642Y-69310655D01*
X98832635Y-69310651D01*
X98693674Y-69256818D01*
X98642456Y-69236976D01*
X98441976Y-69199500D01*
X98238024Y-69199500D01*
X98037544Y-69236976D01*
X98037541Y-69236976D01*
X98037541Y-69236977D01*
X97847364Y-69310651D01*
X97847357Y-69310655D01*
X97673960Y-69418017D01*
X97673958Y-69418019D01*
X97523237Y-69555418D01*
X97400327Y-69718178D01*
X97309422Y-69900739D01*
X97309417Y-69900752D01*
X97253602Y-70096917D01*
X97234785Y-70299999D01*
X96905215Y-70299999D01*
X96886397Y-70096917D01*
X96830582Y-69900750D01*
X96830574Y-69900734D01*
X96755767Y-69750500D01*
X96739673Y-69718179D01*
X96633356Y-69577392D01*
X96616762Y-69555418D01*
X96466041Y-69418019D01*
X96466039Y-69418017D01*
X96292642Y-69310655D01*
X96292635Y-69310651D01*
X96153674Y-69256818D01*
X96102456Y-69236976D01*
X95901976Y-69199500D01*
X95698024Y-69199500D01*
X95497544Y-69236976D01*
X95497541Y-69236976D01*
X95497541Y-69236977D01*
X95307364Y-69310651D01*
X95307357Y-69310655D01*
X95133960Y-69418017D01*
X95133958Y-69418019D01*
X94983237Y-69555418D01*
X94860327Y-69718178D01*
X94769422Y-69900739D01*
X94769417Y-69900752D01*
X94713602Y-70096917D01*
X94694785Y-70299999D01*
X94000000Y-70299999D01*
X94000000Y-69006092D01*
X94000597Y-68993938D01*
X94009849Y-68899999D01*
X94018018Y-68817056D01*
X94022757Y-68793232D01*
X94072577Y-68628994D01*
X94081875Y-68606549D01*
X94162775Y-68455195D01*
X94176272Y-68434995D01*
X94285149Y-68302328D01*
X94302328Y-68285149D01*
X94434995Y-68176272D01*
X94455195Y-68162775D01*
X94606549Y-68081875D01*
X94628994Y-68072577D01*
X94793232Y-68022757D01*
X94817056Y-68018018D01*
X94993939Y-68000597D01*
X95006093Y-68000000D01*
X144993907Y-68000000D01*
X145006061Y-68000597D01*
G37*
G04 #@! TD.AperFunction*
M02*
