%TF.GenerationSoftware,KiCad,Pcbnew,8.0.2*%
%TF.CreationDate,2024-05-17T09:11:14-06:00*%
%TF.ProjectId,encoder_protyping_board_high_current,656e636f-6465-4725-9f70-726f74797069,rev?*%
%TF.SameCoordinates,Original*%
%TF.FileFunction,Drillmap*%
%TF.FilePolarity,Positive*%
%FSLAX45Y45*%
G04 Gerber Fmt 4.5, Leading zero omitted, Abs format (unit mm)*
G04 Created by KiCad (PCBNEW 8.0.2) date 2024-05-17 09:11:14*
%MOMM*%
%LPD*%
G01*
G04 APERTURE LIST*
%ADD10C,0.100000*%
%ADD11C,0.200000*%
G04 APERTURE END LIST*
D10*
X18480000Y-9525000D02*
X20860000Y-9525000D01*
X20860000Y-11870000D01*
X18480000Y-11870000D01*
X18480000Y-9525000D01*
D11*
X18735777Y-12186484D02*
X18735777Y-11986484D01*
X18735777Y-11986484D02*
X18783396Y-11986484D01*
X18783396Y-11986484D02*
X18811967Y-11996008D01*
X18811967Y-11996008D02*
X18831015Y-12015055D01*
X18831015Y-12015055D02*
X18840539Y-12034103D01*
X18840539Y-12034103D02*
X18850063Y-12072198D01*
X18850063Y-12072198D02*
X18850063Y-12100769D01*
X18850063Y-12100769D02*
X18840539Y-12138865D01*
X18840539Y-12138865D02*
X18831015Y-12157912D01*
X18831015Y-12157912D02*
X18811967Y-12176960D01*
X18811967Y-12176960D02*
X18783396Y-12186484D01*
X18783396Y-12186484D02*
X18735777Y-12186484D01*
X18935777Y-12186484D02*
X18935777Y-12053150D01*
X18935777Y-12091246D02*
X18945301Y-12072198D01*
X18945301Y-12072198D02*
X18954824Y-12062674D01*
X18954824Y-12062674D02*
X18973872Y-12053150D01*
X18973872Y-12053150D02*
X18992920Y-12053150D01*
X19059586Y-12186484D02*
X19059586Y-12053150D01*
X19059586Y-11986484D02*
X19050063Y-11996008D01*
X19050063Y-11996008D02*
X19059586Y-12005531D01*
X19059586Y-12005531D02*
X19069110Y-11996008D01*
X19069110Y-11996008D02*
X19059586Y-11986484D01*
X19059586Y-11986484D02*
X19059586Y-12005531D01*
X19183396Y-12186484D02*
X19164348Y-12176960D01*
X19164348Y-12176960D02*
X19154824Y-12157912D01*
X19154824Y-12157912D02*
X19154824Y-11986484D01*
X19288158Y-12186484D02*
X19269110Y-12176960D01*
X19269110Y-12176960D02*
X19259586Y-12157912D01*
X19259586Y-12157912D02*
X19259586Y-11986484D01*
X19516729Y-12186484D02*
X19516729Y-11986484D01*
X19516729Y-11986484D02*
X19583396Y-12129341D01*
X19583396Y-12129341D02*
X19650063Y-11986484D01*
X19650063Y-11986484D02*
X19650063Y-12186484D01*
X19831015Y-12186484D02*
X19831015Y-12081722D01*
X19831015Y-12081722D02*
X19821491Y-12062674D01*
X19821491Y-12062674D02*
X19802444Y-12053150D01*
X19802444Y-12053150D02*
X19764348Y-12053150D01*
X19764348Y-12053150D02*
X19745301Y-12062674D01*
X19831015Y-12176960D02*
X19811967Y-12186484D01*
X19811967Y-12186484D02*
X19764348Y-12186484D01*
X19764348Y-12186484D02*
X19745301Y-12176960D01*
X19745301Y-12176960D02*
X19735777Y-12157912D01*
X19735777Y-12157912D02*
X19735777Y-12138865D01*
X19735777Y-12138865D02*
X19745301Y-12119817D01*
X19745301Y-12119817D02*
X19764348Y-12110293D01*
X19764348Y-12110293D02*
X19811967Y-12110293D01*
X19811967Y-12110293D02*
X19831015Y-12100769D01*
X19926253Y-12053150D02*
X19926253Y-12253150D01*
X19926253Y-12062674D02*
X19945301Y-12053150D01*
X19945301Y-12053150D02*
X19983396Y-12053150D01*
X19983396Y-12053150D02*
X20002444Y-12062674D01*
X20002444Y-12062674D02*
X20011967Y-12072198D01*
X20011967Y-12072198D02*
X20021491Y-12091246D01*
X20021491Y-12091246D02*
X20021491Y-12148388D01*
X20021491Y-12148388D02*
X20011967Y-12167436D01*
X20011967Y-12167436D02*
X20002444Y-12176960D01*
X20002444Y-12176960D02*
X19983396Y-12186484D01*
X19983396Y-12186484D02*
X19945301Y-12186484D01*
X19945301Y-12186484D02*
X19926253Y-12176960D01*
X20107205Y-12167436D02*
X20116729Y-12176960D01*
X20116729Y-12176960D02*
X20107205Y-12186484D01*
X20107205Y-12186484D02*
X20097682Y-12176960D01*
X20097682Y-12176960D02*
X20107205Y-12167436D01*
X20107205Y-12167436D02*
X20107205Y-12186484D01*
X20107205Y-12062674D02*
X20116729Y-12072198D01*
X20116729Y-12072198D02*
X20107205Y-12081722D01*
X20107205Y-12081722D02*
X20097682Y-12072198D01*
X20097682Y-12072198D02*
X20107205Y-12062674D01*
X20107205Y-12062674D02*
X20107205Y-12081722D01*
M02*
