%TF.GenerationSoftware,KiCad,Pcbnew,8.0.2*%
%TF.CreationDate,2024-05-17T09:11:03-06:00*%
%TF.ProjectId,encoder_protyping_board_high_current,656e636f-6465-4725-9f70-726f74797069,rev?*%
%TF.SameCoordinates,Original*%
%TF.FileFunction,Paste,Top*%
%TF.FilePolarity,Positive*%
%FSLAX46Y46*%
G04 Gerber Fmt 4.6, Leading zero omitted, Abs format (unit mm)*
G04 Created by KiCad (PCBNEW 8.0.2) date 2024-05-17 09:11:03*
%MOMM*%
%LPD*%
G01*
G04 APERTURE LIST*
G04 Aperture macros list*
%AMRoundRect*
0 Rectangle with rounded corners*
0 $1 Rounding radius*
0 $2 $3 $4 $5 $6 $7 $8 $9 X,Y pos of 4 corners*
0 Add a 4 corners polygon primitive as box body*
4,1,4,$2,$3,$4,$5,$6,$7,$8,$9,$2,$3,0*
0 Add four circle primitives for the rounded corners*
1,1,$1+$1,$2,$3*
1,1,$1+$1,$4,$5*
1,1,$1+$1,$6,$7*
1,1,$1+$1,$8,$9*
0 Add four rect primitives between the rounded corners*
20,1,$1+$1,$2,$3,$4,$5,0*
20,1,$1+$1,$4,$5,$6,$7,0*
20,1,$1+$1,$6,$7,$8,$9,0*
20,1,$1+$1,$8,$9,$2,$3,0*%
G04 Aperture macros list end*
%ADD10RoundRect,0.140000X0.170000X-0.140000X0.170000X0.140000X-0.170000X0.140000X-0.170000X-0.140000X0*%
%ADD11RoundRect,0.135000X0.135000X0.185000X-0.135000X0.185000X-0.135000X-0.185000X0.135000X-0.185000X0*%
%ADD12RoundRect,0.135000X-0.135000X-0.185000X0.135000X-0.185000X0.135000X0.185000X-0.135000X0.185000X0*%
%ADD13R,1.100000X0.510000*%
%ADD14RoundRect,0.100000X-0.637500X-0.100000X0.637500X-0.100000X0.637500X0.100000X-0.637500X0.100000X0*%
G04 APERTURE END LIST*
D10*
X189800000Y-100480000D03*
X189800000Y-99520000D03*
D11*
X188550000Y-111400000D03*
X187530000Y-111400000D03*
D10*
X190780000Y-100480000D03*
X190780000Y-99520000D03*
D12*
X187530000Y-110400000D03*
X188550000Y-110400000D03*
D13*
X197294888Y-102400000D03*
X197294888Y-103400000D03*
X197294888Y-104400000D03*
X197294888Y-105400000D03*
X197294888Y-106400000D03*
X202394888Y-106400000D03*
X202394888Y-105400000D03*
X202394888Y-104400000D03*
X202394888Y-103400000D03*
X202394888Y-102400000D03*
D12*
X187530000Y-109400000D03*
X188550000Y-109400000D03*
D13*
X197294888Y-107900000D03*
X197294888Y-108900000D03*
X197294888Y-109900000D03*
X197294888Y-110900000D03*
X197294888Y-111900000D03*
X202394888Y-111900000D03*
X202394888Y-110900000D03*
X202394888Y-109900000D03*
X202394888Y-108900000D03*
X202394888Y-107900000D03*
D14*
X188137500Y-101625000D03*
X188137500Y-102275000D03*
X188137500Y-102925000D03*
X188137500Y-103575000D03*
X188137500Y-104225000D03*
X188137500Y-104875000D03*
X188137500Y-105525000D03*
X188137500Y-106175000D03*
X193862500Y-106175000D03*
X193862500Y-105525000D03*
X193862500Y-104875000D03*
X193862500Y-104225000D03*
X193862500Y-103575000D03*
X193862500Y-102925000D03*
X193862500Y-102275000D03*
X193862500Y-101625000D03*
M02*
