M48
; DRILL file {KiCad 8.0.2} date 2024-05-17T09:11:13-0600
; FORMAT={-:-/ absolute / metric / decimal}
; #@! TF.CreationDate,2024-05-17T09:11:13-06:00
; #@! TF.GenerationSoftware,Kicad,Pcbnew,8.0.2
; #@! TF.FileFunction,Plated,1,2,PTH
FMAT,2
METRIC
; #@! TA.AperFunction,Plated,PTH,ViaDrill
T1C0.400
; #@! TA.AperFunction,Plated,PTH,ComponentDrill
T2C0.800
; #@! TA.AperFunction,Plated,PTH,ComponentDrill
T3C1.000
%
G90
G05
T1
X185.85Y-109.75
X187.35Y-100.65
X187.9Y-108.0
X189.25Y-112.85
X189.25Y-115.45
X189.45Y-111.2
X189.55Y-109.65
X189.8Y-117.7
X189.95Y-103.55
X191.4Y-109.65
X191.55Y-105.6
X192.0Y-112.5
X193.5Y-108.0
X193.7Y-99.75
X194.0Y-110.0
X194.0Y-111.0
X195.5Y-107.0
X195.75Y-102.05
X195.8Y-115.45
X196.0Y-109.0
X196.0Y-110.5
X196.35Y-117.6
X196.4Y-99.45
X196.65Y-97.15
X197.0Y-113.5
X198.1Y-104.4
X198.1Y-109.95
X201.0Y-101.0
X201.2Y-109.9
X201.3Y-104.4
X202.45Y-96.25
X203.5Y-103.0
X203.5Y-105.5
X203.5Y-109.0
X203.5Y-110.5
X204.0Y-114.5
X206.3Y-117.75
T2
X198.645Y-98.5
X198.845Y-115.8
X200.645Y-98.5
X200.845Y-115.8
T3
X186.6Y-97.1
X186.7Y-114.225
X186.7Y-116.765
X189.14Y-97.1
X191.68Y-97.1
X194.22Y-97.1
X206.75Y-97.15
X206.75Y-99.69
X206.75Y-102.23
X206.75Y-104.77
X206.75Y-107.31
X206.75Y-109.85
X206.75Y-112.39
X206.75Y-114.93
M30
