%TF.GenerationSoftware,KiCad,Pcbnew,8.0.2*%
%TF.CreationDate,2024-05-17T09:11:03-06:00*%
%TF.ProjectId,encoder_protyping_board_high_current,656e636f-6465-4725-9f70-726f74797069,rev?*%
%TF.SameCoordinates,Original*%
%TF.FileFunction,Copper,L2,Bot*%
%TF.FilePolarity,Positive*%
%FSLAX46Y46*%
G04 Gerber Fmt 4.6, Leading zero omitted, Abs format (unit mm)*
G04 Created by KiCad (PCBNEW 8.0.2) date 2024-05-17 09:11:03*
%MOMM*%
%LPD*%
G01*
G04 APERTURE LIST*
G04 Aperture macros list*
%AMFreePoly0*
4,1,19,0.550000,-0.750000,0.000000,-0.750000,0.000000,-0.744911,-0.071157,-0.744911,-0.207708,-0.704816,-0.327430,-0.627875,-0.420627,-0.520320,-0.479746,-0.390866,-0.500000,-0.250000,-0.500000,0.250000,-0.479746,0.390866,-0.420627,0.520320,-0.327430,0.627875,-0.207708,0.704816,-0.071157,0.744911,0.000000,0.744911,0.000000,0.750000,0.550000,0.750000,0.550000,-0.750000,0.550000,-0.750000,
$1*%
%AMFreePoly1*
4,1,19,0.000000,0.744911,0.071157,0.744911,0.207708,0.704816,0.327430,0.627875,0.420627,0.520320,0.479746,0.390866,0.500000,0.250000,0.500000,-0.250000,0.479746,-0.390866,0.420627,-0.520320,0.327430,-0.627875,0.207708,-0.704816,0.071157,-0.744911,0.000000,-0.744911,0.000000,-0.750000,-0.550000,-0.750000,-0.550000,0.750000,0.000000,0.750000,0.000000,0.744911,0.000000,0.744911,
$1*%
G04 Aperture macros list end*
%TA.AperFunction,ComponentPad*%
%ADD10R,1.700000X1.700000*%
%TD*%
%TA.AperFunction,ComponentPad*%
%ADD11O,1.700000X1.700000*%
%TD*%
%TA.AperFunction,ComponentPad*%
%ADD12R,1.600000X1.600000*%
%TD*%
%TA.AperFunction,ComponentPad*%
%ADD13C,1.600000*%
%TD*%
%TA.AperFunction,SMDPad,CuDef*%
%ADD14FreePoly0,270.000000*%
%TD*%
%TA.AperFunction,SMDPad,CuDef*%
%ADD15R,1.500000X1.000000*%
%TD*%
%TA.AperFunction,SMDPad,CuDef*%
%ADD16FreePoly1,270.000000*%
%TD*%
%TA.AperFunction,SMDPad,CuDef*%
%ADD17FreePoly0,90.000000*%
%TD*%
%TA.AperFunction,SMDPad,CuDef*%
%ADD18FreePoly1,90.000000*%
%TD*%
%TA.AperFunction,ViaPad*%
%ADD19C,0.800000*%
%TD*%
%TA.AperFunction,Conductor*%
%ADD20C,0.400000*%
%TD*%
%TA.AperFunction,Conductor*%
%ADD21C,0.250000*%
%TD*%
G04 APERTURE END LIST*
D10*
X186700000Y-114225000D03*
D11*
X186700000Y-116765000D03*
D12*
X198844888Y-115800000D03*
D13*
X200844888Y-115800000D03*
D10*
X186600000Y-97100000D03*
D11*
X189140000Y-97100000D03*
X191680000Y-97100000D03*
X194220000Y-97100000D03*
D10*
X206750000Y-97150000D03*
D11*
X206750000Y-99690000D03*
X206750000Y-102230000D03*
X206750000Y-104770000D03*
X206750000Y-107310000D03*
X206750000Y-109850000D03*
X206750000Y-112390000D03*
X206750000Y-114930000D03*
D12*
X198644888Y-98500000D03*
D13*
X200644888Y-98500000D03*
D14*
X191450000Y-114150000D03*
D15*
X191450000Y-115450000D03*
D16*
X191450000Y-116750000D03*
D17*
X193950000Y-116750000D03*
D15*
X193950000Y-115450000D03*
D18*
X193950000Y-114150000D03*
D19*
X196350000Y-117600000D03*
X201000000Y-101000000D03*
X185850000Y-109750000D03*
X187350000Y-100650000D03*
X196400000Y-99450000D03*
X204000000Y-114500000D03*
X196650000Y-97150000D03*
X189800000Y-117700000D03*
X195500000Y-107000000D03*
X202450000Y-96250000D03*
X206300000Y-117750000D03*
X197000000Y-113500000D03*
X192000000Y-112500000D03*
X194000000Y-111000000D03*
X201200000Y-109900000D03*
X201300000Y-104400000D03*
X195750000Y-102050000D03*
X193700000Y-99750000D03*
X187900000Y-108000000D03*
X198100000Y-104400000D03*
X198100000Y-109950000D03*
X203500000Y-103000000D03*
X203500000Y-109000000D03*
X191550000Y-105600000D03*
X189450000Y-111200000D03*
X189250000Y-115450000D03*
X189250000Y-112850000D03*
X189950000Y-103550000D03*
X189550000Y-109650000D03*
X195800000Y-115450000D03*
X191400000Y-109650000D03*
X196000000Y-110500000D03*
X193500000Y-108000000D03*
X194000000Y-110000000D03*
X196000000Y-109000000D03*
X203500000Y-105500000D03*
X203500000Y-110500000D03*
D20*
X200644888Y-100644888D02*
X200644888Y-98500000D01*
X201300000Y-104400000D02*
X200644888Y-103744888D01*
X201200000Y-110100000D02*
X200844888Y-110455112D01*
X201200000Y-109900000D02*
X201200000Y-110100000D01*
X200644888Y-103744888D02*
X200644888Y-101355112D01*
X201000000Y-101000000D02*
X200644888Y-100644888D01*
X200844888Y-110455112D02*
X200844888Y-115800000D01*
X201300000Y-104400000D02*
X201300000Y-109800000D01*
X201300000Y-109800000D02*
X201200000Y-109900000D01*
X200644888Y-101355112D02*
X201000000Y-101000000D01*
D21*
X204700000Y-100300000D02*
X204700000Y-105260000D01*
X204700000Y-105260000D02*
X206750000Y-107310000D01*
X187900000Y-108000000D02*
X186600000Y-106700000D01*
X200325000Y-95925000D02*
X204700000Y-100300000D01*
X186600000Y-106700000D02*
X186600000Y-97100000D01*
X195750000Y-102050000D02*
X195750000Y-101800000D01*
X195750000Y-101800000D02*
X193700000Y-99750000D01*
X200325000Y-95925000D02*
X187775000Y-95925000D01*
X186600000Y-97100000D02*
X187775000Y-95925000D01*
D20*
X198844888Y-110694888D02*
X198844888Y-115800000D01*
X198100000Y-104400000D02*
X198644888Y-103855112D01*
X198644888Y-103855112D02*
X198644888Y-98500000D01*
X198100000Y-109950000D02*
X198844888Y-110694888D01*
X198100000Y-104400000D02*
X198100000Y-109950000D01*
X202700000Y-108200000D02*
X203500000Y-109000000D01*
X202700000Y-103800000D02*
X202700000Y-108200000D01*
X203500000Y-103000000D02*
X202700000Y-103800000D01*
D21*
X188825000Y-108275000D02*
X191500000Y-105600000D01*
X189450000Y-111200000D02*
X188825000Y-110575000D01*
X191450000Y-114150000D02*
X193950000Y-114150000D01*
X188825000Y-110575000D02*
X188825000Y-108275000D01*
X191450000Y-114150000D02*
X186775000Y-114150000D01*
X191550000Y-105600000D02*
X191550000Y-105550000D01*
X191550000Y-105550000D02*
X191500000Y-105600000D01*
X191500000Y-105600000D02*
X191550000Y-105600000D01*
X191450000Y-116750000D02*
X193950000Y-116750000D01*
X191285000Y-116765000D02*
X186700000Y-116765000D01*
X192275000Y-105299695D02*
X192275000Y-109825000D01*
X190525305Y-103550000D02*
X192275000Y-105299695D01*
X191450000Y-115450000D02*
X189250000Y-115450000D01*
X192275000Y-109825000D02*
X189250000Y-112850000D01*
X189950000Y-103550000D02*
X190525305Y-103550000D01*
X189550000Y-109650000D02*
X191400000Y-109650000D01*
X193950000Y-115450000D02*
X195800000Y-115450000D01*
X196025305Y-108000000D02*
X197000000Y-108974695D01*
X197000000Y-108974695D02*
X197000000Y-109500000D01*
X197000000Y-109500000D02*
X196000000Y-110500000D01*
X193500000Y-108000000D02*
X196025305Y-108000000D01*
X195000000Y-109000000D02*
X196000000Y-109000000D01*
X194000000Y-110000000D02*
X195000000Y-109000000D01*
D20*
X203500000Y-105500000D02*
X205000000Y-107000000D01*
X204000000Y-110500000D02*
X203500000Y-110500000D01*
X205000000Y-109500000D02*
X204000000Y-110500000D01*
X205000000Y-107000000D02*
X205000000Y-109500000D01*
%TA.AperFunction,Conductor*%
G36*
X187333085Y-95269685D02*
G01*
X187378840Y-95322489D01*
X187388784Y-95391647D01*
X187359759Y-95455203D01*
X187353728Y-95461681D01*
X187289142Y-95526267D01*
X187289139Y-95526270D01*
X187102227Y-95713181D01*
X187040904Y-95746666D01*
X187014546Y-95749500D01*
X185702129Y-95749500D01*
X185702123Y-95749501D01*
X185642516Y-95755908D01*
X185507671Y-95806202D01*
X185507664Y-95806206D01*
X185392455Y-95892452D01*
X185392452Y-95892455D01*
X185306206Y-96007664D01*
X185306202Y-96007671D01*
X185255908Y-96142517D01*
X185249501Y-96202116D01*
X185249500Y-96202135D01*
X185249500Y-97997870D01*
X185249501Y-97997876D01*
X185255908Y-98057483D01*
X185306202Y-98192328D01*
X185306206Y-98192335D01*
X185392452Y-98307544D01*
X185392455Y-98307547D01*
X185507664Y-98393793D01*
X185507671Y-98393797D01*
X185552618Y-98410561D01*
X185642517Y-98444091D01*
X185702127Y-98450500D01*
X185850500Y-98450499D01*
X185917539Y-98470183D01*
X185963294Y-98522987D01*
X185974500Y-98574499D01*
X185974500Y-106761611D01*
X185998535Y-106882444D01*
X185998540Y-106882461D01*
X186045684Y-106996278D01*
X186045687Y-106996285D01*
X186060309Y-107018166D01*
X186060310Y-107018168D01*
X186114140Y-107098731D01*
X186114141Y-107098732D01*
X186114142Y-107098733D01*
X186201267Y-107185858D01*
X186201268Y-107185858D01*
X186208335Y-107192925D01*
X186208334Y-107192925D01*
X186208338Y-107192928D01*
X186961038Y-107945629D01*
X186994523Y-108006952D01*
X186996678Y-108020348D01*
X187002184Y-108072733D01*
X187014326Y-108188256D01*
X187014327Y-108188259D01*
X187072818Y-108368277D01*
X187072821Y-108368284D01*
X187167467Y-108532216D01*
X187294129Y-108672888D01*
X187447265Y-108784148D01*
X187447270Y-108784151D01*
X187620192Y-108861142D01*
X187620197Y-108861144D01*
X187805354Y-108900500D01*
X187805355Y-108900500D01*
X187994644Y-108900500D01*
X187994646Y-108900500D01*
X188049722Y-108888793D01*
X188119385Y-108894108D01*
X188175119Y-108936245D01*
X188199225Y-109001825D01*
X188199500Y-109010083D01*
X188199500Y-110636607D01*
X188204110Y-110659789D01*
X188223534Y-110757444D01*
X188223537Y-110757453D01*
X188229398Y-110771603D01*
X188234596Y-110784151D01*
X188270688Y-110871286D01*
X188274962Y-110877683D01*
X188304914Y-110922507D01*
X188304915Y-110922509D01*
X188339140Y-110973731D01*
X188339141Y-110973732D01*
X188339142Y-110973733D01*
X188426267Y-111060858D01*
X188426268Y-111060858D01*
X188426268Y-111060859D01*
X188511039Y-111145630D01*
X188544524Y-111206953D01*
X188546678Y-111220343D01*
X188564326Y-111388256D01*
X188564327Y-111388259D01*
X188622818Y-111568277D01*
X188622821Y-111568284D01*
X188717467Y-111732216D01*
X188840542Y-111868904D01*
X188870772Y-111931895D01*
X188862147Y-112001230D01*
X188817406Y-112054896D01*
X188798833Y-112065153D01*
X188797270Y-112065848D01*
X188797265Y-112065851D01*
X188644129Y-112177111D01*
X188517466Y-112317785D01*
X188422821Y-112481715D01*
X188422818Y-112481722D01*
X188364327Y-112661740D01*
X188364326Y-112661744D01*
X188344540Y-112850000D01*
X188364326Y-113038256D01*
X188364327Y-113038259D01*
X188422818Y-113218277D01*
X188422820Y-113218281D01*
X188422821Y-113218284D01*
X188449926Y-113265231D01*
X188492228Y-113338501D01*
X188508700Y-113406401D01*
X188485847Y-113472428D01*
X188430925Y-113515618D01*
X188384840Y-113524500D01*
X188174499Y-113524500D01*
X188107460Y-113504815D01*
X188061705Y-113452011D01*
X188050499Y-113400500D01*
X188050499Y-113327129D01*
X188050498Y-113327123D01*
X188050497Y-113327116D01*
X188044091Y-113267517D01*
X188043238Y-113265231D01*
X187993797Y-113132671D01*
X187993793Y-113132664D01*
X187907547Y-113017455D01*
X187907544Y-113017452D01*
X187792335Y-112931206D01*
X187792328Y-112931202D01*
X187657482Y-112880908D01*
X187657483Y-112880908D01*
X187597883Y-112874501D01*
X187597881Y-112874500D01*
X187597873Y-112874500D01*
X187597864Y-112874500D01*
X185802129Y-112874500D01*
X185802123Y-112874501D01*
X185742516Y-112880908D01*
X185607671Y-112931202D01*
X185607664Y-112931206D01*
X185492455Y-113017452D01*
X185492452Y-113017455D01*
X185406206Y-113132664D01*
X185406202Y-113132671D01*
X185355908Y-113267517D01*
X185349501Y-113327116D01*
X185349501Y-113327123D01*
X185349500Y-113327135D01*
X185349500Y-115122870D01*
X185349501Y-115122876D01*
X185355908Y-115182483D01*
X185406202Y-115317328D01*
X185406206Y-115317335D01*
X185492452Y-115432544D01*
X185492455Y-115432547D01*
X185607664Y-115518793D01*
X185607671Y-115518797D01*
X185739081Y-115567810D01*
X185795015Y-115609681D01*
X185819432Y-115675145D01*
X185804580Y-115743418D01*
X185783430Y-115771673D01*
X185661503Y-115893600D01*
X185525965Y-116087169D01*
X185525964Y-116087171D01*
X185426098Y-116301335D01*
X185426094Y-116301344D01*
X185364938Y-116529586D01*
X185364936Y-116529596D01*
X185344341Y-116764999D01*
X185344341Y-116765000D01*
X185364936Y-117000403D01*
X185364938Y-117000413D01*
X185426094Y-117228655D01*
X185426096Y-117228659D01*
X185426097Y-117228663D01*
X185496911Y-117380523D01*
X185525965Y-117442830D01*
X185525967Y-117442834D01*
X185605898Y-117556986D01*
X185661505Y-117636401D01*
X185828599Y-117803495D01*
X185925384Y-117871265D01*
X186022165Y-117939032D01*
X186022167Y-117939033D01*
X186022170Y-117939035D01*
X186236337Y-118038903D01*
X186464592Y-118100063D01*
X186652918Y-118116539D01*
X186699999Y-118120659D01*
X186700000Y-118120659D01*
X186700001Y-118120659D01*
X186739234Y-118117226D01*
X186935408Y-118100063D01*
X187163663Y-118038903D01*
X187377830Y-117939035D01*
X187571401Y-117803495D01*
X187738495Y-117636401D01*
X187873652Y-117443377D01*
X187928229Y-117399752D01*
X187975227Y-117390500D01*
X190367904Y-117390500D01*
X190434943Y-117410185D01*
X190461614Y-117433294D01*
X190487209Y-117462832D01*
X190568789Y-117533521D01*
X190595864Y-117556981D01*
X190595867Y-117556984D01*
X190595869Y-117556985D01*
X190595870Y-117556986D01*
X190716906Y-117634770D01*
X190716914Y-117634774D01*
X190716923Y-117634779D01*
X190841642Y-117691736D01*
X190845941Y-117693985D01*
X190847692Y-117694499D01*
X190985744Y-117735035D01*
X190985745Y-117735035D01*
X190985748Y-117735036D01*
X191028183Y-117741136D01*
X191128059Y-117755497D01*
X191184399Y-117755497D01*
X191184409Y-117755500D01*
X191235764Y-117755500D01*
X191715573Y-117755500D01*
X191715601Y-117755497D01*
X191771940Y-117755497D01*
X191771941Y-117755497D01*
X191905479Y-117736297D01*
X191905481Y-117736297D01*
X191911612Y-117735415D01*
X191914256Y-117735035D01*
X191914257Y-117735035D01*
X192052309Y-117694498D01*
X192148188Y-117650710D01*
X192183081Y-117634776D01*
X192183081Y-117634775D01*
X192183094Y-117634770D01*
X192304130Y-117556986D01*
X192412791Y-117462832D01*
X192412794Y-117462829D01*
X192451380Y-117418296D01*
X192510157Y-117380523D01*
X192545093Y-117375500D01*
X192854906Y-117375500D01*
X192921945Y-117395185D01*
X192948618Y-117418296D01*
X192987209Y-117462832D01*
X193068789Y-117533521D01*
X193095864Y-117556981D01*
X193095867Y-117556984D01*
X193095869Y-117556985D01*
X193095870Y-117556986D01*
X193216906Y-117634770D01*
X193216914Y-117634774D01*
X193216923Y-117634779D01*
X193341642Y-117691736D01*
X193345941Y-117693985D01*
X193347692Y-117694499D01*
X193485744Y-117735035D01*
X193485745Y-117735035D01*
X193485748Y-117735036D01*
X193528183Y-117741136D01*
X193628059Y-117755497D01*
X193684399Y-117755497D01*
X193684409Y-117755500D01*
X193735764Y-117755500D01*
X194215573Y-117755500D01*
X194215601Y-117755497D01*
X194271940Y-117755497D01*
X194271941Y-117755497D01*
X194405479Y-117736297D01*
X194405481Y-117736297D01*
X194411612Y-117735415D01*
X194414256Y-117735035D01*
X194414257Y-117735035D01*
X194552309Y-117694498D01*
X194648188Y-117650710D01*
X194683081Y-117634776D01*
X194683081Y-117634775D01*
X194683094Y-117634770D01*
X194804130Y-117556986D01*
X194912791Y-117462832D01*
X194912794Y-117462829D01*
X195007015Y-117354091D01*
X195084747Y-117233137D01*
X195144517Y-117102259D01*
X195185024Y-116964304D01*
X195205500Y-116821889D01*
X195205500Y-116361974D01*
X195225185Y-116294935D01*
X195277989Y-116249180D01*
X195347147Y-116239236D01*
X195379935Y-116248694D01*
X195520197Y-116311144D01*
X195705354Y-116350500D01*
X195705355Y-116350500D01*
X195894644Y-116350500D01*
X195894646Y-116350500D01*
X196079803Y-116311144D01*
X196252730Y-116234151D01*
X196405871Y-116122888D01*
X196532533Y-115982216D01*
X196627179Y-115818284D01*
X196685674Y-115638256D01*
X196705460Y-115450000D01*
X196685674Y-115261744D01*
X196627179Y-115081716D01*
X196532533Y-114917784D01*
X196405871Y-114777112D01*
X196405553Y-114776881D01*
X196252734Y-114665851D01*
X196252729Y-114665848D01*
X196079807Y-114588857D01*
X196079802Y-114588855D01*
X195934001Y-114557865D01*
X195894646Y-114549500D01*
X195705354Y-114549500D01*
X195655375Y-114560123D01*
X195520199Y-114588855D01*
X195379936Y-114651305D01*
X195310686Y-114660589D01*
X195247409Y-114630961D01*
X195210196Y-114571826D01*
X195205500Y-114538025D01*
X195205500Y-114078114D01*
X195205500Y-114078111D01*
X195185024Y-113935696D01*
X195144517Y-113797741D01*
X195084747Y-113666863D01*
X195010623Y-113551523D01*
X195009802Y-113550081D01*
X195007011Y-113545901D01*
X194912792Y-113437169D01*
X194912789Y-113437166D01*
X194804135Y-113343018D01*
X194804132Y-113343015D01*
X194777264Y-113325749D01*
X194683094Y-113265230D01*
X194683087Y-113265227D01*
X194683081Y-113265223D01*
X194558356Y-113208263D01*
X194554057Y-113206014D01*
X194414261Y-113164966D01*
X194414251Y-113164963D01*
X194286300Y-113146567D01*
X194271941Y-113144503D01*
X194271940Y-113144503D01*
X194215601Y-113144503D01*
X194215591Y-113144500D01*
X194164236Y-113144500D01*
X193735764Y-113144500D01*
X193684427Y-113144500D01*
X193684399Y-113144503D01*
X193628059Y-113144503D01*
X193494521Y-113163703D01*
X193494519Y-113163703D01*
X193485744Y-113164964D01*
X193347686Y-113205503D01*
X193216918Y-113265223D01*
X193216908Y-113265228D01*
X193216906Y-113265230D01*
X193183253Y-113286857D01*
X193095867Y-113343015D01*
X193095863Y-113343018D01*
X192987226Y-113437152D01*
X192987207Y-113437169D01*
X192987206Y-113437171D01*
X192948619Y-113481703D01*
X192889843Y-113519477D01*
X192854907Y-113524500D01*
X192545094Y-113524500D01*
X192478055Y-113504815D01*
X192451382Y-113481704D01*
X192443344Y-113472428D01*
X192412791Y-113437168D01*
X192304135Y-113343018D01*
X192304132Y-113343015D01*
X192277264Y-113325749D01*
X192183094Y-113265230D01*
X192183087Y-113265227D01*
X192183081Y-113265223D01*
X192058356Y-113208263D01*
X192054057Y-113206014D01*
X191914261Y-113164966D01*
X191914251Y-113164963D01*
X191786300Y-113146567D01*
X191771941Y-113144503D01*
X191771940Y-113144503D01*
X191715601Y-113144503D01*
X191715591Y-113144500D01*
X191664236Y-113144500D01*
X191235764Y-113144500D01*
X191184427Y-113144500D01*
X191184399Y-113144503D01*
X191128059Y-113144503D01*
X190994521Y-113163703D01*
X190994519Y-113163703D01*
X190985744Y-113164964D01*
X190847686Y-113205503D01*
X190716918Y-113265223D01*
X190716908Y-113265228D01*
X190716906Y-113265230D01*
X190683253Y-113286857D01*
X190595867Y-113343015D01*
X190595863Y-113343018D01*
X190487226Y-113437152D01*
X190487207Y-113437169D01*
X190487206Y-113437171D01*
X190448619Y-113481703D01*
X190389843Y-113519477D01*
X190354907Y-113524500D01*
X190115160Y-113524500D01*
X190048121Y-113504815D01*
X190002366Y-113452011D01*
X189992422Y-113382853D01*
X190007772Y-113338501D01*
X190014376Y-113327061D01*
X190077179Y-113218284D01*
X190135674Y-113038256D01*
X190153321Y-112870345D01*
X190179905Y-112805732D01*
X190188952Y-112795636D01*
X192673729Y-110310860D01*
X192673733Y-110310858D01*
X192760858Y-110223733D01*
X192788219Y-110182784D01*
X192815580Y-110141837D01*
X192815581Y-110141836D01*
X192829309Y-110121291D01*
X192829309Y-110121289D01*
X192829312Y-110121286D01*
X192864182Y-110037099D01*
X192908022Y-109982697D01*
X192974316Y-109960631D01*
X193042015Y-109977910D01*
X193089626Y-110029046D01*
X193102064Y-110071590D01*
X193103517Y-110085413D01*
X193114326Y-110188256D01*
X193114327Y-110188259D01*
X193172818Y-110368277D01*
X193172821Y-110368284D01*
X193267467Y-110532216D01*
X193389533Y-110667784D01*
X193394129Y-110672888D01*
X193547265Y-110784148D01*
X193547270Y-110784151D01*
X193720192Y-110861142D01*
X193720197Y-110861144D01*
X193905354Y-110900500D01*
X193905355Y-110900500D01*
X194094644Y-110900500D01*
X194094646Y-110900500D01*
X194279803Y-110861144D01*
X194452730Y-110784151D01*
X194605871Y-110672888D01*
X194732533Y-110532216D01*
X194827179Y-110368284D01*
X194885674Y-110188256D01*
X194903321Y-110020344D01*
X194929904Y-109955734D01*
X194938950Y-109945639D01*
X195089234Y-109795356D01*
X195150554Y-109761873D01*
X195220246Y-109766857D01*
X195276179Y-109808729D01*
X195300596Y-109874193D01*
X195285744Y-109942466D01*
X195269072Y-109966000D01*
X195267469Y-109967779D01*
X195267466Y-109967784D01*
X195172821Y-110131715D01*
X195172818Y-110131722D01*
X195114614Y-110310858D01*
X195114326Y-110311744D01*
X195094540Y-110500000D01*
X195114326Y-110688256D01*
X195114327Y-110688259D01*
X195172818Y-110868277D01*
X195172821Y-110868284D01*
X195267467Y-111032216D01*
X195369586Y-111145630D01*
X195394129Y-111172888D01*
X195547265Y-111284148D01*
X195547270Y-111284151D01*
X195720192Y-111361142D01*
X195720197Y-111361144D01*
X195905354Y-111400500D01*
X195905355Y-111400500D01*
X196094644Y-111400500D01*
X196094646Y-111400500D01*
X196279803Y-111361144D01*
X196452730Y-111284151D01*
X196605871Y-111172888D01*
X196732533Y-111032216D01*
X196827179Y-110868284D01*
X196885674Y-110688256D01*
X196903321Y-110520343D01*
X196929904Y-110455733D01*
X196938943Y-110445646D01*
X197082965Y-110301624D01*
X197144285Y-110268141D01*
X197213977Y-110273125D01*
X197269910Y-110314997D01*
X197278030Y-110327307D01*
X197367465Y-110482214D01*
X197494129Y-110622888D01*
X197647265Y-110734148D01*
X197647270Y-110734151D01*
X197820191Y-110811142D01*
X197820193Y-110811142D01*
X197820197Y-110811144D01*
X197975130Y-110844075D01*
X198036607Y-110877266D01*
X198037026Y-110877683D01*
X198108069Y-110948726D01*
X198141554Y-111010049D01*
X198144388Y-111036407D01*
X198144388Y-114375500D01*
X198124703Y-114442539D01*
X198071899Y-114488294D01*
X198020393Y-114499500D01*
X197997020Y-114499500D01*
X197997011Y-114499501D01*
X197937404Y-114505908D01*
X197802559Y-114556202D01*
X197802552Y-114556206D01*
X197687343Y-114642452D01*
X197687340Y-114642455D01*
X197601094Y-114757664D01*
X197601090Y-114757671D01*
X197550796Y-114892517D01*
X197544389Y-114952116D01*
X197544388Y-114952135D01*
X197544388Y-116647870D01*
X197544389Y-116647876D01*
X197550796Y-116707483D01*
X197601090Y-116842328D01*
X197601094Y-116842335D01*
X197687340Y-116957544D01*
X197687343Y-116957547D01*
X197802552Y-117043793D01*
X197802559Y-117043797D01*
X197937405Y-117094091D01*
X197937404Y-117094091D01*
X197944332Y-117094835D01*
X197997015Y-117100500D01*
X199692760Y-117100499D01*
X199752371Y-117094091D01*
X199887219Y-117043796D01*
X200002434Y-116957546D01*
X200009238Y-116948455D01*
X200065168Y-116906584D01*
X200134859Y-116901597D01*
X200179628Y-116921188D01*
X200192400Y-116930130D01*
X200192406Y-116930134D01*
X200398561Y-117026265D01*
X200398570Y-117026269D01*
X200618277Y-117085139D01*
X200618288Y-117085141D01*
X200844886Y-117104966D01*
X200844890Y-117104966D01*
X201071487Y-117085141D01*
X201071498Y-117085139D01*
X201291205Y-117026269D01*
X201291219Y-117026264D01*
X201497366Y-116930136D01*
X201570359Y-116879024D01*
X200891335Y-116200000D01*
X200897549Y-116200000D01*
X200999282Y-116172741D01*
X201090494Y-116120080D01*
X201164968Y-116045606D01*
X201217629Y-115954394D01*
X201244888Y-115852661D01*
X201244888Y-115846447D01*
X201923912Y-116525471D01*
X201975024Y-116452478D01*
X202071152Y-116246331D01*
X202071157Y-116246317D01*
X202130027Y-116026610D01*
X202130029Y-116026599D01*
X202149854Y-115800002D01*
X202149854Y-115799997D01*
X202130029Y-115573400D01*
X202130027Y-115573389D01*
X202071157Y-115353682D01*
X202071152Y-115353668D01*
X201975024Y-115147521D01*
X201975020Y-115147513D01*
X201923913Y-115074526D01*
X201244888Y-115753551D01*
X201244888Y-115747339D01*
X201217629Y-115645606D01*
X201164968Y-115554394D01*
X201090494Y-115479920D01*
X200999282Y-115427259D01*
X200897549Y-115400000D01*
X200891335Y-115400000D01*
X201570360Y-114720974D01*
X201497366Y-114669863D01*
X201291219Y-114573735D01*
X201291205Y-114573730D01*
X201071498Y-114514860D01*
X201071487Y-114514858D01*
X200844890Y-114495034D01*
X200844886Y-114495034D01*
X200618288Y-114514858D01*
X200618277Y-114514860D01*
X200398570Y-114573730D01*
X200398561Y-114573734D01*
X200192400Y-114669868D01*
X200192395Y-114669871D01*
X200179624Y-114678813D01*
X200113417Y-114701138D01*
X200045651Y-114684124D01*
X200009240Y-114651546D01*
X200002434Y-114642454D01*
X200002432Y-114642453D01*
X200002432Y-114642452D01*
X199887223Y-114556206D01*
X199887216Y-114556202D01*
X199752370Y-114505908D01*
X199752371Y-114505908D01*
X199692771Y-114499501D01*
X199692769Y-114499500D01*
X199692761Y-114499500D01*
X199692753Y-114499500D01*
X199669388Y-114499500D01*
X199602349Y-114479815D01*
X199556594Y-114427011D01*
X199545388Y-114375500D01*
X199545388Y-110625895D01*
X199545309Y-110625500D01*
X199545284Y-110625373D01*
X199534556Y-110571442D01*
X199518468Y-110490560D01*
X199488243Y-110417589D01*
X199465665Y-110363080D01*
X199389000Y-110248342D01*
X199388999Y-110248341D01*
X199026503Y-109885846D01*
X198993018Y-109824523D01*
X198990865Y-109811143D01*
X198985674Y-109761744D01*
X198961364Y-109686927D01*
X198927181Y-109581722D01*
X198927180Y-109581721D01*
X198927179Y-109581716D01*
X198861401Y-109467785D01*
X198832535Y-109417787D01*
X198832531Y-109417782D01*
X198832344Y-109417574D01*
X198832273Y-109417427D01*
X198828714Y-109412528D01*
X198829610Y-109411876D01*
X198802119Y-109354580D01*
X198800500Y-109334608D01*
X198800500Y-105015391D01*
X198820185Y-104948352D01*
X198832352Y-104932417D01*
X198832533Y-104932216D01*
X198927179Y-104768284D01*
X198985674Y-104588256D01*
X198990864Y-104538869D01*
X199017447Y-104474258D01*
X199026493Y-104464162D01*
X199189002Y-104301655D01*
X199265663Y-104186923D01*
X199318468Y-104059440D01*
X199327277Y-104015152D01*
X199345388Y-103924108D01*
X199345388Y-99924499D01*
X199365073Y-99857460D01*
X199417877Y-99811705D01*
X199469388Y-99800499D01*
X199492759Y-99800499D01*
X199492760Y-99800499D01*
X199552371Y-99794091D01*
X199687219Y-99743796D01*
X199802434Y-99657546D01*
X199809238Y-99648455D01*
X199865168Y-99606584D01*
X199934859Y-99601597D01*
X199979628Y-99621188D01*
X199992400Y-99630130D01*
X199992406Y-99630134D01*
X200198561Y-99726265D01*
X200198570Y-99726269D01*
X200418277Y-99785139D01*
X200418288Y-99785141D01*
X200644886Y-99804966D01*
X200644890Y-99804966D01*
X200871487Y-99785141D01*
X200871498Y-99785139D01*
X201091205Y-99726269D01*
X201091219Y-99726264D01*
X201297366Y-99630136D01*
X201370359Y-99579024D01*
X200691335Y-98900000D01*
X200697549Y-98900000D01*
X200799282Y-98872741D01*
X200890494Y-98820080D01*
X200964968Y-98745606D01*
X201017629Y-98654394D01*
X201044888Y-98552661D01*
X201044888Y-98546447D01*
X201723912Y-99225471D01*
X201775024Y-99152478D01*
X201871152Y-98946331D01*
X201871157Y-98946317D01*
X201930027Y-98726610D01*
X201930027Y-98726609D01*
X201931950Y-98704628D01*
X201957401Y-98639559D01*
X202013990Y-98598578D01*
X202083752Y-98594697D01*
X202143160Y-98627750D01*
X204038181Y-100522771D01*
X204071666Y-100584094D01*
X204074500Y-100610452D01*
X204074500Y-102079121D01*
X204054815Y-102146160D01*
X204002011Y-102191915D01*
X203932853Y-102201859D01*
X203900064Y-102192400D01*
X203779807Y-102138857D01*
X203779802Y-102138855D01*
X203634001Y-102107865D01*
X203594646Y-102099500D01*
X203405354Y-102099500D01*
X203372897Y-102106398D01*
X203220197Y-102138855D01*
X203220192Y-102138857D01*
X203047270Y-102215848D01*
X203047265Y-102215851D01*
X202894129Y-102327111D01*
X202767466Y-102467785D01*
X202672821Y-102631715D01*
X202672818Y-102631722D01*
X202614327Y-102811739D01*
X202614325Y-102811750D01*
X202609134Y-102861129D01*
X202582549Y-102925743D01*
X202573495Y-102935846D01*
X202155887Y-103353454D01*
X202079224Y-103468190D01*
X202026421Y-103595666D01*
X202026420Y-103595672D01*
X202022407Y-103615848D01*
X202022407Y-103615849D01*
X201999500Y-103731004D01*
X201999500Y-103731007D01*
X201999500Y-108131006D01*
X201999500Y-108268994D01*
X201999500Y-108268996D01*
X201999499Y-108268996D01*
X202026418Y-108404322D01*
X202026421Y-108404332D01*
X202079222Y-108531807D01*
X202155887Y-108646545D01*
X202155888Y-108646546D01*
X202573495Y-109064152D01*
X202606980Y-109125475D01*
X202609134Y-109138869D01*
X202614325Y-109188249D01*
X202614327Y-109188260D01*
X202672818Y-109368277D01*
X202672821Y-109368284D01*
X202767466Y-109532215D01*
X202888851Y-109667028D01*
X202919081Y-109730020D01*
X202910455Y-109799355D01*
X202888851Y-109832972D01*
X202767466Y-109967784D01*
X202672821Y-110131715D01*
X202672818Y-110131722D01*
X202614614Y-110310858D01*
X202614326Y-110311744D01*
X202594540Y-110500000D01*
X202614326Y-110688256D01*
X202614327Y-110688259D01*
X202672818Y-110868277D01*
X202672821Y-110868284D01*
X202767467Y-111032216D01*
X202869586Y-111145630D01*
X202894129Y-111172888D01*
X203047265Y-111284148D01*
X203047270Y-111284151D01*
X203220192Y-111361142D01*
X203220197Y-111361144D01*
X203405354Y-111400500D01*
X203405355Y-111400500D01*
X203594644Y-111400500D01*
X203594646Y-111400500D01*
X203779803Y-111361144D01*
X203952730Y-111284151D01*
X204045433Y-111216798D01*
X204094116Y-111195502D01*
X204204328Y-111173580D01*
X204279362Y-111142500D01*
X204331807Y-111120777D01*
X204331808Y-111120776D01*
X204331811Y-111120775D01*
X204446543Y-111044114D01*
X205261022Y-110229633D01*
X205322343Y-110196150D01*
X205392034Y-110201134D01*
X205447968Y-110243005D01*
X205468476Y-110285222D01*
X205476094Y-110313655D01*
X205476097Y-110313663D01*
X205542346Y-110455733D01*
X205575965Y-110527830D01*
X205575967Y-110527834D01*
X205711501Y-110721395D01*
X205711506Y-110721402D01*
X205878597Y-110888493D01*
X205878603Y-110888498D01*
X206064158Y-111018425D01*
X206107783Y-111073002D01*
X206114977Y-111142500D01*
X206083454Y-111204855D01*
X206064158Y-111221575D01*
X205878597Y-111351505D01*
X205711505Y-111518597D01*
X205575965Y-111712169D01*
X205575964Y-111712171D01*
X205476098Y-111926335D01*
X205476094Y-111926344D01*
X205414938Y-112154586D01*
X205414936Y-112154596D01*
X205394341Y-112389999D01*
X205394341Y-112390000D01*
X205414936Y-112625403D01*
X205414938Y-112625413D01*
X205476094Y-112853655D01*
X205476096Y-112853659D01*
X205476097Y-112853663D01*
X205512254Y-112931202D01*
X205575965Y-113067830D01*
X205575967Y-113067834D01*
X205711501Y-113261395D01*
X205711506Y-113261402D01*
X205878597Y-113428493D01*
X205878603Y-113428498D01*
X205890991Y-113437172D01*
X206046283Y-113545909D01*
X206064594Y-113558730D01*
X206108219Y-113613307D01*
X206115413Y-113682805D01*
X206083890Y-113745160D01*
X206064595Y-113761880D01*
X205878922Y-113891890D01*
X205878920Y-113891891D01*
X205711891Y-114058920D01*
X205711886Y-114058926D01*
X205576400Y-114252420D01*
X205576399Y-114252422D01*
X205476570Y-114466507D01*
X205476567Y-114466513D01*
X205419364Y-114679999D01*
X205419364Y-114680000D01*
X206316988Y-114680000D01*
X206284075Y-114737007D01*
X206250000Y-114864174D01*
X206250000Y-114995826D01*
X206284075Y-115122993D01*
X206316988Y-115180000D01*
X205419364Y-115180000D01*
X205476567Y-115393486D01*
X205476570Y-115393492D01*
X205576399Y-115607578D01*
X205711894Y-115801082D01*
X205878917Y-115968105D01*
X206072421Y-116103600D01*
X206286507Y-116203429D01*
X206286516Y-116203433D01*
X206500000Y-116260634D01*
X206500000Y-115363012D01*
X206557007Y-115395925D01*
X206684174Y-115430000D01*
X206815826Y-115430000D01*
X206942993Y-115395925D01*
X207000000Y-115363012D01*
X207000000Y-116260633D01*
X207213483Y-116203433D01*
X207213492Y-116203429D01*
X207427578Y-116103600D01*
X207621082Y-115968105D01*
X207788105Y-115801082D01*
X207923600Y-115607578D01*
X208023429Y-115393492D01*
X208023432Y-115393486D01*
X208080636Y-115180000D01*
X207183012Y-115180000D01*
X207215925Y-115122993D01*
X207250000Y-114995826D01*
X207250000Y-114864174D01*
X207215925Y-114737007D01*
X207183012Y-114680000D01*
X208080636Y-114680000D01*
X208080635Y-114679999D01*
X208023432Y-114466513D01*
X208023429Y-114466507D01*
X207923600Y-114252422D01*
X207923599Y-114252420D01*
X207788113Y-114058926D01*
X207788108Y-114058920D01*
X207621078Y-113891890D01*
X207435405Y-113761879D01*
X207391780Y-113707302D01*
X207384588Y-113637804D01*
X207416110Y-113575449D01*
X207435406Y-113558730D01*
X207447758Y-113550081D01*
X207621401Y-113428495D01*
X207788495Y-113261401D01*
X207924035Y-113067830D01*
X208023903Y-112853663D01*
X208085063Y-112625408D01*
X208105659Y-112390000D01*
X208085063Y-112154592D01*
X208023903Y-111926337D01*
X207924035Y-111712171D01*
X207788495Y-111518599D01*
X207788494Y-111518597D01*
X207621402Y-111351506D01*
X207621396Y-111351501D01*
X207435842Y-111221575D01*
X207392217Y-111166998D01*
X207385023Y-111097500D01*
X207416546Y-111035145D01*
X207435842Y-111018425D01*
X207483513Y-110985045D01*
X207621401Y-110888495D01*
X207788495Y-110721401D01*
X207924035Y-110527830D01*
X208023903Y-110313663D01*
X208085063Y-110085408D01*
X208105659Y-109850000D01*
X208085063Y-109614592D01*
X208023903Y-109386337D01*
X207924035Y-109172171D01*
X207900709Y-109138857D01*
X207788494Y-108978597D01*
X207621402Y-108811506D01*
X207621396Y-108811501D01*
X207435842Y-108681575D01*
X207392217Y-108626998D01*
X207385023Y-108557500D01*
X207416546Y-108495145D01*
X207435842Y-108478425D01*
X207458026Y-108462891D01*
X207621401Y-108348495D01*
X207788495Y-108181401D01*
X207924035Y-107987830D01*
X208023903Y-107773663D01*
X208085063Y-107545408D01*
X208105659Y-107310000D01*
X208085063Y-107074592D01*
X208023903Y-106846337D01*
X207924035Y-106632171D01*
X207919439Y-106625606D01*
X207788494Y-106438597D01*
X207621402Y-106271506D01*
X207621396Y-106271501D01*
X207435842Y-106141575D01*
X207392217Y-106086998D01*
X207385023Y-106017500D01*
X207416546Y-105955145D01*
X207435842Y-105938425D01*
X207458026Y-105922891D01*
X207621401Y-105808495D01*
X207788495Y-105641401D01*
X207924035Y-105447830D01*
X208023903Y-105233663D01*
X208085063Y-105005408D01*
X208105659Y-104770000D01*
X208085063Y-104534592D01*
X208023903Y-104306337D01*
X207924035Y-104092171D01*
X207917065Y-104082216D01*
X207788494Y-103898597D01*
X207621402Y-103731506D01*
X207621396Y-103731501D01*
X207435842Y-103601575D01*
X207392217Y-103546998D01*
X207385023Y-103477500D01*
X207416546Y-103415145D01*
X207435842Y-103398425D01*
X207500067Y-103353454D01*
X207621401Y-103268495D01*
X207788495Y-103101401D01*
X207924035Y-102907830D01*
X208023903Y-102693663D01*
X208085063Y-102465408D01*
X208105659Y-102230000D01*
X208085063Y-101994592D01*
X208023903Y-101766337D01*
X207924035Y-101552171D01*
X207801458Y-101377111D01*
X207788494Y-101358597D01*
X207621402Y-101191506D01*
X207621396Y-101191501D01*
X207435842Y-101061575D01*
X207392217Y-101006998D01*
X207385023Y-100937500D01*
X207416546Y-100875145D01*
X207435842Y-100858425D01*
X207458026Y-100842891D01*
X207621401Y-100728495D01*
X207788495Y-100561401D01*
X207924035Y-100367830D01*
X208023903Y-100153663D01*
X208085063Y-99925408D01*
X208105659Y-99690000D01*
X208085063Y-99454592D01*
X208023903Y-99226337D01*
X207924035Y-99012171D01*
X207891600Y-98965849D01*
X207788496Y-98818600D01*
X207788495Y-98818599D01*
X207666567Y-98696671D01*
X207633084Y-98635351D01*
X207638068Y-98565659D01*
X207679939Y-98509725D01*
X207710915Y-98492810D01*
X207842331Y-98443796D01*
X207957546Y-98357546D01*
X208043796Y-98242331D01*
X208094091Y-98107483D01*
X208100500Y-98047873D01*
X208100499Y-96252128D01*
X208094091Y-96192517D01*
X208075442Y-96142517D01*
X208043797Y-96057671D01*
X208043793Y-96057664D01*
X207957547Y-95942455D01*
X207957544Y-95942452D01*
X207842335Y-95856206D01*
X207842328Y-95856202D01*
X207707482Y-95805908D01*
X207707483Y-95805908D01*
X207647883Y-95799501D01*
X207647881Y-95799500D01*
X207647873Y-95799500D01*
X207647864Y-95799500D01*
X205852129Y-95799500D01*
X205852123Y-95799501D01*
X205792516Y-95805908D01*
X205657671Y-95856202D01*
X205657664Y-95856206D01*
X205542455Y-95942452D01*
X205542452Y-95942455D01*
X205456206Y-96057664D01*
X205456202Y-96057671D01*
X205405908Y-96192517D01*
X205399501Y-96252116D01*
X205399501Y-96252123D01*
X205399500Y-96252135D01*
X205399500Y-98047870D01*
X205399501Y-98047876D01*
X205405908Y-98107483D01*
X205456202Y-98242328D01*
X205456206Y-98242335D01*
X205542452Y-98357544D01*
X205542455Y-98357547D01*
X205657664Y-98443793D01*
X205657671Y-98443797D01*
X205789081Y-98492810D01*
X205845015Y-98534681D01*
X205869432Y-98600145D01*
X205854580Y-98668418D01*
X205833430Y-98696673D01*
X205711503Y-98818600D01*
X205575965Y-99012169D01*
X205575964Y-99012171D01*
X205476098Y-99226335D01*
X205476094Y-99226344D01*
X205414938Y-99454586D01*
X205414936Y-99454596D01*
X205394341Y-99689999D01*
X205394341Y-99690002D01*
X205404967Y-99811464D01*
X205391200Y-99879964D01*
X205342585Y-99930147D01*
X205274556Y-99946080D01*
X205208712Y-99922704D01*
X205190335Y-99905405D01*
X205190166Y-99905575D01*
X205157574Y-99872983D01*
X205098733Y-99814142D01*
X205098732Y-99814141D01*
X200817927Y-95533337D01*
X200817925Y-95533334D01*
X200817925Y-95533335D01*
X200810858Y-95526268D01*
X200810858Y-95526267D01*
X200746272Y-95461681D01*
X200712788Y-95400357D01*
X200717773Y-95330666D01*
X200759644Y-95274732D01*
X200825109Y-95250316D01*
X200833954Y-95250000D01*
X208426264Y-95250000D01*
X208493303Y-95269685D01*
X208539058Y-95322489D01*
X208550263Y-95373735D01*
X208559580Y-99743047D01*
X208599734Y-118575474D01*
X208580192Y-118642555D01*
X208527486Y-118688422D01*
X208475473Y-118699738D01*
X184923739Y-118650259D01*
X184856742Y-118630433D01*
X184811098Y-118577533D01*
X184800000Y-118526259D01*
X184800000Y-95418236D01*
X184819685Y-95351197D01*
X184872489Y-95305442D01*
X184918101Y-95294376D01*
X185847060Y-95250140D01*
X185852958Y-95250000D01*
X187266046Y-95250000D01*
X187333085Y-95269685D01*
G37*
%TD.AperFunction*%
%TA.AperFunction,Conductor*%
G36*
X200081587Y-96570185D02*
G01*
X200102229Y-96586819D01*
X200517137Y-97001727D01*
X200550622Y-97063050D01*
X200545638Y-97132742D01*
X200503766Y-97188675D01*
X200440264Y-97212936D01*
X200418287Y-97214858D01*
X200418277Y-97214860D01*
X200198570Y-97273730D01*
X200198561Y-97273734D01*
X199992400Y-97369868D01*
X199992395Y-97369871D01*
X199979624Y-97378813D01*
X199913417Y-97401138D01*
X199845651Y-97384124D01*
X199809240Y-97351546D01*
X199802434Y-97342454D01*
X199802432Y-97342453D01*
X199802432Y-97342452D01*
X199687223Y-97256206D01*
X199687216Y-97256202D01*
X199552370Y-97205908D01*
X199552371Y-97205908D01*
X199492771Y-97199501D01*
X199492769Y-97199500D01*
X199492761Y-97199500D01*
X199492752Y-97199500D01*
X197797017Y-97199500D01*
X197797011Y-97199501D01*
X197737404Y-97205908D01*
X197602559Y-97256202D01*
X197602552Y-97256206D01*
X197487343Y-97342452D01*
X197487340Y-97342455D01*
X197401094Y-97457664D01*
X197401090Y-97457671D01*
X197350796Y-97592517D01*
X197344389Y-97652116D01*
X197344388Y-97652135D01*
X197344388Y-99347870D01*
X197344389Y-99347876D01*
X197350796Y-99407483D01*
X197401090Y-99542328D01*
X197401094Y-99542335D01*
X197487340Y-99657544D01*
X197487343Y-99657547D01*
X197602552Y-99743793D01*
X197602559Y-99743797D01*
X197647506Y-99760561D01*
X197737405Y-99794091D01*
X197797015Y-99800500D01*
X197820385Y-99800499D01*
X197887424Y-99820181D01*
X197933180Y-99872983D01*
X197944388Y-99924499D01*
X197944388Y-103412045D01*
X197924703Y-103479084D01*
X197871899Y-103524839D01*
X197846170Y-103533335D01*
X197820196Y-103538856D01*
X197820192Y-103538857D01*
X197647270Y-103615848D01*
X197647265Y-103615851D01*
X197494129Y-103727111D01*
X197367466Y-103867785D01*
X197272821Y-104031715D01*
X197272818Y-104031722D01*
X197214327Y-104211740D01*
X197214326Y-104211744D01*
X197194540Y-104400000D01*
X197214326Y-104588256D01*
X197214327Y-104588259D01*
X197272818Y-104768277D01*
X197272821Y-104768284D01*
X197367466Y-104932215D01*
X197367648Y-104932417D01*
X197367716Y-104932559D01*
X197371285Y-104937471D01*
X197370386Y-104938123D01*
X197397879Y-104995408D01*
X197399500Y-105015391D01*
X197399500Y-108190243D01*
X197379815Y-108257282D01*
X197327011Y-108303037D01*
X197257853Y-108312981D01*
X197194297Y-108283956D01*
X197187819Y-108277924D01*
X196515503Y-107605608D01*
X196515483Y-107605586D01*
X196424038Y-107514141D01*
X196372814Y-107479915D01*
X196354659Y-107467784D01*
X196321591Y-107445688D01*
X196321588Y-107445686D01*
X196321585Y-107445685D01*
X196241097Y-107412347D01*
X196207758Y-107398537D01*
X196197732Y-107396543D01*
X196147334Y-107386518D01*
X196086915Y-107374500D01*
X196086912Y-107374500D01*
X196086911Y-107374500D01*
X194203748Y-107374500D01*
X194136709Y-107354815D01*
X194111600Y-107333474D01*
X194105873Y-107327114D01*
X194105869Y-107327110D01*
X193952734Y-107215851D01*
X193952729Y-107215848D01*
X193779807Y-107138857D01*
X193779802Y-107138855D01*
X193634001Y-107107865D01*
X193594646Y-107099500D01*
X193405354Y-107099500D01*
X193372897Y-107106398D01*
X193220197Y-107138855D01*
X193220192Y-107138857D01*
X193074936Y-107203531D01*
X193005686Y-107212816D01*
X192942409Y-107183188D01*
X192905196Y-107124053D01*
X192900500Y-107090252D01*
X192900500Y-105238088D01*
X192899234Y-105231727D01*
X192899234Y-105231716D01*
X192899233Y-105231717D01*
X192876464Y-105117250D01*
X192876463Y-105117243D01*
X192829311Y-105003409D01*
X192823965Y-104995408D01*
X192805507Y-104967783D01*
X192760861Y-104900966D01*
X192760860Y-104900964D01*
X192726344Y-104866448D01*
X192673733Y-104813837D01*
X192673732Y-104813836D01*
X191018232Y-103158337D01*
X191018230Y-103158334D01*
X191018230Y-103158335D01*
X191011163Y-103151268D01*
X191011163Y-103151267D01*
X190924038Y-103064142D01*
X190924037Y-103064141D01*
X190924036Y-103064140D01*
X190872814Y-103029915D01*
X190821591Y-102995688D01*
X190821588Y-102995686D01*
X190821585Y-102995685D01*
X190741097Y-102962347D01*
X190707759Y-102948538D01*
X190707760Y-102948538D01*
X190707757Y-102948537D01*
X190707753Y-102948536D01*
X190707749Y-102948535D01*
X190641473Y-102935352D01*
X190579562Y-102902967D01*
X190573521Y-102896715D01*
X190555871Y-102877112D01*
X190555870Y-102877111D01*
X190555869Y-102877110D01*
X190555864Y-102877106D01*
X190402734Y-102765851D01*
X190402729Y-102765848D01*
X190229807Y-102688857D01*
X190229802Y-102688855D01*
X190084001Y-102657865D01*
X190044646Y-102649500D01*
X189855354Y-102649500D01*
X189822897Y-102656398D01*
X189670197Y-102688855D01*
X189670192Y-102688857D01*
X189497270Y-102765848D01*
X189497265Y-102765851D01*
X189344129Y-102877111D01*
X189217466Y-103017785D01*
X189122821Y-103181715D01*
X189122818Y-103181722D01*
X189064327Y-103361740D01*
X189064326Y-103361744D01*
X189044540Y-103550000D01*
X189064326Y-103738256D01*
X189064327Y-103738259D01*
X189122818Y-103918277D01*
X189122821Y-103918284D01*
X189217467Y-104082216D01*
X189253624Y-104122372D01*
X189344129Y-104222888D01*
X189497265Y-104334148D01*
X189497270Y-104334151D01*
X189670192Y-104411142D01*
X189670197Y-104411144D01*
X189855354Y-104450500D01*
X189855355Y-104450500D01*
X190044644Y-104450500D01*
X190044646Y-104450500D01*
X190229803Y-104411144D01*
X190282697Y-104387594D01*
X190340191Y-104361996D01*
X190409441Y-104352711D01*
X190472718Y-104382339D01*
X190478308Y-104387594D01*
X190691245Y-104600531D01*
X190895840Y-104805125D01*
X190929325Y-104866448D01*
X190924341Y-104936139D01*
X190900309Y-104975778D01*
X190817466Y-105067784D01*
X190722821Y-105231715D01*
X190722818Y-105231722D01*
X190664327Y-105411740D01*
X190664326Y-105411744D01*
X190660533Y-105447834D01*
X190652551Y-105523778D01*
X190625966Y-105588393D01*
X190616911Y-105598497D01*
X188779459Y-107435949D01*
X188718136Y-107469434D01*
X188648444Y-107464450D01*
X188599629Y-107431240D01*
X188505871Y-107327112D01*
X188505870Y-107327111D01*
X188352734Y-107215851D01*
X188352729Y-107215848D01*
X188179807Y-107138857D01*
X188179802Y-107138855D01*
X188034001Y-107107865D01*
X187994646Y-107099500D01*
X187994645Y-107099500D01*
X187935453Y-107099500D01*
X187868414Y-107079815D01*
X187847772Y-107063181D01*
X187261819Y-106477228D01*
X187228334Y-106415905D01*
X187225500Y-106389547D01*
X187225500Y-99750000D01*
X192794540Y-99750000D01*
X192814326Y-99938256D01*
X192814327Y-99938259D01*
X192872818Y-100118277D01*
X192872821Y-100118284D01*
X192967467Y-100282216D01*
X193044558Y-100367834D01*
X193094129Y-100422888D01*
X193247265Y-100534148D01*
X193247270Y-100534151D01*
X193420192Y-100611142D01*
X193420197Y-100611144D01*
X193605354Y-100650500D01*
X193664548Y-100650500D01*
X193731587Y-100670185D01*
X193752229Y-100686819D01*
X194828479Y-101763069D01*
X194861964Y-101824392D01*
X194864119Y-101863711D01*
X194844540Y-102050000D01*
X194864326Y-102238256D01*
X194864327Y-102238259D01*
X194922818Y-102418277D01*
X194922821Y-102418284D01*
X195017467Y-102582216D01*
X195117815Y-102693663D01*
X195144129Y-102722888D01*
X195297265Y-102834148D01*
X195297270Y-102834151D01*
X195470192Y-102911142D01*
X195470197Y-102911144D01*
X195655354Y-102950500D01*
X195655355Y-102950500D01*
X195844644Y-102950500D01*
X195844646Y-102950500D01*
X196029803Y-102911144D01*
X196202730Y-102834151D01*
X196355871Y-102722888D01*
X196482533Y-102582216D01*
X196577179Y-102418284D01*
X196635674Y-102238256D01*
X196655460Y-102050000D01*
X196635674Y-101861744D01*
X196577179Y-101681716D01*
X196482533Y-101517784D01*
X196355871Y-101377112D01*
X196330390Y-101358599D01*
X196202734Y-101265851D01*
X196202729Y-101265848D01*
X196039337Y-101193100D01*
X196002092Y-101167502D01*
X194638960Y-99804370D01*
X194605475Y-99743047D01*
X194603323Y-99729671D01*
X194585674Y-99561744D01*
X194527179Y-99381716D01*
X194432533Y-99217784D01*
X194305871Y-99077112D01*
X194305870Y-99077111D01*
X194152734Y-98965851D01*
X194152729Y-98965848D01*
X193979807Y-98888857D01*
X193979802Y-98888855D01*
X193834001Y-98857865D01*
X193794646Y-98849500D01*
X193605354Y-98849500D01*
X193572897Y-98856398D01*
X193420197Y-98888855D01*
X193420192Y-98888857D01*
X193247270Y-98965848D01*
X193247265Y-98965851D01*
X193094129Y-99077111D01*
X192967466Y-99217785D01*
X192872821Y-99381715D01*
X192872818Y-99381722D01*
X192820632Y-99542335D01*
X192814326Y-99561744D01*
X192794540Y-99750000D01*
X187225500Y-99750000D01*
X187225500Y-98574499D01*
X187245185Y-98507460D01*
X187297989Y-98461705D01*
X187349500Y-98450499D01*
X187497871Y-98450499D01*
X187497872Y-98450499D01*
X187557483Y-98444091D01*
X187692331Y-98393796D01*
X187807546Y-98307546D01*
X187893796Y-98192331D01*
X187943002Y-98060401D01*
X187984872Y-98004468D01*
X188050337Y-97980050D01*
X188118610Y-97994901D01*
X188146865Y-98016053D01*
X188268917Y-98138105D01*
X188462421Y-98273600D01*
X188676507Y-98373429D01*
X188676516Y-98373433D01*
X188890000Y-98430634D01*
X188890000Y-97533012D01*
X188947007Y-97565925D01*
X189074174Y-97600000D01*
X189205826Y-97600000D01*
X189332993Y-97565925D01*
X189390000Y-97533012D01*
X189390000Y-98430633D01*
X189603483Y-98373433D01*
X189603492Y-98373429D01*
X189817578Y-98273600D01*
X190011082Y-98138105D01*
X190178105Y-97971082D01*
X190308119Y-97785405D01*
X190362696Y-97741781D01*
X190432195Y-97734588D01*
X190494549Y-97766110D01*
X190511269Y-97785405D01*
X190641505Y-97971401D01*
X190808599Y-98138495D01*
X190904473Y-98205627D01*
X191002165Y-98274032D01*
X191002167Y-98274033D01*
X191002170Y-98274035D01*
X191216337Y-98373903D01*
X191444592Y-98435063D01*
X191621034Y-98450500D01*
X191679999Y-98455659D01*
X191680000Y-98455659D01*
X191680001Y-98455659D01*
X191738966Y-98450500D01*
X191915408Y-98435063D01*
X192143663Y-98373903D01*
X192357830Y-98274035D01*
X192551401Y-98138495D01*
X192718495Y-97971401D01*
X192848425Y-97785842D01*
X192903002Y-97742217D01*
X192972500Y-97735023D01*
X193034855Y-97766546D01*
X193051575Y-97785842D01*
X193181500Y-97971395D01*
X193181505Y-97971401D01*
X193348599Y-98138495D01*
X193444473Y-98205627D01*
X193542165Y-98274032D01*
X193542167Y-98274033D01*
X193542170Y-98274035D01*
X193756337Y-98373903D01*
X193984592Y-98435063D01*
X194161034Y-98450500D01*
X194219999Y-98455659D01*
X194220000Y-98455659D01*
X194220001Y-98455659D01*
X194278966Y-98450500D01*
X194455408Y-98435063D01*
X194683663Y-98373903D01*
X194897830Y-98274035D01*
X195091401Y-98138495D01*
X195258495Y-97971401D01*
X195394035Y-97777830D01*
X195493903Y-97563663D01*
X195555063Y-97335408D01*
X195575659Y-97100000D01*
X195555063Y-96864592D01*
X195512728Y-96706593D01*
X195514391Y-96636743D01*
X195553554Y-96578881D01*
X195617782Y-96551377D01*
X195632503Y-96550500D01*
X200014548Y-96550500D01*
X200081587Y-96570185D01*
G37*
%TD.AperFunction*%
M02*
